ISO-10303-21;
HEADER;
FILE_DESCRIPTION(('Open CASCADE Model'),'2;1');
FILE_NAME('Open CASCADE Shape Model','2026-06-19T22:17:23',('Author'),(
    'Open CASCADE'),'Open CASCADE STEP processor 7.8','Open CASCADE 7.8'
  ,'Unknown');
FILE_SCHEMA(('CONFIG_CONTROL_DESIGN'));
ENDSEC;
DATA;
#1 = APPLICATION_PROTOCOL_DEFINITION('international standard',
  'config_control_design',1994,#2);
#2 = APPLICATION_CONTEXT(
'configuration controlled 3D designs of mechanical parts and assemblies'
  );
#3 = SHAPE_DEFINITION_REPRESENTATION(#4,#10);
#4 = PRODUCT_DEFINITION_SHAPE('','',#5);
#5 = PRODUCT_DEFINITION('design','',#6,#9);
#6 = PRODUCT_DEFINITION_FORMATION_WITH_SPECIFIED_SOURCE('','',#7,
  .NOT_KNOWN.);
#7 = PRODUCT('Open CASCADE STEP translator 7.8 18',
  'Open CASCADE STEP translator 7.8 18','',(#8));
#8 = MECHANICAL_CONTEXT('',#2,'mechanical');
#9 = DESIGN_CONTEXT('',#2,'design');
#10 = ADVANCED_BREP_SHAPE_REPRESENTATION('',(#11,#15),#275);
#11 = AXIS2_PLACEMENT_3D('',#12,#13,#14);
#12 = CARTESIAN_POINT('',(0.,0.,0.));
#13 = DIRECTION('',(0.,0.,1.));
#14 = DIRECTION('',(1.,0.,-0.));
#15 = MANIFOLD_SOLID_BREP('',#16);
#16 = CLOSED_SHELL('',(#17,#134,#181,#259,#267));
#17 = ADVANCED_FACE('',(#18),#32,.T.);
#18 = FACE_BOUND('',#19,.T.);
#19 = EDGE_LOOP('',(#20,#55,#84,#107));
#20 = ORIENTED_EDGE('',*,*,#21,.T.);
#21 = EDGE_CURVE('',#22,#24,#26,.T.);
#22 = VERTEX_POINT('',#23);
#23 = CARTESIAN_POINT('',(4.622232177048E-33,-0.375,0.421875));
#24 = VERTEX_POINT('',#25);
#25 = CARTESIAN_POINT('',(-0.75,-0.375,0.421875));
#26 = SURFACE_CURVE('',#27,(#31,#43),.PCURVE_S1.);
#27 = LINE('',#28,#29);
#28 = CARTESIAN_POINT('',(4.622232177048E-33,-0.375,0.421875));
#29 = VECTOR('',#30,1.);
#30 = DIRECTION('',(-1.,-0.,-6.123233995737E-17));
#31 = PCURVE('',#32,#37);
#32 = CYLINDRICAL_SURFACE('',#33,0.563130179578);
#33 = AXIS2_PLACEMENT_3D('',#34,#35,#36);
#34 = CARTESIAN_POINT('',(2.583155529428E-17,-1.973684210526E-03,
    1.368762379301E-05));
#35 = DIRECTION('',(1.,0.,6.123233995737E-17));
#36 = DIRECTION('',(-4.58713743839E-17,-0.66241577759,0.749136394523));
#37 = DEFINITIONAL_REPRESENTATION('',(#38),#42);
#38 = LINE('',#39,#40);
#39 = CARTESIAN_POINT('',(0.,0.));
#40 = VECTOR('',#41,1.);
#41 = DIRECTION('',(0.,-1.));
#42 = ( GEOMETRIC_REPRESENTATION_CONTEXT(2) 
PARAMETRIC_REPRESENTATION_CONTEXT() REPRESENTATION_CONTEXT('2D SPACE',''
  ) );
#43 = PCURVE('',#44,#49);
#44 = PLANE('',#45);
#45 = AXIS2_PLACEMENT_3D('',#46,#47,#48);
#46 = CARTESIAN_POINT('',(2.797249331478E-33,0.371052631579,0.421875));
#47 = DIRECTION('',(-6.123233995737E-17,7.440648136818E-17,1.));
#48 = DIRECTION('',(-3.749399456655E-33,-1.,7.440648136818E-17));
#49 = DEFINITIONAL_REPRESENTATION('',(#50),#54);
#50 = LINE('',#51,#52);
#51 = CARTESIAN_POINT('',(0.746052631579,4.622232177048E-33));
#52 = VECTOR('',#53,1.);
#53 = DIRECTION('',(-8.066835055131E-34,-1.));
#54 = ( GEOMETRIC_REPRESENTATION_CONTEXT(2) 
PARAMETRIC_REPRESENTATION_CONTEXT() REPRESENTATION_CONTEXT('2D SPACE',''
  ) );
#55 = ORIENTED_EDGE('',*,*,#56,.T.);
#56 = EDGE_CURVE('',#24,#57,#59,.T.);
#57 = VERTEX_POINT('',#58);
#58 = CARTESIAN_POINT('',(-0.75,0.371052631579,0.421875));
#59 = SURFACE_CURVE('',#60,(#65,#72),.PCURVE_S1.);
#60 = CIRCLE('',#61,0.563130179578);
#61 = AXIS2_PLACEMENT_3D('',#62,#63,#64);
#62 = CARTESIAN_POINT('',(-0.75,-1.973684210526E-03,1.368762379296E-05)
  );
#63 = DIRECTION('',(1.,0.,6.123233995737E-17));
#64 = DIRECTION('',(-4.58713743839E-17,-0.66241577759,0.749136394523));
#65 = PCURVE('',#32,#66);
#66 = DEFINITIONAL_REPRESENTATION('',(#67),#71);
#67 = LINE('',#68,#69);
#68 = CARTESIAN_POINT('',(0.,-0.75));
#69 = VECTOR('',#70,1.);
#70 = DIRECTION('',(1.,0.));
#71 = ( GEOMETRIC_REPRESENTATION_CONTEXT(2) 
PARAMETRIC_REPRESENTATION_CONTEXT() REPRESENTATION_CONTEXT('2D SPACE',''
  ) );
#72 = PCURVE('',#73,#78);
#73 = PLANE('',#74);
#74 = AXIS2_PLACEMENT_3D('',#75,#76,#77);
#75 = CARTESIAN_POINT('',(-0.75,-0.375,0.421875));
#76 = DIRECTION('',(1.,0.,6.123233995737E-17));
#77 = DIRECTION('',(3.749399456655E-33,1.,-6.123233995737E-17));
#78 = DEFINITIONAL_REPRESENTATION('',(#79),#83);
#79 = CIRCLE('',#80,0.563130179578);
#80 = AXIS2_PLACEMENT_2D('',#81,#82);
#81 = CARTESIAN_POINT('',(0.373026315789,-0.421861312376));
#82 = DIRECTION('',(-0.66241577759,0.749136394523));
#83 = ( GEOMETRIC_REPRESENTATION_CONTEXT(2) 
PARAMETRIC_REPRESENTATION_CONTEXT() REPRESENTATION_CONTEXT('2D SPACE',''
  ) );
#84 = ORIENTED_EDGE('',*,*,#85,.F.);
#85 = EDGE_CURVE('',#86,#57,#88,.T.);
#86 = VERTEX_POINT('',#87);
#87 = CARTESIAN_POINT('',(6.020856532268E-33,0.371052631579,0.421875));
#88 = SURFACE_CURVE('',#89,(#93,#100),.PCURVE_S1.);
#89 = LINE('',#90,#91);
#90 = CARTESIAN_POINT('',(6.020856532268E-33,0.371052631579,0.421875));
#91 = VECTOR('',#92,1.);
#92 = DIRECTION('',(-1.,-0.,-6.123233995737E-17));
#93 = PCURVE('',#32,#94);
#94 = DEFINITIONAL_REPRESENTATION('',(#95),#99);
#95 = LINE('',#96,#97);
#96 = CARTESIAN_POINT('',(4.835107443416,0.));
#97 = VECTOR('',#98,1.);
#98 = DIRECTION('',(0.,-1.));
#99 = ( GEOMETRIC_REPRESENTATION_CONTEXT(2) 
PARAMETRIC_REPRESENTATION_CONTEXT() REPRESENTATION_CONTEXT('2D SPACE',''
  ) );
#100 = PCURVE('',#44,#101);
#101 = DEFINITIONAL_REPRESENTATION('',(#102),#106);
#102 = LINE('',#103,#104);
#103 = CARTESIAN_POINT('',(6.579089329697E-67,-1.754704828268E-34));
#104 = VECTOR('',#105,1.);
#105 = DIRECTION('',(-8.066835055131E-34,-1.));
#106 = ( GEOMETRIC_REPRESENTATION_CONTEXT(2) 
PARAMETRIC_REPRESENTATION_CONTEXT() REPRESENTATION_CONTEXT('2D SPACE',''
  ) );
#107 = ORIENTED_EDGE('',*,*,#108,.F.);
#108 = EDGE_CURVE('',#22,#86,#109,.T.);
#109 = SURFACE_CURVE('',#110,(#115,#122),.PCURVE_S1.);
#110 = CIRCLE('',#111,0.563130179578);
#111 = AXIS2_PLACEMENT_3D('',#112,#113,#114);
#112 = CARTESIAN_POINT('',(2.583155529428E-17,-1.973684210526E-03,
    1.368762379301E-05));
#113 = DIRECTION('',(1.,0.,6.123233995737E-17));
#114 = DIRECTION('',(-4.58713743839E-17,-0.66241577759,0.749136394523));
#115 = PCURVE('',#32,#116);
#116 = DEFINITIONAL_REPRESENTATION('',(#117),#121);
#117 = LINE('',#118,#119);
#118 = CARTESIAN_POINT('',(0.,0.));
#119 = VECTOR('',#120,1.);
#120 = DIRECTION('',(1.,0.));
#121 = ( GEOMETRIC_REPRESENTATION_CONTEXT(2) 
PARAMETRIC_REPRESENTATION_CONTEXT() REPRESENTATION_CONTEXT('2D SPACE',''
  ) );
#122 = PCURVE('',#123,#128);
#123 = PLANE('',#124);
#124 = AXIS2_PLACEMENT_3D('',#125,#126,#127);
#125 = CARTESIAN_POINT('',(0.,-0.375,0.421875));
#126 = DIRECTION('',(1.,0.,6.123233995737E-17));
#127 = DIRECTION('',(3.749399456655E-33,1.,-6.123233995737E-17));
#128 = DEFINITIONAL_REPRESENTATION('',(#129),#133);
#129 = CIRCLE('',#130,0.563130179578);
#130 = AXIS2_PLACEMENT_2D('',#131,#132);
#131 = CARTESIAN_POINT('',(0.373026315789,-0.421861312376));
#132 = DIRECTION('',(-0.66241577759,0.749136394523));
#133 = ( GEOMETRIC_REPRESENTATION_CONTEXT(2) 
PARAMETRIC_REPRESENTATION_CONTEXT() REPRESENTATION_CONTEXT('2D SPACE',''
  ) );
#134 = ADVANCED_FACE('',(#135),#44,.T.);
#135 = FACE_BOUND('',#136,.T.);
#136 = EDGE_LOOP('',(#137,#138,#159,#160));
#137 = ORIENTED_EDGE('',*,*,#85,.T.);
#138 = ORIENTED_EDGE('',*,*,#139,.T.);
#139 = EDGE_CURVE('',#57,#24,#140,.T.);
#140 = SURFACE_CURVE('',#141,(#145,#152),.PCURVE_S1.);
#141 = LINE('',#142,#143);
#142 = CARTESIAN_POINT('',(-0.75,0.371052631579,0.421875));
#143 = VECTOR('',#144,1.);
#144 = DIRECTION('',(-3.749399456655E-33,-1.,7.440648136818E-17));
#145 = PCURVE('',#44,#146);
#146 = DEFINITIONAL_REPRESENTATION('',(#147),#151);
#147 = LINE('',#148,#149);
#148 = CARTESIAN_POINT('',(-1.318339847324E-33,-0.75));
#149 = VECTOR('',#150,1.);
#150 = DIRECTION('',(1.,0.));
#151 = ( GEOMETRIC_REPRESENTATION_CONTEXT(2) 
PARAMETRIC_REPRESENTATION_CONTEXT() REPRESENTATION_CONTEXT('2D SPACE',''
  ) );
#152 = PCURVE('',#73,#153);
#153 = DEFINITIONAL_REPRESENTATION('',(#154),#158);
#154 = LINE('',#155,#156);
#155 = CARTESIAN_POINT('',(0.746052631579,-9.828602868327E-18));
#156 = VECTOR('',#157,1.);
#157 = DIRECTION('',(-1.,1.317414141081E-17));
#158 = ( GEOMETRIC_REPRESENTATION_CONTEXT(2) 
PARAMETRIC_REPRESENTATION_CONTEXT() REPRESENTATION_CONTEXT('2D SPACE',''
  ) );
#159 = ORIENTED_EDGE('',*,*,#21,.F.);
#160 = ORIENTED_EDGE('',*,*,#161,.F.);
#161 = EDGE_CURVE('',#86,#22,#162,.T.);
#162 = SURFACE_CURVE('',#163,(#167,#174),.PCURVE_S1.);
#163 = LINE('',#164,#165);
#164 = CARTESIAN_POINT('',(2.797249331478E-33,0.371052631579,0.421875));
#165 = VECTOR('',#166,1.);
#166 = DIRECTION('',(-3.749399456655E-33,-1.,7.440648136818E-17));
#167 = PCURVE('',#44,#168);
#168 = DEFINITIONAL_REPRESENTATION('',(#169),#173);
#169 = LINE('',#170,#171);
#170 = CARTESIAN_POINT('',(0.,0.));
#171 = VECTOR('',#172,1.);
#172 = DIRECTION('',(1.,0.));
#173 = ( GEOMETRIC_REPRESENTATION_CONTEXT(2) 
PARAMETRIC_REPRESENTATION_CONTEXT() REPRESENTATION_CONTEXT('2D SPACE',''
  ) );
#174 = PCURVE('',#123,#175);
#175 = DEFINITIONAL_REPRESENTATION('',(#176),#180);
#176 = LINE('',#177,#178);
#177 = CARTESIAN_POINT('',(0.746052631579,-9.828602868327E-18));
#178 = VECTOR('',#179,1.);
#179 = DIRECTION('',(-1.,1.317414141081E-17));
#180 = ( GEOMETRIC_REPRESENTATION_CONTEXT(2) 
PARAMETRIC_REPRESENTATION_CONTEXT() REPRESENTATION_CONTEXT('2D SPACE',''
  ) );
#181 = ADVANCED_FACE('',(#182),#196,.F.);
#182 = FACE_BOUND('',#183,.F.);
#183 = EDGE_LOOP('',(#184,#214,#236,#237));
#184 = ORIENTED_EDGE('',*,*,#185,.T.);
#185 = EDGE_CURVE('',#186,#188,#190,.T.);
#186 = VERTEX_POINT('',#187);
#187 = CARTESIAN_POINT('',(8.882717737237E-18,-1.973684210526E-03,
    0.276809210526));
#188 = VERTEX_POINT('',#189);
#189 = CARTESIAN_POINT('',(-0.75,-1.973684210526E-03,0.276809210526));
#190 = SEAM_CURVE('',#191,(#195,#207),.PCURVE_S1.);
#191 = LINE('',#192,#193);
#192 = CARTESIAN_POINT('',(8.882717737237E-18,-1.973684210526E-03,
    0.276809210526));
#193 = VECTOR('',#194,1.);
#194 = DIRECTION('',(-1.,-0.,-6.123233995737E-17));
#195 = PCURVE('',#196,#201);
#196 = CYLINDRICAL_SURFACE('',#197,0.279769736842);
#197 = AXIS2_PLACEMENT_3D('',#198,#199,#200);
#198 = CARTESIAN_POINT('',(2.601367337334E-17,-1.973684210526E-03,
    -2.960526315789E-03));
#199 = DIRECTION('',(1.,0.,6.123233995737E-17));
#200 = DIRECTION('',(-6.123233995737E-17,0.,1.));
#201 = DEFINITIONAL_REPRESENTATION('',(#202),#206);
#202 = LINE('',#203,#204);
#203 = CARTESIAN_POINT('',(0.,0.));
#204 = VECTOR('',#205,1.);
#205 = DIRECTION('',(0.,-1.));
#206 = ( GEOMETRIC_REPRESENTATION_CONTEXT(2) 
PARAMETRIC_REPRESENTATION_CONTEXT() REPRESENTATION_CONTEXT('2D SPACE',''
  ) );
#207 = PCURVE('',#196,#208);
#208 = DEFINITIONAL_REPRESENTATION('',(#209),#213);
#209 = LINE('',#210,#211);
#210 = CARTESIAN_POINT('',(6.28318530718,0.));
#211 = VECTOR('',#212,1.);
#212 = DIRECTION('',(0.,-1.));
#213 = ( GEOMETRIC_REPRESENTATION_CONTEXT(2) 
PARAMETRIC_REPRESENTATION_CONTEXT() REPRESENTATION_CONTEXT('2D SPACE',''
  ) );
#214 = ORIENTED_EDGE('',*,*,#215,.T.);
#215 = EDGE_CURVE('',#188,#188,#216,.T.);
#216 = SURFACE_CURVE('',#217,(#222,#229),.PCURVE_S1.);
#217 = CIRCLE('',#218,0.279769736842);
#218 = AXIS2_PLACEMENT_3D('',#219,#220,#221);
#219 = CARTESIAN_POINT('',(-0.75,-1.973684210526E-03,-2.96052631579E-03)
  );
#220 = DIRECTION('',(1.,0.,6.123233995737E-17));
#221 = DIRECTION('',(-6.123233995737E-17,0.,1.));
#222 = PCURVE('',#196,#223);
#223 = DEFINITIONAL_REPRESENTATION('',(#224),#228);
#224 = LINE('',#225,#226);
#225 = CARTESIAN_POINT('',(0.,-0.75));
#226 = VECTOR('',#227,1.);
#227 = DIRECTION('',(1.,0.));
#228 = ( GEOMETRIC_REPRESENTATION_CONTEXT(2) 
PARAMETRIC_REPRESENTATION_CONTEXT() REPRESENTATION_CONTEXT('2D SPACE',''
  ) );
#229 = PCURVE('',#73,#230);
#230 = DEFINITIONAL_REPRESENTATION('',(#231),#235);
#231 = CIRCLE('',#232,0.279769736842);
#232 = AXIS2_PLACEMENT_2D('',#233,#234);
#233 = CARTESIAN_POINT('',(0.373026315789,-0.424835526316));
#234 = DIRECTION('',(-6.123233995737E-17,1.));
#235 = ( GEOMETRIC_REPRESENTATION_CONTEXT(2) 
PARAMETRIC_REPRESENTATION_CONTEXT() REPRESENTATION_CONTEXT('2D SPACE',''
  ) );
#236 = ORIENTED_EDGE('',*,*,#185,.F.);
#237 = ORIENTED_EDGE('',*,*,#238,.F.);
#238 = EDGE_CURVE('',#186,#186,#239,.T.);
#239 = SURFACE_CURVE('',#240,(#245,#252),.PCURVE_S1.);
#240 = CIRCLE('',#241,0.279769736842);
#241 = AXIS2_PLACEMENT_3D('',#242,#243,#244);
#242 = CARTESIAN_POINT('',(2.601367337334E-17,-1.973684210526E-03,
    -2.960526315789E-03));
#243 = DIRECTION('',(1.,0.,6.123233995737E-17));
#244 = DIRECTION('',(-6.123233995737E-17,0.,1.));
#245 = PCURVE('',#196,#246);
#246 = DEFINITIONAL_REPRESENTATION('',(#247),#251);
#247 = LINE('',#248,#249);
#248 = CARTESIAN_POINT('',(0.,0.));
#249 = VECTOR('',#250,1.);
#250 = DIRECTION('',(1.,0.));
#251 = ( GEOMETRIC_REPRESENTATION_CONTEXT(2) 
PARAMETRIC_REPRESENTATION_CONTEXT() REPRESENTATION_CONTEXT('2D SPACE',''
  ) );
#252 = PCURVE('',#123,#253);
#253 = DEFINITIONAL_REPRESENTATION('',(#254),#258);
#254 = CIRCLE('',#255,0.279769736842);
#255 = AXIS2_PLACEMENT_2D('',#256,#257);
#256 = CARTESIAN_POINT('',(0.373026315789,-0.424835526316));
#257 = DIRECTION('',(-6.123233995737E-17,1.));
#258 = ( GEOMETRIC_REPRESENTATION_CONTEXT(2) 
PARAMETRIC_REPRESENTATION_CONTEXT() REPRESENTATION_CONTEXT('2D SPACE',''
  ) );
#259 = ADVANCED_FACE('',(#260,#264),#123,.T.);
#260 = FACE_BOUND('',#261,.T.);
#261 = EDGE_LOOP('',(#262,#263));
#262 = ORIENTED_EDGE('',*,*,#108,.T.);
#263 = ORIENTED_EDGE('',*,*,#161,.T.);
#264 = FACE_BOUND('',#265,.F.);
#265 = EDGE_LOOP('',(#266));
#266 = ORIENTED_EDGE('',*,*,#238,.T.);
#267 = ADVANCED_FACE('',(#268,#272),#73,.F.);
#268 = FACE_BOUND('',#269,.F.);
#269 = EDGE_LOOP('',(#270,#271));
#270 = ORIENTED_EDGE('',*,*,#56,.T.);
#271 = ORIENTED_EDGE('',*,*,#139,.T.);
#272 = FACE_BOUND('',#273,.T.);
#273 = EDGE_LOOP('',(#274));
#274 = ORIENTED_EDGE('',*,*,#215,.T.);
#275 = ( GEOMETRIC_REPRESENTATION_CONTEXT(3) 
GLOBAL_UNCERTAINTY_ASSIGNED_CONTEXT((#279)) GLOBAL_UNIT_ASSIGNED_CONTEXT
((#276,#277,#278)) REPRESENTATION_CONTEXT('Context #1',
  '3D Context with UNIT and UNCERTAINTY') );
#276 = ( LENGTH_UNIT() NAMED_UNIT(*) SI_UNIT(.MILLI.,.METRE.) );
#277 = ( NAMED_UNIT(*) PLANE_ANGLE_UNIT() SI_UNIT($,.RADIAN.) );
#278 = ( NAMED_UNIT(*) SI_UNIT($,.STERADIAN.) SOLID_ANGLE_UNIT() );
#279 = UNCERTAINTY_MEASURE_WITH_UNIT(LENGTH_MEASURE(1.E-07),#276,
  'distance_accuracy_value','confusion accuracy');
#280 = PRODUCT_RELATED_PRODUCT_CATEGORY('detail',$,(#7));
#281 = PRODUCT_CATEGORY_RELATIONSHIP('','',#282,#280);
#282 = PRODUCT_CATEGORY('part',$);
#283 = CC_DESIGN_PERSON_AND_ORGANIZATION_ASSIGNMENT(#284,#287,(#6,#5));
#284 = PERSON_AND_ORGANIZATION(#285,#286);
#285 = PERSON('IP172.17.0,root','','root',$,$,$);
#286 = ORGANIZATION('IP172.17.0','Unspecified','');
#287 = PERSON_AND_ORGANIZATION_ROLE('creator');
#288 = CC_DESIGN_PERSON_AND_ORGANIZATION_ASSIGNMENT(#284,#289,(#7));
#289 = PERSON_AND_ORGANIZATION_ROLE('design_owner');
#290 = CC_DESIGN_PERSON_AND_ORGANIZATION_ASSIGNMENT(#284,#291,(#6));
#291 = PERSON_AND_ORGANIZATION_ROLE('design_supplier');
#292 = CC_DESIGN_PERSON_AND_ORGANIZATION_ASSIGNMENT(#284,#293,(#294));
#293 = PERSON_AND_ORGANIZATION_ROLE('classification_officer');
#294 = SECURITY_CLASSIFICATION('','',#295);
#295 = SECURITY_CLASSIFICATION_LEVEL('unclassified');
#296 = CC_DESIGN_SECURITY_CLASSIFICATION(#294,(#6));
#297 = CC_DESIGN_DATE_AND_TIME_ASSIGNMENT(#298,#302,(#5));
#298 = DATE_AND_TIME(#299,#300);
#299 = CALENDAR_DATE(2026,19,6);
#300 = LOCAL_TIME(22,17,$,#301);
#301 = COORDINATED_UNIVERSAL_TIME_OFFSET(8,$,.AHEAD.);
#302 = DATE_TIME_ROLE('creation_date');
#303 = CC_DESIGN_DATE_AND_TIME_ASSIGNMENT(#298,#304,(#294));
#304 = DATE_TIME_ROLE('classification_date');
#305 = CC_DESIGN_APPROVAL(#306,(#6,#5,#294));
#306 = APPROVAL(#307,'');
#307 = APPROVAL_STATUS('not_yet_approved');
#308 = APPROVAL_PERSON_ORGANIZATION(#284,#306,#309);
#309 = APPROVAL_ROLE('approver');
#310 = APPROVAL_DATE_TIME(#298,#306);
ENDSEC;
END-ISO-10303-21;
