ISO-10303-21;
HEADER;
FILE_DESCRIPTION(('Open CASCADE Model'),'2;1');
FILE_NAME('Open CASCADE Shape Model','2026-06-19T22:17:24',('Author'),(
    'Open CASCADE'),'Open CASCADE STEP processor 7.8','Open CASCADE 7.8'
  ,'Unknown');
FILE_SCHEMA(('CONFIG_CONTROL_DESIGN'));
ENDSEC;
DATA;
#1 = APPLICATION_PROTOCOL_DEFINITION('international standard',
  'config_control_design',1994,#2);
#2 = APPLICATION_CONTEXT(
'configuration controlled 3D designs of mechanical parts and assemblies'
  );
#3 = SHAPE_DEFINITION_REPRESENTATION(#4,#10);
#4 = PRODUCT_DEFINITION_SHAPE('','',#5);
#5 = PRODUCT_DEFINITION('design','',#6,#9);
#6 = PRODUCT_DEFINITION_FORMATION_WITH_SPECIFIED_SOURCE('','',#7,
  .NOT_KNOWN.);
#7 = PRODUCT('Open CASCADE STEP translator 7.8 33',
  'Open CASCADE STEP translator 7.8 33','',(#8));
#8 = MECHANICAL_CONTEXT('',#2,'mechanical');
#9 = DESIGN_CONTEXT('',#2,'design');
#10 = SHAPE_REPRESENTATION('',(#11,#15,#19),#23);
#11 = AXIS2_PLACEMENT_3D('',#12,#13,#14);
#12 = CARTESIAN_POINT('',(0.,0.,0.));
#13 = DIRECTION('',(0.,0.,1.));
#14 = DIRECTION('',(1.,0.,-0.));
#15 = AXIS2_PLACEMENT_3D('',#16,#17,#18);
#16 = CARTESIAN_POINT('',(0.,0.,0.));
#17 = DIRECTION('',(0.,0.,1.));
#18 = DIRECTION('',(1.,0.,-0.));
#19 = AXIS2_PLACEMENT_3D('',#20,#21,#22);
#20 = CARTESIAN_POINT('',(0.,0.,0.));
#21 = DIRECTION('',(0.,0.,1.));
#22 = DIRECTION('',(1.,0.,-0.));
#23 = ( GEOMETRIC_REPRESENTATION_CONTEXT(3) 
GLOBAL_UNCERTAINTY_ASSIGNED_CONTEXT((#27)) GLOBAL_UNIT_ASSIGNED_CONTEXT(
(#24,#25,#26)) REPRESENTATION_CONTEXT('Context #1',
  '3D Context with UNIT and UNCERTAINTY') );
#24 = ( LENGTH_UNIT() NAMED_UNIT(*) SI_UNIT(.MILLI.,.METRE.) );
#25 = ( NAMED_UNIT(*) PLANE_ANGLE_UNIT() SI_UNIT($,.RADIAN.) );
#26 = ( NAMED_UNIT(*) SI_UNIT($,.STERADIAN.) SOLID_ANGLE_UNIT() );
#27 = UNCERTAINTY_MEASURE_WITH_UNIT(LENGTH_MEASURE(1.E-07),#24,
  'distance_accuracy_value','confusion accuracy');
#28 = PRODUCT_RELATED_PRODUCT_CATEGORY('detail',$,(#7));
#29 = PRODUCT_CATEGORY_RELATIONSHIP('','',#30,#28);
#30 = PRODUCT_CATEGORY('part',$);
#31 = CC_DESIGN_PERSON_AND_ORGANIZATION_ASSIGNMENT(#32,#35,(#6,#5));
#32 = PERSON_AND_ORGANIZATION(#33,#34);
#33 = PERSON('IP172.17.0,root','','root',$,$,$);
#34 = ORGANIZATION('IP172.17.0','Unspecified','');
#35 = PERSON_AND_ORGANIZATION_ROLE('creator');
#36 = CC_DESIGN_PERSON_AND_ORGANIZATION_ASSIGNMENT(#32,#37,(#7));
#37 = PERSON_AND_ORGANIZATION_ROLE('design_owner');
#38 = CC_DESIGN_PERSON_AND_ORGANIZATION_ASSIGNMENT(#32,#39,(#6));
#39 = PERSON_AND_ORGANIZATION_ROLE('design_supplier');
#40 = CC_DESIGN_PERSON_AND_ORGANIZATION_ASSIGNMENT(#32,#41,(#42));
#41 = PERSON_AND_ORGANIZATION_ROLE('classification_officer');
#42 = SECURITY_CLASSIFICATION('','',#43);
#43 = SECURITY_CLASSIFICATION_LEVEL('unclassified');
#44 = CC_DESIGN_SECURITY_CLASSIFICATION(#42,(#6));
#45 = CC_DESIGN_DATE_AND_TIME_ASSIGNMENT(#46,#50,(#5));
#46 = DATE_AND_TIME(#47,#48);
#47 = CALENDAR_DATE(2026,19,6);
#48 = LOCAL_TIME(22,17,$,#49);
#49 = COORDINATED_UNIVERSAL_TIME_OFFSET(8,$,.AHEAD.);
#50 = DATE_TIME_ROLE('creation_date');
#51 = CC_DESIGN_DATE_AND_TIME_ASSIGNMENT(#46,#52,(#42));
#52 = DATE_TIME_ROLE('classification_date');
#53 = CC_DESIGN_APPROVAL(#54,(#6,#5,#42));
#54 = APPROVAL(#55,'');
#55 = APPROVAL_STATUS('not_yet_approved');
#56 = APPROVAL_PERSON_ORGANIZATION(#32,#54,#57);
#57 = APPROVAL_ROLE('approver');
#58 = APPROVAL_DATE_TIME(#46,#54);
#59 = SHAPE_DEFINITION_REPRESENTATION(#60,#66);
#60 = PRODUCT_DEFINITION_SHAPE('','',#61);
#61 = PRODUCT_DEFINITION('design','',#62,#65);
#62 = PRODUCT_DEFINITION_FORMATION_WITH_SPECIFIED_SOURCE('','',#63,
  .NOT_KNOWN.);
#63 = PRODUCT('Open CASCADE STEP translator 7.8 33.1',
  'Open CASCADE STEP translator 7.8 33.1','',(#64));
#64 = MECHANICAL_CONTEXT('',#2,'mechanical');
#65 = DESIGN_CONTEXT('',#2,'design');
#66 = ADVANCED_BREP_SHAPE_REPRESENTATION('',(#11,#67),#245);
#67 = MANIFOLD_SOLID_BREP('',#68);
#68 = CLOSED_SHELL('',(#69,#186,#212,#240));
#69 = ADVANCED_FACE('',(#70),#85,.T.);
#70 = FACE_BOUND('',#71,.F.);
#71 = EDGE_LOOP('',(#72,#108,#136,#165));
#72 = ORIENTED_EDGE('',*,*,#73,.F.);
#73 = EDGE_CURVE('',#74,#76,#78,.T.);
#74 = VERTEX_POINT('',#75);
#75 = CARTESIAN_POINT('',(-3.453947368421E-03,0.,-0.129358552632));
#76 = VERTEX_POINT('',#77);
#77 = CARTESIAN_POINT('',(-3.453947368421E-03,5.539109700091E-20,
    -4.251644736842E-02));
#78 = SURFACE_CURVE('',#79,(#84,#96),.PCURVE_S1.);
#79 = CIRCLE('',#80,4.342105263158E-02);
#80 = AXIS2_PLACEMENT_3D('',#81,#82,#83);
#81 = CARTESIAN_POINT('',(-3.453947368421E-03,2.658772656044E-18,
    -8.59375E-02));
#82 = DIRECTION('',(6.123233995737E-17,-1.,6.123233995737E-17));
#83 = DIRECTION('',(0.,-6.123233995737E-17,-1.));
#84 = PCURVE('',#85,#90);
#85 = CYLINDRICAL_SURFACE('',#86,4.342105263158E-02);
#86 = AXIS2_PLACEMENT_3D('',#87,#88,#89);
#87 = CARTESIAN_POINT('',(-3.453947368421E-03,2.658772656044E-18,
    -8.59375E-02));
#88 = DIRECTION('',(-6.123233995737E-17,1.,-6.123233995737E-17));
#89 = DIRECTION('',(0.,-6.123233995737E-17,-1.));
#90 = DEFINITIONAL_REPRESENTATION('',(#91),#95);
#91 = LINE('',#92,#93);
#92 = CARTESIAN_POINT('',(-0.,0.));
#93 = VECTOR('',#94,1.);
#94 = DIRECTION('',(-1.,0.));
#95 = ( GEOMETRIC_REPRESENTATION_CONTEXT(2) 
PARAMETRIC_REPRESENTATION_CONTEXT() REPRESENTATION_CONTEXT('2D SPACE',''
  ) );
#96 = PCURVE('',#97,#102);
#97 = PLANE('',#98);
#98 = AXIS2_PLACEMENT_3D('',#99,#100,#101);
#99 = CARTESIAN_POINT('',(-4.6875E-02,0.,-8.59375E-02));
#100 = DIRECTION('',(6.123233995737E-17,-1.,6.123233995737E-17));
#101 = DIRECTION('',(1.,6.123233995737E-17,-6.123233995737E-17));
#102 = DEFINITIONAL_REPRESENTATION('',(#103),#107);
#103 = CIRCLE('',#104,4.342105263158E-02);
#104 = AXIS2_PLACEMENT_2D('',#105,#106);
#105 = CARTESIAN_POINT('',(4.342105263158E-02,2.658772656044E-18));
#106 = DIRECTION('',(6.123233995737E-17,-1.));
#107 = ( GEOMETRIC_REPRESENTATION_CONTEXT(2) 
PARAMETRIC_REPRESENTATION_CONTEXT() REPRESENTATION_CONTEXT('2D SPACE',''
  ) );
#108 = ORIENTED_EDGE('',*,*,#109,.T.);
#109 = EDGE_CURVE('',#74,#110,#112,.T.);
#110 = VERTEX_POINT('',#111);
#111 = CARTESIAN_POINT('',(-3.453947368421E-03,-0.75,-0.129358552632));
#112 = SURFACE_CURVE('',#113,(#117,#124),.PCURVE_S1.);
#113 = LINE('',#114,#115);
#114 = CARTESIAN_POINT('',(-3.453947368421E-03,0.,-0.129358552632));
#115 = VECTOR('',#116,1.);
#116 = DIRECTION('',(6.123233995737E-17,-1.,6.123233995737E-17));
#117 = PCURVE('',#85,#118);
#118 = DEFINITIONAL_REPRESENTATION('',(#119),#123);
#119 = LINE('',#120,#121);
#120 = CARTESIAN_POINT('',(-0.,0.));
#121 = VECTOR('',#122,1.);
#122 = DIRECTION('',(-0.,-1.));
#123 = ( GEOMETRIC_REPRESENTATION_CONTEXT(2) 
PARAMETRIC_REPRESENTATION_CONTEXT() REPRESENTATION_CONTEXT('2D SPACE',''
  ) );
#124 = PCURVE('',#125,#130);
#125 = CYLINDRICAL_SURFACE('',#126,4.342105263158E-02);
#126 = AXIS2_PLACEMENT_3D('',#127,#128,#129);
#127 = CARTESIAN_POINT('',(-3.453947368421E-03,2.658772656044E-18,
    -8.59375E-02));
#128 = DIRECTION('',(-6.123233995737E-17,1.,-6.123233995737E-17));
#129 = DIRECTION('',(0.,-6.123233995737E-17,-1.));
#130 = DEFINITIONAL_REPRESENTATION('',(#131),#135);
#131 = LINE('',#132,#133);
#132 = CARTESIAN_POINT('',(-6.28318530718,0.));
#133 = VECTOR('',#134,1.);
#134 = DIRECTION('',(-0.,-1.));
#135 = ( GEOMETRIC_REPRESENTATION_CONTEXT(2) 
PARAMETRIC_REPRESENTATION_CONTEXT() REPRESENTATION_CONTEXT('2D SPACE',''
  ) );
#136 = ORIENTED_EDGE('',*,*,#137,.T.);
#137 = EDGE_CURVE('',#110,#138,#140,.T.);
#138 = VERTEX_POINT('',#139);
#139 = CARTESIAN_POINT('',(-3.453947368421E-03,-0.75,-4.251644736842E-02
    ));
#140 = SURFACE_CURVE('',#141,(#146,#153),.PCURVE_S1.);
#141 = CIRCLE('',#142,4.342105263158E-02);
#142 = AXIS2_PLACEMENT_3D('',#143,#144,#145);
#143 = CARTESIAN_POINT('',(-3.453947368421E-03,-0.75,-8.59375E-02));
#144 = DIRECTION('',(6.123233995737E-17,-1.,6.123233995737E-17));
#145 = DIRECTION('',(0.,-6.123233995737E-17,-1.));
#146 = PCURVE('',#85,#147);
#147 = DEFINITIONAL_REPRESENTATION('',(#148),#152);
#148 = LINE('',#149,#150);
#149 = CARTESIAN_POINT('',(-0.,-0.75));
#150 = VECTOR('',#151,1.);
#151 = DIRECTION('',(-1.,0.));
#152 = ( GEOMETRIC_REPRESENTATION_CONTEXT(2) 
PARAMETRIC_REPRESENTATION_CONTEXT() REPRESENTATION_CONTEXT('2D SPACE',''
  ) );
#153 = PCURVE('',#154,#159);
#154 = PLANE('',#155);
#155 = AXIS2_PLACEMENT_3D('',#156,#157,#158);
#156 = CARTESIAN_POINT('',(-4.6875E-02,-0.75,-8.59375E-02));
#157 = DIRECTION('',(6.123233995737E-17,-1.,6.123233995737E-17));
#158 = DIRECTION('',(1.,6.123233995737E-17,-6.123233995737E-17));
#159 = DEFINITIONAL_REPRESENTATION('',(#160),#164);
#160 = CIRCLE('',#161,4.342105263158E-02);
#161 = AXIS2_PLACEMENT_2D('',#162,#163);
#162 = CARTESIAN_POINT('',(4.342105263158E-02,2.658772656044E-18));
#163 = DIRECTION('',(6.123233995737E-17,-1.));
#164 = ( GEOMETRIC_REPRESENTATION_CONTEXT(2) 
PARAMETRIC_REPRESENTATION_CONTEXT() REPRESENTATION_CONTEXT('2D SPACE',''
  ) );
#165 = ORIENTED_EDGE('',*,*,#166,.F.);
#166 = EDGE_CURVE('',#76,#138,#167,.T.);
#167 = SURFACE_CURVE('',#168,(#172,#179),.PCURVE_S1.);
#168 = LINE('',#169,#170);
#169 = CARTESIAN_POINT('',(-3.453947368421E-03,5.539109700091E-20,
    -4.251644736842E-02));
#170 = VECTOR('',#171,1.);
#171 = DIRECTION('',(6.123233995737E-17,-1.,6.123233995737E-17));
#172 = PCURVE('',#85,#173);
#173 = DEFINITIONAL_REPRESENTATION('',(#174),#178);
#174 = LINE('',#175,#176);
#175 = CARTESIAN_POINT('',(-3.14159265359,-5.262154215086E-18));
#176 = VECTOR('',#177,1.);
#177 = DIRECTION('',(-0.,-1.));
#178 = ( GEOMETRIC_REPRESENTATION_CONTEXT(2) 
PARAMETRIC_REPRESENTATION_CONTEXT() REPRESENTATION_CONTEXT('2D SPACE',''
  ) );
#179 = PCURVE('',#125,#180);
#180 = DEFINITIONAL_REPRESENTATION('',(#181),#185);
#181 = LINE('',#182,#183);
#182 = CARTESIAN_POINT('',(-3.14159265359,-5.262154215086E-18));
#183 = VECTOR('',#184,1.);
#184 = DIRECTION('',(-0.,-1.));
#185 = ( GEOMETRIC_REPRESENTATION_CONTEXT(2) 
PARAMETRIC_REPRESENTATION_CONTEXT() REPRESENTATION_CONTEXT('2D SPACE',''
  ) );
#186 = ADVANCED_FACE('',(#187),#97,.F.);
#187 = FACE_BOUND('',#188,.F.);
#188 = EDGE_LOOP('',(#189,#190));
#189 = ORIENTED_EDGE('',*,*,#73,.T.);
#190 = ORIENTED_EDGE('',*,*,#191,.T.);
#191 = EDGE_CURVE('',#76,#74,#192,.T.);
#192 = SURFACE_CURVE('',#193,(#198,#205),.PCURVE_S1.);
#193 = CIRCLE('',#194,4.342105263158E-02);
#194 = AXIS2_PLACEMENT_3D('',#195,#196,#197);
#195 = CARTESIAN_POINT('',(-3.453947368421E-03,2.658772656044E-18,
    -8.59375E-02));
#196 = DIRECTION('',(6.123233995737E-17,-1.,6.123233995737E-17));
#197 = DIRECTION('',(0.,-6.123233995737E-17,-1.));
#198 = PCURVE('',#97,#199);
#199 = DEFINITIONAL_REPRESENTATION('',(#200),#204);
#200 = CIRCLE('',#201,4.342105263158E-02);
#201 = AXIS2_PLACEMENT_2D('',#202,#203);
#202 = CARTESIAN_POINT('',(4.342105263158E-02,2.658772656044E-18));
#203 = DIRECTION('',(6.123233995737E-17,-1.));
#204 = ( GEOMETRIC_REPRESENTATION_CONTEXT(2) 
PARAMETRIC_REPRESENTATION_CONTEXT() REPRESENTATION_CONTEXT('2D SPACE',''
  ) );
#205 = PCURVE('',#125,#206);
#206 = DEFINITIONAL_REPRESENTATION('',(#207),#211);
#207 = LINE('',#208,#209);
#208 = CARTESIAN_POINT('',(-0.,0.));
#209 = VECTOR('',#210,1.);
#210 = DIRECTION('',(-1.,0.));
#211 = ( GEOMETRIC_REPRESENTATION_CONTEXT(2) 
PARAMETRIC_REPRESENTATION_CONTEXT() REPRESENTATION_CONTEXT('2D SPACE',''
  ) );
#212 = ADVANCED_FACE('',(#213),#125,.T.);
#213 = FACE_BOUND('',#214,.F.);
#214 = EDGE_LOOP('',(#215,#216,#217,#218));
#215 = ORIENTED_EDGE('',*,*,#109,.F.);
#216 = ORIENTED_EDGE('',*,*,#191,.F.);
#217 = ORIENTED_EDGE('',*,*,#166,.T.);
#218 = ORIENTED_EDGE('',*,*,#219,.T.);
#219 = EDGE_CURVE('',#138,#110,#220,.T.);
#220 = SURFACE_CURVE('',#221,(#226,#233),.PCURVE_S1.);
#221 = CIRCLE('',#222,4.342105263158E-02);
#222 = AXIS2_PLACEMENT_3D('',#223,#224,#225);
#223 = CARTESIAN_POINT('',(-3.453947368421E-03,-0.75,-8.59375E-02));
#224 = DIRECTION('',(6.123233995737E-17,-1.,6.123233995737E-17));
#225 = DIRECTION('',(0.,-6.123233995737E-17,-1.));
#226 = PCURVE('',#125,#227);
#227 = DEFINITIONAL_REPRESENTATION('',(#228),#232);
#228 = LINE('',#229,#230);
#229 = CARTESIAN_POINT('',(-0.,-0.75));
#230 = VECTOR('',#231,1.);
#231 = DIRECTION('',(-1.,0.));
#232 = ( GEOMETRIC_REPRESENTATION_CONTEXT(2) 
PARAMETRIC_REPRESENTATION_CONTEXT() REPRESENTATION_CONTEXT('2D SPACE',''
  ) );
#233 = PCURVE('',#154,#234);
#234 = DEFINITIONAL_REPRESENTATION('',(#235),#239);
#235 = CIRCLE('',#236,4.342105263158E-02);
#236 = AXIS2_PLACEMENT_2D('',#237,#238);
#237 = CARTESIAN_POINT('',(4.342105263158E-02,2.658772656044E-18));
#238 = DIRECTION('',(6.123233995737E-17,-1.));
#239 = ( GEOMETRIC_REPRESENTATION_CONTEXT(2) 
PARAMETRIC_REPRESENTATION_CONTEXT() REPRESENTATION_CONTEXT('2D SPACE',''
  ) );
#240 = ADVANCED_FACE('',(#241),#154,.T.);
#241 = FACE_BOUND('',#242,.T.);
#242 = EDGE_LOOP('',(#243,#244));
#243 = ORIENTED_EDGE('',*,*,#137,.T.);
#244 = ORIENTED_EDGE('',*,*,#219,.T.);
#245 = ( GEOMETRIC_REPRESENTATION_CONTEXT(3) 
GLOBAL_UNCERTAINTY_ASSIGNED_CONTEXT((#249)) GLOBAL_UNIT_ASSIGNED_CONTEXT
((#246,#247,#248)) REPRESENTATION_CONTEXT('Context #1',
  '3D Context with UNIT and UNCERTAINTY') );
#246 = ( LENGTH_UNIT() NAMED_UNIT(*) SI_UNIT(.MILLI.,.METRE.) );
#247 = ( NAMED_UNIT(*) PLANE_ANGLE_UNIT() SI_UNIT($,.RADIAN.) );
#248 = ( NAMED_UNIT(*) SI_UNIT($,.STERADIAN.) SOLID_ANGLE_UNIT() );
#249 = UNCERTAINTY_MEASURE_WITH_UNIT(LENGTH_MEASURE(1.E-07),#246,
  'distance_accuracy_value','confusion accuracy');
#250 = CONTEXT_DEPENDENT_SHAPE_REPRESENTATION(#251,#253);
#251 = ( REPRESENTATION_RELATIONSHIP('','',#66,#10) 
REPRESENTATION_RELATIONSHIP_WITH_TRANSFORMATION(#252) 
SHAPE_REPRESENTATION_RELATIONSHIP() );
#252 = ITEM_DEFINED_TRANSFORMATION('','',#11,#15);
#253 = PRODUCT_DEFINITION_SHAPE('Placement','Placement of an item',#254
  );
#254 = NEXT_ASSEMBLY_USAGE_OCCURRENCE('11','','',#5,#61,$);
#255 = CC_DESIGN_SECURITY_CLASSIFICATION(#256,(#254));
#256 = SECURITY_CLASSIFICATION('','',#43);
#257 = CC_DESIGN_PERSON_AND_ORGANIZATION_ASSIGNMENT(#32,#41,(#256));
#258 = CC_DESIGN_DATE_AND_TIME_ASSIGNMENT(#46,#52,(#256));
#259 = CC_DESIGN_APPROVAL(#54,(#256));
#260 = PRODUCT_RELATED_PRODUCT_CATEGORY('detail',$,(#63));
#261 = PRODUCT_CATEGORY_RELATIONSHIP('','',#262,#260);
#262 = PRODUCT_CATEGORY('part',$);
#263 = CC_DESIGN_PERSON_AND_ORGANIZATION_ASSIGNMENT(#32,#35,(#62,#61));
#264 = CC_DESIGN_PERSON_AND_ORGANIZATION_ASSIGNMENT(#32,#37,(#63));
#265 = CC_DESIGN_PERSON_AND_ORGANIZATION_ASSIGNMENT(#32,#39,(#62));
#266 = CC_DESIGN_PERSON_AND_ORGANIZATION_ASSIGNMENT(#32,#41,(#267));
#267 = SECURITY_CLASSIFICATION('','',#43);
#268 = CC_DESIGN_SECURITY_CLASSIFICATION(#267,(#62));
#269 = CC_DESIGN_DATE_AND_TIME_ASSIGNMENT(#46,#50,(#61));
#270 = CC_DESIGN_DATE_AND_TIME_ASSIGNMENT(#46,#52,(#267));
#271 = CC_DESIGN_APPROVAL(#54,(#62,#61,#267));
#272 = SHAPE_DEFINITION_REPRESENTATION(#273,#279);
#273 = PRODUCT_DEFINITION_SHAPE('','',#274);
#274 = PRODUCT_DEFINITION('design','',#275,#278);
#275 = PRODUCT_DEFINITION_FORMATION_WITH_SPECIFIED_SOURCE('','',#276,
  .NOT_KNOWN.);
#276 = PRODUCT('Open CASCADE STEP translator 7.8 33.2',
  'Open CASCADE STEP translator 7.8 33.2','',(#277));
#277 = MECHANICAL_CONTEXT('',#2,'mechanical');
#278 = DESIGN_CONTEXT('',#2,'design');
#279 = ADVANCED_BREP_SHAPE_REPRESENTATION('',(#11,#280),#378);
#280 = MANIFOLD_SOLID_BREP('',#281);
#281 = CLOSED_SHELL('',(#282,#370,#374));
#282 = ADVANCED_FACE('',(#283),#297,.T.);
#283 = FACE_BOUND('',#284,.F.);
#284 = EDGE_LOOP('',(#285,#315,#342,#343));
#285 = ORIENTED_EDGE('',*,*,#286,.T.);
#286 = EDGE_CURVE('',#287,#289,#291,.T.);
#287 = VERTEX_POINT('',#288);
#288 = CARTESIAN_POINT('',(-3.453947368421E-03,5.539109700091E-20,
    -4.251644736842E-02));
#289 = VERTEX_POINT('',#290);
#290 = CARTESIAN_POINT('',(-3.453947368421E-03,-0.75,-4.251644736842E-02
    ));
#291 = SEAM_CURVE('',#292,(#296,#308),.PCURVE_S1.);
#292 = LINE('',#293,#294);
#293 = CARTESIAN_POINT('',(-3.453947368421E-03,5.539109700091E-20,
    -4.251644736842E-02));
#294 = VECTOR('',#295,1.);
#295 = DIRECTION('',(6.123233995737E-17,-1.,6.123233995737E-17));
#296 = PCURVE('',#297,#302);
#297 = CYLINDRICAL_SURFACE('',#298,4.251644736842E-02);
#298 = AXIS2_PLACEMENT_3D('',#299,#300,#301);
#299 = CARTESIAN_POINT('',(-3.453947368421E-03,2.658772656044E-18,
    -2.658772656044E-18));
#300 = DIRECTION('',(-6.123233995737E-17,1.,-6.123233995737E-17));
#301 = DIRECTION('',(0.,-6.123233995737E-17,-1.));
#302 = DEFINITIONAL_REPRESENTATION('',(#303),#307);
#303 = LINE('',#304,#305);
#304 = CARTESIAN_POINT('',(-0.,0.));
#305 = VECTOR('',#306,1.);
#306 = DIRECTION('',(-0.,-1.));
#307 = ( GEOMETRIC_REPRESENTATION_CONTEXT(2) 
PARAMETRIC_REPRESENTATION_CONTEXT() REPRESENTATION_CONTEXT('2D SPACE',''
  ) );
#308 = PCURVE('',#297,#309);
#309 = DEFINITIONAL_REPRESENTATION('',(#310),#314);
#310 = LINE('',#311,#312);
#311 = CARTESIAN_POINT('',(-6.28318530718,0.));
#312 = VECTOR('',#313,1.);
#313 = DIRECTION('',(-0.,-1.));
#314 = ( GEOMETRIC_REPRESENTATION_CONTEXT(2) 
PARAMETRIC_REPRESENTATION_CONTEXT() REPRESENTATION_CONTEXT('2D SPACE',''
  ) );
#315 = ORIENTED_EDGE('',*,*,#316,.T.);
#316 = EDGE_CURVE('',#289,#289,#317,.T.);
#317 = SURFACE_CURVE('',#318,(#323,#330),.PCURVE_S1.);
#318 = CIRCLE('',#319,4.251644736842E-02);
#319 = AXIS2_PLACEMENT_3D('',#320,#321,#322);
#320 = CARTESIAN_POINT('',(-3.453947368421E-03,-0.75,4.326548231198E-17)
  );
#321 = DIRECTION('',(6.123233995737E-17,-1.,6.123233995737E-17));
#322 = DIRECTION('',(0.,-6.123233995737E-17,-1.));
#323 = PCURVE('',#297,#324);
#324 = DEFINITIONAL_REPRESENTATION('',(#325),#329);
#325 = LINE('',#326,#327);
#326 = CARTESIAN_POINT('',(-0.,-0.75));
#327 = VECTOR('',#328,1.);
#328 = DIRECTION('',(-1.,0.));
#329 = ( GEOMETRIC_REPRESENTATION_CONTEXT(2) 
PARAMETRIC_REPRESENTATION_CONTEXT() REPRESENTATION_CONTEXT('2D SPACE',''
  ) );
#330 = PCURVE('',#331,#336);
#331 = PLANE('',#332);
#332 = AXIS2_PLACEMENT_3D('',#333,#334,#335);
#333 = CARTESIAN_POINT('',(-4.6875E-02,-0.75,4.592425496803E-17));
#334 = DIRECTION('',(6.123233995737E-17,-1.,6.123233995737E-17));
#335 = DIRECTION('',(1.,6.123233995737E-17,-6.123233995737E-17));
#336 = DEFINITIONAL_REPRESENTATION('',(#337),#341);
#337 = CIRCLE('',#338,4.251644736842E-02);
#338 = AXIS2_PLACEMENT_2D('',#339,#340);
#339 = CARTESIAN_POINT('',(4.342105263158E-02,0.));
#340 = DIRECTION('',(6.123233995737E-17,-1.));
#341 = ( GEOMETRIC_REPRESENTATION_CONTEXT(2) 
PARAMETRIC_REPRESENTATION_CONTEXT() REPRESENTATION_CONTEXT('2D SPACE',''
  ) );
#342 = ORIENTED_EDGE('',*,*,#286,.F.);
#343 = ORIENTED_EDGE('',*,*,#344,.F.);
#344 = EDGE_CURVE('',#287,#287,#345,.T.);
#345 = SURFACE_CURVE('',#346,(#351,#358),.PCURVE_S1.);
#346 = CIRCLE('',#347,4.251644736842E-02);
#347 = AXIS2_PLACEMENT_3D('',#348,#349,#350);
#348 = CARTESIAN_POINT('',(-3.453947368421E-03,2.658772656044E-18,
    -2.658772656044E-18));
#349 = DIRECTION('',(6.123233995737E-17,-1.,6.123233995737E-17));
#350 = DIRECTION('',(0.,-6.123233995737E-17,-1.));
#351 = PCURVE('',#297,#352);
#352 = DEFINITIONAL_REPRESENTATION('',(#353),#357);
#353 = LINE('',#354,#355);
#354 = CARTESIAN_POINT('',(-0.,0.));
#355 = VECTOR('',#356,1.);
#356 = DIRECTION('',(-1.,0.));
#357 = ( GEOMETRIC_REPRESENTATION_CONTEXT(2) 
PARAMETRIC_REPRESENTATION_CONTEXT() REPRESENTATION_CONTEXT('2D SPACE',''
  ) );
#358 = PCURVE('',#359,#364);
#359 = PLANE('',#360);
#360 = AXIS2_PLACEMENT_3D('',#361,#362,#363);
#361 = CARTESIAN_POINT('',(-4.6875E-02,0.,0.));
#362 = DIRECTION('',(6.123233995737E-17,-1.,6.123233995737E-17));
#363 = DIRECTION('',(1.,6.123233995737E-17,-6.123233995737E-17));
#364 = DEFINITIONAL_REPRESENTATION('',(#365),#369);
#365 = CIRCLE('',#366,4.251644736842E-02);
#366 = AXIS2_PLACEMENT_2D('',#367,#368);
#367 = CARTESIAN_POINT('',(4.342105263158E-02,0.));
#368 = DIRECTION('',(6.123233995737E-17,-1.));
#369 = ( GEOMETRIC_REPRESENTATION_CONTEXT(2) 
PARAMETRIC_REPRESENTATION_CONTEXT() REPRESENTATION_CONTEXT('2D SPACE',''
  ) );
#370 = ADVANCED_FACE('',(#371),#359,.F.);
#371 = FACE_BOUND('',#372,.F.);
#372 = EDGE_LOOP('',(#373));
#373 = ORIENTED_EDGE('',*,*,#344,.T.);
#374 = ADVANCED_FACE('',(#375),#331,.T.);
#375 = FACE_BOUND('',#376,.T.);
#376 = EDGE_LOOP('',(#377));
#377 = ORIENTED_EDGE('',*,*,#316,.T.);
#378 = ( GEOMETRIC_REPRESENTATION_CONTEXT(3) 
GLOBAL_UNCERTAINTY_ASSIGNED_CONTEXT((#382)) GLOBAL_UNIT_ASSIGNED_CONTEXT
((#379,#380,#381)) REPRESENTATION_CONTEXT('Context #1',
  '3D Context with UNIT and UNCERTAINTY') );
#379 = ( LENGTH_UNIT() NAMED_UNIT(*) SI_UNIT(.MILLI.,.METRE.) );
#380 = ( NAMED_UNIT(*) PLANE_ANGLE_UNIT() SI_UNIT($,.RADIAN.) );
#381 = ( NAMED_UNIT(*) SI_UNIT($,.STERADIAN.) SOLID_ANGLE_UNIT() );
#382 = UNCERTAINTY_MEASURE_WITH_UNIT(LENGTH_MEASURE(1.E-07),#379,
  'distance_accuracy_value','confusion accuracy');
#383 = CONTEXT_DEPENDENT_SHAPE_REPRESENTATION(#384,#386);
#384 = ( REPRESENTATION_RELATIONSHIP('','',#279,#10) 
REPRESENTATION_RELATIONSHIP_WITH_TRANSFORMATION(#385) 
SHAPE_REPRESENTATION_RELATIONSHIP() );
#385 = ITEM_DEFINED_TRANSFORMATION('','',#11,#19);
#386 = PRODUCT_DEFINITION_SHAPE('Placement','Placement of an item',#387
  );
#387 = NEXT_ASSEMBLY_USAGE_OCCURRENCE('12','','',#5,#274,$);
#388 = CC_DESIGN_SECURITY_CLASSIFICATION(#389,(#387));
#389 = SECURITY_CLASSIFICATION('','',#43);
#390 = CC_DESIGN_PERSON_AND_ORGANIZATION_ASSIGNMENT(#32,#41,(#389));
#391 = CC_DESIGN_DATE_AND_TIME_ASSIGNMENT(#46,#52,(#389));
#392 = CC_DESIGN_APPROVAL(#54,(#389));
#393 = PRODUCT_RELATED_PRODUCT_CATEGORY('detail',$,(#276));
#394 = PRODUCT_CATEGORY_RELATIONSHIP('','',#395,#393);
#395 = PRODUCT_CATEGORY('part',$);
#396 = CC_DESIGN_PERSON_AND_ORGANIZATION_ASSIGNMENT(#32,#35,(#275,#274)
  );
#397 = CC_DESIGN_PERSON_AND_ORGANIZATION_ASSIGNMENT(#32,#37,(#276));
#398 = CC_DESIGN_PERSON_AND_ORGANIZATION_ASSIGNMENT(#32,#39,(#275));
#399 = CC_DESIGN_PERSON_AND_ORGANIZATION_ASSIGNMENT(#32,#41,(#400));
#400 = SECURITY_CLASSIFICATION('','',#43);
#401 = CC_DESIGN_SECURITY_CLASSIFICATION(#400,(#275));
#402 = CC_DESIGN_DATE_AND_TIME_ASSIGNMENT(#46,#50,(#274));
#403 = CC_DESIGN_DATE_AND_TIME_ASSIGNMENT(#46,#52,(#400));
#404 = CC_DESIGN_APPROVAL(#54,(#275,#274,#400));
ENDSEC;
END-ISO-10303-21;
