ISO-10303-21;
HEADER;
FILE_DESCRIPTION(('Open CASCADE Model'),'2;1');
FILE_NAME('Open CASCADE Shape Model','2026-06-25T12:25:49',('Author'),(
    'Open CASCADE'),'Open CASCADE STEP processor 7.8','Open CASCADE 7.8'
  ,'Unknown');
FILE_SCHEMA(('CONFIG_CONTROL_DESIGN'));
ENDSEC;
DATA;
#1 = APPLICATION_PROTOCOL_DEFINITION('committee draft',
  'automotive_design',1997,#2);
#2 = APPLICATION_CONTEXT(
  'core data for automotive mechanical design processes');
#3 = SHAPE_DEFINITION_REPRESENTATION(#4,#10);
#4 = PRODUCT_DEFINITION_SHAPE('','',#5);
#5 = PRODUCT_DEFINITION('design','',#6,#9);
#6 = PRODUCT_DEFINITION_FORMATION('','',#7);
#7 = PRODUCT('Product 7','Product 7','',(#8));
#8 = MECHANICAL_CONTEXT('',#2,'mechanical');
#9 = PRODUCT_DEFINITION_CONTEXT('part definition',#2,'design');
#10 = ADVANCED_BREP_SHAPE_REPRESENTATION('',(#11,#15),#809);
#11 = AXIS2_PLACEMENT_3D('',#12,#13,#14);
#12 = CARTESIAN_POINT('',(0.,0.,0.));
#13 = DIRECTION('',(0.,0.,1.));
#14 = DIRECTION('',(1.,0.,-0.));
#15 = MANIFOLD_SOLID_BREP('',#16);
#16 = CLOSED_SHELL('',(#17,#137,#213,#439,#488,#667,#674,#701,#728,#755,
    #782));
#17 = ADVANCED_FACE('',(#18),#32,.F.);
#18 = FACE_BOUND('',#19,.F.);
#19 = EDGE_LOOP('',(#20,#55,#83,#111));
#20 = ORIENTED_EDGE('',*,*,#21,.T.);
#21 = EDGE_CURVE('',#22,#24,#26,.T.);
#22 = VERTEX_POINT('',#23);
#23 = CARTESIAN_POINT('',(0.562929613032,-0.421712413746,0.140630818948)
  );
#24 = VERTEX_POINT('',#25);
#25 = CARTESIAN_POINT('',(0.562980060123,-0.421660866122,
    5.837444201851E-06));
#26 = SURFACE_CURVE('',#27,(#31,#43),.PCURVE_S1.);
#27 = LINE('',#28,#29);
#28 = CARTESIAN_POINT('',(0.562929613032,-0.421712413746,0.140630818948)
  );
#29 = VECTOR('',#30,1.);
#30 = DIRECTION('',(3.587348649369E-04,3.665608850117E-04,
    -0.999999868471));
#31 = PCURVE('',#32,#37);
#32 = PLANE('',#33);
#33 = AXIS2_PLACEMENT_3D('',#34,#35,#36);
#34 = CARTESIAN_POINT('',(0.562929613032,-0.421712413746,0.140630818948)
  );
#35 = DIRECTION('',(0.,0.999999932817,3.665609085982E-04));
#36 = DIRECTION('',(-1.,0.,0.));
#37 = DEFINITIONAL_REPRESENTATION('',(#38),#42);
#38 = LINE('',#39,#40);
#39 = CARTESIAN_POINT('',(0.,0.));
#40 = VECTOR('',#41,1.);
#41 = DIRECTION('',(-3.587348649369E-04,-0.999999935655));
#42 = ( GEOMETRIC_REPRESENTATION_CONTEXT(2) 
PARAMETRIC_REPRESENTATION_CONTEXT() REPRESENTATION_CONTEXT('2D SPACE',''
  ) );
#43 = PCURVE('',#44,#49);
#44 = PLANE('',#45);
#45 = AXIS2_PLACEMENT_3D('',#46,#47,#48);
#46 = CARTESIAN_POINT('',(0.562929613032,0.643090586254,0.140630818948)
  );
#47 = DIRECTION('',(-0.999999935655,-0.,-3.587348890379E-04));
#48 = DIRECTION('',(0.,-1.,0.));
#49 = DEFINITIONAL_REPRESENTATION('',(#50),#54);
#50 = LINE('',#51,#52);
#51 = CARTESIAN_POINT('',(1.064803,0.));
#52 = VECTOR('',#53,1.);
#53 = DIRECTION('',(-3.665608850117E-04,-0.999999932817));
#54 = ( GEOMETRIC_REPRESENTATION_CONTEXT(2) 
PARAMETRIC_REPRESENTATION_CONTEXT() REPRESENTATION_CONTEXT('2D SPACE',''
  ) );
#55 = ORIENTED_EDGE('',*,*,#56,.T.);
#56 = EDGE_CURVE('',#24,#57,#59,.T.);
#57 = VERTEX_POINT('',#58);
#58 = CARTESIAN_POINT('',(-0.733894939877,-0.421660866122,
    5.837444201851E-06));
#59 = SURFACE_CURVE('',#60,(#64,#71),.PCURVE_S1.);
#60 = LINE('',#61,#62);
#61 = CARTESIAN_POINT('',(0.562980060123,-0.421660866122,
    5.837444201851E-06));
#62 = VECTOR('',#63,1.);
#63 = DIRECTION('',(-1.,0.,0.));
#64 = PCURVE('',#32,#65);
#65 = DEFINITIONAL_REPRESENTATION('',(#66),#70);
#66 = LINE('',#67,#68);
#67 = CARTESIAN_POINT('',(-5.044709038171E-05,-0.140624990951));
#68 = VECTOR('',#69,1.);
#69 = DIRECTION('',(1.,0.));
#70 = ( GEOMETRIC_REPRESENTATION_CONTEXT(2) 
PARAMETRIC_REPRESENTATION_CONTEXT() REPRESENTATION_CONTEXT('2D SPACE',''
  ) );
#71 = PCURVE('',#72,#77);
#72 = PLANE('',#73);
#73 = AXIS2_PLACEMENT_3D('',#74,#75,#76);
#74 = CARTESIAN_POINT('',(-8.545743987737E-02,0.110740633878,
    5.837444201851E-06));
#75 = DIRECTION('',(-0.,-0.,-1.));
#76 = DIRECTION('',(-1.,0.,0.));
#77 = DEFINITIONAL_REPRESENTATION('',(#78),#82);
#78 = LINE('',#79,#80);
#79 = CARTESIAN_POINT('',(-0.6484375,-0.5324015));
#80 = VECTOR('',#81,1.);
#81 = DIRECTION('',(1.,0.));
#82 = ( GEOMETRIC_REPRESENTATION_CONTEXT(2) 
PARAMETRIC_REPRESENTATION_CONTEXT() REPRESENTATION_CONTEXT('2D SPACE',''
  ) );
#83 = ORIENTED_EDGE('',*,*,#84,.F.);
#84 = EDGE_CURVE('',#85,#57,#87,.T.);
#85 = VERTEX_POINT('',#86);
#86 = CARTESIAN_POINT('',(-0.733945386968,-0.421712413746,0.140630818948
    ));
#87 = SURFACE_CURVE('',#88,(#92,#99),.PCURVE_S1.);
#88 = LINE('',#89,#90);
#89 = CARTESIAN_POINT('',(-0.733945386968,-0.421712413746,0.140630818948
    ));
#90 = VECTOR('',#91,1.);
#91 = DIRECTION('',(3.587348649369E-04,3.665608850117E-04,
    -0.999999868471));
#92 = PCURVE('',#32,#93);
#93 = DEFINITIONAL_REPRESENTATION('',(#94),#98);
#94 = LINE('',#95,#96);
#95 = CARTESIAN_POINT('',(1.296875,0.));
#96 = VECTOR('',#97,1.);
#97 = DIRECTION('',(-3.587348649369E-04,-0.999999935655));
#98 = ( GEOMETRIC_REPRESENTATION_CONTEXT(2) 
PARAMETRIC_REPRESENTATION_CONTEXT() REPRESENTATION_CONTEXT('2D SPACE',''
  ) );
#99 = PCURVE('',#100,#105);
#100 = PLANE('',#101);
#101 = AXIS2_PLACEMENT_3D('',#102,#103,#104);
#102 = CARTESIAN_POINT('',(-0.733945386968,-0.421712413746,
    0.140630818948));
#103 = DIRECTION('',(0.999999935655,-0.,3.587348890379E-04));
#104 = DIRECTION('',(0.,1.,0.));
#105 = DEFINITIONAL_REPRESENTATION('',(#106),#110);
#106 = LINE('',#107,#108);
#107 = CARTESIAN_POINT('',(0.,0.));
#108 = VECTOR('',#109,1.);
#109 = DIRECTION('',(3.665608850117E-04,-0.999999932817));
#110 = ( GEOMETRIC_REPRESENTATION_CONTEXT(2) 
PARAMETRIC_REPRESENTATION_CONTEXT() REPRESENTATION_CONTEXT('2D SPACE',''
  ) );
#111 = ORIENTED_EDGE('',*,*,#112,.F.);
#112 = EDGE_CURVE('',#22,#85,#113,.T.);
#113 = SURFACE_CURVE('',#114,(#118,#125),.PCURVE_S1.);
#114 = LINE('',#115,#116);
#115 = CARTESIAN_POINT('',(0.562929613032,-0.421712413746,0.140630818948
    ));
#116 = VECTOR('',#117,1.);
#117 = DIRECTION('',(-1.,0.,0.));
#118 = PCURVE('',#32,#119);
#119 = DEFINITIONAL_REPRESENTATION('',(#120),#124);
#120 = LINE('',#121,#122);
#121 = CARTESIAN_POINT('',(0.,0.));
#122 = VECTOR('',#123,1.);
#123 = DIRECTION('',(1.,0.));
#124 = ( GEOMETRIC_REPRESENTATION_CONTEXT(2) 
PARAMETRIC_REPRESENTATION_CONTEXT() REPRESENTATION_CONTEXT('2D SPACE',''
  ) );
#125 = PCURVE('',#126,#131);
#126 = PLANE('',#127);
#127 = AXIS2_PLACEMENT_3D('',#128,#129,#130);
#128 = CARTESIAN_POINT('',(-8.550788696775E-02,0.110689086254,
    0.140630818948));
#129 = DIRECTION('',(-0.,-0.,-1.));
#130 = DIRECTION('',(-1.,0.,0.));
#131 = DEFINITIONAL_REPRESENTATION('',(#132),#136);
#132 = LINE('',#133,#134);
#133 = CARTESIAN_POINT('',(-0.6484375,-0.5324015));
#134 = VECTOR('',#135,1.);
#135 = DIRECTION('',(1.,0.));
#136 = ( GEOMETRIC_REPRESENTATION_CONTEXT(2) 
PARAMETRIC_REPRESENTATION_CONTEXT() REPRESENTATION_CONTEXT('2D SPACE',''
  ) );
#137 = ADVANCED_FACE('',(#138),#44,.F.);
#138 = FACE_BOUND('',#139,.F.);
#139 = EDGE_LOOP('',(#140,#170,#191,#192));
#140 = ORIENTED_EDGE('',*,*,#141,.T.);
#141 = EDGE_CURVE('',#142,#144,#146,.T.);
#142 = VERTEX_POINT('',#143);
#143 = CARTESIAN_POINT('',(0.562929613032,0.643090586254,0.140630818948)
  );
#144 = VERTEX_POINT('',#145);
#145 = CARTESIAN_POINT('',(0.562980060123,0.643142133878,
    5.837444201851E-06));
#146 = SURFACE_CURVE('',#147,(#151,#158),.PCURVE_S1.);
#147 = LINE('',#148,#149);
#148 = CARTESIAN_POINT('',(0.562929613032,0.643090586254,0.140630818948)
  );
#149 = VECTOR('',#150,1.);
#150 = DIRECTION('',(3.587348649369E-04,3.665608850117E-04,
    -0.999999868471));
#151 = PCURVE('',#44,#152);
#152 = DEFINITIONAL_REPRESENTATION('',(#153),#157);
#153 = LINE('',#154,#155);
#154 = CARTESIAN_POINT('',(0.,0.));
#155 = VECTOR('',#156,1.);
#156 = DIRECTION('',(-3.665608850117E-04,-0.999999932817));
#157 = ( GEOMETRIC_REPRESENTATION_CONTEXT(2) 
PARAMETRIC_REPRESENTATION_CONTEXT() REPRESENTATION_CONTEXT('2D SPACE',''
  ) );
#158 = PCURVE('',#159,#164);
#159 = PLANE('',#160);
#160 = AXIS2_PLACEMENT_3D('',#161,#162,#163);
#161 = CARTESIAN_POINT('',(-0.733945386968,0.643090586254,0.140630818948
    ));
#162 = DIRECTION('',(0.,-0.999999932817,-3.665609085982E-04));
#163 = DIRECTION('',(1.,0.,0.));
#164 = DEFINITIONAL_REPRESENTATION('',(#165),#169);
#165 = LINE('',#166,#167);
#166 = CARTESIAN_POINT('',(1.296875,0.));
#167 = VECTOR('',#168,1.);
#168 = DIRECTION('',(3.587348649369E-04,-0.999999935655));
#169 = ( GEOMETRIC_REPRESENTATION_CONTEXT(2) 
PARAMETRIC_REPRESENTATION_CONTEXT() REPRESENTATION_CONTEXT('2D SPACE',''
  ) );
#170 = ORIENTED_EDGE('',*,*,#171,.T.);
#171 = EDGE_CURVE('',#144,#24,#172,.T.);
#172 = SURFACE_CURVE('',#173,(#177,#184),.PCURVE_S1.);
#173 = LINE('',#174,#175);
#174 = CARTESIAN_POINT('',(0.562980060123,0.643142133878,
    5.837444201851E-06));
#175 = VECTOR('',#176,1.);
#176 = DIRECTION('',(0.,-1.,0.));
#177 = PCURVE('',#44,#178);
#178 = DEFINITIONAL_REPRESENTATION('',(#179),#183);
#179 = LINE('',#180,#181);
#180 = CARTESIAN_POINT('',(-5.154762445481E-05,-0.140624990552));
#181 = VECTOR('',#182,1.);
#182 = DIRECTION('',(1.,0.));
#183 = ( GEOMETRIC_REPRESENTATION_CONTEXT(2) 
PARAMETRIC_REPRESENTATION_CONTEXT() REPRESENTATION_CONTEXT('2D SPACE',''
  ) );
#184 = PCURVE('',#72,#185);
#185 = DEFINITIONAL_REPRESENTATION('',(#186),#190);
#186 = LINE('',#187,#188);
#187 = CARTESIAN_POINT('',(-0.6484375,0.5324015));
#188 = VECTOR('',#189,1.);
#189 = DIRECTION('',(0.,-1.));
#190 = ( GEOMETRIC_REPRESENTATION_CONTEXT(2) 
PARAMETRIC_REPRESENTATION_CONTEXT() REPRESENTATION_CONTEXT('2D SPACE',''
  ) );
#191 = ORIENTED_EDGE('',*,*,#21,.F.);
#192 = ORIENTED_EDGE('',*,*,#193,.F.);
#193 = EDGE_CURVE('',#142,#22,#194,.T.);
#194 = SURFACE_CURVE('',#195,(#199,#206),.PCURVE_S1.);
#195 = LINE('',#196,#197);
#196 = CARTESIAN_POINT('',(0.562929613032,0.643090586254,0.140630818948)
  );
#197 = VECTOR('',#198,1.);
#198 = DIRECTION('',(0.,-1.,0.));
#199 = PCURVE('',#44,#200);
#200 = DEFINITIONAL_REPRESENTATION('',(#201),#205);
#201 = LINE('',#202,#203);
#202 = CARTESIAN_POINT('',(0.,0.));
#203 = VECTOR('',#204,1.);
#204 = DIRECTION('',(1.,0.));
#205 = ( GEOMETRIC_REPRESENTATION_CONTEXT(2) 
PARAMETRIC_REPRESENTATION_CONTEXT() REPRESENTATION_CONTEXT('2D SPACE',''
  ) );
#206 = PCURVE('',#126,#207);
#207 = DEFINITIONAL_REPRESENTATION('',(#208),#212);
#208 = LINE('',#209,#210);
#209 = CARTESIAN_POINT('',(-0.6484375,0.5324015));
#210 = VECTOR('',#211,1.);
#211 = DIRECTION('',(0.,-1.));
#212 = ( GEOMETRIC_REPRESENTATION_CONTEXT(2) 
PARAMETRIC_REPRESENTATION_CONTEXT() REPRESENTATION_CONTEXT('2D SPACE',''
  ) );
#213 = ADVANCED_FACE('',(#214,#262,#297,#332,#367,#404),#72,.T.);
#214 = FACE_BOUND('',#215,.T.);
#215 = EDGE_LOOP('',(#216,#217,#240,#261));
#216 = ORIENTED_EDGE('',*,*,#56,.T.);
#217 = ORIENTED_EDGE('',*,*,#218,.T.);
#218 = EDGE_CURVE('',#57,#219,#221,.T.);
#219 = VERTEX_POINT('',#220);
#220 = CARTESIAN_POINT('',(-0.733894939877,0.643142133878,
    5.837444201851E-06));
#221 = SURFACE_CURVE('',#222,(#226,#233),.PCURVE_S1.);
#222 = LINE('',#223,#224);
#223 = CARTESIAN_POINT('',(-0.733894939877,-0.421660866122,
    5.837444201851E-06));
#224 = VECTOR('',#225,1.);
#225 = DIRECTION('',(0.,1.,0.));
#226 = PCURVE('',#72,#227);
#227 = DEFINITIONAL_REPRESENTATION('',(#228),#232);
#228 = LINE('',#229,#230);
#229 = CARTESIAN_POINT('',(0.6484375,-0.5324015));
#230 = VECTOR('',#231,1.);
#231 = DIRECTION('',(0.,1.));
#232 = ( GEOMETRIC_REPRESENTATION_CONTEXT(2) 
PARAMETRIC_REPRESENTATION_CONTEXT() REPRESENTATION_CONTEXT('2D SPACE',''
  ) );
#233 = PCURVE('',#100,#234);
#234 = DEFINITIONAL_REPRESENTATION('',(#235),#239);
#235 = LINE('',#236,#237);
#236 = CARTESIAN_POINT('',(5.154762445481E-05,-0.140624990552));
#237 = VECTOR('',#238,1.);
#238 = DIRECTION('',(1.,0.));
#239 = ( GEOMETRIC_REPRESENTATION_CONTEXT(2) 
PARAMETRIC_REPRESENTATION_CONTEXT() REPRESENTATION_CONTEXT('2D SPACE',''
  ) );
#240 = ORIENTED_EDGE('',*,*,#241,.T.);
#241 = EDGE_CURVE('',#219,#144,#242,.T.);
#242 = SURFACE_CURVE('',#243,(#247,#254),.PCURVE_S1.);
#243 = LINE('',#244,#245);
#244 = CARTESIAN_POINT('',(-0.733894939877,0.643142133878,
    5.837444201851E-06));
#245 = VECTOR('',#246,1.);
#246 = DIRECTION('',(1.,0.,0.));
#247 = PCURVE('',#72,#248);
#248 = DEFINITIONAL_REPRESENTATION('',(#249),#253);
#249 = LINE('',#250,#251);
#250 = CARTESIAN_POINT('',(0.6484375,0.5324015));
#251 = VECTOR('',#252,1.);
#252 = DIRECTION('',(-1.,0.));
#253 = ( GEOMETRIC_REPRESENTATION_CONTEXT(2) 
PARAMETRIC_REPRESENTATION_CONTEXT() REPRESENTATION_CONTEXT('2D SPACE',''
  ) );
#254 = PCURVE('',#159,#255);
#255 = DEFINITIONAL_REPRESENTATION('',(#256),#260);
#256 = LINE('',#257,#258);
#257 = CARTESIAN_POINT('',(5.044709038171E-05,-0.140624990951));
#258 = VECTOR('',#259,1.);
#259 = DIRECTION('',(1.,0.));
#260 = ( GEOMETRIC_REPRESENTATION_CONTEXT(2) 
PARAMETRIC_REPRESENTATION_CONTEXT() REPRESENTATION_CONTEXT('2D SPACE',''
  ) );
#261 = ORIENTED_EDGE('',*,*,#171,.T.);
#262 = FACE_BOUND('',#263,.T.);
#263 = EDGE_LOOP('',(#264));
#264 = ORIENTED_EDGE('',*,*,#265,.F.);
#265 = EDGE_CURVE('',#266,#266,#268,.T.);
#266 = VERTEX_POINT('',#267);
#267 = CARTESIAN_POINT('',(0.328432735582,-0.339967144765,
    5.837444201851E-06));
#268 = SURFACE_CURVE('',#269,(#274,#281),.PCURVE_S1.);
#269 = ELLIPSE('',#270,5.458832015081E-02,5.458828162291E-02);
#270 = AXIS2_PLACEMENT_3D('',#271,#272,#273);
#271 = CARTESIAN_POINT('',(0.383021041793,-0.339967181792,
    5.837444201851E-06));
#272 = DIRECTION('',(-0.,0.,-1.));
#273 = DIRECTION('',(-0.798865789031,0.601509310914,0.));
#274 = PCURVE('',#72,#275);
#275 = DEFINITIONAL_REPRESENTATION('',(#276),#280);
#276 = ELLIPSE('',#277,5.458832015081E-02,5.458828162291E-02);
#277 = AXIS2_PLACEMENT_2D('',#278,#279);
#278 = CARTESIAN_POINT('',(-0.46847848167,-0.45070781567));
#279 = DIRECTION('',(0.798865789031,0.601509310914));
#280 = ( GEOMETRIC_REPRESENTATION_CONTEXT(2) 
PARAMETRIC_REPRESENTATION_CONTEXT() REPRESENTATION_CONTEXT('2D SPACE',''
  ) );
#281 = PCURVE('',#282,#287);
#282 = CYLINDRICAL_SURFACE('',#283,5.458828162291E-02);
#283 = AXIS2_PLACEMENT_3D('',#284,#285,#286);
#284 = CARTESIAN_POINT('',(0.383164060752,-0.340074868511,0.150689713478
    ));
#285 = DIRECTION('',(-9.491318011677E-04,7.146527283133E-04,
    -0.99999929421));
#286 = DIRECTION('',(-0.999999549574,-1.058791184068E-22,
    9.491320435421E-04));
#287 = DEFINITIONAL_REPRESENTATION('',(#288),#296);
#288 = B_SPLINE_CURVE_WITH_KNOTS('',6,(#289,#290,#291,#292,#293,#294,
    #295),.UNSPECIFIED.,.F.,.F.,(7,7),(5.637796561102,11.920981868282),
  .PIECEWISE_BEZIER_KNOTS.);
#289 = CARTESIAN_POINT('',(0.,0.150735793909));
#290 = CARTESIAN_POINT('',(1.047197551197,0.150776646839));
#291 = CARTESIAN_POINT('',(2.094395102393,0.150764708606));
#292 = CARTESIAN_POINT('',(3.141592653589,0.15050055905));
#293 = CARTESIAN_POINT('',(4.188790204786,0.150579447021));
#294 = CARTESIAN_POINT('',(5.235987755983,0.15069494098));
#295 = CARTESIAN_POINT('',(6.28318530718,0.150735793909));
#296 = ( GEOMETRIC_REPRESENTATION_CONTEXT(2) 
PARAMETRIC_REPRESENTATION_CONTEXT() REPRESENTATION_CONTEXT('2D SPACE',''
  ) );
#297 = FACE_BOUND('',#298,.T.);
#298 = EDGE_LOOP('',(#299));
#299 = ORIENTED_EDGE('',*,*,#300,.F.);
#300 = EDGE_CURVE('',#301,#301,#303,.T.);
#301 = VERTEX_POINT('',#302);
#302 = CARTESIAN_POINT('',(-0.504270845975,-0.394607112688,
    5.837444201851E-06));
#303 = SURFACE_CURVE('',#304,(#309,#316),.PCURVE_S1.);
#304 = ELLIPSE('',#305,5.453391020276E-02,5.453388664203E-02);
#305 = AXIS2_PLACEMENT_3D('',#306,#307,#308);
#306 = CARTESIAN_POINT('',(-0.504270824093,-0.340073209898,
    5.837444201851E-06));
#307 = DIRECTION('',(-0.,0.,-1.));
#308 = DIRECTION('',(-0.560913614628,-0.827874336433,0.));
#309 = PCURVE('',#72,#310);
#310 = DEFINITIONAL_REPRESENTATION('',(#311),#315);
#311 = ELLIPSE('',#312,5.453391020276E-02,5.453388664203E-02);
#312 = AXIS2_PLACEMENT_2D('',#313,#314);
#313 = CARTESIAN_POINT('',(0.418813384216,-0.450813843776));
#314 = DIRECTION('',(0.560913614628,-0.827874336433));
#315 = ( GEOMETRIC_REPRESENTATION_CONTEXT(2) 
PARAMETRIC_REPRESENTATION_CONTEXT() REPRESENTATION_CONTEXT('2D SPACE',''
  ) );
#316 = PCURVE('',#317,#322);
#317 = CYLINDRICAL_SURFACE('',#318,5.453388664203E-02);
#318 = AXIS2_PLACEMENT_3D('',#319,#320,#321);
#319 = CARTESIAN_POINT('',(-0.50419226461,-0.339957260885,0.150675713437
    ));
#320 = DIRECTION('',(-5.214011685094E-04,-7.695563722085E-04,
    -0.999999567962));
#321 = DIRECTION('',(-1.058791184068E-22,-0.999999703891,
    7.69556476814E-04));
#322 = DEFINITIONAL_REPRESENTATION('',(#323),#331);
#323 = B_SPLINE_CURVE_WITH_KNOTS('',6,(#324,#325,#326,#327,#328,#329,
    #330),.UNSPECIFIED.,.F.,.F.,(7,7),(5.687696553047,11.970881860227),
  .PIECEWISE_BEZIER_KNOTS.);
#324 = CARTESIAN_POINT('',(-1.7763568394E-15,0.150711908012));
#325 = CARTESIAN_POINT('',(1.047197551197,0.150741684065));
#326 = CARTESIAN_POINT('',(2.094395102394,0.150727813328));
#327 = CARTESIAN_POINT('',(3.141592653589,0.150521369639));
#328 = CARTESIAN_POINT('',(4.188790204787,0.15059278363));
#329 = CARTESIAN_POINT('',(5.235987755983,0.150682131959));
#330 = CARTESIAN_POINT('',(6.28318530718,0.150711908012));
#331 = ( GEOMETRIC_REPRESENTATION_CONTEXT(2) 
PARAMETRIC_REPRESENTATION_CONTEXT() REPRESENTATION_CONTEXT('2D SPACE',''
  ) );
#332 = FACE_BOUND('',#333,.T.);
#333 = EDGE_LOOP('',(#334));
#334 = ORIENTED_EDGE('',*,*,#335,.F.);
#335 = EDGE_CURVE('',#336,#336,#338,.T.);
#336 = VERTEX_POINT('',#337);
#337 = CARTESIAN_POINT('',(0.383102934881,0.492645802683,
    5.837444201851E-06));
#338 = SURFACE_CURVE('',#339,(#344,#351),.PCURVE_S1.);
#339 = ELLIPSE('',#340,5.460384233469E-02,5.460379863488E-02);
#340 = AXIS2_PLACEMENT_3D('',#341,#342,#343);
#341 = CARTESIAN_POINT('',(0.383102961726,0.547249640409,
    5.837444201851E-06));
#342 = DIRECTION('',(-0.,0.,-1.));
#343 = DIRECTION('',(-0.32475469556,-0.945798280666,0.));
#344 = PCURVE('',#72,#345);
#345 = DEFINITIONAL_REPRESENTATION('',(#346),#350);
#346 = ELLIPSE('',#347,5.460384233469E-02,5.460379863488E-02);
#347 = AXIS2_PLACEMENT_2D('',#348,#349);
#348 = CARTESIAN_POINT('',(-0.468560401603,0.436509006531));
#349 = DIRECTION('',(0.32475469556,-0.945798280666));
#350 = ( GEOMETRIC_REPRESENTATION_CONTEXT(2) 
PARAMETRIC_REPRESENTATION_CONTEXT() REPRESENTATION_CONTEXT('2D SPACE',''
  ) );
#351 = PCURVE('',#352,#357);
#352 = CYLINDRICAL_SURFACE('',#353,5.460379863488E-02);
#353 = AXIS2_PLACEMENT_3D('',#354,#355,#356);
#354 = CARTESIAN_POINT('',(0.383164874169,0.547429950912,0.150693977249)
  );
#355 = DIRECTION('',(-4.108644102459E-04,-1.196579627978E-03,
    -0.999999199693));
#356 = DIRECTION('',(0.,-0.999999284098,1.196579728975E-03));
#357 = DEFINITIONAL_REPRESENTATION('',(#358),#366);
#358 = B_SPLINE_CURVE_WITH_KNOTS('',6,(#359,#360,#361,#362,#363,#364,
    #365),.UNSPECIFIED.,.F.,.F.,(7,7),(5.952433198783,12.235618505962),
  .PIECEWISE_BEZIER_KNOTS.);
#359 = CARTESIAN_POINT('',(-8.881784197001E-16,0.150753598252));
#360 = CARTESIAN_POINT('',(1.047197551197,0.150777091877));
#361 = CARTESIAN_POINT('',(2.094395102393,0.150726517867));
#362 = CARTESIAN_POINT('',(3.141592653589,0.150456951116));
#363 = CARTESIAN_POINT('',(4.188790204787,0.150619977987));
#364 = CARTESIAN_POINT('',(5.235987755983,0.150730104627));
#365 = CARTESIAN_POINT('',(6.28318530718,0.150753598252));
#366 = ( GEOMETRIC_REPRESENTATION_CONTEXT(2) 
PARAMETRIC_REPRESENTATION_CONTEXT() REPRESENTATION_CONTEXT('2D SPACE',''
  ) );
#367 = FACE_BOUND('',#368,.T.);
#368 = EDGE_LOOP('',(#369));
#369 = ORIENTED_EDGE('',*,*,#370,.F.);
#370 = EDGE_CURVE('',#371,#371,#373,.T.);
#371 = VERTEX_POINT('',#372);
#372 = CARTESIAN_POINT('',(-8.545739683698E-02,0.43804850877,
    5.837444201851E-06));
#373 = SURFACE_CURVE('',#374,(#379,#386),.PCURVE_S1.);
#374 = ELLIPSE('',#375,0.327307895953,0.327307852903);
#375 = AXIS2_PLACEMENT_3D('',#376,#377,#378);
#376 = CARTESIAN_POINT('',(-8.545743987737E-02,0.110740633878,
    5.837444201851E-06));
#377 = DIRECTION('',(-0.,0.,-1.));
#378 = DIRECTION('',(-0.699436306807,-0.714694936823,0.));
#379 = PCURVE('',#72,#380);
#380 = DEFINITIONAL_REPRESENTATION('',(#381),#385);
#381 = ELLIPSE('',#382,0.327307895953,0.327307852903);
#382 = AXIS2_PLACEMENT_2D('',#383,#384);
#383 = CARTESIAN_POINT('',(-1.387778780781E-17,-1.387778780781E-17));
#384 = DIRECTION('',(0.699436306807,-0.714694936823));
#385 = ( GEOMETRIC_REPRESENTATION_CONTEXT(2) 
PARAMETRIC_REPRESENTATION_CONTEXT() REPRESENTATION_CONTEXT('2D SPACE',''
  ) );
#386 = PCURVE('',#387,#392);
#387 = CYLINDRICAL_SURFACE('',#388,0.327307852903);
#388 = AXIS2_PLACEMENT_3D('',#389,#390,#391);
#389 = CARTESIAN_POINT('',(-8.544523979388E-02,0.110753100114,
    -3.400279421311E-02));
#390 = DIRECTION('',(-3.587348649369E-04,-3.665608850117E-04,
    0.999999868471));
#391 = DIRECTION('',(0.,0.999999932817,3.665609085982E-04));
#392 = DEFINITIONAL_REPRESENTATION('',(#393),#403);
#393 = B_SPLINE_CURVE_WITH_KNOTS('',8,(#394,#395,#396,#397,#398,#399,
    #400,#401,#402),.UNSPECIFIED.,.F.,.F.,(9,9),(2.366984246048,
    8.650169553228),.PIECEWISE_BEZIER_KNOTS.);
#394 = CARTESIAN_POINT('',(6.28318530718,3.388865785069E-02));
#395 = CARTESIAN_POINT('',(5.497787143782,3.379643895406E-02));
#396 = CARTESIAN_POINT('',(4.712388980388,3.379052147742E-02));
#397 = CARTESIAN_POINT('',(3.926990816986,3.394154102331E-02));
#398 = CARTESIAN_POINT('',(3.141592653606,3.429648753396E-02));
#399 = CARTESIAN_POINT('',(2.356194490197,3.433797021908E-02));
#400 = CARTESIAN_POINT('',(1.570796326798,3.415657365404E-02));
#401 = CARTESIAN_POINT('',(0.785398163397,3.398087674732E-02));
#402 = CARTESIAN_POINT('',(8.881784197001E-16,3.388865785069E-02));
#403 = ( GEOMETRIC_REPRESENTATION_CONTEXT(2) 
PARAMETRIC_REPRESENTATION_CONTEXT() REPRESENTATION_CONTEXT('2D SPACE',''
  ) );
#404 = FACE_BOUND('',#405,.T.);
#405 = EDGE_LOOP('',(#406));
#406 = ORIENTED_EDGE('',*,*,#407,.F.);
#407 = EDGE_CURVE('',#408,#408,#410,.T.);
#408 = VERTEX_POINT('',#409);
#409 = CARTESIAN_POINT('',(-0.504296360063,0.601923783894,
    5.837444201851E-06));
#410 = SURFACE_CURVE('',#411,(#416,#423),.PCURVE_S1.);
#411 = ELLIPSE('',#412,5.467998890949E-02,5.467996070002E-02);
#412 = AXIS2_PLACEMENT_3D('',#413,#414,#415);
#413 = CARTESIAN_POINT('',(-0.50429638826,0.547243808679,
    5.837444201851E-06));
#414 = DIRECTION('',(0.,-0.,-1.));
#415 = DIRECTION('',(0.696738002564,0.717325697144,-0.));
#416 = PCURVE('',#72,#417);
#417 = DEFINITIONAL_REPRESENTATION('',(#418),#422);
#418 = ELLIPSE('',#419,5.467998890949E-02,5.467996070002E-02);
#419 = AXIS2_PLACEMENT_2D('',#420,#421);
#420 = CARTESIAN_POINT('',(0.418838948383,0.436503174801));
#421 = DIRECTION('',(-0.696738002564,0.717325697144));
#422 = ( GEOMETRIC_REPRESENTATION_CONTEXT(2) 
PARAMETRIC_REPRESENTATION_CONTEXT() REPRESENTATION_CONTEXT('2D SPACE',''
  ) );
#423 = PCURVE('',#424,#429);
#424 = CYLINDRICAL_SURFACE('',#425,5.467996070002E-02);
#425 = AXIS2_PLACEMENT_3D('',#426,#427,#428);
#426 = CARTESIAN_POINT('',(-0.504303508875,0.547236477659,
    -1.005535764732E-02));
#427 = DIRECTION('',(7.077301575937E-04,7.286426559438E-04,
    0.999999484099));
#428 = DIRECTION('',(-1.058791184068E-22,0.99999973454,
    -7.286428384259E-04));
#429 = DEFINITIONAL_REPRESENTATION('',(#430),#438);
#430 = B_SPLINE_CURVE_WITH_KNOTS('',6,(#431,#432,#433,#434,#435,#436,
    #437),.UNSPECIFIED.,.F.,.F.,(7,7),(5.512345614312,11.795530921492),
  .PIECEWISE_BEZIER_KNOTS.);
#431 = CARTESIAN_POINT('',(6.28318530718,1.010104246443E-02));
#432 = CARTESIAN_POINT('',(5.235987755983,1.014156761364E-02));
#433 = CARTESIAN_POINT('',(4.188790204786,1.014393344413E-02));
#434 = CARTESIAN_POINT('',(3.14159265359,9.920150850416E-03));
#435 = CARTESIAN_POINT('',(2.094395102393,9.960158292151E-03));
#436 = CARTESIAN_POINT('',(1.047197551197,1.006051731523E-02));
#437 = CARTESIAN_POINT('',(3.46389583683E-14,1.010104246443E-02));
#438 = ( GEOMETRIC_REPRESENTATION_CONTEXT(2) 
PARAMETRIC_REPRESENTATION_CONTEXT() REPRESENTATION_CONTEXT('2D SPACE',''
  ) );
#439 = ADVANCED_FACE('',(#440),#100,.F.);
#440 = FACE_BOUND('',#441,.F.);
#441 = EDGE_LOOP('',(#442,#443,#444,#467));
#442 = ORIENTED_EDGE('',*,*,#84,.T.);
#443 = ORIENTED_EDGE('',*,*,#218,.T.);
#444 = ORIENTED_EDGE('',*,*,#445,.F.);
#445 = EDGE_CURVE('',#446,#219,#448,.T.);
#446 = VERTEX_POINT('',#447);
#447 = CARTESIAN_POINT('',(-0.733945386968,0.643090586254,0.140630818948
    ));
#448 = SURFACE_CURVE('',#449,(#453,#460),.PCURVE_S1.);
#449 = LINE('',#450,#451);
#450 = CARTESIAN_POINT('',(-0.733945386968,0.643090586254,0.140630818948
    ));
#451 = VECTOR('',#452,1.);
#452 = DIRECTION('',(3.587348649369E-04,3.665608850117E-04,
    -0.999999868471));
#453 = PCURVE('',#100,#454);
#454 = DEFINITIONAL_REPRESENTATION('',(#455),#459);
#455 = LINE('',#456,#457);
#456 = CARTESIAN_POINT('',(1.064803,0.));
#457 = VECTOR('',#458,1.);
#458 = DIRECTION('',(3.665608850117E-04,-0.999999932817));
#459 = ( GEOMETRIC_REPRESENTATION_CONTEXT(2) 
PARAMETRIC_REPRESENTATION_CONTEXT() REPRESENTATION_CONTEXT('2D SPACE',''
  ) );
#460 = PCURVE('',#159,#461);
#461 = DEFINITIONAL_REPRESENTATION('',(#462),#466);
#462 = LINE('',#463,#464);
#463 = CARTESIAN_POINT('',(0.,0.));
#464 = VECTOR('',#465,1.);
#465 = DIRECTION('',(3.587348649369E-04,-0.999999935655));
#466 = ( GEOMETRIC_REPRESENTATION_CONTEXT(2) 
PARAMETRIC_REPRESENTATION_CONTEXT() REPRESENTATION_CONTEXT('2D SPACE',''
  ) );
#467 = ORIENTED_EDGE('',*,*,#468,.F.);
#468 = EDGE_CURVE('',#85,#446,#469,.T.);
#469 = SURFACE_CURVE('',#470,(#474,#481),.PCURVE_S1.);
#470 = LINE('',#471,#472);
#471 = CARTESIAN_POINT('',(-0.733945386968,-0.421712413746,
    0.140630818948));
#472 = VECTOR('',#473,1.);
#473 = DIRECTION('',(0.,1.,0.));
#474 = PCURVE('',#100,#475);
#475 = DEFINITIONAL_REPRESENTATION('',(#476),#480);
#476 = LINE('',#477,#478);
#477 = CARTESIAN_POINT('',(0.,0.));
#478 = VECTOR('',#479,1.);
#479 = DIRECTION('',(1.,0.));
#480 = ( GEOMETRIC_REPRESENTATION_CONTEXT(2) 
PARAMETRIC_REPRESENTATION_CONTEXT() REPRESENTATION_CONTEXT('2D SPACE',''
  ) );
#481 = PCURVE('',#126,#482);
#482 = DEFINITIONAL_REPRESENTATION('',(#483),#487);
#483 = LINE('',#484,#485);
#484 = CARTESIAN_POINT('',(0.6484375,-0.5324015));
#485 = VECTOR('',#486,1.);
#486 = DIRECTION('',(0.,1.));
#487 = ( GEOMETRIC_REPRESENTATION_CONTEXT(2) 
PARAMETRIC_REPRESENTATION_CONTEXT() REPRESENTATION_CONTEXT('2D SPACE',''
  ) );
#488 = ADVANCED_FACE('',(#489,#515,#545,#575,#605,#637),#126,.F.);
#489 = FACE_BOUND('',#490,.F.);
#490 = EDGE_LOOP('',(#491,#492,#493,#514));
#491 = ORIENTED_EDGE('',*,*,#112,.T.);
#492 = ORIENTED_EDGE('',*,*,#468,.T.);
#493 = ORIENTED_EDGE('',*,*,#494,.T.);
#494 = EDGE_CURVE('',#446,#142,#495,.T.);
#495 = SURFACE_CURVE('',#496,(#500,#507),.PCURVE_S1.);
#496 = LINE('',#497,#498);
#497 = CARTESIAN_POINT('',(-0.733945386968,0.643090586254,0.140630818948
    ));
#498 = VECTOR('',#499,1.);
#499 = DIRECTION('',(1.,0.,0.));
#500 = PCURVE('',#126,#501);
#501 = DEFINITIONAL_REPRESENTATION('',(#502),#506);
#502 = LINE('',#503,#504);
#503 = CARTESIAN_POINT('',(0.6484375,0.5324015));
#504 = VECTOR('',#505,1.);
#505 = DIRECTION('',(-1.,0.));
#506 = ( GEOMETRIC_REPRESENTATION_CONTEXT(2) 
PARAMETRIC_REPRESENTATION_CONTEXT() REPRESENTATION_CONTEXT('2D SPACE',''
  ) );
#507 = PCURVE('',#159,#508);
#508 = DEFINITIONAL_REPRESENTATION('',(#509),#513);
#509 = LINE('',#510,#511);
#510 = CARTESIAN_POINT('',(0.,0.));
#511 = VECTOR('',#512,1.);
#512 = DIRECTION('',(1.,0.));
#513 = ( GEOMETRIC_REPRESENTATION_CONTEXT(2) 
PARAMETRIC_REPRESENTATION_CONTEXT() REPRESENTATION_CONTEXT('2D SPACE',''
  ) );
#514 = ORIENTED_EDGE('',*,*,#193,.T.);
#515 = FACE_BOUND('',#516,.F.);
#516 = EDGE_LOOP('',(#517));
#517 = ORIENTED_EDGE('',*,*,#518,.F.);
#518 = EDGE_CURVE('',#519,#519,#521,.T.);
#519 = VERTEX_POINT('',#520);
#520 = CARTESIAN_POINT('',(0.328566207318,-0.340067642862,0.140630818948
    ));
#521 = SURFACE_CURVE('',#522,(#527,#534),.PCURVE_S1.);
#522 = ELLIPSE('',#523,5.458832015081E-02,5.458828162291E-02);
#523 = AXIS2_PLACEMENT_3D('',#524,#525,#526);
#524 = CARTESIAN_POINT('',(0.383154513529,-0.340067679889,0.140630818948
    ));
#525 = DIRECTION('',(-0.,0.,-1.));
#526 = DIRECTION('',(-0.798865789031,0.601509310914,0.));
#527 = PCURVE('',#126,#528);
#528 = DEFINITIONAL_REPRESENTATION('',(#529),#533);
#529 = ELLIPSE('',#530,5.458832015081E-02,5.458828162291E-02);
#530 = AXIS2_PLACEMENT_2D('',#531,#532);
#531 = CARTESIAN_POINT('',(-0.468662400497,-0.450756766143));
#532 = DIRECTION('',(0.798865789031,0.601509310914));
#533 = ( GEOMETRIC_REPRESENTATION_CONTEXT(2) 
PARAMETRIC_REPRESENTATION_CONTEXT() REPRESENTATION_CONTEXT('2D SPACE',''
  ) );
#534 = PCURVE('',#282,#535);
#535 = DEFINITIONAL_REPRESENTATION('',(#536),#544);
#536 = B_SPLINE_CURVE_WITH_KNOTS('',6,(#537,#538,#539,#540,#541,#542,
    #543),.UNSPECIFIED.,.F.,.F.,(7,7),(5.637796561102,11.920981868282),
  .PIECEWISE_BEZIER_KNOTS.);
#537 = CARTESIAN_POINT('',(0.,1.011071315381E-02));
#538 = CARTESIAN_POINT('',(1.047197551197,1.015156608366E-02));
#539 = CARTESIAN_POINT('',(2.094395102393,1.013962785044E-02));
#540 = CARTESIAN_POINT('',(3.14159265359,9.87547829395E-03));
#541 = CARTESIAN_POINT('',(4.188790204786,9.95436626498E-03));
#542 = CARTESIAN_POINT('',(5.235987755983,1.006986022395E-02));
#543 = CARTESIAN_POINT('',(6.28318530718,1.011071315381E-02));
#544 = ( GEOMETRIC_REPRESENTATION_CONTEXT(2) 
PARAMETRIC_REPRESENTATION_CONTEXT() REPRESENTATION_CONTEXT('2D SPACE',''
  ) );
#545 = FACE_BOUND('',#546,.F.);
#546 = EDGE_LOOP('',(#547));
#547 = ORIENTED_EDGE('',*,*,#548,.F.);
#548 = EDGE_CURVE('',#549,#549,#551,.T.);
#549 = VERTEX_POINT('',#550);
#550 = CARTESIAN_POINT('',(-0.504197523914,-0.394498893791,
    0.140630818948));
#551 = SURFACE_CURVE('',#552,(#557,#564),.PCURVE_S1.);
#552 = ELLIPSE('',#553,5.453391020276E-02,5.453388664203E-02);
#553 = AXIS2_PLACEMENT_3D('',#554,#555,#556);
#554 = CARTESIAN_POINT('',(-0.504197502032,-0.339964991001,
    0.140630818948));
#555 = DIRECTION('',(-0.,0.,-1.));
#556 = DIRECTION('',(-0.560913614628,-0.827874336433,0.));
#557 = PCURVE('',#126,#558);
#558 = DEFINITIONAL_REPRESENTATION('',(#559),#563);
#559 = ELLIPSE('',#560,5.453391020276E-02,5.453388664203E-02);
#560 = AXIS2_PLACEMENT_2D('',#561,#562);
#561 = CARTESIAN_POINT('',(0.418689615064,-0.450654077254));
#562 = DIRECTION('',(0.560913614628,-0.827874336433));
#563 = ( GEOMETRIC_REPRESENTATION_CONTEXT(2) 
PARAMETRIC_REPRESENTATION_CONTEXT() REPRESENTATION_CONTEXT('2D SPACE',''
  ) );
#564 = PCURVE('',#317,#565);
#565 = DEFINITIONAL_REPRESENTATION('',(#566),#574);
#566 = B_SPLINE_CURVE_WITH_KNOTS('',6,(#567,#568,#569,#570,#571,#572,
    #573),.UNSPECIFIED.,.F.,.F.,(7,7),(5.687696553047,11.970881860227),
  .PIECEWISE_BEZIER_KNOTS.);
#567 = CARTESIAN_POINT('',(0.,1.008686575274E-02));
#568 = CARTESIAN_POINT('',(1.047197551197,1.01166418057E-02));
#569 = CARTESIAN_POINT('',(2.094395102393,1.010277106873E-02));
#570 = CARTESIAN_POINT('',(3.141592653589,9.89632738011E-03));
#571 = CARTESIAN_POINT('',(4.188790204787,9.967741370761E-03));
#572 = CARTESIAN_POINT('',(5.235987755983,1.005708969978E-02));
#573 = CARTESIAN_POINT('',(6.28318530718,1.008686575274E-02));
#574 = ( GEOMETRIC_REPRESENTATION_CONTEXT(2) 
PARAMETRIC_REPRESENTATION_CONTEXT() REPRESENTATION_CONTEXT('2D SPACE',''
  ) );
#575 = FACE_BOUND('',#576,.F.);
#576 = EDGE_LOOP('',(#577));
#577 = ORIENTED_EDGE('',*,*,#578,.F.);
#578 = EDGE_CURVE('',#579,#579,#581,.T.);
#579 = VERTEX_POINT('',#580);
#580 = CARTESIAN_POINT('',(0.383160712727,0.492814071806,0.140630818948)
  );
#581 = SURFACE_CURVE('',#582,(#587,#594),.PCURVE_S1.);
#582 = ELLIPSE('',#583,5.460384233469E-02,5.460379863488E-02);
#583 = AXIS2_PLACEMENT_3D('',#584,#585,#586);
#584 = CARTESIAN_POINT('',(0.383160739572,0.547417909532,0.140630818948)
  );
#585 = DIRECTION('',(-0.,0.,-1.));
#586 = DIRECTION('',(-0.32475469556,-0.945798280666,0.));
#587 = PCURVE('',#126,#588);
#588 = DEFINITIONAL_REPRESENTATION('',(#589),#593);
#589 = ELLIPSE('',#590,5.460384233469E-02,5.460379863488E-02);
#590 = AXIS2_PLACEMENT_2D('',#591,#592);
#591 = CARTESIAN_POINT('',(-0.46866862654,0.436728823278));
#592 = DIRECTION('',(0.32475469556,-0.945798280666));
#593 = ( GEOMETRIC_REPRESENTATION_CONTEXT(2) 
PARAMETRIC_REPRESENTATION_CONTEXT() REPRESENTATION_CONTEXT('2D SPACE',''
  ) );
#594 = PCURVE('',#352,#595);
#595 = DEFINITIONAL_REPRESENTATION('',(#596),#604);
#596 = B_SPLINE_CURVE_WITH_KNOTS('',6,(#597,#598,#599,#600,#601,#602,
    #603),.UNSPECIFIED.,.F.,.F.,(7,7),(5.952433198783,12.235618505962),
  .PIECEWISE_BEZIER_KNOTS.);
#597 = CARTESIAN_POINT('',(-8.881784197001E-16,1.01285042054E-02));
#598 = CARTESIAN_POINT('',(1.047197551197,1.015199783052E-02));
#599 = CARTESIAN_POINT('',(2.094395102393,1.010142382026E-02));
#600 = CARTESIAN_POINT('',(3.141592653589,9.831857068887E-03));
#601 = CARTESIAN_POINT('',(4.188790204787,9.994883940404E-03));
#602 = CARTESIAN_POINT('',(5.235987755983,1.010501058028E-02));
#603 = CARTESIAN_POINT('',(6.28318530718,1.01285042054E-02));
#604 = ( GEOMETRIC_REPRESENTATION_CONTEXT(2) 
PARAMETRIC_REPRESENTATION_CONTEXT() REPRESENTATION_CONTEXT('2D SPACE',''
  ) );
#605 = FACE_BOUND('',#606,.F.);
#606 = EDGE_LOOP('',(#607));
#607 = ORIENTED_EDGE('',*,*,#608,.F.);
#608 = EDGE_CURVE('',#609,#609,#611,.T.);
#609 = VERTEX_POINT('',#610);
#610 = CARTESIAN_POINT('',(-8.550784392736E-02,0.437996961146,
    0.140630818948));
#611 = SURFACE_CURVE('',#612,(#617,#624),.PCURVE_S1.);
#612 = ELLIPSE('',#613,0.327307895953,0.327307852903);
#613 = AXIS2_PLACEMENT_3D('',#614,#615,#616);
#614 = CARTESIAN_POINT('',(-8.550788696775E-02,0.110689086254,
    0.140630818948));
#615 = DIRECTION('',(-0.,0.,-1.));
#616 = DIRECTION('',(-0.699436306807,-0.714694936823,0.));
#617 = PCURVE('',#126,#618);
#618 = DEFINITIONAL_REPRESENTATION('',(#619),#623);
#619 = ELLIPSE('',#620,0.327307895953,0.327307852903);
#620 = AXIS2_PLACEMENT_2D('',#621,#622);
#621 = CARTESIAN_POINT('',(0.,-1.387778780781E-17));
#622 = DIRECTION('',(0.699436306807,-0.714694936823));
#623 = ( GEOMETRIC_REPRESENTATION_CONTEXT(2) 
PARAMETRIC_REPRESENTATION_CONTEXT() REPRESENTATION_CONTEXT('2D SPACE',''
  ) );
#624 = PCURVE('',#387,#625);
#625 = DEFINITIONAL_REPRESENTATION('',(#626),#636);
#626 = B_SPLINE_CURVE_WITH_KNOTS('',8,(#627,#628,#629,#630,#631,#632,
    #633,#634,#635),.UNSPECIFIED.,.F.,.F.,(9,9),(2.366984246048,
    8.650169553228),.PIECEWISE_BEZIER_KNOTS.);
#627 = CARTESIAN_POINT('',(6.28318530718,0.174513657851));
#628 = CARTESIAN_POINT('',(5.497787143782,0.174421438954));
#629 = CARTESIAN_POINT('',(4.712388980388,0.174415521477));
#630 = CARTESIAN_POINT('',(3.926990816978,0.174566541023));
#631 = CARTESIAN_POINT('',(3.141592653613,0.174921487534));
#632 = CARTESIAN_POINT('',(2.35619449019,0.174962970219));
#633 = CARTESIAN_POINT('',(1.5707963268,0.174781573654));
#634 = CARTESIAN_POINT('',(0.785398163397,0.174605876747));
#635 = CARTESIAN_POINT('',(8.881784197001E-16,0.174513657851));
#636 = ( GEOMETRIC_REPRESENTATION_CONTEXT(2) 
PARAMETRIC_REPRESENTATION_CONTEXT() REPRESENTATION_CONTEXT('2D SPACE',''
  ) );
#637 = FACE_BOUND('',#638,.F.);
#638 = EDGE_LOOP('',(#639));
#639 = ORIENTED_EDGE('',*,*,#640,.F.);
#640 = EDGE_CURVE('',#641,#641,#643,.T.);
#641 = VERTEX_POINT('',#642);
#642 = CARTESIAN_POINT('',(-0.504196835471,0.602026249307,0.140630818948
    ));
#643 = SURFACE_CURVE('',#644,(#649,#656),.PCURVE_S1.);
#644 = ELLIPSE('',#645,5.467998890949E-02,5.467996070002E-02);
#645 = AXIS2_PLACEMENT_3D('',#646,#647,#648);
#646 = CARTESIAN_POINT('',(-0.504196863669,0.547346274092,0.140630818948
    ));
#647 = DIRECTION('',(0.,-0.,-1.));
#648 = DIRECTION('',(0.696738002564,0.717325697144,-0.));
#649 = PCURVE('',#126,#650);
#650 = DEFINITIONAL_REPRESENTATION('',(#651),#655);
#651 = ELLIPSE('',#652,5.467998890949E-02,5.467996070002E-02);
#652 = AXIS2_PLACEMENT_2D('',#653,#654);
#653 = CARTESIAN_POINT('',(0.418688976701,0.436657187838));
#654 = DIRECTION('',(-0.696738002564,0.717325697144));
#655 = ( GEOMETRIC_REPRESENTATION_CONTEXT(2) 
PARAMETRIC_REPRESENTATION_CONTEXT() REPRESENTATION_CONTEXT('2D SPACE',''
  ) );
#656 = PCURVE('',#424,#657);
#657 = DEFINITIONAL_REPRESENTATION('',(#658),#666);
#658 = B_SPLINE_CURVE_WITH_KNOTS('',6,(#659,#660,#661,#662,#663,#664,
    #665),.UNSPECIFIED.,.F.,.F.,(7,7),(5.512345614312,11.795530921492),
  .PIECEWISE_BEZIER_KNOTS.);
#659 = CARTESIAN_POINT('',(6.28318530718,0.150726096517));
#660 = CARTESIAN_POINT('',(5.235987755983,0.150766621666));
#661 = CARTESIAN_POINT('',(4.188790204786,0.150768987497));
#662 = CARTESIAN_POINT('',(3.14159265359,0.150545204903));
#663 = CARTESIAN_POINT('',(2.094395102393,0.150585212345));
#664 = CARTESIAN_POINT('',(1.047197551197,0.150685571368));
#665 = CARTESIAN_POINT('',(3.28626015289E-14,0.150726096517));
#666 = ( GEOMETRIC_REPRESENTATION_CONTEXT(2) 
PARAMETRIC_REPRESENTATION_CONTEXT() REPRESENTATION_CONTEXT('2D SPACE',''
  ) );
#667 = ADVANCED_FACE('',(#668),#159,.F.);
#668 = FACE_BOUND('',#669,.F.);
#669 = EDGE_LOOP('',(#670,#671,#672,#673));
#670 = ORIENTED_EDGE('',*,*,#445,.T.);
#671 = ORIENTED_EDGE('',*,*,#241,.T.);
#672 = ORIENTED_EDGE('',*,*,#141,.F.);
#673 = ORIENTED_EDGE('',*,*,#494,.F.);
#674 = ADVANCED_FACE('',(#675),#282,.F.);
#675 = FACE_BOUND('',#676,.F.);
#676 = EDGE_LOOP('',(#677,#678,#699,#700));
#677 = ORIENTED_EDGE('',*,*,#265,.F.);
#678 = ORIENTED_EDGE('',*,*,#679,.F.);
#679 = EDGE_CURVE('',#519,#266,#680,.T.);
#680 = SEAM_CURVE('',#681,(#685,#692),.PCURVE_S1.);
#681 = LINE('',#682,#683);
#682 = CARTESIAN_POINT('',(0.328575803718,-0.340074868511,0.150741524966
    ));
#683 = VECTOR('',#684,1.);
#684 = DIRECTION('',(-9.491318011677E-04,7.146527283133E-04,
    -0.99999929421));
#685 = PCURVE('',#282,#686);
#686 = DEFINITIONAL_REPRESENTATION('',(#687),#691);
#687 = LINE('',#688,#689);
#688 = CARTESIAN_POINT('',(6.28318530718,-0.));
#689 = VECTOR('',#690,1.);
#690 = DIRECTION('',(0.,1.));
#691 = ( GEOMETRIC_REPRESENTATION_CONTEXT(2) 
PARAMETRIC_REPRESENTATION_CONTEXT() REPRESENTATION_CONTEXT('2D SPACE',''
  ) );
#692 = PCURVE('',#282,#693);
#693 = DEFINITIONAL_REPRESENTATION('',(#694),#698);
#694 = LINE('',#695,#696);
#695 = CARTESIAN_POINT('',(0.,-0.));
#696 = VECTOR('',#697,1.);
#697 = DIRECTION('',(0.,1.));
#698 = ( GEOMETRIC_REPRESENTATION_CONTEXT(2) 
PARAMETRIC_REPRESENTATION_CONTEXT() REPRESENTATION_CONTEXT('2D SPACE',''
  ) );
#699 = ORIENTED_EDGE('',*,*,#518,.T.);
#700 = ORIENTED_EDGE('',*,*,#679,.T.);
#701 = ADVANCED_FACE('',(#702),#317,.F.);
#702 = FACE_BOUND('',#703,.F.);
#703 = EDGE_LOOP('',(#704,#705,#726,#727));
#704 = ORIENTED_EDGE('',*,*,#300,.F.);
#705 = ORIENTED_EDGE('',*,*,#706,.F.);
#706 = EDGE_CURVE('',#549,#301,#707,.T.);
#707 = SEAM_CURVE('',#708,(#712,#719),.PCURVE_S1.);
#708 = LINE('',#709,#710);
#709 = CARTESIAN_POINT('',(-0.50419226461,-0.394491131379,0.150717680343
    ));
#710 = VECTOR('',#711,1.);
#711 = DIRECTION('',(-5.214011685094E-04,-7.695563722085E-04,
    -0.999999567962));
#712 = PCURVE('',#317,#713);
#713 = DEFINITIONAL_REPRESENTATION('',(#714),#718);
#714 = LINE('',#715,#716);
#715 = CARTESIAN_POINT('',(6.28318530718,-0.));
#716 = VECTOR('',#717,1.);
#717 = DIRECTION('',(0.,1.));
#718 = ( GEOMETRIC_REPRESENTATION_CONTEXT(2) 
PARAMETRIC_REPRESENTATION_CONTEXT() REPRESENTATION_CONTEXT('2D SPACE',''
  ) );
#719 = PCURVE('',#317,#720);
#720 = DEFINITIONAL_REPRESENTATION('',(#721),#725);
#721 = LINE('',#722,#723);
#722 = CARTESIAN_POINT('',(0.,-0.));
#723 = VECTOR('',#724,1.);
#724 = DIRECTION('',(0.,1.));
#725 = ( GEOMETRIC_REPRESENTATION_CONTEXT(2) 
PARAMETRIC_REPRESENTATION_CONTEXT() REPRESENTATION_CONTEXT('2D SPACE',''
  ) );
#726 = ORIENTED_EDGE('',*,*,#548,.T.);
#727 = ORIENTED_EDGE('',*,*,#706,.T.);
#728 = ADVANCED_FACE('',(#729),#352,.F.);
#729 = FACE_BOUND('',#730,.F.);
#730 = EDGE_LOOP('',(#731,#732,#753,#754));
#731 = ORIENTED_EDGE('',*,*,#335,.F.);
#732 = ORIENTED_EDGE('',*,*,#733,.F.);
#733 = EDGE_CURVE('',#579,#336,#734,.T.);
#734 = SEAM_CURVE('',#735,(#739,#746),.PCURVE_S1.);
#735 = LINE('',#736,#737);
#736 = CARTESIAN_POINT('',(0.383164874169,0.492826191368,0.150759315047)
  );
#737 = VECTOR('',#738,1.);
#738 = DIRECTION('',(-4.108644102459E-04,-1.196579627978E-03,
    -0.999999199693));
#739 = PCURVE('',#352,#740);
#740 = DEFINITIONAL_REPRESENTATION('',(#741),#745);
#741 = LINE('',#742,#743);
#742 = CARTESIAN_POINT('',(6.28318530718,-0.));
#743 = VECTOR('',#744,1.);
#744 = DIRECTION('',(0.,1.));
#745 = ( GEOMETRIC_REPRESENTATION_CONTEXT(2) 
PARAMETRIC_REPRESENTATION_CONTEXT() REPRESENTATION_CONTEXT('2D SPACE',''
  ) );
#746 = PCURVE('',#352,#747);
#747 = DEFINITIONAL_REPRESENTATION('',(#748),#752);
#748 = LINE('',#749,#750);
#749 = CARTESIAN_POINT('',(0.,-0.));
#750 = VECTOR('',#751,1.);
#751 = DIRECTION('',(0.,1.));
#752 = ( GEOMETRIC_REPRESENTATION_CONTEXT(2) 
PARAMETRIC_REPRESENTATION_CONTEXT() REPRESENTATION_CONTEXT('2D SPACE',''
  ) );
#753 = ORIENTED_EDGE('',*,*,#578,.T.);
#754 = ORIENTED_EDGE('',*,*,#733,.T.);
#755 = ADVANCED_FACE('',(#756),#387,.F.);
#756 = FACE_BOUND('',#757,.F.);
#757 = EDGE_LOOP('',(#758,#759,#780,#781));
#758 = ORIENTED_EDGE('',*,*,#608,.T.);
#759 = ORIENTED_EDGE('',*,*,#760,.F.);
#760 = EDGE_CURVE('',#371,#609,#761,.T.);
#761 = SEAM_CURVE('',#762,(#766,#773),.PCURVE_S1.);
#762 = LINE('',#763,#764);
#763 = CARTESIAN_POINT('',(-8.544523979388E-02,0.438060931027,
    -3.388281594916E-02));
#764 = VECTOR('',#765,1.);
#765 = DIRECTION('',(-3.587348649369E-04,-3.665608850117E-04,
    0.999999868471));
#766 = PCURVE('',#387,#767);
#767 = DEFINITIONAL_REPRESENTATION('',(#768),#772);
#768 = LINE('',#769,#770);
#769 = CARTESIAN_POINT('',(6.28318530718,-0.));
#770 = VECTOR('',#771,1.);
#771 = DIRECTION('',(0.,1.));
#772 = ( GEOMETRIC_REPRESENTATION_CONTEXT(2) 
PARAMETRIC_REPRESENTATION_CONTEXT() REPRESENTATION_CONTEXT('2D SPACE',''
  ) );
#773 = PCURVE('',#387,#774);
#774 = DEFINITIONAL_REPRESENTATION('',(#775),#779);
#775 = LINE('',#776,#777);
#776 = CARTESIAN_POINT('',(0.,-0.));
#777 = VECTOR('',#778,1.);
#778 = DIRECTION('',(0.,1.));
#779 = ( GEOMETRIC_REPRESENTATION_CONTEXT(2) 
PARAMETRIC_REPRESENTATION_CONTEXT() REPRESENTATION_CONTEXT('2D SPACE',''
  ) );
#780 = ORIENTED_EDGE('',*,*,#370,.F.);
#781 = ORIENTED_EDGE('',*,*,#760,.T.);
#782 = ADVANCED_FACE('',(#783),#424,.F.);
#783 = FACE_BOUND('',#784,.F.);
#784 = EDGE_LOOP('',(#785,#786,#807,#808));
#785 = ORIENTED_EDGE('',*,*,#640,.T.);
#786 = ORIENTED_EDGE('',*,*,#787,.F.);
#787 = EDGE_CURVE('',#408,#641,#788,.T.);
#788 = SEAM_CURVE('',#789,(#793,#800),.PCURVE_S1.);
#789 = LINE('',#790,#791);
#790 = CARTESIAN_POINT('',(-0.504303508875,0.601916423844,
    -1.009519980909E-02));
#791 = VECTOR('',#792,1.);
#792 = DIRECTION('',(7.077301575937E-04,7.286426559438E-04,
    0.999999484099));
#793 = PCURVE('',#424,#794);
#794 = DEFINITIONAL_REPRESENTATION('',(#795),#799);
#795 = LINE('',#796,#797);
#796 = CARTESIAN_POINT('',(6.28318530718,-0.));
#797 = VECTOR('',#798,1.);
#798 = DIRECTION('',(0.,1.));
#799 = ( GEOMETRIC_REPRESENTATION_CONTEXT(2) 
PARAMETRIC_REPRESENTATION_CONTEXT() REPRESENTATION_CONTEXT('2D SPACE',''
  ) );
#800 = PCURVE('',#424,#801);
#801 = DEFINITIONAL_REPRESENTATION('',(#802),#806);
#802 = LINE('',#803,#804);
#803 = CARTESIAN_POINT('',(0.,-0.));
#804 = VECTOR('',#805,1.);
#805 = DIRECTION('',(0.,1.));
#806 = ( GEOMETRIC_REPRESENTATION_CONTEXT(2) 
PARAMETRIC_REPRESENTATION_CONTEXT() REPRESENTATION_CONTEXT('2D SPACE',''
  ) );
#807 = ORIENTED_EDGE('',*,*,#407,.F.);
#808 = ORIENTED_EDGE('',*,*,#787,.T.);
#809 = ( GEOMETRIC_REPRESENTATION_CONTEXT(3) 
GLOBAL_UNCERTAINTY_ASSIGNED_CONTEXT((#813)) GLOBAL_UNIT_ASSIGNED_CONTEXT
((#810,#811,#812)) REPRESENTATION_CONTEXT('Context #1',
  '3D Context with UNIT and UNCERTAINTY') );
#810 = ( LENGTH_UNIT() NAMED_UNIT(*) SI_UNIT(.MILLI.,.METRE.) );
#811 = ( NAMED_UNIT(*) PLANE_ANGLE_UNIT() SI_UNIT($,.RADIAN.) );
#812 = ( NAMED_UNIT(*) SI_UNIT($,.STERADIAN.) SOLID_ANGLE_UNIT() );
#813 = UNCERTAINTY_MEASURE_WITH_UNIT(LENGTH_MEASURE(5.E-07),#810,
  'distance_accuracy_value','confusion accuracy');
#814 = PRODUCT_TYPE('part',$,(#7));
ENDSEC;
END-ISO-10303-21;
