ISO-10303-21;
HEADER;
FILE_DESCRIPTION(('Open CASCADE Model'),'2;1');
FILE_NAME('Open CASCADE Shape Model','2026-06-25T12:22:45',('Author'),(
    'Open CASCADE'),'Open CASCADE STEP processor 7.8','Open CASCADE 7.8'
  ,'Unknown');
FILE_SCHEMA(('CONFIG_CONTROL_DESIGN'));
ENDSEC;
DATA;
#1 = APPLICATION_PROTOCOL_DEFINITION('committee draft',
  'automotive_design',1997,#2);
#2 = APPLICATION_CONTEXT(
  'core data for automotive mechanical design processes');
#3 = SHAPE_DEFINITION_REPRESENTATION(#4,#10);
#4 = PRODUCT_DEFINITION_SHAPE('','',#5);
#5 = PRODUCT_DEFINITION('design','',#6,#9);
#6 = PRODUCT_DEFINITION_FORMATION('','',#7);
#7 = PRODUCT('Product 6','Product 6','',(#8));
#8 = MECHANICAL_CONTEXT('',#2,'mechanical');
#9 = PRODUCT_DEFINITION_CONTEXT('part definition',#2,'design');
#10 = ADVANCED_BREP_SHAPE_REPRESENTATION('',(#11,#15),#1084);
#11 = AXIS2_PLACEMENT_3D('',#12,#13,#14);
#12 = CARTESIAN_POINT('',(0.,0.,0.));
#13 = DIRECTION('',(0.,0.,1.));
#14 = DIRECTION('',(1.,0.,-0.));
#15 = MANIFOLD_SOLID_BREP('',#16);
#16 = CLOSED_SHELL('',(#17,#123,#178,#462,#515,#574,#647,#856,#1045,
    #1049,#1053,#1079));
#17 = ADVANCED_FACE('',(#18,#54,#89),#31,.F.);
#18 = FACE_BOUND('',#19,.F.);
#19 = EDGE_LOOP('',(#20));
#20 = ORIENTED_EDGE('',*,*,#21,.F.);
#21 = EDGE_CURVE('',#22,#22,#24,.T.);
#22 = VERTEX_POINT('',#23);
#23 = CARTESIAN_POINT('',(4.689997337839E-03,0.115158255719,
    0.453445255044));
#24 = SURFACE_CURVE('',#25,(#30,#42),.PCURVE_S1.);
#25 = CIRCLE('',#26,0.114473398405);
#26 = AXIS2_PLACEMENT_3D('',#27,#28,#29);
#27 = CARTESIAN_POINT('',(4.689997337839E-03,6.848589195935E-04,
    0.453426083474));
#28 = DIRECTION('',(1.517092109617E-04,-1.674762070584E-04,
    0.999999974468));
#29 = DIRECTION('',(0.,0.999999985976,1.674762089857E-04));
#30 = PCURVE('',#31,#36);
#31 = PLANE('',#32);
#32 = AXIS2_PLACEMENT_3D('',#33,#34,#35);
#33 = CARTESIAN_POINT('',(4.689997337839E-03,6.848589195935E-04,
    0.453426083474));
#34 = DIRECTION('',(1.517092109617E-04,-1.674762070584E-04,
    0.999999974468));
#35 = DIRECTION('',(0.,0.999999985976,1.674762089857E-04));
#36 = DEFINITIONAL_REPRESENTATION('',(#37),#41);
#37 = CIRCLE('',#38,0.114473398405);
#38 = AXIS2_PLACEMENT_2D('',#39,#40);
#39 = CARTESIAN_POINT('',(1.084202157281E-19,-8.673617307616E-19));
#40 = DIRECTION('',(1.,0.));
#41 = ( GEOMETRIC_REPRESENTATION_CONTEXT(2) 
PARAMETRIC_REPRESENTATION_CONTEXT() REPRESENTATION_CONTEXT('2D SPACE',''
  ) );
#42 = PCURVE('',#43,#48);
#43 = CYLINDRICAL_SURFACE('',#44,0.114473398405);
#44 = AXIS2_PLACEMENT_3D('',#45,#46,#47);
#45 = CARTESIAN_POINT('',(4.61519057742E-03,7.67440276505E-04,
    -3.966697286917E-02));
#46 = DIRECTION('',(1.517092109617E-04,-1.674762070584E-04,
    0.999999974468));
#47 = DIRECTION('',(0.,0.999999985976,1.674762089857E-04));
#48 = DEFINITIONAL_REPRESENTATION('',(#49),#53);
#49 = LINE('',#50,#51);
#50 = CARTESIAN_POINT('',(0.,0.493093068932));
#51 = VECTOR('',#52,1.);
#52 = DIRECTION('',(1.,0.));
#53 = ( GEOMETRIC_REPRESENTATION_CONTEXT(2) 
PARAMETRIC_REPRESENTATION_CONTEXT() REPRESENTATION_CONTEXT('2D SPACE',''
  ) );
#54 = FACE_BOUND('',#55,.F.);
#55 = EDGE_LOOP('',(#56));
#56 = ORIENTED_EDGE('',*,*,#57,.F.);
#57 = EDGE_CURVE('',#58,#58,#60,.T.);
#58 = VERTEX_POINT('',#59);
#59 = CARTESIAN_POINT('',(4.689997337839E-03,0.608304148181,
    0.45352784525));
#60 = SURFACE_CURVE('',#61,(#66,#77),.PCURVE_S1.);
#61 = CIRCLE('',#62,0.607619297783);
#62 = AXIS2_PLACEMENT_3D('',#63,#64,#65);
#63 = CARTESIAN_POINT('',(4.689997337838E-03,6.848589195934E-04,
    0.453426083474));
#64 = DIRECTION('',(-1.517092109617E-04,1.674762070584E-04,
    -0.999999974468));
#65 = DIRECTION('',(4.068360159243E-16,0.999999985976,1.674762089857E-04
    ));
#66 = PCURVE('',#31,#67);
#67 = DEFINITIONAL_REPRESENTATION('',(#68),#76);
#68 = ( BOUNDED_CURVE() B_SPLINE_CURVE(2,(#69,#70,#71,#72,#73,#74,#75),
.UNSPECIFIED.,.T.,.F.) B_SPLINE_CURVE_WITH_KNOTS((1,2,2,2,2,1),(
    -2.094395102393,0.,2.094395102393,4.188790204786,6.28318530718,
8.377580409573),.UNSPECIFIED.) CURVE() GEOMETRIC_REPRESENTATION_ITEM() 
RATIONAL_B_SPLINE_CURVE((1.,0.5,1.,0.5,1.,0.5,1.)) REPRESENTATION_ITEM(
  '') );
#69 = CARTESIAN_POINT('',(0.607619297783,-1.491896117718E-16));
#70 = CARTESIAN_POINT('',(0.607619297783,-1.052427495419));
#71 = CARTESIAN_POINT('',(-0.303809648891,-0.526213747709));
#72 = CARTESIAN_POINT('',(-1.215238595565,4.435910486871E-16));
#73 = CARTESIAN_POINT('',(-0.303809648891,0.526213747709));
#74 = CARTESIAN_POINT('',(0.607619297783,1.052427495419));
#75 = CARTESIAN_POINT('',(0.607619297783,-1.491896117718E-16));
#76 = ( GEOMETRIC_REPRESENTATION_CONTEXT(2) 
PARAMETRIC_REPRESENTATION_CONTEXT() REPRESENTATION_CONTEXT('2D SPACE',''
  ) );
#77 = PCURVE('',#78,#83);
#78 = CYLINDRICAL_SURFACE('',#79,0.607619297783);
#79 = AXIS2_PLACEMENT_3D('',#80,#81,#82);
#80 = CARTESIAN_POINT('',(4.611323109538E-03,7.717096866988E-04,
    -6.515960946359E-02));
#81 = DIRECTION('',(1.517092109617E-04,-1.674762070584E-04,
    0.999999974468));
#82 = DIRECTION('',(0.,0.999999985976,1.674762089857E-04));
#83 = DEFINITIONAL_REPRESENTATION('',(#84),#88);
#84 = LINE('',#85,#86);
#85 = CARTESIAN_POINT('',(6.28318530718,0.518585706178));
#86 = VECTOR('',#87,1.);
#87 = DIRECTION('',(-1.,-0.));
#88 = ( GEOMETRIC_REPRESENTATION_CONTEXT(2) 
PARAMETRIC_REPRESENTATION_CONTEXT() REPRESENTATION_CONTEXT('2D SPACE',''
  ) );
#89 = FACE_BOUND('',#90,.F.);
#90 = EDGE_LOOP('',(#91));
#91 = ORIENTED_EDGE('',*,*,#92,.F.);
#92 = EDGE_CURVE('',#93,#93,#95,.T.);
#93 = VERTEX_POINT('',#94);
#94 = CARTESIAN_POINT('',(0.373410519516,2.505619380213E-02,
    0.453374226791));
#95 = SURFACE_CURVE('',#96,(#101,#108),.PCURVE_S1.);
#96 = ELLIPSE('',#97,2.525117221601E-02,2.52511424181E-02);
#97 = AXIS2_PLACEMENT_3D('',#98,#99,#100);
#98 = CARTESIAN_POINT('',(0.373410486534,-1.949679819925E-04,
    0.453369997828));
#99 = DIRECTION('',(1.517092109617E-04,-1.674762070584E-04,
    0.999999974468));
#100 = DIRECTION('',(0.581552858533,0.813508617303,4.801641356074E-05));
#101 = PCURVE('',#31,#102);
#102 = DEFINITIONAL_REPRESENTATION('',(#103),#107);
#103 = ELLIPSE('',#104,2.525117221601E-02,2.52511424181E-02);
#104 = AXIS2_PLACEMENT_2D('',#105,#106);
#105 = CARTESIAN_POINT('',(-8.798362822585E-04,-0.368720493439));
#106 = DIRECTION('',(0.813508613936,-0.581552865225));
#107 = ( GEOMETRIC_REPRESENTATION_CONTEXT(2) 
PARAMETRIC_REPRESENTATION_CONTEXT() REPRESENTATION_CONTEXT('2D SPACE',''
  ) );
#108 = PCURVE('',#109,#114);
#109 = CYLINDRICAL_SURFACE('',#110,2.52511424181E-02);
#110 = AXIS2_PLACEMENT_3D('',#111,#112,#113);
#111 = CARTESIAN_POINT('',(0.373394450655,-2.115740409794E-04,
    0.438026586094));
#112 = DIRECTION('',(1.04513007751E-03,1.082291245246E-03,0.999998868174
    ));
#113 = DIRECTION('',(0.,0.999999414322,-1.082291836338E-03));
#114 = DEFINITIONAL_REPRESENTATION('',(#115),#122);
#115 = B_SPLINE_CURVE_WITH_KNOTS('',5,(#116,#117,#118,#119,#120,#121),
  .UNSPECIFIED.,.F.,.F.,(6,6),(0.620635492477,6.903820799657),
  .PIECEWISE_BEZIER_KNOTS.);
#116 = CARTESIAN_POINT('',(2.198361971594E-15,1.537498720481E-02));
#117 = CARTESIAN_POINT('',(1.256637061436,1.534663759165E-02));
#118 = CARTESIAN_POINT('',(2.513274122872,1.521344710418E-02));
#119 = CARTESIAN_POINT('',(3.769911184308,1.534561181233E-02));
#120 = CARTESIAN_POINT('',(5.026548245744,1.540333681796E-02));
#121 = CARTESIAN_POINT('',(6.28318530718,1.537498720481E-02));
#122 = ( GEOMETRIC_REPRESENTATION_CONTEXT(2) 
PARAMETRIC_REPRESENTATION_CONTEXT() REPRESENTATION_CONTEXT('2D SPACE',''
  ) );
#123 = ADVANCED_FACE('',(#124),#43,.F.);
#124 = FACE_BOUND('',#125,.F.);
#125 = EDGE_LOOP('',(#126,#127,#150,#177));
#126 = ORIENTED_EDGE('',*,*,#21,.T.);
#127 = ORIENTED_EDGE('',*,*,#128,.F.);
#128 = EDGE_CURVE('',#129,#22,#131,.T.);
#129 = VERTEX_POINT('',#130);
#130 = CARTESIAN_POINT('',(4.735508539521E-03,0.115108014581,
    0.753434953967));
#131 = SEAM_CURVE('',#132,(#136,#143),.PCURVE_S1.);
#132 = LINE('',#133,#134);
#133 = CARTESIAN_POINT('',(4.735508539521E-03,0.115108014581,
    0.753434953967));
#134 = VECTOR('',#135,1.);
#135 = DIRECTION('',(-1.517092109617E-04,1.674762070583E-04,
    -0.999999974468));
#136 = PCURVE('',#43,#137);
#137 = DEFINITIONAL_REPRESENTATION('',(#138),#142);
#138 = LINE('',#139,#140);
#139 = CARTESIAN_POINT('',(6.28318530718,0.793082775514));
#140 = VECTOR('',#141,1.);
#141 = DIRECTION('',(-0.,-1.));
#142 = ( GEOMETRIC_REPRESENTATION_CONTEXT(2) 
PARAMETRIC_REPRESENTATION_CONTEXT() REPRESENTATION_CONTEXT('2D SPACE',''
  ) );
#143 = PCURVE('',#43,#144);
#144 = DEFINITIONAL_REPRESENTATION('',(#145),#149);
#145 = LINE('',#146,#147);
#146 = CARTESIAN_POINT('',(0.,0.793082775514));
#147 = VECTOR('',#148,1.);
#148 = DIRECTION('',(-0.,-1.));
#149 = ( GEOMETRIC_REPRESENTATION_CONTEXT(2) 
PARAMETRIC_REPRESENTATION_CONTEXT() REPRESENTATION_CONTEXT('2D SPACE',''
  ) );
#150 = ORIENTED_EDGE('',*,*,#151,.F.);
#151 = EDGE_CURVE('',#129,#129,#152,.T.);
#152 = SURFACE_CURVE('',#153,(#158,#165),.PCURVE_S1.);
#153 = CIRCLE('',#154,0.114473398405);
#154 = AXIS2_PLACEMENT_3D('',#155,#156,#157);
#155 = CARTESIAN_POINT('',(4.735508539521E-03,6.346177813786E-04,
    0.753415782396));
#156 = DIRECTION('',(1.517092109617E-04,-1.674762070584E-04,
    0.999999974468));
#157 = DIRECTION('',(0.,0.999999985976,1.674762089857E-04));
#158 = PCURVE('',#43,#159);
#159 = DEFINITIONAL_REPRESENTATION('',(#160),#164);
#160 = LINE('',#161,#162);
#161 = CARTESIAN_POINT('',(0.,0.793082775514));
#162 = VECTOR('',#163,1.);
#163 = DIRECTION('',(1.,0.));
#164 = ( GEOMETRIC_REPRESENTATION_CONTEXT(2) 
PARAMETRIC_REPRESENTATION_CONTEXT() REPRESENTATION_CONTEXT('2D SPACE',''
  ) );
#165 = PCURVE('',#166,#171);
#166 = PLANE('',#167);
#167 = AXIS2_PLACEMENT_3D('',#168,#169,#170);
#168 = CARTESIAN_POINT('',(4.735508539521E-03,6.346177813786E-04,
    0.753415782396));
#169 = DIRECTION('',(1.517092109617E-04,-1.674762070584E-04,
    0.999999974468));
#170 = DIRECTION('',(0.,0.999999985976,1.674762089857E-04));
#171 = DEFINITIONAL_REPRESENTATION('',(#172),#176);
#172 = CIRCLE('',#173,0.114473398405);
#173 = AXIS2_PLACEMENT_2D('',#174,#175);
#174 = CARTESIAN_POINT('',(1.270138100573E-19,-8.505186250921E-19));
#175 = DIRECTION('',(1.,0.));
#176 = ( GEOMETRIC_REPRESENTATION_CONTEXT(2) 
PARAMETRIC_REPRESENTATION_CONTEXT() REPRESENTATION_CONTEXT('2D SPACE',''
  ) );
#177 = ORIENTED_EDGE('',*,*,#128,.T.);
#178 = ADVANCED_FACE('',(#179),#78,.F.);
#179 = FACE_BOUND('',#180,.F.);
#180 = EDGE_LOOP('',(#181,#204,#233,#438,#460,#461));
#181 = ORIENTED_EDGE('',*,*,#182,.F.);
#182 = EDGE_CURVE('',#183,#58,#185,.T.);
#183 = VERTEX_POINT('',#184);
#184 = CARTESIAN_POINT('',(4.620749799956E-03,0.60838059255,
    -2.921276566307E-03));
#185 = SEAM_CURVE('',#186,(#190,#197),.PCURVE_S1.);
#186 = LINE('',#187,#188);
#187 = CARTESIAN_POINT('',(4.611323109538E-03,0.608390998948,
    -6.505784768709E-02));
#188 = VECTOR('',#189,1.);
#189 = DIRECTION('',(1.517092109617E-04,-1.674762070584E-04,
    0.999999974468));
#190 = PCURVE('',#78,#191);
#191 = DEFINITIONAL_REPRESENTATION('',(#192),#196);
#192 = LINE('',#193,#194);
#193 = CARTESIAN_POINT('',(0.,-0.));
#194 = VECTOR('',#195,1.);
#195 = DIRECTION('',(0.,1.));
#196 = ( GEOMETRIC_REPRESENTATION_CONTEXT(2) 
PARAMETRIC_REPRESENTATION_CONTEXT() REPRESENTATION_CONTEXT('2D SPACE',''
  ) );
#197 = PCURVE('',#78,#198);
#198 = DEFINITIONAL_REPRESENTATION('',(#199),#203);
#199 = LINE('',#200,#201);
#200 = CARTESIAN_POINT('',(6.28318530718,-0.));
#201 = VECTOR('',#202,1.);
#202 = DIRECTION('',(0.,1.));
#203 = ( GEOMETRIC_REPRESENTATION_CONTEXT(2) 
PARAMETRIC_REPRESENTATION_CONTEXT() REPRESENTATION_CONTEXT('2D SPACE',''
  ) );
#204 = ORIENTED_EDGE('',*,*,#205,.T.);
#205 = EDGE_CURVE('',#183,#206,#208,.T.);
#206 = VERTEX_POINT('',#207);
#207 = CARTESIAN_POINT('',(-0.599134143869,-6.765826878429E-02,
    -2.942901811394E-03));
#208 = SURFACE_CURVE('',#209,(#214,#221),.PCURVE_S1.);
#209 = CIRCLE('',#210,0.607619297783);
#210 = AXIS2_PLACEMENT_3D('',#211,#212,#213);
#211 = CARTESIAN_POINT('',(4.620749799956E-03,7.613032891822E-04,
    -3.023038342806E-03));
#212 = DIRECTION('',(1.517092109617E-04,-1.674762070584E-04,
    0.999999974468));
#213 = DIRECTION('',(0.,0.999999985976,1.674762089857E-04));
#214 = PCURVE('',#78,#215);
#215 = DEFINITIONAL_REPRESENTATION('',(#216),#220);
#216 = LINE('',#217,#218);
#217 = CARTESIAN_POINT('',(0.,6.213657270726E-02));
#218 = VECTOR('',#219,1.);
#219 = DIRECTION('',(1.,0.));
#220 = ( GEOMETRIC_REPRESENTATION_CONTEXT(2) 
PARAMETRIC_REPRESENTATION_CONTEXT() REPRESENTATION_CONTEXT('2D SPACE',''
  ) );
#221 = PCURVE('',#222,#227);
#222 = PLANE('',#223);
#223 = AXIS2_PLACEMENT_3D('',#224,#225,#226);
#224 = CARTESIAN_POINT('',(4.620749799956E-03,7.613032891822E-04,
    -3.023038342806E-03));
#225 = DIRECTION('',(1.517092109617E-04,-1.674762070584E-04,
    0.999999974468));
#226 = DIRECTION('',(0.,0.999999985976,1.674762089857E-04));
#227 = DEFINITIONAL_REPRESENTATION('',(#228),#232);
#228 = CIRCLE('',#229,0.607619297783);
#229 = AXIS2_PLACEMENT_2D('',#230,#231);
#230 = CARTESIAN_POINT('',(-1.096549466015E-19,8.662432432758E-19));
#231 = DIRECTION('',(1.,0.));
#232 = ( GEOMETRIC_REPRESENTATION_CONTEXT(2) 
PARAMETRIC_REPRESENTATION_CONTEXT() REPRESENTATION_CONTEXT('2D SPACE',''
  ) );
#233 = ORIENTED_EDGE('',*,*,#234,.T.);
#234 = EDGE_CURVE('',#206,#235,#237,.T.);
#235 = VERTEX_POINT('',#236);
#236 = CARTESIAN_POINT('',(-0.170892439738,-0.580957126177,
    -3.093835373189E-03));
#237 = SURFACE_CURVE('',#238,(#301,#367),.PCURVE_S1.);
#238 = B_SPLINE_CURVE_WITH_KNOTS('',6,(#239,#240,#241,#242,#243,#244,
    #245,#246,#247,#248,#249,#250,#251,#252,#253,#254,#255,#256,#257,
    #258,#259,#260,#261,#262,#263,#264,#265,#266,#267,#268,#269,#270,
    #271,#272,#273,#274,#275,#276,#277,#278,#279,#280,#281,#282,#283,
    #284,#285,#286,#287,#288,#289,#290,#291,#292,#293,#294,#295,#296,
    #297,#298,#299,#300),.UNSPECIFIED.,.F.,.F.,(7,5,5,5,5,5,5,5,5,5,5,5,
    7),(0.,6.58889909998E-02,0.165574122384,0.227409990085,
    0.278987309125,0.414966602933,0.500000000003,0.585033397074,
    0.721012690881,0.772590009921,0.834425877621,0.934111009003,1.),
  .UNSPECIFIED.);
#239 = CARTESIAN_POINT('',(-0.442717826256,0.411814317321,0.453563413767
    ));
#240 = CARTESIAN_POINT('',(-0.443692005137,0.41076221624,0.429388042969)
  );
#241 = CARTESIAN_POINT('',(-0.44564304368,0.408640835476,0.405326636447)
  );
#242 = CARTESIAN_POINT('',(-0.448551572905,0.405449339186,0.381510772633
    ));
#243 = CARTESIAN_POINT('',(-0.452366470931,0.40118091364,0.358070729084)
  );
#244 = CARTESIAN_POINT('',(-0.457008794104,0.395827855593,0.335131677612
    ));
#245 = CARTESIAN_POINT('',(-0.470495448921,0.379641612876,0.279038662822
    ));
#246 = CARTESIAN_POINT('',(-0.480274665976,0.36740554379,0.24667715776)
  );
#247 = CARTESIAN_POINT('',(-0.491369278994,0.352653078038,0.216085862502
    ));
#248 = CARTESIAN_POINT('',(-0.50333338563,0.335364428985,0.187570160872)
  );
#249 = CARTESIAN_POINT('',(-0.515671784848,0.315558578116,0.161359306097
    ));
#250 = CARTESIAN_POINT('',(-0.535473154804,0.279535604801,0.122838172036
    ));
#251 = CARTESIAN_POINT('',(-0.543009433683,0.264809343341,0.109026894805
    ));
#252 = CARTESIAN_POINT('',(-0.550383278247,0.249168877772,
    9.618441749836E-02));
#253 = CARTESIAN_POINT('',(-0.557477482958,0.23264506045,
    8.432831361165E-02));
#254 = CARTESIAN_POINT('',(-0.5641790471,0.215278436544,
    7.346073791142E-02));
#255 = CARTESIAN_POINT('',(-0.575556850795,0.181972743511,
    5.531697504523E-02));
#256 = CARTESIAN_POINT('',(-0.580384617598,0.166275070636,
    4.774441874667E-02));
#257 = CARTESIAN_POINT('',(-0.584804032402,0.150056286843,
    4.084274724712E-02));
#258 = CARTESIAN_POINT('',(-0.588757694912,0.133350172457,
    3.459687894297E-02));
#259 = CARTESIAN_POINT('',(-0.592192599022,0.116194274858,
    2.89845132167E-02));
#260 = CARTESIAN_POINT('',(-0.602620146123,5.232292356452E-02,
    1.077194754811E-02));
#261 = CARTESIAN_POINT('',(-0.606234508055,3.194516962209E-03,
    1.772093635082E-03));
#262 = CARTESIAN_POINT('',(-0.605031166803,-4.805787581196E-02,
    -3.579145600675E-03));
#263 = CARTESIAN_POINT('',(-0.598338081379,-0.100533755644,
    -6.094329324171E-03));
#264 = CARTESIAN_POINT('',(-0.585741658361,-0.153241954053,
    -6.853908921242E-03));
#265 = CARTESIAN_POINT('',(-0.555358403922,-0.237597437686,
    -6.710414035713E-03));
#266 = CARTESIAN_POINT('',(-0.541269150092,-0.269779272295,
    -6.32359805881E-03));
#267 = CARTESIAN_POINT('',(-0.524773673973,-0.301287240764,
    -5.825396655185E-03));
#268 = CARTESIAN_POINT('',(-0.505952369769,-0.331769337081,
    -5.423547642199E-03));
#269 = CARTESIAN_POINT('',(-0.484945704353,-0.360922268571,
    -5.226187287418E-03));
#270 = CARTESIAN_POINT('',(-0.438945004693,-0.416059604207,
    -5.24240020952E-03));
#271 = CARTESIAN_POINT('',(-0.414028803529,-0.441950716103,
    -5.455946054176E-03));
#272 = CARTESIAN_POINT('',(-0.38741336839,-0.465929981587,
    -5.873809221751E-03));
#273 = CARTESIAN_POINT('',(-0.359371876745,-0.487804891159,
    -6.387707655951E-03));
#274 = CARTESIAN_POINT('',(-0.330236167787,-0.507433339843,
    -6.789758247974E-03));
#275 = CARTESIAN_POINT('',(-0.252691540872,-0.552442319414,
    -6.971292257821E-03));
#276 = CARTESIAN_POINT('',(-0.203093920714,-0.574281113952,
    -6.233632918143E-03));
#277 = CARTESIAN_POINT('',(-0.152666389105,-0.590271119557,
    -3.73858132575E-03));
#278 = CARTESIAN_POINT('',(-0.102457876762,-0.600641977042,
    1.594537829664E-03));
#279 = CARTESIAN_POINT('',(-5.347450789146E-02,-0.605893746861,
    1.057840146027E-02));
#280 = CARTESIAN_POINT('',(1.123680186795E-02,-0.607087972033,
    2.877183484564E-02));
#281 = CARTESIAN_POINT('',(2.873215321768E-02,-0.606785200678,
    3.437924497477E-02));
#282 = CARTESIAN_POINT('',(4.587815536352E-02,-0.605891681831,
    4.062046364584E-02));
#283 = CARTESIAN_POINT('',(6.262837582593E-02,-0.604452842155,
    4.751778915951E-02));
#284 = CARTESIAN_POINT('',(7.893929860789E-02,-0.602519103959,
    5.508629822585E-02));
#285 = CARTESIAN_POINT('',(0.113750085493,-0.597300641524,
    7.322180214951E-02));
#286 = CARTESIAN_POINT('',(0.132039703077,-0.593823684444,
    8.408529364658E-02));
#287 = CARTESIAN_POINT('',(0.149570811727,-0.589809743705,
    9.593771905216E-02));
#288 = CARTESIAN_POINT('',(0.16628327076,-0.585362723542,0.108776904969)
  );
#289 = CARTESIAN_POINT('',(0.182125717355,-0.580592396678,0.122585254696
    ));
#290 = CARTESIAN_POINT('',(0.221125308088,-0.567580785157,0.161099622354
    ));
#291 = CARTESIAN_POINT('',(0.242829300246,-0.559000716616,0.18730717623)
  );
#292 = CARTESIAN_POINT('',(0.261990432194,-0.550338562444,0.215820341273
    ));
#293 = CARTESIAN_POINT('',(0.278501216461,-0.542078025169,0.246409727604
    ));
#294 = CARTESIAN_POINT('',(0.292301119039,-0.534661228155,0.278769815577
    ));
#295 = CARTESIAN_POINT('',(0.310658532253,-0.524313171434,0.334861113671
    ));
#296 = CARTESIAN_POINT('',(0.316763530038,-0.520713303699,0.357799649624
    ));
#297 = CARTESIAN_POINT('',(0.321653314182,-0.517733257615,0.381239314331
    ));
#298 = CARTESIAN_POINT('',(0.325321279196,-0.51545203587,0.405054910482)
  );
#299 = CARTESIAN_POINT('',(0.327764929049,-0.513921108627,0.429116143383
    ));
#300 = CARTESIAN_POINT('',(0.328981576795,-0.513159635455,0.453291428724
    ));
#301 = PCURVE('',#78,#302);
#302 = DEFINITIONAL_REPRESENTATION('',(#303),#366);
#303 = B_SPLINE_CURVE_WITH_KNOTS('',6,(#304,#305,#306,#307,#308,#309,
    #310,#311,#312,#313,#314,#315,#316,#317,#318,#319,#320,#321,#322,
    #323,#324,#325,#326,#327,#328,#329,#330,#331,#332,#333,#334,#335,
    #336,#337,#338,#339,#340,#341,#342,#343,#344,#345,#346,#347,#348,
    #349,#350,#351,#352,#353,#354,#355,#356,#357,#358,#359,#360,#361,
    #362,#363,#364,#365),.UNSPECIFIED.,.F.,.F.,(7,5,5,5,5,5,5,5,5,5,5,5,
    7),(0.,6.58889909998E-02,0.165574122384,0.227409990085,
    0.278987309125,0.414966602933,0.500000000003,0.585033397074,
    0.721012690881,0.772590009921,0.834425877621,0.934111009003,1.),
  .UNSPECIFIED.);
#304 = CARTESIAN_POINT('',(0.827629040966,0.518586306178));
#305 = CARTESIAN_POINT('',(0.829989638607,0.494410964407));
#306 = CARTESIAN_POINT('',(0.834733742773,0.470349617789));
#307 = CARTESIAN_POINT('',(0.841841158169,0.446533847832));
#308 = CARTESIAN_POINT('',(0.85126272694,0.423093940986));
#309 = CARTESIAN_POINT('',(0.862922898896,0.400155082327));
#310 = CARTESIAN_POINT('',(0.897599769471,0.344062733729));
#311 = CARTESIAN_POINT('',(0.923376127619,0.311701795147));
#312 = CARTESIAN_POINT('',(0.95373404565,0.281111288202));
#313 = CARTESIAN_POINT('',(0.988290060183,0.252596667672));
#314 = CARTESIAN_POINT('',(1.026638164369,0.226387258727));
#315 = CARTESIAN_POINT('',(1.094294662821,0.18786915459));
#316 = CARTESIAN_POINT('',(1.121509937935,0.174059200687));
#317 = CARTESIAN_POINT('',(1.14994607779,0.161218224434));
#318 = CARTESIAN_POINT('',(1.179513376712,0.14936381194));
#319 = CARTESIAN_POINT('',(1.210127370299,0.138498128324));
#320 = CARTESIAN_POINT('',(1.268054251857,0.120358217715));
#321 = CARTESIAN_POINT('',(1.295071576776,0.11278755818));
#322 = CARTESIAN_POINT('',(1.32271647678,0.105887932651));
#323 = CARTESIAN_POINT('',(1.350946807204,9.964426257596E-02));
#324 = CARTESIAN_POINT('',(1.379724414226,9.403424909106E-02));
#325 = CARTESIAN_POINT('',(1.48623767343,7.583079886419E-02));
#326 = CARTESIAN_POINT('',(1.56699628074,6.683862468814E-02));
#327 = CARTESIAN_POINT('',(1.650754195665,6.14961517033E-02));
#328 = CARTESIAN_POINT('',(1.737086238307,5.899077190805E-02));
#329 = CARTESIAN_POINT('',(1.825724904227,5.824193069292E-02));
#330 = CARTESIAN_POINT('',(1.973285032741,5.840416253079E-02));
#331 = CARTESIAN_POINT('',(2.030972572241,5.879850565899E-02));
#332 = CARTESIAN_POINT('',(2.089288191684,5.930448640062E-02));
#333 = CARTESIAN_POINT('',(2.14802377468,5.971429579443E-02));
#334 = CARTESIAN_POINT('',(2.207012260507,5.991972547119E-02));
#335 = CARTESIAN_POINT('',(2.325189248026,5.991972547119E-02));
#336 = CARTESIAN_POINT('',(2.384177733853,5.971429579443E-02));
#337 = CARTESIAN_POINT('',(2.442913316849,5.930448640061E-02));
#338 = CARTESIAN_POINT('',(2.501228936293,5.879850565899E-02));
#339 = CARTESIAN_POINT('',(2.558916475793,5.840416253079E-02));
#340 = CARTESIAN_POINT('',(2.706476604307,5.824193069292E-02));
#341 = CARTESIAN_POINT('',(2.795115270227,5.899077190806E-02));
#342 = CARTESIAN_POINT('',(2.881447312868,6.149615170327E-02));
#343 = CARTESIAN_POINT('',(2.965205227794,6.683862468819E-02));
#344 = CARTESIAN_POINT('',(3.045963835103,7.583079886415E-02));
#345 = CARTESIAN_POINT('',(3.152477094308,9.403424909105E-02));
#346 = CARTESIAN_POINT('',(3.18125470133,9.964426257596E-02));
#347 = CARTESIAN_POINT('',(3.209485031753,0.105887932651));
#348 = CARTESIAN_POINT('',(3.237129931757,0.11278755818));
#349 = CARTESIAN_POINT('',(3.264147256677,0.120358217715));
#350 = CARTESIAN_POINT('',(3.322074138234,0.138498128324));
#351 = CARTESIAN_POINT('',(3.352688131822,0.14936381194));
#352 = CARTESIAN_POINT('',(3.382255430744,0.161218224434));
#353 = CARTESIAN_POINT('',(3.410691570598,0.174059200687));
#354 = CARTESIAN_POINT('',(3.437906845713,0.18786915459));
#355 = CARTESIAN_POINT('',(3.505563344164,0.226387258727));
#356 = CARTESIAN_POINT('',(3.54391144835,0.252596667672));
#357 = CARTESIAN_POINT('',(3.578467462884,0.281111288203));
#358 = CARTESIAN_POINT('',(3.608825380914,0.311701795147));
#359 = CARTESIAN_POINT('',(3.634601739062,0.344062733729));
#360 = CARTESIAN_POINT('',(3.669278609637,0.400155082327));
#361 = CARTESIAN_POINT('',(3.680938781593,0.423093940986));
#362 = CARTESIAN_POINT('',(3.690360350365,0.446533847832));
#363 = CARTESIAN_POINT('',(3.69746776576,0.470349617789));
#364 = CARTESIAN_POINT('',(3.702211869926,0.494410964407));
#365 = CARTESIAN_POINT('',(3.704572467568,0.518586306178));
#366 = ( GEOMETRIC_REPRESENTATION_CONTEXT(2) 
PARAMETRIC_REPRESENTATION_CONTEXT() REPRESENTATION_CONTEXT('2D SPACE',''
  ) );
#367 = PCURVE('',#368,#373);
#368 = CYLINDRICAL_SURFACE('',#369,0.488958513995);
#369 = AXIS2_PLACEMENT_3D('',#370,#371,#372);
#370 = CARTESIAN_POINT('',(-0.915530700413,0.216594873369,0.482309579849
    ));
#371 = DIRECTION('',(0.640619219128,-0.767858688239,-2.257859026887E-04)
  );
#372 = DIRECTION('',(-0.767858707812,-0.640619235457,0.));
#373 = DEFINITIONAL_REPRESENTATION('',(#374),#437);
#374 = B_SPLINE_CURVE_WITH_KNOTS('',6,(#375,#376,#377,#378,#379,#380,
    #381,#382,#383,#384,#385,#386,#387,#388,#389,#390,#391,#392,#393,
    #394,#395,#396,#397,#398,#399,#400,#401,#402,#403,#404,#405,#406,
    #407,#408,#409,#410,#411,#412,#413,#414,#415,#416,#417,#418,#419,
    #420,#421,#422,#423,#424,#425,#426,#427,#428,#429,#430,#431,#432,
    #433,#434,#435,#436),.UNSPECIFIED.,.F.,.F.,(7,5,5,5,5,5,5,5,5,5,5,5,
    7),(0.,6.58889909998E-02,0.165574122384,0.227409990085,
    0.278987309125,0.414966602933,0.500000000003,0.585033397074,
    0.721012690881,0.772590009921,0.834425877621,0.934111009003,1.),
  .UNSPECIFIED.);
#375 = CARTESIAN_POINT('',(3.082838901485,0.152998558564));
#376 = CARTESIAN_POINT('',(3.033310946144,0.153187804263));
#377 = CARTESIAN_POINT('',(2.983843379943,0.153572284852));
#378 = CARTESIAN_POINT('',(2.934488024575,0.154165020573));
#379 = CARTESIAN_POINT('',(2.885298784025,0.15500396365));
#380 = CARTESIAN_POINT('',(2.836335549643,0.156145573649));
#381 = CARTESIAN_POINT('',(2.714037889953,0.159947175484));
#382 = CARTESIAN_POINT('',(2.641078224696,0.16308529982));
#383 = CARTESIAN_POINT('',(2.568937495807,0.167312593576));
#384 = CARTESIAN_POINT('',(2.497783150009,0.172929834752));
#385 = CARTESIAN_POINT('',(2.427813339109,0.180239631789));
#386 = CARTESIAN_POINT('',(2.316749429289,0.195223744195));
#387 = CARTESIAN_POINT('',(2.274773457651,0.201706665303));
#388 = CARTESIAN_POINT('',(2.233400061962,0.208995405782));
#389 = CARTESIAN_POINT('',(2.192692615836,0.217141355535));
#390 = CARTESIAN_POINT('',(2.152720049838,0.226185771544));
#391 = CARTESIAN_POINT('',(2.080893740232,0.244475094195));
#392 = CARTESIAN_POINT('',(2.048794204609,0.253437638274));
#393 = CARTESIAN_POINT('',(2.017304592815,0.263061768561));
#394 = CARTESIAN_POINT('',(1.986472959423,0.273358321679));
#395 = CARTESIAN_POINT('',(1.956350660875,0.284332428309));
#396 = CARTESIAN_POINT('',(1.849591635365,0.326700625389));
#397 = CARTESIAN_POINT('',(1.777531941401,0.36211090156));
#398 = CARTESIAN_POINT('',(1.711728878039,0.402237588411));
#399 = CARTESIAN_POINT('',(1.653414167409,0.446819935715));
#400 = CARTESIAN_POINT('',(1.604146916007,0.495362065984));
#401 = CARTESIAN_POINT('',(1.541339687853,0.579599221327));
#402 = CARTESIAN_POINT('',(1.521297898317,0.613336082084));
#403 = CARTESIAN_POINT('',(1.505889910288,0.648096955965));
#404 = CARTESIAN_POINT('',(1.495475540764,0.683560096928));
#405 = CARTESIAN_POINT('',(1.490252235831,0.719402657695));
#406 = CARTESIAN_POINT('',(1.490252235831,0.791209275865));
#407 = CARTESIAN_POINT('',(1.495475540764,0.827051836631));
#408 = CARTESIAN_POINT('',(1.505889910288,0.862514977594));
#409 = CARTESIAN_POINT('',(1.521297898318,0.897275851476));
#410 = CARTESIAN_POINT('',(1.541339687853,0.931012712233));
#411 = CARTESIAN_POINT('',(1.604146916007,1.015249867575));
#412 = CARTESIAN_POINT('',(1.653414167409,1.063791997845));
#413 = CARTESIAN_POINT('',(1.711728878039,1.108374345148));
#414 = CARTESIAN_POINT('',(1.777531941401,1.148501032));
#415 = CARTESIAN_POINT('',(1.849591635364,1.18391130817));
#416 = CARTESIAN_POINT('',(1.956350660875,1.22627950525));
#417 = CARTESIAN_POINT('',(1.986472959423,1.23725361188));
#418 = CARTESIAN_POINT('',(2.017304592815,1.247550164998));
#419 = CARTESIAN_POINT('',(2.048794204609,1.257174295285));
#420 = CARTESIAN_POINT('',(2.080893740232,1.266136839364));
#421 = CARTESIAN_POINT('',(2.152720049837,1.284426162014));
#422 = CARTESIAN_POINT('',(2.192692615836,1.293470578024));
#423 = CARTESIAN_POINT('',(2.233400061962,1.301616527776));
#424 = CARTESIAN_POINT('',(2.274773457651,1.308905268255));
#425 = CARTESIAN_POINT('',(2.316749429289,1.315388189363));
#426 = CARTESIAN_POINT('',(2.427813339109,1.33037230177));
#427 = CARTESIAN_POINT('',(2.497783150009,1.337682098806));
#428 = CARTESIAN_POINT('',(2.568937495807,1.343299339982));
#429 = CARTESIAN_POINT('',(2.641078224696,1.347526633738));
#430 = CARTESIAN_POINT('',(2.714037889952,1.350664758073));
#431 = CARTESIAN_POINT('',(2.836335549643,1.354466359908));
#432 = CARTESIAN_POINT('',(2.885298784025,1.355607969906));
#433 = CARTESIAN_POINT('',(2.934488024575,1.356446912983));
#434 = CARTESIAN_POINT('',(2.983843379943,1.357039648704));
#435 = CARTESIAN_POINT('',(3.033310946144,1.357424129293));
#436 = CARTESIAN_POINT('',(3.082838901485,1.357613374993));
#437 = ( GEOMETRIC_REPRESENTATION_CONTEXT(2) 
PARAMETRIC_REPRESENTATION_CONTEXT() REPRESENTATION_CONTEXT('2D SPACE',''
  ) );
#438 = ORIENTED_EDGE('',*,*,#439,.T.);
#439 = EDGE_CURVE('',#235,#183,#440,.T.);
#440 = SURFACE_CURVE('',#441,(#446,#453),.PCURVE_S1.);
#441 = CIRCLE('',#442,0.607619297783);
#442 = AXIS2_PLACEMENT_3D('',#443,#444,#445);
#443 = CARTESIAN_POINT('',(4.620749799956E-03,7.613032891822E-04,
    -3.023038342806E-03));
#444 = DIRECTION('',(1.517092109617E-04,-1.674762070584E-04,
    0.999999974468));
#445 = DIRECTION('',(0.,0.999999985976,1.674762089857E-04));
#446 = PCURVE('',#78,#447);
#447 = DEFINITIONAL_REPRESENTATION('',(#448),#452);
#448 = LINE('',#449,#450);
#449 = CARTESIAN_POINT('',(0.,6.213657270726E-02));
#450 = VECTOR('',#451,1.);
#451 = DIRECTION('',(1.,0.));
#452 = ( GEOMETRIC_REPRESENTATION_CONTEXT(2) 
PARAMETRIC_REPRESENTATION_CONTEXT() REPRESENTATION_CONTEXT('2D SPACE',''
  ) );
#453 = PCURVE('',#222,#454);
#454 = DEFINITIONAL_REPRESENTATION('',(#455),#459);
#455 = CIRCLE('',#456,0.607619297783);
#456 = AXIS2_PLACEMENT_2D('',#457,#458);
#457 = CARTESIAN_POINT('',(-1.096549466015E-19,8.662432432758E-19));
#458 = DIRECTION('',(1.,0.));
#459 = ( GEOMETRIC_REPRESENTATION_CONTEXT(2) 
PARAMETRIC_REPRESENTATION_CONTEXT() REPRESENTATION_CONTEXT('2D SPACE',''
  ) );
#460 = ORIENTED_EDGE('',*,*,#182,.T.);
#461 = ORIENTED_EDGE('',*,*,#57,.T.);
#462 = ADVANCED_FACE('',(#463),#109,.F.);
#463 = FACE_BOUND('',#464,.F.);
#464 = EDGE_LOOP('',(#465,#492,#513,#514));
#465 = ORIENTED_EDGE('',*,*,#466,.F.);
#466 = EDGE_CURVE('',#467,#467,#469,.T.);
#467 = VERTEX_POINT('',#468);
#468 = CARTESIAN_POINT('',(0.373724048152,2.538087041837E-02,
    0.753363947843));
#469 = SURFACE_CURVE('',#470,(#475,#485),.PCURVE_S1.);
#470 = ELLIPSE('',#471,2.525117221601E-02,2.52511424181E-02);
#471 = AXIS2_PLACEMENT_3D('',#472,#473,#474);
#472 = CARTESIAN_POINT('',(0.373724015169,1.29708634243E-04,
    0.753359718879));
#473 = DIRECTION('',(1.517092109617E-04,-1.674762070584E-04,
    0.999999974468));
#474 = DIRECTION('',(0.581552858533,0.813508617303,4.801641356074E-05));
#475 = PCURVE('',#109,#476);
#476 = DEFINITIONAL_REPRESENTATION('',(#477),#484);
#477 = B_SPLINE_CURVE_WITH_KNOTS('',5,(#478,#479,#480,#481,#482,#483),
  .UNSPECIFIED.,.F.,.F.,(6,6),(0.620635492477,6.903820799657),
  .PIECEWISE_BEZIER_KNOTS.);
#478 = CARTESIAN_POINT('',(-1.7763568394E-15,0.315365047793));
#479 = CARTESIAN_POINT('',(1.256637061436,0.31533669818));
#480 = CARTESIAN_POINT('',(2.513274122872,0.315203507693));
#481 = CARTESIAN_POINT('',(3.769911184308,0.315335672401));
#482 = CARTESIAN_POINT('',(5.026548245744,0.315393397406));
#483 = CARTESIAN_POINT('',(6.28318530718,0.315365047793));
#484 = ( GEOMETRIC_REPRESENTATION_CONTEXT(2) 
PARAMETRIC_REPRESENTATION_CONTEXT() REPRESENTATION_CONTEXT('2D SPACE',''
  ) );
#485 = PCURVE('',#166,#486);
#486 = DEFINITIONAL_REPRESENTATION('',(#487),#491);
#487 = ELLIPSE('',#488,2.525117221601E-02,2.52511424181E-02);
#488 = AXIS2_PLACEMENT_2D('',#489,#490);
#489 = CARTESIAN_POINT('',(-5.0491852936E-04,-0.368988510876));
#490 = DIRECTION('',(0.813508613936,-0.581552865225));
#491 = ( GEOMETRIC_REPRESENTATION_CONTEXT(2) 
PARAMETRIC_REPRESENTATION_CONTEXT() REPRESENTATION_CONTEXT('2D SPACE',''
  ) );
#492 = ORIENTED_EDGE('',*,*,#493,.F.);
#493 = EDGE_CURVE('',#93,#467,#494,.T.);
#494 = SEAM_CURVE('',#495,(#499,#506),.PCURVE_S1.);
#495 = LINE('',#496,#497);
#496 = CARTESIAN_POINT('',(0.373394450655,2.503955358809E-02,
    0.437999256988));
#497 = VECTOR('',#498,1.);
#498 = DIRECTION('',(1.04513007751E-03,1.082291245246E-03,0.999998868174
    ));
#499 = PCURVE('',#109,#500);
#500 = DEFINITIONAL_REPRESENTATION('',(#501),#505);
#501 = LINE('',#502,#503);
#502 = CARTESIAN_POINT('',(6.28318530718,-0.));
#503 = VECTOR('',#504,1.);
#504 = DIRECTION('',(0.,1.));
#505 = ( GEOMETRIC_REPRESENTATION_CONTEXT(2) 
PARAMETRIC_REPRESENTATION_CONTEXT() REPRESENTATION_CONTEXT('2D SPACE',''
  ) );
#506 = PCURVE('',#109,#507);
#507 = DEFINITIONAL_REPRESENTATION('',(#508),#512);
#508 = LINE('',#509,#510);
#509 = CARTESIAN_POINT('',(0.,-0.));
#510 = VECTOR('',#511,1.);
#511 = DIRECTION('',(0.,1.));
#512 = ( GEOMETRIC_REPRESENTATION_CONTEXT(2) 
PARAMETRIC_REPRESENTATION_CONTEXT() REPRESENTATION_CONTEXT('2D SPACE',''
  ) );
#513 = ORIENTED_EDGE('',*,*,#92,.T.);
#514 = ORIENTED_EDGE('',*,*,#493,.T.);
#515 = ADVANCED_FACE('',(#516,#568,#571),#166,.T.);
#516 = FACE_BOUND('',#517,.T.);
#517 = EDGE_LOOP('',(#518,#549));
#518 = ORIENTED_EDGE('',*,*,#519,.T.);
#519 = EDGE_CURVE('',#520,#522,#524,.T.);
#520 = VERTEX_POINT('',#521);
#521 = CARTESIAN_POINT('',(0.284682242299,-0.58698874254,0.753274898963)
  );
#522 = VERTEX_POINT('',#523);
#523 = CARTESIAN_POINT('',(-0.523203926474,0.38135937328,0.753559638013)
  );
#524 = SURFACE_CURVE('',#525,(#530,#537),.PCURVE_S1.);
#525 = CIRCLE('',#526,0.650900458739);
#526 = AXIS2_PLACEMENT_3D('',#527,#528,#529);
#527 = CARTESIAN_POINT('',(4.735508539521E-03,6.346177813786E-04,
    0.753415782396));
#528 = DIRECTION('',(1.517092109617E-04,-1.674762070584E-04,
    0.999999974468));
#529 = DIRECTION('',(0.430091467906,-0.90278529141,-2.164438991571E-04)
  );
#530 = PCURVE('',#166,#531);
#531 = DEFINITIONAL_REPRESENTATION('',(#532),#536);
#532 = CIRCLE('',#533,0.650900458739);
#533 = AXIS2_PLACEMENT_2D('',#534,#535);
#534 = CARTESIAN_POINT('',(0.,0.));
#535 = DIRECTION('',(-0.902785314999,-0.430091472855));
#536 = ( GEOMETRIC_REPRESENTATION_CONTEXT(2) 
PARAMETRIC_REPRESENTATION_CONTEXT() REPRESENTATION_CONTEXT('2D SPACE',''
  ) );
#537 = PCURVE('',#538,#543);
#538 = CYLINDRICAL_SURFACE('',#539,0.650900458739);
#539 = AXIS2_PLACEMENT_3D('',#540,#541,#542);
#540 = CARTESIAN_POINT('',(4.620749799956E-03,7.613032891822E-04,
    -3.023038342806E-03));
#541 = DIRECTION('',(1.517092109617E-04,-1.674762070584E-04,
    0.999999974468));
#542 = DIRECTION('',(0.,0.999999985976,1.674762089857E-04));
#543 = DEFINITIONAL_REPRESENTATION('',(#544),#548);
#544 = LINE('',#545,#546);
#545 = CARTESIAN_POINT('',(3.586186751012,0.756438840052));
#546 = VECTOR('',#547,1.);
#547 = DIRECTION('',(1.,0.));
#548 = ( GEOMETRIC_REPRESENTATION_CONTEXT(2) 
PARAMETRIC_REPRESENTATION_CONTEXT() REPRESENTATION_CONTEXT('2D SPACE',''
  ) );
#549 = ORIENTED_EDGE('',*,*,#550,.T.);
#550 = EDGE_CURVE('',#522,#520,#551,.T.);
#551 = SURFACE_CURVE('',#552,(#556,#562),.PCURVE_S1.);
#552 = LINE('',#553,#554);
#553 = CARTESIAN_POINT('',(-0.603124360727,0.477153564239,0.753587805927
    ));
#554 = VECTOR('',#555,1.);
#555 = DIRECTION('',(0.640619219128,-0.767858688239,-2.257859026887E-04)
  );
#556 = PCURVE('',#166,#557);
#557 = DEFINITIONAL_REPRESENTATION('',(#558),#561);
#558 = B_SPLINE_CURVE_WITH_KNOTS('',1,(#559,#560),.UNSPECIFIED.,.F.,.F.,
  (2,2),(-1.0004E-03,1.516757454831),.PIECEWISE_BEZIER_KNOTS.);
#559 = CARTESIAN_POINT('',(0.477287134444,0.608500751736));
#560 = CARTESIAN_POINT('',(-0.68813646208,-0.36380411124));
#561 = ( GEOMETRIC_REPRESENTATION_CONTEXT(2) 
PARAMETRIC_REPRESENTATION_CONTEXT() REPRESENTATION_CONTEXT('2D SPACE',''
  ) );
#562 = PCURVE('',#368,#563);
#563 = DEFINITIONAL_REPRESENTATION('',(#564),#567);
#564 = B_SPLINE_CURVE_WITH_KNOTS('',1,(#565,#566),.UNSPECIFIED.,.F.,.F.,
  (2,2),(-1.0004E-03,1.516757454831),.PIECEWISE_BEZIER_KNOTS.);
#565 = CARTESIAN_POINT('',(3.729725165388,-1.0004E-03));
#566 = CARTESIAN_POINT('',(3.729725165388,1.516757454831));
#567 = ( GEOMETRIC_REPRESENTATION_CONTEXT(2) 
PARAMETRIC_REPRESENTATION_CONTEXT() REPRESENTATION_CONTEXT('2D SPACE',''
  ) );
#568 = FACE_BOUND('',#569,.T.);
#569 = EDGE_LOOP('',(#570));
#570 = ORIENTED_EDGE('',*,*,#466,.F.);
#571 = FACE_BOUND('',#572,.T.);
#572 = EDGE_LOOP('',(#573));
#573 = ORIENTED_EDGE('',*,*,#151,.F.);
#574 = ADVANCED_FACE('',(#575),#222,.F.);
#575 = FACE_BOUND('',#576,.F.);
#576 = EDGE_LOOP('',(#577,#598,#626,#645,#646));
#577 = ORIENTED_EDGE('',*,*,#578,.T.);
#578 = EDGE_CURVE('',#235,#579,#581,.T.);
#579 = VERTEX_POINT('',#580);
#580 = CARTESIAN_POINT('',(-0.123858282003,-0.637333155188,
    -3.110412532148E-03));
#581 = SURFACE_CURVE('',#582,(#586,#592),.PCURVE_S1.);
#582 = LINE('',#583,#584);
#583 = CARTESIAN_POINT('',(-0.868876795869,0.25566056353,
    -2.847831153615E-03));
#584 = VECTOR('',#585,1.);
#585 = DIRECTION('',(0.640619219128,-0.767858688239,-2.257859026887E-04)
  );
#586 = PCURVE('',#222,#587);
#587 = DEFINITIONAL_REPRESENTATION('',(#588),#591);
#588 = B_SPLINE_CURVE_WITH_KNOTS('',1,(#589,#590),.UNSPECIFIED.,.F.,.F.,
  (2,2),(0.144261991229,1.349180280011),.PIECEWISE_BEZIER_KNOTS.);
#589 = CARTESIAN_POINT('',(0.14412645876,0.781080550487));
#590 = CARTESIAN_POINT('',(-0.781080550487,9.186728331863E-03));
#591 = ( GEOMETRIC_REPRESENTATION_CONTEXT(2) 
PARAMETRIC_REPRESENTATION_CONTEXT() REPRESENTATION_CONTEXT('2D SPACE',''
  ) );
#592 = PCURVE('',#368,#593);
#593 = DEFINITIONAL_REPRESENTATION('',(#594),#597);
#594 = B_SPLINE_CURVE_WITH_KNOTS('',1,(#595,#596),.UNSPECIFIED.,.F.,.F.,
  (2,2),(0.144261991229,1.349180280011),.PIECEWISE_BEZIER_KNOTS.);
#595 = CARTESIAN_POINT('',(1.695567670004,0.144261991229));
#596 = CARTESIAN_POINT('',(1.695567670004,1.349180280011));
#597 = ( GEOMETRIC_REPRESENTATION_CONTEXT(2) 
PARAMETRIC_REPRESENTATION_CONTEXT() REPRESENTATION_CONTEXT('2D SPACE',''
  ) );
#598 = ORIENTED_EDGE('',*,*,#599,.F.);
#599 = EDGE_CURVE('',#600,#579,#602,.T.);
#600 = VERTEX_POINT('',#601);
#601 = CARTESIAN_POINT('',(-0.646168272456,-1.128221549027E-02,
    -2.926324654113E-03));
#602 = SURFACE_CURVE('',#603,(#608,#619),.PCURVE_S1.);
#603 = CIRCLE('',#604,0.650900458739);
#604 = AXIS2_PLACEMENT_3D('',#605,#606,#607);
#605 = CARTESIAN_POINT('',(4.620749799956E-03,7.613032891822E-04,
    -3.023038342806E-03));
#606 = DIRECTION('',(-1.517092109617E-04,1.674762070584E-04,
    -0.999999974468));
#607 = DIRECTION('',(-0.999828796428,-1.850285802961E-02,
    1.48584453114E-04));
#608 = PCURVE('',#222,#609);
#609 = DEFINITIONAL_REPRESENTATION('',(#610),#618);
#610 = ( BOUNDED_CURVE() B_SPLINE_CURVE(2,(#611,#612,#613,#614,#615,#616
,#617),.UNSPECIFIED.,.T.,.F.) B_SPLINE_CURVE_WITH_KNOTS((1,2,2,2,2,1),(
    -2.094395102393,0.,2.094395102393,4.188790204786,6.28318530718,
8.377580409573),.UNSPECIFIED.) CURVE() GEOMETRIC_REPRESENTATION_ITEM() 
RATIONAL_B_SPLINE_CURVE((1.,0.5,1.,0.5,1.,0.5,1.)) REPRESENTATION_ITEM(
  '') );
#611 = CARTESIAN_POINT('',(-1.204350241331E-02,0.650789029745));
#612 = CARTESIAN_POINT('',(1.115156162113,0.671648987826));
#613 = CARTESIAN_POINT('',(0.56962158347,-0.314964535832));
#614 = CARTESIAN_POINT('',(2.408700482663E-02,-1.30157805949));
#615 = CARTESIAN_POINT('',(-0.557578081057,-0.335824493913));
#616 = CARTESIAN_POINT('',(-1.13924316694,0.629929071664));
#617 = CARTESIAN_POINT('',(-1.204350241331E-02,0.650789029745));
#618 = ( GEOMETRIC_REPRESENTATION_CONTEXT(2) 
PARAMETRIC_REPRESENTATION_CONTEXT() REPRESENTATION_CONTEXT('2D SPACE',''
  ) );
#619 = PCURVE('',#538,#620);
#620 = DEFINITIONAL_REPRESENTATION('',(#621),#625);
#621 = LINE('',#622,#623);
#622 = CARTESIAN_POINT('',(7.872485522779,0.));
#623 = VECTOR('',#624,1.);
#624 = DIRECTION('',(-1.,-0.));
#625 = ( GEOMETRIC_REPRESENTATION_CONTEXT(2) 
PARAMETRIC_REPRESENTATION_CONTEXT() REPRESENTATION_CONTEXT('2D SPACE',''
  ) );
#626 = ORIENTED_EDGE('',*,*,#627,.T.);
#627 = EDGE_CURVE('',#600,#206,#628,.T.);
#628 = SURFACE_CURVE('',#629,(#633,#639),.PCURVE_S1.);
#629 = LINE('',#630,#631);
#630 = CARTESIAN_POINT('',(-0.868876795869,0.25566056353,
    -2.847831153615E-03));
#631 = VECTOR('',#632,1.);
#632 = DIRECTION('',(0.640619219128,-0.767858688239,-2.257859026887E-04)
  );
#633 = PCURVE('',#222,#634);
#634 = DEFINITIONAL_REPRESENTATION('',(#635),#638);
#635 = B_SPLINE_CURVE_WITH_KNOTS('',1,(#636,#637),.UNSPECIFIED.,.F.,.F.,
  (2,2),(0.144261991229,1.349180280011),.PIECEWISE_BEZIER_KNOTS.);
#636 = CARTESIAN_POINT('',(0.14412645876,0.781080550487));
#637 = CARTESIAN_POINT('',(-0.781080550487,9.186728331863E-03));
#638 = ( GEOMETRIC_REPRESENTATION_CONTEXT(2) 
PARAMETRIC_REPRESENTATION_CONTEXT() REPRESENTATION_CONTEXT('2D SPACE',''
  ) );
#639 = PCURVE('',#368,#640);
#640 = DEFINITIONAL_REPRESENTATION('',(#641),#644);
#641 = B_SPLINE_CURVE_WITH_KNOTS('',1,(#642,#643),.UNSPECIFIED.,.F.,.F.,
  (2,2),(0.144261991229,1.349180280011),.PIECEWISE_BEZIER_KNOTS.);
#642 = CARTESIAN_POINT('',(1.695567670004,0.144261991229));
#643 = CARTESIAN_POINT('',(1.695567670004,1.349180280011));
#644 = ( GEOMETRIC_REPRESENTATION_CONTEXT(2) 
PARAMETRIC_REPRESENTATION_CONTEXT() REPRESENTATION_CONTEXT('2D SPACE',''
  ) );
#645 = ORIENTED_EDGE('',*,*,#205,.F.);
#646 = ORIENTED_EDGE('',*,*,#439,.F.);
#647 = ADVANCED_FACE('',(#648),#538,.T.);
#648 = FACE_BOUND('',#649,.T.);
#649 = EDGE_LOOP('',(#650,#651,#753,#754));
#650 = ORIENTED_EDGE('',*,*,#599,.F.);
#651 = ORIENTED_EDGE('',*,*,#652,.T.);
#652 = EDGE_CURVE('',#600,#522,#653,.T.);
#653 = SURFACE_CURVE('',#654,(#685,#719),.PCURVE_S1.);
#654 = B_SPLINE_CURVE_WITH_KNOTS('',5,(#655,#656,#657,#658,#659,#660,
    #661,#662,#663,#664,#665,#666,#667,#668,#669,#670,#671,#672,#673,
    #674,#675,#676,#677,#678,#679,#680,#681,#682,#683,#684),
  .UNSPECIFIED.,.F.,.F.,(6,4,4,4,4,4,4,6),(0.,7.708970052544E-02,
    0.249641548103,0.425380116636,0.587304723064,0.732454168445,
    0.874817720972,1.),.UNSPECIFIED.);
#655 = CARTESIAN_POINT('',(-0.645762809463,-2.517733303339E-02,
    -3.929113293769E-03));
#656 = CARTESIAN_POINT('',(-0.646470514036,-7.42827280108E-03,
    -2.762084513184E-03));
#657 = CARTESIAN_POINT('',(-0.646565014474,1.015173772658E-02,
    -1.251388986356E-03));
#658 = CARTESIAN_POINT('',(-0.646071135774,2.75266758121E-02,
    6.432291163337E-04));
#659 = CARTESIAN_POINT('',(-0.645017399715,4.466159440117E-02,
    2.957725913882E-03));
#660 = CARTESIAN_POINT('',(-0.639896393051,9.926309154446E-02,
    1.191503773512E-02));
#661 = CARTESIAN_POINT('',(-0.633711601906,0.135652319039,
    2.037125853325E-02));
#662 = CARTESIAN_POINT('',(-0.625241139185,0.170270381656,
    3.144509441023E-02));
#663 = CARTESIAN_POINT('',(-0.614969035642,0.202776739721,
    4.53434998658E-02));
#664 = CARTESIAN_POINT('',(-0.591713735711,0.263660596295,
    7.919827578799E-02));
#665 = CARTESIAN_POINT('',(-0.578692748946,0.291928415529,
    9.924946232549E-02));
#666 = CARTESIAN_POINT('',(-0.564973654121,0.317491274198,0.122309403784
    ));
#667 = CARTESIAN_POINT('',(-0.551228916701,0.340210793806,0.148234720049
    ));
#668 = CARTESIAN_POINT('',(-0.525984708925,0.378320116042,0.202949818595
    ));
#669 = CARTESIAN_POINT('',(-0.514388165248,0.394153325749,0.231365722293
    ));
#670 = CARTESIAN_POINT('',(-0.503791361245,0.407510680767,0.261724364356
    ));
#671 = CARTESIAN_POINT('',(-0.494643539964,0.418430030972,0.293693701901
    ));
#672 = CARTESIAN_POINT('',(-0.480637377114,0.434573282192,0.356630394053
    ));
#673 = CARTESIAN_POINT('',(-0.475431774922,0.440270876539,0.387362461162
    ));
#674 = CARTESIAN_POINT('',(-0.471873736702,0.44405261036,0.418772012116)
  );
#675 = CARTESIAN_POINT('',(-0.47009216632,0.445942286605,0.45052306201)
  );
#676 = CARTESIAN_POINT('',(-0.470082623026,0.445931751485,0.513428233202
    ));
#677 = CARTESIAN_POINT('',(-0.471787115156,0.444103601536,0.544570203781
    ));
#678 = CARTESIAN_POINT('',(-0.475200661155,0.440455253903,0.575389817588
    ));
#679 = CARTESIAN_POINT('',(-0.48020413151,0.434965013171,0.605569771594)
  );
#680 = CARTESIAN_POINT('',(-0.492189398933,0.421154935179,0.660541208054
    ));
#681 = CARTESIAN_POINT('',(-0.498860373747,0.413255882329,0.685546647821
    ));
#682 = CARTESIAN_POINT('',(-0.506452251782,0.403904834581,0.709654634918
    ));
#683 = CARTESIAN_POINT('',(-0.514773226967,0.393084668541,0.732702871139
    ));
#684 = CARTESIAN_POINT('',(-0.523607420924,0.380798855483,0.754560005379
    ));
#685 = PCURVE('',#538,#686);
#686 = DEFINITIONAL_REPRESENTATION('',(#687),#718);
#687 = B_SPLINE_CURVE_WITH_KNOTS('',5,(#688,#689,#690,#691,#692,#693,
    #694,#695,#696,#697,#698,#699,#700,#701,#702,#703,#704,#705,#706,
    #707,#708,#709,#710,#711,#712,#713,#714,#715,#716,#717),
  .UNSPECIFIED.,.F.,.F.,(6,4,4,4,4,4,4,6),(1.210759863203E-02,
    7.708970052544E-02,0.249641548103,0.425380116636,0.587304723064,
    0.732454168445,0.874817720972,0.998855259751),.UNSPECIFIED.);
#688 = CARTESIAN_POINT('',(7.872485528028,-9.085658804708E-09));
#689 = CARTESIAN_POINT('',(7.849640020091,1.168156027762E-03));
#690 = CARTESIAN_POINT('',(7.827009529245,2.593851886101E-03));
#691 = CARTESIAN_POINT('',(7.804601554199,4.300382073516E-03));
#692 = CARTESIAN_POINT('',(7.782425690482,6.30887895512E-03));
#693 = CARTESIAN_POINT('',(7.702255786929,1.482379980345E-02));
#694 = CARTESIAN_POINT('',(7.645705250112,2.327486434566E-02));
#695 = CARTESIAN_POINT('',(7.591122356025,3.43441872853E-02));
#696 = CARTESIAN_POINT('',(7.538835292586,4.823870671719E-02));
#697 = CARTESIAN_POINT('',(7.438700957493,8.208681322082E-02));
#698 = CARTESIAN_POINT('',(7.390990804115,0.102135240463));
#699 = CARTESIAN_POINT('',(7.346507552042,0.125192981475));
#700 = CARTESIAN_POINT('',(7.305743395865,0.151116577302));
#701 = CARTESIAN_POINT('',(7.235509775971,0.205829121826));
#702 = CARTESIAN_POINT('',(7.205389685764,0.234244132415));
#703 = CARTESIAN_POINT('',(7.179207992646,0.264602144296));
#704 = CARTESIAN_POINT('',(7.157324715042,0.296571040103));
#705 = CARTESIAN_POINT('',(7.124487044894,0.359507151901));
#706 = CARTESIAN_POINT('',(7.112632940756,0.390239053752));
#707 = CARTESIAN_POINT('',(7.104653950239,0.42164851034));
#708 = CARTESIAN_POINT('',(7.100663256223,0.453399513228));
#709 = CARTESIAN_POINT('',(7.100663256224,0.516304686027));
#710 = CARTESIAN_POINT('',(7.104502238326,0.547446703395));
#711 = CARTESIAN_POINT('',(7.112178054931,0.57826640956));
#712 = CARTESIAN_POINT('',(7.123585903791,0.608446523208));
#713 = CARTESIAN_POINT('',(7.151556282739,0.663183246117));
#714 = CARTESIAN_POINT('',(7.167267943795,0.687966808515));
#715 = CARTESIAN_POINT('',(7.185549525949,0.711870994545));
#716 = CARTESIAN_POINT('',(7.206249123197,0.734737771364));
#717 = CARTESIAN_POINT('',(7.229200064738,0.756438840048));
#718 = ( GEOMETRIC_REPRESENTATION_CONTEXT(2) 
PARAMETRIC_REPRESENTATION_CONTEXT() REPRESENTATION_CONTEXT('2D SPACE',''
  ) );
#719 = PCURVE('',#368,#720);
#720 = DEFINITIONAL_REPRESENTATION('',(#721),#752);
#721 = B_SPLINE_CURVE_WITH_KNOTS('',5,(#722,#723,#724,#725,#726,#727,
    #728,#729,#730,#731,#732,#733,#734,#735,#736,#737,#738,#739,#740,
    #741,#742,#743,#744,#745,#746,#747,#748,#749,#750,#751),
  .UNSPECIFIED.,.F.,.F.,(6,4,4,4,4,4,4,6),(0.,7.708970052544E-02,
    0.249641548103,0.425380116636,0.587304723064,0.732454168445,
    0.874817720972,1.),.UNSPECIFIED.);
#722 = CARTESIAN_POINT('',(1.677880481277,0.358575170751));
#723 = CARTESIAN_POINT('',(1.700150973526,0.344492767993));
#724 = CARTESIAN_POINT('',(1.723233829398,0.33093292428));
#725 = CARTESIAN_POINT('',(1.747075260408,0.317907387522));
#726 = CARTESIAN_POINT('',(1.771626097368,0.305424712402));
#727 = CARTESIAN_POINT('',(1.853282720745,0.266777071285));
#728 = CARTESIAN_POINT('',(1.913085378977,0.242795473573));
#729 = CARTESIAN_POINT('',(1.975697556037,0.221637534321));
#730 = CARTESIAN_POINT('',(2.040689159778,0.203254613744));
#731 = CARTESIAN_POINT('',(2.176021742329,0.171394563651));
#732 = CARTESIAN_POINT('',(2.246389381433,0.158025840153));
#733 = CARTESIAN_POINT('',(2.318463607867,0.147180686232));
#734 = CARTESIAN_POINT('',(2.391943965418,0.138534595091));
#735 = CARTESIAN_POINT('',(2.535275390249,0.125431591684));
#736 = CARTESIAN_POINT('',(2.604987363642,0.120696476893));
#737 = CARTESIAN_POINT('',(2.675470046667,0.117221577543));
#738 = CARTESIAN_POINT('',(2.746574016275,0.114690111517));
#739 = CARTESIAN_POINT('',(2.882327098495,0.111252782701));
#740 = CARTESIAN_POINT('',(2.946890432333,0.110205705323));
#741 = CARTESIAN_POINT('',(3.011698437794,0.109574123985));
#742 = CARTESIAN_POINT('',(3.076634484353,0.10925725895));
#743 = CARTESIAN_POINT('',(3.205285834106,0.10925725895));
#744 = CARTESIAN_POINT('',(3.268976398585,0.109562057937));
#745 = CARTESIAN_POINT('',(3.332546058614,0.110169731558));
#746 = CARTESIAN_POINT('',(3.395884274807,0.111173327124));
#747 = CARTESIAN_POINT('',(3.514216609042,0.114087111063));
#748 = CARTESIAN_POINT('',(3.569302108249,0.11587326687));
#749 = CARTESIAN_POINT('',(3.624042136249,0.118184603905));
#750 = CARTESIAN_POINT('',(3.678366729821,0.121157181815));
#751 = CARTESIAN_POINT('',(3.732186379317,0.124926660646));
#752 = ( GEOMETRIC_REPRESENTATION_CONTEXT(2) 
PARAMETRIC_REPRESENTATION_CONTEXT() REPRESENTATION_CONTEXT('2D SPACE',''
  ) );
#753 = ORIENTED_EDGE('',*,*,#519,.F.);
#754 = ORIENTED_EDGE('',*,*,#755,.F.);
#755 = EDGE_CURVE('',#579,#520,#756,.T.);
#756 = SURFACE_CURVE('',#757,(#788,#822),.PCURVE_S1.);
#757 = B_SPLINE_CURVE_WITH_KNOTS('',5,(#758,#759,#760,#761,#762,#763,
    #764,#765,#766,#767,#768,#769,#770,#771,#772,#773,#774,#775,#776,
    #777,#778,#779,#780,#781,#782,#783,#784,#785,#786,#787),
  .UNSPECIFIED.,.F.,.F.,(6,4,4,4,4,4,4,6),(0.,7.708970052755E-02,
    0.249641548109,0.425380116644,0.587304723071,0.732454168451,
    0.874817720976,1.),.UNSPECIFIED.);
#758 = CARTESIAN_POINT('',(-0.137456063951,-0.634443710279,
    -4.108265735581E-03));
#759 = CARTESIAN_POINT('',(-0.120120852808,-0.638321240664,
    -2.947596171033E-03));
#760 = CARTESIAN_POINT('',(-0.102841960264,-0.641565317749,
    -1.443023887312E-03));
#761 = CARTESIAN_POINT('',(-8.565926319135E-02,-0.644193922801,
    4.457122502287E-04));
#762 = CARTESIAN_POINT('',(-6.861224395575E-02,-0.646228865298,
    2.754572223637E-03));
#763 = CARTESIAN_POINT('',(-1.397439394526E-02,-0.650979222179,
    1.169443185978E-02));
#764 = CARTESIAN_POINT('',(2.293654199886E-02,-0.651418951006,
    2.013982324456E-02));
#765 = CARTESIAN_POINT('',(5.851536976516E-02,-0.649293503349,
    3.12041047928E-02));
#766 = CARTESIAN_POINT('',(9.234037775799E-02,-0.645018115843,
    4.509420903958E-02));
#767 = CARTESIAN_POINT('',(0.156415998512,-0.633062291813,
    7.893459786136E-02));
#768 = CARTESIAN_POINT('',(0.186565507694,-0.625325053556,
    9.897974746046E-02));
#769 = CARTESIAN_POINT('',(0.214179830591,-0.616417286214,0.122034791553
    ));
#770 = CARTESIAN_POINT('',(0.239002272321,-0.60697571901,0.147956203487)
  );
#771 = CARTESIAN_POINT('',(0.281034551718,-0.58898890679,0.202665385086)
  );
#772 = CARTESIAN_POINT('',(0.298697906476,-0.580427495147,0.231079150541
    ));
#773 = CARTESIAN_POINT('',(0.313746885096,-0.572406603444,0.261436223437
    ));
#774 = CARTESIAN_POINT('',(0.326138117953,-0.565374869601,0.293404417843
    ));
#775 = CARTESIAN_POINT('',(0.344548318607,-0.554510383972,0.356339557794
    ));
#776 = CARTESIAN_POINT('',(0.351095476582,-0.550420804548,0.387071152073
    ));
#777 = CARTESIAN_POINT('',(0.35546272109,-0.547609001163,0.418480417822)
  );
#778 = CARTESIAN_POINT('',(0.357650271135,-0.546205940059,0.450231324628
    ));
#779 = CARTESIAN_POINT('',(0.357659814428,-0.546216475179,0.513136495821
    ));
#780 = CARTESIAN_POINT('',(0.355564802121,-0.547576540027,0.544278604038
    ));
#781 = CARTESIAN_POINT('',(0.351372681321,-0.550291672722,0.575098492253
    ));
#782 = CARTESIAN_POINT('',(0.345083365749,-0.554240674302,0.605278899455
    ));
#783 = CARTESIAN_POINT('',(0.329364846344,-0.563576003668,0.660251651697
    ));
#784 = CARTESIAN_POINT('',(0.320405380052,-0.568732026007,0.685257898042
    ));
#785 = CARTESIAN_POINT('',(0.309852128163,-0.574533513308,0.709366928874
    ));
#786 = CARTESIAN_POINT('',(0.2977225719,-0.580788639799,0.732416507428)
  );
#787 = CARTESIAN_POINT('',(0.284058776772,-0.587285598714,0.754275343858
    ));
#788 = PCURVE('',#538,#789);
#789 = DEFINITIONAL_REPRESENTATION('',(#790),#821);
#790 = B_SPLINE_CURVE_WITH_KNOTS('',5,(#791,#792,#793,#794,#795,#796,
    #797,#798,#799,#800,#801,#802,#803,#804,#805,#806,#807,#808,#809,
    #810,#811,#812,#813,#814,#815,#816,#817,#818,#819,#820),
  .UNSPECIFIED.,.F.,.F.,(6,4,4,4,4,4,4,6),(1.210759863127E-02,
    7.708970052755E-02,0.249641548109,0.425380116644,0.587304723071,
    0.732454168451,0.874817720976,0.998855259751),.UNSPECIFIED.);
#791 = CARTESIAN_POINT('',(2.942901287683,-9.0857574181E-09));
#792 = CARTESIAN_POINT('',(2.965746795621,1.168156027666E-03));
#793 = CARTESIAN_POINT('',(2.988377286467,2.593851886015E-03));
#794 = CARTESIAN_POINT('',(3.010785261513,4.300382073448E-03));
#795 = CARTESIAN_POINT('',(3.032961125231,6.308878955081E-03));
#796 = CARTESIAN_POINT('',(3.113131028783,1.482379980342E-02));
#797 = CARTESIAN_POINT('',(3.169681565601,2.327486434566E-02));
#798 = CARTESIAN_POINT('',(3.224264459689,3.434418728538E-02));
#799 = CARTESIAN_POINT('',(3.276551523127,4.823870671711E-02));
#800 = CARTESIAN_POINT('',(3.37668585822,8.208681322069E-02));
#801 = CARTESIAN_POINT('',(3.424396011598,0.102135240463));
#802 = CARTESIAN_POINT('',(3.468879263672,0.125192981475));
#803 = CARTESIAN_POINT('',(3.509643419847,0.151116577302));
#804 = CARTESIAN_POINT('',(3.579877039742,0.205829121826));
#805 = CARTESIAN_POINT('',(3.60999712995,0.234244132415));
#806 = CARTESIAN_POINT('',(3.636178823067,0.264602144297));
#807 = CARTESIAN_POINT('',(3.658062100671,0.296571040102));
#808 = CARTESIAN_POINT('',(3.690899770819,0.359507151901));
#809 = CARTESIAN_POINT('',(3.702753874957,0.390239053752));
#810 = CARTESIAN_POINT('',(3.710732865474,0.42164851034));
#811 = CARTESIAN_POINT('',(3.71472355949,0.453399513228));
#812 = CARTESIAN_POINT('',(3.714723559489,0.516304686027));
#813 = CARTESIAN_POINT('',(3.710884577387,0.547446703395));
#814 = CARTESIAN_POINT('',(3.703208760782,0.57826640956));
#815 = CARTESIAN_POINT('',(3.691800911922,0.608446523208));
#816 = CARTESIAN_POINT('',(3.663830532974,0.663183246117));
#817 = CARTESIAN_POINT('',(3.648118871918,0.687966808516));
#818 = CARTESIAN_POINT('',(3.629837289764,0.711870994545));
#819 = CARTESIAN_POINT('',(3.609137692517,0.734737771364));
#820 = CARTESIAN_POINT('',(3.586186750976,0.756438840048));
#821 = ( GEOMETRIC_REPRESENTATION_CONTEXT(2) 
PARAMETRIC_REPRESENTATION_CONTEXT() REPRESENTATION_CONTEXT('2D SPACE',''
  ) );
#822 = PCURVE('',#368,#823);
#823 = DEFINITIONAL_REPRESENTATION('',(#824),#855);
#824 = B_SPLINE_CURVE_WITH_KNOTS('',5,(#825,#826,#827,#828,#829,#830,
    #831,#832,#833,#834,#835,#836,#837,#838,#839,#840,#841,#842,#843,
    #844,#845,#846,#847,#848,#849,#850,#851,#852,#853,#854),
  .UNSPECIFIED.,.F.,.F.,(6,4,4,4,4,4,4,6),(0.,7.708970052755E-02,
    0.249641548109,0.425380116644,0.587304723071,0.732454168451,
    0.874817720976,1.),.UNSPECIFIED.);
#825 = CARTESIAN_POINT('',(1.677880481277,1.152036762808));
#826 = CARTESIAN_POINT('',(1.700150973526,1.166119165566));
#827 = CARTESIAN_POINT('',(1.723233829398,1.179679009279));
#828 = CARTESIAN_POINT('',(1.747075260408,1.192704546037));
#829 = CARTESIAN_POINT('',(1.771626097368,1.205187221157));
#830 = CARTESIAN_POINT('',(1.853282720745,1.243834862274));
#831 = CARTESIAN_POINT('',(1.913085378977,1.267816459986));
#832 = CARTESIAN_POINT('',(1.975697556037,1.288974399239));
#833 = CARTESIAN_POINT('',(2.040689159778,1.307357319814));
#834 = CARTESIAN_POINT('',(2.176021742329,1.339217369908));
#835 = CARTESIAN_POINT('',(2.246389381433,1.352586093405));
#836 = CARTESIAN_POINT('',(2.318463607868,1.363431247326));
#837 = CARTESIAN_POINT('',(2.391943965418,1.372077338467));
#838 = CARTESIAN_POINT('',(2.535275390248,1.385180341874));
#839 = CARTESIAN_POINT('',(2.604987363642,1.389915456665));
#840 = CARTESIAN_POINT('',(2.675470046667,1.393390356015));
#841 = CARTESIAN_POINT('',(2.746574016275,1.39592182204));
#842 = CARTESIAN_POINT('',(2.882327098494,1.399359150856));
#843 = CARTESIAN_POINT('',(2.946890432333,1.400406228233));
#844 = CARTESIAN_POINT('',(3.011698437794,1.401037809572));
#845 = CARTESIAN_POINT('',(3.076634484353,1.401354674606));
#846 = CARTESIAN_POINT('',(3.205285834106,1.401354674606));
#847 = CARTESIAN_POINT('',(3.268976398586,1.401049875619));
#848 = CARTESIAN_POINT('',(3.332546058614,1.400442201998));
#849 = CARTESIAN_POINT('',(3.395884274807,1.399438606431));
#850 = CARTESIAN_POINT('',(3.514216609041,1.396524822493));
#851 = CARTESIAN_POINT('',(3.569302108249,1.394738666684));
#852 = CARTESIAN_POINT('',(3.62404213625,1.39242732965));
#853 = CARTESIAN_POINT('',(3.678366729821,1.389454751739));
#854 = CARTESIAN_POINT('',(3.732186379317,1.385685272908));
#855 = ( GEOMETRIC_REPRESENTATION_CONTEXT(2) 
PARAMETRIC_REPRESENTATION_CONTEXT() REPRESENTATION_CONTEXT('2D SPACE',''
  ) );
#856 = ADVANCED_FACE('',(#857,#939,#1037),#368,.T.);
#857 = FACE_BOUND('',#858,.T.);
#858 = EDGE_LOOP('',(#859,#884,#911,#912));
#859 = ORIENTED_EDGE('',*,*,#860,.T.);
#860 = EDGE_CURVE('',#861,#863,#865,.T.);
#861 = VERTEX_POINT('',#862);
#862 = CARTESIAN_POINT('',(-1.290981753143,-9.664135603614E-02,
    0.482309579849));
#863 = VERTEX_POINT('',#864);
#864 = CARTESIAN_POINT('',(-0.319958652289,-1.260528579849,
    0.481967343274));
#865 = SEAM_CURVE('',#866,(#870,#877),.PCURVE_S1.);
#866 = LINE('',#867,#868);
#867 = CARTESIAN_POINT('',(-1.290981753143,-9.664135603614E-02,
    0.482309579849));
#868 = VECTOR('',#869,1.);
#869 = DIRECTION('',(0.640619219128,-0.767858688239,-2.257859026887E-04)
  );
#870 = PCURVE('',#368,#871);
#871 = DEFINITIONAL_REPRESENTATION('',(#872),#876);
#872 = LINE('',#873,#874);
#873 = CARTESIAN_POINT('',(6.28318530718,-0.));
#874 = VECTOR('',#875,1.);
#875 = DIRECTION('',(0.,1.));
#876 = ( GEOMETRIC_REPRESENTATION_CONTEXT(2) 
PARAMETRIC_REPRESENTATION_CONTEXT() REPRESENTATION_CONTEXT('2D SPACE',''
  ) );
#877 = PCURVE('',#368,#878);
#878 = DEFINITIONAL_REPRESENTATION('',(#879),#883);
#879 = LINE('',#880,#881);
#880 = CARTESIAN_POINT('',(0.,-0.));
#881 = VECTOR('',#882,1.);
#882 = DIRECTION('',(0.,1.));
#883 = ( GEOMETRIC_REPRESENTATION_CONTEXT(2) 
PARAMETRIC_REPRESENTATION_CONTEXT() REPRESENTATION_CONTEXT('2D SPACE',''
  ) );
#884 = ORIENTED_EDGE('',*,*,#885,.F.);
#885 = EDGE_CURVE('',#863,#863,#886,.T.);
#886 = SURFACE_CURVE('',#887,(#892,#899),.PCURVE_S1.);
#887 = CIRCLE('',#888,0.488958513995);
#888 = AXIS2_PLACEMENT_3D('',#889,#890,#891);
#889 = CARTESIAN_POINT('',(5.549240044025E-02,-0.947292350443,
    0.481967343274));
#890 = DIRECTION('',(0.640619219128,-0.767858688239,-2.257859026887E-04)
  );
#891 = DIRECTION('',(-0.767858707812,-0.640619235457,0.));
#892 = PCURVE('',#368,#893);
#893 = DEFINITIONAL_REPRESENTATION('',(#894),#898);
#894 = LINE('',#895,#896);
#895 = CARTESIAN_POINT('',(0.,1.515757054831));
#896 = VECTOR('',#897,1.);
#897 = DIRECTION('',(1.,0.));
#898 = ( GEOMETRIC_REPRESENTATION_CONTEXT(2) 
PARAMETRIC_REPRESENTATION_CONTEXT() REPRESENTATION_CONTEXT('2D SPACE',''
  ) );
#899 = PCURVE('',#900,#905);
#900 = PLANE('',#901);
#901 = AXIS2_PLACEMENT_3D('',#902,#903,#904);
#902 = CARTESIAN_POINT('',(5.549240044025E-02,-0.947292350443,
    0.481967343274));
#903 = DIRECTION('',(0.640619219128,-0.767858688239,-2.257859026887E-04)
  );
#904 = DIRECTION('',(-0.767858707812,-0.640619235457,0.));
#905 = DEFINITIONAL_REPRESENTATION('',(#906),#910);
#906 = CIRCLE('',#907,0.488958513995);
#907 = AXIS2_PLACEMENT_2D('',#908,#909);
#908 = CARTESIAN_POINT('',(0.,0.));
#909 = DIRECTION('',(1.,0.));
#910 = ( GEOMETRIC_REPRESENTATION_CONTEXT(2) 
PARAMETRIC_REPRESENTATION_CONTEXT() REPRESENTATION_CONTEXT('2D SPACE',''
  ) );
#911 = ORIENTED_EDGE('',*,*,#860,.F.);
#912 = ORIENTED_EDGE('',*,*,#913,.T.);
#913 = EDGE_CURVE('',#861,#861,#914,.T.);
#914 = SURFACE_CURVE('',#915,(#920,#927),.PCURVE_S1.);
#915 = CIRCLE('',#916,0.488958513995);
#916 = AXIS2_PLACEMENT_3D('',#917,#918,#919);
#917 = CARTESIAN_POINT('',(-0.915530700413,0.216594873369,0.482309579849
    ));
#918 = DIRECTION('',(0.640619219128,-0.767858688239,-2.257859026887E-04)
  );
#919 = DIRECTION('',(-0.767858707812,-0.640619235457,0.));
#920 = PCURVE('',#368,#921);
#921 = DEFINITIONAL_REPRESENTATION('',(#922),#926);
#922 = LINE('',#923,#924);
#923 = CARTESIAN_POINT('',(0.,0.));
#924 = VECTOR('',#925,1.);
#925 = DIRECTION('',(1.,0.));
#926 = ( GEOMETRIC_REPRESENTATION_CONTEXT(2) 
PARAMETRIC_REPRESENTATION_CONTEXT() REPRESENTATION_CONTEXT('2D SPACE',''
  ) );
#927 = PCURVE('',#928,#933);
#928 = PLANE('',#929);
#929 = AXIS2_PLACEMENT_3D('',#930,#931,#932);
#930 = CARTESIAN_POINT('',(-0.915530700413,0.216594873369,0.482309579849
    ));
#931 = DIRECTION('',(0.640619219128,-0.767858688239,-2.257859026887E-04)
  );
#932 = DIRECTION('',(-0.767858707812,-0.640619235457,0.));
#933 = DEFINITIONAL_REPRESENTATION('',(#934),#938);
#934 = CIRCLE('',#935,0.488958513995);
#935 = AXIS2_PLACEMENT_2D('',#936,#937);
#936 = CARTESIAN_POINT('',(0.,0.));
#937 = DIRECTION('',(1.,0.));
#938 = ( GEOMETRIC_REPRESENTATION_CONTEXT(2) 
PARAMETRIC_REPRESENTATION_CONTEXT() REPRESENTATION_CONTEXT('2D SPACE',''
  ) );
#939 = FACE_BOUND('',#940,.T.);
#940 = EDGE_LOOP('',(#941,#969));
#941 = ORIENTED_EDGE('',*,*,#942,.F.);
#942 = EDGE_CURVE('',#943,#945,#947,.T.);
#943 = VERTEX_POINT('',#944);
#944 = CARTESIAN_POINT('',(-0.585390047634,-0.274118059718,
    -2.979564022273E-03));
#945 = VERTEX_POINT('',#946);
#946 = CARTESIAN_POINT('',(-0.37154653606,-0.530435062679,
    -3.054933054068E-03));
#947 = SURFACE_CURVE('',#948,(#952,#958),.PCURVE_S1.);
#948 = LINE('',#949,#950);
#949 = CARTESIAN_POINT('',(-0.962331810487,0.177691687671,
    -2.846711098656E-03));
#950 = VECTOR('',#951,1.);
#951 = DIRECTION('',(0.640619219128,-0.767858688239,-2.257859026887E-04)
  );
#952 = PCURVE('',#368,#953);
#953 = DEFINITIONAL_REPRESENTATION('',(#954),#957);
#954 = B_SPLINE_CURVE_WITH_KNOTS('',1,(#955,#956),.UNSPECIFIED.,.F.,.F.,
  (2,2),(0.29014430607,1.247639628031),.PIECEWISE_BEZIER_KNOTS.);
#955 = CARTESIAN_POINT('',(1.446006578067,0.29014430607));
#956 = CARTESIAN_POINT('',(1.446006578067,1.247639628031));
#957 = ( GEOMETRIC_REPRESENTATION_CONTEXT(2) 
PARAMETRIC_REPRESENTATION_CONTEXT() REPRESENTATION_CONTEXT('2D SPACE',''
  ) );
#958 = PCURVE('',#959,#964);
#959 = PLANE('',#960);
#960 = AXIS2_PLACEMENT_3D('',#961,#962,#963);
#961 = CARTESIAN_POINT('',(4.620749799956E-03,7.613032891822E-04,
    -3.023038342806E-03));
#962 = DIRECTION('',(1.517092109617E-04,-1.674762070584E-04,
    0.999999974468));
#963 = DIRECTION('',(0.,0.999999985976,1.674762089857E-04));
#964 = DEFINITIONAL_REPRESENTATION('',(#965),#968);
#965 = B_SPLINE_CURVE_WITH_KNOTS('',1,(#966,#967),.UNSPECIFIED.,.F.,.F.,
  (2,2),(0.29014430607,1.247639628031),.PIECEWISE_BEZIER_KNOTS.);
#966 = CARTESIAN_POINT('',(-4.585942267504E-02,0.781080550487));
#967 = CARTESIAN_POINT('',(-0.781080550487,0.167690637955));
#968 = ( GEOMETRIC_REPRESENTATION_CONTEXT(2) 
PARAMETRIC_REPRESENTATION_CONTEXT() REPRESENTATION_CONTEXT('2D SPACE',''
  ) );
#969 = ORIENTED_EDGE('',*,*,#970,.T.);
#970 = EDGE_CURVE('',#943,#945,#971,.T.);
#971 = SURFACE_CURVE('',#972,(#990,#1011),.PCURVE_S1.);
#972 = B_SPLINE_CURVE_WITH_KNOTS('',6,(#973,#974,#975,#976,#977,#978,
    #979,#980,#981,#982,#983,#984,#985,#986,#987,#988,#989),
  .UNSPECIFIED.,.F.,.F.,(7,5,5,7),(0.,0.172468503247,0.499827998904,1.),
  .UNSPECIFIED.);
#973 = CARTESIAN_POINT('',(-0.597720822508,-0.245929059555,
    -3.973372368693E-03));
#974 = CARTESIAN_POINT('',(-0.593463940645,-0.256322965388,
    -3.611333624926E-03));
#975 = CARTESIAN_POINT('',(-0.588974596371,-0.266670888835,
    -3.242953448093E-03));
#976 = CARTESIAN_POINT('',(-0.584252542772,-0.276963882279,
    -2.875470910453E-03));
#977 = CARTESIAN_POINT('',(-0.579298342726,-0.287192652637,
    -2.515619999076E-03));
#978 = CARTESIAN_POINT('',(-0.5741133689,-0.297347561365,
    -2.169629615844E-03));
#979 = CARTESIAN_POINT('',(-0.558424408975,-0.326534335854,
    -1.223677897544E-03));
#980 = CARTESIAN_POINT('',(-0.547321338396,-0.34535586249,
    -6.742349510371E-04));
#981 = CARTESIAN_POINT('',(-0.535410906476,-0.363803377174,
    -2.340848739461E-04));
#982 = CARTESIAN_POINT('',(-0.522723413547,-0.381804611835,
    6.80270387835E-05));
#983 = CARTESIAN_POINT('',(-0.50929747403,-0.399295128898,
    2.164892646607E-04));
#984 = CARTESIAN_POINT('',(-0.473605751605,-0.442075923392,
    2.039097360959E-04));
#985 = CARTESIAN_POINT('',(-0.450465707058,-0.466548613891,
    -1.620657584777E-04));
#986 = CARTESIAN_POINT('',(-0.425918002737,-0.489466664536,
    -8.841587764284E-04));
#987 = CARTESIAN_POINT('',(-0.400159956141,-0.510686487861,
    -1.881613499751E-03));
#988 = CARTESIAN_POINT('',(-0.373431264087,-0.530093072396,
    -2.999482002232E-03));
#989 = CARTESIAN_POINT('',(-0.346024049312,-0.54761772004,
    -4.062082762391E-03));
#990 = PCURVE('',#368,#991);
#991 = DEFINITIONAL_REPRESENTATION('',(#992),#1010);
#992 = B_SPLINE_CURVE_WITH_KNOTS('',6,(#993,#994,#995,#996,#997,#998,
    #999,#1000,#1001,#1002,#1003,#1004,#1005,#1006,#1007,#1008,#1009),
  .UNSPECIFIED.,.F.,.F.,(7,5,5,7),(0.,0.172468503247,0.499827998904,1.),
  .UNSPECIFIED.);
#993 = CARTESIAN_POINT('',(1.463693766795,0.558857932066));
#994 = CARTESIAN_POINT('',(1.456721011659,0.569565941556));
#995 = CARTESIAN_POINT('',(1.450169708101,0.580387561528));
#996 = CARTESIAN_POINT('',(1.444052936631,0.591316081289));
#997 = CARTESIAN_POINT('',(1.438383113138,0.602344005994));
#998 = CARTESIAN_POINT('',(1.43317198889,0.613463056653));
#999 = CARTESIAN_POINT('',(1.419431197856,0.645924810699));
#1000 = CARTESIAN_POINT('',(1.412120198492,0.667489799801));
#1001 = CARTESIAN_POINT('',(1.40657981723,0.689284836444));
#1002 = CARTESIAN_POINT('',(1.402865909618,0.711235024478));
#1003 = CARTESIAN_POINT('',(1.401007748089,0.733266151335));
#1004 = CARTESIAN_POINT('',(1.401007748089,0.788980562266));
#1005 = CARTESIAN_POINT('',(1.40534564209,0.822596170191));
#1006 = CARTESIAN_POINT('',(1.413993547853,0.855919888708));
#1007 = CARTESIAN_POINT('',(1.426801530673,0.888715039319));
#1008 = CARTESIAN_POINT('',(1.443498137521,0.920739720094));
#1009 = CARTESIAN_POINT('',(1.463693766795,0.951754001494));
#1010 = ( GEOMETRIC_REPRESENTATION_CONTEXT(2) 
PARAMETRIC_REPRESENTATION_CONTEXT() REPRESENTATION_CONTEXT('2D SPACE',''
  ) );
#1011 = PCURVE('',#1012,#1017);
#1012 = CYLINDRICAL_SURFACE('',#1013,0.650900458739);
#1013 = AXIS2_PLACEMENT_3D('',#1014,#1015,#1016);
#1014 = CARTESIAN_POINT('',(4.620749799956E-03,7.613032891822E-04,
    -3.023038342806E-03));
#1015 = DIRECTION('',(1.517092109617E-04,-1.674762070584E-04,
    0.999999974468));
#1016 = DIRECTION('',(0.,0.999999985976,1.674762089857E-04));
#1017 = DEFINITIONAL_REPRESENTATION('',(#1018),#1036);
#1018 = B_SPLINE_CURVE_WITH_KNOTS('',6,(#1019,#1020,#1021,#1022,#1023,
    #1024,#1025,#1026,#1027,#1028,#1029,#1030,#1031,#1032,#1033,#1034,
    #1035),.UNSPECIFIED.,.F.,.F.,(7,5,5,7),(0.,0.172468503247,
    0.499827998904,1.),.UNSPECIFIED.);
#1019 = CARTESIAN_POINT('',(1.95951051218,-1.0004E-03));
#1020 = CARTESIAN_POINT('',(1.976766248844,-6.359747253625E-04));
#1021 = CARTESIAN_POINT('',(1.99409194616,-2.651804520883E-04));
#1022 = CARTESIAN_POINT('',(2.011484332345,1.047422866958E-04));
#1023 = CARTESIAN_POINT('',(2.028939463223,4.670578623279E-04));
#1024 = CARTESIAN_POINT('',(2.046452722222,8.155355506111E-04));
#1025 = CARTESIAN_POINT('',(2.097360728745,1.768755494777E-03));
#1026 = CARTESIAN_POINT('',(2.130906603103,2.323035023225E-03));
#1027 = CARTESIAN_POINT('',(2.164600447538,2.768081531096E-03));
#1028 = CARTESIAN_POINT('',(2.198393081558,3.075133024157E-03));
#1029 = CARTESIAN_POINT('',(2.232240253557,3.228561330391E-03));
#1030 = CARTESIAN_POINT('',(2.317836154103,3.228561330391E-03));
#1031 = CARTESIAN_POINT('',(2.369480899226,2.870194996442E-03));
#1032 = CARTESIAN_POINT('',(2.420926619232,2.155664337978E-03));
#1033 = CARTESIAN_POINT('',(2.472053938466,1.165671188571E-03));
#1034 = CARTESIAN_POINT('',(2.522712120901,5.510784458373E-05));
#1035 = CARTESIAN_POINT('',(2.572690996353,-1.0004E-03));
#1036 = ( GEOMETRIC_REPRESENTATION_CONTEXT(2) 
PARAMETRIC_REPRESENTATION_CONTEXT() REPRESENTATION_CONTEXT('2D SPACE',''
  ) );
#1037 = FACE_BOUND('',#1038,.T.);
#1038 = EDGE_LOOP('',(#1039,#1040,#1041,#1042,#1043,#1044));
#1039 = ORIENTED_EDGE('',*,*,#234,.T.);
#1040 = ORIENTED_EDGE('',*,*,#578,.T.);
#1041 = ORIENTED_EDGE('',*,*,#755,.T.);
#1042 = ORIENTED_EDGE('',*,*,#550,.F.);
#1043 = ORIENTED_EDGE('',*,*,#652,.F.);
#1044 = ORIENTED_EDGE('',*,*,#627,.T.);
#1045 = ADVANCED_FACE('',(#1046),#928,.F.);
#1046 = FACE_BOUND('',#1047,.T.);
#1047 = EDGE_LOOP('',(#1048));
#1048 = ORIENTED_EDGE('',*,*,#913,.F.);
#1049 = ADVANCED_FACE('',(#1050),#900,.T.);
#1050 = FACE_BOUND('',#1051,.T.);
#1051 = EDGE_LOOP('',(#1052));
#1052 = ORIENTED_EDGE('',*,*,#885,.T.);
#1053 = ADVANCED_FACE('',(#1054),#959,.F.);
#1054 = FACE_BOUND('',#1055,.F.);
#1055 = EDGE_LOOP('',(#1056,#1057));
#1056 = ORIENTED_EDGE('',*,*,#942,.F.);
#1057 = ORIENTED_EDGE('',*,*,#1058,.T.);
#1058 = EDGE_CURVE('',#943,#945,#1059,.T.);
#1059 = SURFACE_CURVE('',#1060,(#1065,#1072),.PCURVE_S1.);
#1060 = CIRCLE('',#1061,0.650900458739);
#1061 = AXIS2_PLACEMENT_3D('',#1062,#1063,#1064);
#1062 = CARTESIAN_POINT('',(4.620749799956E-03,7.613032891822E-04,
    -3.023038342806E-03));
#1063 = DIRECTION('',(1.517092109617E-04,-1.674762070584E-04,
    0.999999974468));
#1064 = DIRECTION('',(0.,0.999999985976,1.674762089857E-04));
#1065 = PCURVE('',#959,#1066);
#1066 = DEFINITIONAL_REPRESENTATION('',(#1067),#1071);
#1067 = CIRCLE('',#1068,0.650900458739);
#1068 = AXIS2_PLACEMENT_2D('',#1069,#1070);
#1069 = CARTESIAN_POINT('',(0.,0.));
#1070 = DIRECTION('',(1.,0.));
#1071 = ( GEOMETRIC_REPRESENTATION_CONTEXT(2) 
PARAMETRIC_REPRESENTATION_CONTEXT() REPRESENTATION_CONTEXT('2D SPACE',''
  ) );
#1072 = PCURVE('',#1012,#1073);
#1073 = DEFINITIONAL_REPRESENTATION('',(#1074),#1078);
#1074 = LINE('',#1075,#1076);
#1075 = CARTESIAN_POINT('',(0.,0.));
#1076 = VECTOR('',#1077,1.);
#1077 = DIRECTION('',(1.,0.));
#1078 = ( GEOMETRIC_REPRESENTATION_CONTEXT(2) 
PARAMETRIC_REPRESENTATION_CONTEXT() REPRESENTATION_CONTEXT('2D SPACE',''
  ) );
#1079 = ADVANCED_FACE('',(#1080),#1012,.T.);
#1080 = FACE_BOUND('',#1081,.T.);
#1081 = EDGE_LOOP('',(#1082,#1083));
#1082 = ORIENTED_EDGE('',*,*,#970,.F.);
#1083 = ORIENTED_EDGE('',*,*,#1058,.T.);
#1084 = ( GEOMETRIC_REPRESENTATION_CONTEXT(3) 
GLOBAL_UNCERTAINTY_ASSIGNED_CONTEXT((#1088)) 
GLOBAL_UNIT_ASSIGNED_CONTEXT((#1085,#1086,#1087)) REPRESENTATION_CONTEXT
('Context #1','3D Context with UNIT and UNCERTAINTY') );
#1085 = ( LENGTH_UNIT() NAMED_UNIT(*) SI_UNIT(.MILLI.,.METRE.) );
#1086 = ( NAMED_UNIT(*) PLANE_ANGLE_UNIT() SI_UNIT($,.RADIAN.) );
#1087 = ( NAMED_UNIT(*) SI_UNIT($,.STERADIAN.) SOLID_ANGLE_UNIT() );
#1088 = UNCERTAINTY_MEASURE_WITH_UNIT(LENGTH_MEASURE(5.E-07),#1085,
  'distance_accuracy_value','confusion accuracy');
#1089 = PRODUCT_TYPE('part',$,(#7));
ENDSEC;
END-ISO-10303-21;
