ISO-10303-21;
HEADER;
FILE_DESCRIPTION(('Open CASCADE Model'),'2;1');
FILE_NAME('Open CASCADE Shape Model','2026-06-20T23:43:36',('Author'),(
    'Open CASCADE'),'Open CASCADE STEP processor 7.8','Open CASCADE 7.8'
  ,'Unknown');
FILE_SCHEMA(('CONFIG_CONTROL_DESIGN'));
ENDSEC;
DATA;
#1 = APPLICATION_PROTOCOL_DEFINITION('committee draft',
  'automotive_design',1997,#2);
#2 = APPLICATION_CONTEXT(
  'core data for automotive mechanical design processes');
#3 = SHAPE_DEFINITION_REPRESENTATION(#4,#10);
#4 = PRODUCT_DEFINITION_SHAPE('','',#5);
#5 = PRODUCT_DEFINITION('design','',#6,#9);
#6 = PRODUCT_DEFINITION_FORMATION('','',#7);
#7 = PRODUCT('Product 7','Product 7','',(#8));
#8 = MECHANICAL_CONTEXT('',#2,'mechanical');
#9 = PRODUCT_DEFINITION_CONTEXT('part definition',#2,'design');
#10 = ADVANCED_BREP_SHAPE_REPRESENTATION('',(#11,#15),#272);
#11 = AXIS2_PLACEMENT_3D('',#12,#13,#14);
#12 = CARTESIAN_POINT('',(0.,0.,0.));
#13 = DIRECTION('',(0.,0.,1.));
#14 = DIRECTION('',(1.,0.,-0.));
#15 = MANIFOLD_SOLID_BREP('',#16);
#16 = CLOSED_SHELL('',(#17,#260,#268));
#17 = ADVANCED_FACE('',(#18),#32,.T.);
#18 = FACE_BOUND('',#19,.T.);
#19 = EDGE_LOOP('',(#20,#50,#77,#78));
#20 = ORIENTED_EDGE('',*,*,#21,.T.);
#21 = EDGE_CURVE('',#22,#24,#26,.T.);
#22 = VERTEX_POINT('',#23);
#23 = CARTESIAN_POINT('',(-6.976230329161E-05,-0.995054493438,
    -15.84366772569));
#24 = VERTEX_POINT('',#25);
#25 = CARTESIAN_POINT('',(-5.122960933101E-05,-63.49999425838,
    -11.90616372051));
#26 = SEAM_CURVE('',#27,(#31,#43),.PCURVE_S1.);
#27 = LINE('',#28,#29);
#28 = CARTESIAN_POINT('',(-6.976230329161E-05,-0.995054493438,
    -15.84366772569));
#29 = VECTOR('',#30,1.);
#30 = DIRECTION('',(2.959131025734E-07,-0.998021695676,
    6.287046173898E-02));
#31 = PCURVE('',#32,#37);
#32 = CONICAL_SURFACE('',#33,15.843784227856,6.291243579156E-02);
#33 = AXIS2_PLACEMENT_3D('',#34,#35,#36);
#34 = CARTESIAN_POINT('',(-6.976230328773E-05,-0.995062134081,
    1.165021556398E-04));
#35 = DIRECTION('',(-2.964996781429E-07,1.,4.822485948352E-07));
#36 = DIRECTION('',(0.,4.822485948352E-07,-1.));
#37 = DEFINITIONAL_REPRESENTATION('',(#38),#42);
#38 = LINE('',#39,#40);
#39 = CARTESIAN_POINT('',(-6.28318530718,0.));
#40 = VECTOR('',#41,1.);
#41 = DIRECTION('',(-0.,-1.));
#42 = ( GEOMETRIC_REPRESENTATION_CONTEXT(2) 
PARAMETRIC_REPRESENTATION_CONTEXT() REPRESENTATION_CONTEXT('2D SPACE',''
  ) );
#43 = PCURVE('',#32,#44);
#44 = DEFINITIONAL_REPRESENTATION('',(#45),#49);
#45 = LINE('',#46,#47);
#46 = CARTESIAN_POINT('',(0.,-0.));
#47 = VECTOR('',#48,1.);
#48 = DIRECTION('',(-0.,-1.));
#49 = ( GEOMETRIC_REPRESENTATION_CONTEXT(2) 
PARAMETRIC_REPRESENTATION_CONTEXT() REPRESENTATION_CONTEXT('2D SPACE',''
  ) );
#50 = ORIENTED_EDGE('',*,*,#51,.F.);
#51 = EDGE_CURVE('',#24,#24,#52,.T.);
#52 = SURFACE_CURVE('',#53,(#58,#65),.PCURVE_S1.);
#53 = CIRCLE('',#54,11.90625007975);
#54 = AXIS2_PLACEMENT_3D('',#55,#56,#57);
#55 = CARTESIAN_POINT('',(-5.122960932809E-05,-63.50000000015,
    8.635923718357E-05));
#56 = DIRECTION('',(2.964996781429E-07,-1.,-4.822485948352E-07));
#57 = DIRECTION('',(-2.524354896707E-29,4.822485948352E-07,-1.));
#58 = PCURVE('',#32,#59);
#59 = DEFINITIONAL_REPRESENTATION('',(#60),#64);
#60 = LINE('',#61,#62);
#61 = CARTESIAN_POINT('',(-0.,-62.50493786608));
#62 = VECTOR('',#63,1.);
#63 = DIRECTION('',(-1.,-0.));
#64 = ( GEOMETRIC_REPRESENTATION_CONTEXT(2) 
PARAMETRIC_REPRESENTATION_CONTEXT() REPRESENTATION_CONTEXT('2D SPACE',''
  ) );
#65 = PCURVE('',#66,#71);
#66 = PLANE('',#67);
#67 = AXIS2_PLACEMENT_3D('',#68,#69,#70);
#68 = CARTESIAN_POINT('',(-5.122960932809E-05,-63.50000000015,
    8.635923718357E-05));
#69 = DIRECTION('',(2.964996781429E-07,-1.,-4.822485948352E-07));
#70 = DIRECTION('',(0.,4.822485948352E-07,-1.));
#71 = DEFINITIONAL_REPRESENTATION('',(#72),#76);
#72 = CIRCLE('',#73,11.90625007975);
#73 = AXIS2_PLACEMENT_2D('',#74,#75);
#74 = CARTESIAN_POINT('',(0.,0.));
#75 = DIRECTION('',(1.,0.));
#76 = ( GEOMETRIC_REPRESENTATION_CONTEXT(2) 
PARAMETRIC_REPRESENTATION_CONTEXT() REPRESENTATION_CONTEXT('2D SPACE',''
  ) );
#77 = ORIENTED_EDGE('',*,*,#21,.F.);
#78 = ORIENTED_EDGE('',*,*,#79,.T.);
#79 = EDGE_CURVE('',#22,#22,#80,.T.);
#80 = SURFACE_CURVE('',#81,(#86,#93),.PCURVE_S1.);
#81 = CIRCLE('',#82,15.843784227856);
#82 = AXIS2_PLACEMENT_3D('',#83,#84,#85);
#83 = CARTESIAN_POINT('',(-6.976230328773E-05,-0.995062134081,
    1.165021556398E-04));
#84 = DIRECTION('',(2.964996781429E-07,-1.,-4.822485948352E-07));
#85 = DIRECTION('',(-2.524354896707E-29,4.822485948352E-07,-1.));
#86 = PCURVE('',#32,#87);
#87 = DEFINITIONAL_REPRESENTATION('',(#88),#92);
#88 = LINE('',#89,#90);
#89 = CARTESIAN_POINT('',(-0.,-0.));
#90 = VECTOR('',#91,1.);
#91 = DIRECTION('',(-1.,-0.));
#92 = ( GEOMETRIC_REPRESENTATION_CONTEXT(2) 
PARAMETRIC_REPRESENTATION_CONTEXT() REPRESENTATION_CONTEXT('2D SPACE',''
  ) );
#93 = PCURVE('',#94,#99);
#94 = SPHERICAL_SURFACE('',#95,15.874933741436);
#95 = AXIS2_PLACEMENT_3D('',#96,#97,#98);
#96 = CARTESIAN_POINT('',(-2.15420299463E-07,1.134966079418E-04,
    -1.119008847653E-06));
#97 = DIRECTION('',(0.,0.,1.));
#98 = DIRECTION('',(1.,0.,-0.));
#99 = DEFINITIONAL_REPRESENTATION('',(#100),#259);
#100 = B_SPLINE_CURVE_WITH_KNOTS('',8,(#101,#102,#103,#104,#105,#106,
    #107,#108,#109,#110,#111,#112,#113,#114,#115,#116,#117,#118,#119,
    #120,#121,#122,#123,#124,#125,#126,#127,#128,#129,#130,#131,#132,
    #133,#134,#135,#136,#137,#138,#139,#140,#141,#142,#143,#144,#145,
    #146,#147,#148,#149,#150,#151,#152,#153,#154,#155,#156,#157,#158,
    #159,#160,#161,#162,#163,#164,#165,#166,#167,#168,#169,#170,#171,
    #172,#173,#174,#175,#176,#177,#178,#179,#180,#181,#182,#183,#184,
    #185,#186,#187,#188,#189,#190,#191,#192,#193,#194,#195,#196,#197,
    #198,#199,#200,#201,#202,#203,#204,#205,#206,#207,#208,#209,#210,
    #211,#212,#213,#214,#215,#216,#217,#218,#219,#220,#221,#222,#223,
    #224,#225,#226,#227,#228,#229,#230,#231,#232,#233,#234,#235,#236,
    #237,#238,#239,#240,#241,#242,#243,#244,#245,#246,#247,#248,#249,
    #250,#251,#252,#253,#254,#255,#256,#257,#258),.UNSPECIFIED.,.T.,.F.,
  (9,7,7,7,5,7,7,7,7,4,7,7,7,7,7,7,7,7,7,7,7,7,7,9),(0.,0.232588635159,
    0.348882952739,0.407030111529,0.465177270319,0.51309237016,
    0.605927876102,0.779994449742,1.084610953614,1.998460465228,
    2.534051070472,3.002692850061,3.207723628631,3.39993998354,
    3.490041399904,3.577327147006,3.619606180759,3.661224604609,
    3.743160876564,3.901912403478,4.19957151644,5.24137841181,
    5.762281859495,6.28318530718),.UNSPECIFIED.);
#101 = CARTESIAN_POINT('',(3.280709260536,-1.101708361731));
#102 = CARTESIAN_POINT('',(3.288663977358,-1.130501192258));
#103 = CARTESIAN_POINT('',(3.297779118353,-1.159257607067));
#104 = CARTESIAN_POINT('',(3.308371191237,-1.187967128924));
#105 = CARTESIAN_POINT('',(3.320745548633,-1.21662085679));
#106 = CARTESIAN_POINT('',(3.335585116211,-1.245196073631));
#107 = CARTESIAN_POINT('',(3.353732420544,-1.273665531146));
#108 = CARTESIAN_POINT('',(3.376498430988,-1.301988317573));
#109 = CARTESIAN_POINT('',(3.423198379321,-1.344064663311));
#110 = CARTESIAN_POINT('',(3.440868895092,-1.358021551755));
#111 = CARTESIAN_POINT('',(3.461072431493,-1.371896818388));
#112 = CARTESIAN_POINT('',(3.484528753167,-1.385664395638));
#113 = CARTESIAN_POINT('',(3.51211982951,-1.399294480466));
#114 = CARTESIAN_POINT('',(3.54509993073,-1.412745832696));
#115 = CARTESIAN_POINT('',(3.585644225533,-1.425941101247));
#116 = CARTESIAN_POINT('',(3.663781707895,-1.445117216799));
#117 = CARTESIAN_POINT('',(3.692712172604,-1.451406339342));
#118 = CARTESIAN_POINT('',(3.725056642446,-1.457572386725));
#119 = CARTESIAN_POINT('',(3.761405883106,-1.463589866269));
#120 = CARTESIAN_POINT('',(3.80255304325,-1.469425208043));
#121 = CARTESIAN_POINT('',(3.849529808018,-1.475032631995));
#122 = CARTESIAN_POINT('',(3.903537720834,-1.480348625969));
#123 = CARTESIAN_POINT('',(4.028011626248,-1.490221443228));
#124 = CARTESIAN_POINT('',(4.09846609848,-1.494778965234));
#125 = CARTESIAN_POINT('',(4.178343022158,-1.498866418022));
#126 = CARTESIAN_POINT('',(4.268519442279,-1.502382515572));
#127 = CARTESIAN_POINT('',(4.369862827476,-1.505179730016));
#128 = CARTESIAN_POINT('',(4.572380308328,-1.508692050945));
#129 = CARTESIAN_POINT('',(4.790488645662,-1.508997805407));
#130 = CARTESIAN_POINT('',(4.995762409575,-1.506109735828));
#131 = CARTESIAN_POINT('',(5.083113263204,-1.50419070425));
#132 = CARTESIAN_POINT('',(5.163619462777,-1.501732643966));
#133 = CARTESIAN_POINT('',(5.23702635893,-1.498817792272));
#134 = CARTESIAN_POINT('',(5.303600633907,-1.495513870411));
#135 = CARTESIAN_POINT('',(5.480524935081,-1.484846102118));
#136 = CARTESIAN_POINT('',(5.573410498128,-1.476578852276));
#137 = CARTESIAN_POINT('',(5.646144085589,-1.467522149887));
#138 = CARTESIAN_POINT('',(5.705738736819,-1.457960630637));
#139 = CARTESIAN_POINT('',(5.754829904668,-1.448017960542));
#140 = CARTESIAN_POINT('',(5.796290707514,-1.437804811095));
#141 = CARTESIAN_POINT('',(5.831655998447,-1.427378702689));
#142 = CARTESIAN_POINT('',(5.91948205532,-1.396928755522));
#143 = CARTESIAN_POINT('',(5.959825101615,-1.376488431178));
#144 = CARTESIAN_POINT('',(5.991292564099,-1.355762150712));
#145 = CARTESIAN_POINT('',(6.016592643835,-1.334832921333));
#146 = CARTESIAN_POINT('',(6.037384464419,-1.313756415848));
#147 = CARTESIAN_POINT('',(6.055005890516,-1.292580992588));
#148 = CARTESIAN_POINT('',(6.070029319502,-1.271320270904));
#149 = CARTESIAN_POINT('',(6.105829468174,-1.212678974888));
#150 = CARTESIAN_POINT('',(6.122447208661,-1.175164088989));
#151 = CARTESIAN_POINT('',(6.13568245088,-1.137544365621));
#152 = CARTESIAN_POINT('',(6.146483165943,-1.099845963908));
#153 = CARTESIAN_POINT('',(6.155464722646,-1.062090397224));
#154 = CARTESIAN_POINT('',(6.163132578934,-1.024295833162));
#155 = CARTESIAN_POINT('',(6.169705173965,-0.986465229198));
#156 = CARTESIAN_POINT('',(6.19254700038,-0.835039892414));
#157 = CARTESIAN_POINT('',(6.201896445999,-0.721227738171));
#158 = CARTESIAN_POINT('',(6.208922567956,-0.607358596975));
#159 = CARTESIAN_POINT('',(6.213388222728,-0.49340280781));
#160 = CARTESIAN_POINT('',(6.21881577599,-0.31264917956));
#161 = CARTESIAN_POINT('',(6.221010233318,-0.131809883349));
#162 = CARTESIAN_POINT('',(6.221348825804,4.901468245452E-02));
#163 = CARTESIAN_POINT('',(6.21911534896,0.229834261825));
#164 = CARTESIAN_POINT('',(6.217958839521,0.29664373489));
#165 = CARTESIAN_POINT('',(6.216410892739,0.363445984976));
#166 = CARTESIAN_POINT('',(6.214397731252,0.430238130888));
#167 = CARTESIAN_POINT('',(6.20954163908,0.555448129465));
#168 = CARTESIAN_POINT('',(6.206828477651,0.613867953659));
#169 = CARTESIAN_POINT('',(6.203606120182,0.672274297418));
#170 = CARTESIAN_POINT('',(6.199737607959,0.730663235513));
#171 = CARTESIAN_POINT('',(6.195069346767,0.789029478498));
#172 = CARTESIAN_POINT('',(6.189394472127,0.847365244762));
#173 = CARTESIAN_POINT('',(6.182321467514,0.905657415574));
#174 = CARTESIAN_POINT('',(6.168990909071,0.989356654564));
#175 = CARTESIAN_POINT('',(6.164515440588,1.014816790458));
#176 = CARTESIAN_POINT('',(6.159540147566,1.040261690204));
#177 = CARTESIAN_POINT('',(6.153983583418,1.065688812378));
#178 = CARTESIAN_POINT('',(6.147739182901,1.091094390508));
#179 = CARTESIAN_POINT('',(6.140650107494,1.116473058841));
#180 = CARTESIAN_POINT('',(6.132484090784,1.141817478111));
#181 = CARTESIAN_POINT('',(6.113930964855,1.190837164295));
#182 = CARTESIAN_POINT('',(6.103714291056,1.214515782539));
#183 = CARTESIAN_POINT('',(6.091944929887,1.238148254857));
#184 = CARTESIAN_POINT('',(6.078288259266,1.261717689345));
#185 = CARTESIAN_POINT('',(6.06210238736,1.285206281565));
#186 = CARTESIAN_POINT('',(6.042560409085,1.308590510541));
#187 = CARTESIAN_POINT('',(6.018378778716,1.331822491514));
#188 = CARTESIAN_POINT('',(5.971336036979,1.365569039146));
#189 = CARTESIAN_POINT('',(5.954595602852,1.376282209472));
#190 = CARTESIAN_POINT('',(5.935805094656,1.386928301102));
#191 = CARTESIAN_POINT('',(5.914513817234,1.397491417931));
#192 = CARTESIAN_POINT('',(5.890150564777,1.407951686183));
#193 = CARTESIAN_POINT('',(5.861934164178,1.418281977969));
#194 = CARTESIAN_POINT('',(5.828687658155,1.428439514225));
#195 = CARTESIAN_POINT('',(5.749678708459,1.447955403784));
#196 = CARTESIAN_POINT('',(5.704327986016,1.457326394674));
#197 = CARTESIAN_POINT('',(5.650906018042,1.466409089539));
#198 = CARTESIAN_POINT('',(5.586769854687,1.475082722327));
#199 = CARTESIAN_POINT('',(5.509331599558,1.483235531889));
#200 = CARTESIAN_POINT('',(5.413582072408,1.490642860954));
#201 = CARTESIAN_POINT('',(5.292974777219,1.496881394973));
#202 = CARTESIAN_POINT('',(5.081647428122,1.503753646855));
#203 = CARTESIAN_POINT('',(5.007594284331,1.50561855681));
#204 = CARTESIAN_POINT('',(4.928745194462,1.507059091833));
#205 = CARTESIAN_POINT('',(4.845965910453,1.508024340372));
#206 = CARTESIAN_POINT('',(4.760801030131,1.508477765056));
#207 = CARTESIAN_POINT('',(4.675291787125,1.50840721276));
#208 = CARTESIAN_POINT('',(4.591500789816,1.507826409596));
#209 = CARTESIAN_POINT('',(4.431248458152,1.505726010619));
#210 = CARTESIAN_POINT('',(4.354704899556,1.504221100862));
#211 = CARTESIAN_POINT('',(4.282499476366,1.502283010241));
#212 = CARTESIAN_POINT('',(4.215424888328,1.499958414925));
#213 = CARTESIAN_POINT('',(4.153731555875,1.4972984634));
#214 = CARTESIAN_POINT('',(4.097248901487,1.494350823843));
#215 = CARTESIAN_POINT('',(4.045576448608,1.491156183994));
#216 = CARTESIAN_POINT('',(3.90535730809,1.481041710833));
#217 = CARTESIAN_POINT('',(3.82957427272,1.473511916514));
#218 = CARTESIAN_POINT('',(3.767796001226,1.465425895605));
#219 = CARTESIAN_POINT('',(3.716283059096,1.456952823926));
#220 = CARTESIAN_POINT('',(3.672586930117,1.448191400002));
#221 = CARTESIAN_POINT('',(3.635203832835,1.439205516173));
#222 = CARTESIAN_POINT('',(3.602747546772,1.430047829206));
#223 = CARTESIAN_POINT('',(3.519292046528,1.402735105306));
#224 = CARTESIAN_POINT('',(3.479405315089,1.384198692229));
#225 = CARTESIAN_POINT('',(3.447958092538,1.36538376176));
#226 = CARTESIAN_POINT('',(3.422420664459,1.346378054973));
#227 = CARTESIAN_POINT('',(3.401236474091,1.327229819655));
#228 = CARTESIAN_POINT('',(3.383203277218,1.307978163471));
#229 = CARTESIAN_POINT('',(3.367732218301,1.288646762115));
#230 = CARTESIAN_POINT('',(3.329015660244,1.232880525485));
#231 = CARTESIAN_POINT('',(3.310833908097,1.196287677663));
#232 = CARTESIAN_POINT('',(3.296418080335,1.159569400743));
#233 = CARTESIAN_POINT('',(3.284711386528,1.122771903698));
#234 = CARTESIAN_POINT('',(3.275016787334,1.085910990157));
#235 = CARTESIAN_POINT('',(3.266749149203,1.048999182369));
#236 = CARTESIAN_POINT('',(3.25968256139,1.012056348296));
#237 = CARTESIAN_POINT('',(3.232086538164,0.845670568593));
#238 = CARTESIAN_POINT('',(3.222106108781,0.715914136302));
#239 = CARTESIAN_POINT('',(3.214123765829,0.586077731468));
#240 = CARTESIAN_POINT('',(3.209915440068,0.456167828851));
#241 = CARTESIAN_POINT('',(3.206389077965,0.326231849327));
#242 = CARTESIAN_POINT('',(3.204650359616,0.19625814259));
#243 = CARTESIAN_POINT('',(3.203927957962,6.62904833456E-02));
#244 = CARTESIAN_POINT('',(3.204710374852,-0.128663455524));
#245 = CARTESIAN_POINT('',(3.205275309136,-0.193645598861));
#246 = CARTESIAN_POINT('',(3.206159267004,-0.258625277905));
#247 = CARTESIAN_POINT('',(3.207380651682,-0.323601062614));
#248 = CARTESIAN_POINT('',(3.20897288541,-0.388570418858));
#249 = CARTESIAN_POINT('',(3.210995920146,-0.453530073045));
#250 = CARTESIAN_POINT('',(3.213547748286,-0.518476376739));
#251 = CARTESIAN_POINT('',(3.220004078456,-0.648334965828));
#252 = CARTESIAN_POINT('',(3.223903978382,-0.713245140579));
#253 = CARTESIAN_POINT('',(3.228680021109,-0.778133117292));
#254 = CARTESIAN_POINT('',(3.23443961503,-0.842990846153));
#255 = CARTESIAN_POINT('',(3.241676209956,-0.907803594812));
#256 = CARTESIAN_POINT('',(3.250912983004,-0.972556855433));
#257 = CARTESIAN_POINT('',(3.262893947183,-1.037224193449));
#258 = CARTESIAN_POINT('',(3.280709260536,-1.101708361731));
#259 = ( GEOMETRIC_REPRESENTATION_CONTEXT(2) 
PARAMETRIC_REPRESENTATION_CONTEXT() REPRESENTATION_CONTEXT('2D SPACE',''
  ) );
#260 = ADVANCED_FACE('',(#261,#265),#94,.T.);
#261 = FACE_BOUND('',#262,.T.);
#262 = VERTEX_LOOP('',#263);
#263 = VERTEX_POINT('',#264);
#264 = CARTESIAN_POINT('',(-2.154202984909E-07,1.134966079418E-04,
    15.874932622427));
#265 = FACE_BOUND('',#266,.T.);
#266 = EDGE_LOOP('',(#267));
#267 = ORIENTED_EDGE('',*,*,#79,.F.);
#268 = ADVANCED_FACE('',(#269),#66,.T.);
#269 = FACE_BOUND('',#270,.T.);
#270 = EDGE_LOOP('',(#271));
#271 = ORIENTED_EDGE('',*,*,#51,.T.);
#272 = ( GEOMETRIC_REPRESENTATION_CONTEXT(3) 
GLOBAL_UNCERTAINTY_ASSIGNED_CONTEXT((#276)) GLOBAL_UNIT_ASSIGNED_CONTEXT
((#273,#274,#275)) REPRESENTATION_CONTEXT('Context #1',
  '3D Context with UNIT and UNCERTAINTY') );
#273 = ( LENGTH_UNIT() NAMED_UNIT(*) SI_UNIT(.MILLI.,.METRE.) );
#274 = ( NAMED_UNIT(*) PLANE_ANGLE_UNIT() SI_UNIT($,.RADIAN.) );
#275 = ( NAMED_UNIT(*) SI_UNIT($,.STERADIAN.) SOLID_ANGLE_UNIT() );
#276 = UNCERTAINTY_MEASURE_WITH_UNIT(LENGTH_MEASURE(2.),#273,
  'distance_accuracy_value','confusion accuracy');
#277 = PRODUCT_TYPE('part',$,(#7));
ENDSEC;
END-ISO-10303-21;
