ISO-10303-21;
HEADER;
FILE_DESCRIPTION(('Open CASCADE Model'),'2;1');
FILE_NAME('Open CASCADE Shape Model','2026-06-20T23:57:29',('Author'),(
    'Open CASCADE'),'Open CASCADE STEP processor 7.8','Open CASCADE 7.8'
  ,'Unknown');
FILE_SCHEMA(('CONFIG_CONTROL_DESIGN'));
ENDSEC;
DATA;
#1 = APPLICATION_PROTOCOL_DEFINITION('committee draft',
  'automotive_design',1997,#2);
#2 = APPLICATION_CONTEXT(
  'core data for automotive mechanical design processes');
#3 = SHAPE_DEFINITION_REPRESENTATION(#4,#10);
#4 = PRODUCT_DEFINITION_SHAPE('','',#5);
#5 = PRODUCT_DEFINITION('design','',#6,#9);
#6 = PRODUCT_DEFINITION_FORMATION('','',#7);
#7 = PRODUCT('Product 17','Product 17','',(#8));
#8 = MECHANICAL_CONTEXT('',#2,'mechanical');
#9 = PRODUCT_DEFINITION_CONTEXT('part definition',#2,'design');
#10 = ADVANCED_BREP_SHAPE_REPRESENTATION('',(#11,#15),#957);
#11 = AXIS2_PLACEMENT_3D('',#12,#13,#14);
#12 = CARTESIAN_POINT('',(0.,0.,0.));
#13 = DIRECTION('',(0.,0.,1.));
#14 = DIRECTION('',(1.,0.,-0.));
#15 = MANIFOLD_SOLID_BREP('',#16);
#16 = CLOSED_SHELL('',(#17,#181,#241,#297,#332,#500,#555,#631,#680,#729,
    #778,#827,#854,#889,#944,#948));
#17 = ADVANCED_FACE('',(#18),#33,.T.);
#18 = FACE_BOUND('',#19,.T.);
#19 = EDGE_LOOP('',(#20,#55,#76,#99,#143,#180));
#20 = ORIENTED_EDGE('',*,*,#21,.T.);
#21 = EDGE_CURVE('',#22,#24,#26,.T.);
#22 = VERTEX_POINT('',#23);
#23 = CARTESIAN_POINT('',(0.614529724831,5.93551025036E-04,1.39480775904
    ));
#24 = VERTEX_POINT('',#25);
#25 = CARTESIAN_POINT('',(0.613888641588,5.93551014026E-04,
    -1.392792102979));
#26 = SURFACE_CURVE('',#27,(#32,#43),.PCURVE_S1.);
#27 = CIRCLE('',#28,1.393800312019);
#28 = AXIS2_PLACEMENT_3D('',#29,#30,#31);
#29 = CARTESIAN_POINT('',(0.614209134553,5.935510140257E-04,
    1.008172192981E-03));
#30 = DIRECTION('',(-0.999999967184,-1.129563134741E-04,
    2.299418075677E-04));
#31 = DIRECTION('',(-2.299418090346E-04,3.308722450212E-24,
    -0.999999973563));
#32 = PCURVE('',#33,#38);
#33 = CONICAL_SURFACE('',#34,1.999999805941,1.051887832995);
#34 = AXIS2_PLACEMENT_3D('',#35,#36,#37);
#35 = CARTESIAN_POINT('',(0.268000194161,5.544445271439E-04,
    1.087780105144E-03));
#36 = DIRECTION('',(-0.999999967184,-1.129563134741E-04,
    2.299418075677E-04));
#37 = DIRECTION('',(2.299418090346E-04,0.,0.999999973563));
#38 = DEFINITIONAL_REPRESENTATION('',(#39),#42);
#39 = B_SPLINE_CURVE_WITH_KNOTS('',1,(#40,#41),.UNSPECIFIED.,.F.,.F.,(2,
    2),(3.14159265359,6.28318530718),.PIECEWISE_BEZIER_KNOTS.);
#40 = CARTESIAN_POINT('',(-6.28318530718,-0.346209049224));
#41 = CARTESIAN_POINT('',(-3.14159265359,-0.346209049224));
#42 = ( GEOMETRIC_REPRESENTATION_CONTEXT(2) 
PARAMETRIC_REPRESENTATION_CONTEXT() REPRESENTATION_CONTEXT('2D SPACE',''
  ) );
#43 = PCURVE('',#44,#49);
#44 = CONICAL_SURFACE('',#45,1.999999985485,1.042507028942);
#45 = AXIS2_PLACEMENT_3D('',#46,#47,#48);
#46 = CARTESIAN_POINT('',(0.968000181005,6.335139476846E-04,
    9.268208375892E-04));
#47 = DIRECTION('',(0.999999967184,1.129563134741E-04,
    -2.299418075677E-04));
#48 = DIRECTION('',(-2.299418090346E-04,0.,-0.999999973563));
#49 = DEFINITIONAL_REPRESENTATION('',(#50),#54);
#50 = LINE('',#51,#52);
#51 = CARTESIAN_POINT('',(-0.,-0.353791058063));
#52 = VECTOR('',#53,1.);
#53 = DIRECTION('',(-1.,-0.));
#54 = ( GEOMETRIC_REPRESENTATION_CONTEXT(2) 
PARAMETRIC_REPRESENTATION_CONTEXT() REPRESENTATION_CONTEXT('2D SPACE',''
  ) );
#55 = ORIENTED_EDGE('',*,*,#56,.T.);
#56 = EDGE_CURVE('',#24,#22,#57,.T.);
#57 = SURFACE_CURVE('',#58,(#63,#69),.PCURVE_S1.);
#58 = CIRCLE('',#59,1.393800312019);
#59 = AXIS2_PLACEMENT_3D('',#60,#61,#62);
#60 = CARTESIAN_POINT('',(0.614209134553,5.935510140257E-04,
    1.008172192981E-03));
#61 = DIRECTION('',(-0.999999967184,-1.129563134741E-04,
    2.299418075677E-04));
#62 = DIRECTION('',(-2.299418090346E-04,3.308722450212E-24,
    -0.999999973563));
#63 = PCURVE('',#33,#64);
#64 = DEFINITIONAL_REPRESENTATION('',(#65),#68);
#65 = B_SPLINE_CURVE_WITH_KNOTS('',1,(#66,#67),.UNSPECIFIED.,.F.,.F.,(2,
    2),(0.,3.14159265359),.PIECEWISE_BEZIER_KNOTS.);
#66 = CARTESIAN_POINT('',(-3.14159265359,-0.346209049224));
#67 = CARTESIAN_POINT('',(0.,-0.346209049224));
#68 = ( GEOMETRIC_REPRESENTATION_CONTEXT(2) 
PARAMETRIC_REPRESENTATION_CONTEXT() REPRESENTATION_CONTEXT('2D SPACE',''
  ) );
#69 = PCURVE('',#44,#70);
#70 = DEFINITIONAL_REPRESENTATION('',(#71),#75);
#71 = LINE('',#72,#73);
#72 = CARTESIAN_POINT('',(-0.,-0.353791058063));
#73 = VECTOR('',#74,1.);
#74 = DIRECTION('',(-1.,-0.));
#75 = ( GEOMETRIC_REPRESENTATION_CONTEXT(2) 
PARAMETRIC_REPRESENTATION_CONTEXT() REPRESENTATION_CONTEXT('2D SPACE',''
  ) );
#76 = ORIENTED_EDGE('',*,*,#77,.F.);
#77 = EDGE_CURVE('',#78,#22,#80,.T.);
#78 = VERTEX_POINT('',#79);
#79 = CARTESIAN_POINT('',(0.268460077734,5.544445271444E-04,
    2.001087533173));
#80 = SEAM_CURVE('',#81,(#85,#92),.PCURVE_S1.);
#81 = LINE('',#82,#83);
#82 = CARTESIAN_POINT('',(0.268460077734,5.544445271444E-04,
    2.001087533173));
#83 = VECTOR('',#84,1.);
#84 = DIRECTION('',(0.495732923253,5.601871958618E-05,-0.868475023052));
#85 = PCURVE('',#33,#86);
#86 = DEFINITIONAL_REPRESENTATION('',(#87),#91);
#87 = LINE('',#88,#89);
#88 = CARTESIAN_POINT('',(-6.28318530718,0.));
#89 = VECTOR('',#90,1.);
#90 = DIRECTION('',(-0.,-1.));
#91 = ( GEOMETRIC_REPRESENTATION_CONTEXT(2) 
PARAMETRIC_REPRESENTATION_CONTEXT() REPRESENTATION_CONTEXT('2D SPACE',''
  ) );
#92 = PCURVE('',#33,#93);
#93 = DEFINITIONAL_REPRESENTATION('',(#94),#98);
#94 = LINE('',#95,#96);
#95 = CARTESIAN_POINT('',(0.,-0.));
#96 = VECTOR('',#97,1.);
#97 = DIRECTION('',(-0.,-1.));
#98 = ( GEOMETRIC_REPRESENTATION_CONTEXT(2) 
PARAMETRIC_REPRESENTATION_CONTEXT() REPRESENTATION_CONTEXT('2D SPACE',''
  ) );
#99 = ORIENTED_EDGE('',*,*,#100,.F.);
#100 = EDGE_CURVE('',#101,#78,#103,.T.);
#101 = VERTEX_POINT('',#102);
#102 = CARTESIAN_POINT('',(0.268286819381,5.545288710612E-04,
    -1.99972192315));
#103 = SURFACE_CURVE('',#104,(#109,#131),.PCURVE_S1.);
#104 = CIRCLE('',#105,2.000809584454);
#105 = AXIS2_PLACEMENT_3D('',#106,#107,#108);
#106 = CARTESIAN_POINT('',(0.268746889157,5.545288710607E-04,
    1.087608408741E-03));
#107 = DIRECTION('',(-0.999999967184,-1.129563134741E-04,
    2.299418075677E-04));
#108 = DIRECTION('',(-2.299418090346E-04,3.308722450212E-24,
    -0.999999973563));
#109 = PCURVE('',#33,#110);
#110 = DEFINITIONAL_REPRESENTATION('',(#111),#130);
#111 = B_SPLINE_CURVE_WITH_KNOTS('',9,(#112,#113,#114,#115,#116,#117,
    #118,#119,#120,#121,#122,#123,#124,#125,#126,#127,#128,#129),
  .UNSPECIFIED.,.F.,.F.,(10,8,10),(0.,1.570796326795,3.14159265359),
  .UNSPECIFIED.);
#112 = CARTESIAN_POINT('',(-3.14159265359,0.));
#113 = CARTESIAN_POINT('',(-2.966989061877,0.));
#114 = CARTESIAN_POINT('',(-2.792791360334,0.));
#115 = CARTESIAN_POINT('',(-2.617484428999,0.));
#116 = CARTESIAN_POINT('',(-2.444063975885,0.));
#117 = CARTESIAN_POINT('',(-2.268476240587,0.));
#118 = CARTESIAN_POINT('',(-2.09459822578,0.));
#119 = CARTESIAN_POINT('',(-1.919818325445,0.));
#120 = CARTESIAN_POINT('',(-1.745329251994,0.));
#121 = CARTESIAN_POINT('',(-1.396263401595,0.));
#122 = CARTESIAN_POINT('',(-1.221774328145,0.));
#123 = CARTESIAN_POINT('',(-1.04699442781,0.));
#124 = CARTESIAN_POINT('',(-0.873116413003,0.));
#125 = CARTESIAN_POINT('',(-0.697528677705,0.));
#126 = CARTESIAN_POINT('',(-0.524108224591,0.));
#127 = CARTESIAN_POINT('',(-0.348801293256,0.));
#128 = CARTESIAN_POINT('',(-0.174603591713,0.));
#129 = CARTESIAN_POINT('',(-2.22044604925E-16,0.));
#130 = ( GEOMETRIC_REPRESENTATION_CONTEXT(2) 
PARAMETRIC_REPRESENTATION_CONTEXT() REPRESENTATION_CONTEXT('2D SPACE',''
  ) );
#131 = PCURVE('',#132,#137);
#132 = CONICAL_SURFACE('',#133,2.000809584454,0.785773253009);
#133 = AXIS2_PLACEMENT_3D('',#134,#135,#136);
#134 = CARTESIAN_POINT('',(0.268746889157,5.545288710607E-04,
    1.087608408741E-03));
#135 = DIRECTION('',(0.999999967184,1.129563134741E-04,
    -2.299418075677E-04));
#136 = DIRECTION('',(-2.299418090346E-04,0.,-0.999999973563));
#137 = DEFINITIONAL_REPRESENTATION('',(#138),#142);
#138 = LINE('',#139,#140);
#139 = CARTESIAN_POINT('',(-0.,-0.));
#140 = VECTOR('',#141,1.);
#141 = DIRECTION('',(-1.,-0.));
#142 = ( GEOMETRIC_REPRESENTATION_CONTEXT(2) 
PARAMETRIC_REPRESENTATION_CONTEXT() REPRESENTATION_CONTEXT('2D SPACE',''
  ) );
#143 = ORIENTED_EDGE('',*,*,#144,.F.);
#144 = EDGE_CURVE('',#78,#101,#145,.T.);
#145 = SURFACE_CURVE('',#146,(#151,#173),.PCURVE_S1.);
#146 = CIRCLE('',#147,2.000809584454);
#147 = AXIS2_PLACEMENT_3D('',#148,#149,#150);
#148 = CARTESIAN_POINT('',(0.268746889157,5.545288710607E-04,
    1.087608408741E-03));
#149 = DIRECTION('',(-0.999999967184,-1.129563134741E-04,
    2.299418075677E-04));
#150 = DIRECTION('',(-2.299418090346E-04,3.308722450212E-24,
    -0.999999973563));
#151 = PCURVE('',#33,#152);
#152 = DEFINITIONAL_REPRESENTATION('',(#153),#172);
#153 = B_SPLINE_CURVE_WITH_KNOTS('',9,(#154,#155,#156,#157,#158,#159,
    #160,#161,#162,#163,#164,#165,#166,#167,#168,#169,#170,#171),
  .UNSPECIFIED.,.F.,.F.,(10,8,10),(3.14159265359,4.712388980385,
    6.28318530718),.UNSPECIFIED.);
#154 = CARTESIAN_POINT('',(-6.28318530718,0.));
#155 = CARTESIAN_POINT('',(-6.108581715467,0.));
#156 = CARTESIAN_POINT('',(-5.934384013924,0.));
#157 = CARTESIAN_POINT('',(-5.759077082588,0.));
#158 = CARTESIAN_POINT('',(-5.585656629476,0.));
#159 = CARTESIAN_POINT('',(-5.410068894176,0.));
#160 = CARTESIAN_POINT('',(-5.23619087937,0.));
#161 = CARTESIAN_POINT('',(-5.061410979034,0.));
#162 = CARTESIAN_POINT('',(-4.886921905584,0.));
#163 = CARTESIAN_POINT('',(-4.537856055185,0.));
#164 = CARTESIAN_POINT('',(-4.363366981735,0.));
#165 = CARTESIAN_POINT('',(-4.1885870814,0.));
#166 = CARTESIAN_POINT('',(-4.014709066593,0.));
#167 = CARTESIAN_POINT('',(-3.839121331294,0.));
#168 = CARTESIAN_POINT('',(-3.665700878181,0.));
#169 = CARTESIAN_POINT('',(-3.490393946846,0.));
#170 = CARTESIAN_POINT('',(-3.316196245302,0.));
#171 = CARTESIAN_POINT('',(-3.14159265359,0.));
#172 = ( GEOMETRIC_REPRESENTATION_CONTEXT(2) 
PARAMETRIC_REPRESENTATION_CONTEXT() REPRESENTATION_CONTEXT('2D SPACE',''
  ) );
#173 = PCURVE('',#132,#174);
#174 = DEFINITIONAL_REPRESENTATION('',(#175),#179);
#175 = LINE('',#176,#177);
#176 = CARTESIAN_POINT('',(-0.,-0.));
#177 = VECTOR('',#178,1.);
#178 = DIRECTION('',(-1.,-0.));
#179 = ( GEOMETRIC_REPRESENTATION_CONTEXT(2) 
PARAMETRIC_REPRESENTATION_CONTEXT() REPRESENTATION_CONTEXT('2D SPACE',''
  ) );
#180 = ORIENTED_EDGE('',*,*,#77,.T.);
#181 = ADVANCED_FACE('',(#182),#44,.T.);
#182 = FACE_BOUND('',#183,.T.);
#183 = EDGE_LOOP('',(#184,#217,#238,#239,#240));
#184 = ORIENTED_EDGE('',*,*,#185,.T.);
#185 = EDGE_CURVE('',#186,#186,#188,.T.);
#186 = VERTEX_POINT('',#187);
#187 = CARTESIAN_POINT('',(0.962413059475,6.329345655012E-04,
    -1.990283256206));
#188 = SURFACE_CURVE('',#189,(#194,#201),.PCURVE_S1.);
#189 = CIRCLE('',#190,1.991211309116);
#190 = AXIS2_PLACEMENT_3D('',#191,#192,#193);
#191 = CARTESIAN_POINT('',(0.962870922206,6.329345655007E-04,
    9.280002686678E-04));
#192 = DIRECTION('',(-0.999999967184,-1.129563134741E-04,
    2.299418075677E-04));
#193 = DIRECTION('',(-2.299418090346E-04,3.308722450212E-24,
    -0.999999973563));
#194 = PCURVE('',#44,#195);
#195 = DEFINITIONAL_REPRESENTATION('',(#196),#200);
#196 = LINE('',#197,#198);
#197 = CARTESIAN_POINT('',(-0.,-5.129258967904E-03));
#198 = VECTOR('',#199,1.);
#199 = DIRECTION('',(-1.,-0.));
#200 = ( GEOMETRIC_REPRESENTATION_CONTEXT(2) 
PARAMETRIC_REPRESENTATION_CONTEXT() REPRESENTATION_CONTEXT('2D SPACE',''
  ) );
#201 = PCURVE('',#202,#207);
#202 = PLANE('',#203);
#203 = AXIS2_PLACEMENT_3D('',#204,#205,#206);
#204 = CARTESIAN_POINT('',(0.962870922206,6.329345655007E-04,
    9.280002686678E-04));
#205 = DIRECTION('',(0.999999967184,1.129563134741E-04,
    -2.299418075677E-04));
#206 = DIRECTION('',(2.299418090346E-04,0.,0.999999973563));
#207 = DEFINITIONAL_REPRESENTATION('',(#208),#216);
#208 = ( BOUNDED_CURVE() B_SPLINE_CURVE(2,(#209,#210,#211,#212,#213,#214
,#215),.UNSPECIFIED.,.T.,.F.) B_SPLINE_CURVE_WITH_KNOTS((1,2,2,2,2,1),(
    -2.094395102393,0.,2.094395102393,4.188790204786,6.28318530718,
8.377580409573),.UNSPECIFIED.) CURVE() GEOMETRIC_REPRESENTATION_ITEM() 
RATIONAL_B_SPLINE_CURVE((1.,0.5,1.,0.5,1.,0.5,1.)) REPRESENTATION_ITEM(
  '') );
#209 = CARTESIAN_POINT('',(-1.991211309116,-8.448118201782E-27));
#210 = CARTESIAN_POINT('',(-1.991211309116,3.448879155995));
#211 = CARTESIAN_POINT('',(0.995605654558,1.724439577997));
#212 = CARTESIAN_POINT('',(3.982422618232,4.877061112185E-16));
#213 = CARTESIAN_POINT('',(0.995605654558,-1.724439577997));
#214 = CARTESIAN_POINT('',(-1.991211309116,-3.448879155995));
#215 = CARTESIAN_POINT('',(-1.991211309116,-8.448118201782E-27));
#216 = ( GEOMETRIC_REPRESENTATION_CONTEXT(2) 
PARAMETRIC_REPRESENTATION_CONTEXT() REPRESENTATION_CONTEXT('2D SPACE',''
  ) );
#217 = ORIENTED_EDGE('',*,*,#218,.T.);
#218 = EDGE_CURVE('',#186,#24,#219,.T.);
#219 = SEAM_CURVE('',#220,(#224,#231),.PCURVE_S1.);
#220 = LINE('',#221,#222);
#221 = CARTESIAN_POINT('',(0.967540297391,6.335139476851E-04,
    -1.999073111774));
#222 = VECTOR('',#223,1.);
#223 = DIRECTION('',(-0.503857985767,-5.693637489996E-05,0.863786505415)
  );
#224 = PCURVE('',#44,#225);
#225 = DEFINITIONAL_REPRESENTATION('',(#226),#230);
#226 = LINE('',#227,#228);
#227 = CARTESIAN_POINT('',(0.,-0.));
#228 = VECTOR('',#229,1.);
#229 = DIRECTION('',(-0.,-1.));
#230 = ( GEOMETRIC_REPRESENTATION_CONTEXT(2) 
PARAMETRIC_REPRESENTATION_CONTEXT() REPRESENTATION_CONTEXT('2D SPACE',''
  ) );
#231 = PCURVE('',#44,#232);
#232 = DEFINITIONAL_REPRESENTATION('',(#233),#237);
#233 = LINE('',#234,#235);
#234 = CARTESIAN_POINT('',(-6.28318530718,0.));
#235 = VECTOR('',#236,1.);
#236 = DIRECTION('',(-0.,-1.));
#237 = ( GEOMETRIC_REPRESENTATION_CONTEXT(2) 
PARAMETRIC_REPRESENTATION_CONTEXT() REPRESENTATION_CONTEXT('2D SPACE',''
  ) );
#238 = ORIENTED_EDGE('',*,*,#21,.F.);
#239 = ORIENTED_EDGE('',*,*,#56,.F.);
#240 = ORIENTED_EDGE('',*,*,#218,.F.);
#241 = ADVANCED_FACE('',(#242),#132,.T.);
#242 = FACE_BOUND('',#243,.T.);
#243 = EDGE_LOOP('',(#244,#267,#294,#295,#296));
#244 = ORIENTED_EDGE('',*,*,#245,.T.);
#245 = EDGE_CURVE('',#101,#246,#248,.T.);
#246 = VERTEX_POINT('',#247);
#247 = CARTESIAN_POINT('',(-5.239182408548E-04,5.241580113491E-04,
    -1.730585708962));
#248 = SEAM_CURVE('',#249,(#253,#260),.PCURVE_S1.);
#249 = LINE('',#250,#251);
#250 = CARTESIAN_POINT('',(0.268286819381,5.545288710612E-04,
    -1.99972192315));
#251 = VECTOR('',#252,1.);
#252 = DIRECTION('',(-0.706678825458,-7.984221039436E-05,0.707534473559)
  );
#253 = PCURVE('',#132,#254);
#254 = DEFINITIONAL_REPRESENTATION('',(#255),#259);
#255 = LINE('',#256,#257);
#256 = CARTESIAN_POINT('',(-6.28318530718,0.));
#257 = VECTOR('',#258,1.);
#258 = DIRECTION('',(-0.,-1.));
#259 = ( GEOMETRIC_REPRESENTATION_CONTEXT(2) 
PARAMETRIC_REPRESENTATION_CONTEXT() REPRESENTATION_CONTEXT('2D SPACE',''
  ) );
#260 = PCURVE('',#132,#261);
#261 = DEFINITIONAL_REPRESENTATION('',(#262),#266);
#262 = LINE('',#263,#264);
#263 = CARTESIAN_POINT('',(0.,-0.));
#264 = VECTOR('',#265,1.);
#265 = DIRECTION('',(-0.,-1.));
#266 = ( GEOMETRIC_REPRESENTATION_CONTEXT(2) 
PARAMETRIC_REPRESENTATION_CONTEXT() REPRESENTATION_CONTEXT('2D SPACE',''
  ) );
#267 = ORIENTED_EDGE('',*,*,#268,.F.);
#268 = EDGE_CURVE('',#246,#246,#269,.T.);
#269 = SURFACE_CURVE('',#270,(#275,#282),.PCURVE_S1.);
#270 = CIRCLE('',#271,1.731735188208);
#271 = AXIS2_PLACEMENT_3D('',#272,#273,#274);
#272 = CARTESIAN_POINT('',(-1.257199189094E-04,5.241580113487E-04,
    1.149433464506E-03));
#273 = DIRECTION('',(-0.999999967184,-1.129563134741E-04,
    2.299418075677E-04));
#274 = DIRECTION('',(-2.299418090346E-04,3.308722450212E-24,
    -0.999999973563));
#275 = PCURVE('',#132,#276);
#276 = DEFINITIONAL_REPRESENTATION('',(#277),#281);
#277 = LINE('',#278,#279);
#278 = CARTESIAN_POINT('',(-0.,-0.268872617899));
#279 = VECTOR('',#280,1.);
#280 = DIRECTION('',(-1.,-0.));
#281 = ( GEOMETRIC_REPRESENTATION_CONTEXT(2) 
PARAMETRIC_REPRESENTATION_CONTEXT() REPRESENTATION_CONTEXT('2D SPACE',''
  ) );
#282 = PCURVE('',#283,#288);
#283 = PLANE('',#284);
#284 = AXIS2_PLACEMENT_3D('',#285,#286,#287);
#285 = CARTESIAN_POINT('',(-1.257199189094E-04,5.241580113487E-04,
    1.149433464506E-03));
#286 = DIRECTION('',(-0.999999967184,-1.129563134741E-04,
    2.299418075677E-04));
#287 = DIRECTION('',(-2.299418090346E-04,0.,-0.999999973563));
#288 = DEFINITIONAL_REPRESENTATION('',(#289),#293);
#289 = CIRCLE('',#290,1.731735188208);
#290 = AXIS2_PLACEMENT_2D('',#291,#292);
#291 = CARTESIAN_POINT('',(0.,0.));
#292 = DIRECTION('',(1.,0.));
#293 = ( GEOMETRIC_REPRESENTATION_CONTEXT(2) 
PARAMETRIC_REPRESENTATION_CONTEXT() REPRESENTATION_CONTEXT('2D SPACE',''
  ) );
#294 = ORIENTED_EDGE('',*,*,#245,.F.);
#295 = ORIENTED_EDGE('',*,*,#100,.T.);
#296 = ORIENTED_EDGE('',*,*,#144,.T.);
#297 = ADVANCED_FACE('',(#298,#329),#202,.F.);
#298 = FACE_BOUND('',#299,.F.);
#299 = EDGE_LOOP('',(#300));
#300 = ORIENTED_EDGE('',*,*,#301,.T.);
#301 = EDGE_CURVE('',#302,#302,#304,.T.);
#302 = VERTEX_POINT('',#303);
#303 = CARTESIAN_POINT('',(0.963330806259,6.329345655012E-04,
    2.000929840327));
#304 = SURFACE_CURVE('',#305,(#310,#317),.PCURVE_S1.);
#305 = CIRCLE('',#306,2.000001892931);
#306 = AXIS2_PLACEMENT_3D('',#307,#308,#309);
#307 = CARTESIAN_POINT('',(0.962870922206,6.329345655007E-04,
    9.280002686678E-04));
#308 = DIRECTION('',(0.999999967184,1.129563134741E-04,
    -2.299418075677E-04));
#309 = DIRECTION('',(2.299418090346E-04,-3.308722450212E-24,
    0.999999973563));
#310 = PCURVE('',#202,#311);
#311 = DEFINITIONAL_REPRESENTATION('',(#312),#316);
#312 = CIRCLE('',#313,2.000001892931);
#313 = AXIS2_PLACEMENT_2D('',#314,#315);
#314 = CARTESIAN_POINT('',(0.,0.));
#315 = DIRECTION('',(1.,0.));
#316 = ( GEOMETRIC_REPRESENTATION_CONTEXT(2) 
PARAMETRIC_REPRESENTATION_CONTEXT() REPRESENTATION_CONTEXT('2D SPACE',''
  ) );
#317 = PCURVE('',#318,#323);
#318 = CYLINDRICAL_SURFACE('',#319,2.000001892931);
#319 = AXIS2_PLACEMENT_3D('',#320,#321,#322);
#320 = CARTESIAN_POINT('',(0.962870922206,6.329345655007E-04,
    9.280002686678E-04));
#321 = DIRECTION('',(0.999999967184,1.129563134741E-04,
    -2.299418075677E-04));
#322 = DIRECTION('',(2.299418090346E-04,0.,0.999999973563));
#323 = DEFINITIONAL_REPRESENTATION('',(#324),#328);
#324 = LINE('',#325,#326);
#325 = CARTESIAN_POINT('',(0.,0.));
#326 = VECTOR('',#327,1.);
#327 = DIRECTION('',(1.,0.));
#328 = ( GEOMETRIC_REPRESENTATION_CONTEXT(2) 
PARAMETRIC_REPRESENTATION_CONTEXT() REPRESENTATION_CONTEXT('2D SPACE',''
  ) );
#329 = FACE_BOUND('',#330,.F.);
#330 = EDGE_LOOP('',(#331));
#331 = ORIENTED_EDGE('',*,*,#185,.T.);
#332 = ADVANCED_FACE('',(#333,#336),#283,.T.);
#333 = FACE_BOUND('',#334,.T.);
#334 = EDGE_LOOP('',(#335));
#335 = ORIENTED_EDGE('',*,*,#268,.T.);
#336 = FACE_BOUND('',#337,.T.);
#337 = EDGE_LOOP('',(#338,#367,#394,#421,#448,#475));
#338 = ORIENTED_EDGE('',*,*,#339,.T.);
#339 = EDGE_CURVE('',#340,#342,#344,.T.);
#340 = VERTEX_POINT('',#341);
#341 = CARTESIAN_POINT('',(-3.901235544198E-04,2.645386195561E-04,
    -1.148850017615));
#342 = VERTEX_POINT('',#343);
#343 = CARTESIAN_POINT('',(-3.704698749255E-04,0.996323107258,
    -0.574075103192));
#344 = SURFACE_CURVE('',#345,(#349,#355),.PCURVE_S1.);
#345 = LINE('',#346,#347);
#346 = CARTESIAN_POINT('',(-3.852101345462E-04,0.249279180779,
    -1.00515628901));
#347 = VECTOR('',#348,1.);
#348 = DIRECTION('',(1.709016335227E-05,0.866138254235,0.499804486033));
#349 = PCURVE('',#283,#350);
#350 = DEFINITIONAL_REPRESENTATION('',(#351),#354);
#351 = B_SPLINE_CURVE_WITH_KNOTS('',1,(#352,#353),.UNSPECIFIED.,.F.,.F.,
  (2,2),(-0.287499877695,0.862499633086),.PIECEWISE_BEZIER_KNOTS.);
#352 = CARTESIAN_POINT('',(1.149999481475,2.596193934487E-04));
#353 = CARTESIAN_POINT('',(0.575224577728,-0.9957989556));
#354 = ( GEOMETRIC_REPRESENTATION_CONTEXT(2) 
PARAMETRIC_REPRESENTATION_CONTEXT() REPRESENTATION_CONTEXT('2D SPACE',''
  ) );
#355 = PCURVE('',#356,#361);
#356 = PLANE('',#357);
#357 = AXIS2_PLACEMENT_3D('',#358,#359,#360);
#358 = CARTESIAN_POINT('',(-0.137559455242,2.490444770185E-04,
    -1.14881847665));
#359 = DIRECTION('',(2.556174679824E-04,-0.499804473561,0.866138223881)
  );
#360 = DIRECTION('',(1.709016335228E-05,0.866138254235,0.499804486033));
#361 = DEFINITIONAL_REPRESENTATION('',(#362),#366);
#362 = LINE('',#363,#364);
#363 = CARTESIAN_POINT('',(0.287499877695,-0.137169336189));
#364 = VECTOR('',#365,1.);
#365 = DIRECTION('',(1.,-4.747450262771E-17));
#366 = ( GEOMETRIC_REPRESENTATION_CONTEXT(2) 
PARAMETRIC_REPRESENTATION_CONTEXT() REPRESENTATION_CONTEXT('2D SPACE',''
  ) );
#367 = ORIENTED_EDGE('',*,*,#368,.T.);
#368 = EDGE_CURVE('',#342,#369,#371,.T.);
#369 = VERTEX_POINT('',#370);
#370 = CARTESIAN_POINT('',(-1.060662394151E-04,0.99658272665,
    0.575924347888));
#371 = SURFACE_CURVE('',#372,(#376,#382),.PCURVE_S1.);
#372 = LINE('',#373,#374);
#373 = CARTESIAN_POINT('',(-3.043689660479E-04,0.996388012106,
    -0.286575240422));
#374 = VECTOR('',#375,1.);
#375 = DIRECTION('',(2.299163026E-04,2.25756088901E-04,0.999999948086));
#376 = PCURVE('',#283,#377);
#377 = DEFINITIONAL_REPRESENTATION('',(#378),#381);
#378 = B_SPLINE_CURVE_WITH_KNOTS('',1,(#379,#380),.UNSPECIFIED.,.F.,.F.,
  (2,2),(-0.287499877695,0.862499633086),.PIECEWISE_BEZIER_KNOTS.);
#379 = CARTESIAN_POINT('',(0.575224577728,-0.9957989556));
#380 = CARTESIAN_POINT('',(-0.574774903748,-0.996058574993));
#381 = ( GEOMETRIC_REPRESENTATION_CONTEXT(2) 
PARAMETRIC_REPRESENTATION_CONTEXT() REPRESENTATION_CONTEXT('2D SPACE',''
  ) );
#382 = PCURVE('',#383,#388);
#383 = PLANE('',#384);
#384 = AXIS2_PLACEMENT_3D('',#385,#386,#387);
#385 = CARTESIAN_POINT('',(-0.137539801563,0.996307613116,
    -0.574043562227));
#386 = DIRECTION('',(1.130082183733E-04,-0.999999968138,
    2.257301109946E-04));
#387 = DIRECTION('',(2.299163025999E-04,2.257560889009E-04,
    0.999999948086));
#388 = DEFINITIONAL_REPRESENTATION('',(#389),#393);
#389 = LINE('',#390,#391);
#390 = CARTESIAN_POINT('',(0.287499877695,-0.137169336189));
#391 = VECTOR('',#392,1.);
#392 = DIRECTION('',(1.,4.740673999193E-17));
#393 = ( GEOMETRIC_REPRESENTATION_CONTEXT(2) 
PARAMETRIC_REPRESENTATION_CONTEXT() REPRESENTATION_CONTEXT('2D SPACE',''
  ) );
#394 = ORIENTED_EDGE('',*,*,#395,.T.);
#395 = EDGE_CURVE('',#369,#396,#398,.T.);
#396 = VERTEX_POINT('',#397);
#397 = CARTESIAN_POINT('',(1.386837166011E-04,7.837774031407E-04,
    1.151148884545));
#398 = SURFACE_CURVE('',#399,(#403,#409),.PCURVE_S1.);
#399 = LINE('',#400,#401);
#400 = CARTESIAN_POINT('',(-4.487875041104E-05,0.747632989338,
    0.719730482052));
#401 = VECTOR('',#402,1.);
#402 = DIRECTION('',(2.128261392477E-04,-0.865912498146,0.500195462054)
  );
#403 = PCURVE('',#283,#404);
#404 = DEFINITIONAL_REPRESENTATION('',(#405),#408);
#405 = B_SPLINE_CURVE_WITH_KNOTS('',1,(#406,#407),.UNSPECIFIED.,.F.,.F.,
  (2,2),(-0.287499877695,0.862499633086),.PIECEWISE_BEZIER_KNOTS.);
#406 = CARTESIAN_POINT('',(-0.574774903748,-0.996058574993));
#407 = CARTESIAN_POINT('',(-1.149999481475,-2.596193934485E-04));
#408 = ( GEOMETRIC_REPRESENTATION_CONTEXT(2) 
PARAMETRIC_REPRESENTATION_CONTEXT() REPRESENTATION_CONTEXT('2D SPACE',''
  ) );
#409 = PCURVE('',#410,#415);
#410 = PLANE('',#411);
#411 = AXIS2_PLACEMENT_3D('',#412,#413,#414);
#412 = CARTESIAN_POINT('',(-0.137275397927,0.996567232508,0.575955888853
    ));
#413 = DIRECTION('',(-1.426092496091E-04,-0.500195494577,-0.86591249377)
  );
#414 = DIRECTION('',(2.128261392477E-04,-0.865912498146,0.500195462054)
  );
#415 = DEFINITIONAL_REPRESENTATION('',(#416),#420);
#416 = LINE('',#417,#418);
#417 = CARTESIAN_POINT('',(0.287499877695,-0.137169336189));
#418 = VECTOR('',#419,1.);
#419 = DIRECTION('',(1.,9.496255778257E-17));
#420 = ( GEOMETRIC_REPRESENTATION_CONTEXT(2) 
PARAMETRIC_REPRESENTATION_CONTEXT() REPRESENTATION_CONTEXT('2D SPACE',''
  ) );
#421 = ORIENTED_EDGE('',*,*,#422,.T.);
#422 = EDGE_CURVE('',#396,#423,#425,.T.);
#423 = VERTEX_POINT('',#424);
#424 = CARTESIAN_POINT('',(1.190300371068E-04,-0.995274791236,
    0.576373970121));
#425 = SURFACE_CURVE('',#426,(#430,#436),.PCURVE_S1.);
#426 = LINE('',#427,#428);
#427 = CARTESIAN_POINT('',(1.337702967275E-04,-0.248230864757,
    1.007455155939));
#428 = VECTOR('',#429,1.);
#429 = DIRECTION('',(-1.709016335227E-05,-0.866138254235,-0.499804486033
    ));
#430 = PCURVE('',#283,#431);
#431 = DEFINITIONAL_REPRESENTATION('',(#432),#435);
#432 = B_SPLINE_CURVE_WITH_KNOTS('',1,(#433,#434),.UNSPECIFIED.,.F.,.F.,
  (2,2),(-0.287499877695,0.862499633086),.PIECEWISE_BEZIER_KNOTS.);
#433 = CARTESIAN_POINT('',(-1.149999481475,-2.596193934484E-04));
#434 = CARTESIAN_POINT('',(-0.575224577728,0.9957989556));
#435 = ( GEOMETRIC_REPRESENTATION_CONTEXT(2) 
PARAMETRIC_REPRESENTATION_CONTEXT() REPRESENTATION_CONTEXT('2D SPACE',''
  ) );
#436 = PCURVE('',#437,#442);
#437 = PLANE('',#438);
#438 = AXIS2_PLACEMENT_3D('',#439,#440,#441);
#439 = CARTESIAN_POINT('',(-0.137030647971,7.68283260603E-04,
    1.15118042551));
#440 = DIRECTION('',(-2.556174679824E-04,0.499804473561,-0.866138223881)
  );
#441 = DIRECTION('',(-1.709016335228E-05,-0.866138254235,-0.499804486033
    ));
#442 = DEFINITIONAL_REPRESENTATION('',(#443),#447);
#443 = LINE('',#444,#445);
#444 = CARTESIAN_POINT('',(0.287499877695,-0.137169336189));
#445 = VECTOR('',#446,1.);
#446 = DIRECTION('',(1.,4.748805515487E-17));
#447 = ( GEOMETRIC_REPRESENTATION_CONTEXT(2) 
PARAMETRIC_REPRESENTATION_CONTEXT() REPRESENTATION_CONTEXT('2D SPACE',''
  ) );
#448 = ORIENTED_EDGE('',*,*,#449,.T.);
#449 = EDGE_CURVE('',#423,#450,#452,.T.);
#450 = VERTEX_POINT('',#451);
#451 = CARTESIAN_POINT('',(-1.453735984036E-04,-0.995534410628,
    -0.573625480959));
#452 = SURFACE_CURVE('',#453,(#457,#463),.PCURVE_S1.);
#453 = LINE('',#454,#455);
#454 = CARTESIAN_POINT('',(5.292912822924E-05,-0.995339696084,
    0.288874107351));
#455 = VECTOR('',#456,1.);
#456 = DIRECTION('',(-2.299163026E-04,-2.257560889014E-04,
    -0.999999948086));
#457 = PCURVE('',#283,#458);
#458 = DEFINITIONAL_REPRESENTATION('',(#459),#462);
#459 = B_SPLINE_CURVE_WITH_KNOTS('',1,(#460,#461),.UNSPECIFIED.,.F.,.F.,
  (2,2),(-0.287499877695,0.862499633086),.PIECEWISE_BEZIER_KNOTS.);
#460 = CARTESIAN_POINT('',(-0.575224577728,0.9957989556));
#461 = CARTESIAN_POINT('',(0.574774903748,0.996058574993));
#462 = ( GEOMETRIC_REPRESENTATION_CONTEXT(2) 
PARAMETRIC_REPRESENTATION_CONTEXT() REPRESENTATION_CONTEXT('2D SPACE',''
  ) );
#463 = PCURVE('',#464,#469);
#464 = PLANE('',#465);
#465 = AXIS2_PLACEMENT_3D('',#466,#467,#468);
#466 = CARTESIAN_POINT('',(-0.137050301651,-0.995290285378,
    0.576405511086));
#467 = DIRECTION('',(-1.130082183733E-04,0.999999968138,
    -2.25730110995E-04));
#468 = DIRECTION('',(-2.299163025999E-04,-2.257560889012E-04,
    -0.999999948086));
#469 = DEFINITIONAL_REPRESENTATION('',(#470),#474);
#470 = LINE('',#471,#472);
#471 = CARTESIAN_POINT('',(0.287499877695,-0.137169336189));
#472 = VECTOR('',#473,1.);
#473 = DIRECTION('',(1.,-4.740673999193E-17));
#474 = ( GEOMETRIC_REPRESENTATION_CONTEXT(2) 
PARAMETRIC_REPRESENTATION_CONTEXT() REPRESENTATION_CONTEXT('2D SPACE',''
  ) );
#475 = ORIENTED_EDGE('',*,*,#476,.T.);
#476 = EDGE_CURVE('',#450,#340,#477,.T.);
#477 = SURFACE_CURVE('',#478,(#482,#488),.PCURVE_S1.);
#478 = LINE('',#479,#480);
#479 = CARTESIAN_POINT('',(-2.065610874077E-04,-0.746584673316,
    -0.717431615123));
#480 = VECTOR('',#481,1.);
#481 = DIRECTION('',(-2.128261392477E-04,0.865912498146,-0.500195462054)
  );
#482 = PCURVE('',#283,#483);
#483 = DEFINITIONAL_REPRESENTATION('',(#484),#487);
#484 = B_SPLINE_CURVE_WITH_KNOTS('',1,(#485,#486),.UNSPECIFIED.,.F.,.F.,
  (2,2),(-0.287499877695,0.862499633086),.PIECEWISE_BEZIER_KNOTS.);
#485 = CARTESIAN_POINT('',(0.574774903748,0.996058574993));
#486 = CARTESIAN_POINT('',(1.149999481475,2.596193934492E-04));
#487 = ( GEOMETRIC_REPRESENTATION_CONTEXT(2) 
PARAMETRIC_REPRESENTATION_CONTEXT() REPRESENTATION_CONTEXT('2D SPACE',''
  ) );
#488 = PCURVE('',#489,#494);
#489 = PLANE('',#490);
#490 = AXIS2_PLACEMENT_3D('',#491,#492,#493);
#491 = CARTESIAN_POINT('',(-0.137314705286,-0.99554990477,
    -0.573593939994));
#492 = DIRECTION('',(1.426092496091E-04,0.500195494577,0.86591249377));
#493 = DIRECTION('',(-2.128261392477E-04,0.865912498146,-0.500195462054)
  );
#494 = DEFINITIONAL_REPRESENTATION('',(#495),#499);
#495 = LINE('',#496,#497);
#496 = CARTESIAN_POINT('',(0.287499877695,-0.137169336189));
#497 = VECTOR('',#498,1.);
#498 = DIRECTION('',(1.,-9.496255778257E-17));
#499 = ( GEOMETRIC_REPRESENTATION_CONTEXT(2) 
PARAMETRIC_REPRESENTATION_CONTEXT() REPRESENTATION_CONTEXT('2D SPACE',''
  ) );
#500 = ADVANCED_FACE('',(#501),#318,.T.);
#501 = FACE_BOUND('',#502,.T.);
#502 = EDGE_LOOP('',(#503,#504,#527,#554));
#503 = ORIENTED_EDGE('',*,*,#301,.T.);
#504 = ORIENTED_EDGE('',*,*,#505,.T.);
#505 = EDGE_CURVE('',#302,#506,#508,.T.);
#506 = VERTEX_POINT('',#507);
#507 = CARTESIAN_POINT('',(11.255580305328,1.795509164423E-03,
    1.998563221795));
#508 = SEAM_CURVE('',#509,(#513,#520),.PCURVE_S1.);
#509 = LINE('',#510,#511);
#510 = CARTESIAN_POINT('',(0.963330806259,6.329345655012E-04,
    2.000929840327));
#511 = VECTOR('',#512,1.);
#512 = DIRECTION('',(0.999999967184,1.129563134741E-04,
    -2.299418075677E-04));
#513 = PCURVE('',#318,#514);
#514 = DEFINITIONAL_REPRESENTATION('',(#515),#519);
#515 = LINE('',#516,#517);
#516 = CARTESIAN_POINT('',(6.28318530718,-0.));
#517 = VECTOR('',#518,1.);
#518 = DIRECTION('',(0.,1.));
#519 = ( GEOMETRIC_REPRESENTATION_CONTEXT(2) 
PARAMETRIC_REPRESENTATION_CONTEXT() REPRESENTATION_CONTEXT('2D SPACE',''
  ) );
#520 = PCURVE('',#318,#521);
#521 = DEFINITIONAL_REPRESENTATION('',(#522),#526);
#522 = LINE('',#523,#524);
#523 = CARTESIAN_POINT('',(0.,-0.));
#524 = VECTOR('',#525,1.);
#525 = DIRECTION('',(0.,1.));
#526 = ( GEOMETRIC_REPRESENTATION_CONTEXT(2) 
PARAMETRIC_REPRESENTATION_CONTEXT() REPRESENTATION_CONTEXT('2D SPACE',''
  ) );
#527 = ORIENTED_EDGE('',*,*,#528,.F.);
#528 = EDGE_CURVE('',#506,#506,#529,.T.);
#529 = SURFACE_CURVE('',#530,(#535,#542),.PCURVE_S1.);
#530 = CIRCLE('',#531,2.000001892931);
#531 = AXIS2_PLACEMENT_3D('',#532,#533,#534);
#532 = CARTESIAN_POINT('',(11.255120421275,1.795509164423E-03,
    -1.438618262749E-03));
#533 = DIRECTION('',(0.999999967184,1.129563134741E-04,
    -2.299418075677E-04));
#534 = DIRECTION('',(2.299418090346E-04,-3.308722450212E-24,
    0.999999973563));
#535 = PCURVE('',#318,#536);
#536 = DEFINITIONAL_REPRESENTATION('',(#537),#541);
#537 = LINE('',#538,#539);
#538 = CARTESIAN_POINT('',(0.,10.292249836822));
#539 = VECTOR('',#540,1.);
#540 = DIRECTION('',(1.,0.));
#541 = ( GEOMETRIC_REPRESENTATION_CONTEXT(2) 
PARAMETRIC_REPRESENTATION_CONTEXT() REPRESENTATION_CONTEXT('2D SPACE',''
  ) );
#542 = PCURVE('',#543,#548);
#543 = PLANE('',#544);
#544 = AXIS2_PLACEMENT_3D('',#545,#546,#547);
#545 = CARTESIAN_POINT('',(11.255120421275,1.795509164423E-03,
    -1.438618262749E-03));
#546 = DIRECTION('',(0.999999967184,1.129563134741E-04,
    -2.299418075677E-04));
#547 = DIRECTION('',(2.299418090346E-04,0.,0.999999973563));
#548 = DEFINITIONAL_REPRESENTATION('',(#549),#553);
#549 = CIRCLE('',#550,2.000001892931);
#550 = AXIS2_PLACEMENT_2D('',#551,#552);
#551 = CARTESIAN_POINT('',(0.,0.));
#552 = DIRECTION('',(1.,0.));
#553 = ( GEOMETRIC_REPRESENTATION_CONTEXT(2) 
PARAMETRIC_REPRESENTATION_CONTEXT() REPRESENTATION_CONTEXT('2D SPACE',''
  ) );
#554 = ORIENTED_EDGE('',*,*,#505,.F.);
#555 = ADVANCED_FACE('',(#556),#356,.T.);
#556 = FACE_BOUND('',#557,.T.);
#557 = EDGE_LOOP('',(#558,#559,#582,#610));
#558 = ORIENTED_EDGE('',*,*,#339,.F.);
#559 = ORIENTED_EDGE('',*,*,#560,.T.);
#560 = EDGE_CURVE('',#340,#561,#563,.T.);
#561 = VERTEX_POINT('',#562);
#562 = CARTESIAN_POINT('',(1.499735752228,4.339873137924E-04,
    -1.149194959282));
#563 = SURFACE_CURVE('',#564,(#568,#575),.PCURVE_S1.);
#564 = LINE('',#565,#566);
#565 = CARTESIAN_POINT('',(-3.901235544198E-04,2.645386195561E-04,
    -1.148850017615));
#566 = VECTOR('',#567,1.);
#567 = DIRECTION('',(0.999999967184,1.129563134742E-04,
    -2.299418075678E-04));
#568 = PCURVE('',#356,#569);
#569 = DEFINITIONAL_REPRESENTATION('',(#570),#574);
#570 = LINE('',#571,#572);
#571 = CARTESIAN_POINT('',(6.367993697458E-17,-0.137169336189));
#572 = VECTOR('',#573,1.);
#573 = DIRECTION('',(1.981379470217E-17,-1.));
#574 = ( GEOMETRIC_REPRESENTATION_CONTEXT(2) 
PARAMETRIC_REPRESENTATION_CONTEXT() REPRESENTATION_CONTEXT('2D SPACE',''
  ) );
#575 = PCURVE('',#489,#576);
#576 = DEFINITIONAL_REPRESENTATION('',(#577),#581);
#577 = LINE('',#578,#579);
#578 = CARTESIAN_POINT('',(1.149999510781,-0.137169336189));
#579 = VECTOR('',#580,1.);
#580 = DIRECTION('',(1.608956023968E-16,-1.));
#581 = ( GEOMETRIC_REPRESENTATION_CONTEXT(2) 
PARAMETRIC_REPRESENTATION_CONTEXT() REPRESENTATION_CONTEXT('2D SPACE',''
  ) );
#582 = ORIENTED_EDGE('',*,*,#583,.T.);
#583 = EDGE_CURVE('',#561,#584,#586,.T.);
#584 = VERTEX_POINT('',#585);
#585 = CARTESIAN_POINT('',(1.499755405907,0.996492555953,-0.574420044859
    ));
#586 = SURFACE_CURVE('',#587,(#591,#598),.PCURVE_S1.);
#587 = LINE('',#588,#589);
#588 = CARTESIAN_POINT('',(1.499735752228,4.339873137924E-04,
    -1.149194959282));
#589 = VECTOR('',#590,1.);
#590 = DIRECTION('',(1.709016335228E-05,0.866138254235,0.499804486033));
#591 = PCURVE('',#356,#592);
#592 = DEFINITIONAL_REPRESENTATION('',(#593),#597);
#593 = LINE('',#594,#595);
#594 = CARTESIAN_POINT('',(9.115429765172E-17,-1.6372952612));
#595 = VECTOR('',#596,1.);
#596 = DIRECTION('',(1.,-6.021387815441E-17));
#597 = ( GEOMETRIC_REPRESENTATION_CONTEXT(2) 
PARAMETRIC_REPRESENTATION_CONTEXT() REPRESENTATION_CONTEXT('2D SPACE',''
  ) );
#598 = PCURVE('',#599,#604);
#599 = PLANE('',#600);
#600 = AXIS2_PLACEMENT_3D('',#601,#602,#603);
#601 = CARTESIAN_POINT('',(1.500000155863,6.936067055849E-04,
    8.0449179773E-04));
#602 = DIRECTION('',(0.999999967184,1.129563134742E-04,
    -2.299418075677E-04));
#603 = DIRECTION('',(-2.128261392477E-04,0.865912498146,-0.500195462054)
  );
#604 = DEFINITIONAL_REPRESENTATION('',(#605),#609);
#605 = LINE('',#606,#607);
#606 = CARTESIAN_POINT('',(0.57499975539,-0.995928790676));
#607 = VECTOR('',#608,1.);
#608 = DIRECTION('',(0.5,0.866025403784));
#609 = ( GEOMETRIC_REPRESENTATION_CONTEXT(2) 
PARAMETRIC_REPRESENTATION_CONTEXT() REPRESENTATION_CONTEXT('2D SPACE',''
  ) );
#610 = ORIENTED_EDGE('',*,*,#611,.T.);
#611 = EDGE_CURVE('',#584,#342,#612,.T.);
#612 = SURFACE_CURVE('',#613,(#617,#624),.PCURVE_S1.);
#613 = LINE('',#614,#615);
#614 = CARTESIAN_POINT('',(1.499755405907,0.996492555953,-0.574420044859
    ));
#615 = VECTOR('',#616,1.);
#616 = DIRECTION('',(-0.999999967184,-1.129563134742E-04,
    2.299418075676E-04));
#617 = PCURVE('',#356,#618);
#618 = DEFINITIONAL_REPRESENTATION('',(#619),#623);
#619 = LINE('',#620,#621);
#620 = CARTESIAN_POINT('',(1.149999510781,-1.6372952612));
#621 = VECTOR('',#622,1.);
#622 = DIRECTION('',(-8.889102561666E-17,1.));
#623 = ( GEOMETRIC_REPRESENTATION_CONTEXT(2) 
PARAMETRIC_REPRESENTATION_CONTEXT() REPRESENTATION_CONTEXT('2D SPACE',''
  ) );
#624 = PCURVE('',#383,#625);
#625 = DEFINITIONAL_REPRESENTATION('',(#626),#630);
#626 = LINE('',#627,#628);
#627 = CARTESIAN_POINT('',(-3.843496701461E-17,-1.6372952612));
#628 = VECTOR('',#629,1.);
#629 = DIRECTION('',(-6.993104012532E-18,1.));
#630 = ( GEOMETRIC_REPRESENTATION_CONTEXT(2) 
PARAMETRIC_REPRESENTATION_CONTEXT() REPRESENTATION_CONTEXT('2D SPACE',''
  ) );
#631 = ADVANCED_FACE('',(#632),#489,.T.);
#632 = FACE_BOUND('',#633,.T.);
#633 = EDGE_LOOP('',(#634,#635,#658,#679));
#634 = ORIENTED_EDGE('',*,*,#476,.F.);
#635 = ORIENTED_EDGE('',*,*,#636,.T.);
#636 = EDGE_CURVE('',#450,#637,#639,.T.);
#637 = VERTEX_POINT('',#638);
#638 = CARTESIAN_POINT('',(1.499980502184,-0.995364961933,
    -0.573970422626));
#639 = SURFACE_CURVE('',#640,(#644,#651),.PCURVE_S1.);
#640 = LINE('',#641,#642);
#641 = CARTESIAN_POINT('',(-1.453735984036E-04,-0.995534410628,
    -0.573625480959));
#642 = VECTOR('',#643,1.);
#643 = DIRECTION('',(0.999999967184,1.129563134742E-04,
    -2.299418075676E-04));
#644 = PCURVE('',#489,#645);
#645 = DEFINITIONAL_REPRESENTATION('',(#646),#650);
#646 = LINE('',#647,#648);
#647 = CARTESIAN_POINT('',(4.041702411119E-17,-0.137169336189));
#648 = VECTOR('',#649,1.);
#649 = DIRECTION('',(8.197923676706E-17,-1.));
#650 = ( GEOMETRIC_REPRESENTATION_CONTEXT(2) 
PARAMETRIC_REPRESENTATION_CONTEXT() REPRESENTATION_CONTEXT('2D SPACE',''
  ) );
#651 = PCURVE('',#464,#652);
#652 = DEFINITIONAL_REPRESENTATION('',(#653),#657);
#653 = LINE('',#654,#655);
#654 = CARTESIAN_POINT('',(1.149999510781,-0.137169336189));
#655 = VECTOR('',#656,1.);
#656 = DIRECTION('',(-6.938893903907E-18,-1.));
#657 = ( GEOMETRIC_REPRESENTATION_CONTEXT(2) 
PARAMETRIC_REPRESENTATION_CONTEXT() REPRESENTATION_CONTEXT('2D SPACE',''
  ) );
#658 = ORIENTED_EDGE('',*,*,#659,.T.);
#659 = EDGE_CURVE('',#637,#561,#660,.T.);
#660 = SURFACE_CURVE('',#661,(#665,#672),.PCURVE_S1.);
#661 = LINE('',#662,#663);
#662 = CARTESIAN_POINT('',(1.499980502184,-0.995364961933,
    -0.573970422626));
#663 = VECTOR('',#664,1.);
#664 = DIRECTION('',(-2.128261392477E-04,0.865912498146,-0.500195462054)
  );
#665 = PCURVE('',#489,#666);
#666 = DEFINITIONAL_REPRESENTATION('',(#667),#671);
#667 = LINE('',#668,#669);
#668 = CARTESIAN_POINT('',(1.634163724479E-16,-1.6372952612));
#669 = VECTOR('',#670,1.);
#670 = DIRECTION('',(1.,-1.204548613631E-16));
#671 = ( GEOMETRIC_REPRESENTATION_CONTEXT(2) 
PARAMETRIC_REPRESENTATION_CONTEXT() REPRESENTATION_CONTEXT('2D SPACE',''
  ) );
#672 = PCURVE('',#599,#673);
#673 = DEFINITIONAL_REPRESENTATION('',(#674),#678);
#674 = LINE('',#675,#676);
#675 = CARTESIAN_POINT('',(-0.57499975539,-0.995928790676));
#676 = VECTOR('',#677,1.);
#677 = DIRECTION('',(1.,-5.79247041873E-16));
#678 = ( GEOMETRIC_REPRESENTATION_CONTEXT(2) 
PARAMETRIC_REPRESENTATION_CONTEXT() REPRESENTATION_CONTEXT('2D SPACE',''
  ) );
#679 = ORIENTED_EDGE('',*,*,#560,.F.);
#680 = ADVANCED_FACE('',(#681),#464,.T.);
#681 = FACE_BOUND('',#682,.T.);
#682 = EDGE_LOOP('',(#683,#684,#707,#728));
#683 = ORIENTED_EDGE('',*,*,#449,.F.);
#684 = ORIENTED_EDGE('',*,*,#685,.T.);
#685 = EDGE_CURVE('',#423,#686,#688,.T.);
#686 = VERTEX_POINT('',#687);
#687 = CARTESIAN_POINT('',(1.500244905819,-0.995105342542,0.576029028454
    ));
#688 = SURFACE_CURVE('',#689,(#693,#700),.PCURVE_S1.);
#689 = LINE('',#690,#691);
#690 = CARTESIAN_POINT('',(1.190300371068E-04,-0.995274791236,
    0.576373970121));
#691 = VECTOR('',#692,1.);
#692 = DIRECTION('',(0.999999967184,1.129563134743E-04,
    -2.299418075676E-04));
#693 = PCURVE('',#464,#694);
#694 = DEFINITIONAL_REPRESENTATION('',(#695),#699);
#695 = LINE('',#696,#697);
#696 = CARTESIAN_POINT('',(4.884330787047E-17,-0.137169336189));
#697 = VECTOR('',#698,1.);
#698 = DIRECTION('',(-6.938893903907E-18,-1.));
#699 = ( GEOMETRIC_REPRESENTATION_CONTEXT(2) 
PARAMETRIC_REPRESENTATION_CONTEXT() REPRESENTATION_CONTEXT('2D SPACE',''
  ) );
#700 = PCURVE('',#437,#701);
#701 = DEFINITIONAL_REPRESENTATION('',(#702),#706);
#702 = LINE('',#703,#704);
#703 = CARTESIAN_POINT('',(1.149999510781,-0.137169336189));
#704 = VECTOR('',#705,1.);
#705 = DIRECTION('',(-1.529944790649E-16,-1.));
#706 = ( GEOMETRIC_REPRESENTATION_CONTEXT(2) 
PARAMETRIC_REPRESENTATION_CONTEXT() REPRESENTATION_CONTEXT('2D SPACE',''
  ) );
#707 = ORIENTED_EDGE('',*,*,#708,.T.);
#708 = EDGE_CURVE('',#686,#637,#709,.T.);
#709 = SURFACE_CURVE('',#710,(#714,#721),.PCURVE_S1.);
#710 = LINE('',#711,#712);
#711 = CARTESIAN_POINT('',(1.500244905819,-0.995105342542,0.576029028454
    ));
#712 = VECTOR('',#713,1.);
#713 = DIRECTION('',(-2.299163025999E-04,-2.257560889012E-04,
    -0.999999948086));
#714 = PCURVE('',#464,#715);
#715 = DEFINITIONAL_REPRESENTATION('',(#716),#720);
#716 = LINE('',#717,#718);
#717 = CARTESIAN_POINT('',(3.848917712324E-17,-1.6372952612));
#718 = VECTOR('',#719,1.);
#719 = DIRECTION('',(1.,-6.020032562726E-17));
#720 = ( GEOMETRIC_REPRESENTATION_CONTEXT(2) 
PARAMETRIC_REPRESENTATION_CONTEXT() REPRESENTATION_CONTEXT('2D SPACE',''
  ) );
#721 = PCURVE('',#599,#722);
#722 = DEFINITIONAL_REPRESENTATION('',(#723),#727);
#723 = LINE('',#724,#725);
#724 = CARTESIAN_POINT('',(-1.149999510781,1.891049088126E-16));
#725 = VECTOR('',#726,1.);
#726 = DIRECTION('',(0.5,-0.866025403784));
#727 = ( GEOMETRIC_REPRESENTATION_CONTEXT(2) 
PARAMETRIC_REPRESENTATION_CONTEXT() REPRESENTATION_CONTEXT('2D SPACE',''
  ) );
#728 = ORIENTED_EDGE('',*,*,#636,.F.);
#729 = ADVANCED_FACE('',(#730),#437,.T.);
#730 = FACE_BOUND('',#731,.T.);
#731 = EDGE_LOOP('',(#732,#733,#756,#777));
#732 = ORIENTED_EDGE('',*,*,#422,.F.);
#733 = ORIENTED_EDGE('',*,*,#734,.T.);
#734 = EDGE_CURVE('',#396,#735,#737,.T.);
#735 = VERTEX_POINT('',#736);
#736 = CARTESIAN_POINT('',(1.500264559499,9.53226097377E-04,
    1.150803942878));
#737 = SURFACE_CURVE('',#738,(#742,#749),.PCURVE_S1.);
#738 = LINE('',#739,#740);
#739 = CARTESIAN_POINT('',(1.386837166011E-04,7.837774031407E-04,
    1.151148884545));
#740 = VECTOR('',#741,1.);
#741 = DIRECTION('',(0.999999967184,1.129563134742E-04,
    -2.299418075678E-04));
#742 = PCURVE('',#437,#743);
#743 = DEFINITIONAL_REPRESENTATION('',(#744),#748);
#744 = LINE('',#745,#746);
#745 = CARTESIAN_POINT('',(-6.367993697458E-17,-0.137169336189));
#746 = VECTOR('',#747,1.);
#747 = DIRECTION('',(-1.981379470217E-17,-1.));
#748 = ( GEOMETRIC_REPRESENTATION_CONTEXT(2) 
PARAMETRIC_REPRESENTATION_CONTEXT() REPRESENTATION_CONTEXT('2D SPACE',''
  ) );
#749 = PCURVE('',#410,#750);
#750 = DEFINITIONAL_REPRESENTATION('',(#751),#755);
#751 = LINE('',#752,#753);
#752 = CARTESIAN_POINT('',(1.149999510781,-0.137169336189));
#753 = VECTOR('',#754,1.);
#754 = DIRECTION('',(-1.60909154924E-16,-1.));
#755 = ( GEOMETRIC_REPRESENTATION_CONTEXT(2) 
PARAMETRIC_REPRESENTATION_CONTEXT() REPRESENTATION_CONTEXT('2D SPACE',''
  ) );
#756 = ORIENTED_EDGE('',*,*,#757,.T.);
#757 = EDGE_CURVE('',#735,#686,#758,.T.);
#758 = SURFACE_CURVE('',#759,(#763,#770),.PCURVE_S1.);
#759 = LINE('',#760,#761);
#760 = CARTESIAN_POINT('',(1.500264559499,9.53226097377E-04,
    1.150803942878));
#761 = VECTOR('',#762,1.);
#762 = DIRECTION('',(-1.709016335228E-05,-0.866138254235,-0.499804486033
    ));
#763 = PCURVE('',#437,#764);
#764 = DEFINITIONAL_REPRESENTATION('',(#765),#769);
#765 = LINE('',#766,#767);
#766 = CARTESIAN_POINT('',(-9.110008754309E-17,-1.6372952612));
#767 = VECTOR('',#768,1.);
#768 = DIRECTION('',(1.,6.022743068157E-17));
#769 = ( GEOMETRIC_REPRESENTATION_CONTEXT(2) 
PARAMETRIC_REPRESENTATION_CONTEXT() REPRESENTATION_CONTEXT('2D SPACE',''
  ) );
#770 = PCURVE('',#599,#771);
#771 = DEFINITIONAL_REPRESENTATION('',(#772),#776);
#772 = LINE('',#773,#774);
#773 = CARTESIAN_POINT('',(-0.57499975539,0.995928790676));
#774 = VECTOR('',#775,1.);
#775 = DIRECTION('',(-0.5,-0.866025403784));
#776 = ( GEOMETRIC_REPRESENTATION_CONTEXT(2) 
PARAMETRIC_REPRESENTATION_CONTEXT() REPRESENTATION_CONTEXT('2D SPACE',''
  ) );
#777 = ORIENTED_EDGE('',*,*,#685,.F.);
#778 = ADVANCED_FACE('',(#779),#410,.T.);
#779 = FACE_BOUND('',#780,.T.);
#780 = EDGE_LOOP('',(#781,#782,#805,#826));
#781 = ORIENTED_EDGE('',*,*,#395,.F.);
#782 = ORIENTED_EDGE('',*,*,#783,.T.);
#783 = EDGE_CURVE('',#369,#784,#786,.T.);
#784 = VERTEX_POINT('',#785);
#785 = CARTESIAN_POINT('',(1.500019809543,0.996752175344,0.575579406221)
  );
#786 = SURFACE_CURVE('',#787,(#791,#798),.PCURVE_S1.);
#787 = LINE('',#788,#789);
#788 = CARTESIAN_POINT('',(-1.060662394151E-04,0.99658272665,
    0.575924347888));
#789 = VECTOR('',#790,1.);
#790 = DIRECTION('',(0.999999967184,1.129563134743E-04,
    -2.299418075676E-04));
#791 = PCURVE('',#410,#792);
#792 = DEFINITIONAL_REPRESENTATION('',(#793),#797);
#793 = LINE('',#794,#795);
#794 = CARTESIAN_POINT('',(-4.042041224298E-17,-0.137169336189));
#795 = VECTOR('',#796,1.);
#796 = DIRECTION('',(-1.460691376881E-16,-1.));
#797 = ( GEOMETRIC_REPRESENTATION_CONTEXT(2) 
PARAMETRIC_REPRESENTATION_CONTEXT() REPRESENTATION_CONTEXT('2D SPACE',''
  ) );
#798 = PCURVE('',#383,#799);
#799 = DEFINITIONAL_REPRESENTATION('',(#800),#804);
#800 = LINE('',#801,#802);
#801 = CARTESIAN_POINT('',(1.149999510781,-0.137169336189));
#802 = VECTOR('',#803,1.);
#803 = DIRECTION('',(6.965998958219E-18,-1.));
#804 = ( GEOMETRIC_REPRESENTATION_CONTEXT(2) 
PARAMETRIC_REPRESENTATION_CONTEXT() REPRESENTATION_CONTEXT('2D SPACE',''
  ) );
#805 = ORIENTED_EDGE('',*,*,#806,.T.);
#806 = EDGE_CURVE('',#784,#735,#807,.T.);
#807 = SURFACE_CURVE('',#808,(#812,#819),.PCURVE_S1.);
#808 = LINE('',#809,#810);
#809 = CARTESIAN_POINT('',(1.500019809543,0.996752175344,0.575579406221)
  );
#810 = VECTOR('',#811,1.);
#811 = DIRECTION('',(2.128261392477E-04,-0.865912498146,0.500195462054)
  );
#812 = PCURVE('',#410,#813);
#813 = DEFINITIONAL_REPRESENTATION('',(#814),#818);
#814 = LINE('',#815,#816);
#815 = CARTESIAN_POINT('',(-3.1504204627E-16,-1.6372952612));
#816 = VECTOR('',#817,1.);
#817 = DIRECTION('',(1.,1.204684138903E-16));
#818 = ( GEOMETRIC_REPRESENTATION_CONTEXT(2) 
PARAMETRIC_REPRESENTATION_CONTEXT() REPRESENTATION_CONTEXT('2D SPACE',''
  ) );
#819 = PCURVE('',#599,#820);
#820 = DEFINITIONAL_REPRESENTATION('',(#821),#825);
#821 = LINE('',#822,#823);
#822 = CARTESIAN_POINT('',(0.57499975539,0.995928790676));
#823 = VECTOR('',#824,1.);
#824 = DIRECTION('',(-1.,1.93082347291E-16));
#825 = ( GEOMETRIC_REPRESENTATION_CONTEXT(2) 
PARAMETRIC_REPRESENTATION_CONTEXT() REPRESENTATION_CONTEXT('2D SPACE',''
  ) );
#826 = ORIENTED_EDGE('',*,*,#734,.F.);
#827 = ADVANCED_FACE('',(#828),#383,.T.);
#828 = FACE_BOUND('',#829,.T.);
#829 = EDGE_LOOP('',(#830,#831,#832,#853));
#830 = ORIENTED_EDGE('',*,*,#368,.F.);
#831 = ORIENTED_EDGE('',*,*,#611,.F.);
#832 = ORIENTED_EDGE('',*,*,#833,.T.);
#833 = EDGE_CURVE('',#584,#784,#834,.T.);
#834 = SURFACE_CURVE('',#835,(#839,#846),.PCURVE_S1.);
#835 = LINE('',#836,#837);
#836 = CARTESIAN_POINT('',(1.499755405907,0.996492555953,-0.574420044859
    ));
#837 = VECTOR('',#838,1.);
#838 = DIRECTION('',(2.299163025999E-04,2.257560889009E-04,
    0.999999948086));
#839 = PCURVE('',#383,#840);
#840 = DEFINITIONAL_REPRESENTATION('',(#841),#845);
#841 = LINE('',#842,#843);
#842 = CARTESIAN_POINT('',(-3.843496701461E-17,-1.6372952612));
#843 = VECTOR('',#844,1.);
#844 = DIRECTION('',(1.,6.017322057295E-17));
#845 = ( GEOMETRIC_REPRESENTATION_CONTEXT(2) 
PARAMETRIC_REPRESENTATION_CONTEXT() REPRESENTATION_CONTEXT('2D SPACE',''
  ) );
#846 = PCURVE('',#599,#847);
#847 = DEFINITIONAL_REPRESENTATION('',(#848),#852);
#848 = LINE('',#849,#850);
#849 = CARTESIAN_POINT('',(1.149999510781,4.827058682275E-17));
#850 = VECTOR('',#851,1.);
#851 = DIRECTION('',(-0.5,0.866025403784));
#852 = ( GEOMETRIC_REPRESENTATION_CONTEXT(2) 
PARAMETRIC_REPRESENTATION_CONTEXT() REPRESENTATION_CONTEXT('2D SPACE',''
  ) );
#853 = ORIENTED_EDGE('',*,*,#783,.F.);
#854 = ADVANCED_FACE('',(#855,#858),#543,.T.);
#855 = FACE_BOUND('',#856,.T.);
#856 = EDGE_LOOP('',(#857));
#857 = ORIENTED_EDGE('',*,*,#528,.T.);
#858 = FACE_BOUND('',#859,.T.);
#859 = EDGE_LOOP('',(#860));
#860 = ORIENTED_EDGE('',*,*,#861,.F.);
#861 = EDGE_CURVE('',#862,#862,#864,.T.);
#862 = VERTEX_POINT('',#863);
#863 = CARTESIAN_POINT('',(11.255579140019,1.795509164423E-03,
    1.993495376586));
#864 = SURFACE_CURVE('',#865,(#870,#877),.PCURVE_S1.);
#865 = CIRCLE('',#866,1.994934047588);
#866 = AXIS2_PLACEMENT_3D('',#867,#868,#869);
#867 = CARTESIAN_POINT('',(11.255120421275,1.795509164423E-03,
    -1.438618262749E-03));
#868 = DIRECTION('',(0.999999967184,1.129563134741E-04,
    -2.299418075677E-04));
#869 = DIRECTION('',(2.299418090346E-04,-3.308722450212E-24,
    0.999999973563));
#870 = PCURVE('',#543,#871);
#871 = DEFINITIONAL_REPRESENTATION('',(#872),#876);
#872 = CIRCLE('',#873,1.994934047588);
#873 = AXIS2_PLACEMENT_2D('',#874,#875);
#874 = CARTESIAN_POINT('',(-6.252991339072E-19,-2.006507090566E-19));
#875 = DIRECTION('',(1.,0.));
#876 = ( GEOMETRIC_REPRESENTATION_CONTEXT(2) 
PARAMETRIC_REPRESENTATION_CONTEXT() REPRESENTATION_CONTEXT('2D SPACE',''
  ) );
#877 = PCURVE('',#878,#883);
#878 = CONICAL_SURFACE('',#879,2.000666913939,0.785513308328);
#879 = AXIS2_PLACEMENT_3D('',#880,#881,#882);
#880 = CARTESIAN_POINT('',(11.249388875182,1.794861750084E-03,
    -1.437300340637E-03));
#881 = DIRECTION('',(-0.999999967184,-1.129563134741E-04,
    2.299418075677E-04));
#882 = DIRECTION('',(2.299418090346E-04,0.,0.999999973563));
#883 = DEFINITIONAL_REPRESENTATION('',(#884),#888);
#884 = LINE('',#885,#886);
#885 = CARTESIAN_POINT('',(-0.,-5.731546281607E-03));
#886 = VECTOR('',#887,1.);
#887 = DIRECTION('',(-1.,-0.));
#888 = ( GEOMETRIC_REPRESENTATION_CONTEXT(2) 
PARAMETRIC_REPRESENTATION_CONTEXT() REPRESENTATION_CONTEXT('2D SPACE',''
  ) );
#889 = ADVANCED_FACE('',(#890),#878,.T.);
#890 = FACE_BOUND('',#891,.T.);
#891 = EDGE_LOOP('',(#892,#915,#942,#943));
#892 = ORIENTED_EDGE('',*,*,#893,.T.);
#893 = EDGE_CURVE('',#862,#894,#896,.T.);
#894 = VERTEX_POINT('',#895);
#895 = CARTESIAN_POINT('',(12.000286961779,1.879647968831E-03,
    1.248273395032));
#896 = SEAM_CURVE('',#897,(#901,#908),.PCURVE_S1.);
#897 = LINE('',#898,#899);
#898 = CARTESIAN_POINT('',(11.249848912151,1.794861750085E-03,
    1.999229560708));
#899 = VECTOR('',#900,1.);
#900 = DIRECTION('',(0.706862721403,7.986297782966E-05,-0.707350752253)
  );
#901 = PCURVE('',#878,#902);
#902 = DEFINITIONAL_REPRESENTATION('',(#903),#907);
#903 = LINE('',#904,#905);
#904 = CARTESIAN_POINT('',(-6.28318530718,0.));
#905 = VECTOR('',#906,1.);
#906 = DIRECTION('',(-0.,-1.));
#907 = ( GEOMETRIC_REPRESENTATION_CONTEXT(2) 
PARAMETRIC_REPRESENTATION_CONTEXT() REPRESENTATION_CONTEXT('2D SPACE',''
  ) );
#908 = PCURVE('',#878,#909);
#909 = DEFINITIONAL_REPRESENTATION('',(#910),#914);
#910 = LINE('',#911,#912);
#911 = CARTESIAN_POINT('',(0.,-0.));
#912 = VECTOR('',#913,1.);
#913 = DIRECTION('',(-0.,-1.));
#914 = ( GEOMETRIC_REPRESENTATION_CONTEXT(2) 
PARAMETRIC_REPRESENTATION_CONTEXT() REPRESENTATION_CONTEXT('2D SPACE',''
  ) );
#915 = ORIENTED_EDGE('',*,*,#916,.F.);
#916 = EDGE_CURVE('',#894,#894,#917,.T.);
#917 = SURFACE_CURVE('',#918,(#923,#930),.PCURVE_S1.);
#918 = CIRCLE('',#919,1.249883325198);
#919 = AXIS2_PLACEMENT_3D('',#920,#921,#922);
#920 = CARTESIAN_POINT('',(11.999999561346,1.87964796883E-03,
    -1.609897124257E-03));
#921 = DIRECTION('',(0.999999967184,1.129563134741E-04,
    -2.299418075677E-04));
#922 = DIRECTION('',(2.299418090346E-04,-3.308722450212E-24,
    0.999999973563));
#923 = PCURVE('',#878,#924);
#924 = DEFINITIONAL_REPRESENTATION('',(#925),#929);
#925 = LINE('',#926,#927);
#926 = CARTESIAN_POINT('',(-0.,-0.750610710797));
#927 = VECTOR('',#928,1.);
#928 = DIRECTION('',(-1.,-0.));
#929 = ( GEOMETRIC_REPRESENTATION_CONTEXT(2) 
PARAMETRIC_REPRESENTATION_CONTEXT() REPRESENTATION_CONTEXT('2D SPACE',''
  ) );
#930 = PCURVE('',#931,#936);
#931 = PLANE('',#932);
#932 = AXIS2_PLACEMENT_3D('',#933,#934,#935);
#933 = CARTESIAN_POINT('',(11.999999561346,1.87964796883E-03,
    -1.609897124257E-03));
#934 = DIRECTION('',(0.999999967184,1.129563134741E-04,
    -2.299418075677E-04));
#935 = DIRECTION('',(2.299418090346E-04,0.,0.999999973563));
#936 = DEFINITIONAL_REPRESENTATION('',(#937),#941);
#937 = CIRCLE('',#938,1.249883325198);
#938 = AXIS2_PLACEMENT_2D('',#939,#940);
#939 = CARTESIAN_POINT('',(0.,0.));
#940 = DIRECTION('',(1.,0.));
#941 = ( GEOMETRIC_REPRESENTATION_CONTEXT(2) 
PARAMETRIC_REPRESENTATION_CONTEXT() REPRESENTATION_CONTEXT('2D SPACE',''
  ) );
#942 = ORIENTED_EDGE('',*,*,#893,.F.);
#943 = ORIENTED_EDGE('',*,*,#861,.T.);
#944 = ADVANCED_FACE('',(#945),#931,.T.);
#945 = FACE_BOUND('',#946,.T.);
#946 = EDGE_LOOP('',(#947));
#947 = ORIENTED_EDGE('',*,*,#916,.T.);
#948 = ADVANCED_FACE('',(#949),#599,.F.);
#949 = FACE_BOUND('',#950,.F.);
#950 = EDGE_LOOP('',(#951,#952,#953,#954,#955,#956));
#951 = ORIENTED_EDGE('',*,*,#833,.T.);
#952 = ORIENTED_EDGE('',*,*,#806,.T.);
#953 = ORIENTED_EDGE('',*,*,#757,.T.);
#954 = ORIENTED_EDGE('',*,*,#708,.T.);
#955 = ORIENTED_EDGE('',*,*,#659,.T.);
#956 = ORIENTED_EDGE('',*,*,#583,.T.);
#957 = ( GEOMETRIC_REPRESENTATION_CONTEXT(3) 
GLOBAL_UNCERTAINTY_ASSIGNED_CONTEXT((#961)) GLOBAL_UNIT_ASSIGNED_CONTEXT
((#958,#959,#960)) REPRESENTATION_CONTEXT('Context #1',
  '3D Context with UNIT and UNCERTAINTY') );
#958 = ( LENGTH_UNIT() NAMED_UNIT(*) SI_UNIT(.MILLI.,.METRE.) );
#959 = ( NAMED_UNIT(*) PLANE_ANGLE_UNIT() SI_UNIT($,.RADIAN.) );
#960 = ( NAMED_UNIT(*) SI_UNIT($,.STERADIAN.) SOLID_ANGLE_UNIT() );
#961 = UNCERTAINTY_MEASURE_WITH_UNIT(LENGTH_MEASURE(2.E-04),#958,
  'distance_accuracy_value','confusion accuracy');
#962 = PRODUCT_TYPE('part',$,(#7));
ENDSEC;
END-ISO-10303-21;
