ISO-10303-21;
HEADER;
FILE_DESCRIPTION(('Open CASCADE Model'),'2;1');
FILE_NAME('Open CASCADE Shape Model','2026-06-20T23:58:57',('Author'),(
    'Open CASCADE'),'Open CASCADE STEP processor 7.8','Open CASCADE 7.8'
  ,'Unknown');
FILE_SCHEMA(('CONFIG_CONTROL_DESIGN'));
ENDSEC;
DATA;
#1 = APPLICATION_PROTOCOL_DEFINITION('committee draft',
  'automotive_design',1997,#2);
#2 = APPLICATION_CONTEXT(
  'core data for automotive mechanical design processes');
#3 = SHAPE_DEFINITION_REPRESENTATION(#4,#10);
#4 = PRODUCT_DEFINITION_SHAPE('','',#5);
#5 = PRODUCT_DEFINITION('design','',#6,#9);
#6 = PRODUCT_DEFINITION_FORMATION('','',#7);
#7 = PRODUCT('Product 19','Product 19','',(#8));
#8 = MECHANICAL_CONTEXT('',#2,'mechanical');
#9 = PRODUCT_DEFINITION_CONTEXT('part definition',#2,'design');
#10 = ADVANCED_BREP_SHAPE_REPRESENTATION('',(#11,#15),#915);
#11 = AXIS2_PLACEMENT_3D('',#12,#13,#14);
#12 = CARTESIAN_POINT('',(0.,0.,0.));
#13 = DIRECTION('',(0.,0.,1.));
#14 = DIRECTION('',(1.,0.,-0.));
#15 = MANIFOLD_SOLID_BREP('',#16);
#16 = CLOSED_SHELL('',(#17,#218,#272,#323,#522,#562,#601,#658,#738,#773,
    #800,#859,#908));
#17 = ADVANCED_FACE('',(#18),#32,.T.);
#18 = FACE_BOUND('',#19,.T.);
#19 = EDGE_LOOP('',(#20,#50,#77,#78,#110,#135,#164,#193));
#20 = ORIENTED_EDGE('',*,*,#21,.T.);
#21 = EDGE_CURVE('',#22,#24,#26,.T.);
#22 = VERTEX_POINT('',#23);
#23 = CARTESIAN_POINT('',(10.510785415526,14.465789713307,
    -4.555173978046E-03));
#24 = VERTEX_POINT('',#25);
#25 = CARTESIAN_POINT('',(13.506049106772,14.462298402884,
    -3.486316160857E-03));
#26 = SEAM_CURVE('',#27,(#31,#43),.PCURVE_S1.);
#27 = LINE('',#28,#29);
#28 = CARTESIAN_POINT('',(10.423039252475,14.465891991145,
    -4.586486136832E-03));
#29 = VECTOR('',#30,1.);
#30 = DIRECTION('',(0.999999257006,-1.165609505388E-03,
    3.568490567807E-04));
#31 = PCURVE('',#32,#37);
#32 = CYLINDRICAL_SURFACE('',#33,14.455816855668);
#33 = AXIS2_PLACEMENT_3D('',#34,#35,#36);
#34 = CARTESIAN_POINT('',(10.406189413867,1.008495564756E-02,
    -4.586486136828E-03));
#35 = DIRECTION('',(0.999999257006,-1.165609505388E-03,
    3.568490567807E-04));
#36 = DIRECTION('',(1.165609579603E-03,0.999999320677,0.));
#37 = DEFINITIONAL_REPRESENTATION('',(#38),#42);
#38 = LINE('',#39,#40);
#39 = CARTESIAN_POINT('',(6.28318530718,-0.));
#40 = VECTOR('',#41,1.);
#41 = DIRECTION('',(0.,1.));
#42 = ( GEOMETRIC_REPRESENTATION_CONTEXT(2) 
PARAMETRIC_REPRESENTATION_CONTEXT() REPRESENTATION_CONTEXT('2D SPACE',''
  ) );
#43 = PCURVE('',#32,#44);
#44 = DEFINITIONAL_REPRESENTATION('',(#45),#49);
#45 = LINE('',#46,#47);
#46 = CARTESIAN_POINT('',(0.,-0.));
#47 = VECTOR('',#48,1.);
#48 = DIRECTION('',(0.,1.));
#49 = ( GEOMETRIC_REPRESENTATION_CONTEXT(2) 
PARAMETRIC_REPRESENTATION_CONTEXT() REPRESENTATION_CONTEXT('2D SPACE',''
  ) );
#50 = ORIENTED_EDGE('',*,*,#51,.F.);
#51 = EDGE_CURVE('',#24,#24,#52,.T.);
#52 = SURFACE_CURVE('',#53,(#58,#65),.PCURVE_S1.);
#53 = CIRCLE('',#54,14.455816855668);
#54 = AXIS2_PLACEMENT_3D('',#55,#56,#57);
#55 = CARTESIAN_POINT('',(13.489199268164,6.491367386175E-03,
    -3.486316160857E-03));
#56 = DIRECTION('',(0.999999257006,-1.165609505388E-03,
    3.568490567807E-04));
#57 = DIRECTION('',(1.165609579603E-03,0.999999320677,3.981054852095E-20
    ));
#58 = PCURVE('',#32,#59);
#59 = DEFINITIONAL_REPRESENTATION('',(#60),#64);
#60 = LINE('',#61,#62);
#61 = CARTESIAN_POINT('',(0.,3.083012144956));
#62 = VECTOR('',#63,1.);
#63 = DIRECTION('',(1.,0.));
#64 = ( GEOMETRIC_REPRESENTATION_CONTEXT(2) 
PARAMETRIC_REPRESENTATION_CONTEXT() REPRESENTATION_CONTEXT('2D SPACE',''
  ) );
#65 = PCURVE('',#66,#71);
#66 = TOROIDAL_SURFACE('',#67,13.853867761012,0.601949094655);
#67 = AXIS2_PLACEMENT_3D('',#68,#69,#70);
#68 = CARTESIAN_POINT('',(13.489199268164,6.491367386175E-03,
    -3.486316160857E-03));
#69 = DIRECTION('',(0.999999257006,-1.165609505388E-03,
    3.568490567807E-04));
#70 = DIRECTION('',(1.165609579603E-03,0.999999320677,3.981054852095E-20
    ));
#71 = DEFINITIONAL_REPRESENTATION('',(#72),#76);
#72 = LINE('',#73,#74);
#73 = CARTESIAN_POINT('',(0.,0.));
#74 = VECTOR('',#75,1.);
#75 = DIRECTION('',(1.,0.));
#76 = ( GEOMETRIC_REPRESENTATION_CONTEXT(2) 
PARAMETRIC_REPRESENTATION_CONTEXT() REPRESENTATION_CONTEXT('2D SPACE',''
  ) );
#77 = ORIENTED_EDGE('',*,*,#21,.F.);
#78 = ORIENTED_EDGE('',*,*,#79,.T.);
#79 = EDGE_CURVE('',#22,#80,#82,.T.);
#80 = VERTEX_POINT('',#81);
#81 = CARTESIAN_POINT('',(10.499956082663,14.237637749944,2.553672532539
    ));
#82 = SURFACE_CURVE('',#83,(#88,#98),.PCURVE_S1.);
#83 = ELLIPSE('',#84,14.45595914637,14.455816855668);
#84 = AXIS2_PLACEMENT_3D('',#85,#86,#87);
#85 = CARTESIAN_POINT('',(10.455133690062,1.002790569161E-02,
    -4.569020405056E-03));
#86 = DIRECTION('',(0.999985024588,-3.849741484106E-03,
    3.889741552885E-03));
#87 = DIRECTION('',(5.426168921005E-03,0.604949329522,-0.796245480616));
#88 = PCURVE('',#32,#89);
#89 = DEFINITIONAL_REPRESENTATION('',(#90),#97);
#90 = B_SPLINE_CURVE_WITH_KNOTS('',5,(#91,#92,#93,#94,#95,#96),
  .UNSPECIFIED.,.F.,.F.,(6,6),(0.921079190867,1.238231879295),
  .PIECEWISE_BEZIER_KNOTS.);
#91 = CARTESIAN_POINT('',(0.,8.774622824621E-02));
#92 = CARTESIAN_POINT('',(6.343053768546E-02,8.450674165423E-02));
#93 = CARTESIAN_POINT('',(0.126861075371,8.107210988768E-02));
#94 = CARTESIAN_POINT('',(0.190291613056,7.746948037368E-02));
#95 = CARTESIAN_POINT('',(0.253722150742,7.372930161048E-02));
#96 = CARTESIAN_POINT('',(0.317152688427,6.988381290205E-02));
#97 = ( GEOMETRIC_REPRESENTATION_CONTEXT(2) 
PARAMETRIC_REPRESENTATION_CONTEXT() REPRESENTATION_CONTEXT('2D SPACE',''
  ) );
#98 = PCURVE('',#99,#104);
#99 = PLANE('',#100);
#100 = AXIS2_PLACEMENT_3D('',#101,#102,#103);
#101 = CARTESIAN_POINT('',(10.520438098323,16.986202366545,
    8.401703402488E-03));
#102 = DIRECTION('',(0.999985024588,-3.849741484106E-03,
    3.889741552885E-03));
#103 = DIRECTION('',(-3.889770377181E-03,0.,0.999992434815));
#104 = DEFINITIONAL_REPRESENTATION('',(#105),#109);
#105 = ELLIPSE('',#106,14.45595914637,14.455816855668);
#106 = AXIS2_PLACEMENT_2D('',#107,#108);
#107 = CARTESIAN_POINT('',(-1.271660652886E-02,16.976300260029));
#108 = DIRECTION('',(-0.796260563423,-0.604953812401));
#109 = ( GEOMETRIC_REPRESENTATION_CONTEXT(2) 
PARAMETRIC_REPRESENTATION_CONTEXT() REPRESENTATION_CONTEXT('2D SPACE',''
  ) );
#110 = ORIENTED_EDGE('',*,*,#111,.T.);
#111 = EDGE_CURVE('',#80,#112,#114,.T.);
#112 = VERTEX_POINT('',#113);
#113 = CARTESIAN_POINT('',(10.421860638261,14.237804402315,2.55322404716
    ));
#114 = SURFACE_CURVE('',#115,(#118,#124),.PCURVE_S1.);
#115 = B_SPLINE_CURVE_WITH_KNOTS('',1,(#116,#117),.UNSPECIFIED.,.F.,.F.,
  (2,2),(0.,1.),.PIECEWISE_BEZIER_KNOTS.);
#116 = CARTESIAN_POINT('',(10.501956451503,14.237633481131,
    2.553684019907));
#117 = CARTESIAN_POINT('',(10.419860245849,14.237808670957,
    2.553212559015));
#118 = PCURVE('',#32,#119);
#119 = DEFINITIONAL_REPRESENTATION('',(#120),#123);
#120 = B_SPLINE_CURVE_WITH_KNOTS('',1,(#121,#122),.UNSPECIFIED.,.F.,.F.,
  (2,2),(0.,1.),.PIECEWISE_BEZIER_KNOTS.);
#121 = CARTESIAN_POINT('',(0.177906733437,8.009611709981E-02));
#122 = CARTESIAN_POINT('',(0.177875655669,-2.0004E-03));
#123 = ( GEOMETRIC_REPRESENTATION_CONTEXT(2) 
PARAMETRIC_REPRESENTATION_CONTEXT() REPRESENTATION_CONTEXT('2D SPACE',''
  ) );
#124 = PCURVE('',#125,#130);
#125 = CYLINDRICAL_SURFACE('',#126,3.74612206932);
#126 = AXIS2_PLACEMENT_3D('',#127,#128,#129);
#127 = CARTESIAN_POINT('',(3.479601719254,17.013308172357,
    -1.898574056648E-02));
#128 = DIRECTION('',(0.999985024588,-3.849741484106E-03,
    3.889741552885E-03));
#129 = DIRECTION('',(-3.889770377181E-03,0.,0.999992434815));
#130 = DEFINITIONAL_REPRESENTATION('',(#131),#134);
#131 = B_SPLINE_CURVE_WITH_KNOTS('',1,(#132,#133),.UNSPECIFIED.,.F.,.F.,
  (2,2),(0.,1.),.PIECEWISE_BEZIER_KNOTS.);
#132 = CARTESIAN_POINT('',(0.823771800247,7.04294222007));
#133 = CARTESIAN_POINT('',(0.823827144444,6.960844735545));
#134 = ( GEOMETRIC_REPRESENTATION_CONTEXT(2) 
PARAMETRIC_REPRESENTATION_CONTEXT() REPRESENTATION_CONTEXT('2D SPACE',''
  ) );
#135 = ORIENTED_EDGE('',*,*,#136,.T.);
#136 = EDGE_CURVE('',#112,#137,#139,.T.);
#137 = VERTEX_POINT('',#138);
#138 = CARTESIAN_POINT('',(10.423682999795,14.241597410917,
    -2.541196068744));
#139 = SURFACE_CURVE('',#140,(#145,#152),.PCURVE_S1.);
#140 = CIRCLE('',#141,14.455816855668);
#141 = AXIS2_PLACEMENT_3D('',#142,#143,#144);
#142 = CARTESIAN_POINT('',(10.406189413867,1.008495564756E-02,
    -4.586486136828E-03));
#143 = DIRECTION('',(0.999999257006,-1.165609505388E-03,
    3.568490567807E-04));
#144 = DIRECTION('',(1.165609579603E-03,0.999999320677,0.));
#145 = PCURVE('',#32,#146);
#146 = DEFINITIONAL_REPRESENTATION('',(#147),#151);
#147 = LINE('',#148,#149);
#148 = CARTESIAN_POINT('',(0.,0.));
#149 = VECTOR('',#150,1.);
#150 = DIRECTION('',(1.,0.));
#151 = ( GEOMETRIC_REPRESENTATION_CONTEXT(2) 
PARAMETRIC_REPRESENTATION_CONTEXT() REPRESENTATION_CONTEXT('2D SPACE',''
  ) );
#152 = PCURVE('',#153,#158);
#153 = PLANE('',#154);
#154 = AXIS2_PLACEMENT_3D('',#155,#156,#157);
#155 = CARTESIAN_POINT('',(10.406189413867,1.008495564756E-02,
    -4.586486136828E-03));
#156 = DIRECTION('',(0.999999257006,-1.165609505388E-03,
    3.568490567807E-04));
#157 = DIRECTION('',(1.165609579603E-03,0.999999320677,0.));
#158 = DEFINITIONAL_REPRESENTATION('',(#159),#163);
#159 = CIRCLE('',#160,14.455816855668);
#160 = AXIS2_PLACEMENT_2D('',#161,#162);
#161 = CARTESIAN_POINT('',(0.,0.));
#162 = DIRECTION('',(1.,0.));
#163 = ( GEOMETRIC_REPRESENTATION_CONTEXT(2) 
PARAMETRIC_REPRESENTATION_CONTEXT() REPRESENTATION_CONTEXT('2D SPACE',''
  ) );
#164 = ORIENTED_EDGE('',*,*,#165,.T.);
#165 = EDGE_CURVE('',#137,#166,#168,.T.);
#166 = VERTEX_POINT('',#167);
#167 = CARTESIAN_POINT('',(10.519788614704,14.241494629458,
    -2.541109931086));
#168 = SURFACE_CURVE('',#169,(#175,#184),.PCURVE_S1.);
#169 = B_SPLINE_CURVE_WITH_KNOTS('',3,(#170,#171,#172,#173,#174),
  .UNSPECIFIED.,.F.,.F.,(4,1,4),(0.,0.49998963364,1.),.UNSPECIFIED.);
#170 = CARTESIAN_POINT('',(10.421682601443,14.241599550364,
    -2.541197861123));
#171 = CARTESIAN_POINT('',(10.438366660202,14.241581706568,
    -2.541182912118));
#172 = CARTESIAN_POINT('',(10.471735469546,14.241546019037,
    -2.541153008883));
#173 = CARTESIAN_POINT('',(10.505104278872,14.241510333112,
    -2.541123096443));
#174 = CARTESIAN_POINT('',(10.521789029448,14.241492490181,
    -2.541108137611));
#175 = PCURVE('',#32,#176);
#176 = DEFINITIONAL_REPRESENTATION('',(#177),#183);
#177 = B_SPLINE_CURVE_WITH_KNOTS('',3,(#178,#179,#180,#181,#182),
  .UNSPECIFIED.,.F.,.F.,(4,1,4),(0.,0.49998963364,1.),.UNSPECIFIED.);
#178 = CARTESIAN_POINT('',(6.106798734538,-2.0004E-03));
#179 = CARTESIAN_POINT('',(6.106799366608,1.468367249626E-02));
#180 = CARTESIAN_POINT('',(6.106800631096,4.805250931737E-02));
#181 = CARTESIAN_POINT('',(6.106801896231,8.142134611885E-02));
#182 = CARTESIAN_POINT('',(6.106802528973,9.810611043401E-02));
#183 = ( GEOMETRIC_REPRESENTATION_CONTEXT(2) 
PARAMETRIC_REPRESENTATION_CONTEXT() REPRESENTATION_CONTEXT('2D SPACE',''
  ) );
#184 = PCURVE('',#125,#185);
#185 = DEFINITIONAL_REPRESENTATION('',(#186),#192);
#186 = B_SPLINE_CURVE_WITH_KNOTS('',3,(#187,#188,#189,#190,#191),
  .UNSPECIFIED.,.F.,.F.,(4,1,4),(0.,0.49998963364,1.),.UNSPECIFIED.);
#187 = CARTESIAN_POINT('',(2.319226562361,6.942836530045));
#188 = CARTESIAN_POINT('',(2.319244758445,6.959520465795));
#189 = CARTESIAN_POINT('',(2.319281150613,6.992889029129));
#190 = CARTESIAN_POINT('',(2.319317541271,7.026257592479));
#191 = CARTESIAN_POINT('',(2.3193357366,7.04294222007));
#192 = ( GEOMETRIC_REPRESENTATION_CONTEXT(2) 
PARAMETRIC_REPRESENTATION_CONTEXT() REPRESENTATION_CONTEXT('2D SPACE',''
  ) );
#193 = ORIENTED_EDGE('',*,*,#194,.T.);
#194 = EDGE_CURVE('',#166,#22,#195,.T.);
#195 = SURFACE_CURVE('',#196,(#201,#211),.PCURVE_S1.);
#196 = ELLIPSE('',#197,14.45595914637,14.455816855668);
#197 = AXIS2_PLACEMENT_3D('',#198,#199,#200);
#198 = CARTESIAN_POINT('',(10.455133690062,1.002790569161E-02,
    -4.569020405056E-03));
#199 = DIRECTION('',(0.999985024588,-3.849741484106E-03,
    3.889741552885E-03));
#200 = DIRECTION('',(5.426168921005E-03,0.604949329522,-0.796245480616)
  );
#201 = PCURVE('',#32,#202);
#202 = DEFINITIONAL_REPRESENTATION('',(#203),#210);
#203 = B_SPLINE_CURVE_WITH_KNOTS('',5,(#204,#205,#206,#207,#208,#209),
  .UNSPECIFIED.,.F.,.F.,(6,6),(0.605805681164,0.921079190867),
  .PIECEWISE_BEZIER_KNOTS.);
#204 = CARTESIAN_POINT('',(5.967911797476,0.101669786801));
#205 = CARTESIAN_POINT('',(6.030966499417,9.936686429436E-02));
#206 = CARTESIAN_POINT('',(6.094021201358,9.680190447739E-02));
#207 = CARTESIAN_POINT('',(6.157075903298,9.399397342097E-02));
#208 = CARTESIAN_POINT('',(6.220130605239,9.096652037918E-02));
#209 = CARTESIAN_POINT('',(6.28318530718,8.774622824621E-02));
#210 = ( GEOMETRIC_REPRESENTATION_CONTEXT(2) 
PARAMETRIC_REPRESENTATION_CONTEXT() REPRESENTATION_CONTEXT('2D SPACE',''
  ) );
#211 = PCURVE('',#99,#212);
#212 = DEFINITIONAL_REPRESENTATION('',(#213),#217);
#213 = ELLIPSE('',#214,14.45595914637,14.455816855668);
#214 = AXIS2_PLACEMENT_2D('',#215,#216);
#215 = CARTESIAN_POINT('',(-1.271660652886E-02,16.976300260029));
#216 = DIRECTION('',(-0.796260563423,-0.604953812401));
#217 = ( GEOMETRIC_REPRESENTATION_CONTEXT(2) 
PARAMETRIC_REPRESENTATION_CONTEXT() REPRESENTATION_CONTEXT('2D SPACE',''
  ) );
#218 = ADVANCED_FACE('',(#219),#66,.T.);
#219 = FACE_BOUND('',#220,.T.);
#220 = EDGE_LOOP('',(#221,#243,#244,#245));
#221 = ORIENTED_EDGE('',*,*,#222,.F.);
#222 = EDGE_CURVE('',#24,#223,#225,.T.);
#223 = VERTEX_POINT('',#224);
#224 = CARTESIAN_POINT('',(14.107296116552,13.85964807956,
    -3.271511194199E-03));
#225 = SEAM_CURVE('',#226,(#231,#237),.PCURVE_S1.);
#226 = CIRCLE('',#227,0.601949094655);
#227 = AXIS2_PLACEMENT_3D('',#228,#229,#230);
#228 = CARTESIAN_POINT('',(13.505347469141,13.860349717146,
    -3.486316160857E-03));
#229 = DIRECTION('',(3.568488143649E-04,-4.15946679056E-07,
    -0.999999936329));
#230 = DIRECTION('',(1.165609579603E-03,0.999999320677,
    3.981054852095E-20));
#231 = PCURVE('',#66,#232);
#232 = DEFINITIONAL_REPRESENTATION('',(#233),#236);
#233 = B_SPLINE_CURVE_WITH_KNOTS('',1,(#234,#235),.UNSPECIFIED.,.F.,.F.,
  (2,2),(0.,1.570796326795),.PIECEWISE_BEZIER_KNOTS.);
#234 = CARTESIAN_POINT('',(0.,0.));
#235 = CARTESIAN_POINT('',(0.,1.570796326795));
#236 = ( GEOMETRIC_REPRESENTATION_CONTEXT(2) 
PARAMETRIC_REPRESENTATION_CONTEXT() REPRESENTATION_CONTEXT('2D SPACE',''
  ) );
#237 = PCURVE('',#66,#238);
#238 = DEFINITIONAL_REPRESENTATION('',(#239),#242);
#239 = B_SPLINE_CURVE_WITH_KNOTS('',1,(#240,#241),.UNSPECIFIED.,.F.,.F.,
  (2,2),(0.,1.570796326795),.PIECEWISE_BEZIER_KNOTS.);
#240 = CARTESIAN_POINT('',(6.28318530718,0.));
#241 = CARTESIAN_POINT('',(6.28318530718,1.570796326795));
#242 = ( GEOMETRIC_REPRESENTATION_CONTEXT(2) 
PARAMETRIC_REPRESENTATION_CONTEXT() REPRESENTATION_CONTEXT('2D SPACE',''
  ) );
#243 = ORIENTED_EDGE('',*,*,#51,.T.);
#244 = ORIENTED_EDGE('',*,*,#222,.T.);
#245 = ORIENTED_EDGE('',*,*,#246,.F.);
#246 = EDGE_CURVE('',#223,#223,#247,.T.);
#247 = SURFACE_CURVE('',#248,(#253,#260),.PCURVE_S1.);
#248 = CIRCLE('',#249,13.853867761012);
#249 = AXIS2_PLACEMENT_3D('',#250,#251,#252);
#250 = CARTESIAN_POINT('',(14.091147915575,5.789729799685E-03,
    -3.271511194199E-03));
#251 = DIRECTION('',(0.999999257006,-1.165609505388E-03,
    3.568490567807E-04));
#252 = DIRECTION('',(1.165609579603E-03,0.999999320677,
    3.981054852095E-20));
#253 = PCURVE('',#66,#254);
#254 = DEFINITIONAL_REPRESENTATION('',(#255),#259);
#255 = LINE('',#256,#257);
#256 = CARTESIAN_POINT('',(0.,1.570796326795));
#257 = VECTOR('',#258,1.);
#258 = DIRECTION('',(1.,0.));
#259 = ( GEOMETRIC_REPRESENTATION_CONTEXT(2) 
PARAMETRIC_REPRESENTATION_CONTEXT() REPRESENTATION_CONTEXT('2D SPACE',''
  ) );
#260 = PCURVE('',#261,#266);
#261 = PLANE('',#262);
#262 = AXIS2_PLACEMENT_3D('',#263,#264,#265);
#263 = CARTESIAN_POINT('',(14.091147915575,5.789729799685E-03,
    -3.271511194199E-03));
#264 = DIRECTION('',(0.999999257006,-1.165609505388E-03,
    3.568490567807E-04));
#265 = DIRECTION('',(1.165609579603E-03,0.999999320677,0.));
#266 = DEFINITIONAL_REPRESENTATION('',(#267),#271);
#267 = CIRCLE('',#268,13.853867761012);
#268 = AXIS2_PLACEMENT_2D('',#269,#270);
#269 = CARTESIAN_POINT('',(-3.469446951954E-18,0.));
#270 = DIRECTION('',(1.,0.));
#271 = ( GEOMETRIC_REPRESENTATION_CONTEXT(2) 
PARAMETRIC_REPRESENTATION_CONTEXT() REPRESENTATION_CONTEXT('2D SPACE',''
  ) );
#272 = ADVANCED_FACE('',(#273),#99,.T.);
#273 = FACE_BOUND('',#274,.T.);
#274 = EDGE_LOOP('',(#275,#299,#321,#322));
#275 = ORIENTED_EDGE('',*,*,#276,.T.);
#276 = EDGE_CURVE('',#166,#277,#279,.T.);
#277 = VERTEX_POINT('',#278);
#278 = CARTESIAN_POINT('',(10.505866543668,16.986202366545,
    3.754495432615));
#279 = SURFACE_CURVE('',#280,(#285,#292),.PCURVE_S1.);
#280 = CIRCLE('',#281,3.74612206932);
#281 = AXIS2_PLACEMENT_3D('',#282,#283,#284);
#282 = CARTESIAN_POINT('',(10.520438098323,16.986202366545,
    8.401703402488E-03));
#283 = DIRECTION('',(0.999985024588,-3.849741484106E-03,
    3.889741552885E-03));
#284 = DIRECTION('',(-3.889770377181E-03,-1.694065894509E-21,
    0.999992434815));
#285 = PCURVE('',#99,#286);
#286 = DEFINITIONAL_REPRESENTATION('',(#287),#291);
#287 = CIRCLE('',#288,3.74612206932);
#288 = AXIS2_PLACEMENT_2D('',#289,#290);
#289 = CARTESIAN_POINT('',(0.,0.));
#290 = DIRECTION('',(1.,0.));
#291 = ( GEOMETRIC_REPRESENTATION_CONTEXT(2) 
PARAMETRIC_REPRESENTATION_CONTEXT() REPRESENTATION_CONTEXT('2D SPACE',''
  ) );
#292 = PCURVE('',#125,#293);
#293 = DEFINITIONAL_REPRESENTATION('',(#294),#298);
#294 = LINE('',#295,#296);
#295 = CARTESIAN_POINT('',(0.,7.04094182007));
#296 = VECTOR('',#297,1.);
#297 = DIRECTION('',(1.,0.));
#298 = ( GEOMETRIC_REPRESENTATION_CONTEXT(2) 
PARAMETRIC_REPRESENTATION_CONTEXT() REPRESENTATION_CONTEXT('2D SPACE',''
  ) );
#299 = ORIENTED_EDGE('',*,*,#300,.T.);
#300 = EDGE_CURVE('',#277,#80,#301,.T.);
#301 = SURFACE_CURVE('',#302,(#307,#314),.PCURVE_S1.);
#302 = CIRCLE('',#303,3.74612206932);
#303 = AXIS2_PLACEMENT_3D('',#304,#305,#306);
#304 = CARTESIAN_POINT('',(10.520438098323,16.986202366545,
    8.401703402488E-03));
#305 = DIRECTION('',(0.999985024588,-3.849741484106E-03,
    3.889741552885E-03));
#306 = DIRECTION('',(-3.889770377181E-03,-1.694065894509E-21,
    0.999992434815));
#307 = PCURVE('',#99,#308);
#308 = DEFINITIONAL_REPRESENTATION('',(#309),#313);
#309 = CIRCLE('',#310,3.74612206932);
#310 = AXIS2_PLACEMENT_2D('',#311,#312);
#311 = CARTESIAN_POINT('',(0.,0.));
#312 = DIRECTION('',(1.,0.));
#313 = ( GEOMETRIC_REPRESENTATION_CONTEXT(2) 
PARAMETRIC_REPRESENTATION_CONTEXT() REPRESENTATION_CONTEXT('2D SPACE',''
  ) );
#314 = PCURVE('',#125,#315);
#315 = DEFINITIONAL_REPRESENTATION('',(#316),#320);
#316 = LINE('',#317,#318);
#317 = CARTESIAN_POINT('',(0.,7.04094182007));
#318 = VECTOR('',#319,1.);
#319 = DIRECTION('',(1.,0.));
#320 = ( GEOMETRIC_REPRESENTATION_CONTEXT(2) 
PARAMETRIC_REPRESENTATION_CONTEXT() REPRESENTATION_CONTEXT('2D SPACE',''
  ) );
#321 = ORIENTED_EDGE('',*,*,#79,.F.);
#322 = ORIENTED_EDGE('',*,*,#194,.F.);
#323 = ADVANCED_FACE('',(#324),#125,.T.);
#324 = FACE_BOUND('',#325,.T.);
#325 = EDGE_LOOP('',(#326,#349,#350,#351,#379,#380,#381,#382,#411,#436,
    #471,#500));
#326 = ORIENTED_EDGE('',*,*,#327,.T.);
#327 = EDGE_CURVE('',#328,#277,#330,.T.);
#328 = VERTEX_POINT('',#329);
#329 = CARTESIAN_POINT('',(3.4650301646,17.013308172357,3.727107988646)
  );
#330 = SEAM_CURVE('',#331,(#335,#342),.PCURVE_S1.);
#331 = LINE('',#332,#333);
#332 = CARTESIAN_POINT('',(3.4650301646,17.013308172357,3.727107988646)
  );
#333 = VECTOR('',#334,1.);
#334 = DIRECTION('',(0.999985024588,-3.849741484106E-03,
    3.889741552885E-03));
#335 = PCURVE('',#125,#336);
#336 = DEFINITIONAL_REPRESENTATION('',(#337),#341);
#337 = LINE('',#338,#339);
#338 = CARTESIAN_POINT('',(6.28318530718,-0.));
#339 = VECTOR('',#340,1.);
#340 = DIRECTION('',(0.,1.));
#341 = ( GEOMETRIC_REPRESENTATION_CONTEXT(2) 
PARAMETRIC_REPRESENTATION_CONTEXT() REPRESENTATION_CONTEXT('2D SPACE',''
  ) );
#342 = PCURVE('',#125,#343);
#343 = DEFINITIONAL_REPRESENTATION('',(#344),#348);
#344 = LINE('',#345,#346);
#345 = CARTESIAN_POINT('',(0.,-0.));
#346 = VECTOR('',#347,1.);
#347 = DIRECTION('',(0.,1.));
#348 = ( GEOMETRIC_REPRESENTATION_CONTEXT(2) 
PARAMETRIC_REPRESENTATION_CONTEXT() REPRESENTATION_CONTEXT('2D SPACE',''
  ) );
#349 = ORIENTED_EDGE('',*,*,#276,.F.);
#350 = ORIENTED_EDGE('',*,*,#165,.F.);
#351 = ORIENTED_EDGE('',*,*,#352,.F.);
#352 = EDGE_CURVE('',#112,#137,#353,.T.);
#353 = SURFACE_CURVE('',#354,(#359,#372),.PCURVE_S1.);
#354 = ELLIPSE('',#355,3.746158942943,3.74612206932);
#355 = AXIS2_PLACEMENT_3D('',#356,#357,#358);
#356 = CARTESIAN_POINT('',(10.425972872585,16.98656603869,
    8.034252585907E-03));
#357 = DIRECTION('',(0.999999257006,-1.165609505388E-03,
    3.568490567807E-04));
#358 = DIRECTION('',(-9.892912033247E-04,-0.604960455859,0.796254901492)
  );
#359 = PCURVE('',#125,#360);
#360 = DEFINITIONAL_REPRESENTATION('',(#361),#371);
#361 = B_SPLINE_CURVE_WITH_KNOTS('',8,(#362,#363,#364,#365,#366,#367,
    #368,#369,#370),.UNSPECIFIED.,.F.,.F.,(9,9),(5.633477446668,
    8.87411663166),.PIECEWISE_BEZIER_KNOTS.);
#362 = CARTESIAN_POINT('',(0.,6.959710063742));
#363 = CARTESIAN_POINT('',(0.405079898124,6.963783189744));
#364 = CARTESIAN_POINT('',(0.810159796247,6.965373858531));
#365 = CARTESIAN_POINT('',(1.215239694373,6.96346805487));
#366 = CARTESIAN_POINT('',(1.620319592494,6.95789802965));
#367 = CARTESIAN_POINT('',(2.025399490621,6.949964166266));
#368 = CARTESIAN_POINT('',(2.430479388743,6.942013746789));
#369 = CARTESIAN_POINT('',(2.835559286868,6.935833888273));
#370 = CARTESIAN_POINT('',(3.240639184992,6.932310864103));
#371 = ( GEOMETRIC_REPRESENTATION_CONTEXT(2) 
PARAMETRIC_REPRESENTATION_CONTEXT() REPRESENTATION_CONTEXT('2D SPACE',''
  ) );
#372 = PCURVE('',#153,#373);
#373 = DEFINITIONAL_REPRESENTATION('',(#374),#378);
#374 = ELLIPSE('',#375,3.746158942943,3.74612206932);
#375 = AXIS2_PLACEMENT_2D('',#376,#377);
#376 = CARTESIAN_POINT('',(16.976492610316,1.262073952631E-02));
#377 = DIRECTION('',(-0.604961198023,0.79625495219));
#378 = ( GEOMETRIC_REPRESENTATION_CONTEXT(2) 
PARAMETRIC_REPRESENTATION_CONTEXT() REPRESENTATION_CONTEXT('2D SPACE',''
  ) );
#379 = ORIENTED_EDGE('',*,*,#111,.F.);
#380 = ORIENTED_EDGE('',*,*,#300,.F.);
#381 = ORIENTED_EDGE('',*,*,#327,.F.);
#382 = ORIENTED_EDGE('',*,*,#383,.T.);
#383 = EDGE_CURVE('',#328,#384,#386,.T.);
#384 = VERTEX_POINT('',#385);
#385 = CARTESIAN_POINT('',(3.459148229106,14.202305833115,2.457156028752
    ));
#386 = SURFACE_CURVE('',#387,(#392,#399),.PCURVE_S1.);
#387 = CIRCLE('',#388,3.74612206932);
#388 = AXIS2_PLACEMENT_3D('',#389,#390,#391);
#389 = CARTESIAN_POINT('',(3.479601719254,17.013308172357,
    -1.898574056648E-02));
#390 = DIRECTION('',(0.999985024588,-3.849741484106E-03,
    3.889741552885E-03));
#391 = DIRECTION('',(-3.889770377181E-03,-1.694065894509E-21,
    0.999992434815));
#392 = PCURVE('',#125,#393);
#393 = DEFINITIONAL_REPRESENTATION('',(#394),#398);
#394 = LINE('',#395,#396);
#395 = CARTESIAN_POINT('',(0.,0.));
#396 = VECTOR('',#397,1.);
#397 = DIRECTION('',(1.,0.));
#398 = ( GEOMETRIC_REPRESENTATION_CONTEXT(2) 
PARAMETRIC_REPRESENTATION_CONTEXT() REPRESENTATION_CONTEXT('2D SPACE',''
  ) );
#399 = PCURVE('',#400,#405);
#400 = PLANE('',#401);
#401 = AXIS2_PLACEMENT_3D('',#402,#403,#404);
#402 = CARTESIAN_POINT('',(3.479601719254,17.013308172357,
    -1.898574056648E-02));
#403 = DIRECTION('',(0.999985024588,-3.849741484106E-03,
    3.889741552885E-03));
#404 = DIRECTION('',(-3.889770377181E-03,0.,0.999992434815));
#405 = DEFINITIONAL_REPRESENTATION('',(#406),#410);
#406 = CIRCLE('',#407,3.74612206932);
#407 = AXIS2_PLACEMENT_2D('',#408,#409);
#408 = CARTESIAN_POINT('',(0.,0.));
#409 = DIRECTION('',(1.,0.));
#410 = ( GEOMETRIC_REPRESENTATION_CONTEXT(2) 
PARAMETRIC_REPRESENTATION_CONTEXT() REPRESENTATION_CONTEXT('2D SPACE',''
  ) );
#411 = ORIENTED_EDGE('',*,*,#412,.F.);
#412 = EDGE_CURVE('',#413,#384,#415,.T.);
#413 = VERTEX_POINT('',#414);
#414 = CARTESIAN_POINT('',(3.547491829603,14.202118497987,2.457673086697
    ));
#415 = SURFACE_CURVE('',#416,(#419,#425),.PCURVE_S1.);
#416 = B_SPLINE_CURVE_WITH_KNOTS('',1,(#417,#418),.UNSPECIFIED.,.F.,.F.,
  (2,2),(0.,1.),.PIECEWISE_BEZIER_KNOTS.);
#417 = CARTESIAN_POINT('',(3.549492221968,14.202114255969,2.457684794209
    ));
#418 = CARTESIAN_POINT('',(3.457147861022,14.202310074823,2.45714432059)
  );
#419 = PCURVE('',#125,#420);
#420 = DEFINITIONAL_REPRESENTATION('',(#421),#424);
#421 = B_SPLINE_CURVE_WITH_KNOTS('',1,(#422,#423),.UNSPECIFIED.,.F.,.F.,
  (2,2),(0.,1.),.PIECEWISE_BEZIER_KNOTS.);
#422 = CARTESIAN_POINT('',(0.848576949344,9.034543420684E-02));
#423 = CARTESIAN_POINT('',(0.848641436929,-2.0004E-03));
#424 = ( GEOMETRIC_REPRESENTATION_CONTEXT(2) 
PARAMETRIC_REPRESENTATION_CONTEXT() REPRESENTATION_CONTEXT('2D SPACE',''
  ) );
#425 = PCURVE('',#426,#431);
#426 = CYLINDRICAL_SURFACE('',#427,14.396579372359);
#427 = AXIS2_PLACEMENT_3D('',#428,#429,#430);
#428 = CARTESIAN_POINT('',(-2.891916207568E-02,2.224822643067E-02,
    -8.310247556288E-03));
#429 = DIRECTION('',(0.999999257006,-1.165609505388E-03,
    3.568490567807E-04));
#430 = DIRECTION('',(1.165609579603E-03,0.999999320677,0.));
#431 = DEFINITIONAL_REPRESENTATION('',(#432),#435);
#432 = B_SPLINE_CURVE_WITH_KNOTS('',1,(#433,#434),.UNSPECIFIED.,.F.,.F.,
  (2,2),(0.,1.),.PIECEWISE_BEZIER_KNOTS.);
#433 = CARTESIAN_POINT('',(0.172049598237,3.562760526681));
#434 = CARTESIAN_POINT('',(0.172013817218,3.470415813233));
#435 = ( GEOMETRIC_REPRESENTATION_CONTEXT(2) 
PARAMETRIC_REPRESENTATION_CONTEXT() REPRESENTATION_CONTEXT('2D SPACE',''
  ) );
#436 = ORIENTED_EDGE('',*,*,#437,.T.);
#437 = EDGE_CURVE('',#413,#438,#440,.T.);
#438 = VERTEX_POINT('',#439);
#439 = CARTESIAN_POINT('',(3.54925387084,14.198727157655,-2.491178178691
    ));
#440 = SURFACE_CURVE('',#441,(#446,#459),.PCURVE_S1.);
#441 = ELLIPSE('',#442,3.746158942943,3.74612206932);
#442 = AXIS2_PLACEMENT_3D('',#443,#444,#445);
#443 = CARTESIAN_POINT('',(3.55165195214,17.013030793433,
    -1.870547958471E-02));
#444 = DIRECTION('',(0.999999257006,-1.165609505388E-03,
    3.568490567807E-04));
#445 = DIRECTION('',(-9.892912033247E-04,-0.604960455859,0.796254901492)
  );
#446 = PCURVE('',#125,#447);
#447 = DEFINITIONAL_REPRESENTATION('',(#448),#458);
#448 = B_SPLINE_CURVE_WITH_KNOTS('',8,(#449,#450,#451,#452,#453,#454,
    #455,#456,#457),.UNSPECIFIED.,.F.,.F.,(9,9),(5.633477446668,
    8.850124033156),.PIECEWISE_BEZIER_KNOTS.);
#449 = CARTESIAN_POINT('',(0.,8.528619596968E-02));
#450 = CARTESIAN_POINT('',(0.402080823311,8.93291659221E-02));
#451 = CARTESIAN_POINT('',(0.804161646621,9.092633031796E-02));
#452 = CARTESIAN_POINT('',(1.20624246993,8.908580421553E-02));
#453 = CARTESIAN_POINT('',(1.60832329324,8.363817900926E-02));
#454 = CARTESIAN_POINT('',(2.010404116556,7.583243222319E-02));
#455 = CARTESIAN_POINT('',(2.412484939864,6.794315049926E-02));
#456 = CARTESIAN_POINT('',(2.814565763177,6.173228314471E-02));
#457 = CARTESIAN_POINT('',(3.216646586488,5.809971917601E-02));
#458 = ( GEOMETRIC_REPRESENTATION_CONTEXT(2) 
PARAMETRIC_REPRESENTATION_CONTEXT() REPRESENTATION_CONTEXT('2D SPACE',''
  ) );
#459 = PCURVE('',#460,#465);
#460 = PLANE('',#461);
#461 = AXIS2_PLACEMENT_3D('',#462,#463,#464);
#462 = CARTESIAN_POINT('',(3.531838318983,1.809777058061E-02,
    -7.03959366366E-03));
#463 = DIRECTION('',(0.999999257006,-1.165609505388E-03,
    3.568490567807E-04));
#464 = DIRECTION('',(1.165609579603E-03,0.999999320677,0.));
#465 = DEFINITIONAL_REPRESENTATION('',(#466),#470);
#466 = ELLIPSE('',#467,3.746158942943,3.74612206932);
#467 = AXIS2_PLACEMENT_2D('',#468,#469);
#468 = CARTESIAN_POINT('',(16.994944572763,-1.166588666382E-02));
#469 = DIRECTION('',(-0.604961198023,0.79625495219));
#470 = ( GEOMETRIC_REPRESENTATION_CONTEXT(2) 
PARAMETRIC_REPRESENTATION_CONTEXT() REPRESENTATION_CONTEXT('2D SPACE',''
  ) );
#471 = ORIENTED_EDGE('',*,*,#472,.F.);
#472 = EDGE_CURVE('',#473,#438,#475,.T.);
#473 = VERTEX_POINT('',#474);
#474 = CARTESIAN_POINT('',(3.478382988456,14.198804823872,
    -2.491231677829));
#475 = SURFACE_CURVE('',#476,(#482,#491),.PCURVE_S1.);
#476 = B_SPLINE_CURVE_WITH_KNOTS('',3,(#477,#478,#479,#480,#481),
  .UNSPECIFIED.,.F.,.F.,(4,1,4),(0.,0.499991596076,1.),.UNSPECIFIED.);
#477 = CARTESIAN_POINT('',(3.476382572812,14.198807016169,
    -2.491233187478));
#478 = CARTESIAN_POINT('',(3.488860979146,14.198793340816,
    -2.491223770504));
#479 = CARTESIAN_POINT('',(3.513818211291,14.198765990125,
    -2.491204933492));
#480 = CARTESIAN_POINT('',(3.538775443426,14.198738640387,
    -2.491186090984));
#481 = CARTESIAN_POINT('',(3.551254269232,14.198724965526,
    -2.491176668198));
#482 = PCURVE('',#125,#483);
#483 = DEFINITIONAL_REPRESENTATION('',(#484),#490);
#484 = B_SPLINE_CURVE_WITH_KNOTS('',3,(#485,#486,#487,#488,#489),
  .UNSPECIFIED.,.F.,.F.,(4,1,4),(0.,0.499991596076,1.),.UNSPECIFIED.);
#485 = CARTESIAN_POINT('',(2.291535375788,-2.0004E-03));
#486 = CARTESIAN_POINT('',(2.291549275529,1.047790874065E-02));
#487 = CARTESIAN_POINT('',(2.29157707501,3.543494570654E-02));
#488 = CARTESIAN_POINT('',(2.291604873557,6.039198267725E-02));
#489 = CARTESIAN_POINT('',(2.29161877283,7.28707109047E-02));
#490 = ( GEOMETRIC_REPRESENTATION_CONTEXT(2) 
PARAMETRIC_REPRESENTATION_CONTEXT() REPRESENTATION_CONTEXT('2D SPACE',''
  ) );
#491 = PCURVE('',#426,#492);
#492 = DEFINITIONAL_REPRESENTATION('',(#493),#499);
#493 = B_SPLINE_CURVE_WITH_KNOTS('',3,(#494,#495,#496,#497,#498),
  .UNSPECIFIED.,.F.,.F.,(4,1,4),(0.,0.499991596076,1.),.UNSPECIFIED.);
#494 = CARTESIAN_POINT('',(6.109764713327,3.487888770083));
#495 = CARTESIAN_POINT('',(6.109765063386,3.500367186446));
#496 = CARTESIAN_POINT('',(6.10976576371,3.525324438649));
#497 = CARTESIAN_POINT('',(6.109766464422,3.550281690845));
#498 = CARTESIAN_POINT('',(6.10976681488,3.562760526681));
#499 = ( GEOMETRIC_REPRESENTATION_CONTEXT(2) 
PARAMETRIC_REPRESENTATION_CONTEXT() REPRESENTATION_CONTEXT('2D SPACE',''
  ) );
#500 = ORIENTED_EDGE('',*,*,#501,.T.);
#501 = EDGE_CURVE('',#473,#328,#502,.T.);
#502 = SURFACE_CURVE('',#503,(#508,#515),.PCURVE_S1.);
#503 = CIRCLE('',#504,3.74612206932);
#504 = AXIS2_PLACEMENT_3D('',#505,#506,#507);
#505 = CARTESIAN_POINT('',(3.479601719254,17.013308172357,
    -1.898574056648E-02));
#506 = DIRECTION('',(0.999985024588,-3.849741484106E-03,
    3.889741552885E-03));
#507 = DIRECTION('',(-3.889770377181E-03,-1.694065894509E-21,
    0.999992434815));
#508 = PCURVE('',#125,#509);
#509 = DEFINITIONAL_REPRESENTATION('',(#510),#514);
#510 = LINE('',#511,#512);
#511 = CARTESIAN_POINT('',(0.,0.));
#512 = VECTOR('',#513,1.);
#513 = DIRECTION('',(1.,0.));
#514 = ( GEOMETRIC_REPRESENTATION_CONTEXT(2) 
PARAMETRIC_REPRESENTATION_CONTEXT() REPRESENTATION_CONTEXT('2D SPACE',''
  ) );
#515 = PCURVE('',#400,#516);
#516 = DEFINITIONAL_REPRESENTATION('',(#517),#521);
#517 = CIRCLE('',#518,3.74612206932);
#518 = AXIS2_PLACEMENT_2D('',#519,#520);
#519 = CARTESIAN_POINT('',(0.,0.));
#520 = DIRECTION('',(1.,0.));
#521 = ( GEOMETRIC_REPRESENTATION_CONTEXT(2) 
PARAMETRIC_REPRESENTATION_CONTEXT() REPRESENTATION_CONTEXT('2D SPACE',''
  ) );
#522 = ADVANCED_FACE('',(#523,#527),#153,.F.);
#523 = FACE_BOUND('',#524,.F.);
#524 = EDGE_LOOP('',(#525,#526));
#525 = ORIENTED_EDGE('',*,*,#352,.F.);
#526 = ORIENTED_EDGE('',*,*,#136,.T.);
#527 = FACE_BOUND('',#528,.F.);
#528 = EDGE_LOOP('',(#529));
#529 = ORIENTED_EDGE('',*,*,#530,.T.);
#530 = EDGE_CURVE('',#531,#531,#533,.T.);
#531 = VERTEX_POINT('',#532);
#532 = CARTESIAN_POINT('',(10.390775138981,-13.21412380516,
    -4.586486136831E-03));
#533 = SURFACE_CURVE('',#534,(#539,#550),.PCURVE_S1.);
#534 = CIRCLE('',#535,13.224217744323);
#535 = AXIS2_PLACEMENT_3D('',#536,#537,#538);
#536 = CARTESIAN_POINT('',(10.406189413867,1.008495564756E-02,
    -4.586486136828E-03));
#537 = DIRECTION('',(-0.999999257006,1.165609505388E-03,
    -3.568490567807E-04));
#538 = DIRECTION('',(-1.165609579603E-03,-0.999999320677,0.));
#539 = PCURVE('',#153,#540);
#540 = DEFINITIONAL_REPRESENTATION('',(#541),#549);
#541 = ( BOUNDED_CURVE() B_SPLINE_CURVE(2,(#542,#543,#544,#545,#546,#547
,#548),.UNSPECIFIED.,.T.,.F.) B_SPLINE_CURVE_WITH_KNOTS((1,2,2,2,2,1),(
    -2.094395102393,0.,2.094395102393,4.188790204786,6.28318530718,
8.377580409573),.UNSPECIFIED.) CURVE() GEOMETRIC_REPRESENTATION_ITEM() 
RATIONAL_B_SPLINE_CURVE((1.,0.5,1.,0.5,1.,0.5,1.)) REPRESENTATION_ITEM(
  '') );
#542 = CARTESIAN_POINT('',(-13.22421774432,6.993627057253E-22));
#543 = CARTESIAN_POINT('',(-13.22421774432,22.905017023522));
#544 = CARTESIAN_POINT('',(6.612108872162,11.452508511761));
#545 = CARTESIAN_POINT('',(26.448435488647,3.238997785473E-15));
#546 = CARTESIAN_POINT('',(6.612108872162,-11.45250851176));
#547 = CARTESIAN_POINT('',(-13.22421774432,-22.90501702352));
#548 = CARTESIAN_POINT('',(-13.22421774432,6.993627057253E-22));
#549 = ( GEOMETRIC_REPRESENTATION_CONTEXT(2) 
PARAMETRIC_REPRESENTATION_CONTEXT() REPRESENTATION_CONTEXT('2D SPACE',''
  ) );
#550 = PCURVE('',#551,#556);
#551 = CYLINDRICAL_SURFACE('',#552,13.224217744323);
#552 = AXIS2_PLACEMENT_3D('',#553,#554,#555);
#553 = CARTESIAN_POINT('',(10.517533894058,9.95517136665E-03,
    -4.546752934572E-03));
#554 = DIRECTION('',(-0.999999257006,1.165609505388E-03,
    -3.568490567807E-04));
#555 = DIRECTION('',(-1.165609579603E-03,-0.999999320677,0.));
#556 = DEFINITIONAL_REPRESENTATION('',(#557),#561);
#557 = LINE('',#558,#559);
#558 = CARTESIAN_POINT('',(2.168404344971E-19,0.11134456292));
#559 = VECTOR('',#560,1.);
#560 = DIRECTION('',(1.,0.));
#561 = ( GEOMETRIC_REPRESENTATION_CONTEXT(2) 
PARAMETRIC_REPRESENTATION_CONTEXT() REPRESENTATION_CONTEXT('2D SPACE',''
  ) );
#562 = ADVANCED_FACE('',(#563,#566),#261,.T.);
#563 = FACE_BOUND('',#564,.T.);
#564 = EDGE_LOOP('',(#565));
#565 = ORIENTED_EDGE('',*,*,#246,.T.);
#566 = FACE_BOUND('',#567,.T.);
#567 = EDGE_LOOP('',(#568));
#568 = ORIENTED_EDGE('',*,*,#569,.T.);
#569 = EDGE_CURVE('',#570,#570,#572,.T.);
#570 = VERTEX_POINT('',#571);
#571 = CARTESIAN_POINT('',(14.079491834519,-9.994190831587,
    -3.271511194202E-03));
#572 = SURFACE_CURVE('',#573,(#578,#589),.PCURVE_S1.);
#573 = CIRCLE('',#574,9.999987354609);
#574 = AXIS2_PLACEMENT_3D('',#575,#576,#577);
#575 = CARTESIAN_POINT('',(14.091147915575,5.789729799685E-03,
    -3.271511194199E-03));
#576 = DIRECTION('',(-0.999999257006,1.165609505388E-03,
    -3.568490567807E-04));
#577 = DIRECTION('',(-1.165609579603E-03,-0.999999320677,0.));
#578 = PCURVE('',#261,#579);
#579 = DEFINITIONAL_REPRESENTATION('',(#580),#588);
#580 = ( BOUNDED_CURVE() B_SPLINE_CURVE(2,(#581,#582,#583,#584,#585,#586
,#587),.UNSPECIFIED.,.T.,.F.) B_SPLINE_CURVE_WITH_KNOTS((1,2,2,2,2,1),(
    -2.094395102393,0.,2.094395102393,4.188790204786,6.28318530718,
8.377580409573),.UNSPECIFIED.) CURVE() GEOMETRIC_REPRESENTATION_ITEM() 
RATIONAL_B_SPLINE_CURVE((1.,0.5,1.,0.5,1.,0.5,1.)) REPRESENTATION_ITEM(
  '') );
#581 = CARTESIAN_POINT('',(-9.999987354609,-1.996816780536E-19));
#582 = CARTESIAN_POINT('',(-9.999987354609,17.320486173229));
#583 = CARTESIAN_POINT('',(4.999993677305,8.660243086615));
#584 = CARTESIAN_POINT('',(19.999974709218,2.449089231204E-15));
#585 = CARTESIAN_POINT('',(4.999993677305,-8.660243086615));
#586 = CARTESIAN_POINT('',(-9.999987354609,-17.32048617322));
#587 = CARTESIAN_POINT('',(-9.999987354609,-1.996816780536E-19));
#588 = ( GEOMETRIC_REPRESENTATION_CONTEXT(2) 
PARAMETRIC_REPRESENTATION_CONTEXT() REPRESENTATION_CONTEXT('2D SPACE',''
  ) );
#589 = PCURVE('',#590,#595);
#590 = CYLINDRICAL_SURFACE('',#591,9.999987354609);
#591 = AXIS2_PLACEMENT_3D('',#592,#593,#594);
#592 = CARTESIAN_POINT('',(14.416169436557,5.41088134389E-03,
    -3.155527484828E-03));
#593 = DIRECTION('',(-0.999999257006,1.165609505388E-03,
    -3.568490567807E-04));
#594 = DIRECTION('',(-1.165609579603E-03,-0.999999320677,0.));
#595 = DEFINITIONAL_REPRESENTATION('',(#596),#600);
#596 = LINE('',#597,#598);
#597 = CARTESIAN_POINT('',(2.168404344971E-19,0.325021762471));
#598 = VECTOR('',#599,1.);
#599 = DIRECTION('',(1.,0.));
#600 = ( GEOMETRIC_REPRESENTATION_CONTEXT(2) 
PARAMETRIC_REPRESENTATION_CONTEXT() REPRESENTATION_CONTEXT('2D SPACE',''
  ) );
#601 = ADVANCED_FACE('',(#602),#400,.F.);
#602 = FACE_BOUND('',#603,.F.);
#603 = EDGE_LOOP('',(#604,#605,#606,#633));
#604 = ORIENTED_EDGE('',*,*,#501,.T.);
#605 = ORIENTED_EDGE('',*,*,#383,.T.);
#606 = ORIENTED_EDGE('',*,*,#607,.F.);
#607 = EDGE_CURVE('',#608,#384,#610,.T.);
#608 = VERTEX_POINT('',#609);
#609 = CARTESIAN_POINT('',(3.469551470548,14.414759525071,
    -7.067808897121E-03));
#610 = SURFACE_CURVE('',#611,(#616,#623),.PCURVE_S1.);
#611 = ELLIPSE('',#612,14.396721079979,14.396579372359);
#612 = AXIS2_PLACEMENT_3D('',#613,#614,#615);
#613 = CARTESIAN_POINT('',(3.414127796407,1.823497518655E-02,
    -7.081598583824E-03));
#614 = DIRECTION('',(0.999985024588,-3.849741484106E-03,
    3.889741552885E-03));
#615 = DIRECTION('',(5.426168921005E-03,0.604949329522,-0.796245480616)
  );
#616 = PCURVE('',#400,#617);
#617 = DEFINITIONAL_REPRESENTATION('',(#618),#622);
#618 = ELLIPSE('',#619,14.396721079979,14.396579372359);
#619 = AXIS2_PLACEMENT_2D('',#620,#621);
#620 = CARTESIAN_POINT('',(1.215873045119E-02,16.995199136392));
#621 = DIRECTION('',(-0.796260563423,-0.604953812401));
#622 = ( GEOMETRIC_REPRESENTATION_CONTEXT(2) 
PARAMETRIC_REPRESENTATION_CONTEXT() REPRESENTATION_CONTEXT('2D SPACE',''
  ) );
#623 = PCURVE('',#426,#624);
#624 = DEFINITIONAL_REPRESENTATION('',(#625),#632);
#625 = B_SPLINE_CURVE_WITH_KNOTS('',5,(#626,#627,#628,#629,#630,#631),
  .UNSPECIFIED.,.F.,.F.,(6,6),(0.921079190867,1.237763884961),
  .PIECEWISE_BEZIER_KNOTS.);
#626 = CARTESIAN_POINT('',(0.,3.481692428669));
#627 = CARTESIAN_POINT('',(6.333693881885E-02,3.47847097758));
#628 = CARTESIAN_POINT('',(0.126673877638,3.475055754117));
#629 = CARTESIAN_POINT('',(0.190010816457,3.471473674979));
#630 = CARTESIAN_POINT('',(0.253347755275,3.46775492497));
#631 = CARTESIAN_POINT('',(0.316684694094,3.463931464168));
#632 = ( GEOMETRIC_REPRESENTATION_CONTEXT(2) 
PARAMETRIC_REPRESENTATION_CONTEXT() REPRESENTATION_CONTEXT('2D SPACE',''
  ) );
#633 = ORIENTED_EDGE('',*,*,#634,.F.);
#634 = EDGE_CURVE('',#473,#608,#635,.T.);
#635 = SURFACE_CURVE('',#636,(#641,#648),.PCURVE_S1.);
#636 = ELLIPSE('',#637,14.396721079979,14.396579372359);
#637 = AXIS2_PLACEMENT_3D('',#638,#639,#640);
#638 = CARTESIAN_POINT('',(3.414127796407,1.823497518655E-02,
    -7.081598583824E-03));
#639 = DIRECTION('',(0.999985024588,-3.849741484106E-03,
    3.889741552885E-03));
#640 = DIRECTION('',(5.426168921005E-03,0.604949329522,-0.796245480616)
  );
#641 = PCURVE('',#400,#642);
#642 = DEFINITIONAL_REPRESENTATION('',(#643),#647);
#643 = ELLIPSE('',#644,14.396721079979,14.396579372359);
#644 = AXIS2_PLACEMENT_2D('',#645,#646);
#645 = CARTESIAN_POINT('',(1.215873045119E-02,16.995199136392));
#646 = DIRECTION('',(-0.796260563423,-0.604953812401));
#647 = ( GEOMETRIC_REPRESENTATION_CONTEXT(2) 
PARAMETRIC_REPRESENTATION_CONTEXT() REPRESENTATION_CONTEXT('2D SPACE',''
  ) );
#648 = PCURVE('',#426,#649);
#649 = DEFINITIONAL_REPRESENTATION('',(#650),#657);
#650 = B_SPLINE_CURVE_WITH_KNOTS('',5,(#651,#652,#653,#654,#655,#656),
  .UNSPECIFIED.,.F.,.F.,(6,6),(0.602644527223,0.921079190867),
  .PIECEWISE_BEZIER_KNOTS.);
#651 = CARTESIAN_POINT('',(5.964750643535,3.495673648787));
#652 = CARTESIAN_POINT('',(6.028437576264,3.493367750139));
#653 = CARTESIAN_POINT('',(6.092124508993,3.490795046959));
#654 = CARTESIAN_POINT('',(6.155811441722,3.487975014359));
#655 = CARTESIAN_POINT('',(6.219498374451,3.484931681191));
#656 = CARTESIAN_POINT('',(6.28318530718,3.481692428669));
#657 = ( GEOMETRIC_REPRESENTATION_CONTEXT(2) 
PARAMETRIC_REPRESENTATION_CONTEXT() REPRESENTATION_CONTEXT('2D SPACE',''
  ) );
#658 = ADVANCED_FACE('',(#659),#426,.T.);
#659 = FACE_BOUND('',#660,.T.);
#660 = EDGE_LOOP('',(#661,#684,#685,#686,#708,#709,#710,#711));
#661 = ORIENTED_EDGE('',*,*,#662,.T.);
#662 = EDGE_CURVE('',#663,#608,#665,.T.);
#663 = VERTEX_POINT('',#664);
#664 = CARTESIAN_POINT('',(0.589947369852,14.418116021477,
    -8.095393667841E-03));
#665 = SEAM_CURVE('',#666,(#670,#677),.PCURVE_S1.);
#666 = LINE('',#667,#668);
#667 = CARTESIAN_POINT('',(-1.213837124574E-02,14.418817818861,
    -8.310247556292E-03));
#668 = VECTOR('',#669,1.);
#669 = DIRECTION('',(0.999999257006,-1.165609505388E-03,
    3.568490567807E-04));
#670 = PCURVE('',#426,#671);
#671 = DEFINITIONAL_REPRESENTATION('',(#672),#676);
#672 = LINE('',#673,#674);
#673 = CARTESIAN_POINT('',(6.28318530718,-0.));
#674 = VECTOR('',#675,1.);
#675 = DIRECTION('',(0.,1.));
#676 = ( GEOMETRIC_REPRESENTATION_CONTEXT(2) 
PARAMETRIC_REPRESENTATION_CONTEXT() REPRESENTATION_CONTEXT('2D SPACE',''
  ) );
#677 = PCURVE('',#426,#678);
#678 = DEFINITIONAL_REPRESENTATION('',(#679),#683);
#679 = LINE('',#680,#681);
#680 = CARTESIAN_POINT('',(0.,-0.));
#681 = VECTOR('',#682,1.);
#682 = DIRECTION('',(0.,1.));
#683 = ( GEOMETRIC_REPRESENTATION_CONTEXT(2) 
PARAMETRIC_REPRESENTATION_CONTEXT() REPRESENTATION_CONTEXT('2D SPACE',''
  ) );
#684 = ORIENTED_EDGE('',*,*,#634,.F.);
#685 = ORIENTED_EDGE('',*,*,#472,.T.);
#686 = ORIENTED_EDGE('',*,*,#687,.F.);
#687 = EDGE_CURVE('',#413,#438,#688,.T.);
#688 = SURFACE_CURVE('',#689,(#694,#701),.PCURVE_S1.);
#689 = CIRCLE('',#690,14.396579372359);
#690 = AXIS2_PLACEMENT_3D('',#691,#692,#693);
#691 = CARTESIAN_POINT('',(3.531838318983,1.809777058061E-02,
    -7.03959366366E-03));
#692 = DIRECTION('',(0.999999257006,-1.165609505388E-03,
    3.568490567807E-04));
#693 = DIRECTION('',(1.165609579603E-03,0.999999320677,0.));
#694 = PCURVE('',#426,#695);
#695 = DEFINITIONAL_REPRESENTATION('',(#696),#700);
#696 = LINE('',#697,#698);
#697 = CARTESIAN_POINT('',(0.,3.560760126681));
#698 = VECTOR('',#699,1.);
#699 = DIRECTION('',(1.,0.));
#700 = ( GEOMETRIC_REPRESENTATION_CONTEXT(2) 
PARAMETRIC_REPRESENTATION_CONTEXT() REPRESENTATION_CONTEXT('2D SPACE',''
  ) );
#701 = PCURVE('',#460,#702);
#702 = DEFINITIONAL_REPRESENTATION('',(#703),#707);
#703 = CIRCLE('',#704,14.396579372359);
#704 = AXIS2_PLACEMENT_2D('',#705,#706);
#705 = CARTESIAN_POINT('',(0.,0.));
#706 = DIRECTION('',(1.,0.));
#707 = ( GEOMETRIC_REPRESENTATION_CONTEXT(2) 
PARAMETRIC_REPRESENTATION_CONTEXT() REPRESENTATION_CONTEXT('2D SPACE',''
  ) );
#708 = ORIENTED_EDGE('',*,*,#412,.T.);
#709 = ORIENTED_EDGE('',*,*,#607,.F.);
#710 = ORIENTED_EDGE('',*,*,#662,.F.);
#711 = ORIENTED_EDGE('',*,*,#712,.T.);
#712 = EDGE_CURVE('',#663,#663,#713,.T.);
#713 = SURFACE_CURVE('',#714,(#719,#726),.PCURVE_S1.);
#714 = CIRCLE('',#715,14.396579372359);
#715 = AXIS2_PLACEMENT_3D('',#716,#717,#718);
#716 = CARTESIAN_POINT('',(0.573166579023,2.154642904636E-02,
    -8.095393667841E-03));
#717 = DIRECTION('',(0.999999257006,-1.165609505388E-03,
    3.568490567807E-04));
#718 = DIRECTION('',(1.165609579603E-03,0.999999320677,
    3.303428494292E-20));
#719 = PCURVE('',#426,#720);
#720 = DEFINITIONAL_REPRESENTATION('',(#721),#725);
#721 = LINE('',#722,#723);
#722 = CARTESIAN_POINT('',(0.,0.602086188444));
#723 = VECTOR('',#724,1.);
#724 = DIRECTION('',(1.,0.));
#725 = ( GEOMETRIC_REPRESENTATION_CONTEXT(2) 
PARAMETRIC_REPRESENTATION_CONTEXT() REPRESENTATION_CONTEXT('2D SPACE',''
  ) );
#726 = PCURVE('',#727,#732);
#727 = TOROIDAL_SURFACE('',#728,13.794493183914,0.602086188444);
#728 = AXIS2_PLACEMENT_3D('',#729,#730,#731);
#729 = CARTESIAN_POINT('',(0.573166579023,2.154642904636E-02,
    -8.095393667841E-03));
#730 = DIRECTION('',(-0.999999257006,1.165609505388E-03,
    -3.568490567807E-04));
#731 = DIRECTION('',(1.165609579603E-03,0.999999320677,
    3.303428494292E-20));
#732 = DEFINITIONAL_REPRESENTATION('',(#733),#737);
#733 = LINE('',#734,#735);
#734 = CARTESIAN_POINT('',(-0.,0.));
#735 = VECTOR('',#736,1.);
#736 = DIRECTION('',(-1.,0.));
#737 = ( GEOMETRIC_REPRESENTATION_CONTEXT(2) 
PARAMETRIC_REPRESENTATION_CONTEXT() REPRESENTATION_CONTEXT('2D SPACE',''
  ) );
#738 = ADVANCED_FACE('',(#739,#743),#460,.T.);
#739 = FACE_BOUND('',#740,.T.);
#740 = EDGE_LOOP('',(#741,#742));
#741 = ORIENTED_EDGE('',*,*,#437,.F.);
#742 = ORIENTED_EDGE('',*,*,#687,.T.);
#743 = FACE_BOUND('',#744,.T.);
#744 = EDGE_LOOP('',(#745));
#745 = ORIENTED_EDGE('',*,*,#746,.T.);
#746 = EDGE_CURVE('',#747,#747,#749,.T.);
#747 = VERTEX_POINT('',#748);
#748 = CARTESIAN_POINT('',(3.516424044098,-13.20611099022,
    -7.039593663663E-03));
#749 = SURFACE_CURVE('',#750,(#755,#766),.PCURVE_S1.);
#750 = CIRCLE('',#751,13.224217744323);
#751 = AXIS2_PLACEMENT_3D('',#752,#753,#754);
#752 = CARTESIAN_POINT('',(3.531838318983,1.809777058061E-02,
    -7.03959366366E-03));
#753 = DIRECTION('',(-0.999999257006,1.165609505388E-03,
    -3.568490567807E-04));
#754 = DIRECTION('',(-1.165609579603E-03,-0.999999320677,0.));
#755 = PCURVE('',#460,#756);
#756 = DEFINITIONAL_REPRESENTATION('',(#757),#765);
#757 = ( BOUNDED_CURVE() B_SPLINE_CURVE(2,(#758,#759,#760,#761,#762,#763
,#764),.UNSPECIFIED.,.T.,.F.) B_SPLINE_CURVE_WITH_KNOTS((1,2,2,2,2,1),(
    -2.094395102393,0.,2.094395102393,4.188790204786,6.28318530718,
8.377580409573),.UNSPECIFIED.) CURVE() GEOMETRIC_REPRESENTATION_ITEM() 
RATIONAL_B_SPLINE_CURVE((1.,0.5,1.,0.5,1.,0.5,1.)) REPRESENTATION_ITEM(
  '') );
#758 = CARTESIAN_POINT('',(-13.22421774432,-4.747180397635E-19));
#759 = CARTESIAN_POINT('',(-13.22421774432,22.905017023522));
#760 = CARTESIAN_POINT('',(6.612108872162,11.452508511761));
#761 = CARTESIAN_POINT('',(26.448435488647,3.23852236807E-15));
#762 = CARTESIAN_POINT('',(6.612108872162,-11.45250851176));
#763 = CARTESIAN_POINT('',(-13.22421774432,-22.90501702352));
#764 = CARTESIAN_POINT('',(-13.22421774432,-4.747180397635E-19));
#765 = ( GEOMETRIC_REPRESENTATION_CONTEXT(2) 
PARAMETRIC_REPRESENTATION_CONTEXT() REPRESENTATION_CONTEXT('2D SPACE',''
  ) );
#766 = PCURVE('',#551,#767);
#767 = DEFINITIONAL_REPRESENTATION('',(#768),#772);
#768 = LINE('',#769,#770);
#769 = CARTESIAN_POINT('',(2.168404344971E-19,6.985700765406));
#770 = VECTOR('',#771,1.);
#771 = DIRECTION('',(1.,0.));
#772 = ( GEOMETRIC_REPRESENTATION_CONTEXT(2) 
PARAMETRIC_REPRESENTATION_CONTEXT() REPRESENTATION_CONTEXT('2D SPACE',''
  ) );
#773 = ADVANCED_FACE('',(#774),#551,.T.);
#774 = FACE_BOUND('',#775,.T.);
#775 = EDGE_LOOP('',(#776,#777,#798,#799));
#776 = ORIENTED_EDGE('',*,*,#530,.T.);
#777 = ORIENTED_EDGE('',*,*,#778,.T.);
#778 = EDGE_CURVE('',#531,#747,#779,.T.);
#779 = SEAM_CURVE('',#780,(#784,#791),.PCURVE_S1.);
#780 = LINE('',#781,#782);
#781 = CARTESIAN_POINT('',(10.502119619173,-13.21425358944,
    -4.546752934576E-03));
#782 = VECTOR('',#783,1.);
#783 = DIRECTION('',(-0.999999257006,1.165609505388E-03,
    -3.568490567807E-04));
#784 = PCURVE('',#551,#785);
#785 = DEFINITIONAL_REPRESENTATION('',(#786),#790);
#786 = LINE('',#787,#788);
#787 = CARTESIAN_POINT('',(0.,-0.));
#788 = VECTOR('',#789,1.);
#789 = DIRECTION('',(0.,1.));
#790 = ( GEOMETRIC_REPRESENTATION_CONTEXT(2) 
PARAMETRIC_REPRESENTATION_CONTEXT() REPRESENTATION_CONTEXT('2D SPACE',''
  ) );
#791 = PCURVE('',#551,#792);
#792 = DEFINITIONAL_REPRESENTATION('',(#793),#797);
#793 = LINE('',#794,#795);
#794 = CARTESIAN_POINT('',(6.28318530718,-0.));
#795 = VECTOR('',#796,1.);
#796 = DIRECTION('',(0.,1.));
#797 = ( GEOMETRIC_REPRESENTATION_CONTEXT(2) 
PARAMETRIC_REPRESENTATION_CONTEXT() REPRESENTATION_CONTEXT('2D SPACE',''
  ) );
#798 = ORIENTED_EDGE('',*,*,#746,.F.);
#799 = ORIENTED_EDGE('',*,*,#778,.F.);
#800 = ADVANCED_FACE('',(#801),#590,.F.);
#801 = FACE_BOUND('',#802,.F.);
#802 = EDGE_LOOP('',(#803,#804,#827,#858));
#803 = ORIENTED_EDGE('',*,*,#569,.T.);
#804 = ORIENTED_EDGE('',*,*,#805,.F.);
#805 = EDGE_CURVE('',#806,#570,#808,.T.);
#806 = VERTEX_POINT('',#807);
#807 = CARTESIAN_POINT('',(-4.057524313213E-02,-9.977732334956,
    -8.310247556291E-03));
#808 = SEAM_CURVE('',#809,(#813,#820),.PCURVE_S1.);
#809 = LINE('',#810,#811);
#810 = CARTESIAN_POINT('',(-4.057524313213E-02,-9.977732334956,
    -8.310247556291E-03));
#811 = VECTOR('',#812,1.);
#812 = DIRECTION('',(0.999999257006,-1.165609505388E-03,
    3.568490567807E-04));
#813 = PCURVE('',#590,#814);
#814 = DEFINITIONAL_REPRESENTATION('',(#815),#819);
#815 = LINE('',#816,#817);
#816 = CARTESIAN_POINT('',(6.28318530718,14.44509933125));
#817 = VECTOR('',#818,1.);
#818 = DIRECTION('',(-0.,-1.));
#819 = ( GEOMETRIC_REPRESENTATION_CONTEXT(2) 
PARAMETRIC_REPRESENTATION_CONTEXT() REPRESENTATION_CONTEXT('2D SPACE',''
  ) );
#820 = PCURVE('',#590,#821);
#821 = DEFINITIONAL_REPRESENTATION('',(#822),#826);
#822 = LINE('',#823,#824);
#823 = CARTESIAN_POINT('',(0.,14.44509933125));
#824 = VECTOR('',#825,1.);
#825 = DIRECTION('',(-0.,-1.));
#826 = ( GEOMETRIC_REPRESENTATION_CONTEXT(2) 
PARAMETRIC_REPRESENTATION_CONTEXT() REPRESENTATION_CONTEXT('2D SPACE',''
  ) );
#827 = ORIENTED_EDGE('',*,*,#828,.F.);
#828 = EDGE_CURVE('',#806,#806,#829,.T.);
#829 = SURFACE_CURVE('',#830,(#835,#842),.PCURVE_S1.);
#830 = CIRCLE('',#831,9.999987354609);
#831 = AXIS2_PLACEMENT_3D('',#832,#833,#834);
#832 = CARTESIAN_POINT('',(-2.891916207568E-02,2.224822643067E-02,
    -8.310247556288E-03));
#833 = DIRECTION('',(-0.999999257006,1.165609505388E-03,
    -3.568490567807E-04));
#834 = DIRECTION('',(-1.165609579603E-03,-0.999999320677,0.));
#835 = PCURVE('',#590,#836);
#836 = DEFINITIONAL_REPRESENTATION('',(#837),#841);
#837 = LINE('',#838,#839);
#838 = CARTESIAN_POINT('',(2.168404344971E-19,14.44509933125));
#839 = VECTOR('',#840,1.);
#840 = DIRECTION('',(1.,0.));
#841 = ( GEOMETRIC_REPRESENTATION_CONTEXT(2) 
PARAMETRIC_REPRESENTATION_CONTEXT() REPRESENTATION_CONTEXT('2D SPACE',''
  ) );
#842 = PCURVE('',#843,#848);
#843 = PLANE('',#844);
#844 = AXIS2_PLACEMENT_3D('',#845,#846,#847);
#845 = CARTESIAN_POINT('',(-2.891916207568E-02,2.224822643067E-02,
    -8.310247556288E-03));
#846 = DIRECTION('',(0.999999257006,-1.165609505388E-03,
    3.568490567807E-04));
#847 = DIRECTION('',(1.165609579603E-03,0.999999320677,0.));
#848 = DEFINITIONAL_REPRESENTATION('',(#849),#857);
#849 = ( BOUNDED_CURVE() B_SPLINE_CURVE(2,(#850,#851,#852,#853,#854,#855
,#856),.UNSPECIFIED.,.T.,.F.) B_SPLINE_CURVE_WITH_KNOTS((1,2,2,2,2,1),(
    -2.094395102393,0.,2.094395102393,4.188790204786,6.28318530718,
8.377580409573),.UNSPECIFIED.) CURVE() GEOMETRIC_REPRESENTATION_ITEM() 
RATIONAL_B_SPLINE_CURVE((1.,0.5,1.,0.5,1.,0.5,1.)) REPRESENTATION_ITEM(
  '') );
#850 = CARTESIAN_POINT('',(-9.999987354609,4.674710963905E-19));
#851 = CARTESIAN_POINT('',(-9.999987354609,17.320486173229));
#852 = CARTESIAN_POINT('',(4.999993677305,8.660243086615));
#853 = CARTESIAN_POINT('',(19.999974709218,2.449756383979E-15));
#854 = CARTESIAN_POINT('',(4.999993677305,-8.660243086615));
#855 = CARTESIAN_POINT('',(-9.999987354609,-17.32048617322));
#856 = CARTESIAN_POINT('',(-9.999987354609,4.674710963905E-19));
#857 = ( GEOMETRIC_REPRESENTATION_CONTEXT(2) 
PARAMETRIC_REPRESENTATION_CONTEXT() REPRESENTATION_CONTEXT('2D SPACE',''
  ) );
#858 = ORIENTED_EDGE('',*,*,#805,.T.);
#859 = ADVANCED_FACE('',(#860),#727,.T.);
#860 = FACE_BOUND('',#861,.F.);
#861 = EDGE_LOOP('',(#862,#884,#885,#886));
#862 = ORIENTED_EDGE('',*,*,#863,.F.);
#863 = EDGE_CURVE('',#663,#864,#866,.T.);
#864 = VERTEX_POINT('',#865);
#865 = CARTESIAN_POINT('',(-1.284016867474E-02,13.816732039428,
    -8.310247556288E-03));
#866 = SEAM_CURVE('',#867,(#872,#878),.PCURVE_S1.);
#867 = CIRCLE('',#868,0.602086188444);
#868 = AXIS2_PLACEMENT_3D('',#869,#870,#871);
#869 = CARTESIAN_POINT('',(0.589245572423,13.816030242043,
    -8.095393667841E-03));
#870 = DIRECTION('',(-3.568488143649E-04,4.15946679056E-07,
    0.999999936329));
#871 = DIRECTION('',(1.165609579603E-03,0.999999320677,
    3.303428494292E-20));
#872 = PCURVE('',#727,#873);
#873 = DEFINITIONAL_REPRESENTATION('',(#874),#877);
#874 = B_SPLINE_CURVE_WITH_KNOTS('',1,(#875,#876),.UNSPECIFIED.,.F.,.F.,
  (2,2),(0.,1.570796326795),.PIECEWISE_BEZIER_KNOTS.);
#875 = CARTESIAN_POINT('',(0.,0.));
#876 = CARTESIAN_POINT('',(0.,1.570796326795));
#877 = ( GEOMETRIC_REPRESENTATION_CONTEXT(2) 
PARAMETRIC_REPRESENTATION_CONTEXT() REPRESENTATION_CONTEXT('2D SPACE',''
  ) );
#878 = PCURVE('',#727,#879);
#879 = DEFINITIONAL_REPRESENTATION('',(#880),#883);
#880 = B_SPLINE_CURVE_WITH_KNOTS('',1,(#881,#882),.UNSPECIFIED.,.F.,.F.,
  (2,2),(0.,1.570796326795),.PIECEWISE_BEZIER_KNOTS.);
#881 = CARTESIAN_POINT('',(-6.28318530718,0.));
#882 = CARTESIAN_POINT('',(-6.28318530718,1.570796326795));
#883 = ( GEOMETRIC_REPRESENTATION_CONTEXT(2) 
PARAMETRIC_REPRESENTATION_CONTEXT() REPRESENTATION_CONTEXT('2D SPACE',''
  ) );
#884 = ORIENTED_EDGE('',*,*,#712,.F.);
#885 = ORIENTED_EDGE('',*,*,#863,.T.);
#886 = ORIENTED_EDGE('',*,*,#887,.T.);
#887 = EDGE_CURVE('',#864,#864,#888,.T.);
#888 = SURFACE_CURVE('',#889,(#894,#901),.PCURVE_S1.);
#889 = CIRCLE('',#890,13.794493183914);
#890 = AXIS2_PLACEMENT_3D('',#891,#892,#893);
#891 = CARTESIAN_POINT('',(-2.891916207568E-02,2.224822643067E-02,
    -8.310247556288E-03));
#892 = DIRECTION('',(0.999999257006,-1.165609505388E-03,
    3.568490567807E-04));
#893 = DIRECTION('',(1.165609579603E-03,0.999999320677,
    3.303428494292E-20));
#894 = PCURVE('',#727,#895);
#895 = DEFINITIONAL_REPRESENTATION('',(#896),#900);
#896 = LINE('',#897,#898);
#897 = CARTESIAN_POINT('',(-0.,1.570796326795));
#898 = VECTOR('',#899,1.);
#899 = DIRECTION('',(-1.,0.));
#900 = ( GEOMETRIC_REPRESENTATION_CONTEXT(2) 
PARAMETRIC_REPRESENTATION_CONTEXT() REPRESENTATION_CONTEXT('2D SPACE',''
  ) );
#901 = PCURVE('',#843,#902);
#902 = DEFINITIONAL_REPRESENTATION('',(#903),#907);
#903 = CIRCLE('',#904,13.794493183914);
#904 = AXIS2_PLACEMENT_2D('',#905,#906);
#905 = CARTESIAN_POINT('',(0.,0.));
#906 = DIRECTION('',(1.,0.));
#907 = ( GEOMETRIC_REPRESENTATION_CONTEXT(2) 
PARAMETRIC_REPRESENTATION_CONTEXT() REPRESENTATION_CONTEXT('2D SPACE',''
  ) );
#908 = ADVANCED_FACE('',(#909,#912),#843,.F.);
#909 = FACE_BOUND('',#910,.F.);
#910 = EDGE_LOOP('',(#911));
#911 = ORIENTED_EDGE('',*,*,#887,.T.);
#912 = FACE_BOUND('',#913,.F.);
#913 = EDGE_LOOP('',(#914));
#914 = ORIENTED_EDGE('',*,*,#828,.T.);
#915 = ( GEOMETRIC_REPRESENTATION_CONTEXT(3) 
GLOBAL_UNCERTAINTY_ASSIGNED_CONTEXT((#919)) GLOBAL_UNIT_ASSIGNED_CONTEXT
((#916,#917,#918)) REPRESENTATION_CONTEXT('Context #1',
  '3D Context with UNIT and UNCERTAINTY') );
#916 = ( LENGTH_UNIT() NAMED_UNIT(*) SI_UNIT(.MILLI.,.METRE.) );
#917 = ( NAMED_UNIT(*) PLANE_ANGLE_UNIT() SI_UNIT($,.RADIAN.) );
#918 = ( NAMED_UNIT(*) SI_UNIT($,.STERADIAN.) SOLID_ANGLE_UNIT() );
#919 = UNCERTAINTY_MEASURE_WITH_UNIT(LENGTH_MEASURE(1.E-07),#916,
  'distance_accuracy_value','confusion accuracy');
#920 = PRODUCT_TYPE('part',$,(#7));
ENDSEC;
END-ISO-10303-21;
