ISO-10303-21;
HEADER;
FILE_DESCRIPTION(('Open CASCADE Model'),'2;1');
FILE_NAME('Open CASCADE Shape Model','2026-09-07T09:12:20',('Author'),(
    'Open CASCADE'),'Open CASCADE STEP processor 7.8','Open CASCADE 7.8'
  ,'Unknown');
FILE_SCHEMA(('CONFIG_CONTROL_DESIGN'));
ENDSEC;
DATA;
#1 = APPLICATION_PROTOCOL_DEFINITION('committee draft',
  'automotive_design',1997,#2);
#2 = APPLICATION_CONTEXT(
  'core data for automotive mechanical design processes');
#3 = SHAPE_DEFINITION_REPRESENTATION(#4,#10);
#4 = PRODUCT_DEFINITION_SHAPE('','',#5);
#5 = PRODUCT_DEFINITION('design','',#6,#9);
#6 = PRODUCT_DEFINITION_FORMATION('','',#7);
#7 = PRODUCT('Product 2','Product 2','',(#8));
#8 = MECHANICAL_CONTEXT('',#2,'mechanical');
#9 = PRODUCT_DEFINITION_CONTEXT('part definition',#2,'design');
#10 = ADVANCED_BREP_SHAPE_REPRESENTATION('',(#11,#15),#1653);
#11 = AXIS2_PLACEMENT_3D('',#12,#13,#14);
#12 = CARTESIAN_POINT('',(0.,0.,0.));
#13 = DIRECTION('',(0.,0.,1.));
#14 = DIRECTION('',(1.,0.,-0.));
#15 = MANIFOLD_SOLID_BREP('',#16);
#16 = CLOSED_SHELL('',(#17,#218,#272,#415,#531,#647,#763,#879,#973,#1028
    ,#1063,#1118,#1162,#1188,#1193,#1219,#1224,#1250,#1255,#1281,#1286,
    #1312,#1317,#1343,#1348,#1387,#1441,#1496,#1551,#1590,#1594,#1649));
#17 = ADVANCED_FACE('',(#18,#54),#31,.F.);
#18 = FACE_BOUND('',#19,.F.);
#19 = EDGE_LOOP('',(#20));
#20 = ORIENTED_EDGE('',*,*,#21,.T.);
#21 = EDGE_CURVE('',#22,#22,#24,.T.);
#22 = VERTEX_POINT('',#23);
#23 = CARTESIAN_POINT('',(1.052017990695E-03,-2.357124478577,
    4.01346946298E-03));
#24 = SURFACE_CURVE('',#25,(#30,#42),.PCURVE_S1.);
#25 = CIRCLE('',#26,2.358112310663);
#26 = AXIS2_PLACEMENT_3D('',#27,#28,#29);
#27 = CARTESIAN_POINT('',(1.052017990695E-03,9.87749421671E-04,
    3.389081242734E-03));
#28 = DIRECTION('',(1.331589682094E-05,-2.647830713436E-04,
    -0.999999964856));
#29 = DIRECTION('',(-2.33070545296E-20,-0.999999964945,
    2.647830713671E-04));
#30 = PCURVE('',#31,#36);
#31 = PLANE('',#32);
#32 = AXIS2_PLACEMENT_3D('',#33,#34,#35);
#33 = CARTESIAN_POINT('',(1.052017990695E-03,9.87749421671E-04,
    3.389081242734E-03));
#34 = DIRECTION('',(1.331589682094E-05,-2.647830713436E-04,
    -0.999999964856));
#35 = DIRECTION('',(0.,-0.999999964945,2.647830713671E-04));
#36 = DEFINITIONAL_REPRESENTATION('',(#37),#41);
#37 = CIRCLE('',#38,2.358112310663);
#38 = AXIS2_PLACEMENT_2D('',#39,#40);
#39 = CARTESIAN_POINT('',(0.,0.));
#40 = DIRECTION('',(1.,0.));
#41 = ( GEOMETRIC_REPRESENTATION_CONTEXT(2) 
PARAMETRIC_REPRESENTATION_CONTEXT() REPRESENTATION_CONTEXT('2D SPACE',''
  ) );
#42 = PCURVE('',#43,#48);
#43 = TOROIDAL_SURFACE('',#44,2.358112310663,0.63418463143);
#44 = AXIS2_PLACEMENT_3D('',#45,#46,#47);
#45 = CARTESIAN_POINT('',(1.060462727812E-03,8.19828067162E-04,
    -0.6307955279));
#46 = DIRECTION('',(1.331589682094E-05,-2.647830713436E-04,
    -0.999999964856));
#47 = DIRECTION('',(-2.330788171021E-20,-0.999999964945,
    2.647830713671E-04));
#48 = DEFINITIONAL_REPRESENTATION('',(#49),#53);
#49 = LINE('',#50,#51);
#50 = CARTESIAN_POINT('',(0.,4.712388980385));
#51 = VECTOR('',#52,1.);
#52 = DIRECTION('',(1.,0.));
#53 = ( GEOMETRIC_REPRESENTATION_CONTEXT(2) 
PARAMETRIC_REPRESENTATION_CONTEXT() REPRESENTATION_CONTEXT('2D SPACE',''
  ) );
#54 = FACE_BOUND('',#55,.F.);
#55 = EDGE_LOOP('',(#56,#85,#112,#139,#166,#193));
#56 = ORIENTED_EDGE('',*,*,#57,.T.);
#57 = EDGE_CURVE('',#58,#60,#62,.T.);
#58 = VERTEX_POINT('',#59);
#59 = CARTESIAN_POINT('',(1.501051340112,-0.865037234164,
    3.638363842713E-03));
#60 = VERTEX_POINT('',#61);
#61 = CARTESIAN_POINT('',(1.501051345953,0.867012733468,
    3.179746316524E-03));
#62 = SURFACE_CURVE('',#63,(#67,#73),.PCURVE_S1.);
#63 = LINE('',#64,#65);
#64 = CARTESIAN_POINT('',(1.501051341573,-0.432024742256,
    3.523709461166E-03));
#65 = VECTOR('',#66,1.);
#66 = DIRECTION('',(3.372266953679E-09,0.999999964945,
    -2.647830713222E-04));
#67 = PCURVE('',#31,#68);
#68 = DEFINITIONAL_REPRESENTATION('',(#69),#72);
#69 = B_SPLINE_CURVE_WITH_KNOTS('',1,(#70,#71),.UNSPECIFIED.,.F.,.F.,(2,
    2),(-0.433012507087,1.299037521261),.PIECEWISE_BEZIER_KNOTS.);
#70 = CARTESIAN_POINT('',(0.866025019233,-1.499999322255));
#71 = CARTESIAN_POINT('',(-0.866025009116,-1.499999328096));
#72 = ( GEOMETRIC_REPRESENTATION_CONTEXT(2) 
PARAMETRIC_REPRESENTATION_CONTEXT() REPRESENTATION_CONTEXT('2D SPACE',''
  ) );
#73 = PCURVE('',#74,#79);
#74 = PLANE('',#75);
#75 = AXIS2_PLACEMENT_3D('',#76,#77,#78);
#76 = CARTESIAN_POINT('',(1.501082509265,-0.865657024478,-2.337109063258
    ));
#77 = DIRECTION('',(-0.999999999911,-1.535572224931E-10,
    -1.331589724707E-05));
#78 = DIRECTION('',(3.372266965673E-09,0.999999964945,
    -2.647830713222E-04));
#79 = DEFINITIONAL_REPRESENTATION('',(#80),#84);
#80 = LINE('',#81,#82);
#81 = CARTESIAN_POINT('',(0.433012507087,-2.340747509364));
#82 = VECTOR('',#83,1.);
#83 = DIRECTION('',(1.,-5.421010862428E-20));
#84 = ( GEOMETRIC_REPRESENTATION_CONTEXT(2) 
PARAMETRIC_REPRESENTATION_CONTEXT() REPRESENTATION_CONTEXT('2D SPACE',''
  ) );
#85 = ORIENTED_EDGE('',*,*,#86,.T.);
#86 = EDGE_CURVE('',#60,#87,#89,.T.);
#87 = VERTEX_POINT('',#88);
#88 = CARTESIAN_POINT('',(1.052023831629E-03,1.733037717053,
    2.930463716544E-03));
#89 = SURFACE_CURVE('',#90,(#94,#100),.PCURVE_S1.);
#90 = LINE('',#91,#92);
#91 = CARTESIAN_POINT('',(1.126051515423,1.083518979364,
    3.117425666529E-03));
#92 = VECTOR('',#93,1.);
#93 = DIRECTION('',(-0.866025402022,0.499999982339,-1.439234409512E-04)
  );
#94 = PCURVE('',#31,#95);
#95 = DEFINITIONAL_REPRESENTATION('',(#96),#99);
#96 = B_SPLINE_CURVE_WITH_KNOTS('',1,(#97,#98),.UNSPECIFIED.,.F.,.F.,(2,
    2),(-0.433012507087,1.299037521261),.PIECEWISE_BEZIER_KNOTS.);
#97 = CARTESIAN_POINT('',(-0.866025009116,-1.499999328096));
#98 = CARTESIAN_POINT('',(-1.732050028348,-5.840935068946E-09));
#99 = ( GEOMETRIC_REPRESENTATION_CONTEXT(2) 
PARAMETRIC_REPRESENTATION_CONTEXT() REPRESENTATION_CONTEXT('2D SPACE',''
  ) );
#100 = PCURVE('',#101,#106);
#101 = PLANE('',#102);
#102 = AXIS2_PLACEMENT_3D('',#103,#104,#105);
#103 = CARTESIAN_POINT('',(1.501082515106,0.866392943153,-2.337567680785
    ));
#104 = DIRECTION('',(-0.500000002876,-0.866025373503,2.226509176335E-04)
  );
#105 = DIRECTION('',(-0.866025402022,0.499999982339,-1.439234409512E-04)
  );
#106 = DEFINITIONAL_REPRESENTATION('',(#107),#111);
#107 = LINE('',#108,#109);
#108 = CARTESIAN_POINT('',(0.433012507087,-2.340747509364));
#109 = VECTOR('',#110,1.);
#110 = DIRECTION('',(1.,-5.421010862428E-20));
#111 = ( GEOMETRIC_REPRESENTATION_CONTEXT(2) 
PARAMETRIC_REPRESENTATION_CONTEXT() REPRESENTATION_CONTEXT('2D SPACE',''
  ) );
#112 = ORIENTED_EDGE('',*,*,#113,.T.);
#113 = EDGE_CURVE('',#87,#114,#116,.T.);
#114 = VERTEX_POINT('',#115);
#115 = CARTESIAN_POINT('',(-1.498947304131,0.867012733007,
    3.139798642754E-03));
#116 = SURFACE_CURVE('',#117,(#121,#127),.PCURVE_S1.);
#117 = LINE('',#118,#119);
#118 = CARTESIAN_POINT('',(-0.373947808159,1.516531471041,
    2.982797448097E-03));
#119 = VECTOR('',#120,1.);
#120 = DIRECTION('',(-0.866025405394,-0.499999982605,1.208596303709E-04)
  );
#121 = PCURVE('',#31,#122);
#122 = DEFINITIONAL_REPRESENTATION('',(#123),#126);
#123 = B_SPLINE_CURVE_WITH_KNOTS('',1,(#124,#125),.UNSPECIFIED.,.F.,.F.,
  (2,2),(-0.433012507087,1.299037521261),.PIECEWISE_BEZIER_KNOTS.);
#124 = CARTESIAN_POINT('',(-1.732050028348,-5.840934569346E-09));
#125 = CARTESIAN_POINT('',(-0.866025019233,1.499999322255));
#126 = ( GEOMETRIC_REPRESENTATION_CONTEXT(2) 
PARAMETRIC_REPRESENTATION_CONTEXT() REPRESENTATION_CONTEXT('2D SPACE',''
  ) );
#127 = PCURVE('',#128,#133);
#128 = PLANE('',#129);
#129 = AXIS2_PLACEMENT_3D('',#130,#131,#132);
#130 = CARTESIAN_POINT('',(1.083192983948E-03,1.732417926738,
    -2.337816963385));
#131 = DIRECTION('',(0.499999997035,-0.866025373349,2.359668148806E-04)
  );
#132 = DIRECTION('',(-0.866025405394,-0.499999982605,1.208596303709E-04)
  );
#133 = DEFINITIONAL_REPRESENTATION('',(#134),#138);
#134 = LINE('',#135,#136);
#135 = CARTESIAN_POINT('',(0.433012507087,-2.340747509364));
#136 = VECTOR('',#137,1.);
#137 = DIRECTION('',(1.,-1.355252715607E-20));
#138 = ( GEOMETRIC_REPRESENTATION_CONTEXT(2) 
PARAMETRIC_REPRESENTATION_CONTEXT() REPRESENTATION_CONTEXT('2D SPACE',''
  ) );
#139 = ORIENTED_EDGE('',*,*,#140,.T.);
#140 = EDGE_CURVE('',#114,#141,#143,.T.);
#141 = VERTEX_POINT('',#142);
#142 = CARTESIAN_POINT('',(-1.498947309972,-0.865037234624,
    3.598416168944E-03));
#143 = SURFACE_CURVE('',#144,(#148,#154),.PCURVE_S1.);
#144 = LINE('',#145,#146);
#145 = CARTESIAN_POINT('',(-1.498947305591,0.434000241099,
    3.254453024302E-03));
#146 = VECTOR('',#147,1.);
#147 = DIRECTION('',(-3.372266787146E-09,-0.999999964945,
    2.647830713222E-04));
#148 = PCURVE('',#31,#149);
#149 = DEFINITIONAL_REPRESENTATION('',(#150),#153);
#150 = B_SPLINE_CURVE_WITH_KNOTS('',1,(#151,#152),.UNSPECIFIED.,.F.,.F.,
  (2,2),(-0.433012507087,1.299037521261),.PIECEWISE_BEZIER_KNOTS.);
#151 = CARTESIAN_POINT('',(-0.866025019233,1.499999322255));
#152 = CARTESIAN_POINT('',(0.866025009116,1.499999328096));
#153 = ( GEOMETRIC_REPRESENTATION_CONTEXT(2) 
PARAMETRIC_REPRESENTATION_CONTEXT() REPRESENTATION_CONTEXT('2D SPACE',''
  ) );
#154 = PCURVE('',#155,#160);
#155 = PLANE('',#156);
#156 = AXIS2_PLACEMENT_3D('',#157,#158,#159);
#157 = CARTESIAN_POINT('',(-1.498916134979,0.866392942692,
    -2.337607628458));
#158 = DIRECTION('',(0.999999999911,1.535573890266E-10,
    1.331589724707E-05));
#159 = DIRECTION('',(-3.37226679914E-09,-0.999999964945,
    2.647830713222E-04));
#160 = DEFINITIONAL_REPRESENTATION('',(#161),#165);
#161 = LINE('',#162,#163);
#162 = CARTESIAN_POINT('',(0.433012507087,-2.340747509364));
#163 = VECTOR('',#164,1.);
#164 = DIRECTION('',(1.,5.421010862428E-20));
#165 = ( GEOMETRIC_REPRESENTATION_CONTEXT(2) 
PARAMETRIC_REPRESENTATION_CONTEXT() REPRESENTATION_CONTEXT('2D SPACE',''
  ) );
#166 = ORIENTED_EDGE('',*,*,#167,.T.);
#167 = EDGE_CURVE('',#141,#168,#170,.T.);
#168 = VERTEX_POINT('',#169);
#169 = CARTESIAN_POINT('',(1.05201214976E-03,-1.73106221821,
    3.847698768924E-03));
#170 = SURFACE_CURVE('',#171,(#175,#181),.PCURVE_S1.);
#171 = LINE('',#172,#173);
#172 = CARTESIAN_POINT('',(-1.123947479442,-1.081543480521,
    3.660736818939E-03));
#173 = VECTOR('',#174,1.);
#174 = DIRECTION('',(0.866025402022,-0.499999982339,1.439234409512E-04)
  );
#175 = PCURVE('',#31,#176);
#176 = DEFINITIONAL_REPRESENTATION('',(#177),#180);
#177 = B_SPLINE_CURVE_WITH_KNOTS('',1,(#178,#179),.UNSPECIFIED.,.F.,.F.,
  (2,2),(-0.433012507087,1.299037521261),.PIECEWISE_BEZIER_KNOTS.);
#178 = CARTESIAN_POINT('',(0.866025009116,1.499999328096));
#179 = CARTESIAN_POINT('',(1.732050028348,5.840935068946E-09));
#180 = ( GEOMETRIC_REPRESENTATION_CONTEXT(2) 
PARAMETRIC_REPRESENTATION_CONTEXT() REPRESENTATION_CONTEXT('2D SPACE',''
  ) );
#181 = PCURVE('',#182,#187);
#182 = PLANE('',#183);
#183 = AXIS2_PLACEMENT_3D('',#184,#185,#186);
#184 = CARTESIAN_POINT('',(-1.49891614082,-0.865657024939,
    -2.337149010932));
#185 = DIRECTION('',(0.500000002876,0.866025373503,-2.226509176335E-04)
  );
#186 = DIRECTION('',(0.866025402022,-0.499999982339,1.439234409512E-04)
  );
#187 = DEFINITIONAL_REPRESENTATION('',(#188),#192);
#188 = LINE('',#189,#190);
#189 = CARTESIAN_POINT('',(0.433012507087,-2.340747509364));
#190 = VECTOR('',#191,1.);
#191 = DIRECTION('',(1.,5.421010862428E-20));
#192 = ( GEOMETRIC_REPRESENTATION_CONTEXT(2) 
PARAMETRIC_REPRESENTATION_CONTEXT() REPRESENTATION_CONTEXT('2D SPACE',''
  ) );
#193 = ORIENTED_EDGE('',*,*,#194,.T.);
#194 = EDGE_CURVE('',#168,#58,#195,.T.);
#195 = SURFACE_CURVE('',#196,(#200,#206),.PCURVE_S1.);
#196 = LINE('',#197,#198);
#197 = CARTESIAN_POINT('',(0.37605184414,-1.514555972198,
    3.795365037371E-03));
#198 = VECTOR('',#199,1.);
#199 = DIRECTION('',(0.866025405394,0.499999982605,-1.208596303709E-04)
  );
#200 = PCURVE('',#31,#201);
#201 = DEFINITIONAL_REPRESENTATION('',(#202),#205);
#202 = B_SPLINE_CURVE_WITH_KNOTS('',1,(#203,#204),.UNSPECIFIED.,.F.,.F.,
  (2,2),(-0.433012507087,1.299037521261),.PIECEWISE_BEZIER_KNOTS.);
#203 = CARTESIAN_POINT('',(1.732050028348,5.840935179968E-09));
#204 = CARTESIAN_POINT('',(0.866025019233,-1.499999322255));
#205 = ( GEOMETRIC_REPRESENTATION_CONTEXT(2) 
PARAMETRIC_REPRESENTATION_CONTEXT() REPRESENTATION_CONTEXT('2D SPACE',''
  ) );
#206 = PCURVE('',#207,#212);
#207 = PLANE('',#208);
#208 = AXIS2_PLACEMENT_3D('',#209,#210,#211);
#209 = CARTESIAN_POINT('',(1.083181302078E-03,-1.731682008524,
    -2.336899728332));
#210 = DIRECTION('',(-0.499999997035,0.866025373349,-2.359668148806E-04)
  );
#211 = DIRECTION('',(0.866025405394,0.499999982605,-1.208596303709E-04)
  );
#212 = DEFINITIONAL_REPRESENTATION('',(#213),#217);
#213 = LINE('',#214,#215);
#214 = CARTESIAN_POINT('',(0.433012507087,-2.340747509364));
#215 = VECTOR('',#216,1.);
#216 = DIRECTION('',(1.,1.355252715607E-20));
#217 = ( GEOMETRIC_REPRESENTATION_CONTEXT(2) 
PARAMETRIC_REPRESENTATION_CONTEXT() REPRESENTATION_CONTEXT('2D SPACE',''
  ) );
#218 = ADVANCED_FACE('',(#219),#43,.T.);
#219 = FACE_BOUND('',#220,.T.);
#220 = EDGE_LOOP('',(#221,#243,#244,#245));
#221 = ORIENTED_EDGE('',*,*,#222,.F.);
#222 = EDGE_CURVE('',#22,#223,#225,.T.);
#223 = VERTEX_POINT('',#224);
#224 = CARTESIAN_POINT('',(1.060462727812E-03,-2.991477009131,
    -0.630003218325));
#225 = SEAM_CURVE('',#226,(#231,#237),.PCURVE_S1.);
#226 = CIRCLE('',#227,0.63418463143);
#227 = AXIS2_PLACEMENT_3D('',#228,#229,#230);
#228 = CARTESIAN_POINT('',(1.060462727812E-03,-2.357292399932,
    -0.63017113968));
#229 = DIRECTION('',(0.999999999911,3.525824058233E-09,
    1.331589635415E-05));
#230 = DIRECTION('',(-2.330788171021E-20,-0.999999964945,
    2.647830713671E-04));
#231 = PCURVE('',#43,#232);
#232 = DEFINITIONAL_REPRESENTATION('',(#233),#236);
#233 = B_SPLINE_CURVE_WITH_KNOTS('',1,(#234,#235),.UNSPECIFIED.,.F.,.F.,
  (2,2),(4.712388980385,6.28318530718),.PIECEWISE_BEZIER_KNOTS.);
#234 = CARTESIAN_POINT('',(0.,4.712388980385));
#235 = CARTESIAN_POINT('',(0.,6.28318530718));
#236 = ( GEOMETRIC_REPRESENTATION_CONTEXT(2) 
PARAMETRIC_REPRESENTATION_CONTEXT() REPRESENTATION_CONTEXT('2D SPACE',''
  ) );
#237 = PCURVE('',#43,#238);
#238 = DEFINITIONAL_REPRESENTATION('',(#239),#242);
#239 = B_SPLINE_CURVE_WITH_KNOTS('',1,(#240,#241),.UNSPECIFIED.,.F.,.F.,
  (2,2),(4.712388980385,6.28318530718),.PIECEWISE_BEZIER_KNOTS.);
#240 = CARTESIAN_POINT('',(6.28318530718,4.712388980385));
#241 = CARTESIAN_POINT('',(6.28318530718,6.28318530718));
#242 = ( GEOMETRIC_REPRESENTATION_CONTEXT(2) 
PARAMETRIC_REPRESENTATION_CONTEXT() REPRESENTATION_CONTEXT('2D SPACE',''
  ) );
#243 = ORIENTED_EDGE('',*,*,#21,.T.);
#244 = ORIENTED_EDGE('',*,*,#222,.T.);
#245 = ORIENTED_EDGE('',*,*,#246,.F.);
#246 = EDGE_CURVE('',#223,#223,#247,.T.);
#247 = SURFACE_CURVE('',#248,(#253,#260),.PCURVE_S1.);
#248 = CIRCLE('',#249,2.992296942093);
#249 = AXIS2_PLACEMENT_3D('',#250,#251,#252);
#250 = CARTESIAN_POINT('',(1.060462727812E-03,8.19828067162E-04,
    -0.6307955279));
#251 = DIRECTION('',(1.331589682094E-05,-2.647830713436E-04,
    -0.999999964856));
#252 = DIRECTION('',(-2.33070545296E-20,-0.999999964945,
    2.647830713671E-04));
#253 = PCURVE('',#43,#254);
#254 = DEFINITIONAL_REPRESENTATION('',(#255),#259);
#255 = LINE('',#256,#257);
#256 = CARTESIAN_POINT('',(0.,6.28318530718));
#257 = VECTOR('',#258,1.);
#258 = DIRECTION('',(1.,0.));
#259 = ( GEOMETRIC_REPRESENTATION_CONTEXT(2) 
PARAMETRIC_REPRESENTATION_CONTEXT() REPRESENTATION_CONTEXT('2D SPACE',''
  ) );
#260 = PCURVE('',#261,#266);
#261 = CYLINDRICAL_SURFACE('',#262,2.992296942093);
#262 = AXIS2_PLACEMENT_3D('',#263,#264,#265);
#263 = CARTESIAN_POINT('',(1.052017990695E-03,9.87749421671E-04,
    3.389081242734E-03));
#264 = DIRECTION('',(1.331589682094E-05,-2.647830713436E-04,
    -0.999999964856));
#265 = DIRECTION('',(0.,-0.999999964945,2.647830713671E-04));
#266 = DEFINITIONAL_REPRESENTATION('',(#267),#271);
#267 = LINE('',#268,#269);
#268 = CARTESIAN_POINT('',(0.,0.63418463143));
#269 = VECTOR('',#270,1.);
#270 = DIRECTION('',(1.,0.));
#271 = ( GEOMETRIC_REPRESENTATION_CONTEXT(2) 
PARAMETRIC_REPRESENTATION_CONTEXT() REPRESENTATION_CONTEXT('2D SPACE',''
  ) );
#272 = ADVANCED_FACE('',(#273,#348),#74,.T.);
#273 = FACE_BOUND('',#274,.T.);
#274 = EDGE_LOOP('',(#275,#298,#326,#347));
#275 = ORIENTED_EDGE('',*,*,#276,.T.);
#276 = EDGE_CURVE('',#60,#277,#279,.T.);
#277 = VERTEX_POINT('',#278);
#278 = CARTESIAN_POINT('',(1.501082515106,0.866392943153,-2.337567680785
    ));
#279 = SURFACE_CURVE('',#280,(#284,#291),.PCURVE_S1.);
#280 = LINE('',#281,#282);
#281 = CARTESIAN_POINT('',(1.501051345953,0.867012733468,
    3.179746316524E-03));
#282 = VECTOR('',#283,1.);
#283 = DIRECTION('',(1.331589682091E-05,-2.647830713436E-04,
    -0.999999964856));
#284 = PCURVE('',#74,#285);
#285 = DEFINITIONAL_REPRESENTATION('',(#286),#290);
#286 = LINE('',#287,#288);
#287 = CARTESIAN_POINT('',(1.732050028348,-2.340747509364));
#288 = VECTOR('',#289,1.);
#289 = DIRECTION('',(2.331034670844E-17,1.));
#290 = ( GEOMETRIC_REPRESENTATION_CONTEXT(2) 
PARAMETRIC_REPRESENTATION_CONTEXT() REPRESENTATION_CONTEXT('2D SPACE',''
  ) );
#291 = PCURVE('',#101,#292);
#292 = DEFINITIONAL_REPRESENTATION('',(#293),#297);
#293 = LINE('',#294,#295);
#294 = CARTESIAN_POINT('',(-9.578926193909E-17,-2.340747509364));
#295 = VECTOR('',#296,1.);
#296 = DIRECTION('',(4.092863201133E-17,1.));
#297 = ( GEOMETRIC_REPRESENTATION_CONTEXT(2) 
PARAMETRIC_REPRESENTATION_CONTEXT() REPRESENTATION_CONTEXT('2D SPACE',''
  ) );
#298 = ORIENTED_EDGE('',*,*,#299,.F.);
#299 = EDGE_CURVE('',#300,#277,#302,.T.);
#300 = VERTEX_POINT('',#301);
#301 = CARTESIAN_POINT('',(1.501082509265,-0.865657024478,
    -2.337109063258));
#302 = SURFACE_CURVE('',#303,(#307,#314),.PCURVE_S1.);
#303 = LINE('',#304,#305);
#304 = CARTESIAN_POINT('',(1.501082509265,-0.865657024478,
    -2.337109063258));
#305 = VECTOR('',#306,1.);
#306 = DIRECTION('',(3.372266965673E-09,0.999999964945,
    -2.647830713222E-04));
#307 = PCURVE('',#74,#308);
#308 = DEFINITIONAL_REPRESENTATION('',(#309),#313);
#309 = LINE('',#310,#311);
#310 = CARTESIAN_POINT('',(0.,0.));
#311 = VECTOR('',#312,1.);
#312 = DIRECTION('',(1.,0.));
#313 = ( GEOMETRIC_REPRESENTATION_CONTEXT(2) 
PARAMETRIC_REPRESENTATION_CONTEXT() REPRESENTATION_CONTEXT('2D SPACE',''
  ) );
#314 = PCURVE('',#315,#320);
#315 = PLANE('',#316);
#316 = AXIS2_PLACEMENT_3D('',#317,#318,#319);
#317 = CARTESIAN_POINT('',(1.083187143013E-03,3.679591069018E-04,
    -2.337358345858));
#318 = DIRECTION('',(-1.331589682094E-05,2.647830713436E-04,
    0.999999964856));
#319 = DIRECTION('',(0.866025405394,0.499999982605,-1.208596303709E-04)
  );
#320 = DEFINITIONAL_REPRESENTATION('',(#321),#325);
#321 = LINE('',#322,#323);
#322 = CARTESIAN_POINT('',(0.866025014174,-1.499999325175));
#323 = VECTOR('',#324,1.);
#324 = DIRECTION('',(0.5,0.866025403784));
#325 = ( GEOMETRIC_REPRESENTATION_CONTEXT(2) 
PARAMETRIC_REPRESENTATION_CONTEXT() REPRESENTATION_CONTEXT('2D SPACE',''
  ) );
#326 = ORIENTED_EDGE('',*,*,#327,.T.);
#327 = EDGE_CURVE('',#300,#58,#328,.T.);
#328 = SURFACE_CURVE('',#329,(#333,#340),.PCURVE_S1.);
#329 = LINE('',#330,#331);
#330 = CARTESIAN_POINT('',(1.501082509265,-0.865657024478,
    -2.337109063258));
#331 = VECTOR('',#332,1.);
#332 = DIRECTION('',(-1.331589682091E-05,2.647830713436E-04,
    0.999999964856));
#333 = PCURVE('',#74,#334);
#334 = DEFINITIONAL_REPRESENTATION('',(#335),#339);
#335 = LINE('',#336,#337);
#336 = CARTESIAN_POINT('',(0.,0.));
#337 = VECTOR('',#338,1.);
#338 = DIRECTION('',(-2.331034670844E-17,-1.));
#339 = ( GEOMETRIC_REPRESENTATION_CONTEXT(2) 
PARAMETRIC_REPRESENTATION_CONTEXT() REPRESENTATION_CONTEXT('2D SPACE',''
  ) );
#340 = PCURVE('',#207,#341);
#341 = DEFINITIONAL_REPRESENTATION('',(#342),#346);
#342 = LINE('',#343,#344);
#343 = CARTESIAN_POINT('',(1.732050028348,9.478637492955E-17));
#344 = VECTOR('',#345,1.);
#345 = DIRECTION('',(1.76453903572E-17,-1.));
#346 = ( GEOMETRIC_REPRESENTATION_CONTEXT(2) 
PARAMETRIC_REPRESENTATION_CONTEXT() REPRESENTATION_CONTEXT('2D SPACE',''
  ) );
#347 = ORIENTED_EDGE('',*,*,#57,.T.);
#348 = FACE_BOUND('',#349,.T.);
#349 = EDGE_LOOP('',(#350,#390));
#350 = ORIENTED_EDGE('',*,*,#351,.T.);
#351 = EDGE_CURVE('',#352,#354,#356,.T.);
#352 = VERTEX_POINT('',#353);
#353 = CARTESIAN_POINT('',(1.501078017037,-0.865552731168,
    -1.999750828084));
#354 = VERTEX_POINT('',#355);
#355 = CARTESIAN_POINT('',(1.501078022878,0.86646730335,-2.000209437684)
  );
#356 = SURFACE_CURVE('',#357,(#362,#369),.PCURVE_S1.);
#357 = HYPERBOLA('',#358,0.866031416667,1.499999325175);
#358 = AXIS2_PLACEMENT_3D('',#359,#360,#361);
#359 = CARTESIAN_POINT('',(1.501091335889,1.925023253144E-04,
    -2.999982720343));
#360 = DIRECTION('',(-0.999999999911,-1.535572224931E-10,
    -1.331589724707E-05));
#361 = DIRECTION('',(-1.331589682094E-05,2.647830713436E-04,
    0.999999964856));
#362 = PCURVE('',#74,#363);
#363 = DEFINITIONAL_REPRESENTATION('',(#364),#368);
#364 = HYPERBOLA('',#365,0.866031416667,1.499999325175);
#365 = AXIS2_PLACEMENT_2D('',#366,#367);
#366 = CARTESIAN_POINT('',(0.866025014174,0.662644371609));
#367 = DIRECTION('',(-1.084202172486E-19,-1.));
#368 = ( GEOMETRIC_REPRESENTATION_CONTEXT(2) 
PARAMETRIC_REPRESENTATION_CONTEXT() REPRESENTATION_CONTEXT('2D SPACE',''
  ) );
#369 = PCURVE('',#370,#375);
#370 = CONICAL_SURFACE('',#371,1.732042545118,1.047194349954);
#371 = AXIS2_PLACEMENT_3D('',#372,#373,#374);
#372 = CARTESIAN_POINT('',(1.078694915351E-03,4.57285860743E-04,
    -2.000000106721));
#373 = DIRECTION('',(-1.331589682094E-05,2.647830713436E-04,
    0.999999964856));
#374 = DIRECTION('',(0.,-0.999999964945,2.647830713671E-04));
#375 = DEFINITIONAL_REPRESENTATION('',(#376),#389);
#376 = B_SPLINE_CURVE_WITH_KNOTS('',6,(#377,#378,#379,#380,#381,#382,
    #383,#384,#385,#386,#387,#388),.UNSPECIFIED.,.F.,.F.,(7,5,7),(
    -0.549297503366,1.110223024625E-16,0.549297503366),.UNSPECIFIED.);
#377 = CARTESIAN_POINT('',(-5.235980276041,1.110235336386E-16));
#378 = CARTESIAN_POINT('',(-5.156695668138,-4.57743186843E-02));
#379 = CARTESIAN_POINT('',(-5.073056270844,-8.149102400224E-02));
#380 = CARTESIAN_POINT('',(-4.985658694179,-0.107840650361));
#381 = CARTESIAN_POINT('',(-4.895487724449,-0.125261011853));
#382 = CARTESIAN_POINT('',(-4.803938567651,-0.133971205935));
#383 = CARTESIAN_POINT('',(-4.620839399863,-0.133971205935));
#384 = CARTESIAN_POINT('',(-4.529290243065,-0.125261011853));
#385 = CARTESIAN_POINT('',(-4.439119273335,-0.107840650361));
#386 = CARTESIAN_POINT('',(-4.35172169667,-8.149102400225E-02));
#387 = CARTESIAN_POINT('',(-4.268082299376,-4.57743186843E-02));
#388 = CARTESIAN_POINT('',(-4.188797691473,2.071720233651E-16));
#389 = ( GEOMETRIC_REPRESENTATION_CONTEXT(2) 
PARAMETRIC_REPRESENTATION_CONTEXT() REPRESENTATION_CONTEXT('2D SPACE',''
  ) );
#390 = ORIENTED_EDGE('',*,*,#391,.T.);
#391 = EDGE_CURVE('',#354,#352,#392,.T.);
#392 = SURFACE_CURVE('',#393,(#397,#404),.PCURVE_S1.);
#393 = LINE('',#394,#395);
#394 = CARTESIAN_POINT('',(1.501078018497,-0.432555205817,
    -1.999865478502));
#395 = VECTOR('',#396,1.);
#396 = DIRECTION('',(-3.372266953679E-09,-0.999999964945,
    2.647830713222E-04));
#397 = PCURVE('',#74,#398);
#398 = DEFINITIONAL_REPRESENTATION('',(#399),#403);
#399 = LINE('',#400,#401);
#400 = CARTESIAN_POINT('',(0.433012507087,-0.337358250994));
#401 = VECTOR('',#402,1.);
#402 = DIRECTION('',(-1.,5.421010862428E-20));
#403 = ( GEOMETRIC_REPRESENTATION_CONTEXT(2) 
PARAMETRIC_REPRESENTATION_CONTEXT() REPRESENTATION_CONTEXT('2D SPACE',''
  ) );
#404 = PCURVE('',#405,#410);
#405 = PLANE('',#406);
#406 = AXIS2_PLACEMENT_3D('',#407,#408,#409);
#407 = CARTESIAN_POINT('',(1.078694915351E-03,4.57285860743E-04,
    -2.000000106721));
#408 = DIRECTION('',(1.331589682094E-05,-2.647830713436E-04,
    -0.999999964856));
#409 = DIRECTION('',(0.,-0.999999964945,2.647830713671E-04));
#410 = DEFINITIONAL_REPRESENTATION('',(#411),#414);
#411 = B_SPLINE_CURVE_WITH_KNOTS('',1,(#412,#413),.UNSPECIFIED.,.F.,.F.,
  (2,2),(-1.299037521261,0.433012507087),.PIECEWISE_BEZIER_KNOTS.);
#412 = CARTESIAN_POINT('',(-0.866025009116,-1.499999328096));
#413 = CARTESIAN_POINT('',(0.866025019233,-1.499999322255));
#414 = ( GEOMETRIC_REPRESENTATION_CONTEXT(2) 
PARAMETRIC_REPRESENTATION_CONTEXT() REPRESENTATION_CONTEXT('2D SPACE',''
  ) );
#415 = ADVANCED_FACE('',(#416,#464),#207,.T.);
#416 = FACE_BOUND('',#417,.T.);
#417 = EDGE_LOOP('',(#418,#419,#442,#463));
#418 = ORIENTED_EDGE('',*,*,#327,.F.);
#419 = ORIENTED_EDGE('',*,*,#420,.F.);
#420 = EDGE_CURVE('',#421,#300,#423,.T.);
#421 = VERTEX_POINT('',#422);
#422 = CARTESIAN_POINT('',(1.083181302078E-03,-1.731682008524,
    -2.336899728332));
#423 = SURFACE_CURVE('',#424,(#428,#435),.PCURVE_S1.);
#424 = LINE('',#425,#426);
#425 = CARTESIAN_POINT('',(1.083181302078E-03,-1.731682008524,
    -2.336899728332));
#426 = VECTOR('',#427,1.);
#427 = DIRECTION('',(0.866025405394,0.499999982605,-1.208596303709E-04)
  );
#428 = PCURVE('',#207,#429);
#429 = DEFINITIONAL_REPRESENTATION('',(#430),#434);
#430 = LINE('',#431,#432);
#431 = CARTESIAN_POINT('',(0.,0.));
#432 = VECTOR('',#433,1.);
#433 = DIRECTION('',(1.,-2.710505431214E-20));
#434 = ( GEOMETRIC_REPRESENTATION_CONTEXT(2) 
PARAMETRIC_REPRESENTATION_CONTEXT() REPRESENTATION_CONTEXT('2D SPACE',''
  ) );
#435 = PCURVE('',#315,#436);
#436 = DEFINITIONAL_REPRESENTATION('',(#437),#441);
#437 = LINE('',#438,#439);
#438 = CARTESIAN_POINT('',(-0.866025014174,-1.499999325175));
#439 = VECTOR('',#440,1.);
#440 = DIRECTION('',(1.,-5.12790280398E-16));
#441 = ( GEOMETRIC_REPRESENTATION_CONTEXT(2) 
PARAMETRIC_REPRESENTATION_CONTEXT() REPRESENTATION_CONTEXT('2D SPACE',''
  ) );
#442 = ORIENTED_EDGE('',*,*,#443,.T.);
#443 = EDGE_CURVE('',#421,#168,#444,.T.);
#444 = SURFACE_CURVE('',#445,(#449,#456),.PCURVE_S1.);
#445 = LINE('',#446,#447);
#446 = CARTESIAN_POINT('',(1.083181302078E-03,-1.731682008524,
    -2.336899728332));
#447 = VECTOR('',#448,1.);
#448 = DIRECTION('',(-1.331589682094E-05,2.647830713436E-04,
    0.999999964856));
#449 = PCURVE('',#207,#450);
#450 = DEFINITIONAL_REPRESENTATION('',(#451),#455);
#451 = LINE('',#452,#453);
#452 = CARTESIAN_POINT('',(0.,0.));
#453 = VECTOR('',#454,1.);
#454 = DIRECTION('',(-1.161451577275E-17,-1.));
#455 = ( GEOMETRIC_REPRESENTATION_CONTEXT(2) 
PARAMETRIC_REPRESENTATION_CONTEXT() REPRESENTATION_CONTEXT('2D SPACE',''
  ) );
#456 = PCURVE('',#182,#457);
#457 = DEFINITIONAL_REPRESENTATION('',(#458),#462);
#458 = LINE('',#459,#460);
#459 = CARTESIAN_POINT('',(1.732050028348,-2.802662615875E-17));
#460 = VECTOR('',#461,1.);
#461 = DIRECTION('',(1.170938346284E-17,-1.));
#462 = ( GEOMETRIC_REPRESENTATION_CONTEXT(2) 
PARAMETRIC_REPRESENTATION_CONTEXT() REPRESENTATION_CONTEXT('2D SPACE',''
  ) );
#463 = ORIENTED_EDGE('',*,*,#194,.T.);
#464 = FACE_BOUND('',#465,.T.);
#465 = EDGE_LOOP('',(#466,#506));
#466 = ORIENTED_EDGE('',*,*,#467,.T.);
#467 = EDGE_CURVE('',#468,#470,#472,.T.);
#468 = VERTEX_POINT('',#469);
#469 = CARTESIAN_POINT('',(1.091650493254E-03,-1.731585198492,
    -1.999541491004));
#470 = VERTEX_POINT('',#471);
#471 = CARTESIAN_POINT('',(1.501065055618,-0.865575181003,
    -1.999750822312));
#472 = SURFACE_CURVE('',#473,(#478,#485),.PCURVE_S1.);
#473 = HYPERBOLA('',#474,0.866031416667,1.499999325175);
#474 = AXIS2_PLACEMENT_3D('',#475,#476,#477);
#475 = CARTESIAN_POINT('',(0.751091668987,-1.298844973513,
    -2.999648744116));
#476 = DIRECTION('',(-0.499999997035,0.866025373349,-2.359668148806E-04)
  );
#477 = DIRECTION('',(-1.331589682094E-05,2.647830713436E-04,
    0.999999964856));
#478 = PCURVE('',#207,#479);
#479 = DEFINITIONAL_REPRESENTATION('',(#480),#484);
#480 = HYPERBOLA('',#481,0.866031416667,1.499999325175);
#481 = AXIS2_PLACEMENT_2D('',#482,#483);
#482 = CARTESIAN_POINT('',(0.866025014174,0.662644371609));
#483 = DIRECTION('',(5.421010862428E-20,-1.));
#484 = ( GEOMETRIC_REPRESENTATION_CONTEXT(2) 
PARAMETRIC_REPRESENTATION_CONTEXT() REPRESENTATION_CONTEXT('2D SPACE',''
  ) );
#485 = PCURVE('',#486,#491);
#486 = CONICAL_SURFACE('',#487,1.732042545118,1.047194349954);
#487 = AXIS2_PLACEMENT_3D('',#488,#489,#490);
#488 = CARTESIAN_POINT('',(1.078694915351E-03,4.57285860743E-04,
    -2.000000106721));
#489 = DIRECTION('',(-1.331589682094E-05,2.647830713436E-04,
    0.999999964856));
#490 = DIRECTION('',(0.,-0.999999964945,2.647830713671E-04));
#491 = DEFINITIONAL_REPRESENTATION('',(#492),#505);
#492 = B_SPLINE_CURVE_WITH_KNOTS('',6,(#493,#494,#495,#496,#497,#498,
    #499,#500,#501,#502,#503,#504),.UNSPECIFIED.,.F.,.F.,(7,5,7),(
    -0.549297503366,0.,0.549297503366),.UNSPECIFIED.);
#493 = CARTESIAN_POINT('',(-6.283177827238,-4.063672290716E-17));
#494 = CARTESIAN_POINT('',(-6.203893219334,-4.57743186843E-02));
#495 = CARTESIAN_POINT('',(-6.12025382204,-8.149102400224E-02));
#496 = CARTESIAN_POINT('',(-6.032856245376,-0.107840650361));
#497 = CARTESIAN_POINT('',(-5.942685275645,-0.125261011853));
#498 = CARTESIAN_POINT('',(-5.851136118848,-0.133971205935));
#499 = CARTESIAN_POINT('',(-5.668036951059,-0.133971205935));
#500 = CARTESIAN_POINT('',(-5.576487794262,-0.125261011853));
#501 = CARTESIAN_POINT('',(-5.486316824531,-0.107840650361));
#502 = CARTESIAN_POINT('',(-5.398919247867,-8.149102400224E-02));
#503 = CARTESIAN_POINT('',(-5.315279850573,-4.57743186843E-02));
#504 = CARTESIAN_POINT('',(-5.23599524267,1.110235336386E-16));
#505 = ( GEOMETRIC_REPRESENTATION_CONTEXT(2) 
PARAMETRIC_REPRESENTATION_CONTEXT() REPRESENTATION_CONTEXT('2D SPACE',''
  ) );
#506 = ORIENTED_EDGE('',*,*,#507,.T.);
#507 = EDGE_CURVE('',#470,#468,#508,.T.);
#508 = SURFACE_CURVE('',#509,(#513,#520),.PCURVE_S1.);
#509 = LINE('',#510,#511);
#510 = CARTESIAN_POINT('',(0.376078521065,-1.515086435759,
    -1.999593822926));
#511 = VECTOR('',#512,1.);
#512 = DIRECTION('',(-0.866025405394,-0.499999982605,1.208596303709E-04)
  );
#513 = PCURVE('',#207,#514);
#514 = DEFINITIONAL_REPRESENTATION('',(#515),#519);
#515 = LINE('',#516,#517);
#516 = CARTESIAN_POINT('',(0.433012507087,-0.337358250994));
#517 = VECTOR('',#518,1.);
#518 = DIRECTION('',(-1.,-1.355252715607E-20));
#519 = ( GEOMETRIC_REPRESENTATION_CONTEXT(2) 
PARAMETRIC_REPRESENTATION_CONTEXT() REPRESENTATION_CONTEXT('2D SPACE',''
  ) );
#520 = PCURVE('',#521,#526);
#521 = PLANE('',#522);
#522 = AXIS2_PLACEMENT_3D('',#523,#524,#525);
#523 = CARTESIAN_POINT('',(1.078694915351E-03,4.57285860743E-04,
    -2.000000106721));
#524 = DIRECTION('',(1.331589682094E-05,-2.647830713436E-04,
    -0.999999964856));
#525 = DIRECTION('',(0.,-0.999999964945,2.647830713671E-04));
#526 = DEFINITIONAL_REPRESENTATION('',(#527),#530);
#527 = B_SPLINE_CURVE_WITH_KNOTS('',1,(#528,#529),.UNSPECIFIED.,.F.,.F.,
  (2,2),(-1.299037521261,0.432997540627),.PIECEWISE_BEZIER_KNOTS.);
#528 = CARTESIAN_POINT('',(0.866025019233,-1.499999322255));
#529 = CARTESIAN_POINT('',(1.732042545118,-1.295549397951E-05));
#530 = ( GEOMETRIC_REPRESENTATION_CONTEXT(2) 
PARAMETRIC_REPRESENTATION_CONTEXT() REPRESENTATION_CONTEXT('2D SPACE',''
  ) );
#531 = ADVANCED_FACE('',(#532,#580),#182,.T.);
#532 = FACE_BOUND('',#533,.T.);
#533 = EDGE_LOOP('',(#534,#535,#558,#579));
#534 = ORIENTED_EDGE('',*,*,#443,.F.);
#535 = ORIENTED_EDGE('',*,*,#536,.F.);
#536 = EDGE_CURVE('',#537,#421,#539,.T.);
#537 = VERTEX_POINT('',#538);
#538 = CARTESIAN_POINT('',(-1.49891614082,-0.865657024939,
    -2.337149010932));
#539 = SURFACE_CURVE('',#540,(#544,#551),.PCURVE_S1.);
#540 = LINE('',#541,#542);
#541 = CARTESIAN_POINT('',(-1.49891614082,-0.865657024939,
    -2.337149010932));
#542 = VECTOR('',#543,1.);
#543 = DIRECTION('',(0.866025402022,-0.499999982339,1.439234409512E-04)
  );
#544 = PCURVE('',#182,#545);
#545 = DEFINITIONAL_REPRESENTATION('',(#546),#550);
#546 = LINE('',#547,#548);
#547 = CARTESIAN_POINT('',(0.,0.));
#548 = VECTOR('',#549,1.);
#549 = DIRECTION('',(1.,-2.710505431214E-20));
#550 = ( GEOMETRIC_REPRESENTATION_CONTEXT(2) 
PARAMETRIC_REPRESENTATION_CONTEXT() REPRESENTATION_CONTEXT('2D SPACE',''
  ) );
#551 = PCURVE('',#315,#552);
#552 = DEFINITIONAL_REPRESENTATION('',(#553),#557);
#553 = LINE('',#554,#555);
#554 = CARTESIAN_POINT('',(-1.732050028348,2.762137373677E-16));
#555 = VECTOR('',#556,1.);
#556 = DIRECTION('',(0.5,-0.866025403784));
#557 = ( GEOMETRIC_REPRESENTATION_CONTEXT(2) 
PARAMETRIC_REPRESENTATION_CONTEXT() REPRESENTATION_CONTEXT('2D SPACE',''
  ) );
#558 = ORIENTED_EDGE('',*,*,#559,.T.);
#559 = EDGE_CURVE('',#537,#141,#560,.T.);
#560 = SURFACE_CURVE('',#561,(#565,#572),.PCURVE_S1.);
#561 = LINE('',#562,#563);
#562 = CARTESIAN_POINT('',(-1.49891614082,-0.865657024939,
    -2.337149010932));
#563 = VECTOR('',#564,1.);
#564 = DIRECTION('',(-1.331589682091E-05,2.647830713436E-04,
    0.999999964856));
#565 = PCURVE('',#182,#566);
#566 = DEFINITIONAL_REPRESENTATION('',(#567),#571);
#567 = LINE('',#568,#569);
#568 = CARTESIAN_POINT('',(0.,0.));
#569 = VECTOR('',#570,1.);
#570 = DIRECTION('',(4.100994717426E-17,-1.));
#571 = ( GEOMETRIC_REPRESENTATION_CONTEXT(2) 
PARAMETRIC_REPRESENTATION_CONTEXT() REPRESENTATION_CONTEXT('2D SPACE',''
  ) );
#572 = PCURVE('',#155,#573);
#573 = DEFINITIONAL_REPRESENTATION('',(#574),#578);
#574 = LINE('',#575,#576);
#575 = CARTESIAN_POINT('',(1.732050028348,-1.227316859254E-16));
#576 = VECTOR('',#577,1.);
#577 = DIRECTION('',(2.331034670844E-17,-1.));
#578 = ( GEOMETRIC_REPRESENTATION_CONTEXT(2) 
PARAMETRIC_REPRESENTATION_CONTEXT() REPRESENTATION_CONTEXT('2D SPACE',''
  ) );
#579 = ORIENTED_EDGE('',*,*,#167,.T.);
#580 = FACE_BOUND('',#581,.T.);
#581 = EDGE_LOOP('',(#582,#622));
#582 = ORIENTED_EDGE('',*,*,#583,.T.);
#583 = EDGE_CURVE('',#584,#586,#588,.T.);
#584 = VERTEX_POINT('',#585);
#585 = CARTESIAN_POINT('',(-1.498907671629,-0.865575181464,
    -1.999790769641));
#586 = VERTEX_POINT('',#587);
#587 = CARTESIAN_POINT('',(1.06572765563E-03,-1.731585198492,
    -1.999541491349));
#588 = SURFACE_CURVE('',#589,(#594,#601),.PCURVE_S1.);
#589 = HYPERBOLA('',#590,0.866031416667,1.499999325175);
#590 = AXIS2_PLACEMENT_3D('',#591,#592,#593);
#591 = CARTESIAN_POINT('',(-0.748907656055,-1.298844973744,
    -2.999668717953));
#592 = DIRECTION('',(0.500000002876,0.866025373503,-2.226509176335E-04)
  );
#593 = DIRECTION('',(-1.331589682094E-05,2.647830713436E-04,
    0.999999964856));
#594 = PCURVE('',#182,#595);
#595 = DEFINITIONAL_REPRESENTATION('',(#596),#600);
#596 = HYPERBOLA('',#597,0.866031416667,1.499999325175);
#597 = AXIS2_PLACEMENT_2D('',#598,#599);
#598 = CARTESIAN_POINT('',(0.866025014174,0.662644371609));
#599 = DIRECTION('',(5.421010862428E-20,-1.));
#600 = ( GEOMETRIC_REPRESENTATION_CONTEXT(2) 
PARAMETRIC_REPRESENTATION_CONTEXT() REPRESENTATION_CONTEXT('2D SPACE',''
  ) );
#601 = PCURVE('',#602,#607);
#602 = CONICAL_SURFACE('',#603,1.732042545118,1.047194349954);
#603 = AXIS2_PLACEMENT_3D('',#604,#605,#606);
#604 = CARTESIAN_POINT('',(1.078694915351E-03,4.57285860743E-04,
    -2.000000106721));
#605 = DIRECTION('',(-1.331589682094E-05,2.647830713436E-04,
    0.999999964856));
#606 = DIRECTION('',(0.,-0.999999964945,2.647830713671E-04));
#607 = DEFINITIONAL_REPRESENTATION('',(#608),#621);
#608 = B_SPLINE_CURVE_WITH_KNOTS('',6,(#609,#610,#611,#612,#613,#614,
    #615,#616,#617,#618,#619,#620),.UNSPECIFIED.,.F.,.F.,(7,5,7),(
    -0.549297503366,2.22044604925E-16,0.549297503366),.UNSPECIFIED.);
#609 = CARTESIAN_POINT('',(-1.047190071255,5.551176681932E-17));
#610 = CARTESIAN_POINT('',(-0.967905463351,-4.57743186843E-02));
#611 = CARTESIAN_POINT('',(-0.884266066057,-8.149102400224E-02));
#612 = CARTESIAN_POINT('',(-0.796868489392,-0.107840650361));
#613 = CARTESIAN_POINT('',(-0.706697519663,-0.125261011853));
#614 = CARTESIAN_POINT('',(-0.615148362865,-0.133971205935));
#615 = CARTESIAN_POINT('',(-0.432049195076,-0.133971205935));
#616 = CARTESIAN_POINT('',(-0.340500038279,-0.125261011853));
#617 = CARTESIAN_POINT('',(-0.250329068549,-0.107840650361));
#618 = CARTESIAN_POINT('',(-0.162931491884,-8.149102400225E-02));
#619 = CARTESIAN_POINT('',(-7.929209458988E-02,-4.57743186843E-02));
#620 = CARTESIAN_POINT('',(-7.486686605537E-06,2.478087462723E-16));
#621 = ( GEOMETRIC_REPRESENTATION_CONTEXT(2) 
PARAMETRIC_REPRESENTATION_CONTEXT() REPRESENTATION_CONTEXT('2D SPACE',''
  ) );
#622 = ORIENTED_EDGE('',*,*,#623,.T.);
#623 = EDGE_CURVE('',#586,#584,#624,.T.);
#624 = SURFACE_CURVE('',#625,(#629,#636),.PCURVE_S1.);
#625 = LINE('',#626,#627);
#626 = CARTESIAN_POINT('',(-1.123920802517,-1.082073944082,
    -1.999728451145));
#627 = VECTOR('',#628,1.);
#628 = DIRECTION('',(-0.866025402022,0.499999982339,-1.439234409512E-04)
  );
#629 = PCURVE('',#182,#630);
#630 = DEFINITIONAL_REPRESENTATION('',(#631),#635);
#631 = LINE('',#632,#633);
#632 = CARTESIAN_POINT('',(0.433012507087,-0.337358250994));
#633 = VECTOR('',#634,1.);
#634 = DIRECTION('',(-1.,-5.421010862428E-20));
#635 = ( GEOMETRIC_REPRESENTATION_CONTEXT(2) 
PARAMETRIC_REPRESENTATION_CONTEXT() REPRESENTATION_CONTEXT('2D SPACE',''
  ) );
#636 = PCURVE('',#637,#642);
#637 = PLANE('',#638);
#638 = AXIS2_PLACEMENT_3D('',#639,#640,#641);
#639 = CARTESIAN_POINT('',(1.078694915351E-03,4.57285860743E-04,
    -2.000000106721));
#640 = DIRECTION('',(1.331589682094E-05,-2.647830713436E-04,
    -0.999999964856));
#641 = DIRECTION('',(0.,-0.999999964945,2.647830713671E-04));
#642 = DEFINITIONAL_REPRESENTATION('',(#643),#646);
#643 = B_SPLINE_CURVE_WITH_KNOTS('',1,(#644,#645),.UNSPECIFIED.,.F.,.F.,
  (2,2),(-1.299022554801,0.433012507087),.PIECEWISE_BEZIER_KNOTS.);
#644 = CARTESIAN_POINT('',(1.732042545118,1.296717564725E-05));
#645 = CARTESIAN_POINT('',(0.866025009116,1.499999328096));
#646 = ( GEOMETRIC_REPRESENTATION_CONTEXT(2) 
PARAMETRIC_REPRESENTATION_CONTEXT() REPRESENTATION_CONTEXT('2D SPACE',''
  ) );
#647 = ADVANCED_FACE('',(#648,#696),#155,.T.);
#648 = FACE_BOUND('',#649,.T.);
#649 = EDGE_LOOP('',(#650,#651,#674,#695));
#650 = ORIENTED_EDGE('',*,*,#559,.F.);
#651 = ORIENTED_EDGE('',*,*,#652,.F.);
#652 = EDGE_CURVE('',#653,#537,#655,.T.);
#653 = VERTEX_POINT('',#654);
#654 = CARTESIAN_POINT('',(-1.498916134979,0.866392942692,
    -2.337607628458));
#655 = SURFACE_CURVE('',#656,(#660,#667),.PCURVE_S1.);
#656 = LINE('',#657,#658);
#657 = CARTESIAN_POINT('',(-1.498916134979,0.866392942692,
    -2.337607628458));
#658 = VECTOR('',#659,1.);
#659 = DIRECTION('',(-3.37226679914E-09,-0.999999964945,
    2.647830713222E-04));
#660 = PCURVE('',#155,#661);
#661 = DEFINITIONAL_REPRESENTATION('',(#662),#666);
#662 = LINE('',#663,#664);
#663 = CARTESIAN_POINT('',(0.,0.));
#664 = VECTOR('',#665,1.);
#665 = DIRECTION('',(1.,0.));
#666 = ( GEOMETRIC_REPRESENTATION_CONTEXT(2) 
PARAMETRIC_REPRESENTATION_CONTEXT() REPRESENTATION_CONTEXT('2D SPACE',''
  ) );
#667 = PCURVE('',#315,#668);
#668 = DEFINITIONAL_REPRESENTATION('',(#669),#673);
#669 = LINE('',#670,#671);
#670 = CARTESIAN_POINT('',(-0.866025014174,1.499999325175));
#671 = VECTOR('',#672,1.);
#672 = DIRECTION('',(-0.5,-0.866025403784));
#673 = ( GEOMETRIC_REPRESENTATION_CONTEXT(2) 
PARAMETRIC_REPRESENTATION_CONTEXT() REPRESENTATION_CONTEXT('2D SPACE',''
  ) );
#674 = ORIENTED_EDGE('',*,*,#675,.T.);
#675 = EDGE_CURVE('',#653,#114,#676,.T.);
#676 = SURFACE_CURVE('',#677,(#681,#688),.PCURVE_S1.);
#677 = LINE('',#678,#679);
#678 = CARTESIAN_POINT('',(-1.498916134979,0.866392942692,
    -2.337607628458));
#679 = VECTOR('',#680,1.);
#680 = DIRECTION('',(-1.331589682091E-05,2.647830713436E-04,
    0.999999964856));
#681 = PCURVE('',#155,#682);
#682 = DEFINITIONAL_REPRESENTATION('',(#683),#687);
#683 = LINE('',#684,#685);
#684 = CARTESIAN_POINT('',(0.,0.));
#685 = VECTOR('',#686,1.);
#686 = DIRECTION('',(2.331034670844E-17,-1.));
#687 = ( GEOMETRIC_REPRESENTATION_CONTEXT(2) 
PARAMETRIC_REPRESENTATION_CONTEXT() REPRESENTATION_CONTEXT('2D SPACE',''
  ) );
#688 = PCURVE('',#128,#689);
#689 = DEFINITIONAL_REPRESENTATION('',(#690),#694);
#690 = LINE('',#691,#692);
#691 = CARTESIAN_POINT('',(1.732050028348,-9.465084965798E-17));
#692 = VECTOR('',#693,1.);
#693 = DIRECTION('',(-1.763183783005E-17,-1.));
#694 = ( GEOMETRIC_REPRESENTATION_CONTEXT(2) 
PARAMETRIC_REPRESENTATION_CONTEXT() REPRESENTATION_CONTEXT('2D SPACE',''
  ) );
#695 = ORIENTED_EDGE('',*,*,#140,.T.);
#696 = FACE_BOUND('',#697,.T.);
#697 = EDGE_LOOP('',(#698,#738));
#698 = ORIENTED_EDGE('',*,*,#699,.T.);
#699 = EDGE_CURVE('',#700,#702,#704,.T.);
#700 = VERTEX_POINT('',#701);
#701 = CARTESIAN_POINT('',(-1.498920627206,0.866467302889,
    -2.000249385358));
#702 = VERTEX_POINT('',#703);
#703 = CARTESIAN_POINT('',(-1.498920633047,-0.865552731628,
    -1.999790775758));
#704 = SURFACE_CURVE('',#705,(#710,#717),.PCURVE_S1.);
#705 = HYPERBOLA('',#706,0.866031416667,1.499999325175);
#706 = AXIS2_PLACEMENT_3D('',#707,#708,#709);
#707 = CARTESIAN_POINT('',(-1.498907314195,1.925018646427E-04,
    -3.000022668016));
#708 = DIRECTION('',(0.999999999911,1.535573890266E-10,
    1.331589724707E-05));
#709 = DIRECTION('',(-1.331589682094E-05,2.647830713436E-04,
    0.999999964856));
#710 = PCURVE('',#155,#711);
#711 = DEFINITIONAL_REPRESENTATION('',(#712),#716);
#712 = HYPERBOLA('',#713,0.866031416667,1.499999325175);
#713 = AXIS2_PLACEMENT_2D('',#714,#715);
#714 = CARTESIAN_POINT('',(0.866025014174,0.662644371609));
#715 = DIRECTION('',(1.084202172486E-19,-1.));
#716 = ( GEOMETRIC_REPRESENTATION_CONTEXT(2) 
PARAMETRIC_REPRESENTATION_CONTEXT() REPRESENTATION_CONTEXT('2D SPACE',''
  ) );
#717 = PCURVE('',#718,#723);
#718 = CONICAL_SURFACE('',#719,1.732042545118,1.047194349954);
#719 = AXIS2_PLACEMENT_3D('',#720,#721,#722);
#720 = CARTESIAN_POINT('',(1.078694915351E-03,4.57285860743E-04,
    -2.000000106721));
#721 = DIRECTION('',(-1.331589682094E-05,2.647830713436E-04,
    0.999999964856));
#722 = DIRECTION('',(0.,-0.999999964945,2.647830713671E-04));
#723 = DEFINITIONAL_REPRESENTATION('',(#724),#737);
#724 = B_SPLINE_CURVE_WITH_KNOTS('',6,(#725,#726,#727,#728,#729,#730,
    #731,#732,#733,#734,#735,#736),.UNSPECIFIED.,.F.,.F.,(7,5,7),(
    -0.549297503366,-1.110223024625E-16,0.549297503366),.UNSPECIFIED.);
#725 = CARTESIAN_POINT('',(-2.094387622451,1.110235336386E-16));
#726 = CARTESIAN_POINT('',(-2.015103014548,-4.57743186843E-02));
#727 = CARTESIAN_POINT('',(-1.931463617254,-8.149102400225E-02));
#728 = CARTESIAN_POINT('',(-1.844066040589,-0.107840650361));
#729 = CARTESIAN_POINT('',(-1.753895070859,-0.125261011853));
#730 = CARTESIAN_POINT('',(-1.662345914061,-0.133971205935));
#731 = CARTESIAN_POINT('',(-1.479246746273,-0.133971205935));
#732 = CARTESIAN_POINT('',(-1.387697589475,-0.125261011853));
#733 = CARTESIAN_POINT('',(-1.297526619745,-0.107840650361));
#734 = CARTESIAN_POINT('',(-1.21012904308,-8.149102400225E-02));
#735 = CARTESIAN_POINT('',(-1.126489645786,-4.57743186843E-02));
#736 = CARTESIAN_POINT('',(-1.047205037883,5.551176681932E-17));
#737 = ( GEOMETRIC_REPRESENTATION_CONTEXT(2) 
PARAMETRIC_REPRESENTATION_CONTEXT() REPRESENTATION_CONTEXT('2D SPACE',''
  ) );
#738 = ORIENTED_EDGE('',*,*,#739,.T.);
#739 = EDGE_CURVE('',#702,#700,#740,.T.);
#740 = SURFACE_CURVE('',#741,(#745,#752),.PCURVE_S1.);
#741 = LINE('',#742,#743);
#742 = CARTESIAN_POINT('',(-1.498920628667,0.433469777538,
    -2.000134734939));
#743 = VECTOR('',#744,1.);
#744 = DIRECTION('',(3.372266787146E-09,0.999999964945,
    -2.647830713222E-04));
#745 = PCURVE('',#155,#746);
#746 = DEFINITIONAL_REPRESENTATION('',(#747),#751);
#747 = LINE('',#748,#749);
#748 = CARTESIAN_POINT('',(0.433012507087,-0.337358250994));
#749 = VECTOR('',#750,1.);
#750 = DIRECTION('',(-1.,-5.421010862428E-20));
#751 = ( GEOMETRIC_REPRESENTATION_CONTEXT(2) 
PARAMETRIC_REPRESENTATION_CONTEXT() REPRESENTATION_CONTEXT('2D SPACE',''
  ) );
#752 = PCURVE('',#753,#758);
#753 = PLANE('',#754);
#754 = AXIS2_PLACEMENT_3D('',#755,#756,#757);
#755 = CARTESIAN_POINT('',(1.078694915351E-03,4.57285860743E-04,
    -2.000000106721));
#756 = DIRECTION('',(1.331589682094E-05,-2.647830713436E-04,
    -0.999999964856));
#757 = DIRECTION('',(0.,-0.999999964945,2.647830713671E-04));
#758 = DEFINITIONAL_REPRESENTATION('',(#759),#762);
#759 = B_SPLINE_CURVE_WITH_KNOTS('',1,(#760,#761),.UNSPECIFIED.,.F.,.F.,
  (2,2),(-1.299037521261,0.433012507087),.PIECEWISE_BEZIER_KNOTS.);
#760 = CARTESIAN_POINT('',(0.866025009116,1.499999328096));
#761 = CARTESIAN_POINT('',(-0.866025019233,1.499999322255));
#762 = ( GEOMETRIC_REPRESENTATION_CONTEXT(2) 
PARAMETRIC_REPRESENTATION_CONTEXT() REPRESENTATION_CONTEXT('2D SPACE',''
  ) );
#763 = ADVANCED_FACE('',(#764,#812),#128,.T.);
#764 = FACE_BOUND('',#765,.T.);
#765 = EDGE_LOOP('',(#766,#767,#790,#811));
#766 = ORIENTED_EDGE('',*,*,#675,.F.);
#767 = ORIENTED_EDGE('',*,*,#768,.F.);
#768 = EDGE_CURVE('',#769,#653,#771,.T.);
#769 = VERTEX_POINT('',#770);
#770 = CARTESIAN_POINT('',(1.083192983948E-03,1.732417926738,
    -2.337816963385));
#771 = SURFACE_CURVE('',#772,(#776,#783),.PCURVE_S1.);
#772 = LINE('',#773,#774);
#773 = CARTESIAN_POINT('',(1.083192983948E-03,1.732417926738,
    -2.337816963385));
#774 = VECTOR('',#775,1.);
#775 = DIRECTION('',(-0.866025405394,-0.499999982605,1.208596303709E-04)
  );
#776 = PCURVE('',#128,#777);
#777 = DEFINITIONAL_REPRESENTATION('',(#778),#782);
#778 = LINE('',#779,#780);
#779 = CARTESIAN_POINT('',(0.,0.));
#780 = VECTOR('',#781,1.);
#781 = DIRECTION('',(1.,2.710505431214E-20));
#782 = ( GEOMETRIC_REPRESENTATION_CONTEXT(2) 
PARAMETRIC_REPRESENTATION_CONTEXT() REPRESENTATION_CONTEXT('2D SPACE',''
  ) );
#783 = PCURVE('',#315,#784);
#784 = DEFINITIONAL_REPRESENTATION('',(#785),#789);
#785 = LINE('',#786,#787);
#786 = CARTESIAN_POINT('',(0.866025014174,1.499999325175));
#787 = VECTOR('',#788,1.);
#788 = DIRECTION('',(-1.,1.281975700995E-16));
#789 = ( GEOMETRIC_REPRESENTATION_CONTEXT(2) 
PARAMETRIC_REPRESENTATION_CONTEXT() REPRESENTATION_CONTEXT('2D SPACE',''
  ) );
#790 = ORIENTED_EDGE('',*,*,#791,.T.);
#791 = EDGE_CURVE('',#769,#87,#792,.T.);
#792 = SURFACE_CURVE('',#793,(#797,#804),.PCURVE_S1.);
#793 = LINE('',#794,#795);
#794 = CARTESIAN_POINT('',(1.083192983948E-03,1.732417926738,
    -2.337816963385));
#795 = VECTOR('',#796,1.);
#796 = DIRECTION('',(-1.331589682094E-05,2.647830713436E-04,
    0.999999964856));
#797 = PCURVE('',#128,#798);
#798 = DEFINITIONAL_REPRESENTATION('',(#799),#803);
#799 = LINE('',#800,#801);
#800 = CARTESIAN_POINT('',(0.,0.));
#801 = VECTOR('',#802,1.);
#802 = DIRECTION('',(1.164162082706E-17,-1.));
#803 = ( GEOMETRIC_REPRESENTATION_CONTEXT(2) 
PARAMETRIC_REPRESENTATION_CONTEXT() REPRESENTATION_CONTEXT('2D SPACE',''
  ) );
#804 = PCURVE('',#101,#805);
#805 = DEFINITIONAL_REPRESENTATION('',(#806),#810);
#806 = LINE('',#807,#808);
#807 = CARTESIAN_POINT('',(1.732050028348,2.8135046376E-17));
#808 = VECTOR('',#809,1.);
#809 = DIRECTION('',(-1.165517335422E-17,-1.));
#810 = ( GEOMETRIC_REPRESENTATION_CONTEXT(2) 
PARAMETRIC_REPRESENTATION_CONTEXT() REPRESENTATION_CONTEXT('2D SPACE',''
  ) );
#811 = ORIENTED_EDGE('',*,*,#113,.T.);
#812 = FACE_BOUND('',#813,.T.);
#813 = EDGE_LOOP('',(#814,#854));
#814 = ORIENTED_EDGE('',*,*,#815,.T.);
#815 = EDGE_CURVE('',#816,#818,#820,.T.);
#816 = VERTEX_POINT('',#817);
#817 = CARTESIAN_POINT('',(1.065739337449E-03,1.732499770214,
    -2.000458722438));
#818 = VERTEX_POINT('',#819);
#819 = CARTESIAN_POINT('',(-1.498907665788,0.866489752724,-2.00024939113
    ));
#820 = SURFACE_CURVE('',#821,(#826,#833),.PCURVE_S1.);
#821 = HYPERBOLA('',#822,0.866031416667,1.499999325175);
#822 = AXIS2_PLACEMENT_3D('',#823,#824,#825);
#823 = CARTESIAN_POINT('',(-0.748907647293,1.299229977703,
    -3.000356644243));
#824 = DIRECTION('',(0.499999997035,-0.866025373349,2.359668148806E-04)
  );
#825 = DIRECTION('',(-1.331589682094E-05,2.647830713436E-04,
    0.999999964856));
#826 = PCURVE('',#128,#827);
#827 = DEFINITIONAL_REPRESENTATION('',(#828),#832);
#828 = HYPERBOLA('',#829,0.866031416667,1.499999325175);
#829 = AXIS2_PLACEMENT_2D('',#830,#831);
#830 = CARTESIAN_POINT('',(0.866025014174,0.662644371609));
#831 = DIRECTION('',(-9.486769009248E-20,-1.));
#832 = ( GEOMETRIC_REPRESENTATION_CONTEXT(2) 
PARAMETRIC_REPRESENTATION_CONTEXT() REPRESENTATION_CONTEXT('2D SPACE',''
  ) );
#833 = PCURVE('',#834,#839);
#834 = CONICAL_SURFACE('',#835,1.732042545118,1.047194349954);
#835 = AXIS2_PLACEMENT_3D('',#836,#837,#838);
#836 = CARTESIAN_POINT('',(1.078694915351E-03,4.57285860743E-04,
    -2.000000106721));
#837 = DIRECTION('',(-1.331589682094E-05,2.647830713436E-04,
    0.999999964856));
#838 = DIRECTION('',(0.,-0.999999964945,2.647830713671E-04));
#839 = DEFINITIONAL_REPRESENTATION('',(#840),#853);
#840 = B_SPLINE_CURVE_WITH_KNOTS('',6,(#841,#842,#843,#844,#845,#846,
    #847,#848,#849,#850,#851,#852),.UNSPECIFIED.,.F.,.F.,(7,5,7),(
    -0.549297503366,1.110223024625E-16,0.549297503366),.UNSPECIFIED.);
#841 = CARTESIAN_POINT('',(-3.141585173648,-1.92296979453E-16));
#842 = CARTESIAN_POINT('',(-3.062300565744,-4.57743186843E-02));
#843 = CARTESIAN_POINT('',(-2.978661168451,-8.149102400225E-02));
#844 = CARTESIAN_POINT('',(-2.891263591786,-0.107840650361));
#845 = CARTESIAN_POINT('',(-2.801092622056,-0.125261011853));
#846 = CARTESIAN_POINT('',(-2.709543465258,-0.133971205935));
#847 = CARTESIAN_POINT('',(-2.526444297469,-0.133971205935));
#848 = CARTESIAN_POINT('',(-2.434895140672,-0.125261011853));
#849 = CARTESIAN_POINT('',(-2.344724170942,-0.107840650361));
#850 = CARTESIAN_POINT('',(-2.257326594277,-8.149102400224E-02));
#851 = CARTESIAN_POINT('',(-2.173687196983,-4.57743186843E-02));
#852 = CARTESIAN_POINT('',(-2.09440258908,-2.478087462723E-16));
#853 = ( GEOMETRIC_REPRESENTATION_CONTEXT(2) 
PARAMETRIC_REPRESENTATION_CONTEXT() REPRESENTATION_CONTEXT('2D SPACE',''
  ) );
#854 = ORIENTED_EDGE('',*,*,#855,.T.);
#855 = EDGE_CURVE('',#818,#816,#856,.T.);
#856 = SURFACE_CURVE('',#857,(#861,#868),.PCURVE_S1.);
#857 = LINE('',#858,#859);
#858 = CARTESIAN_POINT('',(-0.373921131234,1.51600100748,-2.000406390516
    ));
#859 = VECTOR('',#860,1.);
#860 = DIRECTION('',(0.866025405394,0.499999982605,-1.208596303709E-04)
  );
#861 = PCURVE('',#128,#862);
#862 = DEFINITIONAL_REPRESENTATION('',(#863),#867);
#863 = LINE('',#864,#865);
#864 = CARTESIAN_POINT('',(0.433012507087,-0.337358250994));
#865 = VECTOR('',#866,1.);
#866 = DIRECTION('',(-1.,1.355252715607E-20));
#867 = ( GEOMETRIC_REPRESENTATION_CONTEXT(2) 
PARAMETRIC_REPRESENTATION_CONTEXT() REPRESENTATION_CONTEXT('2D SPACE',''
  ) );
#868 = PCURVE('',#869,#874);
#869 = PLANE('',#870);
#870 = AXIS2_PLACEMENT_3D('',#871,#872,#873);
#871 = CARTESIAN_POINT('',(1.078694915351E-03,4.57285860743E-04,
    -2.000000106721));
#872 = DIRECTION('',(1.331589682094E-05,-2.647830713436E-04,
    -0.999999964856));
#873 = DIRECTION('',(0.,-0.999999964945,2.647830713671E-04));
#874 = DEFINITIONAL_REPRESENTATION('',(#875),#878);
#875 = B_SPLINE_CURVE_WITH_KNOTS('',1,(#876,#877),.UNSPECIFIED.,.F.,.F.,
  (2,2),(-1.299037521261,0.432997540627),.PIECEWISE_BEZIER_KNOTS.);
#876 = CARTESIAN_POINT('',(-0.866025019233,1.499999322255));
#877 = CARTESIAN_POINT('',(-1.732042545118,1.295549397939E-05));
#878 = ( GEOMETRIC_REPRESENTATION_CONTEXT(2) 
PARAMETRIC_REPRESENTATION_CONTEXT() REPRESENTATION_CONTEXT('2D SPACE',''
  ) );
#879 = ADVANCED_FACE('',(#880,#906),#101,.T.);
#880 = FACE_BOUND('',#881,.T.);
#881 = EDGE_LOOP('',(#882,#883,#904,#905));
#882 = ORIENTED_EDGE('',*,*,#791,.F.);
#883 = ORIENTED_EDGE('',*,*,#884,.F.);
#884 = EDGE_CURVE('',#277,#769,#885,.T.);
#885 = SURFACE_CURVE('',#886,(#890,#897),.PCURVE_S1.);
#886 = LINE('',#887,#888);
#887 = CARTESIAN_POINT('',(1.501082515106,0.866392943153,-2.337567680785
    ));
#888 = VECTOR('',#889,1.);
#889 = DIRECTION('',(-0.866025402022,0.499999982339,-1.439234409512E-04)
  );
#890 = PCURVE('',#101,#891);
#891 = DEFINITIONAL_REPRESENTATION('',(#892),#896);
#892 = LINE('',#893,#894);
#893 = CARTESIAN_POINT('',(0.,0.));
#894 = VECTOR('',#895,1.);
#895 = DIRECTION('',(1.,-2.710505431214E-20));
#896 = ( GEOMETRIC_REPRESENTATION_CONTEXT(2) 
PARAMETRIC_REPRESENTATION_CONTEXT() REPRESENTATION_CONTEXT('2D SPACE',''
  ) );
#897 = PCURVE('',#315,#898);
#898 = DEFINITIONAL_REPRESENTATION('',(#899),#903);
#899 = LINE('',#900,#901);
#900 = CARTESIAN_POINT('',(1.732050028348,6.409878504975E-17));
#901 = VECTOR('',#902,1.);
#902 = DIRECTION('',(-0.5,0.866025403784));
#903 = ( GEOMETRIC_REPRESENTATION_CONTEXT(2) 
PARAMETRIC_REPRESENTATION_CONTEXT() REPRESENTATION_CONTEXT('2D SPACE',''
  ) );
#904 = ORIENTED_EDGE('',*,*,#276,.F.);
#905 = ORIENTED_EDGE('',*,*,#86,.T.);
#906 = FACE_BOUND('',#907,.T.);
#907 = EDGE_LOOP('',(#908,#948));
#908 = ORIENTED_EDGE('',*,*,#909,.T.);
#909 = EDGE_CURVE('',#910,#912,#914,.T.);
#910 = VERTEX_POINT('',#911);
#911 = CARTESIAN_POINT('',(1.501065061459,0.866489753185,-2.000209443801
    ));
#912 = VERTEX_POINT('',#913);
#913 = CARTESIAN_POINT('',(1.091662175072E-03,1.732499770214,
    -2.000458722093));
#914 = SURFACE_CURVE('',#915,(#920,#927),.PCURVE_S1.);
#915 = HYPERBOLA('',#916,0.866031416667,1.499999325175);
#916 = AXIS2_PLACEMENT_3D('',#917,#918,#919);
#917 = CARTESIAN_POINT('',(0.751091677749,1.299229977934,-3.000336670406
    ));
#918 = DIRECTION('',(-0.500000002876,-0.866025373503,2.226509176335E-04)
  );
#919 = DIRECTION('',(-1.331589682094E-05,2.647830713436E-04,
    0.999999964856));
#920 = PCURVE('',#101,#921);
#921 = DEFINITIONAL_REPRESENTATION('',(#922),#926);
#922 = HYPERBOLA('',#923,0.866031416667,1.499999325175);
#923 = AXIS2_PLACEMENT_2D('',#924,#925);
#924 = CARTESIAN_POINT('',(0.866025014174,0.662644371609));
#925 = DIRECTION('',(-2.710505431214E-20,-1.));
#926 = ( GEOMETRIC_REPRESENTATION_CONTEXT(2) 
PARAMETRIC_REPRESENTATION_CONTEXT() REPRESENTATION_CONTEXT('2D SPACE',''
  ) );
#927 = PCURVE('',#928,#933);
#928 = CONICAL_SURFACE('',#929,1.732042545118,1.047194349954);
#929 = AXIS2_PLACEMENT_3D('',#930,#931,#932);
#930 = CARTESIAN_POINT('',(1.078694915351E-03,4.57285860743E-04,
    -2.000000106721));
#931 = DIRECTION('',(-1.331589682094E-05,2.647830713436E-04,
    0.999999964856));
#932 = DIRECTION('',(0.,-0.999999964945,2.647830713671E-04));
#933 = DEFINITIONAL_REPRESENTATION('',(#934),#947);
#934 = B_SPLINE_CURVE_WITH_KNOTS('',6,(#935,#936,#937,#938,#939,#940,
    #941,#942,#943,#944,#945,#946),.UNSPECIFIED.,.F.,.F.,(7,5,7),(
    -0.549297503366,2.22044604925E-16,0.549297503366),.UNSPECIFIED.);
#935 = CARTESIAN_POINT('',(-4.188782724844,-8.127344581433E-17));
#936 = CARTESIAN_POINT('',(-4.109498116941,-4.57743186843E-02));
#937 = CARTESIAN_POINT('',(-4.025858719647,-8.149102400225E-02));
#938 = CARTESIAN_POINT('',(-3.938461142982,-0.107840650361));
#939 = CARTESIAN_POINT('',(-3.848290173252,-0.125261011853));
#940 = CARTESIAN_POINT('',(-3.756741016455,-0.133971205935));
#941 = CARTESIAN_POINT('',(-3.573641848666,-0.133971205935));
#942 = CARTESIAN_POINT('',(-3.482092691868,-0.125261011853));
#943 = CARTESIAN_POINT('',(-3.391921722138,-0.107840650361));
#944 = CARTESIAN_POINT('',(-3.304524145473,-8.149102400224E-02));
#945 = CARTESIAN_POINT('',(-3.22088474818,-4.57743186843E-02));
#946 = CARTESIAN_POINT('',(-3.141600140276,2.626837901845E-16));
#947 = ( GEOMETRIC_REPRESENTATION_CONTEXT(2) 
PARAMETRIC_REPRESENTATION_CONTEXT() REPRESENTATION_CONTEXT('2D SPACE',''
  ) );
#948 = ORIENTED_EDGE('',*,*,#949,.T.);
#949 = EDGE_CURVE('',#912,#910,#950,.T.);
#950 = SURFACE_CURVE('',#951,(#955,#962),.PCURVE_S1.);
#951 = LINE('',#952,#953);
#952 = CARTESIAN_POINT('',(1.126078192348,1.082988515803,-2.000271762297
    ));
#953 = VECTOR('',#954,1.);
#954 = DIRECTION('',(0.866025402022,-0.499999982339,1.439234409512E-04)
  );
#955 = PCURVE('',#101,#956);
#956 = DEFINITIONAL_REPRESENTATION('',(#957),#961);
#957 = LINE('',#958,#959);
#958 = CARTESIAN_POINT('',(0.433012507087,-0.337358250994));
#959 = VECTOR('',#960,1.);
#960 = DIRECTION('',(-1.,5.421010862428E-20));
#961 = ( GEOMETRIC_REPRESENTATION_CONTEXT(2) 
PARAMETRIC_REPRESENTATION_CONTEXT() REPRESENTATION_CONTEXT('2D SPACE',''
  ) );
#962 = PCURVE('',#963,#968);
#963 = PLANE('',#964);
#964 = AXIS2_PLACEMENT_3D('',#965,#966,#967);
#965 = CARTESIAN_POINT('',(1.078694915351E-03,4.57285860743E-04,
    -2.000000106721));
#966 = DIRECTION('',(1.331589682094E-05,-2.647830713436E-04,
    -0.999999964856));
#967 = DIRECTION('',(0.,-0.999999964945,2.647830713671E-04));
#968 = DEFINITIONAL_REPRESENTATION('',(#969),#972);
#969 = B_SPLINE_CURVE_WITH_KNOTS('',1,(#970,#971),.UNSPECIFIED.,.F.,.F.,
  (2,2),(-1.299022554801,0.433012507087),.PIECEWISE_BEZIER_KNOTS.);
#970 = CARTESIAN_POINT('',(-1.732042545118,-1.296717564703E-05));
#971 = CARTESIAN_POINT('',(-0.866025009116,-1.499999328096));
#972 = ( GEOMETRIC_REPRESENTATION_CONTEXT(2) 
PARAMETRIC_REPRESENTATION_CONTEXT() REPRESENTATION_CONTEXT('2D SPACE',''
  ) );
#973 = ADVANCED_FACE('',(#974),#261,.T.);
#974 = FACE_BOUND('',#975,.T.);
#975 = EDGE_LOOP('',(#976,#999,#1026,#1027));
#976 = ORIENTED_EDGE('',*,*,#977,.T.);
#977 = EDGE_CURVE('',#223,#978,#980,.T.);
#978 = VERTEX_POINT('',#979);
#979 = CARTESIAN_POINT('',(1.07631087251E-03,-2.991792145279,
    -1.820170456263));
#980 = SEAM_CURVE('',#981,(#985,#992),.PCURVE_S1.);
#981 = LINE('',#982,#983);
#982 = CARTESIAN_POINT('',(1.052017990696E-03,-2.991309087776,
    4.181390817504E-03));
#983 = VECTOR('',#984,1.);
#984 = DIRECTION('',(1.331589682094E-05,-2.647830713436E-04,
    -0.999999964856));
#985 = PCURVE('',#261,#986);
#986 = DEFINITIONAL_REPRESENTATION('',(#987),#991);
#987 = LINE('',#988,#989);
#988 = CARTESIAN_POINT('',(6.28318530718,-0.));
#989 = VECTOR('',#990,1.);
#990 = DIRECTION('',(0.,1.));
#991 = ( GEOMETRIC_REPRESENTATION_CONTEXT(2) 
PARAMETRIC_REPRESENTATION_CONTEXT() REPRESENTATION_CONTEXT('2D SPACE',''
  ) );
#992 = PCURVE('',#261,#993);
#993 = DEFINITIONAL_REPRESENTATION('',(#994),#998);
#994 = LINE('',#995,#996);
#995 = CARTESIAN_POINT('',(0.,-0.));
#996 = VECTOR('',#997,1.);
#997 = DIRECTION('',(0.,1.));
#998 = ( GEOMETRIC_REPRESENTATION_CONTEXT(2) 
PARAMETRIC_REPRESENTATION_CONTEXT() REPRESENTATION_CONTEXT('2D SPACE',''
  ) );
#999 = ORIENTED_EDGE('',*,*,#1000,.F.);
#1000 = EDGE_CURVE('',#978,#978,#1001,.T.);
#1001 = SURFACE_CURVE('',#1002,(#1007,#1014),.PCURVE_S1.);
#1002 = CIRCLE('',#1003,2.992296942093);
#1003 = AXIS2_PLACEMENT_3D('',#1004,#1005,#1006);
#1004 = CARTESIAN_POINT('',(1.076310872509E-03,5.046919194133E-04,
    -1.820962765838));
#1005 = DIRECTION('',(1.331589682094E-05,-2.647830713436E-04,
    -0.999999964856));
#1006 = DIRECTION('',(8.27180612553E-25,-0.999999964945,
    2.647830713671E-04));
#1007 = PCURVE('',#261,#1008);
#1008 = DEFINITIONAL_REPRESENTATION('',(#1009),#1013);
#1009 = LINE('',#1010,#1011);
#1010 = CARTESIAN_POINT('',(0.,1.824351911195));
#1011 = VECTOR('',#1012,1.);
#1012 = DIRECTION('',(1.,0.));
#1013 = ( GEOMETRIC_REPRESENTATION_CONTEXT(2) 
PARAMETRIC_REPRESENTATION_CONTEXT() REPRESENTATION_CONTEXT('2D SPACE',''
  ) );
#1014 = PCURVE('',#1015,#1020);
#1015 = PLANE('',#1016);
#1016 = AXIS2_PLACEMENT_3D('',#1017,#1018,#1019);
#1017 = CARTESIAN_POINT('',(1.076310872509E-03,5.046919194133E-04,
    -1.820962765838));
#1018 = DIRECTION('',(1.331589682094E-05,-2.647830713436E-04,
    -0.999999964856));
#1019 = DIRECTION('',(0.,-0.999999964945,2.647830713671E-04));
#1020 = DEFINITIONAL_REPRESENTATION('',(#1021),#1025);
#1021 = CIRCLE('',#1022,2.992296942093);
#1022 = AXIS2_PLACEMENT_2D('',#1023,#1024);
#1023 = CARTESIAN_POINT('',(0.,0.));
#1024 = DIRECTION('',(1.,0.));
#1025 = ( GEOMETRIC_REPRESENTATION_CONTEXT(2) 
PARAMETRIC_REPRESENTATION_CONTEXT() REPRESENTATION_CONTEXT('2D SPACE',''
  ) );
#1026 = ORIENTED_EDGE('',*,*,#977,.F.);
#1027 = ORIENTED_EDGE('',*,*,#246,.T.);
#1028 = ADVANCED_FACE('',(#1029,#1032),#1015,.T.);
#1029 = FACE_BOUND('',#1030,.T.);
#1030 = EDGE_LOOP('',(#1031));
#1031 = ORIENTED_EDGE('',*,*,#1000,.T.);
#1032 = FACE_BOUND('',#1033,.T.);
#1033 = EDGE_LOOP('',(#1034));
#1034 = ORIENTED_EDGE('',*,*,#1035,.F.);
#1035 = EDGE_CURVE('',#1036,#1036,#1038,.T.);
#1036 = VERTEX_POINT('',#1037);
#1037 = CARTESIAN_POINT('',(1.07631087251E-03,-2.912263496996,
    -1.820191514103));
#1038 = SURFACE_CURVE('',#1039,(#1044,#1051),.PCURVE_S1.);
#1039 = CIRCLE('',#1040,2.912768291023);
#1040 = AXIS2_PLACEMENT_3D('',#1041,#1042,#1043);
#1041 = CARTESIAN_POINT('',(1.076310872509E-03,5.046919194133E-04,
    -1.820962765838));
#1042 = DIRECTION('',(1.331589682094E-05,-2.647830713436E-04,
    -0.999999964856));
#1043 = DIRECTION('',(8.27180612553E-25,-0.999999964945,
    2.647830713671E-04));
#1044 = PCURVE('',#1015,#1045);
#1045 = DEFINITIONAL_REPRESENTATION('',(#1046),#1050);
#1046 = CIRCLE('',#1047,2.912768291023);
#1047 = AXIS2_PLACEMENT_2D('',#1048,#1049);
#1048 = CARTESIAN_POINT('',(-1.084202134479E-19,-2.168404348601E-19));
#1049 = DIRECTION('',(1.,-4.135903062765E-25));
#1050 = ( GEOMETRIC_REPRESENTATION_CONTEXT(2) 
PARAMETRIC_REPRESENTATION_CONTEXT() REPRESENTATION_CONTEXT('2D SPACE',''
  ) );
#1051 = PCURVE('',#1052,#1057);
#1052 = CONICAL_SURFACE('',#1053,2.915583641578,0.523598805304);
#1053 = AXIS2_PLACEMENT_3D('',#1054,#1055,#1056);
#1054 = CARTESIAN_POINT('',(1.076245939804E-03,5.059830890125E-04,
    -1.816086436142));
#1055 = DIRECTION('',(-1.331589682094E-05,2.647830713436E-04,
    0.999999964856));
#1056 = DIRECTION('',(0.,-0.999999964945,2.647830713671E-04));
#1057 = DEFINITIONAL_REPRESENTATION('',(#1058),#1062);
#1058 = LINE('',#1059,#1060);
#1059 = CARTESIAN_POINT('',(-0.,-4.876329867338E-03));
#1060 = VECTOR('',#1061,1.);
#1061 = DIRECTION('',(-1.,-0.));
#1062 = ( GEOMETRIC_REPRESENTATION_CONTEXT(2) 
PARAMETRIC_REPRESENTATION_CONTEXT() REPRESENTATION_CONTEXT('2D SPACE',''
  ) );
#1063 = ADVANCED_FACE('',(#1064),#1052,.T.);
#1064 = FACE_BOUND('',#1065,.T.);
#1065 = EDGE_LOOP('',(#1066,#1089,#1116,#1117));
#1066 = ORIENTED_EDGE('',*,*,#1067,.T.);
#1067 = EDGE_CURVE('',#1036,#1068,#1070,.T.);
#1068 = VERTEX_POINT('',#1069);
#1069 = CARTESIAN_POINT('',(1.095415815227E-03,-2.084291812233,
    -3.255157774676));
#1070 = SEAM_CURVE('',#1071,(#1075,#1082),.PCURVE_S1.);
#1071 = LINE('',#1072,#1073);
#1072 = CARTESIAN_POINT('',(1.076245939805E-03,-2.915077556283,
    -1.81531443895));
#1073 = VECTOR('',#1074,1.);
#1074 = DIRECTION('',(1.153190472321E-05,0.499770699336,-0.866157750039)
  );
#1075 = PCURVE('',#1052,#1076);
#1076 = DEFINITIONAL_REPRESENTATION('',(#1077),#1081);
#1077 = LINE('',#1078,#1079);
#1078 = CARTESIAN_POINT('',(-6.28318530718,0.));
#1079 = VECTOR('',#1080,1.);
#1080 = DIRECTION('',(-0.,-1.));
#1081 = ( GEOMETRIC_REPRESENTATION_CONTEXT(2) 
PARAMETRIC_REPRESENTATION_CONTEXT() REPRESENTATION_CONTEXT('2D SPACE',''
  ) );
#1082 = PCURVE('',#1052,#1083);
#1083 = DEFINITIONAL_REPRESENTATION('',(#1084),#1088);
#1084 = LINE('',#1085,#1086);
#1085 = CARTESIAN_POINT('',(0.,-0.));
#1086 = VECTOR('',#1087,1.);
#1087 = DIRECTION('',(-0.,-1.));
#1088 = ( GEOMETRIC_REPRESENTATION_CONTEXT(2) 
PARAMETRIC_REPRESENTATION_CONTEXT() REPRESENTATION_CONTEXT('2D SPACE',''
  ) );
#1089 = ORIENTED_EDGE('',*,*,#1090,.F.);
#1090 = EDGE_CURVE('',#1068,#1068,#1091,.T.);
#1091 = SURFACE_CURVE('',#1092,(#1097,#1104),.PCURVE_S1.);
#1092 = CIRCLE('',#1093,2.08441668051);
#1093 = AXIS2_PLACEMENT_3D('',#1094,#1095,#1096);
#1094 = CARTESIAN_POINT('',(1.095415815226E-03,1.247952081069E-04,
    -3.255709692927));
#1095 = DIRECTION('',(1.331589682094E-05,-2.647830713436E-04,
    -0.999999964856));
#1096 = DIRECTION('',(8.27180612553E-25,-0.999999964945,
    2.647830713671E-04));
#1097 = PCURVE('',#1052,#1098);
#1098 = DEFINITIONAL_REPRESENTATION('',(#1099),#1103);
#1099 = LINE('',#1100,#1101);
#1100 = CARTESIAN_POINT('',(-0.,-1.439623307379));
#1101 = VECTOR('',#1102,1.);
#1102 = DIRECTION('',(-1.,-0.));
#1103 = ( GEOMETRIC_REPRESENTATION_CONTEXT(2) 
PARAMETRIC_REPRESENTATION_CONTEXT() REPRESENTATION_CONTEXT('2D SPACE',''
  ) );
#1104 = PCURVE('',#1105,#1110);
#1105 = PLANE('',#1106);
#1106 = AXIS2_PLACEMENT_3D('',#1107,#1108,#1109);
#1107 = CARTESIAN_POINT('',(1.095415815226E-03,1.247952081069E-04,
    -3.255709692927));
#1108 = DIRECTION('',(1.331589682094E-05,-2.647830713436E-04,
    -0.999999964856));
#1109 = DIRECTION('',(0.,-0.999999964945,2.647830713671E-04));
#1110 = DEFINITIONAL_REPRESENTATION('',(#1111),#1115);
#1111 = CIRCLE('',#1112,2.08441668051);
#1112 = AXIS2_PLACEMENT_2D('',#1113,#1114);
#1113 = CARTESIAN_POINT('',(0.,0.));
#1114 = DIRECTION('',(1.,0.));
#1115 = ( GEOMETRIC_REPRESENTATION_CONTEXT(2) 
PARAMETRIC_REPRESENTATION_CONTEXT() REPRESENTATION_CONTEXT('2D SPACE',''
  ) );
#1116 = ORIENTED_EDGE('',*,*,#1067,.F.);
#1117 = ORIENTED_EDGE('',*,*,#1035,.T.);
#1118 = ADVANCED_FACE('',(#1119,#1154),#315,.T.);
#1119 = FACE_BOUND('',#1120,.T.);
#1120 = EDGE_LOOP('',(#1121));
#1121 = ORIENTED_EDGE('',*,*,#1122,.T.);
#1122 = EDGE_CURVE('',#1123,#1123,#1125,.T.);
#1123 = VERTEX_POINT('',#1124);
#1124 = CARTESIAN_POINT('',(1.083187143014E-03,-1.319683355318,
    -2.337008818605));
#1125 = SURFACE_CURVE('',#1126,(#1131,#1142),.PCURVE_S1.);
#1126 = CIRCLE('',#1127,1.3200513607);
#1127 = AXIS2_PLACEMENT_3D('',#1128,#1129,#1130);
#1128 = CARTESIAN_POINT('',(1.083187143013E-03,3.679591069019E-04,
    -2.337358345858));
#1129 = DIRECTION('',(1.331589682094E-05,-2.647830713436E-04,
    -0.999999964856));
#1130 = DIRECTION('',(1.222437114025E-16,-0.999999964945,
    2.647830713671E-04));
#1131 = PCURVE('',#315,#1132);
#1132 = DEFINITIONAL_REPRESENTATION('',(#1133),#1141);
#1133 = ( BOUNDED_CURVE() B_SPLINE_CURVE(2,(#1134,#1135,#1136,#1137,
#1138,#1139,#1140),.UNSPECIFIED.,.T.,.F.) B_SPLINE_CURVE_WITH_KNOTS((1,2
    ,2,2,2,1),(-2.094395102393,0.,2.094395102393,4.188790204786,
6.28318530718,8.377580409573),.UNSPECIFIED.) CURVE() 
GEOMETRIC_REPRESENTATION_ITEM() RATIONAL_B_SPLINE_CURVE((1.,0.5,1.,0.5,
1.,0.5,1.)) REPRESENTATION_ITEM('') );
#1134 = CARTESIAN_POINT('',(-0.660025676495,-1.143198014892));
#1135 = CARTESIAN_POINT('',(-2.6401027214,-8.903130835271E-09));
#1136 = CARTESIAN_POINT('',(-0.660025684205,1.14319801044));
#1137 = CARTESIAN_POINT('',(1.320051352989,2.286396029784));
#1138 = CARTESIAN_POINT('',(1.3200513607,4.451566068618E-09));
#1139 = CARTESIAN_POINT('',(1.32005136841,-2.286396020881));
#1140 = CARTESIAN_POINT('',(-0.660025676495,-1.143198014892));
#1141 = ( GEOMETRIC_REPRESENTATION_CONTEXT(2) 
PARAMETRIC_REPRESENTATION_CONTEXT() REPRESENTATION_CONTEXT('2D SPACE',''
  ) );
#1142 = PCURVE('',#1143,#1148);
#1143 = TOROIDAL_SURFACE('',#1144,1.3200513607,0.643125743149);
#1144 = AXIS2_PLACEMENT_3D('',#1145,#1146,#1147);
#1145 = CARTESIAN_POINT('',(1.091750939052E-03,1.976702973708E-04,
    -2.980484066405));
#1146 = DIRECTION('',(-1.331589682094E-05,2.647830713436E-04,
    0.999999964856));
#1147 = DIRECTION('',(1.222437101617E-16,-0.999999964945,
    2.647830713671E-04));
#1148 = DEFINITIONAL_REPRESENTATION('',(#1149),#1153);
#1149 = LINE('',#1150,#1151);
#1150 = CARTESIAN_POINT('',(-0.,1.570796326795));
#1151 = VECTOR('',#1152,1.);
#1152 = DIRECTION('',(-1.,0.));
#1153 = ( GEOMETRIC_REPRESENTATION_CONTEXT(2) 
PARAMETRIC_REPRESENTATION_CONTEXT() REPRESENTATION_CONTEXT('2D SPACE',''
  ) );
#1154 = FACE_BOUND('',#1155,.T.);
#1155 = EDGE_LOOP('',(#1156,#1157,#1158,#1159,#1160,#1161));
#1156 = ORIENTED_EDGE('',*,*,#884,.T.);
#1157 = ORIENTED_EDGE('',*,*,#768,.T.);
#1158 = ORIENTED_EDGE('',*,*,#652,.T.);
#1159 = ORIENTED_EDGE('',*,*,#536,.T.);
#1160 = ORIENTED_EDGE('',*,*,#420,.T.);
#1161 = ORIENTED_EDGE('',*,*,#299,.T.);
#1162 = ADVANCED_FACE('',(#1163),#405,.T.);
#1163 = FACE_BOUND('',#1164,.T.);
#1164 = EDGE_LOOP('',(#1165,#1187));
#1165 = ORIENTED_EDGE('',*,*,#1166,.T.);
#1166 = EDGE_CURVE('',#354,#352,#1167,.T.);
#1167 = SURFACE_CURVE('',#1168,(#1173,#1180),.PCURVE_S1.);
#1168 = CIRCLE('',#1169,1.732042545118);
#1169 = AXIS2_PLACEMENT_3D('',#1170,#1171,#1172);
#1170 = CARTESIAN_POINT('',(1.078694915351E-03,4.57285860743E-04,
    -2.000000106721));
#1171 = DIRECTION('',(1.331589682094E-05,-2.647830713436E-04,
    -0.999999964856));
#1172 = DIRECTION('',(8.27180612553E-25,-0.999999964945,
    2.647830713671E-04));
#1173 = PCURVE('',#405,#1174);
#1174 = DEFINITIONAL_REPRESENTATION('',(#1175),#1179);
#1175 = CIRCLE('',#1176,1.732042545118);
#1176 = AXIS2_PLACEMENT_2D('',#1177,#1178);
#1177 = CARTESIAN_POINT('',(0.,0.));
#1178 = DIRECTION('',(1.,0.));
#1179 = ( GEOMETRIC_REPRESENTATION_CONTEXT(2) 
PARAMETRIC_REPRESENTATION_CONTEXT() REPRESENTATION_CONTEXT('2D SPACE',''
  ) );
#1180 = PCURVE('',#370,#1181);
#1181 = DEFINITIONAL_REPRESENTATION('',(#1182),#1186);
#1182 = LINE('',#1183,#1184);
#1183 = CARTESIAN_POINT('',(-0.,-0.));
#1184 = VECTOR('',#1185,1.);
#1185 = DIRECTION('',(-1.,-0.));
#1186 = ( GEOMETRIC_REPRESENTATION_CONTEXT(2) 
PARAMETRIC_REPRESENTATION_CONTEXT() REPRESENTATION_CONTEXT('2D SPACE',''
  ) );
#1187 = ORIENTED_EDGE('',*,*,#391,.F.);
#1188 = ADVANCED_FACE('',(#1189),#370,.F.);
#1189 = FACE_BOUND('',#1190,.F.);
#1190 = EDGE_LOOP('',(#1191,#1192));
#1191 = ORIENTED_EDGE('',*,*,#1166,.T.);
#1192 = ORIENTED_EDGE('',*,*,#351,.T.);
#1193 = ADVANCED_FACE('',(#1194),#521,.T.);
#1194 = FACE_BOUND('',#1195,.T.);
#1195 = EDGE_LOOP('',(#1196,#1218));
#1196 = ORIENTED_EDGE('',*,*,#1197,.T.);
#1197 = EDGE_CURVE('',#470,#468,#1198,.T.);
#1198 = SURFACE_CURVE('',#1199,(#1204,#1211),.PCURVE_S1.);
#1199 = CIRCLE('',#1200,1.732042545118);
#1200 = AXIS2_PLACEMENT_3D('',#1201,#1202,#1203);
#1201 = CARTESIAN_POINT('',(1.078694915351E-03,4.57285860743E-04,
    -2.000000106721));
#1202 = DIRECTION('',(1.331589682094E-05,-2.647830713436E-04,
    -0.999999964856));
#1203 = DIRECTION('',(8.27180612553E-25,-0.999999964945,
    2.647830713671E-04));
#1204 = PCURVE('',#521,#1205);
#1205 = DEFINITIONAL_REPRESENTATION('',(#1206),#1210);
#1206 = CIRCLE('',#1207,1.732042545118);
#1207 = AXIS2_PLACEMENT_2D('',#1208,#1209);
#1208 = CARTESIAN_POINT('',(0.,0.));
#1209 = DIRECTION('',(1.,0.));
#1210 = ( GEOMETRIC_REPRESENTATION_CONTEXT(2) 
PARAMETRIC_REPRESENTATION_CONTEXT() REPRESENTATION_CONTEXT('2D SPACE',''
  ) );
#1211 = PCURVE('',#486,#1212);
#1212 = DEFINITIONAL_REPRESENTATION('',(#1213),#1217);
#1213 = LINE('',#1214,#1215);
#1214 = CARTESIAN_POINT('',(-0.,-0.));
#1215 = VECTOR('',#1216,1.);
#1216 = DIRECTION('',(-1.,-0.));
#1217 = ( GEOMETRIC_REPRESENTATION_CONTEXT(2) 
PARAMETRIC_REPRESENTATION_CONTEXT() REPRESENTATION_CONTEXT('2D SPACE',''
  ) );
#1218 = ORIENTED_EDGE('',*,*,#507,.F.);
#1219 = ADVANCED_FACE('',(#1220),#486,.F.);
#1220 = FACE_BOUND('',#1221,.F.);
#1221 = EDGE_LOOP('',(#1222,#1223));
#1222 = ORIENTED_EDGE('',*,*,#1197,.T.);
#1223 = ORIENTED_EDGE('',*,*,#467,.T.);
#1224 = ADVANCED_FACE('',(#1225),#637,.T.);
#1225 = FACE_BOUND('',#1226,.T.);
#1226 = EDGE_LOOP('',(#1227,#1228));
#1227 = ORIENTED_EDGE('',*,*,#623,.F.);
#1228 = ORIENTED_EDGE('',*,*,#1229,.T.);
#1229 = EDGE_CURVE('',#586,#584,#1230,.T.);
#1230 = SURFACE_CURVE('',#1231,(#1236,#1243),.PCURVE_S1.);
#1231 = CIRCLE('',#1232,1.732042545118);
#1232 = AXIS2_PLACEMENT_3D('',#1233,#1234,#1235);
#1233 = CARTESIAN_POINT('',(1.078694915351E-03,4.57285860743E-04,
    -2.000000106721));
#1234 = DIRECTION('',(1.331589682094E-05,-2.647830713436E-04,
    -0.999999964856));
#1235 = DIRECTION('',(8.27180612553E-25,-0.999999964945,
    2.647830713671E-04));
#1236 = PCURVE('',#637,#1237);
#1237 = DEFINITIONAL_REPRESENTATION('',(#1238),#1242);
#1238 = CIRCLE('',#1239,1.732042545118);
#1239 = AXIS2_PLACEMENT_2D('',#1240,#1241);
#1240 = CARTESIAN_POINT('',(0.,0.));
#1241 = DIRECTION('',(1.,0.));
#1242 = ( GEOMETRIC_REPRESENTATION_CONTEXT(2) 
PARAMETRIC_REPRESENTATION_CONTEXT() REPRESENTATION_CONTEXT('2D SPACE',''
  ) );
#1243 = PCURVE('',#602,#1244);
#1244 = DEFINITIONAL_REPRESENTATION('',(#1245),#1249);
#1245 = LINE('',#1246,#1247);
#1246 = CARTESIAN_POINT('',(-0.,-0.));
#1247 = VECTOR('',#1248,1.);
#1248 = DIRECTION('',(-1.,-0.));
#1249 = ( GEOMETRIC_REPRESENTATION_CONTEXT(2) 
PARAMETRIC_REPRESENTATION_CONTEXT() REPRESENTATION_CONTEXT('2D SPACE',''
  ) );
#1250 = ADVANCED_FACE('',(#1251),#602,.F.);
#1251 = FACE_BOUND('',#1252,.F.);
#1252 = EDGE_LOOP('',(#1253,#1254));
#1253 = ORIENTED_EDGE('',*,*,#583,.T.);
#1254 = ORIENTED_EDGE('',*,*,#1229,.T.);
#1255 = ADVANCED_FACE('',(#1256),#753,.T.);
#1256 = FACE_BOUND('',#1257,.T.);
#1257 = EDGE_LOOP('',(#1258,#1259));
#1258 = ORIENTED_EDGE('',*,*,#739,.F.);
#1259 = ORIENTED_EDGE('',*,*,#1260,.T.);
#1260 = EDGE_CURVE('',#702,#700,#1261,.T.);
#1261 = SURFACE_CURVE('',#1262,(#1267,#1274),.PCURVE_S1.);
#1262 = CIRCLE('',#1263,1.732042545118);
#1263 = AXIS2_PLACEMENT_3D('',#1264,#1265,#1266);
#1264 = CARTESIAN_POINT('',(1.078694915351E-03,4.57285860743E-04,
    -2.000000106721));
#1265 = DIRECTION('',(1.331589682094E-05,-2.647830713436E-04,
    -0.999999964856));
#1266 = DIRECTION('',(8.27180612553E-25,-0.999999964945,
    2.647830713671E-04));
#1267 = PCURVE('',#753,#1268);
#1268 = DEFINITIONAL_REPRESENTATION('',(#1269),#1273);
#1269 = CIRCLE('',#1270,1.732042545118);
#1270 = AXIS2_PLACEMENT_2D('',#1271,#1272);
#1271 = CARTESIAN_POINT('',(0.,0.));
#1272 = DIRECTION('',(1.,0.));
#1273 = ( GEOMETRIC_REPRESENTATION_CONTEXT(2) 
PARAMETRIC_REPRESENTATION_CONTEXT() REPRESENTATION_CONTEXT('2D SPACE',''
  ) );
#1274 = PCURVE('',#718,#1275);
#1275 = DEFINITIONAL_REPRESENTATION('',(#1276),#1280);
#1276 = LINE('',#1277,#1278);
#1277 = CARTESIAN_POINT('',(-0.,-0.));
#1278 = VECTOR('',#1279,1.);
#1279 = DIRECTION('',(-1.,-0.));
#1280 = ( GEOMETRIC_REPRESENTATION_CONTEXT(2) 
PARAMETRIC_REPRESENTATION_CONTEXT() REPRESENTATION_CONTEXT('2D SPACE',''
  ) );
#1281 = ADVANCED_FACE('',(#1282),#718,.F.);
#1282 = FACE_BOUND('',#1283,.F.);
#1283 = EDGE_LOOP('',(#1284,#1285));
#1284 = ORIENTED_EDGE('',*,*,#699,.T.);
#1285 = ORIENTED_EDGE('',*,*,#1260,.T.);
#1286 = ADVANCED_FACE('',(#1287),#869,.T.);
#1287 = FACE_BOUND('',#1288,.T.);
#1288 = EDGE_LOOP('',(#1289,#1290));
#1289 = ORIENTED_EDGE('',*,*,#855,.F.);
#1290 = ORIENTED_EDGE('',*,*,#1291,.T.);
#1291 = EDGE_CURVE('',#818,#816,#1292,.T.);
#1292 = SURFACE_CURVE('',#1293,(#1298,#1305),.PCURVE_S1.);
#1293 = CIRCLE('',#1294,1.732042545118);
#1294 = AXIS2_PLACEMENT_3D('',#1295,#1296,#1297);
#1295 = CARTESIAN_POINT('',(1.078694915351E-03,4.57285860743E-04,
    -2.000000106721));
#1296 = DIRECTION('',(1.331589682094E-05,-2.647830713436E-04,
    -0.999999964856));
#1297 = DIRECTION('',(8.27180612553E-25,-0.999999964945,
    2.647830713671E-04));
#1298 = PCURVE('',#869,#1299);
#1299 = DEFINITIONAL_REPRESENTATION('',(#1300),#1304);
#1300 = CIRCLE('',#1301,1.732042545118);
#1301 = AXIS2_PLACEMENT_2D('',#1302,#1303);
#1302 = CARTESIAN_POINT('',(0.,0.));
#1303 = DIRECTION('',(1.,0.));
#1304 = ( GEOMETRIC_REPRESENTATION_CONTEXT(2) 
PARAMETRIC_REPRESENTATION_CONTEXT() REPRESENTATION_CONTEXT('2D SPACE',''
  ) );
#1305 = PCURVE('',#834,#1306);
#1306 = DEFINITIONAL_REPRESENTATION('',(#1307),#1311);
#1307 = LINE('',#1308,#1309);
#1308 = CARTESIAN_POINT('',(-0.,-0.));
#1309 = VECTOR('',#1310,1.);
#1310 = DIRECTION('',(-1.,-0.));
#1311 = ( GEOMETRIC_REPRESENTATION_CONTEXT(2) 
PARAMETRIC_REPRESENTATION_CONTEXT() REPRESENTATION_CONTEXT('2D SPACE',''
  ) );
#1312 = ADVANCED_FACE('',(#1313),#834,.F.);
#1313 = FACE_BOUND('',#1314,.F.);
#1314 = EDGE_LOOP('',(#1315,#1316));
#1315 = ORIENTED_EDGE('',*,*,#815,.T.);
#1316 = ORIENTED_EDGE('',*,*,#1291,.T.);
#1317 = ADVANCED_FACE('',(#1318),#963,.T.);
#1318 = FACE_BOUND('',#1319,.T.);
#1319 = EDGE_LOOP('',(#1320,#1342));
#1320 = ORIENTED_EDGE('',*,*,#1321,.T.);
#1321 = EDGE_CURVE('',#912,#910,#1322,.T.);
#1322 = SURFACE_CURVE('',#1323,(#1328,#1335),.PCURVE_S1.);
#1323 = CIRCLE('',#1324,1.732042545118);
#1324 = AXIS2_PLACEMENT_3D('',#1325,#1326,#1327);
#1325 = CARTESIAN_POINT('',(1.078694915351E-03,4.57285860743E-04,
    -2.000000106721));
#1326 = DIRECTION('',(1.331589682094E-05,-2.647830713436E-04,
    -0.999999964856));
#1327 = DIRECTION('',(8.27180612553E-25,-0.999999964945,
    2.647830713671E-04));
#1328 = PCURVE('',#963,#1329);
#1329 = DEFINITIONAL_REPRESENTATION('',(#1330),#1334);
#1330 = CIRCLE('',#1331,1.732042545118);
#1331 = AXIS2_PLACEMENT_2D('',#1332,#1333);
#1332 = CARTESIAN_POINT('',(0.,0.));
#1333 = DIRECTION('',(1.,0.));
#1334 = ( GEOMETRIC_REPRESENTATION_CONTEXT(2) 
PARAMETRIC_REPRESENTATION_CONTEXT() REPRESENTATION_CONTEXT('2D SPACE',''
  ) );
#1335 = PCURVE('',#928,#1336);
#1336 = DEFINITIONAL_REPRESENTATION('',(#1337),#1341);
#1337 = LINE('',#1338,#1339);
#1338 = CARTESIAN_POINT('',(-0.,-0.));
#1339 = VECTOR('',#1340,1.);
#1340 = DIRECTION('',(-1.,-0.));
#1341 = ( GEOMETRIC_REPRESENTATION_CONTEXT(2) 
PARAMETRIC_REPRESENTATION_CONTEXT() REPRESENTATION_CONTEXT('2D SPACE',''
  ) );
#1342 = ORIENTED_EDGE('',*,*,#949,.F.);
#1343 = ADVANCED_FACE('',(#1344),#928,.F.);
#1344 = FACE_BOUND('',#1345,.F.);
#1345 = EDGE_LOOP('',(#1346,#1347));
#1346 = ORIENTED_EDGE('',*,*,#1321,.T.);
#1347 = ORIENTED_EDGE('',*,*,#909,.T.);
#1348 = ADVANCED_FACE('',(#1349,#1352),#1105,.T.);
#1349 = FACE_BOUND('',#1350,.T.);
#1350 = EDGE_LOOP('',(#1351));
#1351 = ORIENTED_EDGE('',*,*,#1090,.T.);
#1352 = FACE_BOUND('',#1353,.T.);
#1353 = EDGE_LOOP('',(#1354));
#1354 = ORIENTED_EDGE('',*,*,#1355,.T.);
#1355 = EDGE_CURVE('',#1356,#1356,#1358,.T.);
#1356 = VERTEX_POINT('',#1357);
#1357 = CARTESIAN_POINT('',(1.095415815227E-03,2.007475899488,
    -3.256241205536));
#1358 = SURFACE_CURVE('',#1359,(#1364,#1375),.PCURVE_S1.);
#1359 = CIRCLE('',#1360,2.007351174648);
#1360 = AXIS2_PLACEMENT_3D('',#1361,#1362,#1363);
#1361 = CARTESIAN_POINT('',(1.095415815226E-03,1.247952081069E-04,
    -3.255709692927));
#1362 = DIRECTION('',(-1.331589682094E-05,2.647830713436E-04,
    0.999999964856));
#1363 = DIRECTION('',(-8.27180612553E-25,0.999999964945,
    -2.647830713671E-04));
#1364 = PCURVE('',#1105,#1365);
#1365 = DEFINITIONAL_REPRESENTATION('',(#1366),#1374);
#1366 = ( BOUNDED_CURVE() B_SPLINE_CURVE(2,(#1367,#1368,#1369,#1370,
#1371,#1372,#1373),.UNSPECIFIED.,.T.,.F.) B_SPLINE_CURVE_WITH_KNOTS((1,2
    ,2,2,2,1),(-2.094395102393,0.,2.094395102393,4.188790204786,
6.28318530718,8.377580409573),.UNSPECIFIED.) CURVE() 
GEOMETRIC_REPRESENTATION_ITEM() RATIONAL_B_SPLINE_CURVE((1.,0.5,1.,0.5,
1.,0.5,1.)) REPRESENTATION_ITEM('') );
#1367 = CARTESIAN_POINT('',(-2.007351174648,-2.365295582522E-20));
#1368 = CARTESIAN_POINT('',(-2.007351174648,3.476834223123));
#1369 = CARTESIAN_POINT('',(1.003675587324,1.738417111562));
#1370 = CARTESIAN_POINT('',(4.014702349296,4.91635582713E-16));
#1371 = CARTESIAN_POINT('',(1.003675587324,-1.738417111562));
#1372 = CARTESIAN_POINT('',(-2.007351174648,-3.476834223123));
#1373 = CARTESIAN_POINT('',(-2.007351174648,-2.365295582522E-20));
#1374 = ( GEOMETRIC_REPRESENTATION_CONTEXT(2) 
PARAMETRIC_REPRESENTATION_CONTEXT() REPRESENTATION_CONTEXT('2D SPACE',''
  ) );
#1375 = PCURVE('',#1376,#1381);
#1376 = CYLINDRICAL_SURFACE('',#1377,2.007351174648);
#1377 = AXIS2_PLACEMENT_3D('',#1378,#1379,#1380);
#1378 = CARTESIAN_POINT('',(1.16730182299E-03,-1.304638962057E-03,
    -8.654219925002));
#1379 = DIRECTION('',(-1.331589682094E-05,2.647830713436E-04,
    0.999999964856));
#1380 = DIRECTION('',(0.,0.999999964945,-2.647830713671E-04));
#1381 = DEFINITIONAL_REPRESENTATION('',(#1382),#1386);
#1382 = LINE('',#1383,#1384);
#1383 = CARTESIAN_POINT('',(8.27180612553E-25,5.398510421798));
#1384 = VECTOR('',#1385,1.);
#1385 = DIRECTION('',(1.,0.));
#1386 = ( GEOMETRIC_REPRESENTATION_CONTEXT(2) 
PARAMETRIC_REPRESENTATION_CONTEXT() REPRESENTATION_CONTEXT('2D SPACE',''
  ) );
#1387 = ADVANCED_FACE('',(#1388),#1143,.T.);
#1388 = FACE_BOUND('',#1389,.F.);
#1389 = EDGE_LOOP('',(#1390,#1412,#1413,#1414));
#1390 = ORIENTED_EDGE('',*,*,#1391,.F.);
#1391 = EDGE_CURVE('',#1123,#1392,#1394,.T.);
#1392 = VERTEX_POINT('',#1393);
#1393 = CARTESIAN_POINT('',(1.084334487837E-03,-0.998141526691,
    -2.423257501611));
#1394 = SEAM_CURVE('',#1395,(#1400,#1406),.PCURVE_S1.);
#1395 = CIRCLE('',#1396,0.643125743149);
#1396 = AXIS2_PLACEMENT_3D('',#1397,#1398,#1399);
#1397 = CARTESIAN_POINT('',(1.091750939052E-03,-1.319853644128,
    -2.980134539152));
#1398 = DIRECTION('',(-0.999999999911,-3.5258241805E-09,
    -1.331589635415E-05));
#1399 = DIRECTION('',(1.222437109889E-16,-0.999999964945,
    2.647830713671E-04));
#1400 = PCURVE('',#1143,#1401);
#1401 = DEFINITIONAL_REPRESENTATION('',(#1402),#1405);
#1402 = B_SPLINE_CURVE_WITH_KNOTS('',1,(#1403,#1404),.UNSPECIFIED.,.F.,
  .F.,(2,2),(1.570796326795,2.094398303635),.PIECEWISE_BEZIER_KNOTS.);
#1403 = CARTESIAN_POINT('',(0.,1.570796326795));
#1404 = CARTESIAN_POINT('',(0.,2.094398303635));
#1405 = ( GEOMETRIC_REPRESENTATION_CONTEXT(2) 
PARAMETRIC_REPRESENTATION_CONTEXT() REPRESENTATION_CONTEXT('2D SPACE',''
  ) );
#1406 = PCURVE('',#1143,#1407);
#1407 = DEFINITIONAL_REPRESENTATION('',(#1408),#1411);
#1408 = B_SPLINE_CURVE_WITH_KNOTS('',1,(#1409,#1410),.UNSPECIFIED.,.F.,
  .F.,(2,2),(1.570796326795,2.094398303635),.PIECEWISE_BEZIER_KNOTS.);
#1409 = CARTESIAN_POINT('',(-6.28318530718,1.570796326795));
#1410 = CARTESIAN_POINT('',(-6.28318530718,2.094398303635));
#1411 = ( GEOMETRIC_REPRESENTATION_CONTEXT(2) 
PARAMETRIC_REPRESENTATION_CONTEXT() REPRESENTATION_CONTEXT('2D SPACE',''
  ) );
#1412 = ORIENTED_EDGE('',*,*,#1122,.F.);
#1413 = ORIENTED_EDGE('',*,*,#1391,.T.);
#1414 = ORIENTED_EDGE('',*,*,#1415,.T.);
#1415 = EDGE_CURVE('',#1392,#1392,#1416,.T.);
#1416 = SURFACE_CURVE('',#1417,(#1422,#1429),.PCURVE_S1.);
#1417 = CIRCLE('',#1418,0.998486706153);
#1418 = AXIS2_PLACEMENT_3D('',#1419,#1420,#1421);
#1419 = CARTESIAN_POINT('',(1.084334487837E-03,3.451444598363E-04,
    -2.423521883988));
#1420 = DIRECTION('',(1.331589682094E-05,-2.647830713436E-04,
    -0.999999964856));
#1421 = DIRECTION('',(1.222437114025E-16,-0.999999964945,
    2.647830713671E-04));
#1422 = PCURVE('',#1143,#1423);
#1423 = DEFINITIONAL_REPRESENTATION('',(#1424),#1428);
#1424 = LINE('',#1425,#1426);
#1425 = CARTESIAN_POINT('',(-0.,2.094398303635));
#1426 = VECTOR('',#1427,1.);
#1427 = DIRECTION('',(-1.,0.));
#1428 = ( GEOMETRIC_REPRESENTATION_CONTEXT(2) 
PARAMETRIC_REPRESENTATION_CONTEXT() REPRESENTATION_CONTEXT('2D SPACE',''
  ) );
#1429 = PCURVE('',#1430,#1435);
#1430 = CONICAL_SURFACE('',#1431,1.732042545118,1.047194349954);
#1431 = AXIS2_PLACEMENT_3D('',#1432,#1433,#1434);
#1432 = CARTESIAN_POINT('',(1.078694915351E-03,4.57285860743E-04,
    -2.000000106721));
#1433 = DIRECTION('',(-1.331589682094E-05,2.647830713436E-04,
    0.999999964856));
#1434 = DIRECTION('',(0.,-0.999999964945,2.647830713671E-04));
#1435 = DEFINITIONAL_REPRESENTATION('',(#1436),#1440);
#1436 = LINE('',#1437,#1438);
#1437 = CARTESIAN_POINT('',(-0.,-0.423521792151));
#1438 = VECTOR('',#1439,1.);
#1439 = DIRECTION('',(-1.,-0.));
#1440 = ( GEOMETRIC_REPRESENTATION_CONTEXT(2) 
PARAMETRIC_REPRESENTATION_CONTEXT() REPRESENTATION_CONTEXT('2D SPACE',''
  ) );
#1441 = ADVANCED_FACE('',(#1442),#1376,.T.);
#1442 = FACE_BOUND('',#1443,.T.);
#1443 = EDGE_LOOP('',(#1444,#1445,#1468,#1495));
#1444 = ORIENTED_EDGE('',*,*,#1355,.F.);
#1445 = ORIENTED_EDGE('',*,*,#1446,.F.);
#1446 = EDGE_CURVE('',#1447,#1356,#1449,.T.);
#1447 = VERTEX_POINT('',#1448);
#1448 = CARTESIAN_POINT('',(1.16730182299E-03,2.006046465318,
    -8.654751437611));
#1449 = SEAM_CURVE('',#1450,(#1454,#1461),.PCURVE_S1.);
#1450 = LINE('',#1451,#1452);
#1451 = CARTESIAN_POINT('',(1.16730182299E-03,2.006046465318,
    -8.654751437611));
#1452 = VECTOR('',#1453,1.);
#1453 = DIRECTION('',(-1.331589682094E-05,2.647830713436E-04,
    0.999999964856));
#1454 = PCURVE('',#1376,#1455);
#1455 = DEFINITIONAL_REPRESENTATION('',(#1456),#1460);
#1456 = LINE('',#1457,#1458);
#1457 = CARTESIAN_POINT('',(6.28318530718,-0.));
#1458 = VECTOR('',#1459,1.);
#1459 = DIRECTION('',(0.,1.));
#1460 = ( GEOMETRIC_REPRESENTATION_CONTEXT(2) 
PARAMETRIC_REPRESENTATION_CONTEXT() REPRESENTATION_CONTEXT('2D SPACE',''
  ) );
#1461 = PCURVE('',#1376,#1462);
#1462 = DEFINITIONAL_REPRESENTATION('',(#1463),#1467);
#1463 = LINE('',#1464,#1465);
#1464 = CARTESIAN_POINT('',(0.,-0.));
#1465 = VECTOR('',#1466,1.);
#1466 = DIRECTION('',(0.,1.));
#1467 = ( GEOMETRIC_REPRESENTATION_CONTEXT(2) 
PARAMETRIC_REPRESENTATION_CONTEXT() REPRESENTATION_CONTEXT('2D SPACE',''
  ) );
#1468 = ORIENTED_EDGE('',*,*,#1469,.T.);
#1469 = EDGE_CURVE('',#1447,#1447,#1470,.T.);
#1470 = SURFACE_CURVE('',#1471,(#1476,#1483),.PCURVE_S1.);
#1471 = CIRCLE('',#1472,2.007351174648);
#1472 = AXIS2_PLACEMENT_3D('',#1473,#1474,#1475);
#1473 = CARTESIAN_POINT('',(1.16730182299E-03,-1.304638962057E-03,
    -8.654219925002));
#1474 = DIRECTION('',(-1.331589682094E-05,2.647830713436E-04,
    0.999999964856));
#1475 = DIRECTION('',(-8.27180612553E-25,0.999999964945,
    -2.647830713671E-04));
#1476 = PCURVE('',#1376,#1477);
#1477 = DEFINITIONAL_REPRESENTATION('',(#1478),#1482);
#1478 = LINE('',#1479,#1480);
#1479 = CARTESIAN_POINT('',(0.,0.));
#1480 = VECTOR('',#1481,1.);
#1481 = DIRECTION('',(1.,0.));
#1482 = ( GEOMETRIC_REPRESENTATION_CONTEXT(2) 
PARAMETRIC_REPRESENTATION_CONTEXT() REPRESENTATION_CONTEXT('2D SPACE',''
  ) );
#1483 = PCURVE('',#1484,#1489);
#1484 = PLANE('',#1485);
#1485 = AXIS2_PLACEMENT_3D('',#1486,#1487,#1488);
#1486 = CARTESIAN_POINT('',(1.16730182299E-03,-1.304638962057E-03,
    -8.654219925002));
#1487 = DIRECTION('',(-1.331589682094E-05,2.647830713436E-04,
    0.999999964856));
#1488 = DIRECTION('',(0.,0.999999964945,-2.647830713671E-04));
#1489 = DEFINITIONAL_REPRESENTATION('',(#1490),#1494);
#1490 = CIRCLE('',#1491,2.007351174648);
#1491 = AXIS2_PLACEMENT_2D('',#1492,#1493);
#1492 = CARTESIAN_POINT('',(0.,0.));
#1493 = DIRECTION('',(1.,0.));
#1494 = ( GEOMETRIC_REPRESENTATION_CONTEXT(2) 
PARAMETRIC_REPRESENTATION_CONTEXT() REPRESENTATION_CONTEXT('2D SPACE',''
  ) );
#1495 = ORIENTED_EDGE('',*,*,#1446,.T.);
#1496 = ADVANCED_FACE('',(#1497),#1430,.F.);
#1497 = FACE_BOUND('',#1498,.F.);
#1498 = EDGE_LOOP('',(#1499,#1522,#1549,#1550));
#1499 = ORIENTED_EDGE('',*,*,#1500,.T.);
#1500 = EDGE_CURVE('',#1392,#1501,#1503,.T.);
#1501 = VERTEX_POINT('',#1502);
#1502 = CARTESIAN_POINT('',(1.09059004493E-03,-0.184587170396,
    -2.893254066245));
#1503 = SEAM_CURVE('',#1504,(#1508,#1515),.PCURVE_S1.);
#1504 = LINE('',#1505,#1506);
#1505 = CARTESIAN_POINT('',(1.078694915352E-03,-1.731585198541,
    -1.999541491176));
#1506 = VECTOR('',#1507,1.);
#1507 = DIRECTION('',(6.657985326646E-06,0.865891380531,-0.500232063225)
  );
#1508 = PCURVE('',#1430,#1509);
#1509 = DEFINITIONAL_REPRESENTATION('',(#1510),#1514);
#1510 = LINE('',#1511,#1512);
#1511 = CARTESIAN_POINT('',(-6.28318530718,0.));
#1512 = VECTOR('',#1513,1.);
#1513 = DIRECTION('',(-0.,-1.));
#1514 = ( GEOMETRIC_REPRESENTATION_CONTEXT(2) 
PARAMETRIC_REPRESENTATION_CONTEXT() REPRESENTATION_CONTEXT('2D SPACE',''
  ) );
#1515 = PCURVE('',#1430,#1516);
#1516 = DEFINITIONAL_REPRESENTATION('',(#1517),#1521);
#1517 = LINE('',#1518,#1519);
#1518 = CARTESIAN_POINT('',(0.,-0.));
#1519 = VECTOR('',#1520,1.);
#1520 = DIRECTION('',(-0.,-1.));
#1521 = ( GEOMETRIC_REPRESENTATION_CONTEXT(2) 
PARAMETRIC_REPRESENTATION_CONTEXT() REPRESENTATION_CONTEXT('2D SPACE',''
  ) );
#1522 = ORIENTED_EDGE('',*,*,#1523,.F.);
#1523 = EDGE_CURVE('',#1501,#1501,#1524,.T.);
#1524 = SURFACE_CURVE('',#1525,(#1530,#1537),.PCURVE_S1.);
#1525 = CIRCLE('',#1526,0.184807931243);
#1526 = AXIS2_PLACEMENT_3D('',#1527,#1528,#1529);
#1527 = CARTESIAN_POINT('',(1.09059004493E-03,2.2075436864E-04,
    -2.893303000256));
#1528 = DIRECTION('',(1.331589682094E-05,-2.647830713436E-04,
    -0.999999964856));
#1529 = DIRECTION('',(8.27180612553E-25,-0.999999964945,
    2.647830713671E-04));
#1530 = PCURVE('',#1430,#1531);
#1531 = DEFINITIONAL_REPRESENTATION('',(#1532),#1536);
#1532 = LINE('',#1533,#1534);
#1533 = CARTESIAN_POINT('',(-0.,-0.893302924929));
#1534 = VECTOR('',#1535,1.);
#1535 = DIRECTION('',(-1.,-0.));
#1536 = ( GEOMETRIC_REPRESENTATION_CONTEXT(2) 
PARAMETRIC_REPRESENTATION_CONTEXT() REPRESENTATION_CONTEXT('2D SPACE',''
  ) );
#1537 = PCURVE('',#1538,#1543);
#1538 = PLANE('',#1539);
#1539 = AXIS2_PLACEMENT_3D('',#1540,#1541,#1542);
#1540 = CARTESIAN_POINT('',(1.09059004493E-03,2.2075436864E-04,
    -2.893303000256));
#1541 = DIRECTION('',(1.331589682094E-05,-2.647830713436E-04,
    -0.999999964856));
#1542 = DIRECTION('',(0.,-0.999999964945,2.647830713671E-04));
#1543 = DEFINITIONAL_REPRESENTATION('',(#1544),#1548);
#1544 = CIRCLE('',#1545,0.184807931243);
#1545 = AXIS2_PLACEMENT_2D('',#1546,#1547);
#1546 = CARTESIAN_POINT('',(0.,0.));
#1547 = DIRECTION('',(1.,0.));
#1548 = ( GEOMETRIC_REPRESENTATION_CONTEXT(2) 
PARAMETRIC_REPRESENTATION_CONTEXT() REPRESENTATION_CONTEXT('2D SPACE',''
  ) );
#1549 = ORIENTED_EDGE('',*,*,#1500,.F.);
#1550 = ORIENTED_EDGE('',*,*,#1415,.T.);
#1551 = ADVANCED_FACE('',(#1552,#1555),#1484,.F.);
#1552 = FACE_BOUND('',#1553,.F.);
#1553 = EDGE_LOOP('',(#1554));
#1554 = ORIENTED_EDGE('',*,*,#1469,.T.);
#1555 = FACE_BOUND('',#1556,.F.);
#1556 = EDGE_LOOP('',(#1557));
#1557 = ORIENTED_EDGE('',*,*,#1558,.T.);
#1558 = EDGE_CURVE('',#1559,#1559,#1561,.T.);
#1559 = VERTEX_POINT('',#1560);
#1560 = CARTESIAN_POINT('',(1.16730182299E-03,-1.996810518411,
    -8.653691548807));
#1561 = SURFACE_CURVE('',#1562,(#1567,#1578),.PCURVE_S1.);
#1562 = CIRCLE('',#1563,1.995505949401);
#1563 = AXIS2_PLACEMENT_3D('',#1564,#1565,#1566);
#1564 = CARTESIAN_POINT('',(1.16730182299E-03,-1.304638962057E-03,
    -8.654219925002));
#1565 = DIRECTION('',(1.331589682094E-05,-2.647830713436E-04,
    -0.999999964856));
#1566 = DIRECTION('',(8.27180612553E-25,-0.999999964945,
    2.647830713671E-04));
#1567 = PCURVE('',#1484,#1568);
#1568 = DEFINITIONAL_REPRESENTATION('',(#1569),#1577);
#1569 = ( BOUNDED_CURVE() B_SPLINE_CURVE(2,(#1570,#1571,#1572,#1573,
#1574,#1575,#1576),.UNSPECIFIED.,.T.,.F.) B_SPLINE_CURVE_WITH_KNOTS((1,2
    ,2,2,2,1),(-2.094395102393,0.,2.094395102393,4.188790204786,
6.28318530718,8.377580409573),.UNSPECIFIED.) CURVE() 
GEOMETRIC_REPRESENTATION_ITEM() RATIONAL_B_SPLINE_CURVE((1.,0.5,1.,0.5,
1.,0.5,1.)) REPRESENTATION_ITEM('') );
#1570 = CARTESIAN_POINT('',(-1.995505949401,-1.931874724156E-19));
#1571 = CARTESIAN_POINT('',(-1.995505949401,3.456317691169));
#1572 = CARTESIAN_POINT('',(0.997752974701,1.728158845585));
#1573 = CARTESIAN_POINT('',(3.991011898803,4.885648097263E-16));
#1574 = CARTESIAN_POINT('',(0.997752974701,-1.728158845585));
#1575 = CARTESIAN_POINT('',(-1.995505949401,-3.456317691169));
#1576 = CARTESIAN_POINT('',(-1.995505949401,-1.931874724156E-19));
#1577 = ( GEOMETRIC_REPRESENTATION_CONTEXT(2) 
PARAMETRIC_REPRESENTATION_CONTEXT() REPRESENTATION_CONTEXT('2D SPACE',''
  ) );
#1578 = PCURVE('',#1579,#1584);
#1579 = CONICAL_SURFACE('',#1580,2.000922015426,0.825327162666);
#1580 = AXIS2_PLACEMENT_3D('',#1581,#1582,#1583);
#1581 = CARTESIAN_POINT('',(1.167235244251E-03,-1.303315061528E-03,
    -8.649219981177));
#1582 = DIRECTION('',(-1.331589682094E-05,2.647830713436E-04,
    0.999999964856));
#1583 = DIRECTION('',(0.,-0.999999964945,2.647830713671E-04));
#1584 = DEFINITIONAL_REPRESENTATION('',(#1585),#1589);
#1585 = LINE('',#1586,#1587);
#1586 = CARTESIAN_POINT('',(-0.,-4.999944000001E-03));
#1587 = VECTOR('',#1588,1.);
#1588 = DIRECTION('',(-1.,-0.));
#1589 = ( GEOMETRIC_REPRESENTATION_CONTEXT(2) 
PARAMETRIC_REPRESENTATION_CONTEXT() REPRESENTATION_CONTEXT('2D SPACE',''
  ) );
#1590 = ADVANCED_FACE('',(#1591),#1538,.F.);
#1591 = FACE_BOUND('',#1592,.F.);
#1592 = EDGE_LOOP('',(#1593));
#1593 = ORIENTED_EDGE('',*,*,#1523,.T.);
#1594 = ADVANCED_FACE('',(#1595),#1579,.T.);
#1595 = FACE_BOUND('',#1596,.T.);
#1596 = EDGE_LOOP('',(#1597,#1620,#1647,#1648));
#1597 = ORIENTED_EDGE('',*,*,#1598,.T.);
#1598 = EDGE_CURVE('',#1559,#1599,#1601,.T.);
#1599 = VERTEX_POINT('',#1600);
#1600 = CARTESIAN_POINT('',(1.17190809811E-03,-1.622189556071,
    -8.999713765048));
#1601 = SEAM_CURVE('',#1602,(#1606,#1613),.PCURVE_S1.);
#1602 = LINE('',#1603,#1604);
#1603 = CARTESIAN_POINT('',(1.167235244252E-03,-2.002225260345,
    -8.648690170901));
#1604 = VECTOR('',#1605,1.);
#1605 = DIRECTION('',(9.032394026502E-06,0.734590108924,-0.678511143453)
  );
#1606 = PCURVE('',#1579,#1607);
#1607 = DEFINITIONAL_REPRESENTATION('',(#1608),#1612);
#1608 = LINE('',#1609,#1610);
#1609 = CARTESIAN_POINT('',(-6.28318530718,0.));
#1610 = VECTOR('',#1611,1.);
#1611 = DIRECTION('',(-0.,-1.));
#1612 = ( GEOMETRIC_REPRESENTATION_CONTEXT(2) 
PARAMETRIC_REPRESENTATION_CONTEXT() REPRESENTATION_CONTEXT('2D SPACE',''
  ) );
#1613 = PCURVE('',#1579,#1614);
#1614 = DEFINITIONAL_REPRESENTATION('',(#1615),#1619);
#1615 = LINE('',#1616,#1617);
#1616 = CARTESIAN_POINT('',(0.,-0.));
#1617 = VECTOR('',#1618,1.);
#1618 = DIRECTION('',(-0.,-1.));
#1619 = ( GEOMETRIC_REPRESENTATION_CONTEXT(2) 
PARAMETRIC_REPRESENTATION_CONTEXT() REPRESENTATION_CONTEXT('2D SPACE',''
  ) );
#1620 = ORIENTED_EDGE('',*,*,#1621,.F.);
#1621 = EDGE_CURVE('',#1599,#1599,#1622,.T.);
#1622 = SURFACE_CURVE('',#1623,(#1628,#1635),.PCURVE_S1.);
#1623 = CIRCLE('',#1624,1.620793379369);
#1624 = AXIS2_PLACEMENT_3D('',#1625,#1626,#1627);
#1625 = CARTESIAN_POINT('',(1.17190809811E-03,-1.396233519319E-03,
    -9.000142923697));
#1626 = DIRECTION('',(1.331589682094E-05,-2.647830713436E-04,
    -0.999999964856));
#1627 = DIRECTION('',(8.27180612553E-25,-0.999999964945,
    2.647830713671E-04));
#1628 = PCURVE('',#1579,#1629);
#1629 = DEFINITIONAL_REPRESENTATION('',(#1630),#1634);
#1630 = LINE('',#1631,#1632);
#1631 = CARTESIAN_POINT('',(-0.,-0.350922954853));
#1632 = VECTOR('',#1633,1.);
#1633 = DIRECTION('',(-1.,-0.));
#1634 = ( GEOMETRIC_REPRESENTATION_CONTEXT(2) 
PARAMETRIC_REPRESENTATION_CONTEXT() REPRESENTATION_CONTEXT('2D SPACE',''
  ) );
#1635 = PCURVE('',#1636,#1641);
#1636 = PLANE('',#1637);
#1637 = AXIS2_PLACEMENT_3D('',#1638,#1639,#1640);
#1638 = CARTESIAN_POINT('',(1.17190809811E-03,-1.396233519319E-03,
    -9.000142923697));
#1639 = DIRECTION('',(1.331589682094E-05,-2.647830713436E-04,
    -0.999999964856));
#1640 = DIRECTION('',(0.,-0.999999964945,2.647830713671E-04));
#1641 = DEFINITIONAL_REPRESENTATION('',(#1642),#1646);
#1642 = CIRCLE('',#1643,1.620793379369);
#1643 = AXIS2_PLACEMENT_2D('',#1644,#1645);
#1644 = CARTESIAN_POINT('',(0.,0.));
#1645 = DIRECTION('',(1.,0.));
#1646 = ( GEOMETRIC_REPRESENTATION_CONTEXT(2) 
PARAMETRIC_REPRESENTATION_CONTEXT() REPRESENTATION_CONTEXT('2D SPACE',''
  ) );
#1647 = ORIENTED_EDGE('',*,*,#1598,.F.);
#1648 = ORIENTED_EDGE('',*,*,#1558,.T.);
#1649 = ADVANCED_FACE('',(#1650),#1636,.T.);
#1650 = FACE_BOUND('',#1651,.T.);
#1651 = EDGE_LOOP('',(#1652));
#1652 = ORIENTED_EDGE('',*,*,#1621,.T.);
#1653 = ( GEOMETRIC_REPRESENTATION_CONTEXT(3) 
GLOBAL_UNCERTAINTY_ASSIGNED_CONTEXT((#1657)) 
GLOBAL_UNIT_ASSIGNED_CONTEXT((#1654,#1655,#1656)) REPRESENTATION_CONTEXT
('Context #1','3D Context with UNIT and UNCERTAINTY') );
#1654 = ( LENGTH_UNIT() NAMED_UNIT(*) SI_UNIT(.MILLI.,.METRE.) );
#1655 = ( NAMED_UNIT(*) PLANE_ANGLE_UNIT() SI_UNIT($,.RADIAN.) );
#1656 = ( NAMED_UNIT(*) SI_UNIT($,.STERADIAN.) SOLID_ANGLE_UNIT() );
#1657 = UNCERTAINTY_MEASURE_WITH_UNIT(LENGTH_MEASURE(1.E-07),#1654,
  'distance_accuracy_value','confusion accuracy');
#1658 = PRODUCT_TYPE('part',$,(#7));
ENDSEC;
END-ISO-10303-21;
