ISO-10303-21;
HEADER;
FILE_DESCRIPTION(('Open CASCADE Model'),'2;1');
FILE_NAME('Open CASCADE Shape Model','2026-09-07T09:11:29',('Author'),(
    'Open CASCADE'),'Open CASCADE STEP processor 7.8','Open CASCADE 7.8'
  ,'Unknown');
FILE_SCHEMA(('AUTOMOTIVE_DESIGN { 1 0 10303 214 1 1 1 1 }'));
ENDSEC;
DATA;
#1 = APPLICATION_PROTOCOL_DEFINITION('committee draft',
  'automotive_design',1997,#2);
#2 = APPLICATION_CONTEXT(
  'core data for automotive mechanical design processes');
#3 = SHAPE_DEFINITION_REPRESENTATION(#4,#10);
#4 = PRODUCT_DEFINITION_SHAPE('','',#5);
#5 = PRODUCT_DEFINITION('design','',#6,#9);
#6 = PRODUCT_DEFINITION_FORMATION('','',#7);
#7 = PRODUCT('Product 1','Product 1','',(#8));
#8 = MECHANICAL_CONTEXT('',#2,'mechanical');
#9 = PRODUCT_DEFINITION_CONTEXT('part definition',#2,'design');
#10 = ADVANCED_BREP_SHAPE_REPRESENTATION('',(#11,#15),#861);
#11 = AXIS2_PLACEMENT_3D('',#12,#13,#14);
#12 = CARTESIAN_POINT('',(0.,0.,0.));
#13 = DIRECTION('',(0.,0.,1.));
#14 = DIRECTION('',(1.,0.,-0.));
#15 = MANIFOLD_SOLID_BREP('',#16);
#16 = CLOSED_SHELL('',(#17,#105,#144,#183,#340,#492,#598,#796,#825,#854)
  );
#17 = ADVANCED_FACE('',(#18),#31,.T.);
#18 = FACE_BOUND('',#19,.T.);
#19 = EDGE_LOOP('',(#20,#54,#77,#104));
#20 = ORIENTED_EDGE('',*,*,#21,.F.);
#21 = EDGE_CURVE('',#22,#22,#24,.T.);
#22 = VERTEX_POINT('',#23);
#23 = CARTESIAN_POINT('',(8.016652022515,-5.227646490727E-02,
    30.896881269938));
#24 = SURFACE_CURVE('',#25,(#30,#42),.PCURVE_S1.);
#25 = CIRCLE('',#26,30.902711851616);
#26 = AXIS2_PLACEMENT_3D('',#27,#28,#29);
#27 = CARTESIAN_POINT('',(8.028696563677,-5.227646490728E-02,
    -5.828234457244E-03));
#28 = DIRECTION('',(0.999999917778,-1.119545922953E-04,
    3.897567677814E-04));
#29 = DIRECTION('',(-3.89756770224E-04,1.323488980085E-23,0.999999924045
    ));
#30 = PCURVE('',#31,#36);
#31 = CYLINDRICAL_SURFACE('',#32,30.902711851616);
#32 = AXIS2_PLACEMENT_3D('',#33,#34,#35);
#33 = CARTESIAN_POINT('',(-8.028516462238,-5.047878602176E-02,
    -1.208664242038E-02));
#34 = DIRECTION('',(0.999999917778,-1.119545922953E-04,
    3.897567677814E-04));
#35 = DIRECTION('',(-3.89756770224E-04,6.617444900424E-24,0.999999924045
    ));
#36 = DEFINITIONAL_REPRESENTATION('',(#37),#41);
#37 = LINE('',#38,#39);
#38 = CARTESIAN_POINT('',(0.,16.057214346173));
#39 = VECTOR('',#40,1.);
#40 = DIRECTION('',(1.,0.));
#41 = ( GEOMETRIC_REPRESENTATION_CONTEXT(2) 
PARAMETRIC_REPRESENTATION_CONTEXT() REPRESENTATION_CONTEXT('2D SPACE',''
  ) );
#42 = PCURVE('',#43,#48);
#43 = PLANE('',#44);
#44 = AXIS2_PLACEMENT_3D('',#45,#46,#47);
#45 = CARTESIAN_POINT('',(8.028696563677,-5.227646490728E-02,
    -5.828234457244E-03));
#46 = DIRECTION('',(0.999999917778,-1.119545922953E-04,
    3.897567677814E-04));
#47 = DIRECTION('',(-3.89756770224E-04,6.617444900424E-24,0.999999924045
    ));
#48 = DEFINITIONAL_REPRESENTATION('',(#49),#53);
#49 = CIRCLE('',#50,30.902711851616);
#50 = AXIS2_PLACEMENT_2D('',#51,#52);
#51 = CARTESIAN_POINT('',(0.,0.));
#52 = DIRECTION('',(1.,0.));
#53 = ( GEOMETRIC_REPRESENTATION_CONTEXT(2) 
PARAMETRIC_REPRESENTATION_CONTEXT() REPRESENTATION_CONTEXT('2D SPACE',''
  ) );
#54 = ORIENTED_EDGE('',*,*,#55,.F.);
#55 = EDGE_CURVE('',#56,#22,#58,.T.);
#56 = VERTEX_POINT('',#57);
#57 = CARTESIAN_POINT('',(-8.0405610034,-5.047878602175E-02,
    30.890622861975));
#58 = SEAM_CURVE('',#59,(#63,#70),.PCURVE_S1.);
#59 = LINE('',#60,#61);
#60 = CARTESIAN_POINT('',(-8.0405610034,-5.047878602175E-02,
    30.890622861975));
#61 = VECTOR('',#62,1.);
#62 = DIRECTION('',(0.999999917778,-1.119545922953E-04,
    3.897567677814E-04));
#63 = PCURVE('',#31,#64);
#64 = DEFINITIONAL_REPRESENTATION('',(#65),#69);
#65 = LINE('',#66,#67);
#66 = CARTESIAN_POINT('',(6.28318530718,-0.));
#67 = VECTOR('',#68,1.);
#68 = DIRECTION('',(0.,1.));
#69 = ( GEOMETRIC_REPRESENTATION_CONTEXT(2) 
PARAMETRIC_REPRESENTATION_CONTEXT() REPRESENTATION_CONTEXT('2D SPACE',''
  ) );
#70 = PCURVE('',#31,#71);
#71 = DEFINITIONAL_REPRESENTATION('',(#72),#76);
#72 = LINE('',#73,#74);
#73 = CARTESIAN_POINT('',(0.,-0.));
#74 = VECTOR('',#75,1.);
#75 = DIRECTION('',(0.,1.));
#76 = ( GEOMETRIC_REPRESENTATION_CONTEXT(2) 
PARAMETRIC_REPRESENTATION_CONTEXT() REPRESENTATION_CONTEXT('2D SPACE',''
  ) );
#77 = ORIENTED_EDGE('',*,*,#78,.T.);
#78 = EDGE_CURVE('',#56,#56,#79,.T.);
#79 = SURFACE_CURVE('',#80,(#85,#92),.PCURVE_S1.);
#80 = CIRCLE('',#81,30.902711851616);
#81 = AXIS2_PLACEMENT_3D('',#82,#83,#84);
#82 = CARTESIAN_POINT('',(-8.028516462238,-5.047878602176E-02,
    -1.208664242038E-02));
#83 = DIRECTION('',(0.999999917778,-1.119545922953E-04,
    3.897567677814E-04));
#84 = DIRECTION('',(-3.89756770224E-04,1.323488980085E-23,0.999999924045
    ));
#85 = PCURVE('',#31,#86);
#86 = DEFINITIONAL_REPRESENTATION('',(#87),#91);
#87 = LINE('',#88,#89);
#88 = CARTESIAN_POINT('',(0.,0.));
#89 = VECTOR('',#90,1.);
#90 = DIRECTION('',(1.,0.));
#91 = ( GEOMETRIC_REPRESENTATION_CONTEXT(2) 
PARAMETRIC_REPRESENTATION_CONTEXT() REPRESENTATION_CONTEXT('2D SPACE',''
  ) );
#92 = PCURVE('',#93,#98);
#93 = PLANE('',#94);
#94 = AXIS2_PLACEMENT_3D('',#95,#96,#97);
#95 = CARTESIAN_POINT('',(-8.028516462238,-5.047878602176E-02,
    -1.208664242038E-02));
#96 = DIRECTION('',(0.999999917778,-1.119545922953E-04,
    3.897567677814E-04));
#97 = DIRECTION('',(-3.89756770224E-04,6.617444900424E-24,0.999999924045
    ));
#98 = DEFINITIONAL_REPRESENTATION('',(#99),#103);
#99 = CIRCLE('',#100,30.902711851616);
#100 = AXIS2_PLACEMENT_2D('',#101,#102);
#101 = CARTESIAN_POINT('',(0.,0.));
#102 = DIRECTION('',(1.,0.));
#103 = ( GEOMETRIC_REPRESENTATION_CONTEXT(2) 
PARAMETRIC_REPRESENTATION_CONTEXT() REPRESENTATION_CONTEXT('2D SPACE',''
  ) );
#104 = ORIENTED_EDGE('',*,*,#55,.T.);
#105 = ADVANCED_FACE('',(#106,#109),#43,.T.);
#106 = FACE_BOUND('',#107,.T.);
#107 = EDGE_LOOP('',(#108));
#108 = ORIENTED_EDGE('',*,*,#21,.T.);
#109 = FACE_BOUND('',#110,.T.);
#110 = EDGE_LOOP('',(#111));
#111 = ORIENTED_EDGE('',*,*,#112,.T.);
#112 = EDGE_CURVE('',#113,#113,#115,.T.);
#113 = VERTEX_POINT('',#114);
#114 = CARTESIAN_POINT('',(8.038704352599,-5.227646490728E-02,
    -25.68283740233));
#115 = SURFACE_CURVE('',#116,(#121,#132),.PCURVE_S1.);
#116 = CIRCLE('',#117,25.677011118177);
#117 = AXIS2_PLACEMENT_3D('',#118,#119,#120);
#118 = CARTESIAN_POINT('',(8.028696563677,-5.227646490728E-02,
    -5.828234457244E-03));
#119 = DIRECTION('',(-0.999999917778,1.119545922953E-04,
    -3.897567677814E-04));
#120 = DIRECTION('',(3.89756770224E-04,-1.323488980085E-23,
    -0.999999924045));
#121 = PCURVE('',#43,#122);
#122 = DEFINITIONAL_REPRESENTATION('',(#123),#131);
#123 = ( BOUNDED_CURVE() B_SPLINE_CURVE(2,(#124,#125,#126,#127,#128,#129
,#130),.UNSPECIFIED.,.T.,.F.) B_SPLINE_CURVE_WITH_KNOTS((1,2,2,2,2,1),(
    -2.094395102393,0.,2.094395102393,4.188790204786,6.28318530718,
8.377580409573),.UNSPECIFIED.) CURVE() GEOMETRIC_REPRESENTATION_ITEM() 
RATIONAL_B_SPLINE_CURVE((1.,0.5,1.,0.5,1.,0.5,1.)) REPRESENTATION_ITEM(
  '') );
#124 = CARTESIAN_POINT('',(-25.67701111817,6.939063700933E-18));
#125 = CARTESIAN_POINT('',(-25.67701111817,44.473887843194));
#126 = CARTESIAN_POINT('',(12.838505559089,22.236943921597));
#127 = CARTESIAN_POINT('',(51.354022236355,6.295992449462E-15));
#128 = CARTESIAN_POINT('',(12.838505559089,-22.23694392159));
#129 = CARTESIAN_POINT('',(-25.67701111817,-44.47388784319));
#130 = CARTESIAN_POINT('',(-25.67701111817,6.939063700933E-18));
#131 = ( GEOMETRIC_REPRESENTATION_CONTEXT(2) 
PARAMETRIC_REPRESENTATION_CONTEXT() REPRESENTATION_CONTEXT('2D SPACE',''
  ) );
#132 = PCURVE('',#133,#138);
#133 = CYLINDRICAL_SURFACE('',#134,25.677011118177);
#134 = AXIS2_PLACEMENT_3D('',#135,#136,#137);
#135 = CARTESIAN_POINT('',(9.032618381261,-5.238885857431E-02,
    -5.436949102345E-03));
#136 = DIRECTION('',(-0.999999917778,1.119545922953E-04,
    -3.897567677814E-04));
#137 = DIRECTION('',(3.89756770224E-04,-6.617444900424E-24,
    -0.999999924045));
#138 = DEFINITIONAL_REPRESENTATION('',(#139),#143);
#139 = LINE('',#140,#141);
#140 = CARTESIAN_POINT('',(6.617444900424E-24,1.003921900128));
#141 = VECTOR('',#142,1.);
#142 = DIRECTION('',(1.,0.));
#143 = ( GEOMETRIC_REPRESENTATION_CONTEXT(2) 
PARAMETRIC_REPRESENTATION_CONTEXT() REPRESENTATION_CONTEXT('2D SPACE',''
  ) );
#144 = ADVANCED_FACE('',(#145,#148),#93,.F.);
#145 = FACE_BOUND('',#146,.F.);
#146 = EDGE_LOOP('',(#147));
#147 = ORIENTED_EDGE('',*,*,#78,.T.);
#148 = FACE_BOUND('',#149,.F.);
#149 = EDGE_LOOP('',(#150));
#150 = ORIENTED_EDGE('',*,*,#151,.T.);
#151 = EDGE_CURVE('',#152,#152,#154,.T.);
#152 = VERTEX_POINT('',#153);
#153 = CARTESIAN_POINT('',(-8.018508673316,-5.047878602175E-02,
    -25.68909581029));
#154 = SURFACE_CURVE('',#155,(#160,#171),.PCURVE_S1.);
#155 = CIRCLE('',#156,25.677011118177);
#156 = AXIS2_PLACEMENT_3D('',#157,#158,#159);
#157 = CARTESIAN_POINT('',(-8.028516462238,-5.047878602176E-02,
    -1.208664242038E-02));
#158 = DIRECTION('',(-0.999999917778,1.119545922953E-04,
    -3.897567677814E-04));
#159 = DIRECTION('',(3.89756770224E-04,-1.323488980085E-23,
    -0.999999924045));
#160 = PCURVE('',#93,#161);
#161 = DEFINITIONAL_REPRESENTATION('',(#162),#170);
#162 = ( BOUNDED_CURVE() B_SPLINE_CURVE(2,(#163,#164,#165,#166,#167,#168
,#169),.UNSPECIFIED.,.T.,.F.) B_SPLINE_CURVE_WITH_KNOTS((1,2,2,2,2,1),(
    -2.094395102393,0.,2.094395102393,4.188790204786,6.28318530718,
8.377580409573),.UNSPECIFIED.) CURVE() GEOMETRIC_REPRESENTATION_ITEM() 
RATIONAL_B_SPLINE_CURVE((1.,0.5,1.,0.5,1.,0.5,1.)) REPRESENTATION_ITEM(
  '') );
#163 = CARTESIAN_POINT('',(-25.67701111817,6.541321043997E-18));
#164 = CARTESIAN_POINT('',(-25.67701111817,44.473887843194));
#165 = CARTESIAN_POINT('',(12.838505559089,22.236943921597));
#166 = CARTESIAN_POINT('',(51.354022236355,6.295594706805E-15));
#167 = CARTESIAN_POINT('',(12.838505559089,-22.23694392159));
#168 = CARTESIAN_POINT('',(-25.67701111817,-44.47388784319));
#169 = CARTESIAN_POINT('',(-25.67701111817,6.541321043997E-18));
#170 = ( GEOMETRIC_REPRESENTATION_CONTEXT(2) 
PARAMETRIC_REPRESENTATION_CONTEXT() REPRESENTATION_CONTEXT('2D SPACE',''
  ) );
#171 = PCURVE('',#172,#177);
#172 = CYLINDRICAL_SURFACE('',#173,25.677011118177);
#173 = AXIS2_PLACEMENT_3D('',#174,#175,#176);
#174 = CARTESIAN_POINT('',(9.032618381261,-5.238885857431E-02,
    -5.436949102345E-03));
#175 = DIRECTION('',(-0.999999917778,1.119545922953E-04,
    -3.897567677814E-04));
#176 = DIRECTION('',(3.89756770224E-04,-6.617444900424E-24,
    -0.999999924045));
#177 = DEFINITIONAL_REPRESENTATION('',(#178),#182);
#178 = LINE('',#179,#180);
#179 = CARTESIAN_POINT('',(6.617444900424E-24,17.061136246301));
#180 = VECTOR('',#181,1.);
#181 = DIRECTION('',(1.,0.));
#182 = ( GEOMETRIC_REPRESENTATION_CONTEXT(2) 
PARAMETRIC_REPRESENTATION_CONTEXT() REPRESENTATION_CONTEXT('2D SPACE',''
  ) );
#183 = ADVANCED_FACE('',(#184),#133,.F.);
#184 = FACE_BOUND('',#185,.F.);
#185 = EDGE_LOOP('',(#186,#217,#246,#267,#268,#269,#293));
#186 = ORIENTED_EDGE('',*,*,#187,.T.);
#187 = EDGE_CURVE('',#188,#190,#192,.T.);
#188 = VERTEX_POINT('',#189);
#189 = CARTESIAN_POINT('',(2.961305047428,25.617751701625,0.614841574797
    ));
#190 = VERTEX_POINT('',#191);
#191 = CARTESIAN_POINT('',(2.948666124746,-5.17088525419E-02,
    25.669204857615));
#192 = SURFACE_CURVE('',#193,(#198,#205),.PCURVE_S1.);
#193 = CIRCLE('',#194,25.677011118177);
#194 = AXIS2_PLACEMENT_3D('',#195,#196,#197);
#195 = CARTESIAN_POINT('',(2.958673913669,-5.17088525419E-02,
    -7.804310260367E-03));
#196 = DIRECTION('',(0.999999917778,-1.119545922953E-04,
    3.897567677814E-04));
#197 = DIRECTION('',(-3.89756770224E-04,6.617444900424E-24,
    0.999999924045));
#198 = PCURVE('',#133,#199);
#199 = DEFINITIONAL_REPRESENTATION('',(#200),#204);
#200 = LINE('',#201,#202);
#201 = CARTESIAN_POINT('',(9.424777960769,6.073944967004));
#202 = VECTOR('',#203,1.);
#203 = DIRECTION('',(-1.,0.));
#204 = ( GEOMETRIC_REPRESENTATION_CONTEXT(2) 
PARAMETRIC_REPRESENTATION_CONTEXT() REPRESENTATION_CONTEXT('2D SPACE',''
  ) );
#205 = PCURVE('',#206,#211);
#206 = TOROIDAL_SURFACE('',#207,22.999950956121,3.990039699086);
#207 = AXIS2_PLACEMENT_3D('',#208,#209,#210);
#208 = CARTESIAN_POINT('',(-2.183761802499E-06,-5.137761513845E-02,
    -8.957474387829E-03));
#209 = DIRECTION('',(0.999999917778,-1.119545922953E-04,
    3.897567677814E-04));
#210 = DIRECTION('',(-3.89756770224E-04,6.617444900424E-24,
    0.999999924045));
#211 = DEFINITIONAL_REPRESENTATION('',(#212),#216);
#212 = LINE('',#213,#214);
#213 = CARTESIAN_POINT('',(0.,0.835326355223));
#214 = VECTOR('',#215,1.);
#215 = DIRECTION('',(1.,0.));
#216 = ( GEOMETRIC_REPRESENTATION_CONTEXT(2) 
PARAMETRIC_REPRESENTATION_CONTEXT() REPRESENTATION_CONTEXT('2D SPACE',''
  ) );
#217 = ORIENTED_EDGE('',*,*,#218,.T.);
#218 = EDGE_CURVE('',#190,#219,#221,.T.);
#219 = VERTEX_POINT('',#220);
#220 = CARTESIAN_POINT('',(2.968681702591,-5.17088525419E-02,
    -25.68481347813));
#221 = SURFACE_CURVE('',#222,(#227,#234),.PCURVE_S1.);
#222 = CIRCLE('',#223,25.677011118177);
#223 = AXIS2_PLACEMENT_3D('',#224,#225,#226);
#224 = CARTESIAN_POINT('',(2.958673913669,-5.17088525419E-02,
    -7.804310260367E-03));
#225 = DIRECTION('',(0.999999917778,-1.119545922953E-04,
    3.897567677814E-04));
#226 = DIRECTION('',(-3.89756770224E-04,6.617444900424E-24,
    0.999999924045));
#227 = PCURVE('',#133,#228);
#228 = DEFINITIONAL_REPRESENTATION('',(#229),#233);
#229 = LINE('',#230,#231);
#230 = CARTESIAN_POINT('',(3.14159265359,6.073944967004));
#231 = VECTOR('',#232,1.);
#232 = DIRECTION('',(-1.,0.));
#233 = ( GEOMETRIC_REPRESENTATION_CONTEXT(2) 
PARAMETRIC_REPRESENTATION_CONTEXT() REPRESENTATION_CONTEXT('2D SPACE',''
  ) );
#234 = PCURVE('',#235,#240);
#235 = TOROIDAL_SURFACE('',#236,22.999950956121,3.990039699086);
#236 = AXIS2_PLACEMENT_3D('',#237,#238,#239);
#237 = CARTESIAN_POINT('',(-2.183761802499E-06,-5.137761513845E-02,
    -8.957474387829E-03));
#238 = DIRECTION('',(0.999999917778,-1.119545922953E-04,
    3.897567677814E-04));
#239 = DIRECTION('',(-3.89756770224E-04,6.617444900424E-24,
    0.999999924045));
#240 = DEFINITIONAL_REPRESENTATION('',(#241),#245);
#241 = LINE('',#242,#243);
#242 = CARTESIAN_POINT('',(0.,0.835326355223));
#243 = VECTOR('',#244,1.);
#244 = DIRECTION('',(1.,0.));
#245 = ( GEOMETRIC_REPRESENTATION_CONTEXT(2) 
PARAMETRIC_REPRESENTATION_CONTEXT() REPRESENTATION_CONTEXT('2D SPACE',''
  ) );
#246 = ORIENTED_EDGE('',*,*,#247,.F.);
#247 = EDGE_CURVE('',#113,#219,#248,.T.);
#248 = SEAM_CURVE('',#249,(#253,#260),.PCURVE_S1.);
#249 = LINE('',#250,#251);
#250 = CARTESIAN_POINT('',(9.042626170183,-5.23888585743E-02,
    -25.68244611697));
#251 = VECTOR('',#252,1.);
#252 = DIRECTION('',(-0.999999917778,1.119545922953E-04,
    -3.897567677814E-04));
#253 = PCURVE('',#133,#254);
#254 = DEFINITIONAL_REPRESENTATION('',(#255),#259);
#255 = LINE('',#256,#257);
#256 = CARTESIAN_POINT('',(6.28318530718,-0.));
#257 = VECTOR('',#258,1.);
#258 = DIRECTION('',(0.,1.));
#259 = ( GEOMETRIC_REPRESENTATION_CONTEXT(2) 
PARAMETRIC_REPRESENTATION_CONTEXT() REPRESENTATION_CONTEXT('2D SPACE',''
  ) );
#260 = PCURVE('',#133,#261);
#261 = DEFINITIONAL_REPRESENTATION('',(#262),#266);
#262 = LINE('',#263,#264);
#263 = CARTESIAN_POINT('',(0.,-0.));
#264 = VECTOR('',#265,1.);
#265 = DIRECTION('',(0.,1.));
#266 = ( GEOMETRIC_REPRESENTATION_CONTEXT(2) 
PARAMETRIC_REPRESENTATION_CONTEXT() REPRESENTATION_CONTEXT('2D SPACE',''
  ) );
#267 = ORIENTED_EDGE('',*,*,#112,.T.);
#268 = ORIENTED_EDGE('',*,*,#247,.T.);
#269 = ORIENTED_EDGE('',*,*,#270,.T.);
#270 = EDGE_CURVE('',#219,#271,#273,.T.);
#271 = VERTEX_POINT('',#272);
#272 = CARTESIAN_POINT('',(2.961782685212,25.618227853167,-0.61049811595
    ));
#273 = SURFACE_CURVE('',#274,(#279,#286),.PCURVE_S1.);
#274 = CIRCLE('',#275,25.677011118177);
#275 = AXIS2_PLACEMENT_3D('',#276,#277,#278);
#276 = CARTESIAN_POINT('',(2.958673913669,-5.17088525419E-02,
    -7.804310260367E-03));
#277 = DIRECTION('',(0.999999917778,-1.119545922953E-04,
    3.897567677814E-04));
#278 = DIRECTION('',(-3.89756770224E-04,6.617444900424E-24,
    0.999999924045));
#279 = PCURVE('',#133,#280);
#280 = DEFINITIONAL_REPRESENTATION('',(#281),#285);
#281 = LINE('',#282,#283);
#282 = CARTESIAN_POINT('',(9.424777960769,6.073944967004));
#283 = VECTOR('',#284,1.);
#284 = DIRECTION('',(-1.,0.));
#285 = ( GEOMETRIC_REPRESENTATION_CONTEXT(2) 
PARAMETRIC_REPRESENTATION_CONTEXT() REPRESENTATION_CONTEXT('2D SPACE',''
  ) );
#286 = PCURVE('',#235,#287);
#287 = DEFINITIONAL_REPRESENTATION('',(#288),#292);
#288 = LINE('',#289,#290);
#289 = CARTESIAN_POINT('',(0.,0.835326355223));
#290 = VECTOR('',#291,1.);
#291 = DIRECTION('',(1.,0.));
#292 = ( GEOMETRIC_REPRESENTATION_CONTEXT(2) 
PARAMETRIC_REPRESENTATION_CONTEXT() REPRESENTATION_CONTEXT('2D SPACE',''
  ) );
#293 = ORIENTED_EDGE('',*,*,#294,.F.);
#294 = EDGE_CURVE('',#188,#271,#295,.T.);
#295 = SURFACE_CURVE('',#296,(#307,#321),.PCURVE_S1.);
#296 = B_SPLINE_CURVE_WITH_KNOTS('',5,(#297,#298,#299,#300,#301,#302,
    #303,#304,#305,#306),.UNSPECIFIED.,.F.,.F.,(6,4,6),(0.,
    0.500752646456,1.),.UNSPECIFIED.);
#297 = CARTESIAN_POINT('',(2.9593004596,25.617490888479,0.625510956877)
  );
#298 = CARTESIAN_POINT('',(2.982439475067,25.620500089953,0.503447765304
    ));
#299 = CARTESIAN_POINT('',(3.000084329546,25.622834236164,0.379339096449
    ));
#300 = CARTESIAN_POINT('',(3.011958091793,25.62442985906,0.253801675893)
  );
#301 = CARTESIAN_POINT('',(3.017901348792,25.625249801702,0.127519746912
    ));
#302 = CARTESIAN_POINT('',(3.017928447096,25.625338477769,
    -0.124645119867));
#303 = CARTESIAN_POINT('',(3.012047888579,25.624611872853,
    -0.250546008185));
#304 = CARTESIAN_POINT('',(3.000272793031,25.623113886544,
    -0.375707893276));
#305 = CARTESIAN_POINT('',(2.982760995404,25.620880901644,
    -0.499452732537));
#306 = CARTESIAN_POINT('',(2.959786415927,25.617975332679,-0.62116925704
    ));
#307 = PCURVE('',#133,#308);
#308 = DEFINITIONAL_REPRESENTATION('',(#309),#320);
#309 = B_SPLINE_CURVE_WITH_KNOTS('',5,(#310,#311,#312,#313,#314,#315,
    #316,#317,#318,#319),.UNSPECIFIED.,.F.,.F.,(6,4,6),(0.,
    0.500752646456,1.),.UNSPECIFIED.);
#310 = CARTESIAN_POINT('',(4.687721810132,6.075945367004));
#311 = CARTESIAN_POINT('',(4.692477400583,6.052854265289));
#312 = CARTESIAN_POINT('',(4.697311896352,6.035258045773));
#313 = CARTESIAN_POINT('',(4.702201444066,6.023433392198));
#314 = CARTESIAN_POINT('',(4.707119637704,6.017539446721));
#315 = CARTESIAN_POINT('',(4.716940285155,6.017610641311));
#316 = CARTESIAN_POINT('',(4.721843438365,6.023540188721));
#317 = CARTESIAN_POINT('',(4.726717957114,6.035363898286));
#318 = CARTESIAN_POINT('',(4.731537680353,6.052923674868));
#319 = CARTESIAN_POINT('',(4.736278975968,6.075945367004));
#320 = ( GEOMETRIC_REPRESENTATION_CONTEXT(2) 
PARAMETRIC_REPRESENTATION_CONTEXT() REPRESENTATION_CONTEXT('2D SPACE',''
  ) );
#321 = PCURVE('',#322,#327);
#322 = SPHERICAL_SURFACE('',#323,3.999999284115);
#323 = AXIS2_PLACEMENT_3D('',#324,#325,#326);
#324 = CARTESIAN_POINT('',(-1.454496388644E-15,22.999997601849,
    3.131515768261E-15));
#325 = DIRECTION('',(0.,0.,1.));
#326 = DIRECTION('',(1.,0.,-0.));
#327 = DEFINITIONAL_REPRESENTATION('',(#328),#339);
#328 = B_SPLINE_CURVE_WITH_KNOTS('',5,(#329,#330,#331,#332,#333,#334,
    #335,#336,#337,#338),.UNSPECIFIED.,.F.,.F.,(6,4,6),(0.,
    0.500752646456,1.),.UNSPECIFIED.);
#329 = CARTESIAN_POINT('',(0.724183755721,0.157022228361));
#330 = CARTESIAN_POINT('',(0.72087399988,0.126126322532));
#331 = CARTESIAN_POINT('',(0.718398100089,9.490157185995E-02));
#332 = CARTESIAN_POINT('',(0.716750933836,6.345080150325E-02));
#333 = CARTESIAN_POINT('',(0.715930386177,3.187994397404E-02));
#334 = CARTESIAN_POINT('',(0.715942665917,-3.116128706948E-02));
#335 = CARTESIAN_POINT('',(0.716770530724,-6.263611001422E-02));
#336 = CARTESIAN_POINT('',(0.718419921537,-9.399085639679E-02));
#337 = CARTESIAN_POINT('',(0.720892802304,-0.125120559425));
#338 = CARTESIAN_POINT('',(0.724194108934,-0.155923378602));
#339 = ( GEOMETRIC_REPRESENTATION_CONTEXT(2) 
PARAMETRIC_REPRESENTATION_CONTEXT() REPRESENTATION_CONTEXT('2D SPACE',''
  ) );
#340 = ADVANCED_FACE('',(#341),#172,.F.);
#341 = FACE_BOUND('',#342,.F.);
#342 = EDGE_LOOP('',(#343,#374,#395,#396,#397,#421,#450));
#343 = ORIENTED_EDGE('',*,*,#344,.F.);
#344 = EDGE_CURVE('',#345,#347,#349,.T.);
#345 = VERTEX_POINT('',#346);
#346 = CARTESIAN_POINT('',(-2.94867049227,-5.104637773498E-02,
    -25.68711980639));
#347 = VERTEX_POINT('',#348);
#348 = CARTESIAN_POINT('',(-2.955559021578,25.618239839165,
    -0.639900562294));
#349 = SURFACE_CURVE('',#350,(#355,#362),.PCURVE_S1.);
#350 = CIRCLE('',#351,25.677011118177);
#351 = AXIS2_PLACEMENT_3D('',#352,#353,#354);
#352 = CARTESIAN_POINT('',(-2.958678281192,-5.104637773499E-02,
    -1.011063851529E-02));
#353 = DIRECTION('',(0.999999917778,-1.119545922953E-04,
    3.897567677814E-04));
#354 = DIRECTION('',(-3.89756770224E-04,6.617444900424E-24,
    0.999999924045));
#355 = PCURVE('',#172,#356);
#356 = DEFINITIONAL_REPRESENTATION('',(#357),#361);
#357 = LINE('',#358,#359);
#358 = CARTESIAN_POINT('',(9.424777960769,11.991297648403));
#359 = VECTOR('',#360,1.);
#360 = DIRECTION('',(-1.,0.));
#361 = ( GEOMETRIC_REPRESENTATION_CONTEXT(2) 
PARAMETRIC_REPRESENTATION_CONTEXT() REPRESENTATION_CONTEXT('2D SPACE',''
  ) );
#362 = PCURVE('',#363,#368);
#363 = TOROIDAL_SURFACE('',#364,22.999950956121,3.990039699086);
#364 = AXIS2_PLACEMENT_3D('',#365,#366,#367);
#365 = CARTESIAN_POINT('',(-2.183761802499E-06,-5.137761513845E-02,
    -8.957474387829E-03));
#366 = DIRECTION('',(0.999999917778,-1.119545922953E-04,
    3.897567677814E-04));
#367 = DIRECTION('',(-3.89756770224E-04,6.617444900424E-24,
    0.999999924045));
#368 = DEFINITIONAL_REPRESENTATION('',(#369),#373);
#369 = LINE('',#370,#371);
#370 = CARTESIAN_POINT('',(0.,5.447858951956));
#371 = VECTOR('',#372,1.);
#372 = DIRECTION('',(1.,0.));
#373 = ( GEOMETRIC_REPRESENTATION_CONTEXT(2) 
PARAMETRIC_REPRESENTATION_CONTEXT() REPRESENTATION_CONTEXT('2D SPACE',''
  ) );
#374 = ORIENTED_EDGE('',*,*,#375,.T.);
#375 = EDGE_CURVE('',#345,#152,#376,.T.);
#376 = SEAM_CURVE('',#377,(#381,#388),.PCURVE_S1.);
#377 = LINE('',#378,#379);
#378 = CARTESIAN_POINT('',(9.042626170183,-5.23888585743E-02,
    -25.68244611697));
#379 = VECTOR('',#380,1.);
#380 = DIRECTION('',(-0.999999917778,1.119545922953E-04,
    -3.897567677814E-04));
#381 = PCURVE('',#172,#382);
#382 = DEFINITIONAL_REPRESENTATION('',(#383),#387);
#383 = LINE('',#384,#385);
#384 = CARTESIAN_POINT('',(0.,-0.));
#385 = VECTOR('',#386,1.);
#386 = DIRECTION('',(0.,1.));
#387 = ( GEOMETRIC_REPRESENTATION_CONTEXT(2) 
PARAMETRIC_REPRESENTATION_CONTEXT() REPRESENTATION_CONTEXT('2D SPACE',''
  ) );
#388 = PCURVE('',#172,#389);
#389 = DEFINITIONAL_REPRESENTATION('',(#390),#394);
#390 = LINE('',#391,#392);
#391 = CARTESIAN_POINT('',(6.28318530718,-0.));
#392 = VECTOR('',#393,1.);
#393 = DIRECTION('',(0.,1.));
#394 = ( GEOMETRIC_REPRESENTATION_CONTEXT(2) 
PARAMETRIC_REPRESENTATION_CONTEXT() REPRESENTATION_CONTEXT('2D SPACE',''
  ) );
#395 = ORIENTED_EDGE('',*,*,#151,.F.);
#396 = ORIENTED_EDGE('',*,*,#375,.F.);
#397 = ORIENTED_EDGE('',*,*,#398,.F.);
#398 = EDGE_CURVE('',#399,#345,#401,.T.);
#399 = VERTEX_POINT('',#400);
#400 = CARTESIAN_POINT('',(-2.968686070115,-5.104637773498E-02,
    25.66689852936));
#401 = SURFACE_CURVE('',#402,(#407,#414),.PCURVE_S1.);
#402 = CIRCLE('',#403,25.677011118177);
#403 = AXIS2_PLACEMENT_3D('',#404,#405,#406);
#404 = CARTESIAN_POINT('',(-2.958678281192,-5.104637773499E-02,
    -1.011063851529E-02));
#405 = DIRECTION('',(0.999999917778,-1.119545922953E-04,
    3.897567677814E-04));
#406 = DIRECTION('',(-3.89756770224E-04,6.617444900424E-24,
    0.999999924045));
#407 = PCURVE('',#172,#408);
#408 = DEFINITIONAL_REPRESENTATION('',(#409),#413);
#409 = LINE('',#410,#411);
#410 = CARTESIAN_POINT('',(3.14159265359,11.991297648403));
#411 = VECTOR('',#412,1.);
#412 = DIRECTION('',(-1.,0.));
#413 = ( GEOMETRIC_REPRESENTATION_CONTEXT(2) 
PARAMETRIC_REPRESENTATION_CONTEXT() REPRESENTATION_CONTEXT('2D SPACE',''
  ) );
#414 = PCURVE('',#363,#415);
#415 = DEFINITIONAL_REPRESENTATION('',(#416),#420);
#416 = LINE('',#417,#418);
#417 = CARTESIAN_POINT('',(0.,5.447858951956));
#418 = VECTOR('',#419,1.);
#419 = DIRECTION('',(1.,0.));
#420 = ( GEOMETRIC_REPRESENTATION_CONTEXT(2) 
PARAMETRIC_REPRESENTATION_CONTEXT() REPRESENTATION_CONTEXT('2D SPACE',''
  ) );
#421 = ORIENTED_EDGE('',*,*,#422,.F.);
#422 = EDGE_CURVE('',#423,#399,#425,.T.);
#423 = VERTEX_POINT('',#424);
#424 = CARTESIAN_POINT('',(-2.956057783312,25.617742629403,
    0.639630850848));
#425 = SURFACE_CURVE('',#426,(#431,#438),.PCURVE_S1.);
#426 = CIRCLE('',#427,25.677011118177);
#427 = AXIS2_PLACEMENT_3D('',#428,#429,#430);
#428 = CARTESIAN_POINT('',(-2.958678281192,-5.104637773499E-02,
    -1.011063851529E-02));
#429 = DIRECTION('',(0.999999917778,-1.119545922953E-04,
    3.897567677814E-04));
#430 = DIRECTION('',(-3.89756770224E-04,6.617444900424E-24,
    0.999999924045));
#431 = PCURVE('',#172,#432);
#432 = DEFINITIONAL_REPRESENTATION('',(#433),#437);
#433 = LINE('',#434,#435);
#434 = CARTESIAN_POINT('',(9.424777960769,11.991297648403));
#435 = VECTOR('',#436,1.);
#436 = DIRECTION('',(-1.,0.));
#437 = ( GEOMETRIC_REPRESENTATION_CONTEXT(2) 
PARAMETRIC_REPRESENTATION_CONTEXT() REPRESENTATION_CONTEXT('2D SPACE',''
  ) );
#438 = PCURVE('',#439,#444);
#439 = TOROIDAL_SURFACE('',#440,22.999950956121,3.990039699086);
#440 = AXIS2_PLACEMENT_3D('',#441,#442,#443);
#441 = CARTESIAN_POINT('',(-2.183761802499E-06,-5.137761513845E-02,
    -8.957474387829E-03));
#442 = DIRECTION('',(0.999999917778,-1.119545922953E-04,
    3.897567677814E-04));
#443 = DIRECTION('',(-3.89756770224E-04,6.617444900424E-24,
    0.999999924045));
#444 = DEFINITIONAL_REPRESENTATION('',(#445),#449);
#445 = LINE('',#446,#447);
#446 = CARTESIAN_POINT('',(0.,5.447858951956));
#447 = VECTOR('',#448,1.);
#448 = DIRECTION('',(1.,0.));
#449 = ( GEOMETRIC_REPRESENTATION_CONTEXT(2) 
PARAMETRIC_REPRESENTATION_CONTEXT() REPRESENTATION_CONTEXT('2D SPACE',''
  ) );
#450 = ORIENTED_EDGE('',*,*,#451,.F.);
#451 = EDGE_CURVE('',#347,#423,#452,.T.);
#452 = SURFACE_CURVE('',#453,(#464,#478),.PCURVE_S1.);
#453 = B_SPLINE_CURVE_WITH_KNOTS('',5,(#454,#455,#456,#457,#458,#459,
    #460,#461,#462,#463),.UNSPECIFIED.,.F.,.F.,(6,4,6),(0.,0.49979444458
    ,1.),.UNSPECIFIED.);
#454 = CARTESIAN_POINT('',(-2.95355467145,25.617987137945,
    -0.650107579225));
#455 = CARTESIAN_POINT('',(-2.978656852575,25.621151301637,
    -0.523321775777));
#456 = CARTESIAN_POINT('',(-2.997836036492,25.623588812146,
    -0.394232127887));
#457 = CARTESIAN_POINT('',(-3.010768548973,25.625225990663,
    -0.263525837357));
#458 = CARTESIAN_POINT('',(-3.017265593342,25.626019361918,
    -0.131972215682));
#459 = CARTESIAN_POINT('',(-3.017389373178,25.625919861318,
    0.131227848063));
#460 = CARTESIAN_POINT('',(-3.011005527269,25.625025593722,
    0.262896113106));
#461 = CARTESIAN_POINT('',(-2.998174654936,25.623286716696,
    0.393721314108));
#462 = CARTESIAN_POINT('',(-2.979085294349,25.620747384389,0.52293206584
    ));
#463 = CARTESIAN_POINT('',(-2.954061391111,25.617481995019,
    0.649839227793));
#464 = PCURVE('',#172,#465);
#465 = DEFINITIONAL_REPRESENTATION('',(#466),#477);
#466 = B_SPLINE_CURVE_WITH_KNOTS('',5,(#467,#468,#469,#470,#471,#472,
    #473,#474,#475,#476),.UNSPECIFIED.,.F.,.F.,(6,4,6),(0.,0.49979444458
    ,1.),.UNSPECIFIED.);
#467 = CARTESIAN_POINT('',(4.737316538023,11.989297248403));
#468 = CARTESIAN_POINT('',(4.732376906167,12.014350366081));
#469 = CARTESIAN_POINT('',(4.727348372591,12.033479507748));
#470 = CARTESIAN_POINT('',(4.722257518859,12.046361258794));
#471 = CARTESIAN_POINT('',(4.717134031969,12.052807117536));
#472 = CARTESIAN_POINT('',(4.706883613429,12.052828302216));
#473 = CARTESIAN_POINT('',(4.701755832411,12.046393038116));
#474 = CARTESIAN_POINT('',(4.696660688378,12.033510982156));
#475 = CARTESIAN_POINT('',(4.691627943926,12.014370978084));
#476 = CARTESIAN_POINT('',(4.686684248077,11.989297248403));
#477 = ( GEOMETRIC_REPRESENTATION_CONTEXT(2) 
PARAMETRIC_REPRESENTATION_CONTEXT() REPRESENTATION_CONTEXT('2D SPACE',''
  ) );
#478 = PCURVE('',#322,#479);
#479 = DEFINITIONAL_REPRESENTATION('',(#480),#491);
#480 = B_SPLINE_CURVE_WITH_KNOTS('',5,(#481,#482,#483,#484,#485,#486,
    #487,#488,#489,#490),.UNSPECIFIED.,.F.,.F.,(6,4,6),(0.,0.49979444458
    ,1.),.UNSPECIFIED.);
#481 = CARTESIAN_POINT('',(2.416350212576,-0.16325109015));
#482 = CARTESIAN_POINT('',(2.419969037415,-0.131127522161));
#483 = CARTESIAN_POINT('',(2.422682293084,-9.863267544043E-02));
#484 = CARTESIAN_POINT('',(2.42449606021,-6.588158857126E-02));
#485 = CARTESIAN_POINT('',(2.425412796905,-3.29930600122E-02));
#486 = CARTESIAN_POINT('',(2.425451876187,3.280696807394E-02));
#487 = CARTESIAN_POINT('',(2.424572745095,6.572386901872E-02));
#488 = CARTESIAN_POINT('',(2.422795135059,9.850428998963E-02));
#489 = CARTESIAN_POINT('',(2.420116627956,0.131029142229));
#490 = CARTESIAN_POINT('',(2.416531149749,0.163183098648));
#491 = ( GEOMETRIC_REPRESENTATION_CONTEXT(2) 
PARAMETRIC_REPRESENTATION_CONTEXT() REPRESENTATION_CONTEXT('2D SPACE',''
  ) );
#492 = ADVANCED_FACE('',(#493),#206,.F.);
#493 = FACE_BOUND('',#494,.F.);
#494 = EDGE_LOOP('',(#495,#521,#543,#544));
#495 = ORIENTED_EDGE('',*,*,#496,.T.);
#496 = EDGE_CURVE('',#497,#499,#501,.T.);
#497 = VERTEX_POINT('',#498);
#498 = CARTESIAN_POINT('',(2.719788291114E-03,26.927747283631,
    0.756815243591));
#499 = VERTEX_POINT('',#500);
#500 = CARTESIAN_POINT('',(-1.052171534795E-02,-5.137761513844E-02,
    26.98103113079));
#501 = SURFACE_CURVE('',#502,(#507,#514),.PCURVE_S1.);
#502 = CIRCLE('',#503,26.989990655207);
#503 = AXIS2_PLACEMENT_3D('',#504,#505,#506);
#504 = CARTESIAN_POINT('',(-2.183761803476E-06,-5.137761513845E-02,
    -8.957474387829E-03));
#505 = DIRECTION('',(0.999999917778,-1.119545922953E-04,
    3.897567677814E-04));
#506 = DIRECTION('',(-3.89756770224E-04,1.323488980085E-23,
    0.999999924045));
#507 = PCURVE('',#206,#508);
#508 = DEFINITIONAL_REPRESENTATION('',(#509),#513);
#509 = LINE('',#510,#511);
#510 = CARTESIAN_POINT('',(0.,0.));
#511 = VECTOR('',#512,1.);
#512 = DIRECTION('',(1.,0.));
#513 = ( GEOMETRIC_REPRESENTATION_CONTEXT(2) 
PARAMETRIC_REPRESENTATION_CONTEXT() REPRESENTATION_CONTEXT('2D SPACE',''
  ) );
#514 = PCURVE('',#439,#515);
#515 = DEFINITIONAL_REPRESENTATION('',(#516),#520);
#516 = LINE('',#517,#518);
#517 = CARTESIAN_POINT('',(0.,6.28318530718));
#518 = VECTOR('',#519,1.);
#519 = DIRECTION('',(1.,0.));
#520 = ( GEOMETRIC_REPRESENTATION_CONTEXT(2) 
PARAMETRIC_REPRESENTATION_CONTEXT() REPRESENTATION_CONTEXT('2D SPACE',''
  ) );
#521 = ORIENTED_EDGE('',*,*,#522,.T.);
#522 = EDGE_CURVE('',#499,#190,#523,.T.);
#523 = SURFACE_CURVE('',#524,(#529,#536),.PCURVE_S1.);
#524 = CIRCLE('',#525,3.990039699086);
#525 = AXIS2_PLACEMENT_3D('',#526,#527,#528);
#526 = CARTESIAN_POINT('',(-8.966570361769E-03,-5.137761513844E-02,
    22.990991734768));
#527 = DIRECTION('',(1.119545837918E-04,0.999999993733,
    4.363506005982E-08));
#528 = DIRECTION('',(-3.89756770224E-04,2.449293715294E-16,
    0.999999924045));
#529 = PCURVE('',#206,#530);
#530 = DEFINITIONAL_REPRESENTATION('',(#531),#535);
#531 = LINE('',#532,#533);
#532 = CARTESIAN_POINT('',(6.28318530718,-0.));
#533 = VECTOR('',#534,1.);
#534 = DIRECTION('',(0.,1.));
#535 = ( GEOMETRIC_REPRESENTATION_CONTEXT(2) 
PARAMETRIC_REPRESENTATION_CONTEXT() REPRESENTATION_CONTEXT('2D SPACE',''
  ) );
#536 = PCURVE('',#235,#537);
#537 = DEFINITIONAL_REPRESENTATION('',(#538),#542);
#538 = LINE('',#539,#540);
#539 = CARTESIAN_POINT('',(0.,-0.));
#540 = VECTOR('',#541,1.);
#541 = DIRECTION('',(0.,1.));
#542 = ( GEOMETRIC_REPRESENTATION_CONTEXT(2) 
PARAMETRIC_REPRESENTATION_CONTEXT() REPRESENTATION_CONTEXT('2D SPACE',''
  ) );
#543 = ORIENTED_EDGE('',*,*,#187,.F.);
#544 = ORIENTED_EDGE('',*,*,#545,.F.);
#545 = EDGE_CURVE('',#497,#188,#546,.T.);
#546 = SURFACE_CURVE('',#547,(#562,#580),.PCURVE_S1.);
#547 = B_SPLINE_CURVE_WITH_KNOTS('',5,(#548,#549,#550,#551,#552,#553,
    #554,#555,#556,#557,#558,#559,#560,#561),.UNSPECIFIED.,.F.,.F.,(6,4,
    4,6),(0.,0.349851294882,0.697823230607,1.),.UNSPECIFIED.);
#548 = CARTESIAN_POINT('',(2.719788291115E-03,26.927747283631,
    0.756815243591));
#549 = CARTESIAN_POINT('',(0.236045447842,26.927747587975,0.75597515509)
  );
#550 = CARTESIAN_POINT('',(0.469370895593,26.910731047252,0.753529184441
    ));
#551 = CARTESIAN_POINT('',(0.701015597542,26.876699451318,0.749476532111
    ));
#552 = CARTESIAN_POINT('',(0.929329828758,26.825898417749,0.74382300439)
  );
#553 = CARTESIAN_POINT('',(1.374881882375,26.692093936366,0.729372807286
    ));
#554 = CARTESIAN_POINT('',(1.592181279729,26.609262343799,0.720592926779
    ));
#555 = CARTESIAN_POINT('',(1.803022572637,26.510802857514,0.710248274671
    ));
#556 = CARTESIAN_POINT('',(2.005922632934,26.397417126263,0.698350938815
    ));
#557 = CARTESIAN_POINT('',(2.3676141603,26.159395190688,0.673230500348)
  );
#558 = CARTESIAN_POINT('',(2.528701084431,26.038200454104,0.660387649533
    ));
#559 = CARTESIAN_POINT('',(2.681869509131,25.907039934265,0.646380147016
    ));
#560 = CARTESIAN_POINT('',(2.826309763852,25.766620108982,0.63120567794)
  );
#561 = CARTESIAN_POINT('',(2.961305047428,25.617751701625,0.614841574797
    ));
#562 = PCURVE('',#206,#563);
#563 = DEFINITIONAL_REPRESENTATION('',(#564),#579);
#564 = B_SPLINE_CURVE_WITH_KNOTS('',5,(#565,#566,#567,#568,#569,#570,
    #571,#572,#573,#574,#575,#576,#577,#578),.UNSPECIFIED.,.F.,.F.,(6,4,
    4,6),(0.,0.349851294882,0.697823230607,1.),.UNSPECIFIED.);
#565 = CARTESIAN_POINT('',(4.740765217571,0.));
#566 = CARTESIAN_POINT('',(4.740730708346,5.847694020582E-02));
#567 = CARTESIAN_POINT('',(4.740654612341,0.116954154378));
#568 = CARTESIAN_POINT('',(4.740536813626,0.175427029434));
#569 = CARTESIAN_POINT('',(4.74037665793,0.233898671435));
#570 = CARTESIAN_POINT('',(4.739970163114,0.350515702364));
#571 = CARTESIAN_POINT('',(4.739724284666,0.40866343646));
#572 = CARTESIAN_POINT('',(4.739433955623,0.466802659449));
#573 = CARTESIAN_POINT('',(4.739097260896,0.524935961715));
#574 = CARTESIAN_POINT('',(4.738376083167,0.633530435686));
#575 = CARTESIAN_POINT('',(4.738003713184,0.683995849578));
#576 = CARTESIAN_POINT('',(4.737592218554,0.734450875444));
#577 = CARTESIAN_POINT('',(4.737139064256,0.784895825917));
#578 = CARTESIAN_POINT('',(4.736640473161,0.835326355223));
#579 = ( GEOMETRIC_REPRESENTATION_CONTEXT(2) 
PARAMETRIC_REPRESENTATION_CONTEXT() REPRESENTATION_CONTEXT('2D SPACE',''
  ) );
#580 = PCURVE('',#322,#581);
#581 = DEFINITIONAL_REPRESENTATION('',(#582),#597);
#582 = B_SPLINE_CURVE_WITH_KNOTS('',5,(#583,#584,#585,#586,#587,#588,
    #589,#590,#591,#592,#593,#594,#595,#596),.UNSPECIFIED.,.F.,.F.,(6,4,
    4,6),(0.,0.349851294882,0.697823230607,1.),.UNSPECIFIED.);
#583 = CARTESIAN_POINT('',(1.570103872317,0.19035128305));
#584 = CARTESIAN_POINT('',(1.510699489053,0.190137397653));
#585 = CARTESIAN_POINT('',(1.451298273296,0.189514668234));
#586 = CARTESIAN_POINT('',(1.391914763609,0.188482972981));
#587 = CARTESIAN_POINT('',(1.332555551401,0.187044204739));
#588 = CARTESIAN_POINT('',(1.214231579487,0.183368802331));
#589 = CARTESIAN_POINT('',(1.155264100068,0.181136429571));
#590 = CARTESIAN_POINT('',(1.096345165281,0.178507517286));
#591 = CARTESIAN_POINT('',(1.037479616543,0.175486069929));
#592 = CARTESIAN_POINT('',(0.927616591223,0.169111822297));
#593 = CARTESIAN_POINT('',(0.876601751584,0.165854887932));
#594 = CARTESIAN_POINT('',(0.825641291621,0.162305037821));
#595 = CARTESIAN_POINT('',(0.77473771616,0.158462461184));
#596 = CARTESIAN_POINT('',(0.723897167718,0.154322231924));
#597 = ( GEOMETRIC_REPRESENTATION_CONTEXT(2) 
PARAMETRIC_REPRESENTATION_CONTEXT() REPRESENTATION_CONTEXT('2D SPACE',''
  ) );
#598 = ADVANCED_FACE('',(#599,#603),#322,.T.);
#599 = FACE_BOUND('',#600,.T.);
#600 = VERTEX_LOOP('',#601);
#601 = VERTEX_POINT('',#602);
#602 = CARTESIAN_POINT('',(-1.20956707265E-15,22.999997601849,
    3.999999284115));
#603 = FACE_BOUND('',#604,.T.);
#604 = EDGE_LOOP('',(#605,#606,#607,#673,#674,#742));
#605 = ORIENTED_EDGE('',*,*,#294,.F.);
#606 = ORIENTED_EDGE('',*,*,#545,.F.);
#607 = ORIENTED_EDGE('',*,*,#608,.F.);
#608 = EDGE_CURVE('',#423,#497,#609,.T.);
#609 = SURFACE_CURVE('',#610,(#629,#651),.PCURVE_S1.);
#610 = B_SPLINE_CURVE_WITH_KNOTS('',5,(#611,#612,#613,#614,#615,#616,
    #617,#618,#619,#620,#621,#622,#623,#624,#625,#626,#627,#628),
  .UNSPECIFIED.,.F.,.F.,(6,4,4,4,6),(0.,0.254118992512,0.590112738293,
    0.926022246919,1.),.UNSPECIFIED.);
#611 = CARTESIAN_POINT('',(-2.956057783312,25.617742629403,
    0.639630850847));
#612 = CARTESIAN_POINT('',(-2.842483492564,25.742969496187,
    0.652013240312));
#613 = CARTESIAN_POINT('',(-2.722232962527,25.862211226578,
    0.663590394738));
#614 = CARTESIAN_POINT('',(-2.595732882848,25.974988204365,
    0.674364903917));
#615 = CARTESIAN_POINT('',(-2.463456147637,26.080872097741,0.6843352184)
  );
#616 = CARTESIAN_POINT('',(-2.144075305769,26.309872048894,
    0.705607485471));
#617 = CARTESIAN_POINT('',(-1.953032866973,26.427551796765,
    0.716304166746));
#618 = CARTESIAN_POINT('',(-1.753997806773,26.531652058814,0.7255740294)
  );
#619 = CARTESIAN_POINT('',(-1.548275517032,26.621483361466,0.73340166357
    ));
#620 = CARTESIAN_POINT('',(-1.126307969252,26.771584271633,
    0.746145673746));
#621 = CARTESIAN_POINT('',(-0.910058255383,26.831863815678,
    0.751062981118));
#622 = CARTESIAN_POINT('',(-0.68991476885,26.876880903646,0.754513672701
    ));
#623 = CARTESIAN_POINT('',(-0.467322699438,26.906338232992,
    0.756488955341));
#624 = CARTESIAN_POINT('',(-0.19453057851,26.923184121818,0.757095064941
    ));
#625 = CARTESIAN_POINT('',(-0.145249171114,26.925465403028,
    0.757132745503));
#626 = CARTESIAN_POINT('',(-9.593647452707E-02,26.926986595638,
    0.75709868042));
#627 = CARTESIAN_POINT('',(-4.66082345302E-02,26.927747219289,
    0.756992849023));
#628 = CARTESIAN_POINT('',(2.719788291115E-03,26.927747283631,
    0.756815243591));
#629 = PCURVE('',#322,#630);
#630 = DEFINITIONAL_REPRESENTATION('',(#631),#650);
#631 = B_SPLINE_CURVE_WITH_KNOTS('',5,(#632,#633,#634,#635,#636,#637,
    #638,#639,#640,#641,#642,#643,#644,#645,#646,#647,#648,#649),
  .UNSPECIFIED.,.F.,.F.,(6,4,4,4,6),(0.,0.254118992512,0.590112738293,
    0.926022246919,1.),.UNSPECIFIED.);
#632 = CARTESIAN_POINT('',(2.416817052883,0.160597190911));
#633 = CARTESIAN_POINT('',(2.374004398258,0.163733142368));
#634 = CARTESIAN_POINT('',(2.331151396895,0.166667153065));
#635 = CARTESIAN_POINT('',(2.288260655598,0.169399426521));
#636 = CARTESIAN_POINT('',(2.245335060588,0.171929144551));
#637 = CARTESIAN_POINT('',(2.145580061156,0.177328987116));
#638 = CARTESIAN_POINT('',(2.088725848381,0.180046358197));
#639 = CARTESIAN_POINT('',(2.031825140255,0.182402713471));
#640 = CARTESIAN_POINT('',(1.974882526734,0.184393355017));
#641 = CARTESIAN_POINT('',(1.860951379532,0.187635284241));
#642 = CARTESIAN_POINT('',(1.803960931503,0.188886808757));
#643 = CARTESIAN_POINT('',(1.746950237071,0.189765305287));
#644 = CARTESIAN_POINT('',(1.689925380582,0.190268209627));
#645 = CARTESIAN_POINT('',(1.620339997109,0.190422525602));
#646 = CARTESIAN_POINT('',(1.607780884929,0.190432119289));
#647 = CARTESIAN_POINT('',(1.595221756543,0.190423446176));
#648 = CARTESIAN_POINT('',(1.582662717233,0.190396501153));
#649 = CARTESIAN_POINT('',(1.570103872317,0.19035128305));
#650 = ( GEOMETRIC_REPRESENTATION_CONTEXT(2) 
PARAMETRIC_REPRESENTATION_CONTEXT() REPRESENTATION_CONTEXT('2D SPACE',''
  ) );
#651 = PCURVE('',#439,#652);
#652 = DEFINITIONAL_REPRESENTATION('',(#653),#672);
#653 = B_SPLINE_CURVE_WITH_KNOTS('',5,(#654,#655,#656,#657,#658,#659,
    #660,#661,#662,#663,#664,#665,#666,#667,#668,#669,#670,#671),
  .UNSPECIFIED.,.F.,.F.,(6,4,4,4,6),(0.,0.254118992512,0.590112738293,
    0.926022246919,1.),.UNSPECIFIED.);
#654 = CARTESIAN_POINT('',(4.73769604494,5.447858951956));
#655 = CARTESIAN_POINT('',(4.738052981481,5.490280519247));
#656 = CARTESIAN_POINT('',(4.738380002968,5.532709751037));
#657 = CARTESIAN_POINT('',(4.73867883491,5.575145381523));
#658 = CARTESIAN_POINT('',(4.738950840894,5.617586360614));
#659 = CARTESIAN_POINT('',(4.739522521706,5.716152886655));
#660 = CARTESIAN_POINT('',(4.7398028988,5.772282893178));
#661 = CARTESIAN_POINT('',(4.740040532513,5.82841725902));
#662 = CARTESIAN_POINT('',(4.740237026509,5.88455814724));
#663 = CARTESIAN_POINT('',(4.740549839861,5.99683080641));
#664 = CARTESIAN_POINT('',(4.740666184003,6.052964477139));
#665 = CARTESIAN_POINT('',(4.740743550196,6.109098502578));
#666 = CARTESIAN_POINT('',(4.740782493262,6.165235352403));
#667 = CARTESIAN_POINT('',(4.740783251472,6.233734030317));
#668 = CARTESIAN_POINT('',(4.740781529658,6.246096885164));
#669 = CARTESIAN_POINT('',(4.740777950258,6.258459724236));
#670 = CARTESIAN_POINT('',(4.740772513262,6.270822535564));
#671 = CARTESIAN_POINT('',(4.740765217571,6.28318530718));
#672 = ( GEOMETRIC_REPRESENTATION_CONTEXT(2) 
PARAMETRIC_REPRESENTATION_CONTEXT() REPRESENTATION_CONTEXT('2D SPACE',''
  ) );
#673 = ORIENTED_EDGE('',*,*,#451,.F.);
#674 = ORIENTED_EDGE('',*,*,#675,.T.);
#675 = EDGE_CURVE('',#347,#676,#678,.T.);
#676 = VERTEX_POINT('',#677);
#677 = CARTESIAN_POINT('',(3.308611026117E-03,26.928334274156,
    -0.753760117693));
#678 = SURFACE_CURVE('',#679,(#698,#720),.PCURVE_S1.);
#679 = B_SPLINE_CURVE_WITH_KNOTS('',5,(#680,#681,#682,#683,#684,#685,
    #686,#687,#688,#689,#690,#691,#692,#693,#694,#695,#696,#697),
  .UNSPECIFIED.,.F.,.F.,(6,4,4,4,6),(0.,0.256120320187,0.59111371634,
    0.926022567805,1.),.UNSPECIFIED.);
#680 = CARTESIAN_POINT('',(-2.955559021578,25.618239839165,
    -0.639900562294));
#681 = CARTESIAN_POINT('',(-2.841081156063,25.744461965555,
    -0.652193074688));
#682 = CARTESIAN_POINT('',(-2.719822101919,25.864603817327,
    -0.663667078036));
#683 = CARTESIAN_POINT('',(-2.592218718634,25.978174325148,
    -0.674325928283));
#684 = CARTESIAN_POINT('',(-2.458755503978,26.084735366972,
    -0.684168726195));
#685 = CARTESIAN_POINT('',(-2.138432577094,26.313606781105,
    -0.704990136523));
#686 = CARTESIAN_POINT('',(-1.947781575492,26.430664575496,
    -0.715385753534));
#687 = CARTESIAN_POINT('',(-1.749205514871,26.534211896666,
    -0.724367143965));
#688 = CARTESIAN_POINT('',(-1.543999001205,26.623566991198,
    -0.731920583749));
#689 = CARTESIAN_POINT('',(-1.123152575461,26.772880138406,
    -0.74414800196));
#690 = CARTESIAN_POINT('',(-0.907508303546,26.832848092834,
    -0.748822897829));
#691 = CARTESIAN_POINT('',(-0.688002934176,26.877641480671,
    -0.75204862968));
#692 = CARTESIAN_POINT('',(-0.466068916844,26.906966189807,
    -0.753817840792));
#693 = CARTESIAN_POINT('',(-0.193941490393,26.923771390076,
    -0.754197261687));
#694 = CARTESIAN_POINT('',(-0.144660076151,26.926052684965,-0.7541947495
    ));
#695 = CARTESIAN_POINT('',(-9.534742136519E-02,26.927573836136,
    -0.754121058049));
#696 = CARTESIAN_POINT('',(-4.601927202989E-02,26.928334362787,
    -0.753976179273));
#697 = CARTESIAN_POINT('',(3.308611026118E-03,26.928334274156,
    -0.753760117693));
#698 = PCURVE('',#322,#699);
#699 = DEFINITIONAL_REPRESENTATION('',(#700),#719);
#700 = B_SPLINE_CURVE_WITH_KNOTS('',5,(#701,#702,#703,#704,#705,#706,
    #707,#708,#709,#710,#711,#712,#713,#714,#715,#716,#717,#718),
  .UNSPECIFIED.,.F.,.F.,(6,4,4,4,6),(0.,0.256120320187,0.59111371634,
    0.926022567805,1.),.UNSPECIFIED.);
#701 = CARTESIAN_POINT('',(2.416639035674,-0.160665498138));
#702 = CARTESIAN_POINT('',(2.373485397405,-0.163778721874));
#703 = CARTESIAN_POINT('',(2.330291367087,-0.166686612887));
#704 = CARTESIAN_POINT('',(2.287059660819,-0.169389562281));
#705 = CARTESIAN_POINT('',(2.243793270693,-0.17188691323));
#706 = CARTESIAN_POINT('',(2.143863960354,-0.177172236308));
#707 = CARTESIAN_POINT('',(2.087177623035,-0.179813041229));
#708 = CARTESIAN_POINT('',(2.030446406898,-0.182095952714));
#709 = CARTESIAN_POINT('',(1.973674893181,-0.184016733154));
#710 = CARTESIAN_POINT('',(1.860088890671,-0.18712698866));
#711 = CARTESIAN_POINT('',(1.803272515072,-0.188316697013));
#712 = CARTESIAN_POINT('',(1.746437207989,-0.189137826059));
#713 = CARTESIAN_POINT('',(1.689588930595,-0.189588203773));
#714 = CARTESIAN_POINT('',(1.620182802925,-0.189684791113));
#715 = CARTESIAN_POINT('',(1.607625477526,-0.189684151671));
#716 = CARTESIAN_POINT('',(1.595068180158,-0.189665392238));
#717 = CARTESIAN_POINT('',(1.582511014647,-0.189628511088));
#718 = CARTESIAN_POINT('',(1.569954084767,-0.189573510328));
#719 = ( GEOMETRIC_REPRESENTATION_CONTEXT(2) 
PARAMETRIC_REPRESENTATION_CONTEXT() REPRESENTATION_CONTEXT('2D SPACE',''
  ) );
#720 = PCURVE('',#363,#721);
#721 = DEFINITIONAL_REPRESENTATION('',(#722),#741);
#722 = B_SPLINE_CURVE_WITH_KNOTS('',5,(#723,#724,#725,#726,#727,#728,
    #729,#730,#731,#732,#733,#734,#735,#736,#737,#738,#739,#740),
  .UNSPECIFIED.,.F.,.F.,(6,4,4,4,6),(0.,0.256120320187,0.59111371634,
    0.926022567805,1.),.UNSPECIFIED.);
#723 = CARTESIAN_POINT('',(4.6878590905,5.447858951956));
#724 = CARTESIAN_POINT('',(4.687499344588,5.490614410159));
#725 = CARTESIAN_POINT('',(4.687169986052,5.533377678363));
#726 = CARTESIAN_POINT('',(4.686869249007,5.57614746221));
#727 = CARTESIAN_POINT('',(4.68659574023,5.618922688799));
#728 = CARTESIAN_POINT('',(4.686024980934,5.717656507036));
#729 = CARTESIAN_POINT('',(4.685746333507,5.773619432514));
#730 = CARTESIAN_POINT('',(4.685510149297,5.829586732578));
#731 = CARTESIAN_POINT('',(4.685314844112,5.885560532682));
#732 = CARTESIAN_POINT('',(4.685003912754,5.997499022287));
#733 = CARTESIAN_POINT('',(4.684888261863,6.053465583888));
#734 = CARTESIAN_POINT('',(4.684811353875,6.109432552135));
#735 = CARTESIAN_POINT('',(4.684772640329,6.165402351371));
#736 = CARTESIAN_POINT('',(4.684771883967,6.233734026779));
#737 = CARTESIAN_POINT('',(4.68477360578,6.24609687991));
#738 = CARTESIAN_POINT('',(4.684777185179,6.258459719035));
#739 = CARTESIAN_POINT('',(4.684782622175,6.270822532134));
#740 = CARTESIAN_POINT('',(4.684789917868,6.28318530718));
#741 = ( GEOMETRIC_REPRESENTATION_CONTEXT(2) 
PARAMETRIC_REPRESENTATION_CONTEXT() REPRESENTATION_CONTEXT('2D SPACE',''
  ) );
#742 = ORIENTED_EDGE('',*,*,#743,.T.);
#743 = EDGE_CURVE('',#676,#271,#744,.T.);
#744 = SURFACE_CURVE('',#745,(#760,#778),.PCURVE_S1.);
#745 = B_SPLINE_CURVE_WITH_KNOTS('',5,(#746,#747,#748,#749,#750,#751,
    #752,#753,#754,#755,#756,#757,#758,#759),.UNSPECIFIED.,.F.,.F.,(6,4,
    4,6),(0.,0.349851487411,0.698823439,1.),.UNSPECIFIED.);
#746 = CARTESIAN_POINT('',(3.308611026118E-03,26.928334274156,
    -0.753760117693));
#747 = CARTESIAN_POINT('',(0.236633301583,26.92833385492,-0.752738129759
    ));
#748 = CARTESIAN_POINT('',(0.469956682624,26.911315383164,
    -0.750123488536));
#749 = CARTESIAN_POINT('',(0.701598198772,26.877280605207,
    -0.745916699312));
#750 = CARTESIAN_POINT('',(0.929908094808,26.826475114305,-0.74012466102
    ));
#751 = CARTESIAN_POINT('',(1.376087501791,26.692467473753,
    -0.725410045331));
#752 = CARTESIAN_POINT('',(1.593990565783,26.609344463043,
    -0.716495108635));
#753 = CARTESIAN_POINT('',(1.805392548256,26.510503760479,
    -0.706023699646));
#754 = CARTESIAN_POINT('',(2.00879776336,26.396653737018,-0.694008639465
    ));
#755 = CARTESIAN_POINT('',(2.370269541592,26.158311286352,
    -0.668758360126));
#756 = CARTESIAN_POINT('',(2.53073493005,26.037409069359,-0.655915344153
    ));
#757 = CARTESIAN_POINT('',(2.683327879871,25.906610720034,
    -0.641929184681));
#758 = CARTESIAN_POINT('',(2.82724702816,25.766616088415,-0.626797614464
    ));
#759 = CARTESIAN_POINT('',(2.961782685212,25.618227853167,-0.61049811595
    ));
#760 = PCURVE('',#322,#761);
#761 = DEFINITIONAL_REPRESENTATION('',(#762),#777);
#762 = B_SPLINE_CURVE_WITH_KNOTS('',5,(#763,#764,#765,#766,#767,#768,
    #769,#770,#771,#772,#773,#774,#775,#776),.UNSPECIFIED.,.F.,.F.,(6,4,
    4,6),(0.,0.349851487411,0.698823439,1.),.UNSPECIFIED.);
#763 = CARTESIAN_POINT('',(1.569954084767,-0.189573510328));
#764 = CARTESIAN_POINT('',(1.510558838163,-0.189313352491));
#765 = CARTESIAN_POINT('',(1.451167681643,-0.188647784515));
#766 = CARTESIAN_POINT('',(1.391794991049,-0.18757703381));
#767 = CARTESIAN_POINT('',(1.332447155069,-0.186103280597));
#768 = CARTESIAN_POINT('',(1.213977054399,-0.182361302807));
#769 = CARTESIAN_POINT('',(1.15485226107,-0.180095016866));
#770 = CARTESIAN_POINT('',(1.095776462202,-0.177434406467));
#771 = CARTESIAN_POINT('',(1.036754285415,-0.174383660427));
#772 = CARTESIAN_POINT('',(0.926914555297,-0.167977719097));
#773 = CARTESIAN_POINT('',(0.876079013033,-0.164721373666));
#774 = CARTESIAN_POINT('',(0.825297132096,-0.161177602231));
#775 = CARTESIAN_POINT('',(0.774571272967,-0.157346582573));
#776 = CARTESIAN_POINT('',(0.723907388232,-0.153223401021));
#777 = ( GEOMETRIC_REPRESENTATION_CONTEXT(2) 
PARAMETRIC_REPRESENTATION_CONTEXT() REPRESENTATION_CONTEXT('2D SPACE',''
  ) );
#778 = PCURVE('',#235,#779);
#779 = DEFINITIONAL_REPRESENTATION('',(#780),#795);
#780 = B_SPLINE_CURVE_WITH_KNOTS('',5,(#781,#782,#783,#784,#785,#786,
    #787,#788,#789,#790,#791,#792,#793,#794),.UNSPECIFIED.,.F.,.F.,(6,4,
    4,6),(0.,0.349851487411,0.698823439,1.),.UNSPECIFIED.);
#781 = CARTESIAN_POINT('',(4.684789917868,0.));
#782 = CARTESIAN_POINT('',(4.684824427057,5.847687926502E-02));
#783 = CARTESIAN_POINT('',(4.684900522961,0.116954069863));
#784 = CARTESIAN_POINT('',(4.685018321613,0.175426952044));
#785 = CARTESIAN_POINT('',(4.685178477348,0.233898625055));
#786 = CARTESIAN_POINT('',(4.685585554902,0.350682834617));
#787 = CARTESIAN_POINT('',(4.685832264556,0.408997704675));
#788 = CARTESIAN_POINT('',(4.686123684478,0.467303999209));
#789 = CARTESIAN_POINT('',(4.686461747957,0.52560434693));
#790 = CARTESIAN_POINT('',(4.687183985195,0.634198617818));
#791 = CARTESIAN_POINT('',(4.68755551001,0.684496908706));
#792 = CARTESIAN_POINT('',(4.687965917697,0.734784866785));
#793 = CARTESIAN_POINT('',(4.688417721819,0.785062781217));
#794 = CARTESIAN_POINT('',(4.688914662279,0.835326355223));
#795 = ( GEOMETRIC_REPRESENTATION_CONTEXT(2) 
PARAMETRIC_REPRESENTATION_CONTEXT() REPRESENTATION_CONTEXT('2D SPACE',''
  ) );
#796 = ADVANCED_FACE('',(#797),#235,.F.);
#797 = FACE_BOUND('',#798,.F.);
#798 = EDGE_LOOP('',(#799,#800,#822,#823,#824));
#799 = ORIENTED_EDGE('',*,*,#522,.F.);
#800 = ORIENTED_EDGE('',*,*,#801,.T.);
#801 = EDGE_CURVE('',#499,#676,#802,.T.);
#802 = SURFACE_CURVE('',#803,(#808,#815),.PCURVE_S1.);
#803 = CIRCLE('',#804,26.989990655207);
#804 = AXIS2_PLACEMENT_3D('',#805,#806,#807);
#805 = CARTESIAN_POINT('',(-2.183761803476E-06,-5.137761513845E-02,
    -8.957474387829E-03));
#806 = DIRECTION('',(0.999999917778,-1.119545922953E-04,
    3.897567677814E-04));
#807 = DIRECTION('',(-3.89756770224E-04,1.323488980085E-23,
    0.999999924045));
#808 = PCURVE('',#235,#809);
#809 = DEFINITIONAL_REPRESENTATION('',(#810),#814);
#810 = LINE('',#811,#812);
#811 = CARTESIAN_POINT('',(0.,0.));
#812 = VECTOR('',#813,1.);
#813 = DIRECTION('',(1.,0.));
#814 = ( GEOMETRIC_REPRESENTATION_CONTEXT(2) 
PARAMETRIC_REPRESENTATION_CONTEXT() REPRESENTATION_CONTEXT('2D SPACE',''
  ) );
#815 = PCURVE('',#363,#816);
#816 = DEFINITIONAL_REPRESENTATION('',(#817),#821);
#817 = LINE('',#818,#819);
#818 = CARTESIAN_POINT('',(0.,6.28318530718));
#819 = VECTOR('',#820,1.);
#820 = DIRECTION('',(1.,0.));
#821 = ( GEOMETRIC_REPRESENTATION_CONTEXT(2) 
PARAMETRIC_REPRESENTATION_CONTEXT() REPRESENTATION_CONTEXT('2D SPACE',''
  ) );
#822 = ORIENTED_EDGE('',*,*,#743,.T.);
#823 = ORIENTED_EDGE('',*,*,#270,.F.);
#824 = ORIENTED_EDGE('',*,*,#218,.F.);
#825 = ADVANCED_FACE('',(#826),#363,.F.);
#826 = FACE_BOUND('',#827,.F.);
#827 = EDGE_LOOP('',(#828,#850,#851,#852,#853));
#828 = ORIENTED_EDGE('',*,*,#829,.F.);
#829 = EDGE_CURVE('',#399,#499,#830,.T.);
#830 = SURFACE_CURVE('',#831,(#836,#843),.PCURVE_S1.);
#831 = CIRCLE('',#832,3.990039699086);
#832 = AXIS2_PLACEMENT_3D('',#833,#834,#835);
#833 = CARTESIAN_POINT('',(-8.966570361769E-03,-5.137761513844E-02,
    22.990991734768));
#834 = DIRECTION('',(1.119545837918E-04,0.999999993733,
    4.363506005982E-08));
#835 = DIRECTION('',(-3.89756770224E-04,2.449293715294E-16,
    0.999999924045));
#836 = PCURVE('',#363,#837);
#837 = DEFINITIONAL_REPRESENTATION('',(#838),#842);
#838 = LINE('',#839,#840);
#839 = CARTESIAN_POINT('',(0.,-0.));
#840 = VECTOR('',#841,1.);
#841 = DIRECTION('',(0.,1.));
#842 = ( GEOMETRIC_REPRESENTATION_CONTEXT(2) 
PARAMETRIC_REPRESENTATION_CONTEXT() REPRESENTATION_CONTEXT('2D SPACE',''
  ) );
#843 = PCURVE('',#439,#844);
#844 = DEFINITIONAL_REPRESENTATION('',(#845),#849);
#845 = LINE('',#846,#847);
#846 = CARTESIAN_POINT('',(6.28318530718,-0.));
#847 = VECTOR('',#848,1.);
#848 = DIRECTION('',(0.,1.));
#849 = ( GEOMETRIC_REPRESENTATION_CONTEXT(2) 
PARAMETRIC_REPRESENTATION_CONTEXT() REPRESENTATION_CONTEXT('2D SPACE',''
  ) );
#850 = ORIENTED_EDGE('',*,*,#398,.T.);
#851 = ORIENTED_EDGE('',*,*,#344,.T.);
#852 = ORIENTED_EDGE('',*,*,#675,.T.);
#853 = ORIENTED_EDGE('',*,*,#801,.F.);
#854 = ADVANCED_FACE('',(#855),#439,.F.);
#855 = FACE_BOUND('',#856,.F.);
#856 = EDGE_LOOP('',(#857,#858,#859,#860));
#857 = ORIENTED_EDGE('',*,*,#422,.T.);
#858 = ORIENTED_EDGE('',*,*,#829,.T.);
#859 = ORIENTED_EDGE('',*,*,#496,.F.);
#860 = ORIENTED_EDGE('',*,*,#608,.F.);
#861 = ( GEOMETRIC_REPRESENTATION_CONTEXT(3) 
GLOBAL_UNCERTAINTY_ASSIGNED_CONTEXT((#865)) GLOBAL_UNIT_ASSIGNED_CONTEXT
((#862,#863,#864)) REPRESENTATION_CONTEXT('Context #1',
  '3D Context with UNIT and UNCERTAINTY') );
#862 = ( LENGTH_UNIT() NAMED_UNIT(*) SI_UNIT(.MILLI.,.METRE.) );
#863 = ( NAMED_UNIT(*) PLANE_ANGLE_UNIT() SI_UNIT($,.RADIAN.) );
#864 = ( NAMED_UNIT(*) SI_UNIT($,.STERADIAN.) SOLID_ANGLE_UNIT() );
#865 = UNCERTAINTY_MEASURE_WITH_UNIT(LENGTH_MEASURE(1.E-07),#862,
  'distance_accuracy_value','confusion accuracy');
#866 = PRODUCT_TYPE('part',$,(#7));
ENDSEC;
END-ISO-10303-21;
