ISO-10303-21;
HEADER;
FILE_DESCRIPTION(('Open CASCADE Model'),'2;1');
FILE_NAME('Open CASCADE Shape Model','2026-09-07T09:22:18',('Author'),(
    'Open CASCADE'),'Open CASCADE STEP processor 7.8','Open CASCADE 7.8'
  ,'Unknown');
FILE_SCHEMA(('CONFIG_CONTROL_DESIGN'));
ENDSEC;
DATA;
#1 = APPLICATION_PROTOCOL_DEFINITION('committee draft',
  'automotive_design',1997,#2);
#2 = APPLICATION_CONTEXT(
  'core data for automotive mechanical design processes');
#3 = SHAPE_DEFINITION_REPRESENTATION(#4,#10);
#4 = PRODUCT_DEFINITION_SHAPE('','',#5);
#5 = PRODUCT_DEFINITION('design','',#6,#9);
#6 = PRODUCT_DEFINITION_FORMATION('','',#7);
#7 = PRODUCT('Product 10','Product 10','',(#8));
#8 = MECHANICAL_CONTEXT('',#2,'mechanical');
#9 = PRODUCT_DEFINITION_CONTEXT('part definition',#2,'design');
#10 = ADVANCED_BREP_SHAPE_REPRESENTATION('',(#11,#15),#315);
#11 = AXIS2_PLACEMENT_3D('',#12,#13,#14);
#12 = CARTESIAN_POINT('',(0.,0.,0.));
#13 = DIRECTION('',(0.,0.,1.));
#14 = DIRECTION('',(1.,0.,-0.));
#15 = MANIFOLD_SOLID_BREP('',#16);
#16 = CLOSED_SHELL('',(#17,#105,#188,#261,#288));
#17 = ADVANCED_FACE('',(#18),#31,.T.);
#18 = FACE_BOUND('',#19,.T.);
#19 = EDGE_LOOP('',(#20,#54,#77,#104));
#20 = ORIENTED_EDGE('',*,*,#21,.F.);
#21 = EDGE_CURVE('',#22,#22,#24,.T.);
#22 = VERTEX_POINT('',#23);
#23 = CARTESIAN_POINT('',(4.860753283951E-02,-2.589356569868E-02,
    -47.52373071412));
#24 = SURFACE_CURVE('',#25,(#30,#42),.PCURVE_S1.);
#25 = CIRCLE('',#26,47.500031408961);
#26 = AXIS2_PLACEMENT_3D('',#27,#28,#29);
#27 = CARTESIAN_POINT('',(4.860753283953E-02,-3.800979849064E-02,
    -2.370085046069E-02));
#28 = DIRECTION('',(-5.956000083305E-05,-0.999999965694,
    -2.550784159731E-04));
#29 = DIRECTION('',(0.,2.550784164256E-04,-0.999999967468));
#30 = PCURVE('',#31,#36);
#31 = CYLINDRICAL_SURFACE('',#32,47.500031408961);
#32 = AXIS2_PLACEMENT_3D('',#33,#34,#35);
#33 = CARTESIAN_POINT('',(4.944590031172E-02,14.038004837247,
    -2.011036282101E-02));
#34 = DIRECTION('',(-5.956000083305E-05,-0.999999965694,
    -2.550784159731E-04));
#35 = DIRECTION('',(0.,2.550784164256E-04,-0.999999967468));
#36 = DEFINITIONAL_REPRESENTATION('',(#37),#41);
#37 = LINE('',#38,#39);
#38 = CARTESIAN_POINT('',(0.,14.076015118632));
#39 = VECTOR('',#40,1.);
#40 = DIRECTION('',(1.,0.));
#41 = ( GEOMETRIC_REPRESENTATION_CONTEXT(2) 
PARAMETRIC_REPRESENTATION_CONTEXT() REPRESENTATION_CONTEXT('2D SPACE',''
  ) );
#42 = PCURVE('',#43,#48);
#43 = PLANE('',#44);
#44 = AXIS2_PLACEMENT_3D('',#45,#46,#47);
#45 = CARTESIAN_POINT('',(4.860753283953E-02,-3.800979849064E-02,
    -2.370085046069E-02));
#46 = DIRECTION('',(-5.956000083305E-05,-0.999999965694,
    -2.550784159731E-04));
#47 = DIRECTION('',(0.,2.550784164256E-04,-0.999999967468));
#48 = DEFINITIONAL_REPRESENTATION('',(#49),#53);
#49 = CIRCLE('',#50,47.500031408961);
#50 = AXIS2_PLACEMENT_2D('',#51,#52);
#51 = CARTESIAN_POINT('',(0.,0.));
#52 = DIRECTION('',(1.,0.));
#53 = ( GEOMETRIC_REPRESENTATION_CONTEXT(2) 
PARAMETRIC_REPRESENTATION_CONTEXT() REPRESENTATION_CONTEXT('2D SPACE',''
  ) );
#54 = ORIENTED_EDGE('',*,*,#55,.F.);
#55 = EDGE_CURVE('',#56,#22,#58,.T.);
#56 = VERTEX_POINT('',#57);
#57 = CARTESIAN_POINT('',(4.944590031171E-02,14.050121070039,
    -47.52014022648));
#58 = SEAM_CURVE('',#59,(#63,#70),.PCURVE_S1.);
#59 = LINE('',#60,#61);
#60 = CARTESIAN_POINT('',(4.944590031171E-02,14.050121070039,
    -47.52014022648));
#61 = VECTOR('',#62,1.);
#62 = DIRECTION('',(-5.956000083305E-05,-0.999999965694,
    -2.550784159731E-04));
#63 = PCURVE('',#31,#64);
#64 = DEFINITIONAL_REPRESENTATION('',(#65),#69);
#65 = LINE('',#66,#67);
#66 = CARTESIAN_POINT('',(6.28318530718,-0.));
#67 = VECTOR('',#68,1.);
#68 = DIRECTION('',(0.,1.));
#69 = ( GEOMETRIC_REPRESENTATION_CONTEXT(2) 
PARAMETRIC_REPRESENTATION_CONTEXT() REPRESENTATION_CONTEXT('2D SPACE',''
  ) );
#70 = PCURVE('',#31,#71);
#71 = DEFINITIONAL_REPRESENTATION('',(#72),#76);
#72 = LINE('',#73,#74);
#73 = CARTESIAN_POINT('',(0.,-0.));
#74 = VECTOR('',#75,1.);
#75 = DIRECTION('',(0.,1.));
#76 = ( GEOMETRIC_REPRESENTATION_CONTEXT(2) 
PARAMETRIC_REPRESENTATION_CONTEXT() REPRESENTATION_CONTEXT('2D SPACE',''
  ) );
#77 = ORIENTED_EDGE('',*,*,#78,.T.);
#78 = EDGE_CURVE('',#56,#56,#79,.T.);
#79 = SURFACE_CURVE('',#80,(#85,#92),.PCURVE_S1.);
#80 = CIRCLE('',#81,47.500031408961);
#81 = AXIS2_PLACEMENT_3D('',#82,#83,#84);
#82 = CARTESIAN_POINT('',(4.944590031172E-02,14.038004837247,
    -2.011036282101E-02));
#83 = DIRECTION('',(-5.956000083305E-05,-0.999999965694,
    -2.550784159731E-04));
#84 = DIRECTION('',(0.,2.550784164256E-04,-0.999999967468));
#85 = PCURVE('',#31,#86);
#86 = DEFINITIONAL_REPRESENTATION('',(#87),#91);
#87 = LINE('',#88,#89);
#88 = CARTESIAN_POINT('',(0.,0.));
#89 = VECTOR('',#90,1.);
#90 = DIRECTION('',(1.,0.));
#91 = ( GEOMETRIC_REPRESENTATION_CONTEXT(2) 
PARAMETRIC_REPRESENTATION_CONTEXT() REPRESENTATION_CONTEXT('2D SPACE',''
  ) );
#92 = PCURVE('',#93,#98);
#93 = PLANE('',#94);
#94 = AXIS2_PLACEMENT_3D('',#95,#96,#97);
#95 = CARTESIAN_POINT('',(4.944590031172E-02,14.038004837247,
    -2.011036282101E-02));
#96 = DIRECTION('',(-5.956000083305E-05,-0.999999965694,
    -2.550784159731E-04));
#97 = DIRECTION('',(0.,2.550784164256E-04,-0.999999967468));
#98 = DEFINITIONAL_REPRESENTATION('',(#99),#103);
#99 = CIRCLE('',#100,47.500031408961);
#100 = AXIS2_PLACEMENT_2D('',#101,#102);
#101 = CARTESIAN_POINT('',(0.,0.));
#102 = DIRECTION('',(1.,0.));
#103 = ( GEOMETRIC_REPRESENTATION_CONTEXT(2) 
PARAMETRIC_REPRESENTATION_CONTEXT() REPRESENTATION_CONTEXT('2D SPACE',''
  ) );
#104 = ORIENTED_EDGE('',*,*,#55,.T.);
#105 = ADVANCED_FACE('',(#106,#109,#144),#43,.T.);
#106 = FACE_BOUND('',#107,.T.);
#107 = EDGE_LOOP('',(#108));
#108 = ORIENTED_EDGE('',*,*,#21,.T.);
#109 = FACE_BOUND('',#110,.T.);
#110 = EDGE_LOOP('',(#111));
#111 = ORIENTED_EDGE('',*,*,#112,.T.);
#112 = EDGE_CURVE('',#113,#113,#115,.T.);
#113 = VERTEX_POINT('',#114);
#114 = CARTESIAN_POINT('',(4.860753283952E-02,-4.087942755517E-02,
    11.226286551002));
#115 = SURFACE_CURVE('',#116,(#121,#132),.PCURVE_S1.);
#116 = CIRCLE('',#117,11.249987767453);
#117 = AXIS2_PLACEMENT_3D('',#118,#119,#120);
#118 = CARTESIAN_POINT('',(4.860753283953E-02,-3.800979849064E-02,
    -2.370085046069E-02));
#119 = DIRECTION('',(5.956000083305E-05,0.999999965694,
    2.550784159731E-04));
#120 = DIRECTION('',(0.,-2.550784164256E-04,0.999999967468));
#121 = PCURVE('',#43,#122);
#122 = DEFINITIONAL_REPRESENTATION('',(#123),#131);
#123 = ( BOUNDED_CURVE() B_SPLINE_CURVE(2,(#124,#125,#126,#127,#128,#129
,#130),.UNSPECIFIED.,.T.,.F.) B_SPLINE_CURVE_WITH_KNOTS((1,2,2,2,2,1),(
    -2.094395102393,0.,2.094395102393,4.188790204786,6.28318530718,
8.377580409573),.UNSPECIFIED.) CURVE() GEOMETRIC_REPRESENTATION_ITEM() 
RATIONAL_B_SPLINE_CURVE((1.,0.5,1.,0.5,1.,0.5,1.)) REPRESENTATION_ITEM(
  '') );
#124 = CARTESIAN_POINT('',(-11.24998776745,-6.932318573765E-18));
#125 = CARTESIAN_POINT('',(-11.24998776745,19.485550397757));
#126 = CARTESIAN_POINT('',(5.624993883727,9.742775198879));
#127 = CARTESIAN_POINT('',(22.499975534907,2.748520095067E-15));
#128 = CARTESIAN_POINT('',(5.624993883727,-9.742775198879));
#129 = CARTESIAN_POINT('',(-11.24998776745,-19.48555039775));
#130 = CARTESIAN_POINT('',(-11.24998776745,-6.932318573765E-18));
#131 = ( GEOMETRIC_REPRESENTATION_CONTEXT(2) 
PARAMETRIC_REPRESENTATION_CONTEXT() REPRESENTATION_CONTEXT('2D SPACE',''
  ) );
#132 = PCURVE('',#133,#138);
#133 = CYLINDRICAL_SURFACE('',#134,11.249987767453);
#134 = AXIS2_PLACEMENT_3D('',#135,#136,#137);
#135 = CARTESIAN_POINT('',(4.854935091786E-02,-1.014872103049,
    -2.39500269585E-02));
#136 = DIRECTION('',(5.956000083305E-05,0.999999965694,
    2.550784159731E-04));
#137 = DIRECTION('',(0.,-2.550784164256E-04,0.999999967468));
#138 = DEFINITIONAL_REPRESENTATION('',(#139),#143);
#139 = LINE('',#140,#141);
#140 = CARTESIAN_POINT('',(0.,0.976862338071));
#141 = VECTOR('',#142,1.);
#142 = DIRECTION('',(1.,0.));
#143 = ( GEOMETRIC_REPRESENTATION_CONTEXT(2) 
PARAMETRIC_REPRESENTATION_CONTEXT() REPRESENTATION_CONTEXT('2D SPACE',''
  ) );
#144 = FACE_BOUND('',#145,.T.);
#145 = EDGE_LOOP('',(#146));
#146 = ORIENTED_EDGE('',*,*,#147,.F.);
#147 = EDGE_CURVE('',#148,#148,#150,.T.);
#148 = VERTEX_POINT('',#149);
#149 = CARTESIAN_POINT('',(26.001793687491,-3.956605264447E-02,
    1.739361617009E-02));
#150 = SURFACE_CURVE('',#151,(#156,#163),.PCURVE_S1.);
#151 = ELLIPSE('',#152,6.49996907363,6.499963943367);
#152 = AXIS2_PLACEMENT_3D('',#153,#154,#155);
#153 = CARTESIAN_POINT('',(32.501759708425,-3.995318969257E-02,
    1.738990432515E-02));
#154 = DIRECTION('',(-5.956000083305E-05,-0.999999965694,
    -2.550784159731E-04));
#155 = DIRECTION('',(-0.638130184605,-1.583851045693E-04,0.769928465775)
  );
#156 = PCURVE('',#43,#157);
#157 = DEFINITIONAL_REPRESENTATION('',(#158),#162);
#158 = ELLIPSE('',#159,6.49996907363,6.499963943367);
#159 = AXIS2_PLACEMENT_2D('',#160,#161);
#160 = CARTESIAN_POINT('',(-4.10912491662E-02,32.453152233147));
#161 = DIRECTION('',(-0.769928481127,-0.638130185737));
#162 = ( GEOMETRIC_REPRESENTATION_CONTEXT(2) 
PARAMETRIC_REPRESENTATION_CONTEXT() REPRESENTATION_CONTEXT('2D SPACE',''
  ) );
#163 = PCURVE('',#164,#169);
#164 = CYLINDRICAL_SURFACE('',#165,6.499963943367);
#165 = AXIS2_PLACEMENT_3D('',#166,#167,#168);
#166 = CARTESIAN_POINT('',(32.514681923435,14.963035414208,
    6.70383165018E-03));
#167 = DIRECTION('',(-8.613088552189E-04,-0.999999375414,
    7.122624886767E-04));
#168 = DIRECTION('',(-0.999999629073,8.613090736977E-04,0.));
#169 = DEFINITIONAL_REPRESENTATION('',(#170),#187);
#170 = B_SPLINE_CURVE_WITH_KNOTS('',8,(#171,#172,#173,#174,#175,#176,
    #177,#178,#179,#180,#181,#182,#183,#184,#185,#186),.UNSPECIFIED.,.F.
  ,.F.,(9,7,9),(0.878728900332,4.020321553921,7.161914207511),
  .UNSPECIFIED.);
#171 = CARTESIAN_POINT('',(0.,15.008209318687));
#172 = CARTESIAN_POINT('',(0.392699081699,15.005740150992));
#173 = CARTESIAN_POINT('',(0.785398163397,15.002352343707));
#174 = CARTESIAN_POINT('',(1.178097245084,14.998627775793));
#175 = CARTESIAN_POINT('',(1.570796326768,14.995441445135));
#176 = CARTESIAN_POINT('',(1.963495408491,14.993713973163));
#177 = CARTESIAN_POINT('',(2.356194490195,14.993766895235));
#178 = CARTESIAN_POINT('',(2.748893571891,14.995317462732));
#179 = CARTESIAN_POINT('',(3.534291735289,15.000255798123));
#180 = CARTESIAN_POINT('',(3.926990816981,15.003643605385));
#181 = CARTESIAN_POINT('',(4.31968989869,15.007368173305));
#182 = CARTESIAN_POINT('',(4.712388980323,15.010554503853));
#183 = CARTESIAN_POINT('',(5.105088062072,15.01228197592));
#184 = CARTESIAN_POINT('',(5.497787143781,15.012229053862));
#185 = CARTESIAN_POINT('',(5.890486225481,15.010678486383));
#186 = CARTESIAN_POINT('',(6.28318530718,15.008209318687));
#187 = ( GEOMETRIC_REPRESENTATION_CONTEXT(2) 
PARAMETRIC_REPRESENTATION_CONTEXT() REPRESENTATION_CONTEXT('2D SPACE',''
  ) );
#188 = ADVANCED_FACE('',(#189,#192,#222),#93,.F.);
#189 = FACE_BOUND('',#190,.F.);
#190 = EDGE_LOOP('',(#191));
#191 = ORIENTED_EDGE('',*,*,#78,.T.);
#192 = FACE_BOUND('',#193,.F.);
#193 = EDGE_LOOP('',(#194));
#194 = ORIENTED_EDGE('',*,*,#195,.T.);
#195 = EDGE_CURVE('',#196,#196,#198,.T.);
#196 = VERTEX_POINT('',#197);
#197 = CARTESIAN_POINT('',(4.944590031171E-02,14.035135208182,
    11.229877038642));
#198 = SURFACE_CURVE('',#199,(#204,#215),.PCURVE_S1.);
#199 = CIRCLE('',#200,11.249987767453);
#200 = AXIS2_PLACEMENT_3D('',#201,#202,#203);
#201 = CARTESIAN_POINT('',(4.944590031172E-02,14.038004837247,
    -2.011036282101E-02));
#202 = DIRECTION('',(5.956000083305E-05,0.999999965694,
    2.550784159731E-04));
#203 = DIRECTION('',(0.,-2.550784164256E-04,0.999999967468));
#204 = PCURVE('',#93,#205);
#205 = DEFINITIONAL_REPRESENTATION('',(#206),#214);
#206 = ( BOUNDED_CURVE() B_SPLINE_CURVE(2,(#207,#208,#209,#210,#211,#212
,#213),.UNSPECIFIED.,.T.,.F.) B_SPLINE_CURVE_WITH_KNOTS((1,2,2,2,2,1),(
    -2.094395102393,0.,2.094395102393,4.188790204786,6.28318530718,
8.377580409573),.UNSPECIFIED.) CURVE() GEOMETRIC_REPRESENTATION_ITEM() 
RATIONAL_B_SPLINE_CURVE((1.,0.5,1.,0.5,1.,0.5,1.)) REPRESENTATION_ITEM(
  '') );
#207 = CARTESIAN_POINT('',(-11.24998776745,-6.833131250585E-18));
#208 = CARTESIAN_POINT('',(-11.24998776745,19.485550397757));
#209 = CARTESIAN_POINT('',(5.624993883727,9.742775198879));
#210 = CARTESIAN_POINT('',(22.499975534907,2.74861928239E-15));
#211 = CARTESIAN_POINT('',(5.624993883727,-9.742775198879));
#212 = CARTESIAN_POINT('',(-11.24998776745,-19.48555039775));
#213 = CARTESIAN_POINT('',(-11.24998776745,-6.833131250585E-18));
#214 = ( GEOMETRIC_REPRESENTATION_CONTEXT(2) 
PARAMETRIC_REPRESENTATION_CONTEXT() REPRESENTATION_CONTEXT('2D SPACE',''
  ) );
#215 = PCURVE('',#133,#216);
#216 = DEFINITIONAL_REPRESENTATION('',(#217),#221);
#217 = LINE('',#218,#219);
#218 = CARTESIAN_POINT('',(0.,15.052877456702));
#219 = VECTOR('',#220,1.);
#220 = DIRECTION('',(1.,0.));
#221 = ( GEOMETRIC_REPRESENTATION_CONTEXT(2) 
PARAMETRIC_REPRESENTATION_CONTEXT() REPRESENTATION_CONTEXT('2D SPACE',''
  ) );
#222 = FACE_BOUND('',#223,.F.);
#223 = EDGE_LOOP('',(#224));
#224 = ORIENTED_EDGE('',*,*,#225,.F.);
#225 = EDGE_CURVE('',#226,#226,#228,.T.);
#226 = VERTEX_POINT('',#227);
#227 = CARTESIAN_POINT('',(26.013917493528,14.03645138416,
    7.36779069791E-03));
#228 = SURFACE_CURVE('',#229,(#234,#241),.PCURVE_S1.);
#229 = ELLIPSE('',#230,6.49996907363,6.499963943367);
#230 = AXIS2_PLACEMENT_3D('',#231,#232,#233);
#231 = CARTESIAN_POINT('',(32.513883514462,14.036064247112,
    7.364078852969E-03));
#232 = DIRECTION('',(-5.956000083305E-05,-0.999999965694,
    -2.550784159731E-04));
#233 = DIRECTION('',(-0.638130184605,-1.583851045693E-04,0.769928465775)
  );
#234 = PCURVE('',#93,#235);
#235 = DEFINITIONAL_REPRESENTATION('',(#236),#240);
#236 = ELLIPSE('',#237,6.49996907363,6.499963943367);
#237 = AXIS2_PLACEMENT_2D('',#238,#239);
#238 = CARTESIAN_POINT('',(-2.747493578283E-02,32.464437671732));
#239 = DIRECTION('',(-0.769928481127,-0.638130185737));
#240 = ( GEOMETRIC_REPRESENTATION_CONTEXT(2) 
PARAMETRIC_REPRESENTATION_CONTEXT() REPRESENTATION_CONTEXT('2D SPACE',''
  ) );
#241 = PCURVE('',#164,#242);
#242 = DEFINITIONAL_REPRESENTATION('',(#243),#260);
#243 = B_SPLINE_CURVE_WITH_KNOTS('',8,(#244,#245,#246,#247,#248,#249,
    #250,#251,#252,#253,#254,#255,#256,#257,#258,#259),.UNSPECIFIED.,.F.
  ,.F.,(9,7,9),(0.878728900332,4.020321553921,7.161914207511),
  .UNSPECIFIED.);
#244 = CARTESIAN_POINT('',(0.,0.9321830902));
#245 = CARTESIAN_POINT('',(0.392699081699,0.929713922504));
#246 = CARTESIAN_POINT('',(0.785398163397,0.926326115229));
#247 = CARTESIAN_POINT('',(1.178097245084,0.92260154731));
#248 = CARTESIAN_POINT('',(1.570796326768,0.919415216696));
#249 = CARTESIAN_POINT('',(1.963495408491,0.917687744678));
#250 = CARTESIAN_POINT('',(2.356194490195,0.917740666752));
#251 = CARTESIAN_POINT('',(2.748893571891,0.919291234244));
#252 = CARTESIAN_POINT('',(3.534291735289,0.924229569635));
#253 = CARTESIAN_POINT('',(3.926990816981,0.92761737691));
#254 = CARTESIAN_POINT('',(4.31968989869,0.931341944826));
#255 = CARTESIAN_POINT('',(4.712388980323,0.934528275447));
#256 = CARTESIAN_POINT('',(5.105088062072,0.936255747457));
#257 = CARTESIAN_POINT('',(5.497787143781,0.936202825387));
#258 = CARTESIAN_POINT('',(5.890486225481,0.934652257895));
#259 = CARTESIAN_POINT('',(6.28318530718,0.9321830902));
#260 = ( GEOMETRIC_REPRESENTATION_CONTEXT(2) 
PARAMETRIC_REPRESENTATION_CONTEXT() REPRESENTATION_CONTEXT('2D SPACE',''
  ) );
#261 = ADVANCED_FACE('',(#262),#133,.F.);
#262 = FACE_BOUND('',#263,.F.);
#263 = EDGE_LOOP('',(#264,#265,#286,#287));
#264 = ORIENTED_EDGE('',*,*,#195,.F.);
#265 = ORIENTED_EDGE('',*,*,#266,.F.);
#266 = EDGE_CURVE('',#113,#196,#267,.T.);
#267 = SEAM_CURVE('',#268,(#272,#279),.PCURVE_S1.);
#268 = LINE('',#269,#270);
#269 = CARTESIAN_POINT('',(4.854935091785E-02,-1.017741732113,
    11.226037374505));
#270 = VECTOR('',#271,1.);
#271 = DIRECTION('',(5.956000083305E-05,0.999999965694,
    2.550784159731E-04));
#272 = PCURVE('',#133,#273);
#273 = DEFINITIONAL_REPRESENTATION('',(#274),#278);
#274 = LINE('',#275,#276);
#275 = CARTESIAN_POINT('',(6.28318530718,-0.));
#276 = VECTOR('',#277,1.);
#277 = DIRECTION('',(0.,1.));
#278 = ( GEOMETRIC_REPRESENTATION_CONTEXT(2) 
PARAMETRIC_REPRESENTATION_CONTEXT() REPRESENTATION_CONTEXT('2D SPACE',''
  ) );
#279 = PCURVE('',#133,#280);
#280 = DEFINITIONAL_REPRESENTATION('',(#281),#285);
#281 = LINE('',#282,#283);
#282 = CARTESIAN_POINT('',(0.,-0.));
#283 = VECTOR('',#284,1.);
#284 = DIRECTION('',(0.,1.));
#285 = ( GEOMETRIC_REPRESENTATION_CONTEXT(2) 
PARAMETRIC_REPRESENTATION_CONTEXT() REPRESENTATION_CONTEXT('2D SPACE',''
  ) );
#286 = ORIENTED_EDGE('',*,*,#112,.T.);
#287 = ORIENTED_EDGE('',*,*,#266,.T.);
#288 = ADVANCED_FACE('',(#289),#164,.F.);
#289 = FACE_BOUND('',#290,.F.);
#290 = EDGE_LOOP('',(#291,#292,#313,#314));
#291 = ORIENTED_EDGE('',*,*,#147,.F.);
#292 = ORIENTED_EDGE('',*,*,#293,.F.);
#293 = EDGE_CURVE('',#226,#148,#294,.T.);
#294 = SEAM_CURVE('',#295,(#299,#306),.PCURVE_S1.);
#295 = LINE('',#296,#297);
#296 = CARTESIAN_POINT('',(26.014720391079,14.968633892131,
    6.703831650182E-03));
#297 = VECTOR('',#298,1.);
#298 = DIRECTION('',(-8.613088552189E-04,-0.999999375414,
    7.122624886767E-04));
#299 = PCURVE('',#164,#300);
#300 = DEFINITIONAL_REPRESENTATION('',(#301),#305);
#301 = LINE('',#302,#303);
#302 = CARTESIAN_POINT('',(6.28318530718,-0.));
#303 = VECTOR('',#304,1.);
#304 = DIRECTION('',(0.,1.));
#305 = ( GEOMETRIC_REPRESENTATION_CONTEXT(2) 
PARAMETRIC_REPRESENTATION_CONTEXT() REPRESENTATION_CONTEXT('2D SPACE',''
  ) );
#306 = PCURVE('',#164,#307);
#307 = DEFINITIONAL_REPRESENTATION('',(#308),#312);
#308 = LINE('',#309,#310);
#309 = CARTESIAN_POINT('',(0.,-0.));
#310 = VECTOR('',#311,1.);
#311 = DIRECTION('',(0.,1.));
#312 = ( GEOMETRIC_REPRESENTATION_CONTEXT(2) 
PARAMETRIC_REPRESENTATION_CONTEXT() REPRESENTATION_CONTEXT('2D SPACE',''
  ) );
#313 = ORIENTED_EDGE('',*,*,#225,.T.);
#314 = ORIENTED_EDGE('',*,*,#293,.T.);
#315 = ( GEOMETRIC_REPRESENTATION_CONTEXT(3) 
GLOBAL_UNCERTAINTY_ASSIGNED_CONTEXT((#319)) GLOBAL_UNIT_ASSIGNED_CONTEXT
((#316,#317,#318)) REPRESENTATION_CONTEXT('Context #1',
  '3D Context with UNIT and UNCERTAINTY') );
#316 = ( LENGTH_UNIT() NAMED_UNIT(*) SI_UNIT(.MILLI.,.METRE.) );
#317 = ( NAMED_UNIT(*) PLANE_ANGLE_UNIT() SI_UNIT($,.RADIAN.) );
#318 = ( NAMED_UNIT(*) SI_UNIT($,.STERADIAN.) SOLID_ANGLE_UNIT() );
#319 = UNCERTAINTY_MEASURE_WITH_UNIT(LENGTH_MEASURE(1.E-07),#316,
  'distance_accuracy_value','confusion accuracy');
#320 = PRODUCT_TYPE('part',$,(#7));
ENDSEC;
END-ISO-10303-21;
