ISO-10303-21;
HEADER;
FILE_DESCRIPTION(('Open CASCADE Model'),'2;1');
FILE_NAME('Open CASCADE Shape Model','2026-09-07T09:39:31',('Author'),(
    'Open CASCADE'),'Open CASCADE STEP processor 7.8','Open CASCADE 7.8'
  ,'Unknown');
FILE_SCHEMA(('CONFIG_CONTROL_DESIGN'));
ENDSEC;
DATA;
#1 = APPLICATION_PROTOCOL_DEFINITION('committee draft',
  'automotive_design',1997,#2);
#2 = APPLICATION_CONTEXT(
  'core data for automotive mechanical design processes');
#3 = SHAPE_DEFINITION_REPRESENTATION(#4,#10);
#4 = PRODUCT_DEFINITION_SHAPE('','',#5);
#5 = PRODUCT_DEFINITION('design','',#6,#9);
#6 = PRODUCT_DEFINITION_FORMATION('','',#7);
#7 = PRODUCT('Product 15','Product 15','',(#8));
#8 = MECHANICAL_CONTEXT('',#2,'mechanical');
#9 = PRODUCT_DEFINITION_CONTEXT('part definition',#2,'design');
#10 = ADVANCED_BREP_SHAPE_REPRESENTATION('',(#11,#15),#517);
#11 = AXIS2_PLACEMENT_3D('',#12,#13,#14);
#12 = CARTESIAN_POINT('',(0.,0.,0.));
#13 = DIRECTION('',(0.,0.,1.));
#14 = DIRECTION('',(1.,0.,-0.));
#15 = MANIFOLD_SOLID_BREP('',#16);
#16 = CLOSED_SHELL('',(#17,#105,#233,#377,#404,#431,#458,#513));
#17 = ADVANCED_FACE('',(#18),#31,.T.);
#18 = FACE_BOUND('',#19,.T.);
#19 = EDGE_LOOP('',(#20,#54,#77,#104));
#20 = ORIENTED_EDGE('',*,*,#21,.F.);
#21 = EDGE_CURVE('',#22,#22,#24,.T.);
#22 = VERTEX_POINT('',#23);
#23 = CARTESIAN_POINT('',(1.397774662719E-02,-0.202871673096,
    -46.96941536103));
#24 = SURFACE_CURVE('',#25,(#30,#42),.PCURVE_S1.);
#25 = CIRCLE('',#26,47.007458174431);
#26 = AXIS2_PLACEMENT_3D('',#27,#28,#29);
#27 = CARTESIAN_POINT('',(1.39777466272E-02,-0.138392076103,
    3.799859040753E-02));
#28 = DIRECTION('',(5.818954601866E-04,-0.999998889934,
    1.371688420965E-03));
#29 = DIRECTION('',(-5.293955920339E-22,-1.371688653194E-03,
    -0.999999059235));
#30 = PCURVE('',#31,#36);
#31 = CYLINDRICAL_SURFACE('',#32,47.007458174431);
#32 = AXIS2_PLACEMENT_3D('',#33,#34,#35);
#33 = CARTESIAN_POINT('',(1.148898036899E-02,4.13860210205,
    3.213188050438E-02));
#34 = DIRECTION('',(5.818954601866E-04,-0.999998889934,
    1.371688420965E-03));
#35 = DIRECTION('',(-2.117582368136E-22,-1.371688653194E-03,
    -0.999999059235));
#36 = DEFINITIONAL_REPRESENTATION('',(#37),#41);
#37 = LINE('',#38,#39);
#38 = CARTESIAN_POINT('',(0.,4.276998925905));
#39 = VECTOR('',#40,1.);
#40 = DIRECTION('',(1.,0.));
#41 = ( GEOMETRIC_REPRESENTATION_CONTEXT(2) 
PARAMETRIC_REPRESENTATION_CONTEXT() REPRESENTATION_CONTEXT('2D SPACE',''
  ) );
#42 = PCURVE('',#43,#48);
#43 = PLANE('',#44);
#44 = AXIS2_PLACEMENT_3D('',#45,#46,#47);
#45 = CARTESIAN_POINT('',(1.39777466272E-02,-0.138392076103,
    3.799859040753E-02));
#46 = DIRECTION('',(5.818954601866E-04,-0.999998889934,
    1.371688420965E-03));
#47 = DIRECTION('',(-2.117582368136E-22,-1.371688653194E-03,
    -0.999999059235));
#48 = DEFINITIONAL_REPRESENTATION('',(#49),#53);
#49 = CIRCLE('',#50,47.007458174431);
#50 = AXIS2_PLACEMENT_2D('',#51,#52);
#51 = CARTESIAN_POINT('',(0.,0.));
#52 = DIRECTION('',(1.,0.));
#53 = ( GEOMETRIC_REPRESENTATION_CONTEXT(2) 
PARAMETRIC_REPRESENTATION_CONTEXT() REPRESENTATION_CONTEXT('2D SPACE',''
  ) );
#54 = ORIENTED_EDGE('',*,*,#55,.F.);
#55 = EDGE_CURVE('',#56,#22,#58,.T.);
#56 = VERTEX_POINT('',#57);
#57 = CARTESIAN_POINT('',(1.148898036898E-02,4.074122505056,
    -46.97528207094));
#58 = SEAM_CURVE('',#59,(#63,#70),.PCURVE_S1.);
#59 = LINE('',#60,#61);
#60 = CARTESIAN_POINT('',(1.148898036898E-02,4.074122505056,
    -46.97528207094));
#61 = VECTOR('',#62,1.);
#62 = DIRECTION('',(5.818954601866E-04,-0.999998889934,
    1.371688420965E-03));
#63 = PCURVE('',#31,#64);
#64 = DEFINITIONAL_REPRESENTATION('',(#65),#69);
#65 = LINE('',#66,#67);
#66 = CARTESIAN_POINT('',(6.28318530718,-0.));
#67 = VECTOR('',#68,1.);
#68 = DIRECTION('',(0.,1.));
#69 = ( GEOMETRIC_REPRESENTATION_CONTEXT(2) 
PARAMETRIC_REPRESENTATION_CONTEXT() REPRESENTATION_CONTEXT('2D SPACE',''
  ) );
#70 = PCURVE('',#31,#71);
#71 = DEFINITIONAL_REPRESENTATION('',(#72),#76);
#72 = LINE('',#73,#74);
#73 = CARTESIAN_POINT('',(0.,-0.));
#74 = VECTOR('',#75,1.);
#75 = DIRECTION('',(0.,1.));
#76 = ( GEOMETRIC_REPRESENTATION_CONTEXT(2) 
PARAMETRIC_REPRESENTATION_CONTEXT() REPRESENTATION_CONTEXT('2D SPACE',''
  ) );
#77 = ORIENTED_EDGE('',*,*,#78,.T.);
#78 = EDGE_CURVE('',#56,#56,#79,.T.);
#79 = SURFACE_CURVE('',#80,(#85,#92),.PCURVE_S1.);
#80 = CIRCLE('',#81,47.007458174431);
#81 = AXIS2_PLACEMENT_3D('',#82,#83,#84);
#82 = CARTESIAN_POINT('',(1.148898036899E-02,4.13860210205,
    3.213188050438E-02));
#83 = DIRECTION('',(5.818954601866E-04,-0.999998889934,
    1.371688420965E-03));
#84 = DIRECTION('',(-5.293955920339E-22,-1.371688653194E-03,
    -0.999999059235));
#85 = PCURVE('',#31,#86);
#86 = DEFINITIONAL_REPRESENTATION('',(#87),#91);
#87 = LINE('',#88,#89);
#88 = CARTESIAN_POINT('',(0.,0.));
#89 = VECTOR('',#90,1.);
#90 = DIRECTION('',(1.,0.));
#91 = ( GEOMETRIC_REPRESENTATION_CONTEXT(2) 
PARAMETRIC_REPRESENTATION_CONTEXT() REPRESENTATION_CONTEXT('2D SPACE',''
  ) );
#92 = PCURVE('',#93,#98);
#93 = PLANE('',#94);
#94 = AXIS2_PLACEMENT_3D('',#95,#96,#97);
#95 = CARTESIAN_POINT('',(1.148898036899E-02,4.13860210205,
    3.213188050438E-02));
#96 = DIRECTION('',(5.818954601866E-04,-0.999998889934,
    1.371688420965E-03));
#97 = DIRECTION('',(-2.117582368136E-22,-1.371688653194E-03,
    -0.999999059235));
#98 = DEFINITIONAL_REPRESENTATION('',(#99),#103);
#99 = CIRCLE('',#100,47.007458174431);
#100 = AXIS2_PLACEMENT_2D('',#101,#102);
#101 = CARTESIAN_POINT('',(0.,0.));
#102 = DIRECTION('',(1.,0.));
#103 = ( GEOMETRIC_REPRESENTATION_CONTEXT(2) 
PARAMETRIC_REPRESENTATION_CONTEXT() REPRESENTATION_CONTEXT('2D SPACE',''
  ) );
#104 = ORIENTED_EDGE('',*,*,#55,.T.);
#105 = ADVANCED_FACE('',(#106,#109,#151,#191),#43,.T.);
#106 = FACE_BOUND('',#107,.T.);
#107 = EDGE_LOOP('',(#108));
#108 = ORIENTED_EDGE('',*,*,#21,.T.);
#109 = FACE_BOUND('',#110,.T.);
#110 = EDGE_LOOP('',(#111));
#111 = ORIENTED_EDGE('',*,*,#112,.F.);
#112 = EDGE_CURVE('',#113,#113,#115,.T.);
#113 = VERTEX_POINT('',#114);
#114 = CARTESIAN_POINT('',(-22.25144323739,-0.103880910554,
    34.64299627367));
#115 = SURFACE_CURVE('',#116,(#121,#128),.PCURVE_S1.);
#116 = ELLIPSE('',#117,2.249923934963,2.249920005085);
#117 = AXIS2_PLACEMENT_3D('',#118,#119,#120);
#118 = CARTESIAN_POINT('',(-20.00152229661,-0.10257168981,
    34.642996644726));
#119 = DIRECTION('',(5.818954601866E-04,-0.999998889934,
    1.371688420965E-03));
#120 = DIRECTION('',(-0.578814058153,-1.455365536422E-03,-0.81545825644)
  );
#121 = PCURVE('',#43,#122);
#122 = DEFINITIONAL_REPRESENTATION('',(#123),#127);
#123 = ELLIPSE('',#124,2.249923934963,2.249920005085);
#124 = AXIS2_PLACEMENT_2D('',#125,#126);
#125 = CARTESIAN_POINT('',(-34.60501463355,-20.01550343188));
#126 = DIRECTION('',(0.815459485593,-0.578814156147));
#127 = ( GEOMETRIC_REPRESENTATION_CONTEXT(2) 
PARAMETRIC_REPRESENTATION_CONTEXT() REPRESENTATION_CONTEXT('2D SPACE',''
  ) );
#128 = PCURVE('',#129,#134);
#129 = CYLINDRICAL_SURFACE('',#130,2.249920005085);
#130 = AXIS2_PLACEMENT_3D('',#131,#132,#133);
#131 = CARTESIAN_POINT('',(-19.99932014516,4.302287366654,34.64366814171
    ));
#132 = DIRECTION('',(-4.999368015407E-04,-0.999999863412,
    -1.524445807145E-04));
#133 = DIRECTION('',(-0.999999875032,4.999368073498E-04,0.));
#134 = DEFINITIONAL_REPRESENTATION('',(#135),#150);
#135 = B_SPLINE_CURVE_WITH_KNOTS('',7,(#136,#137,#138,#139,#140,#141,
    #142,#143,#144,#145,#146,#147,#148,#149),.UNSPECIFIED.,.F.,.F.,(8,6,
    8),(5.329662854654,8.471255508244,11.612848161834),.UNSPECIFIED.);
#136 = CARTESIAN_POINT('',(-3.552713678801E-15,4.407293697016));
#137 = CARTESIAN_POINT('',(0.448798950513,4.40883271064));
#138 = CARTESIAN_POINT('',(0.897597901024,4.409798531158));
#139 = CARTESIAN_POINT('',(1.34639685154,4.409694946654));
#140 = CARTESIAN_POINT('',(1.795195802047,4.408257205846));
#141 = CARTESIAN_POINT('',(2.243994752566,4.406074598276));
#142 = CARTESIAN_POINT('',(2.692793703077,4.40396463284));
#143 = CARTESIAN_POINT('',(3.590391604103,4.400886605591));
#144 = CARTESIAN_POINT('',(4.039190554616,4.399920785074));
#145 = CARTESIAN_POINT('',(4.487989505129,4.400024369576));
#146 = CARTESIAN_POINT('',(4.936788455641,4.401462110387));
#147 = CARTESIAN_POINT('',(5.385587406153,4.403644717955));
#148 = CARTESIAN_POINT('',(5.834386356667,4.405754683391));
#149 = CARTESIAN_POINT('',(6.28318530718,4.407293697016));
#150 = ( GEOMETRIC_REPRESENTATION_CONTEXT(2) 
PARAMETRIC_REPRESENTATION_CONTEXT() REPRESENTATION_CONTEXT('2D SPACE',''
  ) );
#151 = FACE_BOUND('',#152,.T.);
#152 = EDGE_LOOP('',(#153));
#153 = ORIENTED_EDGE('',*,*,#154,.F.);
#154 = EDGE_CURVE('',#155,#155,#157,.T.);
#155 = VERTEX_POINT('',#156);
#156 = CARTESIAN_POINT('',(-17.75795887397,-0.196301879357,
    -34.6406711459));
#157 = SURFACE_CURVE('',#158,(#163,#170),.PCURVE_S1.);
#158 = ELLIPSE('',#159,2.245694977367,2.245692984123);
#159 = AXIS2_PLACEMENT_3D('',#160,#161,#162);
#160 = CARTESIAN_POINT('',(-20.00365147791,-0.197608639139,
    -34.64067114615));
#161 = DIRECTION('',(5.818954601866E-04,-0.999998889934,
    1.371688420965E-03));
#162 = DIRECTION('',(-2.105169842149E-03,1.370460625876E-03,
    0.999996845044));
#163 = PCURVE('',#43,#164);
#164 = DEFINITIONAL_REPRESENTATION('',(#165),#169);
#165 = ELLIPSE('',#166,2.245694977367,2.245692984123);
#166 = AXIS2_PLACEMENT_2D('',#167,#168);
#167 = CARTESIAN_POINT('',(34.678718338761,-20.01763261354));
#168 = DIRECTION('',(-0.999997784127,-2.105170198557E-03));
#169 = ( GEOMETRIC_REPRESENTATION_CONTEXT(2) 
PARAMETRIC_REPRESENTATION_CONTEXT() REPRESENTATION_CONTEXT('2D SPACE',''
  ) );
#170 = PCURVE('',#171,#176);
#171 = CYLINDRICAL_SURFACE('',#172,2.245692984123);
#172 = AXIS2_PLACEMENT_3D('',#173,#174,#175);
#173 = CARTESIAN_POINT('',(-20.00359036651,-0.302126177313,
    -34.64066703476));
#174 = DIRECTION('',(-5.846997763779E-04,0.999999828289,
    -3.933683081887E-05));
#175 = DIRECTION('',(0.999999829063,5.846997768303E-04,
    -3.308722450212E-24));
#176 = DEFINITIONAL_REPRESENTATION('',(#177),#190);
#177 = B_SPLINE_CURVE_WITH_KNOTS('',6,(#178,#179,#180,#181,#182,#183,
    #184,#185,#186,#187,#188,#189),.UNSPECIFIED.,.F.,.F.,(7,5,7),(
    4.710284608789,7.851877262379,10.993469915969),.UNSPECIFIED.);
#178 = CARTESIAN_POINT('',(6.28318530718,0.104511259716));
#179 = CARTESIAN_POINT('',(5.759586531581,0.106077896236));
#180 = CARTESIAN_POINT('',(5.235987755983,0.107645235097));
#181 = CARTESIAN_POINT('',(4.712388980385,0.108454043335));
#182 = CARTESIAN_POINT('',(4.188790204786,0.107653724128));
#183 = CARTESIAN_POINT('',(3.665191429188,0.106090489047));
#184 = CARTESIAN_POINT('',(2.617993877991,0.102957216006));
#185 = CARTESIAN_POINT('',(2.094395102393,0.101389877146));
#186 = CARTESIAN_POINT('',(1.570796326795,0.100581068907));
#187 = CARTESIAN_POINT('',(1.047197551197,0.101381388114));
#188 = CARTESIAN_POINT('',(0.523598775598,0.102944623195));
#189 = CARTESIAN_POINT('',(3.552713678801E-15,0.104511259716));
#190 = ( GEOMETRIC_REPRESENTATION_CONTEXT(2) 
PARAMETRIC_REPRESENTATION_CONTEXT() REPRESENTATION_CONTEXT('2D SPACE',''
  ) );
#191 = FACE_BOUND('',#192,.T.);
#192 = EDGE_LOOP('',(#193));
#193 = ORIENTED_EDGE('',*,*,#194,.F.);
#194 = EDGE_CURVE('',#195,#195,#197,.T.);
#195 = VERTEX_POINT('',#196);
#196 = CARTESIAN_POINT('',(40.000069270572,-0.112080285884,
    2.257187610722));
#197 = SURFACE_CURVE('',#198,(#203,#210),.PCURVE_S1.);
#198 = ELLIPSE('',#199,2.250514593679,2.250514026774);
#199 = AXIS2_PLACEMENT_3D('',#200,#201,#202);
#200 = CARTESIAN_POINT('',(40.000069228638,-0.115167290599,
    6.675601812075E-03));
#201 = DIRECTION('',(5.818954601866E-04,-0.999998889934,
    1.371688420965E-03));
#202 = DIRECTION('',(0.908165751694,1.102660290835E-03,0.418609306622));
#203 = PCURVE('',#43,#204);
#204 = DEFINITIONAL_REPRESENTATION('',(#205),#209);
#205 = ELLIPSE('',#206,2.250514593679,2.250514026774);
#206 = AXIS2_PLACEMENT_2D('',#207,#208);
#207 = CARTESIAN_POINT('',(3.129110195312E-02,39.986098251705));
#208 = DIRECTION('',(-0.418610425315,0.908165905448));
#209 = ( GEOMETRIC_REPRESENTATION_CONTEXT(2) 
PARAMETRIC_REPRESENTATION_CONTEXT() REPRESENTATION_CONTEXT('2D SPACE',''
  ) );
#210 = PCURVE('',#211,#216);
#211 = CYLINDRICAL_SURFACE('',#212,2.250514026774);
#212 = AXIS2_PLACEMENT_3D('',#213,#214,#215);
#213 = CARTESIAN_POINT('',(40.00005740858,-0.303653995269,
    6.878142959566E-03));
#214 = DIRECTION('',(6.271026817938E-05,0.99999942069,
    -1.074564015063E-03));
#215 = DIRECTION('',(0.,1.074564017175E-03,0.999999422656));
#216 = DEFINITIONAL_REPRESENTATION('',(#217),#232);
#217 = B_SPLINE_CURVE_WITH_KNOTS('',7,(#218,#219,#220,#221,#222,#223,
    #224,#225,#226,#227,#228,#229,#230,#231),.UNSPECIFIED.,.F.,.F.,(8,6,
    8),(1.138881713431,4.280474367021,7.42206702061),.UNSPECIFIED.);
#218 = CARTESIAN_POINT('',(6.28318530718,0.189155497572));
#219 = CARTESIAN_POINT('',(5.834386356667,0.188504427373));
#220 = CARTESIAN_POINT('',(5.385587406154,0.187696670444));
#221 = CARTESIAN_POINT('',(4.93678845564,0.18694287804));
#222 = CARTESIAN_POINT('',(4.487989505129,0.186547899203));
#223 = CARTESIAN_POINT('',(4.039190554615,0.186673624653));
#224 = CARTESIAN_POINT('',(3.590391604103,0.187167059955));
#225 = CARTESIAN_POINT('',(2.692793703077,0.188469200353));
#226 = CARTESIAN_POINT('',(2.243994752564,0.189276957282));
#227 = CARTESIAN_POINT('',(1.79519580205,0.190030749686));
#228 = CARTESIAN_POINT('',(1.34639685154,0.190425728523));
#229 = CARTESIAN_POINT('',(0.897597901025,0.190300003073));
#230 = CARTESIAN_POINT('',(0.448798950513,0.189806567771));
#231 = CARTESIAN_POINT('',(1.262898568606E-14,0.189155497572));
#232 = ( GEOMETRIC_REPRESENTATION_CONTEXT(2) 
PARAMETRIC_REPRESENTATION_CONTEXT() REPRESENTATION_CONTEXT('2D SPACE',''
  ) );
#233 = ADVANCED_FACE('',(#234,#237,#274,#305,#340),#93,.F.);
#234 = FACE_BOUND('',#235,.F.);
#235 = EDGE_LOOP('',(#236));
#236 = ORIENTED_EDGE('',*,*,#78,.T.);
#237 = FACE_BOUND('',#238,.F.);
#238 = EDGE_LOOP('',(#239));
#239 = ORIENTED_EDGE('',*,*,#240,.F.);
#240 = EDGE_CURVE('',#241,#241,#243,.T.);
#241 = VERTEX_POINT('',#242);
#242 = CARTESIAN_POINT('',(-22.24930500449,4.17312490169,34.643648280117
    ));
#243 = SURFACE_CURVE('',#244,(#249,#256),.PCURVE_S1.);
#244 = ELLIPSE('',#245,2.249923934963,2.249920005085);
#245 = AXIS2_PLACEMENT_3D('',#246,#247,#248);
#246 = CARTESIAN_POINT('',(-19.99938406371,4.174434122433,
    34.643648651173));
#247 = DIRECTION('',(5.818954601866E-04,-0.999998889934,
    1.371688420965E-03));
#248 = DIRECTION('',(-0.578814058153,-1.455365536422E-03,-0.81545825644)
  );
#249 = PCURVE('',#93,#250);
#250 = DEFINITIONAL_REPRESENTATION('',(#251),#255);
#251 = ELLIPSE('',#252,2.249923934963,2.249920005085);
#252 = AXIS2_PLACEMENT_2D('',#253,#254);
#253 = CARTESIAN_POINT('',(-34.61153335973,-20.01087643194));
#254 = DIRECTION('',(0.815459485593,-0.578814156147));
#255 = ( GEOMETRIC_REPRESENTATION_CONTEXT(2) 
PARAMETRIC_REPRESENTATION_CONTEXT() REPRESENTATION_CONTEXT('2D SPACE',''
  ) );
#256 = PCURVE('',#129,#257);
#257 = DEFINITIONAL_REPRESENTATION('',(#258),#273);
#258 = B_SPLINE_CURVE_WITH_KNOTS('',7,(#259,#260,#261,#262,#263,#264,
    #265,#266,#267,#268,#269,#270,#271,#272),.UNSPECIFIED.,.F.,.F.,(8,6,
    8),(5.329662854654,8.471255508244,11.612848161834),.UNSPECIFIED.);
#259 = CARTESIAN_POINT('',(-3.552713678801E-15,0.130287300584));
#260 = CARTESIAN_POINT('',(0.448798950513,0.131826314209));
#261 = CARTESIAN_POINT('',(0.897597901024,0.132792134727));
#262 = CARTESIAN_POINT('',(1.34639685154,0.13268855022));
#263 = CARTESIAN_POINT('',(1.795195802048,0.131250809414));
#264 = CARTESIAN_POINT('',(2.243994752565,0.129068201844));
#265 = CARTESIAN_POINT('',(2.692793703077,0.126958236408));
#266 = CARTESIAN_POINT('',(3.590391604103,0.12388020916));
#267 = CARTESIAN_POINT('',(4.039190554615,0.122914388642));
#268 = CARTESIAN_POINT('',(4.487989505133,0.123017973148));
#269 = CARTESIAN_POINT('',(4.93678845564,0.124455713954));
#270 = CARTESIAN_POINT('',(5.385587406154,0.126638321524));
#271 = CARTESIAN_POINT('',(5.834386356667,0.12874828696));
#272 = CARTESIAN_POINT('',(6.28318530718,0.130287300584));
#273 = ( GEOMETRIC_REPRESENTATION_CONTEXT(2) 
PARAMETRIC_REPRESENTATION_CONTEXT() REPRESENTATION_CONTEXT('2D SPACE',''
  ) );
#274 = FACE_BOUND('',#275,.F.);
#275 = EDGE_LOOP('',(#276));
#276 = ORIENTED_EDGE('',*,*,#277,.F.);
#277 = EDGE_CURVE('',#278,#278,#280,.T.);
#278 = VERTEX_POINT('',#279);
#279 = CARTESIAN_POINT('',(1.148898036899E-02,4.090622736593,
    -34.94615579991));
#280 = SURFACE_CURVE('',#281,(#286,#293),.PCURVE_S1.);
#281 = CIRCLE('',#282,34.978320586811);
#282 = AXIS2_PLACEMENT_3D('',#283,#284,#285);
#283 = CARTESIAN_POINT('',(1.148898036899E-02,4.13860210205,
    3.213188050438E-02));
#284 = DIRECTION('',(5.818954601866E-04,-0.999998889934,
    1.371688420965E-03));
#285 = DIRECTION('',(-5.293955920339E-22,-1.371688653194E-03,
    -0.999999059235));
#286 = PCURVE('',#93,#287);
#287 = DEFINITIONAL_REPRESENTATION('',(#288),#292);
#288 = CIRCLE('',#289,34.978320586811);
#289 = AXIS2_PLACEMENT_2D('',#290,#291);
#290 = CARTESIAN_POINT('',(-1.218304260314E-18,5.168265040463E-19));
#291 = DIRECTION('',(1.,-3.176373552204E-22));
#292 = ( GEOMETRIC_REPRESENTATION_CONTEXT(2) 
PARAMETRIC_REPRESENTATION_CONTEXT() REPRESENTATION_CONTEXT('2D SPACE',''
  ) );
#293 = PCURVE('',#294,#299);
#294 = CYLINDRICAL_SURFACE('',#295,34.978320586811);
#295 = AXIS2_PLACEMENT_3D('',#296,#297,#298);
#296 = CARTESIAN_POINT('',(8.069260318532E-03,10.015458837193,
    2.407065522062E-02));
#297 = DIRECTION('',(5.818954601866E-04,-0.999998889934,
    1.371688420965E-03));
#298 = DIRECTION('',(-2.117582368136E-22,-1.371688653194E-03,
    -0.999999059235));
#299 = DEFINITIONAL_REPRESENTATION('',(#300),#304);
#300 = LINE('',#301,#302);
#301 = CARTESIAN_POINT('',(0.,5.876863258851));
#302 = VECTOR('',#303,1.);
#303 = DIRECTION('',(1.,0.));
#304 = ( GEOMETRIC_REPRESENTATION_CONTEXT(2) 
PARAMETRIC_REPRESENTATION_CONTEXT() REPRESENTATION_CONTEXT('2D SPACE',''
  ) );
#305 = FACE_BOUND('',#306,.F.);
#306 = EDGE_LOOP('',(#307));
#307 = ORIENTED_EDGE('',*,*,#308,.F.);
#308 = EDGE_CURVE('',#309,#309,#311,.T.);
#309 = VERTEX_POINT('',#310);
#310 = CARTESIAN_POINT('',(-17.76045963651,4.080700108344,
    -34.64083938964));
#311 = SURFACE_CURVE('',#312,(#317,#324),.PCURVE_S1.);
#312 = ELLIPSE('',#313,2.245694977367,2.245692984123);
#313 = AXIS2_PLACEMENT_3D('',#314,#315,#316);
#314 = CARTESIAN_POINT('',(-20.00615224044,4.079393348562,
    -34.64083938988));
#315 = DIRECTION('',(5.818954601866E-04,-0.999998889934,
    1.371688420965E-03));
#316 = DIRECTION('',(-2.105169842149E-03,1.370460625876E-03,
    0.999996845044));
#317 = PCURVE('',#93,#318);
#318 = DEFINITIONAL_REPRESENTATION('',(#319),#323);
#319 = ELLIPSE('',#320,2.245694977367,2.245692984123);
#320 = AXIS2_PLACEMENT_2D('',#321,#322);
#321 = CARTESIAN_POINT('',(34.673019867239,-20.01764460982));
#322 = DIRECTION('',(-0.999997784127,-2.105170198557E-03));
#323 = ( GEOMETRIC_REPRESENTATION_CONTEXT(2) 
PARAMETRIC_REPRESENTATION_CONTEXT() REPRESENTATION_CONTEXT('2D SPACE',''
  ) );
#324 = PCURVE('',#171,#325);
#325 = DEFINITIONAL_REPRESENTATION('',(#326),#339);
#326 = B_SPLINE_CURVE_WITH_KNOTS('',6,(#327,#328,#329,#330,#331,#332,
    #333,#334,#335,#336,#337,#338),.UNSPECIFIED.,.F.,.F.,(7,5,7),(
    4.710284608789,7.851877262379,10.993469915969),.UNSPECIFIED.);
#327 = CARTESIAN_POINT('',(6.28318530718,4.381513981823));
#328 = CARTESIAN_POINT('',(5.759586531581,4.383080618344));
#329 = CARTESIAN_POINT('',(5.235987755983,4.384647957205));
#330 = CARTESIAN_POINT('',(4.712388980385,4.385456765443));
#331 = CARTESIAN_POINT('',(4.188790204786,4.384656446236));
#332 = CARTESIAN_POINT('',(3.665191429188,4.383093211155));
#333 = CARTESIAN_POINT('',(2.617993877991,4.379959938114));
#334 = CARTESIAN_POINT('',(2.094395102393,4.378392599253));
#335 = CARTESIAN_POINT('',(1.570796326795,4.377583791015));
#336 = CARTESIAN_POINT('',(1.047197551196,4.378384110222));
#337 = CARTESIAN_POINT('',(0.523598775598,4.379947345303));
#338 = CARTESIAN_POINT('',(1.59872115546E-14,4.381513981823));
#339 = ( GEOMETRIC_REPRESENTATION_CONTEXT(2) 
PARAMETRIC_REPRESENTATION_CONTEXT() REPRESENTATION_CONTEXT('2D SPACE',''
  ) );
#340 = FACE_BOUND('',#341,.F.);
#341 = EDGE_LOOP('',(#342));
#342 = ORIENTED_EDGE('',*,*,#343,.F.);
#343 = EDGE_CURVE('',#344,#344,#346,.T.);
#344 = VERTEX_POINT('',#345);
#345 = CARTESIAN_POINT('',(40.000337482389,4.164917239687,2.252591700426
    ));
#346 = SURFACE_CURVE('',#347,(#352,#359),.PCURVE_S1.);
#347 = ELLIPSE('',#348,2.250514593679,2.250514026774);
#348 = AXIS2_PLACEMENT_3D('',#349,#350,#351);
#349 = CARTESIAN_POINT('',(40.000337440456,4.161830234972,
    2.079691516127E-03));
#350 = DIRECTION('',(5.818954601866E-04,-0.999998889934,
    1.371688420965E-03));
#351 = DIRECTION('',(0.908165751694,1.102660290835E-03,0.418609306622));
#352 = PCURVE('',#93,#353);
#353 = DEFINITIONAL_REPRESENTATION('',(#354),#358);
#354 = ELLIPSE('',#355,2.250514593679,2.250514026774);
#355 = AXIS2_PLACEMENT_2D('',#356,#357);
#356 = CARTESIAN_POINT('',(3.002029894983E-02,39.988855230247));
#357 = DIRECTION('',(-0.418610425315,0.908165905448));
#358 = ( GEOMETRIC_REPRESENTATION_CONTEXT(2) 
PARAMETRIC_REPRESENTATION_CONTEXT() REPRESENTATION_CONTEXT('2D SPACE',''
  ) );
#359 = PCURVE('',#211,#360);
#360 = DEFINITIONAL_REPRESENTATION('',(#361),#376);
#361 = B_SPLINE_CURVE_WITH_KNOTS('',7,(#362,#363,#364,#365,#366,#367,
    #368,#369,#370,#371,#372,#373,#374,#375),.UNSPECIFIED.,.F.,.F.,(8,6,
    8),(1.138881713431,4.280474367021,7.42206702061),.UNSPECIFIED.);
#362 = CARTESIAN_POINT('',(6.28318530718,4.466155500853));
#363 = CARTESIAN_POINT('',(5.834386356667,4.465504430654));
#364 = CARTESIAN_POINT('',(5.385587406154,4.464696673726));
#365 = CARTESIAN_POINT('',(4.93678845564,4.46394288132));
#366 = CARTESIAN_POINT('',(4.487989505128,4.463547902485));
#367 = CARTESIAN_POINT('',(4.039190554615,4.463673627933));
#368 = CARTESIAN_POINT('',(3.590391604103,4.464167063236));
#369 = CARTESIAN_POINT('',(2.692793703077,4.465469203634));
#370 = CARTESIAN_POINT('',(2.243994752563,4.466276960563));
#371 = CARTESIAN_POINT('',(1.795195802053,4.467030752967));
#372 = CARTESIAN_POINT('',(1.346396851536,4.467425731804));
#373 = CARTESIAN_POINT('',(0.897597901026,4.467300006354));
#374 = CARTESIAN_POINT('',(0.448798950513,4.466806571052));
#375 = CARTESIAN_POINT('',(1.59872115546E-14,4.466155500853));
#376 = ( GEOMETRIC_REPRESENTATION_CONTEXT(2) 
PARAMETRIC_REPRESENTATION_CONTEXT() REPRESENTATION_CONTEXT('2D SPACE',''
  ) );
#377 = ADVANCED_FACE('',(#378),#129,.F.);
#378 = FACE_BOUND('',#379,.F.);
#379 = EDGE_LOOP('',(#380,#381,#402,#403));
#380 = ORIENTED_EDGE('',*,*,#112,.F.);
#381 = ORIENTED_EDGE('',*,*,#382,.F.);
#382 = EDGE_CURVE('',#241,#113,#383,.T.);
#383 = SEAM_CURVE('',#384,(#388,#395),.PCURVE_S1.);
#384 = LINE('',#385,#386);
#385 = CARTESIAN_POINT('',(-22.24923986907,4.303412184478,34.64366814171
    ));
#386 = VECTOR('',#387,1.);
#387 = DIRECTION('',(-4.999368015407E-04,-0.999999863412,
    -1.524445807145E-04));
#388 = PCURVE('',#129,#389);
#389 = DEFINITIONAL_REPRESENTATION('',(#390),#394);
#390 = LINE('',#391,#392);
#391 = CARTESIAN_POINT('',(6.28318530718,-0.));
#392 = VECTOR('',#393,1.);
#393 = DIRECTION('',(0.,1.));
#394 = ( GEOMETRIC_REPRESENTATION_CONTEXT(2) 
PARAMETRIC_REPRESENTATION_CONTEXT() REPRESENTATION_CONTEXT('2D SPACE',''
  ) );
#395 = PCURVE('',#129,#396);
#396 = DEFINITIONAL_REPRESENTATION('',(#397),#401);
#397 = LINE('',#398,#399);
#398 = CARTESIAN_POINT('',(0.,-0.));
#399 = VECTOR('',#400,1.);
#400 = DIRECTION('',(0.,1.));
#401 = ( GEOMETRIC_REPRESENTATION_CONTEXT(2) 
PARAMETRIC_REPRESENTATION_CONTEXT() REPRESENTATION_CONTEXT('2D SPACE',''
  ) );
#402 = ORIENTED_EDGE('',*,*,#240,.T.);
#403 = ORIENTED_EDGE('',*,*,#382,.T.);
#404 = ADVANCED_FACE('',(#405),#171,.F.);
#405 = FACE_BOUND('',#406,.F.);
#406 = EDGE_LOOP('',(#407,#408,#429,#430));
#407 = ORIENTED_EDGE('',*,*,#308,.T.);
#408 = ORIENTED_EDGE('',*,*,#409,.F.);
#409 = EDGE_CURVE('',#155,#309,#410,.T.);
#410 = SEAM_CURVE('',#411,(#415,#422),.PCURVE_S1.);
#411 = LINE('',#412,#413);
#412 = CARTESIAN_POINT('',(-17.75789776626,-0.300813121127,
    -34.64066703476));
#413 = VECTOR('',#414,1.);
#414 = DIRECTION('',(-5.846997763779E-04,0.999999828289,
    -3.933683081887E-05));
#415 = PCURVE('',#171,#416);
#416 = DEFINITIONAL_REPRESENTATION('',(#417),#421);
#417 = LINE('',#418,#419);
#418 = CARTESIAN_POINT('',(6.28318530718,-0.));
#419 = VECTOR('',#420,1.);
#420 = DIRECTION('',(0.,1.));
#421 = ( GEOMETRIC_REPRESENTATION_CONTEXT(2) 
PARAMETRIC_REPRESENTATION_CONTEXT() REPRESENTATION_CONTEXT('2D SPACE',''
  ) );
#422 = PCURVE('',#171,#423);
#423 = DEFINITIONAL_REPRESENTATION('',(#424),#428);
#424 = LINE('',#425,#426);
#425 = CARTESIAN_POINT('',(0.,-0.));
#426 = VECTOR('',#427,1.);
#427 = DIRECTION('',(0.,1.));
#428 = ( GEOMETRIC_REPRESENTATION_CONTEXT(2) 
PARAMETRIC_REPRESENTATION_CONTEXT() REPRESENTATION_CONTEXT('2D SPACE',''
  ) );
#429 = ORIENTED_EDGE('',*,*,#154,.F.);
#430 = ORIENTED_EDGE('',*,*,#409,.T.);
#431 = ADVANCED_FACE('',(#432),#211,.F.);
#432 = FACE_BOUND('',#433,.F.);
#433 = EDGE_LOOP('',(#434,#435,#456,#457));
#434 = ORIENTED_EDGE('',*,*,#343,.T.);
#435 = ORIENTED_EDGE('',*,*,#436,.F.);
#436 = EDGE_CURVE('',#195,#344,#437,.T.);
#437 = SEAM_CURVE('',#438,(#442,#449),.PCURVE_S1.);
#438 = LINE('',#439,#440);
#439 = CARTESIAN_POINT('',(40.00005740858,-0.301235673876,2.257390870413
    ));
#440 = VECTOR('',#441,1.);
#441 = DIRECTION('',(6.271026817938E-05,0.99999942069,
    -1.074564015063E-03));
#442 = PCURVE('',#211,#443);
#443 = DEFINITIONAL_REPRESENTATION('',(#444),#448);
#444 = LINE('',#445,#446);
#445 = CARTESIAN_POINT('',(6.28318530718,-0.));
#446 = VECTOR('',#447,1.);
#447 = DIRECTION('',(0.,1.));
#448 = ( GEOMETRIC_REPRESENTATION_CONTEXT(2) 
PARAMETRIC_REPRESENTATION_CONTEXT() REPRESENTATION_CONTEXT('2D SPACE',''
  ) );
#449 = PCURVE('',#211,#450);
#450 = DEFINITIONAL_REPRESENTATION('',(#451),#455);
#451 = LINE('',#452,#453);
#452 = CARTESIAN_POINT('',(0.,-0.));
#453 = VECTOR('',#454,1.);
#454 = DIRECTION('',(0.,1.));
#455 = ( GEOMETRIC_REPRESENTATION_CONTEXT(2) 
PARAMETRIC_REPRESENTATION_CONTEXT() REPRESENTATION_CONTEXT('2D SPACE',''
  ) );
#456 = ORIENTED_EDGE('',*,*,#194,.F.);
#457 = ORIENTED_EDGE('',*,*,#436,.T.);
#458 = ADVANCED_FACE('',(#459),#294,.T.);
#459 = FACE_BOUND('',#460,.T.);
#460 = EDGE_LOOP('',(#461,#462,#485,#512));
#461 = ORIENTED_EDGE('',*,*,#277,.F.);
#462 = ORIENTED_EDGE('',*,*,#463,.F.);
#463 = EDGE_CURVE('',#464,#278,#466,.T.);
#464 = VERTEX_POINT('',#465);
#465 = CARTESIAN_POINT('',(8.069260318523E-03,9.967479471736,
    -34.95421702519));
#466 = SEAM_CURVE('',#467,(#471,#478),.PCURVE_S1.);
#467 = LINE('',#468,#469);
#468 = CARTESIAN_POINT('',(8.069260318523E-03,9.967479471736,
    -34.95421702519));
#469 = VECTOR('',#470,1.);
#470 = DIRECTION('',(5.818954601866E-04,-0.999998889934,
    1.371688420965E-03));
#471 = PCURVE('',#294,#472);
#472 = DEFINITIONAL_REPRESENTATION('',(#473),#477);
#473 = LINE('',#474,#475);
#474 = CARTESIAN_POINT('',(6.28318530718,-0.));
#475 = VECTOR('',#476,1.);
#476 = DIRECTION('',(0.,1.));
#477 = ( GEOMETRIC_REPRESENTATION_CONTEXT(2) 
PARAMETRIC_REPRESENTATION_CONTEXT() REPRESENTATION_CONTEXT('2D SPACE',''
  ) );
#478 = PCURVE('',#294,#479);
#479 = DEFINITIONAL_REPRESENTATION('',(#480),#484);
#480 = LINE('',#481,#482);
#481 = CARTESIAN_POINT('',(0.,-0.));
#482 = VECTOR('',#483,1.);
#483 = DIRECTION('',(0.,1.));
#484 = ( GEOMETRIC_REPRESENTATION_CONTEXT(2) 
PARAMETRIC_REPRESENTATION_CONTEXT() REPRESENTATION_CONTEXT('2D SPACE',''
  ) );
#485 = ORIENTED_EDGE('',*,*,#486,.T.);
#486 = EDGE_CURVE('',#464,#464,#487,.T.);
#487 = SURFACE_CURVE('',#488,(#493,#500),.PCURVE_S1.);
#488 = CIRCLE('',#489,34.978320586811);
#489 = AXIS2_PLACEMENT_3D('',#490,#491,#492);
#490 = CARTESIAN_POINT('',(8.069260318532E-03,10.015458837193,
    2.407065522062E-02));
#491 = DIRECTION('',(5.818954601866E-04,-0.999998889934,
    1.371688420965E-03));
#492 = DIRECTION('',(-5.293955920339E-22,-1.371688653194E-03,
    -0.999999059235));
#493 = PCURVE('',#294,#494);
#494 = DEFINITIONAL_REPRESENTATION('',(#495),#499);
#495 = LINE('',#496,#497);
#496 = CARTESIAN_POINT('',(0.,0.));
#497 = VECTOR('',#498,1.);
#498 = DIRECTION('',(1.,0.));
#499 = ( GEOMETRIC_REPRESENTATION_CONTEXT(2) 
PARAMETRIC_REPRESENTATION_CONTEXT() REPRESENTATION_CONTEXT('2D SPACE',''
  ) );
#500 = PCURVE('',#501,#506);
#501 = PLANE('',#502);
#502 = AXIS2_PLACEMENT_3D('',#503,#504,#505);
#503 = CARTESIAN_POINT('',(8.069260318532E-03,10.015458837193,
    2.407065522062E-02));
#504 = DIRECTION('',(5.818954601866E-04,-0.999998889934,
    1.371688420965E-03));
#505 = DIRECTION('',(-2.117582368136E-22,-1.371688653194E-03,
    -0.999999059235));
#506 = DEFINITIONAL_REPRESENTATION('',(#507),#511);
#507 = CIRCLE('',#508,34.978320586811);
#508 = AXIS2_PLACEMENT_2D('',#509,#510);
#509 = CARTESIAN_POINT('',(0.,0.));
#510 = DIRECTION('',(1.,0.));
#511 = ( GEOMETRIC_REPRESENTATION_CONTEXT(2) 
PARAMETRIC_REPRESENTATION_CONTEXT() REPRESENTATION_CONTEXT('2D SPACE',''
  ) );
#512 = ORIENTED_EDGE('',*,*,#463,.T.);
#513 = ADVANCED_FACE('',(#514),#501,.F.);
#514 = FACE_BOUND('',#515,.T.);
#515 = EDGE_LOOP('',(#516));
#516 = ORIENTED_EDGE('',*,*,#486,.F.);
#517 = ( GEOMETRIC_REPRESENTATION_CONTEXT(3) 
GLOBAL_UNCERTAINTY_ASSIGNED_CONTEXT((#521)) GLOBAL_UNIT_ASSIGNED_CONTEXT
((#518,#519,#520)) REPRESENTATION_CONTEXT('Context #1',
  '3D Context with UNIT and UNCERTAINTY') );
#518 = ( LENGTH_UNIT() NAMED_UNIT(*) SI_UNIT(.MILLI.,.METRE.) );
#519 = ( NAMED_UNIT(*) PLANE_ANGLE_UNIT() SI_UNIT($,.RADIAN.) );
#520 = ( NAMED_UNIT(*) SI_UNIT($,.STERADIAN.) SOLID_ANGLE_UNIT() );
#521 = UNCERTAINTY_MEASURE_WITH_UNIT(LENGTH_MEASURE(1.E-07),#518,
  'distance_accuracy_value','confusion accuracy');
#522 = PRODUCT_TYPE('part',$,(#7));
ENDSEC;
END-ISO-10303-21;
