ISO-10303-21;
HEADER;
FILE_DESCRIPTION(('Open CASCADE Model'),'2;1');
FILE_NAME('Open CASCADE Shape Model','2026-09-07T09:31:45',('Author'),(
    'Open CASCADE'),'Open CASCADE STEP processor 7.8','Open CASCADE 7.8'
  ,'Unknown');
FILE_SCHEMA(('CONFIG_CONTROL_DESIGN'));
ENDSEC;
DATA;
#1 = APPLICATION_PROTOCOL_DEFINITION('committee draft',
  'automotive_design',1997,#2);
#2 = APPLICATION_CONTEXT(
  'core data for automotive mechanical design processes');
#3 = SHAPE_DEFINITION_REPRESENTATION(#4,#10);
#4 = PRODUCT_DEFINITION_SHAPE('','',#5);
#5 = PRODUCT_DEFINITION('design','',#6,#9);
#6 = PRODUCT_DEFINITION_FORMATION('','',#7);
#7 = PRODUCT('Product 14','Product 14','',(#8));
#8 = MECHANICAL_CONTEXT('',#2,'mechanical');
#9 = PRODUCT_DEFINITION_CONTEXT('part definition',#2,'design');
#10 = ADVANCED_BREP_SHAPE_REPRESENTATION('',(#11,#15),#219);
#11 = AXIS2_PLACEMENT_3D('',#12,#13,#14);
#12 = CARTESIAN_POINT('',(0.,0.,0.));
#13 = DIRECTION('',(0.,0.,1.));
#14 = DIRECTION('',(1.,0.,-0.));
#15 = MANIFOLD_SOLID_BREP('',#16);
#16 = CLOSED_SHELL('',(#17,#105,#151,#192));
#17 = ADVANCED_FACE('',(#18),#31,.T.);
#18 = FACE_BOUND('',#19,.T.);
#19 = EDGE_LOOP('',(#20,#54,#77,#104));
#20 = ORIENTED_EDGE('',*,*,#21,.F.);
#21 = EDGE_CURVE('',#22,#22,#24,.T.);
#22 = VERTEX_POINT('',#23);
#23 = CARTESIAN_POINT('',(59.991069333216,4.003006651223,
    2.49160009061E-02));
#24 = SURFACE_CURVE('',#25,(#30,#42),.PCURVE_S1.);
#25 = CIRCLE('',#26,59.963910389062);
#26 = AXIS2_PLACEMENT_3D('',#27,#28,#29);
#27 = CARTESIAN_POINT('',(2.715953668056E-02,4.011436386353,
    2.491600090608E-02));
#28 = DIRECTION('',(1.405801423868E-04,0.999999981812,1.288905163369E-04
    ));
#29 = DIRECTION('',(0.999999990119,-1.405801435545E-04,0.));
#30 = PCURVE('',#31,#36);
#31 = CYLINDRICAL_SURFACE('',#32,59.963910389062);
#32 = AXIS2_PLACEMENT_3D('',#33,#34,#35);
#33 = CARTESIAN_POINT('',(2.659399868723E-02,-1.14502990747E-02,
    2.43974889546E-02));
#34 = DIRECTION('',(1.405801423868E-04,0.999999981812,1.288905163369E-04
    ));
#35 = DIRECTION('',(0.999999990119,-1.405801435545E-04,0.));
#36 = DEFINITIONAL_REPRESENTATION('',(#37),#41);
#37 = LINE('',#38,#39);
#38 = CARTESIAN_POINT('',(0.,4.022886758595));
#39 = VECTOR('',#40,1.);
#40 = DIRECTION('',(1.,0.));
#41 = ( GEOMETRIC_REPRESENTATION_CONTEXT(2) 
PARAMETRIC_REPRESENTATION_CONTEXT() REPRESENTATION_CONTEXT('2D SPACE',''
  ) );
#42 = PCURVE('',#43,#48);
#43 = PLANE('',#44);
#44 = AXIS2_PLACEMENT_3D('',#45,#46,#47);
#45 = CARTESIAN_POINT('',(2.715953668056E-02,4.011436386353,
    2.491600090608E-02));
#46 = DIRECTION('',(1.405801423868E-04,0.999999981812,1.288905163369E-04
    ));
#47 = DIRECTION('',(0.999999990119,-1.405801435545E-04,0.));
#48 = DEFINITIONAL_REPRESENTATION('',(#49),#53);
#49 = CIRCLE('',#50,59.963910389062);
#50 = AXIS2_PLACEMENT_2D('',#51,#52);
#51 = CARTESIAN_POINT('',(0.,0.));
#52 = DIRECTION('',(1.,0.));
#53 = ( GEOMETRIC_REPRESENTATION_CONTEXT(2) 
PARAMETRIC_REPRESENTATION_CONTEXT() REPRESENTATION_CONTEXT('2D SPACE',''
  ) );
#54 = ORIENTED_EDGE('',*,*,#55,.F.);
#55 = EDGE_CURVE('',#56,#22,#58,.T.);
#56 = VERTEX_POINT('',#57);
#57 = CARTESIAN_POINT('',(59.990503795223,-1.988003420529E-02,
    2.439748895462E-02));
#58 = SEAM_CURVE('',#59,(#63,#70),.PCURVE_S1.);
#59 = LINE('',#60,#61);
#60 = CARTESIAN_POINT('',(59.990503795223,-1.988003420529E-02,
    2.439748895462E-02));
#61 = VECTOR('',#62,1.);
#62 = DIRECTION('',(1.405801423868E-04,0.999999981812,1.288905163369E-04
    ));
#63 = PCURVE('',#31,#64);
#64 = DEFINITIONAL_REPRESENTATION('',(#65),#69);
#65 = LINE('',#66,#67);
#66 = CARTESIAN_POINT('',(6.28318530718,-0.));
#67 = VECTOR('',#68,1.);
#68 = DIRECTION('',(0.,1.));
#69 = ( GEOMETRIC_REPRESENTATION_CONTEXT(2) 
PARAMETRIC_REPRESENTATION_CONTEXT() REPRESENTATION_CONTEXT('2D SPACE',''
  ) );
#70 = PCURVE('',#31,#71);
#71 = DEFINITIONAL_REPRESENTATION('',(#72),#76);
#72 = LINE('',#73,#74);
#73 = CARTESIAN_POINT('',(0.,-0.));
#74 = VECTOR('',#75,1.);
#75 = DIRECTION('',(0.,1.));
#76 = ( GEOMETRIC_REPRESENTATION_CONTEXT(2) 
PARAMETRIC_REPRESENTATION_CONTEXT() REPRESENTATION_CONTEXT('2D SPACE',''
  ) );
#77 = ORIENTED_EDGE('',*,*,#78,.T.);
#78 = EDGE_CURVE('',#56,#56,#79,.T.);
#79 = SURFACE_CURVE('',#80,(#85,#92),.PCURVE_S1.);
#80 = CIRCLE('',#81,59.963910389062);
#81 = AXIS2_PLACEMENT_3D('',#82,#83,#84);
#82 = CARTESIAN_POINT('',(2.659399868723E-02,-1.14502990747E-02,
    2.43974889546E-02));
#83 = DIRECTION('',(1.405801423868E-04,0.999999981812,1.288905163369E-04
    ));
#84 = DIRECTION('',(0.999999990119,-1.405801435545E-04,0.));
#85 = PCURVE('',#31,#86);
#86 = DEFINITIONAL_REPRESENTATION('',(#87),#91);
#87 = LINE('',#88,#89);
#88 = CARTESIAN_POINT('',(0.,0.));
#89 = VECTOR('',#90,1.);
#90 = DIRECTION('',(1.,0.));
#91 = ( GEOMETRIC_REPRESENTATION_CONTEXT(2) 
PARAMETRIC_REPRESENTATION_CONTEXT() REPRESENTATION_CONTEXT('2D SPACE',''
  ) );
#92 = PCURVE('',#93,#98);
#93 = PLANE('',#94);
#94 = AXIS2_PLACEMENT_3D('',#95,#96,#97);
#95 = CARTESIAN_POINT('',(2.659399868723E-02,-1.14502990747E-02,
    2.43974889546E-02));
#96 = DIRECTION('',(1.405801423868E-04,0.999999981812,1.288905163369E-04
    ));
#97 = DIRECTION('',(0.999999990119,-1.405801435545E-04,0.));
#98 = DEFINITIONAL_REPRESENTATION('',(#99),#103);
#99 = CIRCLE('',#100,59.963910389062);
#100 = AXIS2_PLACEMENT_2D('',#101,#102);
#101 = CARTESIAN_POINT('',(0.,0.));
#102 = DIRECTION('',(1.,0.));
#103 = ( GEOMETRIC_REPRESENTATION_CONTEXT(2) 
PARAMETRIC_REPRESENTATION_CONTEXT() REPRESENTATION_CONTEXT('2D SPACE',''
  ) );
#104 = ORIENTED_EDGE('',*,*,#55,.T.);
#105 = ADVANCED_FACE('',(#106,#109),#43,.T.);
#106 = FACE_BOUND('',#107,.T.);
#107 = EDGE_LOOP('',(#108));
#108 = ORIENTED_EDGE('',*,*,#21,.T.);
#109 = FACE_BOUND('',#110,.T.);
#110 = EDGE_LOOP('',(#111));
#111 = ORIENTED_EDGE('',*,*,#112,.F.);
#112 = EDGE_CURVE('',#113,#113,#115,.T.);
#113 = VERTEX_POINT('',#114);
#114 = CARTESIAN_POINT('',(52.000887202521,4.003875661366,1.997526720581
    ));
#115 = SURFACE_CURVE('',#116,(#121,#128),.PCURVE_S1.);
#116 = ELLIPSE('',#117,1.999284676693,1.999284244666);
#117 = AXIS2_PLACEMENT_3D('',#118,#119,#120);
#118 = CARTESIAN_POINT('',(52.000887502584,4.004133350123,
    -1.757649808494E-03));
#119 = DIRECTION('',(1.405801423868E-04,0.999999981812,
    1.288905163369E-04));
#120 = DIRECTION('',(-0.818872731911,4.113729542058E-05,0.57397512772));
#121 = PCURVE('',#43,#122);
#122 = DEFINITIONAL_REPRESENTATION('',(#123),#127);
#123 = ELLIPSE('',#124,1.999284676693,1.999284244666);
#124 = AXIS2_PLACEMENT_2D('',#125,#126);
#125 = CARTESIAN_POINT('',(51.973728478993,2.667365093614E-02));
#126 = DIRECTION('',(-0.818872729602,-0.573975132487));
#127 = ( GEOMETRIC_REPRESENTATION_CONTEXT(2) 
PARAMETRIC_REPRESENTATION_CONTEXT() REPRESENTATION_CONTEXT('2D SPACE',''
  ) );
#128 = PCURVE('',#129,#134);
#129 = CYLINDRICAL_SURFACE('',#130,1.999284244666);
#130 = AXIS2_PLACEMENT_3D('',#131,#132,#133);
#131 = CARTESIAN_POINT('',(52.002593179832,-0.284167888836,
    -3.928494673218E-03));
#132 = DIRECTION('',(-3.97751183819E-04,0.999999792765,
    5.062247948271E-04));
#133 = DIRECTION('',(2.64697796017E-23,-5.06224834871E-04,0.999999871868
    ));
#134 = DEFINITIONAL_REPRESENTATION('',(#135),#150);
#135 = B_SPLINE_CURVE_WITH_KNOTS('',7,(#136,#137,#138,#139,#140,#141,
    #142,#143,#144,#145,#146,#147,#148,#149),.UNSPECIFIED.,.F.,.F.,(8,6,
    8),(0.9594442571,4.10103691069,7.242629564279),.UNSPECIFIED.);
#136 = CARTESIAN_POINT('',(0.,4.28905652638));
#137 = CARTESIAN_POINT('',(0.448798950513,4.288573494175));
#138 = CARTESIAN_POINT('',(0.897597901026,4.287913507266));
#139 = CARTESIAN_POINT('',(1.346396851538,4.287232960177));
#140 = CARTESIAN_POINT('',(1.795195802051,4.286787351087));
#141 = CARTESIAN_POINT('',(2.243994752564,4.286759322649));
#142 = CARTESIAN_POINT('',(2.692793703077,4.287064696703));
#143 = CARTESIAN_POINT('',(3.590391604103,4.288030761115));
#144 = CARTESIAN_POINT('',(4.039190554616,4.288690748023));
#145 = CARTESIAN_POINT('',(4.487989505126,4.289371295115));
#146 = CARTESIAN_POINT('',(4.936788455644,4.289816904201));
#147 = CARTESIAN_POINT('',(5.385587406154,4.289844932639));
#148 = CARTESIAN_POINT('',(5.834386356667,4.289539558586));
#149 = CARTESIAN_POINT('',(6.28318530718,4.28905652638));
#150 = ( GEOMETRIC_REPRESENTATION_CONTEXT(2) 
PARAMETRIC_REPRESENTATION_CONTEXT() REPRESENTATION_CONTEXT('2D SPACE',''
  ) );
#151 = ADVANCED_FACE('',(#152,#155),#93,.F.);
#152 = FACE_BOUND('',#153,.F.);
#153 = EDGE_LOOP('',(#154));
#154 = ORIENTED_EDGE('',*,*,#78,.T.);
#155 = FACE_BOUND('',#156,.F.);
#156 = EDGE_LOOP('',(#157));
#157 = ORIENTED_EDGE('',*,*,#158,.F.);
#158 = EDGE_CURVE('',#159,#159,#161,.T.);
#159 = VERTEX_POINT('',#160);
#160 = CARTESIAN_POINT('',(52.002487310837,-1.901113285652E-02,
    1.995490235117));
#161 = SURFACE_CURVE('',#162,(#167,#174),.PCURVE_S1.);
#162 = ELLIPSE('',#163,1.999284676693,1.999284244666);
#163 = AXIS2_PLACEMENT_3D('',#164,#165,#166);
#164 = CARTESIAN_POINT('',(52.0024876109,-1.875344409922E-02,
    -3.794135272543E-03));
#165 = DIRECTION('',(1.405801423868E-04,0.999999981812,
    1.288905163369E-04));
#166 = DIRECTION('',(-0.818872731911,4.113729542058E-05,0.57397512772));
#167 = PCURVE('',#93,#168);
#168 = DEFINITIONAL_REPRESENTATION('',(#169),#173);
#169 = ELLIPSE('',#170,1.999284676693,1.999284244666);
#170 = AXIS2_PLACEMENT_2D('',#171,#172);
#171 = CARTESIAN_POINT('',(51.975894125296,2.819162446131E-02));
#172 = DIRECTION('',(-0.818872729602,-0.573975132487));
#173 = ( GEOMETRIC_REPRESENTATION_CONTEXT(2) 
PARAMETRIC_REPRESENTATION_CONTEXT() REPRESENTATION_CONTEXT('2D SPACE',''
  ) );
#174 = PCURVE('',#129,#175);
#175 = DEFINITIONAL_REPRESENTATION('',(#176),#191);
#176 = B_SPLINE_CURVE_WITH_KNOTS('',7,(#177,#178,#179,#180,#181,#182,
    #183,#184,#185,#186,#187,#188,#189,#190),.UNSPECIFIED.,.F.,.F.,(8,6,
    8),(0.9594442571,4.10103691069,7.242629564279),.UNSPECIFIED.);
#177 = CARTESIAN_POINT('',(0.,0.266168898476));
#178 = CARTESIAN_POINT('',(0.448798950513,0.26568586627));
#179 = CARTESIAN_POINT('',(0.897597901026,0.265025879362));
#180 = CARTESIAN_POINT('',(1.346396851539,0.264345332269));
#181 = CARTESIAN_POINT('',(1.795195802051,0.263899723185));
#182 = CARTESIAN_POINT('',(2.243994752564,0.263871694744));
#183 = CARTESIAN_POINT('',(2.692793703077,0.264177068799));
#184 = CARTESIAN_POINT('',(3.590391604103,0.26514313321));
#185 = CARTESIAN_POINT('',(4.039190554615,0.265803120118));
#186 = CARTESIAN_POINT('',(4.487989505131,0.266483667211));
#187 = CARTESIAN_POINT('',(4.93678845564,0.266929276295));
#188 = CARTESIAN_POINT('',(5.385587406155,0.266957304736));
#189 = CARTESIAN_POINT('',(5.834386356667,0.266651930681));
#190 = CARTESIAN_POINT('',(6.28318530718,0.266168898476));
#191 = ( GEOMETRIC_REPRESENTATION_CONTEXT(2) 
PARAMETRIC_REPRESENTATION_CONTEXT() REPRESENTATION_CONTEXT('2D SPACE',''
  ) );
#192 = ADVANCED_FACE('',(#193),#129,.F.);
#193 = FACE_BOUND('',#194,.F.);
#194 = EDGE_LOOP('',(#195,#196,#217,#218));
#195 = ORIENTED_EDGE('',*,*,#112,.F.);
#196 = ORIENTED_EDGE('',*,*,#197,.F.);
#197 = EDGE_CURVE('',#159,#113,#198,.T.);
#198 = SEAM_CURVE('',#199,(#203,#210),.PCURVE_S1.);
#199 = LINE('',#200,#201);
#200 = CARTESIAN_POINT('',(52.002593179832,-0.285179976173,1.99535549382
    ));
#201 = VECTOR('',#202,1.);
#202 = DIRECTION('',(-3.97751183819E-04,0.999999792765,
    5.062247948271E-04));
#203 = PCURVE('',#129,#204);
#204 = DEFINITIONAL_REPRESENTATION('',(#205),#209);
#205 = LINE('',#206,#207);
#206 = CARTESIAN_POINT('',(6.28318530718,-0.));
#207 = VECTOR('',#208,1.);
#208 = DIRECTION('',(0.,1.));
#209 = ( GEOMETRIC_REPRESENTATION_CONTEXT(2) 
PARAMETRIC_REPRESENTATION_CONTEXT() REPRESENTATION_CONTEXT('2D SPACE',''
  ) );
#210 = PCURVE('',#129,#211);
#211 = DEFINITIONAL_REPRESENTATION('',(#212),#216);
#212 = LINE('',#213,#214);
#213 = CARTESIAN_POINT('',(0.,-0.));
#214 = VECTOR('',#215,1.);
#215 = DIRECTION('',(0.,1.));
#216 = ( GEOMETRIC_REPRESENTATION_CONTEXT(2) 
PARAMETRIC_REPRESENTATION_CONTEXT() REPRESENTATION_CONTEXT('2D SPACE',''
  ) );
#217 = ORIENTED_EDGE('',*,*,#158,.T.);
#218 = ORIENTED_EDGE('',*,*,#197,.T.);
#219 = ( GEOMETRIC_REPRESENTATION_CONTEXT(3) 
GLOBAL_UNCERTAINTY_ASSIGNED_CONTEXT((#223)) GLOBAL_UNIT_ASSIGNED_CONTEXT
((#220,#221,#222)) REPRESENTATION_CONTEXT('Context #1',
  '3D Context with UNIT and UNCERTAINTY') );
#220 = ( LENGTH_UNIT() NAMED_UNIT(*) SI_UNIT(.MILLI.,.METRE.) );
#221 = ( NAMED_UNIT(*) PLANE_ANGLE_UNIT() SI_UNIT($,.RADIAN.) );
#222 = ( NAMED_UNIT(*) SI_UNIT($,.STERADIAN.) SOLID_ANGLE_UNIT() );
#223 = UNCERTAINTY_MEASURE_WITH_UNIT(LENGTH_MEASURE(1.E-07),#220,
  'distance_accuracy_value','confusion accuracy');
#224 = PRODUCT_TYPE('part',$,(#7));
ENDSEC;
END-ISO-10303-21;
