ISO-10303-21;
HEADER;
FILE_DESCRIPTION(('Open CASCADE Model'),'2;1');
FILE_NAME('Open CASCADE Shape Model','2026-09-07T10:55:51',('Author'),(
    'Open CASCADE'),'Open CASCADE STEP processor 7.8','Open CASCADE 7.8'
  ,'Unknown');
FILE_SCHEMA(('CONFIG_CONTROL_DESIGN'));
ENDSEC;
DATA;
#1 = APPLICATION_PROTOCOL_DEFINITION('committee draft',
  'automotive_design',1997,#2);
#2 = APPLICATION_CONTEXT(
  'core data for automotive mechanical design processes');
#3 = SHAPE_DEFINITION_REPRESENTATION(#4,#10);
#4 = PRODUCT_DEFINITION_SHAPE('','',#5);
#5 = PRODUCT_DEFINITION('design','',#6,#9);
#6 = PRODUCT_DEFINITION_FORMATION('','',#7);
#7 = PRODUCT('Product 6','Product 6','',(#8));
#8 = MECHANICAL_CONTEXT('',#2,'mechanical');
#9 = PRODUCT_DEFINITION_CONTEXT('part definition',#2,'design');
#10 = ADVANCED_BREP_SHAPE_REPRESENTATION('',(#11,#15),#272);
#11 = AXIS2_PLACEMENT_3D('',#12,#13,#14);
#12 = CARTESIAN_POINT('',(0.,0.,0.));
#13 = DIRECTION('',(0.,0.,1.));
#14 = DIRECTION('',(1.,0.,-0.));
#15 = MANIFOLD_SOLID_BREP('',#16);
#16 = CLOSED_SHELL('',(#17,#260,#268));
#17 = ADVANCED_FACE('',(#18),#32,.T.);
#18 = FACE_BOUND('',#19,.T.);
#19 = EDGE_LOOP('',(#20,#50,#77,#78));
#20 = ORIENTED_EDGE('',*,*,#21,.T.);
#21 = EDGE_CURVE('',#22,#24,#26,.T.);
#22 = VERTEX_POINT('',#23);
#23 = CARTESIAN_POINT('',(-6.976230329161E-05,-0.995054493438,
    -15.84366772569));
#24 = VERTEX_POINT('',#25);
#25 = CARTESIAN_POINT('',(-5.122960933101E-05,-63.49999425838,
    -11.90616372051));
#26 = SEAM_CURVE('',#27,(#31,#43),.PCURVE_S1.);
#27 = LINE('',#28,#29);
#28 = CARTESIAN_POINT('',(-6.976230329161E-05,-0.995054493438,
    -15.84366772569));
#29 = VECTOR('',#30,1.);
#30 = DIRECTION('',(2.959131025734E-07,-0.998021695676,
    6.287046173898E-02));
#31 = PCURVE('',#32,#37);
#32 = CONICAL_SURFACE('',#33,15.843784227856,6.291243579156E-02);
#33 = AXIS2_PLACEMENT_3D('',#34,#35,#36);
#34 = CARTESIAN_POINT('',(-6.976230328773E-05,-0.995062134081,
    1.165021556398E-04));
#35 = DIRECTION('',(-2.964996781429E-07,1.,4.822485948352E-07));
#36 = DIRECTION('',(0.,4.822485948352E-07,-1.));
#37 = DEFINITIONAL_REPRESENTATION('',(#38),#42);
#38 = LINE('',#39,#40);
#39 = CARTESIAN_POINT('',(-6.28318530718,0.));
#40 = VECTOR('',#41,1.);
#41 = DIRECTION('',(-0.,-1.));
#42 = ( GEOMETRIC_REPRESENTATION_CONTEXT(2) 
PARAMETRIC_REPRESENTATION_CONTEXT() REPRESENTATION_CONTEXT('2D SPACE',''
  ) );
#43 = PCURVE('',#32,#44);
#44 = DEFINITIONAL_REPRESENTATION('',(#45),#49);
#45 = LINE('',#46,#47);
#46 = CARTESIAN_POINT('',(0.,-0.));
#47 = VECTOR('',#48,1.);
#48 = DIRECTION('',(-0.,-1.));
#49 = ( GEOMETRIC_REPRESENTATION_CONTEXT(2) 
PARAMETRIC_REPRESENTATION_CONTEXT() REPRESENTATION_CONTEXT('2D SPACE',''
  ) );
#50 = ORIENTED_EDGE('',*,*,#51,.F.);
#51 = EDGE_CURVE('',#24,#24,#52,.T.);
#52 = SURFACE_CURVE('',#53,(#58,#65),.PCURVE_S1.);
#53 = CIRCLE('',#54,11.90625007975);
#54 = AXIS2_PLACEMENT_3D('',#55,#56,#57);
#55 = CARTESIAN_POINT('',(-5.122960932809E-05,-63.50000000015,
    8.635923718357E-05));
#56 = DIRECTION('',(2.964996781429E-07,-1.,-4.822485948352E-07));
#57 = DIRECTION('',(-2.524354896707E-29,4.822485948352E-07,-1.));
#58 = PCURVE('',#32,#59);
#59 = DEFINITIONAL_REPRESENTATION('',(#60),#64);
#60 = LINE('',#61,#62);
#61 = CARTESIAN_POINT('',(-0.,-62.50493786608));
#62 = VECTOR('',#63,1.);
#63 = DIRECTION('',(-1.,-0.));
#64 = ( GEOMETRIC_REPRESENTATION_CONTEXT(2) 
PARAMETRIC_REPRESENTATION_CONTEXT() REPRESENTATION_CONTEXT('2D SPACE',''
  ) );
#65 = PCURVE('',#66,#71);
#66 = PLANE('',#67);
#67 = AXIS2_PLACEMENT_3D('',#68,#69,#70);
#68 = CARTESIAN_POINT('',(-5.122960932809E-05,-63.50000000015,
    8.635923718357E-05));
#69 = DIRECTION('',(2.964996781429E-07,-1.,-4.822485948352E-07));
#70 = DIRECTION('',(0.,4.822485948352E-07,-1.));
#71 = DEFINITIONAL_REPRESENTATION('',(#72),#76);
#72 = CIRCLE('',#73,11.90625007975);
#73 = AXIS2_PLACEMENT_2D('',#74,#75);
#74 = CARTESIAN_POINT('',(0.,0.));
#75 = DIRECTION('',(1.,0.));
#76 = ( GEOMETRIC_REPRESENTATION_CONTEXT(2) 
PARAMETRIC_REPRESENTATION_CONTEXT() REPRESENTATION_CONTEXT('2D SPACE',''
  ) );
#77 = ORIENTED_EDGE('',*,*,#21,.F.);
#78 = ORIENTED_EDGE('',*,*,#79,.T.);
#79 = EDGE_CURVE('',#22,#22,#80,.T.);
#80 = SURFACE_CURVE('',#81,(#86,#93),.PCURVE_S1.);
#81 = CIRCLE('',#82,15.843784227856);
#82 = AXIS2_PLACEMENT_3D('',#83,#84,#85);
#83 = CARTESIAN_POINT('',(-6.976230328773E-05,-0.995062134081,
    1.165021556398E-04));
#84 = DIRECTION('',(2.964996781429E-07,-1.,-4.822485948352E-07));
#85 = DIRECTION('',(-2.524354896707E-29,4.822485948352E-07,-1.));
#86 = PCURVE('',#32,#87);
#87 = DEFINITIONAL_REPRESENTATION('',(#88),#92);
#88 = LINE('',#89,#90);
#89 = CARTESIAN_POINT('',(-0.,-0.));
#90 = VECTOR('',#91,1.);
#91 = DIRECTION('',(-1.,-0.));
#92 = ( GEOMETRIC_REPRESENTATION_CONTEXT(2) 
PARAMETRIC_REPRESENTATION_CONTEXT() REPRESENTATION_CONTEXT('2D SPACE',''
  ) );
#93 = PCURVE('',#94,#99);
#94 = SPHERICAL_SURFACE('',#95,15.874933741439);
#95 = AXIS2_PLACEMENT_3D('',#96,#97,#98);
#96 = CARTESIAN_POINT('',(-2.154205475652E-07,1.134965993255E-04,
    -1.11900886359E-06));
#97 = DIRECTION('',(0.,0.,1.));
#98 = DIRECTION('',(1.,0.,-0.));
#99 = DEFINITIONAL_REPRESENTATION('',(#100),#259);
#100 = B_SPLINE_CURVE_WITH_KNOTS('',8,(#101,#102,#103,#104,#105,#106,
    #107,#108,#109,#110,#111,#112,#113,#114,#115,#116,#117,#118,#119,
    #120,#121,#122,#123,#124,#125,#126,#127,#128,#129,#130,#131,#132,
    #133,#134,#135,#136,#137,#138,#139,#140,#141,#142,#143,#144,#145,
    #146,#147,#148,#149,#150,#151,#152,#153,#154,#155,#156,#157,#158,
    #159,#160,#161,#162,#163,#164,#165,#166,#167,#168,#169,#170,#171,
    #172,#173,#174,#175,#176,#177,#178,#179,#180,#181,#182,#183,#184,
    #185,#186,#187,#188,#189,#190,#191,#192,#193,#194,#195,#196,#197,
    #198,#199,#200,#201,#202,#203,#204,#205,#206,#207,#208,#209,#210,
    #211,#212,#213,#214,#215,#216,#217,#218,#219,#220,#221,#222,#223,
    #224,#225,#226,#227,#228,#229,#230,#231,#232,#233,#234,#235,#236,
    #237,#238,#239,#240,#241,#242,#243,#244,#245,#246,#247,#248,#249,
    #250,#251,#252,#253,#254,#255,#256,#257,#258),.UNSPECIFIED.,.T.,.F.,
  (9,7,7,7,5,7,7,7,7,4,7,7,7,7,7,7,7,7,7,7,7,7,7,9),(0.,0.232588651,
    0.348882976499,0.407030139249,0.465177301999,0.513092402729,
    0.605927910394,0.779994487264,1.084610996788,1.998460525358,
    2.534051123086,3.002692896098,3.20772367179,3.399940024002,
    3.490041439101,3.577327184979,3.619606218138,3.661224641404,
    3.74316091221,3.901912436896,4.199571545681,5.24137842643,
    5.762281866805,6.28318530718),.UNSPECIFIED.);
#101 = CARTESIAN_POINT('',(3.280709251867,-1.101708330356));
#102 = CARTESIAN_POINT('',(3.288663968119,-1.130501162879));
#103 = CARTESIAN_POINT('',(3.297779108471,-1.159257579687));
#104 = CARTESIAN_POINT('',(3.308371180624,-1.187967103545));
#105 = CARTESIAN_POINT('',(3.320745537175,-1.216620833416));
#106 = CARTESIAN_POINT('',(3.33558510376,-1.245196052267));
#107 = CARTESIAN_POINT('',(3.35373240691,-1.273665511798));
#108 = CARTESIAN_POINT('',(3.376498415896,-1.30198830025));
#109 = CARTESIAN_POINT('',(3.42319836142,-1.344064649048));
#110 = CARTESIAN_POINT('',(3.440868876153,-1.358021538516));
#111 = CARTESIAN_POINT('',(3.461072411387,-1.371896806177));
#112 = CARTESIAN_POINT('',(3.484528731758,-1.385664384461));
#113 = CARTESIAN_POINT('',(3.512119806638,-1.399294470329));
#114 = CARTESIAN_POINT('',(3.54509990619,-1.412745823606));
#115 = CARTESIAN_POINT('',(3.585644199111,-1.425941093215));
#116 = CARTESIAN_POINT('',(3.663781678529,-1.445117210368));
#117 = CARTESIAN_POINT('',(3.692712142237,-1.451406333446));
#118 = CARTESIAN_POINT('',(3.725056611079,-1.457572381367));
#119 = CARTESIAN_POINT('',(3.761405850772,-1.463589861451));
#120 = CARTESIAN_POINT('',(3.802553010037,-1.469425203765));
#121 = CARTESIAN_POINT('',(3.849529774114,-1.475032628256));
#122 = CARTESIAN_POINT('',(3.903537686602,-1.480348622763));
#123 = CARTESIAN_POINT('',(4.028011592654,-1.490221441056));
#124 = CARTESIAN_POINT('',(4.098466065844,-1.494778963564));
#125 = CARTESIAN_POINT('',(4.178342991443,-1.498866416825));
#126 = CARTESIAN_POINT('',(4.268519414667,-1.502382514811));
#127 = CARTESIAN_POINT('',(4.369862804795,-1.505179729623));
#128 = CARTESIAN_POINT('',(4.572380293729,-1.508692050953));
#129 = CARTESIAN_POINT('',(4.790488641658,-1.50899780552));
#130 = CARTESIAN_POINT('',(4.99576241474,-1.506109735755));
#131 = CARTESIAN_POINT('',(5.08311326969,-1.504190704108));
#132 = CARTESIAN_POINT('',(5.163619470249,-1.501732643739));
#133 = CARTESIAN_POINT('',(5.237026367108,-1.498817791948));
#134 = CARTESIAN_POINT('',(5.303600642558,-1.495513869982));
#135 = CARTESIAN_POINT('',(5.480524944595,-1.484846101367));
#136 = CARTESIAN_POINT('',(5.573410507532,-1.47657885129));
#137 = CARTESIAN_POINT('',(5.646144094586,-1.46752214867));
#138 = CARTESIAN_POINT('',(5.705738745412,-1.457960629173));
#139 = CARTESIAN_POINT('',(5.754829912777,-1.448017958851));
#140 = CARTESIAN_POINT('',(5.79629071519,-1.43780480917));
#141 = CARTESIAN_POINT('',(5.831656005708,-1.427378700535));
#142 = CARTESIAN_POINT('',(5.919482061481,-1.396928752709));
#143 = CARTESIAN_POINT('',(5.959825107163,-1.376488427941));
#144 = CARTESIAN_POINT('',(5.991292569161,-1.355762147055));
#145 = CARTESIAN_POINT('',(6.016592648481,-1.334832917259));
#146 = CARTESIAN_POINT('',(6.03738446871,-1.313756411359));
#147 = CARTESIAN_POINT('',(6.05500589451,-1.292580987686));
#148 = CARTESIAN_POINT('',(6.07002932323,-1.27132026559));
#149 = CARTESIAN_POINT('',(6.105829471265,-1.212678968444));
#150 = CARTESIAN_POINT('',(6.122447211442,-1.17516408183));
#151 = CARTESIAN_POINT('',(6.135682453413,-1.137544357748));
#152 = CARTESIAN_POINT('',(6.146483168265,-1.099845955322));
#153 = CARTESIAN_POINT('',(6.155464724787,-1.062090387928));
#154 = CARTESIAN_POINT('',(6.163132580919,-1.024295823155));
#155 = CARTESIAN_POINT('',(6.169705175813,-0.98646521848));
#156 = CARTESIAN_POINT('',(6.192547001736,-0.835039878859));
#157 = CARTESIAN_POINT('',(6.201896447121,-0.721227722493));
#158 = CARTESIAN_POINT('',(6.208922568869,-0.607358579171));
#159 = CARTESIAN_POINT('',(6.213388223467,-0.493402787892));
#160 = CARTESIAN_POINT('',(6.218815776455,-0.312649158444));
#161 = CARTESIAN_POINT('',(6.221010233496,-0.131809861067));
#162 = CARTESIAN_POINT('',(6.221348825757,4.901470592497E-02));
#163 = CARTESIAN_POINT('',(6.219115348589,0.229834286465));
#164 = CARTESIAN_POINT('',(6.217958839048,0.296643758591));
#165 = CARTESIAN_POINT('',(6.216410892162,0.363446007737));
#166 = CARTESIAN_POINT('',(6.214397730565,0.430238152709));
#167 = CARTESIAN_POINT('',(6.209541638164,0.555448149522));
#168 = CARTESIAN_POINT('',(6.206828476619,0.613867972891));
#169 = CARTESIAN_POINT('',(6.203606119022,0.672274315826));
#170 = CARTESIAN_POINT('',(6.199737606654,0.730663253096));
#171 = CARTESIAN_POINT('',(6.195069345292,0.789029495255));
#172 = CARTESIAN_POINT('',(6.189394470451,0.847365260692));
#173 = CARTESIAN_POINT('',(6.182321465585,0.905657430675));
#174 = CARTESIAN_POINT('',(6.168990906649,0.98935666847));
#175 = CARTESIAN_POINT('',(6.164515437999,1.014816803999));
#176 = CARTESIAN_POINT('',(6.159540144788,1.040261703379));
#177 = CARTESIAN_POINT('',(6.153983580426,1.065688825188));
#178 = CARTESIAN_POINT('',(6.147739179663,1.091094402951));
#179 = CARTESIAN_POINT('',(6.140650103968,1.116473070916));
#180 = CARTESIAN_POINT('',(6.132484086917,1.141817489815));
#181 = CARTESIAN_POINT('',(6.113930960174,1.190837175278));
#182 = CARTESIAN_POINT('',(6.103714285913,1.21451579317));
#183 = CARTESIAN_POINT('',(6.091944924191,1.238148265133));
#184 = CARTESIAN_POINT('',(6.078288252905,1.261717699264));
#185 = CARTESIAN_POINT('',(6.062102380169,1.28520629112));
#186 = CARTESIAN_POINT('',(6.042560400837,1.308590519725));
#187 = CARTESIAN_POINT('',(6.018378769073,1.331822500316));
#188 = CARTESIAN_POINT('',(5.97133602431,1.365569047354));
#189 = CARTESIAN_POINT('',(5.95459558907,1.376282217485));
#190 = CARTESIAN_POINT('',(5.93580507958,1.386928308915));
#191 = CARTESIAN_POINT('',(5.914513800636,1.397491425535));
#192 = CARTESIAN_POINT('',(5.890150546367,1.407951693567));
#193 = CARTESIAN_POINT('',(5.861934143573,1.41828198512));
#194 = CARTESIAN_POINT('',(5.828687634832,1.428439521124));
#195 = CARTESIAN_POINT('',(5.749678678328,1.447955410127));
#196 = CARTESIAN_POINT('',(5.704327951858,1.457326400715));
#197 = CARTESIAN_POINT('',(5.650905978886,1.466409095243));
#198 = CARTESIAN_POINT('',(5.586769809532,1.475082727638));
#199 = CARTESIAN_POINT('',(5.509331546902,1.483235536739));
#200 = CARTESIAN_POINT('',(5.413582010221,1.490642865236));
#201 = CARTESIAN_POINT('',(5.292974704103,1.49688139852));
#202 = CARTESIAN_POINT('',(5.081647341671,1.503753649101));
#203 = CARTESIAN_POINT('',(5.007594193987,1.505618558599));
#204 = CARTESIAN_POINT('',(4.928745100976,1.507059093135));
#205 = CARTESIAN_POINT('',(4.845965815096,1.508024341164));
#206 = CARTESIAN_POINT('',(4.760800934558,1.508477765331));
#207 = CARTESIAN_POINT('',(4.675291693058,1.50840721253));
#208 = CARTESIAN_POINT('',(4.591500698718,1.507826408891));
#209 = CARTESIAN_POINT('',(4.431248375019,1.505726009049));
#210 = CARTESIAN_POINT('',(4.354704821396,1.5042210989));
#211 = CARTESIAN_POINT('',(4.282499403817,1.502283007936));
#212 = CARTESIAN_POINT('',(4.215424821578,1.499958412325));
#213 = CARTESIAN_POINT('',(4.153731494761,1.497298460556));
#214 = CARTESIAN_POINT('',(4.097248845664,1.494350820795));
#215 = CARTESIAN_POINT('',(4.045576397689,1.491156180779));
#216 = CARTESIAN_POINT('',(3.905357270464,1.481041707219));
#217 = CARTESIAN_POINT('',(3.829574242263,1.473511912757));
#218 = CARTESIAN_POINT('',(3.767795976154,1.465425891787));
#219 = CARTESIAN_POINT('',(3.716283038206,1.456952820099));
#220 = CARTESIAN_POINT('',(3.67258691256,1.448191396199));
#221 = CARTESIAN_POINT('',(3.635203817913,1.439205512421));
#222 = CARTESIAN_POINT('',(3.602747534003,1.430047825524));
#223 = CARTESIAN_POINT('',(3.51929203895,1.402735101868));
#224 = CARTESIAN_POINT('',(3.479405309497,1.384198689005));
#225 = CARTESIAN_POINT('',(3.447958088319,1.365383758769));
#226 = CARTESIAN_POINT('',(3.422420661224,1.346378052228));
#227 = CARTESIAN_POINT('',(3.401236471575,1.327229817165));
#228 = CARTESIAN_POINT('',(3.383203275262,1.307978161241));
#229 = CARTESIAN_POINT('',(3.367732216777,1.28864676015));
#230 = CARTESIAN_POINT('',(3.329015659706,1.232880524288));
#231 = CARTESIAN_POINT('',(3.310833907888,1.196287676978));
#232 = CARTESIAN_POINT('',(3.296418080347,1.159569400572));
#233 = CARTESIAN_POINT('',(3.284711386684,1.122771904045));
#234 = CARTESIAN_POINT('',(3.275016787584,1.085910991022));
#235 = CARTESIAN_POINT('',(3.266749149525,1.048999183753));
#236 = CARTESIAN_POINT('',(3.259682561759,1.0120563502));
#237 = CARTESIAN_POINT('',(3.232086538677,0.84567057284));
#238 = CARTESIAN_POINT('',(3.222106109225,0.715914142376));
#239 = CARTESIAN_POINT('',(3.214123766247,0.586077739367));
#240 = CARTESIAN_POINT('',(3.209915440402,0.456167838578));
#241 = CARTESIAN_POINT('',(3.206389078241,0.32623186088));
#242 = CARTESIAN_POINT('',(3.204650359799,0.196258155968));
#243 = CARTESIAN_POINT('',(3.203927958041,6.629049854866E-02));
#244 = CARTESIAN_POINT('',(3.20471037471,-0.128663437586));
#245 = CARTESIAN_POINT('',(3.20527530891,-0.193645580011));
#246 = CARTESIAN_POINT('',(3.20615926668,-0.258625258145));
#247 = CARTESIAN_POINT('',(3.207380651244,-0.323601041943));
#248 = CARTESIAN_POINT('',(3.208972884837,-0.388570397278));
#249 = CARTESIAN_POINT('',(3.21099591941,-0.453530050556));
#250 = CARTESIAN_POINT('',(3.213547747344,-0.518476353343));
#251 = CARTESIAN_POINT('',(3.220004076979,-0.648334940621));
#252 = CARTESIAN_POINT('',(3.223903976577,-0.713245114469));
#253 = CARTESIAN_POINT('',(3.228680018873,-0.778133090282));
#254 = CARTESIAN_POINT('',(3.234439612276,-0.842990818246));
#255 = CARTESIAN_POINT('',(3.241676206475,-0.907803566014));
#256 = CARTESIAN_POINT('',(3.250912978494,-0.972556825754));
#257 = CARTESIAN_POINT('',(3.262893941253,-1.037224162901));
#258 = CARTESIAN_POINT('',(3.280709251867,-1.101708330356));
#259 = ( GEOMETRIC_REPRESENTATION_CONTEXT(2) 
PARAMETRIC_REPRESENTATION_CONTEXT() REPRESENTATION_CONTEXT('2D SPACE',''
  ) );
#260 = ADVANCED_FACE('',(#261,#265),#94,.T.);
#261 = FACE_BOUND('',#262,.T.);
#262 = VERTEX_LOOP('',#263);
#263 = VERTEX_POINT('',#264);
#264 = CARTESIAN_POINT('',(-2.154205465932E-07,1.134965993255E-04,
    15.87493262243));
#265 = FACE_BOUND('',#266,.T.);
#266 = EDGE_LOOP('',(#267));
#267 = ORIENTED_EDGE('',*,*,#79,.F.);
#268 = ADVANCED_FACE('',(#269),#66,.T.);
#269 = FACE_BOUND('',#270,.T.);
#270 = EDGE_LOOP('',(#271));
#271 = ORIENTED_EDGE('',*,*,#51,.T.);
#272 = ( GEOMETRIC_REPRESENTATION_CONTEXT(3) 
GLOBAL_UNCERTAINTY_ASSIGNED_CONTEXT((#276)) GLOBAL_UNIT_ASSIGNED_CONTEXT
((#273,#274,#275)) REPRESENTATION_CONTEXT('Context #1',
  '3D Context with UNIT and UNCERTAINTY') );
#273 = ( LENGTH_UNIT() NAMED_UNIT(*) SI_UNIT(.MILLI.,.METRE.) );
#274 = ( NAMED_UNIT(*) PLANE_ANGLE_UNIT() SI_UNIT($,.RADIAN.) );
#275 = ( NAMED_UNIT(*) SI_UNIT($,.STERADIAN.) SOLID_ANGLE_UNIT() );
#276 = UNCERTAINTY_MEASURE_WITH_UNIT(LENGTH_MEASURE(2.),#273,
  'distance_accuracy_value','confusion accuracy');
#277 = PRODUCT_TYPE('part',$,(#7));
ENDSEC;
END-ISO-10303-21;
