ISO-10303-21;
HEADER;
FILE_DESCRIPTION(('Open CASCADE Model'),'2;1');
FILE_NAME('Open CASCADE Shape Model','2026-09-07T11:09:07',('Author'),(
    'Open CASCADE'),'Open CASCADE STEP processor 7.8','Open CASCADE 7.8'
  ,'Unknown');
FILE_SCHEMA(('CONFIG_CONTROL_DESIGN'));
ENDSEC;
DATA;
#1 = APPLICATION_PROTOCOL_DEFINITION('committee draft',
  'automotive_design',1997,#2);
#2 = APPLICATION_CONTEXT(
  'core data for automotive mechanical design processes');
#3 = SHAPE_DEFINITION_REPRESENTATION(#4,#10);
#4 = PRODUCT_DEFINITION_SHAPE('','',#5);
#5 = PRODUCT_DEFINITION('design','',#6,#9);
#6 = PRODUCT_DEFINITION_FORMATION('','',#7);
#7 = PRODUCT('Product 15','Product 15','',(#8));
#8 = MECHANICAL_CONTEXT('',#2,'mechanical');
#9 = PRODUCT_DEFINITION_CONTEXT('part definition',#2,'design');
#10 = ADVANCED_BREP_SHAPE_REPRESENTATION('',(#11,#15),#957);
#11 = AXIS2_PLACEMENT_3D('',#12,#13,#14);
#12 = CARTESIAN_POINT('',(0.,0.,0.));
#13 = DIRECTION('',(0.,0.,1.));
#14 = DIRECTION('',(1.,0.,-0.));
#15 = MANIFOLD_SOLID_BREP('',#16);
#16 = CLOSED_SHELL('',(#17,#181,#237,#293,#328,#496,#551,#627,#676,#725,
    #774,#823,#850,#889,#944,#948));
#17 = ADVANCED_FACE('',(#18),#33,.T.);
#18 = FACE_BOUND('',#19,.T.);
#19 = EDGE_LOOP('',(#20,#55,#76,#99,#143,#180));
#20 = ORIENTED_EDGE('',*,*,#21,.T.);
#21 = EDGE_CURVE('',#22,#24,#26,.T.);
#22 = VERTEX_POINT('',#23);
#23 = CARTESIAN_POINT('',(0.614465282196,3.759142899463E-04,
    1.394763903728));
#24 = VERTEX_POINT('',#25);
#25 = CARTESIAN_POINT('',(0.613952983968,3.759142739679E-04,
    -1.392835984934));
#26 = SURFACE_CURVE('',#27,(#32,#43),.PCURVE_S1.);
#27 = CIRCLE('',#28,1.393800312019);
#28 = AXIS2_PLACEMENT_3D('',#29,#30,#31);
#29 = CARTESIAN_POINT('',(0.61420908514,3.759142739676E-04,
    9.643035565814E-04));
#30 = DIRECTION('',(-0.999999969271,-1.664216338994E-04,
    1.837430839674E-04));
#31 = DIRECTION('',(-1.837430865118E-04,-1.323488980085E-23,
    -0.999999983119));
#32 = PCURVE('',#33,#38);
#33 = CONICAL_SURFACE('',#34,1.999999805941,1.051887832995);
#34 = AXIS2_PLACEMENT_3D('',#35,#36,#37);
#35 = CARTESIAN_POINT('',(0.268000142566,3.182976143033E-04,
    1.027917057342E-03));
#36 = DIRECTION('',(-0.999999969271,-1.664216338994E-04,
    1.837430839674E-04));
#37 = DIRECTION('',(1.837430865118E-04,6.617444900424E-24,0.999999983119
    ));
#38 = DEFINITIONAL_REPRESENTATION('',(#39),#42);
#39 = B_SPLINE_CURVE_WITH_KNOTS('',1,(#40,#41),.UNSPECIFIED.,.F.,.F.,(2,
    2),(3.14159265359,6.28318530718),.PIECEWISE_BEZIER_KNOTS.);
#40 = CARTESIAN_POINT('',(-6.28318530718,-0.346209049224));
#41 = CARTESIAN_POINT('',(-3.14159265359,-0.346209049224));
#42 = ( GEOMETRIC_REPRESENTATION_CONTEXT(2) 
PARAMETRIC_REPRESENTATION_CONTEXT() REPRESENTATION_CONTEXT('2D SPACE',''
  ) );
#43 = PCURVE('',#44,#49);
#44 = CONICAL_SURFACE('',#45,1.999999985485,1.042507028942);
#45 = AXIS2_PLACEMENT_3D('',#46,#47,#48);
#46 = CARTESIAN_POINT('',(0.968000132331,4.347927599094E-04,
    8.992968964929E-04));
#47 = DIRECTION('',(0.999999969271,1.664216338994E-04,
    -1.837430839674E-04));
#48 = DIRECTION('',(-1.837430865118E-04,-6.617444900424E-24,
    -0.999999983119));
#49 = DEFINITIONAL_REPRESENTATION('',(#50),#54);
#50 = LINE('',#51,#52);
#51 = CARTESIAN_POINT('',(-0.,-0.353791058063));
#52 = VECTOR('',#53,1.);
#53 = DIRECTION('',(-1.,-0.));
#54 = ( GEOMETRIC_REPRESENTATION_CONTEXT(2) 
PARAMETRIC_REPRESENTATION_CONTEXT() REPRESENTATION_CONTEXT('2D SPACE',''
  ) );
#55 = ORIENTED_EDGE('',*,*,#56,.T.);
#56 = EDGE_CURVE('',#24,#22,#57,.T.);
#57 = SURFACE_CURVE('',#58,(#63,#69),.PCURVE_S1.);
#58 = CIRCLE('',#59,1.393800312019);
#59 = AXIS2_PLACEMENT_3D('',#60,#61,#62);
#60 = CARTESIAN_POINT('',(0.61420908514,3.759142739676E-04,
    9.643035565814E-04));
#61 = DIRECTION('',(-0.999999969271,-1.664216338994E-04,
    1.837430839674E-04));
#62 = DIRECTION('',(-1.837430865118E-04,-1.323488980085E-23,
    -0.999999983119));
#63 = PCURVE('',#33,#64);
#64 = DEFINITIONAL_REPRESENTATION('',(#65),#68);
#65 = B_SPLINE_CURVE_WITH_KNOTS('',1,(#66,#67),.UNSPECIFIED.,.F.,.F.,(2,
    2),(0.,3.14159265359),.PIECEWISE_BEZIER_KNOTS.);
#66 = CARTESIAN_POINT('',(-3.14159265359,-0.346209049224));
#67 = CARTESIAN_POINT('',(0.,-0.346209049224));
#68 = ( GEOMETRIC_REPRESENTATION_CONTEXT(2) 
PARAMETRIC_REPRESENTATION_CONTEXT() REPRESENTATION_CONTEXT('2D SPACE',''
  ) );
#69 = PCURVE('',#44,#70);
#70 = DEFINITIONAL_REPRESENTATION('',(#71),#75);
#71 = LINE('',#72,#73);
#72 = CARTESIAN_POINT('',(-0.,-0.353791058063));
#73 = VECTOR('',#74,1.);
#74 = DIRECTION('',(-1.,-0.));
#75 = ( GEOMETRIC_REPRESENTATION_CONTEXT(2) 
PARAMETRIC_REPRESENTATION_CONTEXT() REPRESENTATION_CONTEXT('2D SPACE',''
  ) );
#76 = ORIENTED_EDGE('',*,*,#77,.F.);
#77 = EDGE_CURVE('',#78,#22,#80,.T.);
#78 = VERTEX_POINT('',#79);
#79 = CARTESIAN_POINT('',(0.268367628703,3.182976143038E-04,
    2.001027689237));
#80 = SEAM_CURVE('',#81,(#85,#92),.PCURVE_S1.);
#81 = LINE('',#82,#83);
#82 = CARTESIAN_POINT('',(0.268367628703,3.182976143038E-04,
    2.001027689237));
#83 = VECTOR('',#84,1.);
#84 = DIRECTION('',(0.495773041457,8.253391559762E-05,-0.868452119896));
#85 = PCURVE('',#33,#86);
#86 = DEFINITIONAL_REPRESENTATION('',(#87),#91);
#87 = LINE('',#88,#89);
#88 = CARTESIAN_POINT('',(-6.28318530718,0.));
#89 = VECTOR('',#90,1.);
#90 = DIRECTION('',(-0.,-1.));
#91 = ( GEOMETRIC_REPRESENTATION_CONTEXT(2) 
PARAMETRIC_REPRESENTATION_CONTEXT() REPRESENTATION_CONTEXT('2D SPACE',''
  ) );
#92 = PCURVE('',#33,#93);
#93 = DEFINITIONAL_REPRESENTATION('',(#94),#98);
#94 = LINE('',#95,#96);
#95 = CARTESIAN_POINT('',(0.,-0.));
#96 = VECTOR('',#97,1.);
#97 = DIRECTION('',(-0.,-1.));
#98 = ( GEOMETRIC_REPRESENTATION_CONTEXT(2) 
PARAMETRIC_REPRESENTATION_CONTEXT() REPRESENTATION_CONTEXT('2D SPACE',''
  ) );
#99 = ORIENTED_EDGE('',*,*,#100,.F.);
#100 = EDGE_CURVE('',#101,#78,#103,.T.);
#101 = VERTEX_POINT('',#102);
#102 = CARTESIAN_POINT('',(0.268379198524,3.18421879825E-04,
    -1.99978177082));
#103 = SURFACE_CURVE('',#104,(#109,#131),.PCURVE_S1.);
#104 = CIRCLE('',#105,2.000809584454);
#105 = AXIS2_PLACEMENT_3D('',#106,#107,#108);
#106 = CARTESIAN_POINT('',(0.268746833453,3.184218798246E-04,
    1.027779858051E-03));
#107 = DIRECTION('',(-0.999999969271,-1.664216338994E-04,
    1.837430839674E-04));
#108 = DIRECTION('',(-1.837430865118E-04,-1.323488980085E-23,
    -0.999999983119));
#109 = PCURVE('',#33,#110);
#110 = DEFINITIONAL_REPRESENTATION('',(#111),#130);
#111 = B_SPLINE_CURVE_WITH_KNOTS('',9,(#112,#113,#114,#115,#116,#117,
    #118,#119,#120,#121,#122,#123,#124,#125,#126,#127,#128,#129),
  .UNSPECIFIED.,.F.,.F.,(10,8,10),(0.,1.570796326795,3.14159265359),
  .UNSPECIFIED.);
#112 = CARTESIAN_POINT('',(-3.14159265359,0.));
#113 = CARTESIAN_POINT('',(-2.966989061877,0.));
#114 = CARTESIAN_POINT('',(-2.792791360334,0.));
#115 = CARTESIAN_POINT('',(-2.617484428999,0.));
#116 = CARTESIAN_POINT('',(-2.444063975885,0.));
#117 = CARTESIAN_POINT('',(-2.268476240587,0.));
#118 = CARTESIAN_POINT('',(-2.09459822578,0.));
#119 = CARTESIAN_POINT('',(-1.919818325445,0.));
#120 = CARTESIAN_POINT('',(-1.745329251994,0.));
#121 = CARTESIAN_POINT('',(-1.396263401595,0.));
#122 = CARTESIAN_POINT('',(-1.221774328145,0.));
#123 = CARTESIAN_POINT('',(-1.04699442781,0.));
#124 = CARTESIAN_POINT('',(-0.873116413003,0.));
#125 = CARTESIAN_POINT('',(-0.697528677705,0.));
#126 = CARTESIAN_POINT('',(-0.524108224591,0.));
#127 = CARTESIAN_POINT('',(-0.348801293256,0.));
#128 = CARTESIAN_POINT('',(-0.174603591713,0.));
#129 = CARTESIAN_POINT('',(1.110223024625E-16,0.));
#130 = ( GEOMETRIC_REPRESENTATION_CONTEXT(2) 
PARAMETRIC_REPRESENTATION_CONTEXT() REPRESENTATION_CONTEXT('2D SPACE',''
  ) );
#131 = PCURVE('',#132,#137);
#132 = CONICAL_SURFACE('',#133,2.000809584454,0.785773253009);
#133 = AXIS2_PLACEMENT_3D('',#134,#135,#136);
#134 = CARTESIAN_POINT('',(0.268746833453,3.184218798246E-04,
    1.027779858051E-03));
#135 = DIRECTION('',(0.999999969271,1.664216338994E-04,
    -1.837430839674E-04));
#136 = DIRECTION('',(-1.837430865118E-04,-6.617444900424E-24,
    -0.999999983119));
#137 = DEFINITIONAL_REPRESENTATION('',(#138),#142);
#138 = LINE('',#139,#140);
#139 = CARTESIAN_POINT('',(-0.,-0.));
#140 = VECTOR('',#141,1.);
#141 = DIRECTION('',(-1.,-0.));
#142 = ( GEOMETRIC_REPRESENTATION_CONTEXT(2) 
PARAMETRIC_REPRESENTATION_CONTEXT() REPRESENTATION_CONTEXT('2D SPACE',''
  ) );
#143 = ORIENTED_EDGE('',*,*,#144,.F.);
#144 = EDGE_CURVE('',#78,#101,#145,.T.);
#145 = SURFACE_CURVE('',#146,(#151,#173),.PCURVE_S1.);
#146 = CIRCLE('',#147,2.000809584454);
#147 = AXIS2_PLACEMENT_3D('',#148,#149,#150);
#148 = CARTESIAN_POINT('',(0.268746833453,3.184218798246E-04,
    1.027779858051E-03));
#149 = DIRECTION('',(-0.999999969271,-1.664216338994E-04,
    1.837430839674E-04));
#150 = DIRECTION('',(-1.837430865118E-04,-1.323488980085E-23,
    -0.999999983119));
#151 = PCURVE('',#33,#152);
#152 = DEFINITIONAL_REPRESENTATION('',(#153),#172);
#153 = B_SPLINE_CURVE_WITH_KNOTS('',9,(#154,#155,#156,#157,#158,#159,
    #160,#161,#162,#163,#164,#165,#166,#167,#168,#169,#170,#171),
  .UNSPECIFIED.,.F.,.F.,(10,8,10),(3.14159265359,4.712388980385,
    6.28318530718),.UNSPECIFIED.);
#154 = CARTESIAN_POINT('',(-6.28318530718,0.));
#155 = CARTESIAN_POINT('',(-6.108581715467,0.));
#156 = CARTESIAN_POINT('',(-5.934384013924,0.));
#157 = CARTESIAN_POINT('',(-5.759077082588,0.));
#158 = CARTESIAN_POINT('',(-5.585656629476,0.));
#159 = CARTESIAN_POINT('',(-5.410068894175,0.));
#160 = CARTESIAN_POINT('',(-5.23619087937,0.));
#161 = CARTESIAN_POINT('',(-5.061410979034,0.));
#162 = CARTESIAN_POINT('',(-4.886921905584,0.));
#163 = CARTESIAN_POINT('',(-4.537856055185,0.));
#164 = CARTESIAN_POINT('',(-4.363366981735,0.));
#165 = CARTESIAN_POINT('',(-4.188587081399,0.));
#166 = CARTESIAN_POINT('',(-4.014709066593,0.));
#167 = CARTESIAN_POINT('',(-3.839121331294,0.));
#168 = CARTESIAN_POINT('',(-3.665700878181,0.));
#169 = CARTESIAN_POINT('',(-3.490393946846,0.));
#170 = CARTESIAN_POINT('',(-3.316196245302,0.));
#171 = CARTESIAN_POINT('',(-3.14159265359,0.));
#172 = ( GEOMETRIC_REPRESENTATION_CONTEXT(2) 
PARAMETRIC_REPRESENTATION_CONTEXT() REPRESENTATION_CONTEXT('2D SPACE',''
  ) );
#173 = PCURVE('',#132,#174);
#174 = DEFINITIONAL_REPRESENTATION('',(#175),#179);
#175 = LINE('',#176,#177);
#176 = CARTESIAN_POINT('',(-0.,-0.));
#177 = VECTOR('',#178,1.);
#178 = DIRECTION('',(-1.,-0.));
#179 = ( GEOMETRIC_REPRESENTATION_CONTEXT(2) 
PARAMETRIC_REPRESENTATION_CONTEXT() REPRESENTATION_CONTEXT('2D SPACE',''
  ) );
#180 = ORIENTED_EDGE('',*,*,#77,.T.);
#181 = ADVANCED_FACE('',(#182),#44,.T.);
#182 = FACE_BOUND('',#183,.T.);
#183 = EDGE_LOOP('',(#184,#213,#234,#235,#236));
#184 = ORIENTED_EDGE('',*,*,#185,.T.);
#185 = EDGE_CURVE('',#186,#186,#188,.T.);
#186 = VERTEX_POINT('',#187);
#187 = CARTESIAN_POINT('',(0.962650845685,4.33963419406E-04,
    -1.990561035664));
#188 = SURFACE_CURVE('',#189,(#194,#201),.PCURVE_S1.);
#189 = CIRCLE('',#190,1.991461281838);
#190 = AXIS2_PLACEMENT_3D('',#191,#192,#193);
#191 = CARTESIAN_POINT('',(0.963016762928,4.339634194055E-04,
    9.002125561837E-04));
#192 = DIRECTION('',(-0.999999969271,-1.664216338994E-04,
    1.837430839674E-04));
#193 = DIRECTION('',(-1.837430865118E-04,-1.323488980085E-23,
    -0.999999983119));
#194 = PCURVE('',#44,#195);
#195 = DEFINITIONAL_REPRESENTATION('',(#196),#200);
#196 = LINE('',#197,#198);
#197 = CARTESIAN_POINT('',(-6.617444900424E-24,-4.983369556188E-03));
#198 = VECTOR('',#199,1.);
#199 = DIRECTION('',(-1.,-0.));
#200 = ( GEOMETRIC_REPRESENTATION_CONTEXT(2) 
PARAMETRIC_REPRESENTATION_CONTEXT() REPRESENTATION_CONTEXT('2D SPACE',''
  ) );
#201 = PCURVE('',#202,#207);
#202 = PLANE('',#203);
#203 = AXIS2_PLACEMENT_3D('',#204,#205,#206);
#204 = CARTESIAN_POINT('',(0.963016762928,4.339634194055E-04,
    9.002125561837E-04));
#205 = DIRECTION('',(-0.999999969271,-1.664216338994E-04,
    1.837430839674E-04));
#206 = DIRECTION('',(-1.837430865118E-04,-6.617444900424E-24,
    -0.999999983119));
#207 = DEFINITIONAL_REPRESENTATION('',(#208),#212);
#208 = CIRCLE('',#209,1.991461281838);
#209 = AXIS2_PLACEMENT_2D('',#210,#211);
#210 = CARTESIAN_POINT('',(2.039958052611E-20,-7.268662053675E-20));
#211 = DIRECTION('',(1.,6.617444900424E-24));
#212 = ( GEOMETRIC_REPRESENTATION_CONTEXT(2) 
PARAMETRIC_REPRESENTATION_CONTEXT() REPRESENTATION_CONTEXT('2D SPACE',''
  ) );
#213 = ORIENTED_EDGE('',*,*,#214,.T.);
#214 = EDGE_CURVE('',#186,#24,#215,.T.);
#215 = SEAM_CURVE('',#216,(#220,#227),.PCURVE_S1.);
#216 = LINE('',#217,#218);
#217 = CARTESIAN_POINT('',(0.967632646161,4.347927599098E-04,
    -1.999100654827));
#218 = VECTOR('',#219,1.);
#219 = DIRECTION('',(-0.503897887299,-8.388592233329E-05,0.863763226896)
  );
#220 = PCURVE('',#44,#221);
#221 = DEFINITIONAL_REPRESENTATION('',(#222),#226);
#222 = LINE('',#223,#224);
#223 = CARTESIAN_POINT('',(0.,-0.));
#224 = VECTOR('',#225,1.);
#225 = DIRECTION('',(-0.,-1.));
#226 = ( GEOMETRIC_REPRESENTATION_CONTEXT(2) 
PARAMETRIC_REPRESENTATION_CONTEXT() REPRESENTATION_CONTEXT('2D SPACE',''
  ) );
#227 = PCURVE('',#44,#228);
#228 = DEFINITIONAL_REPRESENTATION('',(#229),#233);
#229 = LINE('',#230,#231);
#230 = CARTESIAN_POINT('',(-6.28318530718,0.));
#231 = VECTOR('',#232,1.);
#232 = DIRECTION('',(-0.,-1.));
#233 = ( GEOMETRIC_REPRESENTATION_CONTEXT(2) 
PARAMETRIC_REPRESENTATION_CONTEXT() REPRESENTATION_CONTEXT('2D SPACE',''
  ) );
#234 = ORIENTED_EDGE('',*,*,#21,.F.);
#235 = ORIENTED_EDGE('',*,*,#56,.F.);
#236 = ORIENTED_EDGE('',*,*,#214,.F.);
#237 = ADVANCED_FACE('',(#238),#132,.T.);
#238 = FACE_BOUND('',#239,.T.);
#239 = EDGE_LOOP('',(#240,#263,#290,#291,#292));
#240 = ORIENTED_EDGE('',*,*,#241,.T.);
#241 = EDGE_CURVE('',#101,#242,#244,.T.);
#242 = VERTEX_POINT('',#243);
#243 = CARTESIAN_POINT('',(-4.439705528894E-04,2.736756594434E-04,
    -1.730657975633));
#244 = SEAM_CURVE('',#245,(#249,#256),.PCURVE_S1.);
#245 = LINE('',#246,#247);
#246 = CARTESIAN_POINT('',(0.268379198524,3.18421879825E-04,
    -1.99978177082));
#247 = VECTOR('',#248,1.);
#248 = DIRECTION('',(-0.706711506615,-1.176337178444E-04,0.707501825143)
  );
#249 = PCURVE('',#132,#250);
#250 = DEFINITIONAL_REPRESENTATION('',(#251),#255);
#251 = LINE('',#252,#253);
#252 = CARTESIAN_POINT('',(-6.28318530718,0.));
#253 = VECTOR('',#254,1.);
#254 = DIRECTION('',(-0.,-1.));
#255 = ( GEOMETRIC_REPRESENTATION_CONTEXT(2) 
PARAMETRIC_REPRESENTATION_CONTEXT() REPRESENTATION_CONTEXT('2D SPACE',''
  ) );
#256 = PCURVE('',#132,#257);
#257 = DEFINITIONAL_REPRESENTATION('',(#258),#262);
#258 = LINE('',#259,#260);
#259 = CARTESIAN_POINT('',(0.,-0.));
#260 = VECTOR('',#261,1.);
#261 = DIRECTION('',(-0.,-1.));
#262 = ( GEOMETRIC_REPRESENTATION_CONTEXT(2) 
PARAMETRIC_REPRESENTATION_CONTEXT() REPRESENTATION_CONTEXT('2D SPACE',''
  ) );
#263 = ORIENTED_EDGE('',*,*,#264,.F.);
#264 = EDGE_CURVE('',#242,#242,#265,.T.);
#265 = SURFACE_CURVE('',#266,(#271,#278),.PCURVE_S1.);
#266 = CIRCLE('',#267,1.731735188208);
#267 = AXIS2_PLACEMENT_3D('',#268,#269,#270);
#268 = CARTESIAN_POINT('',(-1.257761843869E-04,2.73675659443E-04,
    1.077183342058E-03));
#269 = DIRECTION('',(-0.999999969271,-1.664216338994E-04,
    1.837430839674E-04));
#270 = DIRECTION('',(-1.837430865118E-04,-1.323488980085E-23,
    -0.999999983119));
#271 = PCURVE('',#132,#272);
#272 = DEFINITIONAL_REPRESENTATION('',(#273),#277);
#273 = LINE('',#274,#275);
#274 = CARTESIAN_POINT('',(-0.,-0.268872617899));
#275 = VECTOR('',#276,1.);
#276 = DIRECTION('',(-1.,-0.));
#277 = ( GEOMETRIC_REPRESENTATION_CONTEXT(2) 
PARAMETRIC_REPRESENTATION_CONTEXT() REPRESENTATION_CONTEXT('2D SPACE',''
  ) );
#278 = PCURVE('',#279,#284);
#279 = PLANE('',#280);
#280 = AXIS2_PLACEMENT_3D('',#281,#282,#283);
#281 = CARTESIAN_POINT('',(-1.257761843869E-04,2.73675659443E-04,
    1.077183342058E-03));
#282 = DIRECTION('',(-0.999999969271,-1.664216338994E-04,
    1.837430839674E-04));
#283 = DIRECTION('',(-1.837430865118E-04,-6.617444900424E-24,
    -0.999999983119));
#284 = DEFINITIONAL_REPRESENTATION('',(#285),#289);
#285 = CIRCLE('',#286,1.731735188208);
#286 = AXIS2_PLACEMENT_2D('',#287,#288);
#287 = CARTESIAN_POINT('',(0.,0.));
#288 = DIRECTION('',(1.,0.));
#289 = ( GEOMETRIC_REPRESENTATION_CONTEXT(2) 
PARAMETRIC_REPRESENTATION_CONTEXT() REPRESENTATION_CONTEXT('2D SPACE',''
  ) );
#290 = ORIENTED_EDGE('',*,*,#241,.F.);
#291 = ORIENTED_EDGE('',*,*,#100,.T.);
#292 = ORIENTED_EDGE('',*,*,#144,.T.);
#293 = ADVANCED_FACE('',(#294,#325),#202,.T.);
#294 = FACE_BOUND('',#295,.T.);
#295 = EDGE_LOOP('',(#296));
#296 = ORIENTED_EDGE('',*,*,#297,.T.);
#297 = EDGE_CURVE('',#298,#298,#300,.T.);
#298 = VERTEX_POINT('',#299);
#299 = CARTESIAN_POINT('',(0.962649275779,4.33963419406E-04,
    -1.999105063636));
#300 = SURFACE_CURVE('',#301,(#306,#313),.PCURVE_S1.);
#301 = CIRCLE('',#302,2.000005309953);
#302 = AXIS2_PLACEMENT_3D('',#303,#304,#305);
#303 = CARTESIAN_POINT('',(0.963016762928,4.339634194055E-04,
    9.002125561837E-04));
#304 = DIRECTION('',(-0.999999969271,-1.664216338994E-04,
    1.837430839674E-04));
#305 = DIRECTION('',(-1.837430865118E-04,-1.323488980085E-23,
    -0.999999983119));
#306 = PCURVE('',#202,#307);
#307 = DEFINITIONAL_REPRESENTATION('',(#308),#312);
#308 = CIRCLE('',#309,2.000005309953);
#309 = AXIS2_PLACEMENT_2D('',#310,#311);
#310 = CARTESIAN_POINT('',(0.,0.));
#311 = DIRECTION('',(1.,0.));
#312 = ( GEOMETRIC_REPRESENTATION_CONTEXT(2) 
PARAMETRIC_REPRESENTATION_CONTEXT() REPRESENTATION_CONTEXT('2D SPACE',''
  ) );
#313 = PCURVE('',#314,#319);
#314 = CYLINDRICAL_SURFACE('',#315,2.000005309953);
#315 = AXIS2_PLACEMENT_3D('',#316,#317,#318);
#316 = CARTESIAN_POINT('',(11.254991775284,2.146770769646E-03,
    -9.908667308123E-04));
#317 = DIRECTION('',(-0.999999969271,-1.664216338994E-04,
    1.837430839674E-04));
#318 = DIRECTION('',(-1.837430865118E-04,-6.617444900424E-24,
    -0.999999983119));
#319 = DEFINITIONAL_REPRESENTATION('',(#320),#324);
#320 = LINE('',#321,#322);
#321 = CARTESIAN_POINT('',(0.,10.291975328617));
#322 = VECTOR('',#323,1.);
#323 = DIRECTION('',(1.,0.));
#324 = ( GEOMETRIC_REPRESENTATION_CONTEXT(2) 
PARAMETRIC_REPRESENTATION_CONTEXT() REPRESENTATION_CONTEXT('2D SPACE',''
  ) );
#325 = FACE_BOUND('',#326,.T.);
#326 = EDGE_LOOP('',(#327));
#327 = ORIENTED_EDGE('',*,*,#185,.F.);
#328 = ADVANCED_FACE('',(#329,#332),#279,.T.);
#329 = FACE_BOUND('',#330,.T.);
#330 = EDGE_LOOP('',(#331));
#331 = ORIENTED_EDGE('',*,*,#264,.T.);
#332 = FACE_BOUND('',#333,.T.);
#333 = EDGE_LOOP('',(#334,#363,#390,#417,#444,#471));
#334 = ORIENTED_EDGE('',*,*,#335,.T.);
#335 = EDGE_CURVE('',#336,#338,#340,.T.);
#336 = VERTEX_POINT('',#337);
#337 = CARTESIAN_POINT('',(-3.971729164593E-04,0.996200858534,
    -0.573926198732));
#338 = VERTEX_POINT('',#339);
#339 = CARTESIAN_POINT('',(-1.858690347556E-04,0.996204831119,
    0.576073745605));
#340 = SURFACE_CURVE('',#341,(#345,#351),.PCURVE_S1.);
#341 = LINE('',#342,#343);
#342 = CARTESIAN_POINT('',(-3.443469460334E-04,0.99620185168,
    -0.286426212648));
#343 = VECTOR('',#344,1.);
#344 = DIRECTION('',(1.837425116201E-04,3.454422540481E-06,
    0.999999983113));
#345 = PCURVE('',#279,#346);
#346 = DEFINITIONAL_REPRESENTATION('',(#347),#350);
#347 = B_SPLINE_CURVE_WITH_KNOTS('',1,(#348,#349),.UNSPECIFIED.,.F.,.F.,
  (2,2),(-0.287499990939,0.862499972818),.PIECEWISE_BEZIER_KNOTS.);
#348 = CARTESIAN_POINT('',(0.575003422235,-0.995927196666));
#349 = CARTESIAN_POINT('',(-0.574996541515,-0.995931169252));
#350 = ( GEOMETRIC_REPRESENTATION_CONTEXT(2) 
PARAMETRIC_REPRESENTATION_CONTEXT() REPRESENTATION_CONTEXT('2D SPACE',''
  ) );
#351 = PCURVE('',#352,#357);
#352 = PLANE('',#353);
#353 = AXIS2_PLACEMENT_3D('',#354,#355,#356);
#354 = CARTESIAN_POINT('',(-0.137566539283,0.996178030583,
    -0.573900994809));
#355 = DIRECTION('',(1.664222658152E-04,-0.999999986146,
    3.42384370533E-06));
#356 = DIRECTION('',(1.837425116202E-04,3.454422540405E-06,
    0.999999983113));
#357 = DEFINITIONAL_REPRESENTATION('',(#358),#362);
#358 = LINE('',#359,#360);
#359 = CARTESIAN_POINT('',(0.287499990939,-0.137169370582));
#360 = VECTOR('',#361,1.);
#361 = DIRECTION('',(1.,2.951740414592E-17));
#362 = ( GEOMETRIC_REPRESENTATION_CONTEXT(2) 
PARAMETRIC_REPRESENTATION_CONTEXT() REPRESENTATION_CONTEXT('2D SPACE',''
  ) );
#363 = ORIENTED_EDGE('',*,*,#364,.T.);
#364 = EDGE_CURVE('',#338,#365,#367,.T.);
#365 = VERTEX_POINT('',#366);
#366 = CARTESIAN_POINT('',(8.552769731687E-05,2.776482452389E-04,
    1.151077127679));
#367 = SURFACE_CURVE('',#368,(#372,#378),.PCURVE_S1.);
#368 = LINE('',#369,#370);
#369 = CARTESIAN_POINT('',(-1.180198517374E-04,0.747223035401,
    0.719824591124));
#370 = VECTOR('',#371,1.);
#371 = DIRECTION('',(2.359971657615E-04,-0.866023664575,0.500002956692)
  );
#372 = PCURVE('',#279,#373);
#373 = DEFINITIONAL_REPRESENTATION('',(#374),#377);
#374 = B_SPLINE_CURVE_WITH_KNOTS('',1,(#375,#376),.UNSPECIFIED.,.F.,.F.,
  (2,2),(-0.287499990939,0.862499972818),.PIECEWISE_BEZIER_KNOTS.);
#375 = CARTESIAN_POINT('',(-0.574996541515,-0.995931169252));
#376 = CARTESIAN_POINT('',(-1.14999996375,-3.972585851053E-06));
#377 = ( GEOMETRIC_REPRESENTATION_CONTEXT(2) 
PARAMETRIC_REPRESENTATION_CONTEXT() REPRESENTATION_CONTEXT('2D SPACE',''
  ) );
#378 = PCURVE('',#379,#384);
#379 = PLANE('',#380);
#380 = AXIS2_PLACEMENT_3D('',#381,#382,#383);
#381 = CARTESIAN_POINT('',(-0.137355235401,0.996182003169,0.576098949528
    ));
#382 = DIRECTION('',(-7.591454991059E-05,-0.500002984691,-0.866023677238
    ));
#383 = DIRECTION('',(2.359971657614E-04,-0.866023664575,0.500002956692)
  );
#384 = DEFINITIONAL_REPRESENTATION('',(#385),#389);
#385 = LINE('',#386,#387);
#386 = CARTESIAN_POINT('',(0.287499990939,-0.137169370582));
#387 = VECTOR('',#388,1.);
#388 = DIRECTION('',(1.,-2.944964151014E-17));
#389 = ( GEOMETRIC_REPRESENTATION_CONTEXT(2) 
PARAMETRIC_REPRESENTATION_CONTEXT() REPRESENTATION_CONTEXT('2D SPACE',''
  ) );
#390 = ORIENTED_EDGE('',*,*,#391,.T.);
#391 = EDGE_CURVE('',#365,#392,#394,.T.);
#392 = VERTEX_POINT('',#393);
#393 = CARTESIAN_POINT('',(1.456205476856E-04,-0.995653507215,
    0.576080565417));
#394 = SURFACE_CURVE('',#395,(#399,#405),.PCURVE_S1.);
#395 = LINE('',#396,#397);
#396 = CARTESIAN_POINT('',(1.00550909909E-04,-0.24870514062,
    1.007327987114));
#397 = VECTOR('',#398,1.);
#398 = DIRECTION('',(5.225465414138E-05,-0.866027118998,-0.499997026421)
  );
#399 = PCURVE('',#279,#400);
#400 = DEFINITIONAL_REPRESENTATION('',(#401),#404);
#401 = B_SPLINE_CURVE_WITH_KNOTS('',1,(#402,#403),.UNSPECIFIED.,.F.,.F.,
  (2,2),(-0.287499990939,0.862499972818),.PIECEWISE_BEZIER_KNOTS.);
#402 = CARTESIAN_POINT('',(-1.14999996375,-3.97258585097E-06));
#403 = CARTESIAN_POINT('',(-0.575003422235,0.995927196666));
#404 = ( GEOMETRIC_REPRESENTATION_CONTEXT(2) 
PARAMETRIC_REPRESENTATION_CONTEXT() REPRESENTATION_CONTEXT('2D SPACE',''
  ) );
#405 = PCURVE('',#406,#411);
#406 = PLANE('',#407);
#407 = AXIS2_PLACEMENT_3D('',#408,#409,#410);
#408 = CARTESIAN_POINT('',(-0.137083838669,2.548202944657E-04,
    1.151102331603));
#409 = DIRECTION('',(-2.423368157258E-04,0.499997001455,-0.866027101082)
  );
#410 = DIRECTION('',(5.225465414128E-05,-0.866027118998,-0.499997026421)
  );
#411 = DEFINITIONAL_REPRESENTATION('',(#412),#416);
#412 = LINE('',#413,#414);
#413 = CARTESIAN_POINT('',(0.287499990939,-0.137169370582));
#414 = VECTOR('',#415,1.);
#415 = DIRECTION('',(1.,-5.898059818321E-17));
#416 = ( GEOMETRIC_REPRESENTATION_CONTEXT(2) 
PARAMETRIC_REPRESENTATION_CONTEXT() REPRESENTATION_CONTEXT('2D SPACE',''
  ) );
#417 = ORIENTED_EDGE('',*,*,#418,.T.);
#418 = EDGE_CURVE('',#392,#419,#421,.T.);
#419 = VERTEX_POINT('',#420);
#420 = CARTESIAN_POINT('',(-6.568333401813E-05,-0.995657479801,
    -0.573919378921));
#421 = SURFACE_CURVE('',#422,(#426,#432),.PCURVE_S1.);
#422 = LINE('',#423,#424);
#423 = CARTESIAN_POINT('',(9.279457725966E-05,-0.995654500361,
    0.288580579332));
#424 = VECTOR('',#425,1.);
#425 = DIRECTION('',(-1.837425116201E-04,-3.454422540204E-06,
    -0.999999983113));
#426 = PCURVE('',#279,#427);
#427 = DEFINITIONAL_REPRESENTATION('',(#428),#431);
#428 = B_SPLINE_CURVE_WITH_KNOTS('',1,(#429,#430),.UNSPECIFIED.,.F.,.F.,
  (2,2),(-0.287499990939,0.862499972818),.PIECEWISE_BEZIER_KNOTS.);
#429 = CARTESIAN_POINT('',(-0.575003422235,0.995927196666));
#430 = CARTESIAN_POINT('',(0.574996541515,0.995931169252));
#431 = ( GEOMETRIC_REPRESENTATION_CONTEXT(2) 
PARAMETRIC_REPRESENTATION_CONTEXT() REPRESENTATION_CONTEXT('2D SPACE',''
  ) );
#432 = PCURVE('',#433,#438);
#433 = PLANE('',#434);
#434 = AXIS2_PLACEMENT_3D('',#435,#436,#437);
#435 = CARTESIAN_POINT('',(-0.137023745819,-0.995676335166,0.57610576934
    ));
#436 = DIRECTION('',(-1.664222658152E-04,0.999999986146,
    -3.423843705053E-06));
#437 = DIRECTION('',(-1.837425116202E-04,-3.454422540128E-06,
    -0.999999983113));
#438 = DEFINITIONAL_REPRESENTATION('',(#439),#443);
#439 = LINE('',#440,#441);
#440 = CARTESIAN_POINT('',(0.287499990939,-0.137169370582));
#441 = VECTOR('',#442,1.);
#442 = DIRECTION('',(1.,-2.951740414592E-17));
#443 = ( GEOMETRIC_REPRESENTATION_CONTEXT(2) 
PARAMETRIC_REPRESENTATION_CONTEXT() REPRESENTATION_CONTEXT('2D SPACE',''
  ) );
#444 = ORIENTED_EDGE('',*,*,#445,.T.);
#445 = EDGE_CURVE('',#419,#446,#448,.T.);
#446 = VERTEX_POINT('',#447);
#447 = CARTESIAN_POINT('',(-3.370800660906E-04,2.697030736467E-04,
    -1.148922760995));
#448 = SURFACE_CURVE('',#449,(#453,#459),.PCURVE_S1.);
#449 = LINE('',#450,#451);
#450 = CARTESIAN_POINT('',(-1.335325170362E-04,-0.746675684082,
    -0.717670224439));
#451 = VECTOR('',#452,1.);
#452 = DIRECTION('',(-2.359971657615E-04,0.866023664575,-0.500002956692)
  );
#453 = PCURVE('',#279,#454);
#454 = DEFINITIONAL_REPRESENTATION('',(#455),#458);
#455 = B_SPLINE_CURVE_WITH_KNOTS('',1,(#456,#457),.UNSPECIFIED.,.F.,.F.,
  (2,2),(-0.287499990939,0.862499972818),.PIECEWISE_BEZIER_KNOTS.);
#456 = CARTESIAN_POINT('',(0.574996541515,0.995931169252));
#457 = CARTESIAN_POINT('',(1.14999996375,3.972585851386E-06));
#458 = ( GEOMETRIC_REPRESENTATION_CONTEXT(2) 
PARAMETRIC_REPRESENTATION_CONTEXT() REPRESENTATION_CONTEXT('2D SPACE',''
  ) );
#459 = PCURVE('',#460,#465);
#460 = PLANE('',#461);
#461 = AXIS2_PLACEMENT_3D('',#462,#463,#464);
#462 = CARTESIAN_POINT('',(-0.137235049701,-0.995680307751,
    -0.573894174998));
#463 = DIRECTION('',(7.591454991059E-05,0.500002984691,0.866023677238));
#464 = DIRECTION('',(-2.359971657614E-04,0.866023664575,-0.500002956692)
  );
#465 = DEFINITIONAL_REPRESENTATION('',(#466),#470);
#466 = LINE('',#467,#468);
#467 = CARTESIAN_POINT('',(0.287499990939,-0.137169370582));
#468 = VECTOR('',#469,1.);
#469 = DIRECTION('',(1.,2.946319403729E-17));
#470 = ( GEOMETRIC_REPRESENTATION_CONTEXT(2) 
PARAMETRIC_REPRESENTATION_CONTEXT() REPRESENTATION_CONTEXT('2D SPACE',''
  ) );
#471 = ORIENTED_EDGE('',*,*,#472,.T.);
#472 = EDGE_CURVE('',#446,#336,#473,.T.);
#473 = SURFACE_CURVE('',#474,(#478,#484),.PCURVE_S1.);
#474 = LINE('',#475,#476);
#475 = CARTESIAN_POINT('',(-3.521032786828E-04,0.249252491939,
    -1.00517362043));
#476 = VECTOR('',#477,1.);
#477 = DIRECTION('',(-5.225465414138E-05,0.866027118998,0.499997026421)
  );
#478 = PCURVE('',#279,#479);
#479 = DEFINITIONAL_REPRESENTATION('',(#480),#483);
#480 = B_SPLINE_CURVE_WITH_KNOTS('',1,(#481,#482),.UNSPECIFIED.,.F.,.F.,
  (2,2),(-0.287499990939,0.862499972818),.PIECEWISE_BEZIER_KNOTS.);
#481 = CARTESIAN_POINT('',(1.14999996375,3.972585851358E-06));
#482 = CARTESIAN_POINT('',(0.575003422235,-0.995927196666));
#483 = ( GEOMETRIC_REPRESENTATION_CONTEXT(2) 
PARAMETRIC_REPRESENTATION_CONTEXT() REPRESENTATION_CONTEXT('2D SPACE',''
  ) );
#484 = PCURVE('',#485,#490);
#485 = PLANE('',#486);
#486 = AXIS2_PLACEMENT_3D('',#487,#488,#489);
#487 = CARTESIAN_POINT('',(-0.137506446433,2.468751228735E-04,
    -1.148897557072));
#488 = DIRECTION('',(2.423368157258E-04,-0.499997001455,0.866027101082)
  );
#489 = DIRECTION('',(-5.225465414128E-05,0.866027118998,0.499997026421)
  );
#490 = DEFINITIONAL_REPRESENTATION('',(#491),#495);
#491 = LINE('',#492,#493);
#492 = CARTESIAN_POINT('',(0.287499990939,-0.137169370582));
#493 = VECTOR('',#494,1.);
#494 = DIRECTION('',(1.,5.89534931289E-17));
#495 = ( GEOMETRIC_REPRESENTATION_CONTEXT(2) 
PARAMETRIC_REPRESENTATION_CONTEXT() REPRESENTATION_CONTEXT('2D SPACE',''
  ) );
#496 = ADVANCED_FACE('',(#497),#314,.T.);
#497 = FACE_BOUND('',#498,.T.);
#498 = EDGE_LOOP('',(#499,#500,#523,#550));
#499 = ORIENTED_EDGE('',*,*,#297,.F.);
#500 = ORIENTED_EDGE('',*,*,#501,.T.);
#501 = EDGE_CURVE('',#298,#502,#504,.T.);
#502 = VERTEX_POINT('',#503);
#503 = CARTESIAN_POINT('',(11.254624288136,2.146770769646E-03,
    -2.000996142923));
#504 = SEAM_CURVE('',#505,(#509,#516),.PCURVE_S1.);
#505 = LINE('',#506,#507);
#506 = CARTESIAN_POINT('',(0.962649275779,4.33963419406E-04,
    -1.999105063636));
#507 = VECTOR('',#508,1.);
#508 = DIRECTION('',(0.999999969271,1.664216338994E-04,
    -1.837430839674E-04));
#509 = PCURVE('',#314,#510);
#510 = DEFINITIONAL_REPRESENTATION('',(#511),#515);
#511 = LINE('',#512,#513);
#512 = CARTESIAN_POINT('',(0.,10.291975328617));
#513 = VECTOR('',#514,1.);
#514 = DIRECTION('',(-0.,-1.));
#515 = ( GEOMETRIC_REPRESENTATION_CONTEXT(2) 
PARAMETRIC_REPRESENTATION_CONTEXT() REPRESENTATION_CONTEXT('2D SPACE',''
  ) );
#516 = PCURVE('',#314,#517);
#517 = DEFINITIONAL_REPRESENTATION('',(#518),#522);
#518 = LINE('',#519,#520);
#519 = CARTESIAN_POINT('',(6.28318530718,10.291975328617));
#520 = VECTOR('',#521,1.);
#521 = DIRECTION('',(-0.,-1.));
#522 = ( GEOMETRIC_REPRESENTATION_CONTEXT(2) 
PARAMETRIC_REPRESENTATION_CONTEXT() REPRESENTATION_CONTEXT('2D SPACE',''
  ) );
#523 = ORIENTED_EDGE('',*,*,#524,.T.);
#524 = EDGE_CURVE('',#502,#502,#525,.T.);
#525 = SURFACE_CURVE('',#526,(#531,#538),.PCURVE_S1.);
#526 = CIRCLE('',#527,2.000005309953);
#527 = AXIS2_PLACEMENT_3D('',#528,#529,#530);
#528 = CARTESIAN_POINT('',(11.254991775284,2.146770769646E-03,
    -9.908667308123E-04));
#529 = DIRECTION('',(-0.999999969271,-1.664216338994E-04,
    1.837430839674E-04));
#530 = DIRECTION('',(-1.837430865118E-04,-1.323488980085E-23,
    -0.999999983119));
#531 = PCURVE('',#314,#532);
#532 = DEFINITIONAL_REPRESENTATION('',(#533),#537);
#533 = LINE('',#534,#535);
#534 = CARTESIAN_POINT('',(0.,0.));
#535 = VECTOR('',#536,1.);
#536 = DIRECTION('',(1.,0.));
#537 = ( GEOMETRIC_REPRESENTATION_CONTEXT(2) 
PARAMETRIC_REPRESENTATION_CONTEXT() REPRESENTATION_CONTEXT('2D SPACE',''
  ) );
#538 = PCURVE('',#539,#544);
#539 = PLANE('',#540);
#540 = AXIS2_PLACEMENT_3D('',#541,#542,#543);
#541 = CARTESIAN_POINT('',(11.254991775284,2.146770769646E-03,
    -9.908667308123E-04));
#542 = DIRECTION('',(-0.999999969271,-1.664216338994E-04,
    1.837430839674E-04));
#543 = DIRECTION('',(-1.837430865118E-04,-6.617444900424E-24,
    -0.999999983119));
#544 = DEFINITIONAL_REPRESENTATION('',(#545),#549);
#545 = CIRCLE('',#546,2.000005309953);
#546 = AXIS2_PLACEMENT_2D('',#547,#548);
#547 = CARTESIAN_POINT('',(0.,0.));
#548 = DIRECTION('',(1.,0.));
#549 = ( GEOMETRIC_REPRESENTATION_CONTEXT(2) 
PARAMETRIC_REPRESENTATION_CONTEXT() REPRESENTATION_CONTEXT('2D SPACE',''
  ) );
#550 = ORIENTED_EDGE('',*,*,#501,.F.);
#551 = ADVANCED_FACE('',(#552),#352,.T.);
#552 = FACE_BOUND('',#553,.T.);
#553 = EDGE_LOOP('',(#554,#555,#578,#606));
#554 = ORIENTED_EDGE('',*,*,#335,.F.);
#555 = ORIENTED_EDGE('',*,*,#556,.T.);
#556 = EDGE_CURVE('',#336,#557,#559,.T.);
#557 = VERTEX_POINT('',#558);
#558 = CARTESIAN_POINT('',(1.499728709546,0.996450511942,-0.574201836497
    ));
#559 = SURFACE_CURVE('',#560,(#564,#571),.PCURVE_S1.);
#560 = LINE('',#561,#562);
#561 = CARTESIAN_POINT('',(-3.971729164593E-04,0.996200858534,
    -0.573926198732));
#562 = VECTOR('',#563,1.);
#563 = DIRECTION('',(0.999999969271,1.664216338993E-04,
    -1.837430839675E-04));
#564 = PCURVE('',#352,#565);
#565 = DEFINITIONAL_REPRESENTATION('',(#566),#570);
#566 = LINE('',#567,#568);
#567 = CARTESIAN_POINT('',(4.8064037559E-17,-0.137169370582));
#568 = VECTOR('',#569,1.);
#569 = DIRECTION('',(-6.413055850252E-17,-1.));
#570 = ( GEOMETRIC_REPRESENTATION_CONTEXT(2) 
PARAMETRIC_REPRESENTATION_CONTEXT() REPRESENTATION_CONTEXT('2D SPACE',''
  ) );
#571 = PCURVE('',#485,#572);
#572 = DEFINITIONAL_REPRESENTATION('',(#573),#577);
#573 = LINE('',#574,#575);
#574 = CARTESIAN_POINT('',(1.149999963757,-0.137169370582));
#575 = VECTOR('',#576,1.);
#576 = DIRECTION('',(8.890457814381E-18,-1.));
#577 = ( GEOMETRIC_REPRESENTATION_CONTEXT(2) 
PARAMETRIC_REPRESENTATION_CONTEXT() REPRESENTATION_CONTEXT('2D SPACE',''
  ) );
#578 = ORIENTED_EDGE('',*,*,#579,.T.);
#579 = EDGE_CURVE('',#557,#580,#582,.T.);
#580 = VERTEX_POINT('',#581);
#581 = CARTESIAN_POINT('',(1.499940013428,0.996454484528,0.57579810784)
  );
#582 = SURFACE_CURVE('',#583,(#587,#594),.PCURVE_S1.);
#583 = LINE('',#584,#585);
#584 = CARTESIAN_POINT('',(1.499728709546,0.996450511942,-0.574201836497
    ));
#585 = VECTOR('',#586,1.);
#586 = DIRECTION('',(1.837425116202E-04,3.45442254035E-06,0.999999983113
    ));
#587 = PCURVE('',#352,#588);
#588 = DEFINITIONAL_REPRESENTATION('',(#589),#593);
#589 = LINE('',#590,#591);
#590 = CARTESIAN_POINT('',(-4.813857645836E-17,-1.637295299142));
#591 = VECTOR('',#592,1.);
#592 = DIRECTION('',(1.,-1.975958459355E-17));
#593 = ( GEOMETRIC_REPRESENTATION_CONTEXT(2) 
PARAMETRIC_REPRESENTATION_CONTEXT() REPRESENTATION_CONTEXT('2D SPACE',''
  ) );
#594 = PCURVE('',#595,#600);
#595 = PLANE('',#596);
#596 = AXIS2_PLACEMENT_3D('',#597,#598,#599);
#597 = CARTESIAN_POINT('',(1.500000106278,5.233290675287E-04,
    8.015455776054E-04));
#598 = DIRECTION('',(0.999999969271,1.664216338993E-04,
    -1.837430839674E-04));
#599 = DIRECTION('',(-5.225465414128E-05,0.866027118998,0.499997026421)
  );
#600 = DEFINITIONAL_REPRESENTATION('',(#601),#605);
#601 = LINE('',#602,#603);
#602 = CARTESIAN_POINT('',(0.574999981878,-0.995929182965));
#603 = VECTOR('',#604,1.);
#604 = DIRECTION('',(0.5,0.866025403784));
#605 = ( GEOMETRIC_REPRESENTATION_CONTEXT(2) 
PARAMETRIC_REPRESENTATION_CONTEXT() REPRESENTATION_CONTEXT('2D SPACE',''
  ) );
#606 = ORIENTED_EDGE('',*,*,#607,.T.);
#607 = EDGE_CURVE('',#580,#338,#608,.T.);
#608 = SURFACE_CURVE('',#609,(#613,#620),.PCURVE_S1.);
#609 = LINE('',#610,#611);
#610 = CARTESIAN_POINT('',(1.499940013428,0.996454484528,0.57579810784)
  );
#611 = VECTOR('',#612,1.);
#612 = DIRECTION('',(-0.999999969271,-1.664216338993E-04,
    1.837430839675E-04));
#613 = PCURVE('',#352,#614);
#614 = DEFINITIONAL_REPRESENTATION('',(#615),#619);
#615 = LINE('',#616,#617);
#616 = CARTESIAN_POINT('',(1.149999963757,-1.637295299142));
#617 = VECTOR('',#618,1.);
#618 = DIRECTION('',(6.413055850252E-17,1.));
#619 = ( GEOMETRIC_REPRESENTATION_CONTEXT(2) 
PARAMETRIC_REPRESENTATION_CONTEXT() REPRESENTATION_CONTEXT('2D SPACE',''
  ) );
#620 = PCURVE('',#379,#621);
#621 = DEFINITIONAL_REPRESENTATION('',(#622),#626);
#622 = LINE('',#623,#624);
#623 = CARTESIAN_POINT('',(-6.85486823554E-17,-1.637295299142));
#624 = VECTOR('',#625,1.);
#625 = DIRECTION('',(7.307522642552E-17,1.));
#626 = ( GEOMETRIC_REPRESENTATION_CONTEXT(2) 
PARAMETRIC_REPRESENTATION_CONTEXT() REPRESENTATION_CONTEXT('2D SPACE',''
  ) );
#627 = ADVANCED_FACE('',(#628),#485,.T.);
#628 = FACE_BOUND('',#629,.T.);
#629 = EDGE_LOOP('',(#630,#631,#654,#675));
#630 = ORIENTED_EDGE('',*,*,#472,.F.);
#631 = ORIENTED_EDGE('',*,*,#632,.T.);
#632 = EDGE_CURVE('',#446,#633,#635,.T.);
#633 = VERTEX_POINT('',#634);
#634 = CARTESIAN_POINT('',(1.499788802397,5.193564817324E-04,
    -1.14919839876));
#635 = SURFACE_CURVE('',#636,(#640,#647),.PCURVE_S1.);
#636 = LINE('',#637,#638);
#637 = CARTESIAN_POINT('',(-3.370800660906E-04,2.697030736467E-04,
    -1.148922760995));
#638 = VECTOR('',#639,1.);
#639 = DIRECTION('',(0.999999969271,1.664216338993E-04,
    -1.837430839674E-04));
#640 = PCURVE('',#485,#641);
#641 = DEFINITIONAL_REPRESENTATION('',(#642),#646);
#642 = LINE('',#643,#644);
#643 = CARTESIAN_POINT('',(4.51316094956E-17,-0.137169370582));
#644 = VECTOR('',#645,1.);
#645 = DIRECTION('',(3.478933720963E-17,-1.));
#646 = ( GEOMETRIC_REPRESENTATION_CONTEXT(2) 
PARAMETRIC_REPRESENTATION_CONTEXT() REPRESENTATION_CONTEXT('2D SPACE',''
  ) );
#647 = PCURVE('',#460,#648);
#648 = DEFINITIONAL_REPRESENTATION('',(#649),#653);
#649 = LINE('',#650,#651);
#650 = CARTESIAN_POINT('',(1.149999963757,-0.137169370582));
#651 = VECTOR('',#652,1.);
#652 = DIRECTION('',(2.48959923857E-17,-1.));
#653 = ( GEOMETRIC_REPRESENTATION_CONTEXT(2) 
PARAMETRIC_REPRESENTATION_CONTEXT() REPRESENTATION_CONTEXT('2D SPACE',''
  ) );
#654 = ORIENTED_EDGE('',*,*,#655,.T.);
#655 = EDGE_CURVE('',#633,#557,#656,.T.);
#656 = SURFACE_CURVE('',#657,(#661,#668),.PCURVE_S1.);
#657 = LINE('',#658,#659);
#658 = CARTESIAN_POINT('',(1.499788802397,5.193564817324E-04,
    -1.14919839876));
#659 = VECTOR('',#660,1.);
#660 = DIRECTION('',(-5.225465414128E-05,0.866027118998,0.499997026421)
  );
#661 = PCURVE('',#485,#662);
#662 = DEFINITIONAL_REPRESENTATION('',(#663),#667);
#663 = LINE('',#664,#665);
#664 = CARTESIAN_POINT('',(9.166929368365E-17,-1.637295299142));
#665 = VECTOR('',#666,1.);
#666 = DIRECTION('',(1.,-3.969535204013E-17));
#667 = ( GEOMETRIC_REPRESENTATION_CONTEXT(2) 
PARAMETRIC_REPRESENTATION_CONTEXT() REPRESENTATION_CONTEXT('2D SPACE',''
  ) );
#668 = PCURVE('',#595,#669);
#669 = DEFINITIONAL_REPRESENTATION('',(#670),#674);
#670 = LINE('',#671,#672);
#671 = CARTESIAN_POINT('',(-0.574999981878,-0.995929182965));
#672 = VECTOR('',#673,1.);
#673 = DIRECTION('',(1.,-5.79246813712E-16));
#674 = ( GEOMETRIC_REPRESENTATION_CONTEXT(2) 
PARAMETRIC_REPRESENTATION_CONTEXT() REPRESENTATION_CONTEXT('2D SPACE',''
  ) );
#675 = ORIENTED_EDGE('',*,*,#556,.F.);
#676 = ADVANCED_FACE('',(#677),#460,.T.);
#677 = FACE_BOUND('',#678,.T.);
#678 = EDGE_LOOP('',(#679,#680,#703,#724));
#679 = ORIENTED_EDGE('',*,*,#445,.F.);
#680 = ORIENTED_EDGE('',*,*,#681,.T.);
#681 = EDGE_CURVE('',#419,#682,#684,.T.);
#682 = VERTEX_POINT('',#683);
#683 = CARTESIAN_POINT('',(1.500060199129,-0.995407826392,
    -0.574195016685));
#684 = SURFACE_CURVE('',#685,(#689,#696),.PCURVE_S1.);
#685 = LINE('',#686,#687);
#686 = CARTESIAN_POINT('',(-6.568333401813E-05,-0.995657479801,
    -0.573919378921));
#687 = VECTOR('',#688,1.);
#688 = DIRECTION('',(0.999999969271,1.664216338993E-04,
    -1.837430839675E-04));
#689 = PCURVE('',#460,#690);
#690 = DEFINITIONAL_REPRESENTATION('',(#691),#695);
#691 = LINE('',#692,#693);
#692 = CARTESIAN_POINT('',(-4.118782409319E-17,-0.137169370582));
#693 = VECTOR('',#694,1.);
#694 = DIRECTION('',(7.308877895268E-17,-1.));
#695 = ( GEOMETRIC_REPRESENTATION_CONTEXT(2) 
PARAMETRIC_REPRESENTATION_CONTEXT() REPRESENTATION_CONTEXT('2D SPACE',''
  ) );
#696 = PCURVE('',#433,#697);
#697 = DEFINITIONAL_REPRESENTATION('',(#698),#702);
#698 = LINE('',#699,#700);
#699 = CARTESIAN_POINT('',(1.149999963757,-0.137169370582));
#700 = VECTOR('',#701,1.);
#701 = DIRECTION('',(6.418476861114E-17,-1.));
#702 = ( GEOMETRIC_REPRESENTATION_CONTEXT(2) 
PARAMETRIC_REPRESENTATION_CONTEXT() REPRESENTATION_CONTEXT('2D SPACE',''
  ) );
#703 = ORIENTED_EDGE('',*,*,#704,.T.);
#704 = EDGE_CURVE('',#682,#633,#705,.T.);
#705 = SURFACE_CURVE('',#706,(#710,#717),.PCURVE_S1.);
#706 = LINE('',#707,#708);
#707 = CARTESIAN_POINT('',(1.500060199129,-0.995407826392,
    -0.574195016685));
#708 = VECTOR('',#709,1.);
#709 = DIRECTION('',(-2.359971657614E-04,0.866023664575,-0.500002956692)
  );
#710 = PCURVE('',#460,#711);
#711 = DEFINITIONAL_REPRESENTATION('',(#712),#716);
#712 = LINE('',#713,#714);
#713 = CARTESIAN_POINT('',(6.846736719246E-17,-1.637295299142));
#714 = VECTOR('',#715,1.);
#715 = DIRECTION('',(1.,-1.992221491942E-17));
#716 = ( GEOMETRIC_REPRESENTATION_CONTEXT(2) 
PARAMETRIC_REPRESENTATION_CONTEXT() REPRESENTATION_CONTEXT('2D SPACE',''
  ) );
#717 = PCURVE('',#595,#718);
#718 = DEFINITIONAL_REPRESENTATION('',(#719),#723);
#719 = LINE('',#720,#721);
#720 = CARTESIAN_POINT('',(-1.149999963757,1.569245667332E-16));
#721 = VECTOR('',#722,1.);
#722 = DIRECTION('',(0.5,-0.866025403784));
#723 = ( GEOMETRIC_REPRESENTATION_CONTEXT(2) 
PARAMETRIC_REPRESENTATION_CONTEXT() REPRESENTATION_CONTEXT('2D SPACE',''
  ) );
#724 = ORIENTED_EDGE('',*,*,#632,.F.);
#725 = ADVANCED_FACE('',(#726),#433,.T.);
#726 = FACE_BOUND('',#727,.T.);
#727 = EDGE_LOOP('',(#728,#729,#752,#773));
#728 = ORIENTED_EDGE('',*,*,#418,.F.);
#729 = ORIENTED_EDGE('',*,*,#730,.T.);
#730 = EDGE_CURVE('',#392,#731,#733,.T.);
#731 = VERTEX_POINT('',#732);
#732 = CARTESIAN_POINT('',(1.500271503011,-0.995403853807,0.575804927652
    ));
#733 = SURFACE_CURVE('',#734,(#738,#745),.PCURVE_S1.);
#734 = LINE('',#735,#736);
#735 = CARTESIAN_POINT('',(1.456205476856E-04,-0.995653507215,
    0.576080565417));
#736 = VECTOR('',#737,1.);
#737 = DIRECTION('',(0.999999969271,1.664216338993E-04,
    -1.837430839675E-04));
#738 = PCURVE('',#433,#739);
#739 = DEFINITIONAL_REPRESENTATION('',(#740),#744);
#740 = LINE('',#741,#742);
#741 = CARTESIAN_POINT('',(-4.808097821794E-17,-0.137169370582));
#742 = VECTOR('',#743,1.);
#743 = DIRECTION('',(6.415766355683E-17,-1.));
#744 = ( GEOMETRIC_REPRESENTATION_CONTEXT(2) 
PARAMETRIC_REPRESENTATION_CONTEXT() REPRESENTATION_CONTEXT('2D SPACE',''
  ) );
#745 = PCURVE('',#406,#746);
#746 = DEFINITIONAL_REPRESENTATION('',(#747),#751);
#747 = LINE('',#748,#749);
#748 = CARTESIAN_POINT('',(1.149999963757,-0.137169370582));
#749 = VECTOR('',#750,1.);
#750 = DIRECTION('',(-8.890457814381E-18,-1.));
#751 = ( GEOMETRIC_REPRESENTATION_CONTEXT(2) 
PARAMETRIC_REPRESENTATION_CONTEXT() REPRESENTATION_CONTEXT('2D SPACE',''
  ) );
#752 = ORIENTED_EDGE('',*,*,#753,.T.);
#753 = EDGE_CURVE('',#731,#682,#754,.T.);
#754 = SURFACE_CURVE('',#755,(#759,#766),.PCURVE_S1.);
#755 = LINE('',#756,#757);
#756 = CARTESIAN_POINT('',(1.500271503011,-0.995403853807,0.575804927652
    ));
#757 = VECTOR('',#758,1.);
#758 = DIRECTION('',(-1.837425116202E-04,-3.454422540128E-06,
    -0.999999983113));
#759 = PCURVE('',#433,#760);
#760 = DEFINITIONAL_REPRESENTATION('',(#761),#765);
#761 = LINE('',#762,#763);
#762 = CARTESIAN_POINT('',(4.819278656698E-17,-1.637295299142));
#763 = VECTOR('',#764,1.);
#764 = DIRECTION('',(1.,1.975958459355E-17));
#765 = ( GEOMETRIC_REPRESENTATION_CONTEXT(2) 
PARAMETRIC_REPRESENTATION_CONTEXT() REPRESENTATION_CONTEXT('2D SPACE',''
  ) );
#766 = PCURVE('',#595,#767);
#767 = DEFINITIONAL_REPRESENTATION('',(#768),#772);
#768 = LINE('',#769,#770);
#769 = CARTESIAN_POINT('',(-0.574999981878,0.995929182965));
#770 = VECTOR('',#771,1.);
#771 = DIRECTION('',(-0.5,-0.866025403784));
#772 = ( GEOMETRIC_REPRESENTATION_CONTEXT(2) 
PARAMETRIC_REPRESENTATION_CONTEXT() REPRESENTATION_CONTEXT('2D SPACE',''
  ) );
#773 = ORIENTED_EDGE('',*,*,#681,.F.);
#774 = ADVANCED_FACE('',(#775),#406,.T.);
#775 = FACE_BOUND('',#776,.T.);
#776 = EDGE_LOOP('',(#777,#778,#801,#822));
#777 = ORIENTED_EDGE('',*,*,#391,.F.);
#778 = ORIENTED_EDGE('',*,*,#779,.T.);
#779 = EDGE_CURVE('',#365,#780,#782,.T.);
#780 = VERTEX_POINT('',#781);
#781 = CARTESIAN_POINT('',(1.50021141016,5.273016533246E-04,
    1.150801489915));
#782 = SURFACE_CURVE('',#783,(#787,#794),.PCURVE_S1.);
#783 = LINE('',#784,#785);
#784 = CARTESIAN_POINT('',(8.552769731687E-05,2.776482452389E-04,
    1.151077127679));
#785 = VECTOR('',#786,1.);
#786 = DIRECTION('',(0.999999969271,1.664216338993E-04,
    -1.837430839674E-04));
#787 = PCURVE('',#406,#788);
#788 = DEFINITIONAL_REPRESENTATION('',(#789),#793);
#789 = LINE('',#790,#791);
#790 = CARTESIAN_POINT('',(-4.513838575918E-17,-0.137169370582));
#791 = VECTOR('',#792,1.);
#792 = DIRECTION('',(-3.474867962816E-17,-1.));
#793 = ( GEOMETRIC_REPRESENTATION_CONTEXT(2) 
PARAMETRIC_REPRESENTATION_CONTEXT() REPRESENTATION_CONTEXT('2D SPACE',''
  ) );
#794 = PCURVE('',#379,#795);
#795 = DEFINITIONAL_REPRESENTATION('',(#796),#800);
#796 = LINE('',#797,#798);
#797 = CARTESIAN_POINT('',(1.149999963757,-0.137169370582));
#798 = VECTOR('',#799,1.);
#799 = DIRECTION('',(-2.493664996717E-17,-1.));
#800 = ( GEOMETRIC_REPRESENTATION_CONTEXT(2) 
PARAMETRIC_REPRESENTATION_CONTEXT() REPRESENTATION_CONTEXT('2D SPACE',''
  ) );
#801 = ORIENTED_EDGE('',*,*,#802,.T.);
#802 = EDGE_CURVE('',#780,#731,#803,.T.);
#803 = SURFACE_CURVE('',#804,(#808,#815),.PCURVE_S1.);
#804 = LINE('',#805,#806);
#805 = CARTESIAN_POINT('',(1.50021141016,5.273016533246E-04,
    1.150801489915));
#806 = VECTOR('',#807,1.);
#807 = DIRECTION('',(5.225465414128E-05,-0.866027118998,-0.499997026421)
  );
#808 = PCURVE('',#406,#809);
#809 = DEFINITIONAL_REPRESENTATION('',(#810),#814);
#810 = LINE('',#811,#812);
#811 = CARTESIAN_POINT('',(-9.164218862934E-17,-1.637295299142));
#812 = VECTOR('',#813,1.);
#813 = DIRECTION('',(1.,3.969535204013E-17));
#814 = ( GEOMETRIC_REPRESENTATION_CONTEXT(2) 
PARAMETRIC_REPRESENTATION_CONTEXT() REPRESENTATION_CONTEXT('2D SPACE',''
  ) );
#815 = PCURVE('',#595,#816);
#816 = DEFINITIONAL_REPRESENTATION('',(#817),#821);
#817 = LINE('',#818,#819);
#818 = CARTESIAN_POINT('',(0.574999981878,0.995929182965));
#819 = VECTOR('',#820,1.);
#820 = DIRECTION('',(-1.,1.930822712373E-16));
#821 = ( GEOMETRIC_REPRESENTATION_CONTEXT(2) 
PARAMETRIC_REPRESENTATION_CONTEXT() REPRESENTATION_CONTEXT('2D SPACE',''
  ) );
#822 = ORIENTED_EDGE('',*,*,#730,.F.);
#823 = ADVANCED_FACE('',(#824),#379,.T.);
#824 = FACE_BOUND('',#825,.T.);
#825 = EDGE_LOOP('',(#826,#827,#828,#849));
#826 = ORIENTED_EDGE('',*,*,#364,.F.);
#827 = ORIENTED_EDGE('',*,*,#607,.F.);
#828 = ORIENTED_EDGE('',*,*,#829,.T.);
#829 = EDGE_CURVE('',#580,#780,#830,.T.);
#830 = SURFACE_CURVE('',#831,(#835,#842),.PCURVE_S1.);
#831 = LINE('',#832,#833);
#832 = CARTESIAN_POINT('',(1.499940013428,0.996454484528,0.57579810784)
  );
#833 = VECTOR('',#834,1.);
#834 = DIRECTION('',(2.359971657614E-04,-0.866023664575,0.500002956692)
  );
#835 = PCURVE('',#379,#836);
#836 = DEFINITIONAL_REPRESENTATION('',(#837),#841);
#837 = LINE('',#838,#839);
#838 = CARTESIAN_POINT('',(-6.85486823554E-17,-1.637295299142));
#839 = VECTOR('',#840,1.);
#840 = DIRECTION('',(1.,1.994931997373E-17));
#841 = ( GEOMETRIC_REPRESENTATION_CONTEXT(2) 
PARAMETRIC_REPRESENTATION_CONTEXT() REPRESENTATION_CONTEXT('2D SPACE',''
  ) );
#842 = PCURVE('',#595,#843);
#843 = DEFINITIONAL_REPRESENTATION('',(#844),#848);
#844 = LINE('',#845,#846);
#845 = CARTESIAN_POINT('',(1.149999963757,1.609018926978E-17));
#846 = VECTOR('',#847,1.);
#847 = DIRECTION('',(-0.5,0.866025403784));
#848 = ( GEOMETRIC_REPRESENTATION_CONTEXT(2) 
PARAMETRIC_REPRESENTATION_CONTEXT() REPRESENTATION_CONTEXT('2D SPACE',''
  ) );
#849 = ORIENTED_EDGE('',*,*,#779,.F.);
#850 = ADVANCED_FACE('',(#851,#854),#539,.F.);
#851 = FACE_BOUND('',#852,.F.);
#852 = EDGE_LOOP('',(#853));
#853 = ORIENTED_EDGE('',*,*,#524,.T.);
#854 = FACE_BOUND('',#855,.F.);
#855 = EDGE_LOOP('',(#856));
#856 = ORIENTED_EDGE('',*,*,#857,.T.);
#857 = EDGE_CURVE('',#858,#858,#860,.T.);
#858 = VERTEX_POINT('',#859);
#859 = CARTESIAN_POINT('',(11.255358354266,2.146770769646E-03,
    1.994071817057));
#860 = SURFACE_CURVE('',#861,(#866,#877),.PCURVE_S1.);
#861 = CIRCLE('',#862,1.995062717466);
#862 = AXIS2_PLACEMENT_3D('',#863,#864,#865);
#863 = CARTESIAN_POINT('',(11.254991775284,2.146770769646E-03,
    -9.908667308123E-04));
#864 = DIRECTION('',(0.999999969271,1.664216338994E-04,
    -1.837430839674E-04));
#865 = DIRECTION('',(1.837430865118E-04,1.323488980085E-23,
    0.999999983119));
#866 = PCURVE('',#539,#867);
#867 = DEFINITIONAL_REPRESENTATION('',(#868),#876);
#868 = ( BOUNDED_CURVE() B_SPLINE_CURVE(2,(#869,#870,#871,#872,#873,#874
,#875),.UNSPECIFIED.,.T.,.F.) B_SPLINE_CURVE_WITH_KNOTS((1,2,2,2,2,1),(
    -2.094395102393,0.,2.094395102393,4.188790204786,6.28318530718,
8.377580409573),.UNSPECIFIED.) CURVE() GEOMETRIC_REPRESENTATION_ITEM() 
RATIONAL_B_SPLINE_CURVE((1.,0.5,1.,0.5,1.,0.5,1.)) REPRESENTATION_ITEM(
  '') );
#869 = CARTESIAN_POINT('',(-1.995062717466,1.380434515293E-19));
#870 = CARTESIAN_POINT('',(-1.995062717466,3.455549990937));
#871 = CARTESIAN_POINT('',(0.997531358733,1.727774995468));
#872 = CARTESIAN_POINT('',(3.990125434931,4.887875172667E-16));
#873 = CARTESIAN_POINT('',(0.997531358733,-1.727774995468));
#874 = CARTESIAN_POINT('',(-1.995062717466,-3.455549990937));
#875 = CARTESIAN_POINT('',(-1.995062717466,1.380434515293E-19));
#876 = ( GEOMETRIC_REPRESENTATION_CONTEXT(2) 
PARAMETRIC_REPRESENTATION_CONTEXT() REPRESENTATION_CONTEXT('2D SPACE',''
  ) );
#877 = PCURVE('',#878,#883);
#878 = CONICAL_SURFACE('',#879,2.000666913939,0.785513308328);
#879 = AXIS2_PLACEMENT_3D('',#880,#881,#882);
#880 = CARTESIAN_POINT('',(11.249388869424,2.145838324869E-03,
    -9.898372355787E-04));
#881 = DIRECTION('',(-0.999999969271,-1.664216338994E-04,
    1.837430839674E-04));
#882 = DIRECTION('',(1.837430865118E-04,6.617444900424E-24,
    0.999999983119));
#883 = DEFINITIONAL_REPRESENTATION('',(#884),#888);
#884 = LINE('',#885,#886);
#885 = CARTESIAN_POINT('',(-0.,-5.602906032391E-03));
#886 = VECTOR('',#887,1.);
#887 = DIRECTION('',(-1.,-0.));
#888 = ( GEOMETRIC_REPRESENTATION_CONTEXT(2) 
PARAMETRIC_REPRESENTATION_CONTEXT() REPRESENTATION_CONTEXT('2D SPACE',''
  ) );
#889 = ADVANCED_FACE('',(#890),#878,.T.);
#890 = FACE_BOUND('',#891,.T.);
#891 = EDGE_LOOP('',(#892,#915,#942,#943));
#892 = ORIENTED_EDGE('',*,*,#893,.T.);
#893 = EDGE_CURVE('',#858,#894,#896,.T.);
#894 = VERTEX_POINT('',#895);
#895 = CARTESIAN_POINT('',(12.000229214576,2.270756185783E-03,
    1.248755547337));
#896 = SEAM_CURVE('',#897,(#901,#908),.PCURVE_S1.);
#897 = LINE('',#898,#899);
#898 = CARTESIAN_POINT('',(11.249756478138,2.14583832487E-03,
    1.999677042931));
#899 = VECTOR('',#900,1.);
#900 = DIRECTION('',(0.70689539407,1.176643150764E-04,-0.707318095342));
#901 = PCURVE('',#878,#902);
#902 = DEFINITIONAL_REPRESENTATION('',(#903),#907);
#903 = LINE('',#904,#905);
#904 = CARTESIAN_POINT('',(-6.28318530718,0.));
#905 = VECTOR('',#906,1.);
#906 = DIRECTION('',(-0.,-1.));
#907 = ( GEOMETRIC_REPRESENTATION_CONTEXT(2) 
PARAMETRIC_REPRESENTATION_CONTEXT() REPRESENTATION_CONTEXT('2D SPACE',''
  ) );
#908 = PCURVE('',#878,#909);
#909 = DEFINITIONAL_REPRESENTATION('',(#910),#914);
#910 = LINE('',#911,#912);
#911 = CARTESIAN_POINT('',(0.,-0.));
#912 = VECTOR('',#913,1.);
#913 = DIRECTION('',(-0.,-1.));
#914 = ( GEOMETRIC_REPRESENTATION_CONTEXT(2) 
PARAMETRIC_REPRESENTATION_CONTEXT() REPRESENTATION_CONTEXT('2D SPACE',''
  ) );
#915 = ORIENTED_EDGE('',*,*,#916,.F.);
#916 = EDGE_CURVE('',#894,#894,#917,.T.);
#917 = SURFACE_CURVE('',#918,(#923,#930),.PCURVE_S1.);
#918 = CIRCLE('',#919,1.249883325198);
#919 = AXIS2_PLACEMENT_3D('',#920,#921,#922);
#920 = CARTESIAN_POINT('',(11.999999557156,2.270756185783E-03,
    -1.127756762439E-03));
#921 = DIRECTION('',(0.999999969271,1.664216338994E-04,
    -1.837430839674E-04));
#922 = DIRECTION('',(1.837430865118E-04,1.323488980085E-23,
    0.999999983119));
#923 = PCURVE('',#878,#924);
#924 = DEFINITIONAL_REPRESENTATION('',(#925),#929);
#925 = LINE('',#926,#927);
#926 = CARTESIAN_POINT('',(-0.,-0.750610710797));
#927 = VECTOR('',#928,1.);
#928 = DIRECTION('',(-1.,-0.));
#929 = ( GEOMETRIC_REPRESENTATION_CONTEXT(2) 
PARAMETRIC_REPRESENTATION_CONTEXT() REPRESENTATION_CONTEXT('2D SPACE',''
  ) );
#930 = PCURVE('',#931,#936);
#931 = PLANE('',#932);
#932 = AXIS2_PLACEMENT_3D('',#933,#934,#935);
#933 = CARTESIAN_POINT('',(11.999999557156,2.270756185783E-03,
    -1.127756762439E-03));
#934 = DIRECTION('',(0.999999969271,1.664216338994E-04,
    -1.837430839674E-04));
#935 = DIRECTION('',(1.837430865118E-04,6.617444900424E-24,
    0.999999983119));
#936 = DEFINITIONAL_REPRESENTATION('',(#937),#941);
#937 = CIRCLE('',#938,1.249883325198);
#938 = AXIS2_PLACEMENT_2D('',#939,#940);
#939 = CARTESIAN_POINT('',(0.,0.));
#940 = DIRECTION('',(1.,0.));
#941 = ( GEOMETRIC_REPRESENTATION_CONTEXT(2) 
PARAMETRIC_REPRESENTATION_CONTEXT() REPRESENTATION_CONTEXT('2D SPACE',''
  ) );
#942 = ORIENTED_EDGE('',*,*,#893,.F.);
#943 = ORIENTED_EDGE('',*,*,#857,.T.);
#944 = ADVANCED_FACE('',(#945),#931,.T.);
#945 = FACE_BOUND('',#946,.T.);
#946 = EDGE_LOOP('',(#947));
#947 = ORIENTED_EDGE('',*,*,#916,.T.);
#948 = ADVANCED_FACE('',(#949),#595,.F.);
#949 = FACE_BOUND('',#950,.F.);
#950 = EDGE_LOOP('',(#951,#952,#953,#954,#955,#956));
#951 = ORIENTED_EDGE('',*,*,#829,.T.);
#952 = ORIENTED_EDGE('',*,*,#802,.T.);
#953 = ORIENTED_EDGE('',*,*,#753,.T.);
#954 = ORIENTED_EDGE('',*,*,#704,.T.);
#955 = ORIENTED_EDGE('',*,*,#655,.T.);
#956 = ORIENTED_EDGE('',*,*,#579,.T.);
#957 = ( GEOMETRIC_REPRESENTATION_CONTEXT(3) 
GLOBAL_UNCERTAINTY_ASSIGNED_CONTEXT((#961)) GLOBAL_UNIT_ASSIGNED_CONTEXT
((#958,#959,#960)) REPRESENTATION_CONTEXT('Context #1',
  '3D Context with UNIT and UNCERTAINTY') );
#958 = ( LENGTH_UNIT() NAMED_UNIT(*) SI_UNIT(.MILLI.,.METRE.) );
#959 = ( NAMED_UNIT(*) PLANE_ANGLE_UNIT() SI_UNIT($,.RADIAN.) );
#960 = ( NAMED_UNIT(*) SI_UNIT($,.STERADIAN.) SOLID_ANGLE_UNIT() );
#961 = UNCERTAINTY_MEASURE_WITH_UNIT(LENGTH_MEASURE(2.E-04),#958,
  'distance_accuracy_value','confusion accuracy');
#962 = PRODUCT_TYPE('part',$,(#7));
ENDSEC;
END-ISO-10303-21;
