ISO-10303-21;
HEADER;
FILE_DESCRIPTION(('Open CASCADE Model'),'2;1');
FILE_NAME('Open CASCADE Shape Model','2026-09-07T11:10:35',('Author'),(
    'Open CASCADE'),'Open CASCADE STEP processor 7.8','Open CASCADE 7.8'
  ,'Unknown');
FILE_SCHEMA(('CONFIG_CONTROL_DESIGN'));
ENDSEC;
DATA;
#1 = APPLICATION_PROTOCOL_DEFINITION('committee draft',
  'automotive_design',1997,#2);
#2 = APPLICATION_CONTEXT(
  'core data for automotive mechanical design processes');
#3 = SHAPE_DEFINITION_REPRESENTATION(#4,#10);
#4 = PRODUCT_DEFINITION_SHAPE('','',#5);
#5 = PRODUCT_DEFINITION('design','',#6,#9);
#6 = PRODUCT_DEFINITION_FORMATION('','',#7);
#7 = PRODUCT('Product 17','Product 17','',(#8));
#8 = MECHANICAL_CONTEXT('',#2,'mechanical');
#9 = PRODUCT_DEFINITION_CONTEXT('part definition',#2,'design');
#10 = ADVANCED_BREP_SHAPE_REPRESENTATION('',(#11,#15),#791);
#11 = AXIS2_PLACEMENT_3D('',#12,#13,#14);
#12 = CARTESIAN_POINT('',(0.,0.,0.));
#13 = DIRECTION('',(0.,0.,1.));
#14 = DIRECTION('',(1.,0.,-0.));
#15 = MANIFOLD_SOLID_BREP('',#16);
#16 = CLOSED_SHELL('',(#17,#161,#215,#284,#334,#369,#485,#535,#590,#625,
    #678,#735,#784));
#17 = ADVANCED_FACE('',(#18),#32,.T.);
#18 = FACE_BOUND('',#19,.T.);
#19 = EDGE_LOOP('',(#20,#50,#79,#111,#133,#134));
#20 = ORIENTED_EDGE('',*,*,#21,.T.);
#21 = EDGE_CURVE('',#22,#24,#26,.T.);
#22 = VERTEX_POINT('',#23);
#23 = CARTESIAN_POINT('',(13.472504594653,-14.44150238914,
    -8.376524089862E-03));
#24 = VERTEX_POINT('',#25);
#25 = CARTESIAN_POINT('',(10.436906527229,-14.44301608223,
    -7.345973506664E-03));
#26 = SEAM_CURVE('',#27,(#31,#43),.PCURVE_S1.);
#27 = LINE('',#28,#29);
#28 = CARTESIAN_POINT('',(14.074285480222,-14.44120231267,
    -8.580821769864E-03));
#29 = VECTOR('',#30,1.);
#30 = DIRECTION('',(-0.999999818049,-4.986473103847E-04,
    3.394884213266E-04));
#31 = PCURVE('',#32,#37);
#32 = CYLINDRICAL_SURFACE('',#33,14.446189827799);
#33 = AXIS2_PLACEMENT_3D('',#34,#35,#36);
#34 = CARTESIAN_POINT('',(14.067081926104,4.98571911157E-03,
    -8.58082176986E-03));
#35 = DIRECTION('',(-0.999999818049,-4.986473103847E-04,
    3.394884213266E-04));
#36 = DIRECTION('',(4.986473391199E-04,-0.999999875675,0.));
#37 = DEFINITIONAL_REPRESENTATION('',(#38),#42);
#38 = LINE('',#39,#40);
#39 = CARTESIAN_POINT('',(6.28318530718,-0.));
#40 = VECTOR('',#41,1.);
#41 = DIRECTION('',(0.,1.));
#42 = ( GEOMETRIC_REPRESENTATION_CONTEXT(2) 
PARAMETRIC_REPRESENTATION_CONTEXT() REPRESENTATION_CONTEXT('2D SPACE',''
  ) );
#43 = PCURVE('',#32,#44);
#44 = DEFINITIONAL_REPRESENTATION('',(#45),#49);
#45 = LINE('',#46,#47);
#46 = CARTESIAN_POINT('',(0.,-0.));
#47 = VECTOR('',#48,1.);
#48 = DIRECTION('',(0.,1.));
#49 = ( GEOMETRIC_REPRESENTATION_CONTEXT(2) 
PARAMETRIC_REPRESENTATION_CONTEXT() REPRESENTATION_CONTEXT('2D SPACE',''
  ) );
#50 = ORIENTED_EDGE('',*,*,#51,.F.);
#51 = EDGE_CURVE('',#52,#24,#54,.T.);
#52 = VERTEX_POINT('',#53);
#53 = CARTESIAN_POINT('',(10.461822302346,14.229089453632,
    -2.520560122617));
#54 = SURFACE_CURVE('',#55,(#60,#67),.PCURVE_S1.);
#55 = CIRCLE('',#56,14.446189827799);
#56 = AXIS2_PLACEMENT_3D('',#57,#58,#59);
#57 = CARTESIAN_POINT('',(10.429702973111,3.171949549793E-03,
    -7.345973506661E-03));
#58 = DIRECTION('',(-0.999999818049,-4.986473103847E-04,
    3.394884213266E-04));
#59 = DIRECTION('',(4.986473391199E-04,-0.999999875675,2.64697796017E-23
    ));
#60 = PCURVE('',#32,#61);
#61 = DEFINITIONAL_REPRESENTATION('',(#62),#66);
#62 = LINE('',#63,#64);
#63 = CARTESIAN_POINT('',(0.,3.637379614817));
#64 = VECTOR('',#65,1.);
#65 = DIRECTION('',(1.,0.));
#66 = ( GEOMETRIC_REPRESENTATION_CONTEXT(2) 
PARAMETRIC_REPRESENTATION_CONTEXT() REPRESENTATION_CONTEXT('2D SPACE',''
  ) );
#67 = PCURVE('',#68,#73);
#68 = PLANE('',#69);
#69 = AXIS2_PLACEMENT_3D('',#70,#71,#72);
#70 = CARTESIAN_POINT('',(10.429702973111,3.171949549793E-03,
    -7.345973506661E-03));
#71 = DIRECTION('',(-0.999999818049,-4.986473103847E-04,
    3.394884213266E-04));
#72 = DIRECTION('',(4.986473391199E-04,-0.999999875675,0.));
#73 = DEFINITIONAL_REPRESENTATION('',(#74),#78);
#74 = CIRCLE('',#75,14.446189827799);
#75 = AXIS2_PLACEMENT_2D('',#76,#77);
#76 = CARTESIAN_POINT('',(0.,0.));
#77 = DIRECTION('',(1.,0.));
#78 = ( GEOMETRIC_REPRESENTATION_CONTEXT(2) 
PARAMETRIC_REPRESENTATION_CONTEXT() REPRESENTATION_CONTEXT('2D SPACE',''
  ) );
#79 = ORIENTED_EDGE('',*,*,#80,.T.);
#80 = EDGE_CURVE('',#52,#81,#83,.T.);
#81 = VERTEX_POINT('',#82);
#82 = CARTESIAN_POINT('',(10.461960829319,14.224119141886,2.533815595724
    ));
#83 = SURFACE_CURVE('',#84,(#89,#99),.PCURVE_S1.);
#84 = ELLIPSE('',#85,14.446210029921,14.446189827799);
#85 = AXIS2_PLACEMENT_3D('',#86,#87,#88);
#86 = CARTESIAN_POINT('',(10.48619282648,3.200118068366E-03,
    -7.365151161291E-03));
#87 = DIRECTION('',(0.999999405104,-1.053124900256E-03,
    2.841122335297E-04));
#88 = DIRECTION('',(-1.083112734655E-03,-0.927878658522,0.372880707367)
  );
#89 = PCURVE('',#32,#90);
#90 = DEFINITIONAL_REPRESENTATION('',(#91),#98);
#91 = B_SPLINE_CURVE_WITH_KNOTS('',5,(#92,#93,#94,#95,#96,#97),
  .UNSPECIFIED.,.F.,.F.,(6,6),(3.208142808814,3.84170415942),
  .PIECEWISE_BEZIER_KNOTS.);
#92 = CARTESIAN_POINT('',(3.457154177351,3.556783601005));
#93 = CARTESIAN_POINT('',(3.33044190723,3.556987182087));
#94 = CARTESIAN_POINT('',(3.203729637109,3.55767452914));
#95 = CARTESIAN_POINT('',(3.077017366988,3.558839126005));
#96 = CARTESIAN_POINT('',(2.950305096866,3.560440763104));
#97 = CARTESIAN_POINT('',(2.823592826745,3.562413181753));
#98 = ( GEOMETRIC_REPRESENTATION_CONTEXT(2) 
PARAMETRIC_REPRESENTATION_CONTEXT() REPRESENTATION_CONTEXT('2D SPACE',''
  ) );
#99 = PCURVE('',#100,#105);
#100 = PLANE('',#101);
#101 = AXIS2_PLACEMENT_3D('',#102,#103,#104);
#102 = CARTESIAN_POINT('',(10.504084907169,16.99721746846,
    9.363388500612E-03));
#103 = DIRECTION('',(0.999999405104,-1.053124900256E-03,
    2.841122335297E-04));
#104 = DIRECTION('',(1.05312494276E-03,0.999999445464,
    -5.293955920339E-23));
#105 = DEFINITIONAL_REPRESENTATION('',(#106),#110);
#106 = ELLIPSE('',#107,14.446210029921,14.446189827799);
#107 = AXIS2_PLACEMENT_2D('',#108,#109);
#108 = CARTESIAN_POINT('',(-16.99402676919,-1.672854033707E-02));
#109 = DIRECTION('',(-0.927879284633,0.372880722416));
#110 = ( GEOMETRIC_REPRESENTATION_CONTEXT(2) 
PARAMETRIC_REPRESENTATION_CONTEXT() REPRESENTATION_CONTEXT('2D SPACE',''
  ) );
#111 = ORIENTED_EDGE('',*,*,#112,.F.);
#112 = EDGE_CURVE('',#24,#81,#113,.T.);
#113 = SURFACE_CURVE('',#114,(#119,#126),.PCURVE_S1.);
#114 = CIRCLE('',#115,14.446189827799);
#115 = AXIS2_PLACEMENT_3D('',#116,#117,#118);
#116 = CARTESIAN_POINT('',(10.429702973111,3.171949549793E-03,
    -7.345973506661E-03));
#117 = DIRECTION('',(-0.999999818049,-4.986473103847E-04,
    3.394884213266E-04));
#118 = DIRECTION('',(4.986473391199E-04,-0.999999875675,
    2.64697796017E-23));
#119 = PCURVE('',#32,#120);
#120 = DEFINITIONAL_REPRESENTATION('',(#121),#125);
#121 = LINE('',#122,#123);
#122 = CARTESIAN_POINT('',(0.,3.637379614817));
#123 = VECTOR('',#124,1.);
#124 = DIRECTION('',(1.,0.));
#125 = ( GEOMETRIC_REPRESENTATION_CONTEXT(2) 
PARAMETRIC_REPRESENTATION_CONTEXT() REPRESENTATION_CONTEXT('2D SPACE',''
  ) );
#126 = PCURVE('',#68,#127);
#127 = DEFINITIONAL_REPRESENTATION('',(#128),#132);
#128 = CIRCLE('',#129,14.446189827799);
#129 = AXIS2_PLACEMENT_2D('',#130,#131);
#130 = CARTESIAN_POINT('',(0.,0.));
#131 = DIRECTION('',(1.,0.));
#132 = ( GEOMETRIC_REPRESENTATION_CONTEXT(2) 
PARAMETRIC_REPRESENTATION_CONTEXT() REPRESENTATION_CONTEXT('2D SPACE',''
  ) );
#133 = ORIENTED_EDGE('',*,*,#21,.F.);
#134 = ORIENTED_EDGE('',*,*,#135,.T.);
#135 = EDGE_CURVE('',#22,#22,#136,.T.);
#136 = SURFACE_CURVE('',#137,(#142,#149),.PCURVE_S1.);
#137 = CIRCLE('',#138,14.446189827799);
#138 = AXIS2_PLACEMENT_3D('',#139,#140,#141);
#139 = CARTESIAN_POINT('',(13.465301040535,4.685642636941E-03,
    -8.376524089862E-03));
#140 = DIRECTION('',(-0.999999818049,-4.986473103847E-04,
    3.394884213266E-04));
#141 = DIRECTION('',(4.986473391199E-04,-0.999999875675,
    -3.030789764394E-20));
#142 = PCURVE('',#32,#143);
#143 = DEFINITIONAL_REPRESENTATION('',(#144),#148);
#144 = LINE('',#145,#146);
#145 = CARTESIAN_POINT('',(1.200817306608E-19,0.601780995063));
#146 = VECTOR('',#147,1.);
#147 = DIRECTION('',(1.,0.));
#148 = ( GEOMETRIC_REPRESENTATION_CONTEXT(2) 
PARAMETRIC_REPRESENTATION_CONTEXT() REPRESENTATION_CONTEXT('2D SPACE',''
  ) );
#149 = PCURVE('',#150,#155);
#150 = TOROIDAL_SURFACE('',#151,13.844408832736,0.601780995063);
#151 = AXIS2_PLACEMENT_3D('',#152,#153,#154);
#152 = CARTESIAN_POINT('',(13.465301040535,4.685642636941E-03,
    -8.376524089862E-03));
#153 = DIRECTION('',(0.999999818049,4.986473103847E-04,
    -3.394884213266E-04));
#154 = DIRECTION('',(4.986473391199E-04,-0.999999875675,
    -3.033436742354E-20));
#155 = DEFINITIONAL_REPRESENTATION('',(#156),#160);
#156 = LINE('',#157,#158);
#157 = CARTESIAN_POINT('',(-0.,0.));
#158 = VECTOR('',#159,1.);
#159 = DIRECTION('',(-1.,0.));
#160 = ( GEOMETRIC_REPRESENTATION_CONTEXT(2) 
PARAMETRIC_REPRESENTATION_CONTEXT() REPRESENTATION_CONTEXT('2D SPACE',''
  ) );
#161 = ADVANCED_FACE('',(#162),#150,.T.);
#162 = FACE_BOUND('',#163,.F.);
#163 = EDGE_LOOP('',(#164,#186,#187,#188));
#164 = ORIENTED_EDGE('',*,*,#165,.F.);
#165 = EDGE_CURVE('',#22,#166,#168,.T.);
#166 = VERTEX_POINT('',#167);
#167 = CARTESIAN_POINT('',(14.07398540373,-13.83942139242,
    -8.58082176986E-03));
#168 = SEAM_CURVE('',#169,(#174,#180),.PCURVE_S1.);
#169 = CIRCLE('',#170,0.601780995063);
#170 = AXIS2_PLACEMENT_3D('',#171,#172,#173);
#171 = CARTESIAN_POINT('',(13.472204518161,-13.83972146889,
    -8.376524089862E-03));
#172 = DIRECTION('',(3.394883791198E-04,1.692849979563E-07,
    0.999999942374));
#173 = DIRECTION('',(4.986473391199E-04,-0.999999875675,
    -1.504012876968E-19));
#174 = PCURVE('',#150,#175);
#175 = DEFINITIONAL_REPRESENTATION('',(#176),#179);
#176 = B_SPLINE_CURVE_WITH_KNOTS('',1,(#177,#178),.UNSPECIFIED.,.F.,.F.,
  (2,2),(0.,1.570796326795),.PIECEWISE_BEZIER_KNOTS.);
#177 = CARTESIAN_POINT('',(1.200817306608E-19,0.));
#178 = CARTESIAN_POINT('',(1.200817306608E-19,1.570796326795));
#179 = ( GEOMETRIC_REPRESENTATION_CONTEXT(2) 
PARAMETRIC_REPRESENTATION_CONTEXT() REPRESENTATION_CONTEXT('2D SPACE',''
  ) );
#180 = PCURVE('',#150,#181);
#181 = DEFINITIONAL_REPRESENTATION('',(#182),#185);
#182 = B_SPLINE_CURVE_WITH_KNOTS('',1,(#183,#184),.UNSPECIFIED.,.F.,.F.,
  (2,2),(0.,1.570796326795),.PIECEWISE_BEZIER_KNOTS.);
#183 = CARTESIAN_POINT('',(-6.28318530718,0.));
#184 = CARTESIAN_POINT('',(-6.28318530718,1.570796326795));
#185 = ( GEOMETRIC_REPRESENTATION_CONTEXT(2) 
PARAMETRIC_REPRESENTATION_CONTEXT() REPRESENTATION_CONTEXT('2D SPACE',''
  ) );
#186 = ORIENTED_EDGE('',*,*,#135,.F.);
#187 = ORIENTED_EDGE('',*,*,#165,.T.);
#188 = ORIENTED_EDGE('',*,*,#189,.T.);
#189 = EDGE_CURVE('',#166,#166,#190,.T.);
#190 = SURFACE_CURVE('',#191,(#196,#203),.PCURVE_S1.);
#191 = CIRCLE('',#192,13.844408832736);
#192 = AXIS2_PLACEMENT_3D('',#193,#194,#195);
#193 = CARTESIAN_POINT('',(14.067081926104,4.98571911157E-03,
    -8.58082176986E-03));
#194 = DIRECTION('',(-0.999999818049,-4.986473103847E-04,
    3.394884213266E-04));
#195 = DIRECTION('',(4.986473391199E-04,-0.999999875675,
    -3.030789764394E-20));
#196 = PCURVE('',#150,#197);
#197 = DEFINITIONAL_REPRESENTATION('',(#198),#202);
#198 = LINE('',#199,#200);
#199 = CARTESIAN_POINT('',(-0.,1.570796326795));
#200 = VECTOR('',#201,1.);
#201 = DIRECTION('',(-1.,0.));
#202 = ( GEOMETRIC_REPRESENTATION_CONTEXT(2) 
PARAMETRIC_REPRESENTATION_CONTEXT() REPRESENTATION_CONTEXT('2D SPACE',''
  ) );
#203 = PCURVE('',#204,#209);
#204 = PLANE('',#205);
#205 = AXIS2_PLACEMENT_3D('',#206,#207,#208);
#206 = CARTESIAN_POINT('',(14.067081926104,4.98571911157E-03,
    -8.58082176986E-03));
#207 = DIRECTION('',(-0.999999818049,-4.986473103847E-04,
    3.394884213266E-04));
#208 = DIRECTION('',(4.986473391199E-04,-0.999999875675,0.));
#209 = DEFINITIONAL_REPRESENTATION('',(#210),#214);
#210 = CIRCLE('',#211,13.844408832736);
#211 = AXIS2_PLACEMENT_2D('',#212,#213);
#212 = CARTESIAN_POINT('',(0.,0.));
#213 = DIRECTION('',(1.,0.));
#214 = ( GEOMETRIC_REPRESENTATION_CONTEXT(2) 
PARAMETRIC_REPRESENTATION_CONTEXT() REPRESENTATION_CONTEXT('2D SPACE',''
  ) );
#215 = ADVANCED_FACE('',(#216,#253),#68,.T.);
#216 = FACE_BOUND('',#217,.T.);
#217 = EDGE_LOOP('',(#218,#219,#220));
#218 = ORIENTED_EDGE('',*,*,#51,.T.);
#219 = ORIENTED_EDGE('',*,*,#112,.T.);
#220 = ORIENTED_EDGE('',*,*,#221,.F.);
#221 = EDGE_CURVE('',#52,#81,#222,.T.);
#222 = SURFACE_CURVE('',#223,(#228,#235),.PCURVE_S1.);
#223 = ELLIPSE('',#224,3.750102111648,3.750096867365);
#224 = AXIS2_PLACEMENT_3D('',#225,#226,#227);
#225 = CARTESIAN_POINT('',(10.421234557615,16.997304720278,
    9.339849688748E-03));
#226 = DIRECTION('',(-0.999999818049,-4.986473103847E-04,
    3.394884213266E-04));
#227 = DIRECTION('',(5.892732028191E-04,-0.927879122172,0.372880661061)
  );
#228 = PCURVE('',#68,#229);
#229 = DEFINITIONAL_REPRESENTATION('',(#230),#234);
#230 = ELLIPSE('',#231,3.750102111648,3.750096867365);
#231 = AXIS2_PLACEMENT_2D('',#232,#233);
#232 = CARTESIAN_POINT('',(-16.99413488069,1.668582415695E-02));
#233 = DIRECTION('',(0.927879300654,0.372880682549));
#234 = ( GEOMETRIC_REPRESENTATION_CONTEXT(2) 
PARAMETRIC_REPRESENTATION_CONTEXT() REPRESENTATION_CONTEXT('2D SPACE',''
  ) );
#235 = PCURVE('',#236,#241);
#236 = CYLINDRICAL_SURFACE('',#237,3.750096867365);
#237 = AXIS2_PLACEMENT_3D('',#238,#239,#240);
#238 = CARTESIAN_POINT('',(3.495912415844,17.004597953806,
    7.372279776637E-03));
#239 = DIRECTION('',(0.999999405104,-1.053124900256E-03,
    2.841122335297E-04));
#240 = DIRECTION('',(1.05312494276E-03,0.999999445464,
    -5.293955920339E-23));
#241 = DEFINITIONAL_REPRESENTATION('',(#242),#252);
#242 = B_SPLINE_CURVE_WITH_KNOTS('',8,(#243,#244,#245,#246,#247,#248,
    #249,#250,#251),.UNSPECIFIED.,.F.,.F.,(9,9),(4.239142699382,
    7.563005524693),.PIECEWISE_BEZIER_KNOTS.);
#243 = CARTESIAN_POINT('',(4.803523539437,6.922467795886));
#244 = CARTESIAN_POINT('',(4.388040686273,6.924787155816));
#245 = CARTESIAN_POINT('',(3.972557833109,6.927670601331));
#246 = CARTESIAN_POINT('',(3.557074979932,6.930506609464));
#247 = CARTESIAN_POINT('',(3.141592126793,6.932484027267));
#248 = CARTESIAN_POINT('',(2.726109273604,6.932893041732));
#249 = CARTESIAN_POINT('',(2.310626420454,6.931762886083));
#250 = CARTESIAN_POINT('',(1.895143567289,6.929621723962));
#251 = CARTESIAN_POINT('',(1.479660714125,6.927125509501));
#252 = ( GEOMETRIC_REPRESENTATION_CONTEXT(2) 
PARAMETRIC_REPRESENTATION_CONTEXT() REPRESENTATION_CONTEXT('2D SPACE',''
  ) );
#253 = FACE_BOUND('',#254,.T.);
#254 = EDGE_LOOP('',(#255));
#255 = ORIENTED_EDGE('',*,*,#256,.F.);
#256 = EDGE_CURVE('',#257,#257,#259,.T.);
#257 = VERTEX_POINT('',#258);
#258 = CARTESIAN_POINT('',(10.436288829399,-13.20426936838,
    -7.345973506664E-03));
#259 = SURFACE_CURVE('',#260,(#265,#272),.PCURVE_S1.);
#260 = CIRCLE('',#261,13.207442959949);
#261 = AXIS2_PLACEMENT_3D('',#262,#263,#264);
#262 = CARTESIAN_POINT('',(10.429702973111,3.171949549793E-03,
    -7.345973506661E-03));
#263 = DIRECTION('',(-0.999999818049,-4.986473103847E-04,
    3.394884213266E-04));
#264 = DIRECTION('',(4.986473391199E-04,-0.999999875675,
    2.64697796017E-23));
#265 = PCURVE('',#68,#266);
#266 = DEFINITIONAL_REPRESENTATION('',(#267),#271);
#267 = CIRCLE('',#268,13.207442959949);
#268 = AXIS2_PLACEMENT_2D('',#269,#270);
#269 = CARTESIAN_POINT('',(1.282628464091E-18,1.131670504787E-18));
#270 = DIRECTION('',(1.,5.293955767804E-23));
#271 = ( GEOMETRIC_REPRESENTATION_CONTEXT(2) 
PARAMETRIC_REPRESENTATION_CONTEXT() REPRESENTATION_CONTEXT('2D SPACE',''
  ) );
#272 = PCURVE('',#273,#278);
#273 = CYLINDRICAL_SURFACE('',#274,13.207442959949);
#274 = AXIS2_PLACEMENT_3D('',#275,#276,#277);
#275 = CARTESIAN_POINT('',(10.527024185084,3.220478519217E-03,
    -7.379012937287E-03));
#276 = DIRECTION('',(-0.999999818049,-4.986473103847E-04,
    3.394884213266E-04));
#277 = DIRECTION('',(4.986473391199E-04,-0.999999875675,0.));
#278 = DEFINITIONAL_REPRESENTATION('',(#279),#283);
#279 = LINE('',#280,#281);
#280 = CARTESIAN_POINT('',(2.64697796017E-23,9.732122968137E-02));
#281 = VECTOR('',#282,1.);
#282 = DIRECTION('',(1.,0.));
#283 = ( GEOMETRIC_REPRESENTATION_CONTEXT(2) 
PARAMETRIC_REPRESENTATION_CONTEXT() REPRESENTATION_CONTEXT('2D SPACE',''
  ) );
#284 = ADVANCED_FACE('',(#285),#100,.T.);
#285 = FACE_BOUND('',#286,.T.);
#286 = EDGE_LOOP('',(#287,#311,#333));
#287 = ORIENTED_EDGE('',*,*,#288,.T.);
#288 = EDGE_CURVE('',#52,#289,#291,.T.);
#289 = VERTEX_POINT('',#290);
#290 = CARTESIAN_POINT('',(10.508034227717,20.74731225626,
    9.363388500611E-03));
#291 = SURFACE_CURVE('',#292,(#297,#304),.PCURVE_S1.);
#292 = CIRCLE('',#293,3.750096867365);
#293 = AXIS2_PLACEMENT_3D('',#294,#295,#296);
#294 = CARTESIAN_POINT('',(10.504084907169,16.99721746846,
    9.363388500612E-03));
#295 = DIRECTION('',(0.999999405104,-1.053124900256E-03,
    2.841122335297E-04));
#296 = DIRECTION('',(1.05312494276E-03,0.999999445464,
    -1.058791184068E-22));
#297 = PCURVE('',#100,#298);
#298 = DEFINITIONAL_REPRESENTATION('',(#299),#303);
#299 = CIRCLE('',#300,3.750096867365);
#300 = AXIS2_PLACEMENT_2D('',#301,#302);
#301 = CARTESIAN_POINT('',(0.,0.));
#302 = DIRECTION('',(1.,0.));
#303 = ( GEOMETRIC_REPRESENTATION_CONTEXT(2) 
PARAMETRIC_REPRESENTATION_CONTEXT() REPRESENTATION_CONTEXT('2D SPACE',''
  ) );
#304 = PCURVE('',#236,#305);
#305 = DEFINITIONAL_REPRESENTATION('',(#306),#310);
#306 = LINE('',#307,#308);
#307 = CARTESIAN_POINT('',(0.,7.008176660462));
#308 = VECTOR('',#309,1.);
#309 = DIRECTION('',(1.,0.));
#310 = ( GEOMETRIC_REPRESENTATION_CONTEXT(2) 
PARAMETRIC_REPRESENTATION_CONTEXT() REPRESENTATION_CONTEXT('2D SPACE',''
  ) );
#311 = ORIENTED_EDGE('',*,*,#312,.T.);
#312 = EDGE_CURVE('',#289,#81,#313,.T.);
#313 = SURFACE_CURVE('',#314,(#319,#326),.PCURVE_S1.);
#314 = CIRCLE('',#315,3.750096867365);
#315 = AXIS2_PLACEMENT_3D('',#316,#317,#318);
#316 = CARTESIAN_POINT('',(10.504084907169,16.99721746846,
    9.363388500612E-03));
#317 = DIRECTION('',(0.999999405104,-1.053124900256E-03,
    2.841122335297E-04));
#318 = DIRECTION('',(1.05312494276E-03,0.999999445464,
    -1.058791184068E-22));
#319 = PCURVE('',#100,#320);
#320 = DEFINITIONAL_REPRESENTATION('',(#321),#325);
#321 = CIRCLE('',#322,3.750096867365);
#322 = AXIS2_PLACEMENT_2D('',#323,#324);
#323 = CARTESIAN_POINT('',(0.,0.));
#324 = DIRECTION('',(1.,0.));
#325 = ( GEOMETRIC_REPRESENTATION_CONTEXT(2) 
PARAMETRIC_REPRESENTATION_CONTEXT() REPRESENTATION_CONTEXT('2D SPACE',''
  ) );
#326 = PCURVE('',#236,#327);
#327 = DEFINITIONAL_REPRESENTATION('',(#328),#332);
#328 = LINE('',#329,#330);
#329 = CARTESIAN_POINT('',(0.,7.008176660462));
#330 = VECTOR('',#331,1.);
#331 = DIRECTION('',(1.,0.));
#332 = ( GEOMETRIC_REPRESENTATION_CONTEXT(2) 
PARAMETRIC_REPRESENTATION_CONTEXT() REPRESENTATION_CONTEXT('2D SPACE',''
  ) );
#333 = ORIENTED_EDGE('',*,*,#80,.F.);
#334 = ADVANCED_FACE('',(#335,#338),#204,.F.);
#335 = FACE_BOUND('',#336,.F.);
#336 = EDGE_LOOP('',(#337));
#337 = ORIENTED_EDGE('',*,*,#189,.T.);
#338 = FACE_BOUND('',#339,.F.);
#339 = EDGE_LOOP('',(#340));
#340 = ORIENTED_EDGE('',*,*,#341,.F.);
#341 = EDGE_CURVE('',#342,#342,#344,.T.);
#342 = VERTEX_POINT('',#343);
#343 = CARTESIAN_POINT('',(14.072067997395,-9.994206657528,
    -8.580821769863E-03));
#344 = SURFACE_CURVE('',#345,(#350,#357),.PCURVE_S1.);
#345 = CIRCLE('',#346,9.999193619785);
#346 = AXIS2_PLACEMENT_3D('',#347,#348,#349);
#347 = CARTESIAN_POINT('',(14.067081926104,4.98571911157E-03,
    -8.58082176986E-03));
#348 = DIRECTION('',(-0.999999818049,-4.986473103847E-04,
    3.394884213266E-04));
#349 = DIRECTION('',(4.986473391199E-04,-0.999999875675,
    2.64697796017E-23));
#350 = PCURVE('',#204,#351);
#351 = DEFINITIONAL_REPRESENTATION('',(#352),#356);
#352 = CIRCLE('',#353,9.999193619785);
#353 = AXIS2_PLACEMENT_2D('',#354,#355);
#354 = CARTESIAN_POINT('',(-8.857756112943E-19,-2.337775880158E-18));
#355 = DIRECTION('',(1.,5.293955767804E-23));
#356 = ( GEOMETRIC_REPRESENTATION_CONTEXT(2) 
PARAMETRIC_REPRESENTATION_CONTEXT() REPRESENTATION_CONTEXT('2D SPACE',''
  ) );
#357 = PCURVE('',#358,#363);
#358 = CYLINDRICAL_SURFACE('',#359,9.999193619785);
#359 = AXIS2_PLACEMENT_3D('',#360,#361,#362);
#360 = CARTESIAN_POINT('',(14.418397607552,5.160901763095E-03,
    -8.700089397643E-03));
#361 = DIRECTION('',(-0.999999818049,-4.986473103847E-04,
    3.394884213266E-04));
#362 = DIRECTION('',(4.986473391199E-04,-0.999999875675,0.));
#363 = DEFINITIONAL_REPRESENTATION('',(#364),#368);
#364 = LINE('',#365,#366);
#365 = CARTESIAN_POINT('',(2.64697796017E-23,0.351315745371));
#366 = VECTOR('',#367,1.);
#367 = DIRECTION('',(1.,0.));
#368 = ( GEOMETRIC_REPRESENTATION_CONTEXT(2) 
PARAMETRIC_REPRESENTATION_CONTEXT() REPRESENTATION_CONTEXT('2D SPACE',''
  ) );
#369 = ADVANCED_FACE('',(#370),#236,.T.);
#370 = FACE_BOUND('',#371,.T.);
#371 = EDGE_LOOP('',(#372,#395,#396,#397,#398,#399,#428,#463));
#372 = ORIENTED_EDGE('',*,*,#373,.T.);
#373 = EDGE_CURVE('',#374,#289,#376,.T.);
#374 = VERTEX_POINT('',#375);
#375 = CARTESIAN_POINT('',(3.499861736393,20.754692741607,
    7.372279776636E-03));
#376 = SEAM_CURVE('',#377,(#381,#388),.PCURVE_S1.);
#377 = LINE('',#378,#379);
#378 = CARTESIAN_POINT('',(3.499861736393,20.754692741607,
    7.372279776636E-03));
#379 = VECTOR('',#380,1.);
#380 = DIRECTION('',(0.999999405104,-1.053124900256E-03,
    2.841122335297E-04));
#381 = PCURVE('',#236,#382);
#382 = DEFINITIONAL_REPRESENTATION('',(#383),#387);
#383 = LINE('',#384,#385);
#384 = CARTESIAN_POINT('',(6.28318530718,-0.));
#385 = VECTOR('',#386,1.);
#386 = DIRECTION('',(0.,1.));
#387 = ( GEOMETRIC_REPRESENTATION_CONTEXT(2) 
PARAMETRIC_REPRESENTATION_CONTEXT() REPRESENTATION_CONTEXT('2D SPACE',''
  ) );
#388 = PCURVE('',#236,#389);
#389 = DEFINITIONAL_REPRESENTATION('',(#390),#394);
#390 = LINE('',#391,#392);
#391 = CARTESIAN_POINT('',(0.,-0.));
#392 = VECTOR('',#393,1.);
#393 = DIRECTION('',(0.,1.));
#394 = ( GEOMETRIC_REPRESENTATION_CONTEXT(2) 
PARAMETRIC_REPRESENTATION_CONTEXT() REPRESENTATION_CONTEXT('2D SPACE',''
  ) );
#395 = ORIENTED_EDGE('',*,*,#288,.F.);
#396 = ORIENTED_EDGE('',*,*,#221,.T.);
#397 = ORIENTED_EDGE('',*,*,#312,.F.);
#398 = ORIENTED_EDGE('',*,*,#373,.F.);
#399 = ORIENTED_EDGE('',*,*,#400,.T.);
#400 = EDGE_CURVE('',#374,#401,#403,.T.);
#401 = VERTEX_POINT('',#402);
#402 = CARTESIAN_POINT('',(3.520086872357,14.2278740062,2.52793171961));
#403 = SURFACE_CURVE('',#404,(#409,#416),.PCURVE_S1.);
#404 = CIRCLE('',#405,3.750096867365);
#405 = AXIS2_PLACEMENT_3D('',#406,#407,#408);
#406 = CARTESIAN_POINT('',(3.495912415844,17.004597953806,
    7.372279776637E-03));
#407 = DIRECTION('',(0.999999405104,-1.053124900256E-03,
    2.841122335297E-04));
#408 = DIRECTION('',(1.05312494276E-03,0.999999445464,
    -1.058791184068E-22));
#409 = PCURVE('',#236,#410);
#410 = DEFINITIONAL_REPRESENTATION('',(#411),#415);
#411 = LINE('',#412,#413);
#412 = CARTESIAN_POINT('',(0.,0.));
#413 = VECTOR('',#414,1.);
#414 = DIRECTION('',(1.,0.));
#415 = ( GEOMETRIC_REPRESENTATION_CONTEXT(2) 
PARAMETRIC_REPRESENTATION_CONTEXT() REPRESENTATION_CONTEXT('2D SPACE',''
  ) );
#416 = PCURVE('',#417,#422);
#417 = PLANE('',#418);
#418 = AXIS2_PLACEMENT_3D('',#419,#420,#421);
#419 = CARTESIAN_POINT('',(3.495912415844,17.004597953806,
    7.372279776637E-03));
#420 = DIRECTION('',(0.999999405104,-1.053124900256E-03,
    2.841122335297E-04));
#421 = DIRECTION('',(1.05312494276E-03,0.999999445464,
    -5.293955920339E-23));
#422 = DEFINITIONAL_REPRESENTATION('',(#423),#427);
#423 = CIRCLE('',#424,3.750096867365);
#424 = AXIS2_PLACEMENT_2D('',#425,#426);
#425 = CARTESIAN_POINT('',(0.,0.));
#426 = DIRECTION('',(1.,0.));
#427 = ( GEOMETRIC_REPRESENTATION_CONTEXT(2) 
PARAMETRIC_REPRESENTATION_CONTEXT() REPRESENTATION_CONTEXT('2D SPACE',''
  ) );
#428 = ORIENTED_EDGE('',*,*,#429,.F.);
#429 = EDGE_CURVE('',#430,#401,#432,.T.);
#430 = VERTEX_POINT('',#431);
#431 = CARTESIAN_POINT('',(3.519948172909,14.231547744713,
    -2.517212796809));
#432 = SURFACE_CURVE('',#433,(#438,#451),.PCURVE_S1.);
#433 = ELLIPSE('',#434,3.750102111648,3.750096867365);
#434 = AXIS2_PLACEMENT_3D('',#435,#436,#437);
#435 = CARTESIAN_POINT('',(3.545661392371,17.004545561889,
    7.386414077883E-03));
#436 = DIRECTION('',(-0.999999818049,-4.986473103847E-04,
    3.394884213266E-04));
#437 = DIRECTION('',(5.892732028191E-04,-0.927879122172,0.372880661061)
  );
#438 = PCURVE('',#236,#439);
#439 = DEFINITIONAL_REPRESENTATION('',(#440),#450);
#440 = B_SPLINE_CURVE_WITH_KNOTS('',8,(#441,#442,#443,#444,#445,#446,
    #447,#448,#449),.UNSPECIFIED.,.F.,.F.,(9,9),(4.240181731831,
    7.561966492243),.PIECEWISE_BEZIER_KNOTS.);
#441 = CARTESIAN_POINT('',(4.802484506987,4.689634214535E-02));
#442 = CARTESIAN_POINT('',(4.387261411936,4.921548399878E-02));
#443 = CARTESIAN_POINT('',(3.972038316882,5.209686250862E-02));
#444 = CARTESIAN_POINT('',(3.556815221827,5.492978263223E-02));
#445 = CARTESIAN_POINT('',(3.141592126773,5.690481302219E-02));
#446 = CARTESIAN_POINT('',(2.726369031723,5.731408769071E-02));
#447 = CARTESIAN_POINT('',(2.311145936674,5.618640999781E-02));
#448 = CARTESIAN_POINT('',(1.895922841627,5.40483717628E-02));
#449 = CARTESIAN_POINT('',(1.480699746575,5.155449552141E-02));
#450 = ( GEOMETRIC_REPRESENTATION_CONTEXT(2) 
PARAMETRIC_REPRESENTATION_CONTEXT() REPRESENTATION_CONTEXT('2D SPACE',''
  ) );
#451 = PCURVE('',#452,#457);
#452 = PLANE('',#453);
#453 = AXIS2_PLACEMENT_3D('',#454,#455,#456);
#454 = CARTESIAN_POINT('',(3.554136583692,-2.565337614768E-04,
    -5.011797902686E-03));
#455 = DIRECTION('',(-0.999999818049,-4.986473103847E-04,
    3.394884213266E-04));
#456 = DIRECTION('',(4.986473391199E-04,-0.999999875675,0.));
#457 = DEFINITIONAL_REPRESENTATION('',(#458),#462);
#458 = ELLIPSE('',#459,3.750102111648,3.750096867365);
#459 = AXIS2_PLACEMENT_2D('',#460,#461);
#460 = CARTESIAN_POINT('',(-17.00480420766,1.239821269503E-02));
#461 = DIRECTION('',(0.927879300654,0.372880682549));
#462 = ( GEOMETRIC_REPRESENTATION_CONTEXT(2) 
PARAMETRIC_REPRESENTATION_CONTEXT() REPRESENTATION_CONTEXT('2D SPACE',''
  ) );
#463 = ORIENTED_EDGE('',*,*,#464,.T.);
#464 = EDGE_CURVE('',#430,#374,#465,.T.);
#465 = SURFACE_CURVE('',#466,(#471,#478),.PCURVE_S1.);
#466 = CIRCLE('',#467,3.750096867365);
#467 = AXIS2_PLACEMENT_3D('',#468,#469,#470);
#468 = CARTESIAN_POINT('',(3.495912415844,17.004597953806,
    7.372279776637E-03));
#469 = DIRECTION('',(0.999999405104,-1.053124900256E-03,
    2.841122335297E-04));
#470 = DIRECTION('',(1.05312494276E-03,0.999999445464,
    -1.058791184068E-22));
#471 = PCURVE('',#236,#472);
#472 = DEFINITIONAL_REPRESENTATION('',(#473),#477);
#473 = LINE('',#474,#475);
#474 = CARTESIAN_POINT('',(0.,0.));
#475 = VECTOR('',#476,1.);
#476 = DIRECTION('',(1.,0.));
#477 = ( GEOMETRIC_REPRESENTATION_CONTEXT(2) 
PARAMETRIC_REPRESENTATION_CONTEXT() REPRESENTATION_CONTEXT('2D SPACE',''
  ) );
#478 = PCURVE('',#417,#479);
#479 = DEFINITIONAL_REPRESENTATION('',(#480),#484);
#480 = CIRCLE('',#481,3.750096867365);
#481 = AXIS2_PLACEMENT_2D('',#482,#483);
#482 = CARTESIAN_POINT('',(0.,0.));
#483 = DIRECTION('',(1.,0.));
#484 = ( GEOMETRIC_REPRESENTATION_CONTEXT(2) 
PARAMETRIC_REPRESENTATION_CONTEXT() REPRESENTATION_CONTEXT('2D SPACE',''
  ) );
#485 = ADVANCED_FACE('',(#486),#273,.T.);
#486 = FACE_BOUND('',#487,.T.);
#487 = EDGE_LOOP('',(#488,#489,#512,#534));
#488 = ORIENTED_EDGE('',*,*,#256,.T.);
#489 = ORIENTED_EDGE('',*,*,#490,.T.);
#490 = EDGE_CURVE('',#257,#491,#493,.T.);
#491 = VERTEX_POINT('',#492);
#492 = CARTESIAN_POINT('',(3.560722439981,-13.2076978517,
    -5.011797902689E-03));
#493 = SEAM_CURVE('',#494,(#498,#505),.PCURVE_S1.);
#494 = LINE('',#495,#496);
#495 = CARTESIAN_POINT('',(10.533610041373,-13.20422083942,
    -7.37901293729E-03));
#496 = VECTOR('',#497,1.);
#497 = DIRECTION('',(-0.999999818049,-4.986473103847E-04,
    3.394884213266E-04));
#498 = PCURVE('',#273,#499);
#499 = DEFINITIONAL_REPRESENTATION('',(#500),#504);
#500 = LINE('',#501,#502);
#501 = CARTESIAN_POINT('',(0.,-0.));
#502 = VECTOR('',#503,1.);
#503 = DIRECTION('',(0.,1.));
#504 = ( GEOMETRIC_REPRESENTATION_CONTEXT(2) 
PARAMETRIC_REPRESENTATION_CONTEXT() REPRESENTATION_CONTEXT('2D SPACE',''
  ) );
#505 = PCURVE('',#273,#506);
#506 = DEFINITIONAL_REPRESENTATION('',(#507),#511);
#507 = LINE('',#508,#509);
#508 = CARTESIAN_POINT('',(6.28318530718,-0.));
#509 = VECTOR('',#510,1.);
#510 = DIRECTION('',(0.,1.));
#511 = ( GEOMETRIC_REPRESENTATION_CONTEXT(2) 
PARAMETRIC_REPRESENTATION_CONTEXT() REPRESENTATION_CONTEXT('2D SPACE',''
  ) );
#512 = ORIENTED_EDGE('',*,*,#513,.F.);
#513 = EDGE_CURVE('',#491,#491,#514,.T.);
#514 = SURFACE_CURVE('',#515,(#520,#527),.PCURVE_S1.);
#515 = CIRCLE('',#516,13.207442959949);
#516 = AXIS2_PLACEMENT_3D('',#517,#518,#519);
#517 = CARTESIAN_POINT('',(3.554136583692,-2.565337614768E-04,
    -5.011797902686E-03));
#518 = DIRECTION('',(-0.999999818049,-4.986473103847E-04,
    3.394884213266E-04));
#519 = DIRECTION('',(4.986473391199E-04,-0.999999875675,
    2.64697796017E-23));
#520 = PCURVE('',#273,#521);
#521 = DEFINITIONAL_REPRESENTATION('',(#522),#526);
#522 = LINE('',#523,#524);
#523 = CARTESIAN_POINT('',(2.64697796017E-23,6.972888870114));
#524 = VECTOR('',#525,1.);
#525 = DIRECTION('',(1.,0.));
#526 = ( GEOMETRIC_REPRESENTATION_CONTEXT(2) 
PARAMETRIC_REPRESENTATION_CONTEXT() REPRESENTATION_CONTEXT('2D SPACE',''
  ) );
#527 = PCURVE('',#452,#528);
#528 = DEFINITIONAL_REPRESENTATION('',(#529),#533);
#529 = CIRCLE('',#530,13.207442959949);
#530 = AXIS2_PLACEMENT_2D('',#531,#532);
#531 = CARTESIAN_POINT('',(-2.168404075385E-19,8.673617247135E-19));
#532 = DIRECTION('',(1.,5.293955767804E-23));
#533 = ( GEOMETRIC_REPRESENTATION_CONTEXT(2) 
PARAMETRIC_REPRESENTATION_CONTEXT() REPRESENTATION_CONTEXT('2D SPACE',''
  ) );
#534 = ORIENTED_EDGE('',*,*,#490,.F.);
#535 = ADVANCED_FACE('',(#536),#358,.F.);
#536 = FACE_BOUND('',#537,.F.);
#537 = EDGE_LOOP('',(#538,#539,#562,#589));
#538 = ORIENTED_EDGE('',*,*,#341,.T.);
#539 = ORIENTED_EDGE('',*,*,#540,.F.);
#540 = EDGE_CURVE('',#541,#342,#543,.T.);
#541 = VERTEX_POINT('',#542);
#542 = CARTESIAN_POINT('',(-4.635791742227E-02,-10.00124677391,
    -3.787778772327E-03));
#543 = SEAM_CURVE('',#544,(#548,#555),.PCURVE_S1.);
#544 = LINE('',#545,#546);
#545 = CARTESIAN_POINT('',(-4.635791742227E-02,-10.00124677391,
    -3.787778772327E-03));
#546 = VECTOR('',#547,1.);
#547 = DIRECTION('',(0.999999818049,4.986473103848E-04,
    -3.394884213266E-04));
#548 = PCURVE('',#358,#549);
#549 = DEFINITIONAL_REPRESENTATION('',(#550),#554);
#550 = LINE('',#551,#552);
#551 = CARTESIAN_POINT('',(6.28318530718,14.469744229047));
#552 = VECTOR('',#553,1.);
#553 = DIRECTION('',(-0.,-1.));
#554 = ( GEOMETRIC_REPRESENTATION_CONTEXT(2) 
PARAMETRIC_REPRESENTATION_CONTEXT() REPRESENTATION_CONTEXT('2D SPACE',''
  ) );
#555 = PCURVE('',#358,#556);
#556 = DEFINITIONAL_REPRESENTATION('',(#557),#561);
#557 = LINE('',#558,#559);
#558 = CARTESIAN_POINT('',(0.,14.469744229047));
#559 = VECTOR('',#560,1.);
#560 = DIRECTION('',(-0.,-1.));
#561 = ( GEOMETRIC_REPRESENTATION_CONTEXT(2) 
PARAMETRIC_REPRESENTATION_CONTEXT() REPRESENTATION_CONTEXT('2D SPACE',''
  ) );
#562 = ORIENTED_EDGE('',*,*,#563,.F.);
#563 = EDGE_CURVE('',#541,#541,#564,.T.);
#564 = SURFACE_CURVE('',#565,(#570,#577),.PCURVE_S1.);
#565 = CIRCLE('',#566,9.999193619785);
#566 = AXIS2_PLACEMENT_3D('',#567,#568,#569);
#567 = CARTESIAN_POINT('',(-5.134398871412E-02,-2.054397278674E-03,
    -3.787778772325E-03));
#568 = DIRECTION('',(-0.999999818049,-4.986473103847E-04,
    3.394884213266E-04));
#569 = DIRECTION('',(4.986473391199E-04,-0.999999875675,
    2.64697796017E-23));
#570 = PCURVE('',#358,#571);
#571 = DEFINITIONAL_REPRESENTATION('',(#572),#576);
#572 = LINE('',#573,#574);
#573 = CARTESIAN_POINT('',(2.64697796017E-23,14.469744229047));
#574 = VECTOR('',#575,1.);
#575 = DIRECTION('',(1.,0.));
#576 = ( GEOMETRIC_REPRESENTATION_CONTEXT(2) 
PARAMETRIC_REPRESENTATION_CONTEXT() REPRESENTATION_CONTEXT('2D SPACE',''
  ) );
#577 = PCURVE('',#578,#583);
#578 = PLANE('',#579);
#579 = AXIS2_PLACEMENT_3D('',#580,#581,#582);
#580 = CARTESIAN_POINT('',(-5.134398871412E-02,-2.054397278674E-03,
    -3.787778772325E-03));
#581 = DIRECTION('',(-0.999999818049,-4.986473103847E-04,
    3.394884213266E-04));
#582 = DIRECTION('',(4.986473391199E-04,-0.999999875675,0.));
#583 = DEFINITIONAL_REPRESENTATION('',(#584),#588);
#584 = CIRCLE('',#585,9.999193619785);
#585 = AXIS2_PLACEMENT_2D('',#586,#587);
#586 = CARTESIAN_POINT('',(-1.079598542407E-18,-1.583960029728E-18));
#587 = DIRECTION('',(1.,5.293955767804E-23));
#588 = ( GEOMETRIC_REPRESENTATION_CONTEXT(2) 
PARAMETRIC_REPRESENTATION_CONTEXT() REPRESENTATION_CONTEXT('2D SPACE',''
  ) );
#589 = ORIENTED_EDGE('',*,*,#540,.T.);
#590 = ADVANCED_FACE('',(#591),#417,.F.);
#591 = FACE_BOUND('',#592,.F.);
#592 = EDGE_LOOP('',(#593,#594,#595));
#593 = ORIENTED_EDGE('',*,*,#464,.T.);
#594 = ORIENTED_EDGE('',*,*,#400,.T.);
#595 = ORIENTED_EDGE('',*,*,#596,.F.);
#596 = EDGE_CURVE('',#430,#401,#597,.T.);
#597 = SURFACE_CURVE('',#598,(#603,#610),.PCURVE_S1.);
#598 = ELLIPSE('',#599,14.451867401598,14.451847191565);
#599 = AXIS2_PLACEMENT_3D('',#600,#601,#602);
#600 = CARTESIAN_POINT('',(3.478007640653,-2.944952610728E-04,
    -4.985953003294E-03));
#601 = DIRECTION('',(0.999999405104,-1.053124900256E-03,
    2.841122335297E-04));
#602 = DIRECTION('',(-1.083112734655E-03,-0.927878658522,0.372880707367)
  );
#603 = PCURVE('',#417,#604);
#604 = DEFINITIONAL_REPRESENTATION('',(#605),#609);
#605 = ELLIPSE('',#606,14.451867401598,14.451847191565);
#606 = AXIS2_PLACEMENT_2D('',#607,#608);
#607 = CARTESIAN_POINT('',(-17.0049018752,-1.235823327871E-02));
#608 = DIRECTION('',(-0.927879284633,0.372880722416));
#609 = ( GEOMETRIC_REPRESENTATION_CONTEXT(2) 
PARAMETRIC_REPRESENTATION_CONTEXT() REPRESENTATION_CONTEXT('2D SPACE',''
  ) );
#610 = PCURVE('',#611,#616);
#611 = CYLINDRICAL_SURFACE('',#612,14.451847191565);
#612 = AXIS2_PLACEMENT_3D('',#613,#614,#615);
#613 = CARTESIAN_POINT('',(3.554136583692,-2.565337614768E-04,
    -5.011797902686E-03));
#614 = DIRECTION('',(-0.999999818049,-4.986473103847E-04,
    3.394884213266E-04));
#615 = DIRECTION('',(4.986473391199E-04,-0.999999875675,0.));
#616 = DEFINITIONAL_REPRESENTATION('',(#617),#624);
#617 = B_SPLINE_CURVE_WITH_KNOTS('',5,(#618,#619,#620,#621,#622,#623),
  .UNSPECIFIED.,.F.,.F.,(6,6),(3.207952491934,3.841256967587),
  .PIECEWISE_BEZIER_KNOTS.);
#618 = CARTESIAN_POINT('',(3.457344494231,5.201306091171E-02));
#619 = CARTESIAN_POINT('',(3.330683599101,5.221605781861E-02));
#620 = CARTESIAN_POINT('',(3.20402270397,5.29026239834E-02));
#621 = CARTESIAN_POINT('',(3.077361808839,5.406626772559E-02));
#622 = CARTESIAN_POINT('',(2.950700913709,5.566684592271E-02));
#623 = CARTESIAN_POINT('',(2.824040018578,5.763818982863E-02));
#624 = ( GEOMETRIC_REPRESENTATION_CONTEXT(2) 
PARAMETRIC_REPRESENTATION_CONTEXT() REPRESENTATION_CONTEXT('2D SPACE',''
  ) );
#625 = ADVANCED_FACE('',(#626,#675),#452,.F.);
#626 = FACE_BOUND('',#627,.F.);
#627 = EDGE_LOOP('',(#628,#652,#674));
#628 = ORIENTED_EDGE('',*,*,#629,.T.);
#629 = EDGE_CURVE('',#430,#630,#632,.T.);
#630 = VERTEX_POINT('',#631);
#631 = CARTESIAN_POINT('',(3.56134295884,-14.4521019286,
    -5.01179790269E-03));
#632 = SURFACE_CURVE('',#633,(#638,#645),.PCURVE_S1.);
#633 = CIRCLE('',#634,14.451847191565);
#634 = AXIS2_PLACEMENT_3D('',#635,#636,#637);
#635 = CARTESIAN_POINT('',(3.554136583692,-2.565337614768E-04,
    -5.011797902686E-03));
#636 = DIRECTION('',(-0.999999818049,-4.986473103847E-04,
    3.394884213266E-04));
#637 = DIRECTION('',(4.986473391199E-04,-0.999999875675,
    2.64697796017E-23));
#638 = PCURVE('',#452,#639);
#639 = DEFINITIONAL_REPRESENTATION('',(#640),#644);
#640 = CIRCLE('',#641,14.451847191565);
#641 = AXIS2_PLACEMENT_2D('',#642,#643);
#642 = CARTESIAN_POINT('',(0.,0.));
#643 = DIRECTION('',(1.,0.));
#644 = ( GEOMETRIC_REPRESENTATION_CONTEXT(2) 
PARAMETRIC_REPRESENTATION_CONTEXT() REPRESENTATION_CONTEXT('2D SPACE',''
  ) );
#645 = PCURVE('',#611,#646);
#646 = DEFINITIONAL_REPRESENTATION('',(#647),#651);
#647 = LINE('',#648,#649);
#648 = CARTESIAN_POINT('',(0.,0.));
#649 = VECTOR('',#650,1.);
#650 = DIRECTION('',(1.,0.));
#651 = ( GEOMETRIC_REPRESENTATION_CONTEXT(2) 
PARAMETRIC_REPRESENTATION_CONTEXT() REPRESENTATION_CONTEXT('2D SPACE',''
  ) );
#652 = ORIENTED_EDGE('',*,*,#653,.T.);
#653 = EDGE_CURVE('',#630,#401,#654,.T.);
#654 = SURFACE_CURVE('',#655,(#660,#667),.PCURVE_S1.);
#655 = CIRCLE('',#656,14.451847191565);
#656 = AXIS2_PLACEMENT_3D('',#657,#658,#659);
#657 = CARTESIAN_POINT('',(3.554136583692,-2.565337614768E-04,
    -5.011797902686E-03));
#658 = DIRECTION('',(-0.999999818049,-4.986473103847E-04,
    3.394884213266E-04));
#659 = DIRECTION('',(4.986473391199E-04,-0.999999875675,
    2.64697796017E-23));
#660 = PCURVE('',#452,#661);
#661 = DEFINITIONAL_REPRESENTATION('',(#662),#666);
#662 = CIRCLE('',#663,14.451847191565);
#663 = AXIS2_PLACEMENT_2D('',#664,#665);
#664 = CARTESIAN_POINT('',(0.,0.));
#665 = DIRECTION('',(1.,0.));
#666 = ( GEOMETRIC_REPRESENTATION_CONTEXT(2) 
PARAMETRIC_REPRESENTATION_CONTEXT() REPRESENTATION_CONTEXT('2D SPACE',''
  ) );
#667 = PCURVE('',#611,#668);
#668 = DEFINITIONAL_REPRESENTATION('',(#669),#673);
#669 = LINE('',#670,#671);
#670 = CARTESIAN_POINT('',(0.,0.));
#671 = VECTOR('',#672,1.);
#672 = DIRECTION('',(1.,0.));
#673 = ( GEOMETRIC_REPRESENTATION_CONTEXT(2) 
PARAMETRIC_REPRESENTATION_CONTEXT() REPRESENTATION_CONTEXT('2D SPACE',''
  ) );
#674 = ORIENTED_EDGE('',*,*,#429,.F.);
#675 = FACE_BOUND('',#676,.F.);
#676 = EDGE_LOOP('',(#677));
#677 = ORIENTED_EDGE('',*,*,#513,.F.);
#678 = ADVANCED_FACE('',(#679),#611,.T.);
#679 = FACE_BOUND('',#680,.T.);
#680 = EDGE_LOOP('',(#681,#704,#731,#732,#733,#734));
#681 = ORIENTED_EDGE('',*,*,#682,.T.);
#682 = EDGE_CURVE('',#630,#683,#685,.T.);
#683 = VERTEX_POINT('',#684);
#684 = CARTESIAN_POINT('',(0.557635184568,-14.45359971968,
    -3.992073706733E-03));
#685 = SEAM_CURVE('',#686,(#690,#697),.PCURVE_S1.);
#686 = LINE('',#687,#688);
#687 = CARTESIAN_POINT('',(3.56134295884,-14.4521019286,
    -5.01179790269E-03));
#688 = VECTOR('',#689,1.);
#689 = DIRECTION('',(-0.999999818049,-4.986473103847E-04,
    3.394884213266E-04));
#690 = PCURVE('',#611,#691);
#691 = DEFINITIONAL_REPRESENTATION('',(#692),#696);
#692 = LINE('',#693,#694);
#693 = CARTESIAN_POINT('',(6.28318530718,-0.));
#694 = VECTOR('',#695,1.);
#695 = DIRECTION('',(0.,1.));
#696 = ( GEOMETRIC_REPRESENTATION_CONTEXT(2) 
PARAMETRIC_REPRESENTATION_CONTEXT() REPRESENTATION_CONTEXT('2D SPACE',''
  ) );
#697 = PCURVE('',#611,#698);
#698 = DEFINITIONAL_REPRESENTATION('',(#699),#703);
#699 = LINE('',#700,#701);
#700 = CARTESIAN_POINT('',(0.,-0.));
#701 = VECTOR('',#702,1.);
#702 = DIRECTION('',(0.,1.));
#703 = ( GEOMETRIC_REPRESENTATION_CONTEXT(2) 
PARAMETRIC_REPRESENTATION_CONTEXT() REPRESENTATION_CONTEXT('2D SPACE',''
  ) );
#704 = ORIENTED_EDGE('',*,*,#705,.F.);
#705 = EDGE_CURVE('',#683,#683,#706,.T.);
#706 = SURFACE_CURVE('',#707,(#712,#719),.PCURVE_S1.);
#707 = CIRCLE('',#708,14.451847191565);
#708 = AXIS2_PLACEMENT_3D('',#709,#710,#711);
#709 = CARTESIAN_POINT('',(0.550428809421,-1.754324836823E-03,
    -3.992073706733E-03));
#710 = DIRECTION('',(-0.999999818049,-4.986473103847E-04,
    3.394884213266E-04));
#711 = DIRECTION('',(4.986473391199E-04,-0.999999875675,
    -4.555449069452E-20));
#712 = PCURVE('',#611,#713);
#713 = DEFINITIONAL_REPRESENTATION('',(#714),#718);
#714 = LINE('',#715,#716);
#715 = CARTESIAN_POINT('',(0.,3.003708320799));
#716 = VECTOR('',#717,1.);
#717 = DIRECTION('',(1.,0.));
#718 = ( GEOMETRIC_REPRESENTATION_CONTEXT(2) 
PARAMETRIC_REPRESENTATION_CONTEXT() REPRESENTATION_CONTEXT('2D SPACE',''
  ) );
#719 = PCURVE('',#720,#725);
#720 = TOROIDAL_SURFACE('',#721,13.850074283937,0.601772907628);
#721 = AXIS2_PLACEMENT_3D('',#722,#723,#724);
#722 = CARTESIAN_POINT('',(0.550428809421,-1.754324836823E-03,
    -3.992073706733E-03));
#723 = DIRECTION('',(-0.999999818049,-4.986473103847E-04,
    3.394884213266E-04));
#724 = DIRECTION('',(4.986473391199E-04,-0.999999875675,
    -4.558096047412E-20));
#725 = DEFINITIONAL_REPRESENTATION('',(#726),#730);
#726 = LINE('',#727,#728);
#727 = CARTESIAN_POINT('',(0.,0.));
#728 = VECTOR('',#729,1.);
#729 = DIRECTION('',(1.,0.));
#730 = ( GEOMETRIC_REPRESENTATION_CONTEXT(2) 
PARAMETRIC_REPRESENTATION_CONTEXT() REPRESENTATION_CONTEXT('2D SPACE',''
  ) );
#731 = ORIENTED_EDGE('',*,*,#682,.F.);
#732 = ORIENTED_EDGE('',*,*,#653,.T.);
#733 = ORIENTED_EDGE('',*,*,#596,.F.);
#734 = ORIENTED_EDGE('',*,*,#629,.T.);
#735 = ADVANCED_FACE('',(#736),#720,.T.);
#736 = FACE_BOUND('',#737,.T.);
#737 = EDGE_LOOP('',(#738,#760,#761,#762));
#738 = ORIENTED_EDGE('',*,*,#739,.F.);
#739 = EDGE_CURVE('',#683,#740,#742,.T.);
#740 = VERTEX_POINT('',#741);
#741 = CARTESIAN_POINT('',(-4.443768602582E-02,-13.85212695931,
    -3.787778772325E-03));
#742 = SEAM_CURVE('',#743,(#748,#754),.PCURVE_S1.);
#743 = CIRCLE('',#744,0.601772907628);
#744 = AXIS2_PLACEMENT_3D('',#745,#746,#747);
#745 = CARTESIAN_POINT('',(0.557335112109,-13.85182688686,
    -3.992073706733E-03));
#746 = DIRECTION('',(-3.394883791198E-04,-1.692849979564E-07,
    -0.999999942374));
#747 = DIRECTION('',(4.986473391199E-04,-0.999999875675,
    -4.555449069452E-20));
#748 = PCURVE('',#720,#749);
#749 = DEFINITIONAL_REPRESENTATION('',(#750),#753);
#750 = B_SPLINE_CURVE_WITH_KNOTS('',1,(#751,#752),.UNSPECIFIED.,.F.,.F.,
  (2,2),(0.,1.570796326795),.PIECEWISE_BEZIER_KNOTS.);
#751 = CARTESIAN_POINT('',(0.,0.));
#752 = CARTESIAN_POINT('',(0.,1.570796326795));
#753 = ( GEOMETRIC_REPRESENTATION_CONTEXT(2) 
PARAMETRIC_REPRESENTATION_CONTEXT() REPRESENTATION_CONTEXT('2D SPACE',''
  ) );
#754 = PCURVE('',#720,#755);
#755 = DEFINITIONAL_REPRESENTATION('',(#756),#759);
#756 = B_SPLINE_CURVE_WITH_KNOTS('',1,(#757,#758),.UNSPECIFIED.,.F.,.F.,
  (2,2),(0.,1.570796326795),.PIECEWISE_BEZIER_KNOTS.);
#757 = CARTESIAN_POINT('',(6.28318530718,0.));
#758 = CARTESIAN_POINT('',(6.28318530718,1.570796326795));
#759 = ( GEOMETRIC_REPRESENTATION_CONTEXT(2) 
PARAMETRIC_REPRESENTATION_CONTEXT() REPRESENTATION_CONTEXT('2D SPACE',''
  ) );
#760 = ORIENTED_EDGE('',*,*,#705,.T.);
#761 = ORIENTED_EDGE('',*,*,#739,.T.);
#762 = ORIENTED_EDGE('',*,*,#763,.F.);
#763 = EDGE_CURVE('',#740,#740,#764,.T.);
#764 = SURFACE_CURVE('',#765,(#770,#777),.PCURVE_S1.);
#765 = CIRCLE('',#766,13.850074283937);
#766 = AXIS2_PLACEMENT_3D('',#767,#768,#769);
#767 = CARTESIAN_POINT('',(-5.134398871412E-02,-2.054397278674E-03,
    -3.787778772325E-03));
#768 = DIRECTION('',(-0.999999818049,-4.986473103847E-04,
    3.394884213266E-04));
#769 = DIRECTION('',(4.986473391199E-04,-0.999999875675,
    -4.555449069452E-20));
#770 = PCURVE('',#720,#771);
#771 = DEFINITIONAL_REPRESENTATION('',(#772),#776);
#772 = LINE('',#773,#774);
#773 = CARTESIAN_POINT('',(0.,1.570796326795));
#774 = VECTOR('',#775,1.);
#775 = DIRECTION('',(1.,0.));
#776 = ( GEOMETRIC_REPRESENTATION_CONTEXT(2) 
PARAMETRIC_REPRESENTATION_CONTEXT() REPRESENTATION_CONTEXT('2D SPACE',''
  ) );
#777 = PCURVE('',#578,#778);
#778 = DEFINITIONAL_REPRESENTATION('',(#779),#783);
#779 = CIRCLE('',#780,13.850074283937);
#780 = AXIS2_PLACEMENT_2D('',#781,#782);
#781 = CARTESIAN_POINT('',(4.336808689942E-19,4.336808689942E-19));
#782 = DIRECTION('',(1.,-3.131253017878E-20));
#783 = ( GEOMETRIC_REPRESENTATION_CONTEXT(2) 
PARAMETRIC_REPRESENTATION_CONTEXT() REPRESENTATION_CONTEXT('2D SPACE',''
  ) );
#784 = ADVANCED_FACE('',(#785,#788),#578,.T.);
#785 = FACE_BOUND('',#786,.T.);
#786 = EDGE_LOOP('',(#787));
#787 = ORIENTED_EDGE('',*,*,#763,.T.);
#788 = FACE_BOUND('',#789,.T.);
#789 = EDGE_LOOP('',(#790));
#790 = ORIENTED_EDGE('',*,*,#563,.F.);
#791 = ( GEOMETRIC_REPRESENTATION_CONTEXT(3) 
GLOBAL_UNCERTAINTY_ASSIGNED_CONTEXT((#795)) GLOBAL_UNIT_ASSIGNED_CONTEXT
((#792,#793,#794)) REPRESENTATION_CONTEXT('Context #1',
  '3D Context with UNIT and UNCERTAINTY') );
#792 = ( LENGTH_UNIT() NAMED_UNIT(*) SI_UNIT(.MILLI.,.METRE.) );
#793 = ( NAMED_UNIT(*) PLANE_ANGLE_UNIT() SI_UNIT($,.RADIAN.) );
#794 = ( NAMED_UNIT(*) SI_UNIT($,.STERADIAN.) SOLID_ANGLE_UNIT() );
#795 = UNCERTAINTY_MEASURE_WITH_UNIT(LENGTH_MEASURE(5.E-03),#792,
  'distance_accuracy_value','confusion accuracy');
#796 = PRODUCT_TYPE('part',$,(#7));
ENDSEC;
END-ISO-10303-21;
