ISO-10303-21;
HEADER;
FILE_DESCRIPTION (( 'STEP AP203' ),
    '1' );
FILE_NAME ('00091_index_4.step',
    '2022-11-07T15:54:17',
    ( '' ),
    ( '' ),
    'SwSTEP 2.0',
    'SolidWorks 2020',
    '' );
FILE_SCHEMA (( 'CONFIG_CONTROL_DESIGN' ));
ENDSEC;

DATA;
#1 = APPROVAL_DATE_TIME ( #191, #337 ) ;
#2 = FACE_OUTER_BOUND ( 'NONE', #207, .T. ) ;
#3 = ORIENTED_EDGE ( 'NONE', *, *, #128, .F. ) ;
#4 = ADVANCED_FACE ( 'NONE', ( #853 ), #835, .T. ) ;
#5 = CARTESIAN_POINT ( 'NONE',  ( 1.540743955509788682E-30, 13.99999999999999822, 0.000000000000000000 ) ) ;
#6 = CARTESIAN_POINT ( 'NONE',  ( 1.403866929849465659E-30, 33.50000000000000000, 0.000000000000000000 ) ) ;
#7 = CALENDAR_DATE ( 2022, 7, 11 ) ;
#8 = CARTESIAN_POINT ( 'NONE',  ( -14.08788760506629956, 22.54090505562721347, 4.177901221591825198 ) ) ;
#9 = EDGE_LOOP ( 'NONE', ( #1016 ) ) ;
#10 = CARTESIAN_POINT ( 'NONE',  ( 12.37499999999999822, 22.50000000000000000, -7.144709581221619921 ) ) ;
#11 = PLANE ( 'NONE',  #545 ) ;
#12 = DIRECTION ( 'NONE',  ( 1.000000000000000000, 4.814824860968089633E-33, 0.000000000000000000 ) ) ;
#13 = ORIENTED_EDGE ( 'NONE', *, *, #985, .F. ) ;
#14 = AXIS2_PLACEMENT_3D ( 'NONE', #801, #709, #726 ) ;
#15 = DIRECTION ( 'NONE',  ( 0.4999999999999997224, 0.000000000000000000, -0.8660254037844387076 ) ) ;
#16 = DIRECTION ( 'NONE',  ( 7.019334649247328678E-33, -1.000000000000000000, -0.000000000000000000 ) ) ;
#17 = VERTEX_POINT ( 'NONE', #298 ) ;
#18 = APPROVAL_STATUS ( 'not_yet_approved' ) ;
#19 = ORIENTED_EDGE ( 'NONE', *, *, #819, .F. ) ;
#20 = CARTESIAN_POINT ( 'NONE',  ( 14.57121927007263018, 22.60546574016230181, -3.340746220893996643 ) ) ;
#21 = DIRECTION ( 'NONE',  ( 1.000000000000000000, 0.000000000000000000, 0.000000000000000000 ) ) ;
#22 = DIRECTION ( 'NONE',  ( -0.8660254037844385966, 0.000000000000000000, 0.5000000000000001110 ) ) ;
#23 = EDGE_CURVE ( 'NONE', #26, #361, #276, .T. ) ;
#24 = CARTESIAN_POINT ( 'NONE',  ( -10.39230484541326582, 6.420672116997031331, 1.730035651636503780E-15 ) ) ;
#25 = CARTESIAN_POINT ( 'NONE',  ( -4.927105891812029215E-65, 233.5000000000000000, 0.000000000000000000 ) ) ;
#26 = VERTEX_POINT ( 'NONE', #209 ) ;
#27 = DIRECTION ( 'NONE',  ( 7.019334649247328678E-33, -1.000000000000000000, -0.000000000000000000 ) ) ;
#28 = CC_DESIGN_PERSON_AND_ORGANIZATION_ASSIGNMENT ( #636, #472, ( #490 ) ) ;
#29 = VECTOR ( 'NONE', #1122, 1000.000000000000000 ) ;
#30 = ORIENTED_EDGE ( 'NONE', *, *, #470, .T. ) ;
#31 = VECTOR ( 'NONE', #691, 1000.000000000000000 ) ;
#32 = CARTESIAN_POINT ( 'NONE',  ( 16.01948791010084605, 22.87987197752521240, -0.8322713533564342070 ) ) ;
#33 = CARTESIAN_POINT ( 'NONE',  ( 10.39230484541326582, 13.99999999999999822, -3.511573307202413051E-15 ) ) ;
#34 = VECTOR ( 'NONE', #297, 1000.000000000000000 ) ;
#35 = ORIENTED_EDGE ( 'NONE', *, *, #900, .T. ) ;
#36 = EDGE_CURVE ( 'NONE', #1051, #952, #936, .T. ) ;
#37 = B_SPLINE_CURVE_WITH_KNOTS ( 'NONE', 3,
 ( #147, #227, #51, #867 ),
 .UNSPECIFIED., .F., .F.,
 ( 4, 4 ),
 ( 0.02072437847717395129, 0.02646359583215670760 ),
 .UNSPECIFIED. ) ;
#38 = VERTEX_POINT ( 'NONE', #485 ) ;
#39 = B_SPLINE_CURVE_WITH_KNOTS ( 'NONE', 3,
 ( #173, #732, #1077, #357 ),
 .UNSPECIFIED., .F., .F.,
 ( 4, 4 ),
 ( 0.01156880623885717628, 0.01737803417017351124 ),
 .UNSPECIFIED. ) ;
#40 = LINE ( 'NONE', #843, #738 ) ;
#41 = DIRECTION ( 'NONE',  ( -0.5000000000000003331, 0.000000000000000000, 0.8660254037844383745 ) ) ;
#42 = ORIENTED_EDGE ( 'NONE', *, *, #130, .T. ) ;
#43 = UNCERTAINTY_MEASURE_WITH_UNIT (LENGTH_MEASURE( 1.000000000000000082E-05 ), #870, 'distance_accuracy_value', 'NONE');
#44 = CARTESIAN_POINT ( 'NONE',  ( 8.730512089899161055, 22.87987197752521240, 13.45714780908680375 ) ) ;
#45 = ORIENTED_EDGE ( 'NONE', *, *, #86, .T. ) ;
#46 = DIRECTION ( 'NONE',  ( -0.5000000000000001110, -3.509667324623665023E-33, -0.8660254037844385966 ) ) ;
#47 = DIRECTION ( 'NONE',  ( -1.000000000000000000, 0.000000000000000000, 0.000000000000000000 ) ) ;
#48 = ORIENTED_EDGE ( 'NONE', *, *, #727, .T. ) ;
#49 = CARTESIAN_POINT ( 'NONE',  ( 1.481079610991186465E-30, 22.50000000000000000, 0.000000000000000000 ) ) ;
#50 = CARTESIAN_POINT ( 'NONE',  ( -2.462214450449003778, 22.50000000000000000, 14.28941916244324162 ) ) ;
#51 = CARTESIAN_POINT ( 'NONE',  ( 6.326940112890314438, 33.24038248588870914, 14.28941916244324339 ) ) ;
#52 = EDGE_CURVE ( 'NONE', #446, #118, #611, .T. ) ;
#53 = CONICAL_SURFACE ( 'NONE', #794, 16.50000000000000000, 1.325817663668032331 ) ;
#54 = DIRECTION ( 'NONE',  ( -0.4999999999999999445, 0.000000000000000000, 0.8660254037844387076 ) ) ;
#55 = ADVANCED_FACE ( 'NONE', ( #1030 ), #771, .T. ) ;
#56 = ORIENTED_EDGE ( 'NONE', *, *, #128, .T. ) ;
#57 = DIRECTION ( 'NONE',  ( 1.000000000000000000, 0.000000000000000000, 0.000000000000000000 ) ) ;
#58 = CARTESIAN_POINT ( 'NONE',  ( 1.477569943666562712E-30, 23.00000000000000000, 0.000000000000000000 ) ) ;
#59 = EDGE_LOOP ( 'NONE', ( #293, #463, #1123, #597, #289, #56, #702, #339, #153, #818, #707, #30 ) ) ;
#60 = DIRECTION ( 'NONE',  ( 7.019334649247328678E-33, -1.000000000000000000, -0.000000000000000000 ) ) ;
#61 = CARTESIAN_POINT ( 'NONE',  ( 31.50000000000000000, 2.211090414512908527E-31, 0.000000000000000000 ) ) ;
#62 = ORIENTED_EDGE ( 'NONE', *, *, #846, .F. ) ;
#63 = DIRECTION ( 'NONE',  ( 7.019334649247328678E-33, -1.000000000000000000, -0.000000000000000000 ) ) ;
#64 = CARTESIAN_POINT ( 'NONE',  ( -8.250000000000003553, 33.00000000000000000, 14.28941916244324162 ) ) ;
#65 = DIRECTION ( 'NONE',  ( 1.000000000000000000, 0.000000000000000000, 0.000000000000000000 ) ) ;
#66 = ORIENTED_EDGE ( 'NONE', *, *, #668, .F. ) ;
#67 = B_SPLINE_CURVE_WITH_KNOTS ( 'NONE', 3,
 ( #1011, #213, #394, #911 ),
 .UNSPECIFIED., .F., .F.,
 ( 4, 4 ),
 ( 0.01156880623885717108, 0.01737803417017350777 ),
 .UNSPECIFIED. ) ;
#68 = ADVANCED_FACE ( 'NONE', ( #139 ), #1131, .F. ) ;
#69 = CARTESIAN_POINT ( 'NONE',  ( 5.196152422706625806, 13.99999999999999822, 9.000000000000001776 ) ) ;
#70 = CARTESIAN_POINT ( 'NONE',  ( -2.462214450448991343, 22.50000000000000000, -14.28941916244324339 ) ) ;
#71 = VECTOR ( 'NONE', #41, 1000.000000000000227 ) ;
#72 = CARTESIAN_POINT ( 'NONE',  ( 16.50000000000000000, 22.00000000000000000, 0.000000000000000000 ) ) ;
#73 = B_SPLINE_CURVE_WITH_KNOTS ( 'NONE', 3,
 ( #923, #764, #753, #1110, #312, #477 ),
 .UNSPECIFIED., .F., .F.,
 ( 4, 2, 4 ),
 ( 0.02228142973992397816, 0.02514843539758460089, 0.02801544105524522710 ),
 .UNSPECIFIED. ) ;
#74 = ORIENTED_EDGE ( 'NONE', *, *, #396, .F. ) ;
#75 = VECTOR ( 'NONE', #653, 1000.000000000000000 ) ;
#76 = EDGE_CURVE ( 'NONE', #361, #1024, #862, .T. ) ;
#77 = CARTESIAN_POINT ( 'NONE',  ( -10.00000000000000000, 22.50000000000000000, 0.000000000000000000 ) ) ;
#78 = FACE_OUTER_BOUND ( 'NONE', #739, .T. ) ;
#79 = ORIENTED_EDGE ( 'NONE', *, *, #838, .T. ) ;
#80 = CARTESIAN_POINT ( 'NONE',  ( 1.481079610991186465E-30, 22.50000000000000000, 0.000000000000000000 ) ) ;
#81 = FACE_OUTER_BOUND ( 'NONE', #268, .T. ) ;
#82 = VERTEX_POINT ( 'NONE', #512 ) ;
#83 = ORIENTED_EDGE ( 'NONE', *, *, #757, .F. ) ;
#84 = CARTESIAN_POINT ( 'NONE',  ( -11.14389277477550699, 22.49999999999988987, -9.277049844875600471 ) ) ;
#85 = DIRECTION ( 'NONE',  ( 1.000000000000000000, 0.000000000000000000, 0.000000000000000000 ) ) ;
#86 = EDGE_CURVE ( 'NONE', #202, #778, #386, .T. ) ;
#87 = AXIS2_PLACEMENT_3D ( 'NONE', #177, #898, #218 ) ;
#88 = CARTESIAN_POINT ( 'NONE',  ( 16.50000000000000000, -0.001000000000001000089, 0.000000000000000000 ) ) ;
#89 = EDGE_CURVE ( 'NONE', #17, #1096, #334, .T. ) ;
#90 = EDGE_LOOP ( 'NONE', ( #368, #311, #530, #557, #1057, #743, #261, #949 ) ) ;
#91 = AXIS2_PLACEMENT_3D ( 'NONE', #295, #112, #21 ) ;
#92 = AXIS2_PLACEMENT_3D ( 'NONE', #593, #866, #57 ) ;
#93 = DIRECTION ( 'NONE',  ( 1.000000000000000000, 0.000000000000000000, 0.000000000000000000 ) ) ;
#94 = CARTESIAN_POINT ( 'NONE',  ( 11.14389277477548390, 22.50000000000000000, -9.277049844875621787 ) ) ;
#95 = EDGE_CURVE ( 'NONE', #730, #998, #372, .T. ) ;
#96 = DIRECTION ( 'NONE',  ( -0.000000000000000000, 1.000000000000000000, -0.000000000000000000 ) ) ;
#97 = ORIENTED_EDGE ( 'NONE', *, *, #396, .T. ) ;
#98 = CARTESIAN_POINT ( 'NONE',  ( 0.000000000000000000, 33.50000000000000000, -14.28941916244324339 ) ) ;
#99 = DIRECTION ( 'NONE',  ( 7.019334649247328678E-33, -1.000000000000000000, -0.000000000000000000 ) ) ;
#100 = DATE_TIME_ROLE ( 'creation_date' ) ;
#101 = PLANE ( 'NONE',  #423 ) ;
#102 = EDGE_LOOP ( 'NONE', ( #893, #905, #766, #460, #807, #296, #417, #395 ) ) ;
#103 = ADVANCED_FACE ( 'NONE', ( #511, #228 ), #681, .T. ) ;
#104 = DIRECTION ( 'NONE',  ( -8.283569653278434630E-33, 1.000000000000000000, -0.000000000000000000 ) ) ;
#105 = FACE_OUTER_BOUND ( 'NONE', #306, .T. ) ;
#106 = VERTEX_POINT ( 'NONE', #406 ) ;
#107 = VECTOR ( 'NONE', #54, 999.9999999999998863 ) ;
#108 = ORIENTED_EDGE ( 'NONE', *, *, #172, .F. ) ;
#109 = CIRCLE ( 'NONE', #734, 40.00000000000000000 ) ;
#110 = VECTOR ( 'NONE', #258, 1000.000000000000000 ) ;
#111 = DIRECTION ( 'NONE',  ( 1.000000000000000000, 7.019334649247328678E-33, 0.000000000000000000 ) ) ;
#112 = DIRECTION ( 'NONE',  ( 7.019334649247328678E-33, -1.000000000000000000, -0.000000000000000000 ) ) ;
#113 = ORIENTED_EDGE ( 'NONE', *, *, #302, .T. ) ;
#114 = CC_DESIGN_APPROVAL ( #713, ( #1142 ) ) ;
#115 = PERSON_AND_ORGANIZATION_ROLE ( 'design_supplier' ) ;
#116 = EDGE_CURVE ( 'NONE', #1026, #778, #1119, .T. ) ;
#117 = B_SPLINE_CURVE_WITH_KNOTS ( 'NONE', 3,
 ( #782, #890, #514, #348 ),
 .UNSPECIFIED., .F., .F.,
 ( 4, 4 ),
 ( 0.01000765330561784010, 0.01581696960789819376 ),
 .UNSPECIFIED. ) ;
#118 = VERTEX_POINT ( 'NONE', #813 ) ;
#119 = CARTESIAN_POINT ( 'NONE',  ( 1.481079610991186465E-30, 22.50000000000000000, 0.000000000000000000 ) ) ;
#120 = ORIENTED_EDGE ( 'NONE', *, *, #279, .F. ) ;
#121 = B_SPLINE_CURVE_WITH_KNOTS ( 'NONE', 3,
 ( #1103, #832, #20, #745, #32, #1013 ),
 .UNSPECIFIED., .F., .F.,
 ( 4, 2, 4 ),
 ( 0.02228142973992408224, 0.02514843539758465640, 0.02801544105524522710 ),
 .UNSPECIFIED. ) ;
#122 = FACE_OUTER_BOUND ( 'NONE', #1047, .T. ) ;
#123 = ORIENTED_EDGE ( 'NONE', *, *, #1032, .F. ) ;
#124 = DIRECTION ( 'NONE',  ( 1.000000000000000000, 7.019334649247328678E-33, 0.000000000000000000 ) ) ;
#125 = ORIENTED_EDGE ( 'NONE', *, *, #757, .T. ) ;
#126 = CARTESIAN_POINT ( 'NONE',  ( 8.250000000000000000, 23.00000000000000000, 14.28941916244323806 ) ) ;
#127 = DIRECTION ( 'NONE',  ( 1.000000000000000000, 7.019334649247328678E-33, 0.000000000000000000 ) ) ;
#128 = EDGE_CURVE ( 'NONE', #446, #1084, #673, .T. ) ;
#129 = DIRECTION ( 'NONE',  ( -0.5000000000000001110, 0.000000000000000000, -0.8660254037844385966 ) ) ;
#130 = EDGE_CURVE ( 'NONE', #1026, #1024, #1113, .T. ) ;
#131 = LINE ( 'NONE', #221, #34 ) ;
#132 = DIRECTION ( 'NONE',  ( 1.000000000000000000, 7.019334649247328678E-33, 0.000000000000000000 ) ) ;
#133 = VECTOR ( 'NONE', #907, 1000.000000000000000 ) ;
#134 = ORIENTED_EDGE ( 'NONE', *, *, #1136, .F. ) ;
#135 = EDGE_CURVE ( 'NONE', #412, #941, #723, .T. ) ;
#136 = CARTESIAN_POINT ( 'NONE',  ( 9.212231887000909225, 22.77516735565487949, 12.62278464549478940 ) ) ;
#137 = CARTESIAN_POINT ( 'NONE',  ( -13.60610722522449834, 22.50000000000000000, -5.012369317567670457 ) ) ;
#138 = DIRECTION ( 'NONE',  ( -7.019334649247328678E-33, 1.000000000000000000, 0.000000000000000000 ) ) ;
#139 = FACE_OUTER_BOUND ( 'NONE', #928, .T. ) ;
#140 = EDGE_CURVE ( 'NONE', #712, #998, #637, .T. ) ;
#141 = EDGE_CURVE ( 'NONE', #517, #517, #316, .T. ) ;
#142 = DIRECTION ( 'NONE',  ( 7.019334649247328678E-33, -1.000000000000000000, -0.000000000000000000 ) ) ;
#143 = CARTESIAN_POINT ( 'NONE',  ( 1.477569943666562712E-30, 23.00000000000000000, 0.000000000000000000 ) ) ;
#144 = CARTESIAN_POINT ( 'NONE',  ( 1.403866929849465659E-30, 33.50000000000000000, 0.000000000000000000 ) ) ;
#145 = ORIENTED_EDGE ( 'NONE', *, *, #140, .T. ) ;
#146 = CARTESIAN_POINT ( 'NONE',  ( 15.53878301056905897, 22.75969575264226563, 1.664876662792789785 ) ) ;
#147 = CARTESIAN_POINT ( 'NONE',  ( 2.462214450448990011, 33.50000000000000000, 14.28941916244324162 ) ) ;
#148 = CARTESIAN_POINT ( 'NONE',  ( 16.50000000000000000, 33.00000000000000000, 0.000000000000000000 ) ) ;
#149 = ADVANCED_FACE ( 'NONE', ( #851 ), #281, .T. ) ;
#150 = ORIENTED_EDGE ( 'NONE', *, *, #999, .F. ) ;
#151 = CARTESIAN_POINT ( 'NONE',  ( -5.196152422706629359, 6.420672116997031331, -8.999999999999996447 ) ) ;
#152 = CARTESIAN_POINT ( 'NONE',  ( 1.540743955509788682E-30, 14.00000000000000000, 0.000000000000000000 ) ) ;
#153 = ORIENTED_EDGE ( 'NONE', *, *, #1109, .T. ) ;
#154 = DIRECTION ( 'NONE',  ( 1.000000000000000000, 0.000000000000000000, 0.000000000000000000 ) ) ;
#155 = EDGE_LOOP ( 'NONE', ( #931, #438, #1155, #79 ) ) ;
#156 = CARTESIAN_POINT ( 'NONE',  ( -10.39230484541326582, 6.420672116997031331, 1.730035651636503780E-15 ) ) ;
#157 = FACE_OUTER_BOUND ( 'NONE', #1104, .T. ) ;
#158 = CARTESIAN_POINT ( 'NONE',  ( -11.14389277477550877, 22.50000000000000000, 9.277049844875591589 ) ) ;
#159 = EDGE_LOOP ( 'NONE', ( #351, #83, #321, #48 ) ) ;
#160 = CARTESIAN_POINT ( 'NONE',  ( 13.60610722522450722, 33.50000000000000000, 5.012369317567639371 ) ) ;
#161 = CARTESIAN_POINT ( 'NONE',  ( -8.730512089899164607, 22.87987197752521240, -13.45714780908680197 ) ) ;
#162 = VECTOR ( 'NONE', #424, 1000.000000000000000 ) ;
#163 = CARTESIAN_POINT ( 'NONE',  ( 8.999999999999952038, 233.5000000000000000, 0.000000000000000000 ) ) ;
#164 = CONICAL_SURFACE ( 'NONE', #830, 14.50000000000000000, 1.325817663668032331 ) ;
#165 = ORIENTED_EDGE ( 'NONE', *, *, #781, .F. ) ;
#166 = LOCAL_TIME ( 23, 54, 17.00000000000000000, #272 ) ;
#167 = CARTESIAN_POINT ( 'NONE',  ( 16.50000000000000000, 23.00000000000000000, 0.000000000000000000 ) ) ;
#168 = FACE_OUTER_BOUND ( 'NONE', #1002, .T. ) ;
#169 = CC_DESIGN_PERSON_AND_ORGANIZATION_ASSIGNMENT ( #748, #1092, ( #1142 ) ) ;
#170 = CARTESIAN_POINT ( 'NONE',  ( 40.00000000000000000, 8.999999999999998224, 0.000000000000000000 ) ) ;
#171 = VERTEX_POINT ( 'NONE', #398 ) ;
#172 = EDGE_CURVE ( 'NONE', #106, #1117, #67, .T. ) ;
#173 = CARTESIAN_POINT ( 'NONE',  ( -8.250000000000001776, 23.00000000000000000, 14.28941916244323806 ) ) ;
#174 = LINE ( 'NONE', #810, #1019 ) ;
#175 = CC_DESIGN_PERSON_AND_ORGANIZATION_ASSIGNMENT ( #266, #711, ( #955 ) ) ;
#176 = EDGE_CURVE ( 'NONE', #534, #534, #109, .T. ) ;
#177 = CARTESIAN_POINT ( 'NONE',  ( -12.37500000000000711, -0.001000000000001000089, -7.144709581221621697 ) ) ;
#178 = ORIENTED_EDGE ( 'NONE', *, *, #846, .T. ) ;
#179 = CARTESIAN_POINT ( 'NONE',  ( 8.249999999999994671, -0.001000000000001000089, -14.28941916244324339 ) ) ;
#180 = DIRECTION ( 'NONE',  ( -1.000000000000000000, 0.000000000000000000, 0.000000000000000000 ) ) ;
#181 = PERSON_AND_ORGANIZATION ( #758, #428 ) ;
#182 = AXIS2_PLACEMENT_3D ( 'NONE', #58, #138, #47 ) ;
#183 = CARTESIAN_POINT ( 'NONE',  ( -16.50000000000000711, -0.001000000000001000089, 0.000000000000000000 ) ) ;
#184 = ORIENTED_EDGE ( 'NONE', *, *, #1125, .F. ) ;
#185 = AXIS2_PLACEMENT_3D ( 'NONE', #1121, #967, #1128 ) ;
#186 = AXIS2_PLACEMENT_3D ( 'NONE', #481, #27, #921 ) ;
#187 = AXIS2_PLACEMENT_3D ( 'NONE', #421, #1062, #606 ) ;
#188 = DIRECTION ( 'NONE',  ( 1.000000000000000000, 0.000000000000000000, 0.000000000000000000 ) ) ;
#189 = CARTESIAN_POINT ( 'NONE',  ( -4.388739265222600494, 33.41821522003303357, -14.28941916244324339 ) ) ;
#190 = VERTEX_POINT ( 'NONE', #904 ) ;
#191 = DATE_AND_TIME ( #280, #1006 ) ;
#192 = DIRECTION ( 'NONE',  ( 7.019334649247328678E-33, -1.000000000000000000, -0.000000000000000000 ) ) ;
#193 = EDGE_LOOP ( 'NONE', ( #789, #1090, #392, #961, #970, #671, #690, #518 ) ) ;
#194 = ADVANCED_FACE ( 'NONE', ( #930 ), #101, .T. ) ;
#195 = FACE_OUTER_BOUND ( 'NONE', #1130, .T. ) ;
#196 = CARTESIAN_POINT ( 'NONE',  ( -5.196152422706632024, 13.99999999999999822, 9.000000000000001776 ) ) ;
#197 = ORIENTED_EDGE ( 'NONE', *, *, #244, .T. ) ;
#198 = COORDINATED_UNIVERSAL_TIME_OFFSET ( 8, 0, .AHEAD. ) ;
#199 = EDGE_LOOP ( 'NONE', ( #35, #184, #402, #920, #505, #522, #909, #839, #400, #1133, #608, #561 ) ) ;
#200 = CARTESIAN_POINT ( 'NONE',  ( 13.60610722522452498, 22.49999999999988987, -5.012369317567599403 ) ) ;
#201 = DIRECTION ( 'NONE',  ( -0.8660254037844384856, -7.173781753756976930E-33, -0.5000000000000004441 ) ) ;
#202 = VERTEX_POINT ( 'NONE', #823 ) ;
#203 = ORIENTED_EDGE ( 'NONE', *, *, #1070, .T. ) ;
#204 = CONICAL_SURFACE ( 'NONE', #182, 16.50000000000000000, 1.325817663668032331 ) ;
#205 = AXIS2_PLACEMENT_3D ( 'NONE', #454, #989, #995 ) ;
#206 = FACE_OUTER_BOUND ( 'NONE', #1045, .T. ) ;
#207 = EDGE_LOOP ( 'NONE', ( #197, #913, #1102, #755, #802, #516, #120, #553 ) ) ;
#208 = CARTESIAN_POINT ( 'NONE',  ( 1.477569943666562712E-30, 23.00000000000000000, 0.000000000000000000 ) ) ;
#209 = CARTESIAN_POINT ( 'NONE',  ( -8.250000000000005329, 33.00000000000000000, -14.28941916244324339 ) ) ;
#210 = PLANE ( 'NONE',  #811 ) ;
#211 = VERTEX_POINT ( 'NONE', #762 ) ;
#212 = DIRECTION ( 'NONE',  ( -0.000000000000000000, 1.000000000000000000, -0.000000000000000000 ) ) ;
#213 = CARTESIAN_POINT ( 'NONE',  ( 9.211216989430946356, 33.24030424735773437, 12.62454249965045072 ) ) ;
#214 = EDGE_CURVE ( 'NONE', #952, #742, #305, .T. ) ;
#215 = CARTESIAN_POINT ( 'NONE',  ( -10.17534740857386488, 33.41776667598009709, -10.95461962857224947 ) ) ;
#216 = ADVANCED_FACE ( 'NONE', ( #2 ), #974, .T. ) ;
#217 = DIRECTION ( 'NONE',  ( 1.000000000000000000, 0.000000000000000000, 0.000000000000000000 ) ) ;
#218 = DIRECTION ( 'NONE',  ( -0.4999999999999998890, 0.000000000000000000, 0.8660254037844385966 ) ) ;
#219 = ORIENTED_EDGE ( 'NONE', *, *, #544, .T. ) ;
#220 = EDGE_CURVE ( 'NONE', #857, #456, #1014, .T. ) ;
#221 = CARTESIAN_POINT ( 'NONE',  ( -1.502314598737159228E-15, 22.50000000000000000, 14.28941916244324162 ) ) ;
#222 = CARTESIAN_POINT ( 'NONE',  ( 0.000000000000000000, -0.001000000000001000089, -14.28941916244324339 ) ) ;
#223 = CIRCLE ( 'NONE', #737, 14.50000000000000000 ) ;
#224 = EDGE_LOOP ( 'NONE', ( #370 ) ) ;
#225 = EDGE_CURVE ( 'NONE', #998, #791, #263, .T. ) ;
#226 = DIRECTION ( 'NONE',  ( 1.000000000000000000, 0.000000000000000000, 0.000000000000000000 ) ) ;
#227 = CARTESIAN_POINT ( 'NONE',  ( 4.388739265222606711, 33.41821522003303357, 14.28941916244324162 ) ) ;
#228 = FACE_OUTER_BOUND ( 'NONE', #997, .T. ) ;
#229 = EDGE_LOOP ( 'NONE', ( #916, #203, #219 ) ) ;
#230 = LINE ( 'NONE', #1027, #162 ) ;
#231 = CARTESIAN_POINT ( 'NONE',  ( -8.250000000000001776, 23.00000000000000000, -14.28941916244323629 ) ) ;
#232 = ADVANCED_FACE ( 'NONE', ( #580, #1068 ), #1076, .F. ) ;
#233 = CARTESIAN_POINT ( 'NONE',  ( 14.08788760506628535, 33.45909494437278653, 4.177901221591838521 ) ) ;
#234 = ORIENTED_EDGE ( 'NONE', *, *, #922, .T. ) ;
#235 = AXIS2_PLACEMENT_3D ( 'NONE', #222, #1111, #1044 ) ;
#236 = DIRECTION ( 'NONE',  ( -8.283569653278434630E-33, 1.000000000000000000, -0.000000000000000000 ) ) ;
#237 = CARTESIAN_POINT ( 'NONE',  ( -4.398517250774835574, 22.58219987474840096, -14.28941916244324339 ) ) ;
#238 = AXIS2_PLACEMENT_3D ( 'NONE', #908, #796, #345 ) ;
#239 = AXIS2_PLACEMENT_3D ( 'NONE', #1114, #942, #226 ) ;
#240 = DATE_AND_TIME ( #1039, #618 ) ;
#241 = AXIS2_PLACEMENT_3D ( 'NONE', #1147, #706, #154 ) ;
#242 = ORIENTED_EDGE ( 'NONE', *, *, #1145, .T. ) ;
#243 = CARTESIAN_POINT ( 'NONE',  ( 13.60610722522450722, 22.50000000000000000, 5.012369317567641147 ) ) ;
#244 = EDGE_CURVE ( 'NONE', #494, #684, #978, .T. ) ;
#245 = DIRECTION ( 'NONE',  ( -7.019334649247328678E-33, 1.000000000000000000, 0.000000000000000000 ) ) ;
#246 = APPROVAL_DATE_TIME ( #240, #720 ) ;
#247 = B_SPLINE_CURVE_WITH_KNOTS ( 'NONE', 3,
 ( #301, #467, #382, #571 ),
 .UNSPECIFIED., .F., .F.,
 ( 4, 4 ),
 ( 0.02072437847717394435, 0.02646359583215669026 ),
 .UNSPECIFIED. ) ;
#248 = B_SPLINE_CURVE_WITH_KNOTS ( 'NONE', 3,
 ( #622, #972, #270, #349 ),
 .UNSPECIFIED., .F., .F.,
 ( 4, 4 ),
 ( 0.01156880623885717281, 0.01737803417017352511 ),
 .UNSPECIFIED. ) ;
#249 = ORIENTED_EDGE ( 'NONE', *, *, #533, .T. ) ;
#250 = CARTESIAN_POINT ( 'NONE',  ( 14.57465259142615643, 22.58223332401990291, 3.334799533870974830 ) ) ;
#251 = CARTESIAN_POINT ( 'NONE',  ( -6.326940112890311774, 33.24038248588870914, -14.28941916244324339 ) ) ;
#252 = VERTEX_POINT ( 'NONE', #521 ) ;
#253 = ORIENTED_EDGE ( 'NONE', *, *, #453, .T. ) ;
#254 = PRODUCT_RELATED_PRODUCT_CATEGORY ( 'detail', '', ( #955 ) ) ;
#255 = CARTESIAN_POINT ( 'NONE',  ( -5.196152422706632024, 13.99999999999999822, 9.000000000000001776 ) ) ;
#256 = CARTESIAN_POINT ( 'NONE',  ( -10.66211239493371643, 22.54090505562721702, -10.11151794085141375 ) ) ;
#257 = CONICAL_SURFACE ( 'NONE', #919, 16.50000000000000000, 1.325817663668032331 ) ;
#258 = DIRECTION ( 'NONE',  ( 0.5000000000000001110, 0.000000000000000000, 0.8660254037844385966 ) ) ;
#259 = VECTOR ( 'NONE', #269, 1000.000000000000114 ) ;
#260 = EDGE_CURVE ( 'NONE', #17, #494, #587, .T. ) ;
#261 = ORIENTED_EDGE ( 'NONE', *, *, #1109, .F. ) ;
#262 = EDGE_CURVE ( 'NONE', #659, #1126, #861, .T. ) ;
#263 = B_SPLINE_CURVE_WITH_KNOTS ( 'NONE', 3,
 ( #385, #445, #360, #754 ),
 .UNSPECIFIED., .F., .F.,
 ( 4, 4 ),
 ( 0.01156880623885717975, 0.01737803417017349042 ),
 .UNSPECIFIED. ) ;
#264 = CARTESIAN_POINT ( 'NONE',  ( -14.57465259142615110, 22.58223332401990291, -3.334799533870995258 ) ) ;
#265 = CARTESIAN_POINT ( 'NONE',  ( 1.477569943666562712E-30, 23.00000000000000000, 0.000000000000000000 ) ) ;
#266 = PERSON_AND_ORGANIZATION ( #758, #428 ) ;
#267 = CARTESIAN_POINT ( 'NONE',  ( -10.39230484541326582, 6.420672116997031331, 1.730035651636503780E-15 ) ) ;
#268 = EDGE_LOOP ( 'NONE', ( #466, #513, #814 ) ) ;
#269 = DIRECTION ( 'NONE',  ( 0.5000000000000004441, 0.000000000000000000, -0.8660254037844383745 ) ) ;
#270 = CARTESIAN_POINT ( 'NONE',  ( -14.57465259142614933, 33.41776667598009709, 3.334799533870993482 ) ) ;
#271 = B_SPLINE_CURVE_WITH_KNOTS ( 'NONE', 3,
 ( #50, #403, #1022, #669 ),
 .UNSPECIFIED., .F., .F.,
 ( 4, 4 ),
 ( 0.02072437847717395476, 0.02646359583215670414 ),
 .UNSPECIFIED. ) ;
#272 = COORDINATED_UNIVERSAL_TIME_OFFSET ( 8, 0, .AHEAD. ) ;
#273 = CARTESIAN_POINT ( 'NONE',  ( 1.639014640599251303E-30, 0.000000000000000000, 0.000000000000000000 ) ) ;
#274 = VERTEX_POINT ( 'NONE', #313 ) ;
#275 = FACE_OUTER_BOUND ( 'NONE', #315, .T. ) ;
#276 = B_SPLINE_CURVE_WITH_KNOTS ( 'NONE', 3,
 ( #767, #662, #215, #763 ),
 .UNSPECIFIED., .F., .F.,
 ( 4, 4 ),
 ( 0.01156880623885717455, 0.01737803417017353899 ),
 .UNSPECIFIED. ) ;
#277 = FACE_BOUND ( 'NONE', #882, .T. ) ;
#278 = CLOSED_SHELL ( 'NONE', ( #878, #760, #418, #480, #508, #55, #642, #523, #602, #433, #1073, #373, #744, #1034, #925, #232, #805, #314, #473, #956, #554, #103, #912, #287, #4, #683, #510, #194, #216, #380, #451, #607, #924, #68, #573, #1046, #149 ) ) ;
#279 = EDGE_CURVE ( 'NONE', #1096, #888, #330, .T. ) ;
#280 = CALENDAR_DATE ( 2022, 7, 11 ) ;
#281 = PLANE ( 'NONE',  #980 ) ;
#282 = VERTEX_POINT ( 'NONE', #231 ) ;
#283 = CONICAL_SURFACE ( 'NONE', #883, 14.50000000000000000, 1.325817663668032331 ) ;
#284 = CIRCLE ( 'NONE', #186, 10.00000000000000178 ) ;
#285 = LINE ( 'NONE', #809, #1005 ) ;
#286 = DIRECTION ( 'NONE',  ( 1.000000000000000000, 0.000000000000000000, 0.000000000000000000 ) ) ;
#287 = ADVANCED_FACE ( 'NONE', ( #940, #157 ), #464, .T. ) ;
#288 = CALENDAR_DATE ( 2022, 7, 11 ) ;
#289 = ORIENTED_EDGE ( 'NONE', *, *, #1105, .T. ) ;
#290 = CARTESIAN_POINT ( 'NONE',  ( -1.502314598737159031E-15, 33.50000000000000000, 14.28941916244324162 ) ) ;
#291 = DIRECTION ( 'NONE',  ( 0.5000000000000004441, 0.000000000000000000, -0.8660254037844383745 ) ) ;
#292 = ORIENTED_EDGE ( 'NONE', *, *, #854, .T. ) ;
#293 = ORIENTED_EDGE ( 'NONE', *, *, #220, .T. ) ;
#294 = CARTESIAN_POINT ( 'NONE',  ( 5.196152422706625806, 6.420672116997031331, 9.000000000000001776 ) ) ;
#295 = CARTESIAN_POINT ( 'NONE',  ( 1.540743955509788682E-30, 14.00000000000000000, 0.000000000000000000 ) ) ;
#296 = ORIENTED_EDGE ( 'NONE', *, *, #992, .F. ) ;
#297 = DIRECTION ( 'NONE',  ( -1.000000000000000000, -7.019334649247328678E-33, -1.051347561198064342E-16 ) ) ;
#298 = CARTESIAN_POINT ( 'NONE',  ( -13.60610722522451255, 22.49999999999988987, 5.012369317567636706 ) ) ;
#299 = AXIS2_PLACEMENT_3D ( 'NONE', #537, #896, #180 ) ;
#300 = EDGE_CURVE ( 'NONE', #791, #38, #698, .T. ) ;
#301 = CARTESIAN_POINT ( 'NONE',  ( 2.462214450448991343, 22.50000000000000000, -14.28941916244324339 ) ) ;
#302 = EDGE_CURVE ( 'NONE', #171, #719, #787, .T. ) ;
#303 = EDGE_LOOP ( 'NONE', ( #234 ) ) ;
#304 = DIRECTION ( 'NONE',  ( 7.019334649247328678E-33, -1.000000000000000000, -0.000000000000000000 ) ) ;
#305 = LINE ( 'NONE', #267, #845 ) ;
#306 = EDGE_LOOP ( 'NONE', ( #747 ) ) ;
#307 = DIRECTION ( 'NONE',  ( 1.000000000000000000, 0.000000000000000000, 0.000000000000000000 ) ) ;
#308 = DIRECTION ( 'NONE',  ( -1.000000000000000000, 0.000000000000000000, 0.000000000000000000 ) ) ;
#309 = CARTESIAN_POINT ( 'NONE',  ( -1.579420489427141292E-31, 22.50000000000000000, -14.28941916244324339 ) ) ;
#310 = ORIENTED_EDGE ( 'NONE', *, *, #736, .F. ) ;
#311 = ORIENTED_EDGE ( 'NONE', *, *, #359, .F. ) ;
#312 = CARTESIAN_POINT ( 'NONE',  ( -16.01948791010084605, 33.12012802247479470, -0.8322713533564463084 ) ) ;
#313 = CARTESIAN_POINT ( 'NONE',  ( 2.462214450448990011, 33.50000000000000000, 14.28941916244324162 ) ) ;
#314 = ADVANCED_FACE ( 'NONE', ( #414, #880 ), #954, .T. ) ;
#315 = EDGE_LOOP ( 'NONE', ( #292 ) ) ;
#316 = CIRCLE ( 'NONE', #1056, 31.50000000000000000 ) ;
#317 = VECTOR ( 'NONE', #344, 1000.000000000000000 ) ;
#318 = VECTOR ( 'NONE', #104, 1000.000000000000000 ) ;
#319 = CARTESIAN_POINT ( 'NONE',  ( 11.14389277477550699, 33.50000000000000000, 9.277049844875595142 ) ) ;
#320 = LINE ( 'NONE', #1023, #772 ) ;
#321 = ORIENTED_EDGE ( 'NONE', *, *, #214, .F. ) ;
#322 = CARTESIAN_POINT ( 'NONE',  ( 13.60610722522450722, 33.50000000000000000, 5.012369317567639371 ) ) ;
#323 = ORIENTED_EDGE ( 'NONE', *, *, #1003, .F. ) ;
#324 = LINE ( 'NONE', #156, #1042 ) ;
#325 = CARTESIAN_POINT ( 'NONE',  ( -10.17878072992740535, 33.39453425983771240, 10.94867294154920145 ) ) ;
#326 = EDGE_LOOP ( 'NONE', ( #946, #1140, #3 ) ) ;
#327 = DIRECTION ( 'NONE',  ( 1.000000000000000000, 0.000000000000000000, 0.000000000000000000 ) ) ;
#328 = ORIENTED_EDGE ( 'NONE', *, *, #95, .T. ) ;
#329 = LINE ( 'NONE', #151, #426 ) ;
#330 = LINE ( 'NONE', #410, #614 ) ;
#331 = DIRECTION ( 'NONE',  ( -0.5000000000000001110, 0.000000000000000000, -0.8660254037844385966 ) ) ;
#332 = PERSON_AND_ORGANIZATION ( #758, #428 ) ;
#333 = EDGE_LOOP ( 'NONE', ( #150 ) ) ;
#334 = CIRCLE ( 'NONE', #827, 14.50000000000000000 ) ;
#335 = AXIS2_PLACEMENT_3D ( 'NONE', #273, #630, #127 ) ;
#336 = DIRECTION ( 'NONE',  ( -8.283569653278434630E-33, 1.000000000000000000, -0.000000000000000000 ) ) ;
#337 = APPROVAL ( #18, '未指定' ) ;
#338 = CARTESIAN_POINT ( 'NONE',  ( 10.39230484541326582, 13.99999999999999822, -3.469446951953614189E-15 ) ) ;
#339 = ORIENTED_EDGE ( 'NONE', *, *, #262, .T. ) ;
#340 = AXIS2_PLACEMENT_3D ( 'NONE', #77, #439, #1158 ) ;
#341 = CARTESIAN_POINT ( 'NONE',  ( 9.999999999999998224, 22.00000000000000000, 0.000000000000000000 ) ) ;
#342 = ORIENTED_EDGE ( 'NONE', *, *, #625, .T. ) ;
#343 = EDGE_CURVE ( 'NONE', #969, #969, #695, .T. ) ;
#344 = DIRECTION ( 'NONE',  ( -8.283569653278434630E-33, 1.000000000000000000, -0.000000000000000000 ) ) ;
#345 = DIRECTION ( 'NONE',  ( 1.000000000000000000, 0.000000000000000000, 0.000000000000000000 ) ) ;
#346 = CARTESIAN_POINT ( 'NONE',  ( 10.00000000000000178, 232.4999999999999432, 0.000000000000000000 ) ) ;
#347 = EDGE_LOOP ( 'NONE', ( #1148 ) ) ;
#348 = CARTESIAN_POINT ( 'NONE',  ( -2.462214450448992675, 33.50000000000000000, 14.28941916244324339 ) ) ;
#349 = CARTESIAN_POINT ( 'NONE',  ( -13.60610722522449834, 33.50000000000000000, 5.012369317567666904 ) ) ;
#350 = APPLICATION_PROTOCOL_DEFINITION ( 'international standard', 'config_control_design', 1994, #538 ) ;
#351 = ORIENTED_EDGE ( 'NONE', *, *, #781, .T. ) ;
#352 = CARTESIAN_POINT ( 'NONE',  ( -16.50000000000000000, 23.00000000000000000, 0.000000000000000000 ) ) ;
#353 = DIRECTION ( 'NONE',  ( -0.8660254037844385966, -7.173781753756976930E-33, 0.5000000000000001110 ) ) ;
#354 = CIRCLE ( 'NONE', #847, 14.50000000000000000 ) ;
#355 = AXIS2_PLACEMENT_3D ( 'NONE', #119, #378, #307 ) ;
#356 = ORIENTED_EDGE ( 'NONE', *, *, #922, .F. ) ;
#357 = CARTESIAN_POINT ( 'NONE',  ( -11.14389277477550877, 22.50000000000000000, 9.277049844875591589 ) ) ;
#358 = DIRECTION ( 'NONE',  ( 7.019334649247328678E-33, -1.000000000000000000, -0.000000000000000000 ) ) ;
#359 = EDGE_CURVE ( 'NONE', #778, #988, #1052, .T. ) ;
#360 = CARTESIAN_POINT ( 'NONE',  ( 14.57465259142615821, 33.41776667598009709, -3.334799533870967725 ) ) ;
#361 = VERTEX_POINT ( 'NONE', #1035 ) ;
#362 = CARTESIAN_POINT ( 'NONE',  ( -2.462214450448991343, 22.50000000000000000, -14.28941916244324339 ) ) ;
#363 = FACE_OUTER_BOUND ( 'NONE', #1081, .T. ) ;
#364 = CARTESIAN_POINT ( 'NONE',  ( -14.57121927007262308, 22.60546574016230181, 3.340746220894020624 ) ) ;
#365 = ORIENTED_EDGE ( 'NONE', *, *, #495, .T. ) ;
#366 = CARTESIAN_POINT ( 'NONE',  ( 2.462214450448981129, 33.50000000000000000, -14.28941916244324695 ) ) ;
#367 = CARTESIAN_POINT ( 'NONE',  ( -10.39230484541326582, 6.420672116997031331, 1.730035651636503780E-15 ) ) ;
#368 = ORIENTED_EDGE ( 'NONE', *, *, #799, .T. ) ;
#369 = SHAPE_DEFINITION_REPRESENTATION ( #710, #894 ) ;
#370 = ORIENTED_EDGE ( 'NONE', *, *, #141, .T. ) ;
#371 = AXIS2_PLACEMENT_3D ( 'NONE', #25, #1010, #1106 ) ;
#372 = B_SPLINE_CURVE_WITH_KNOTS ( 'NONE', 3,
 ( #322, #233, #595, #858, #773, #148 ),
 .UNSPECIFIED., .F., .F.,
 ( 4, 2, 4 ),
 ( 0.02228142973992401632, 0.02514843539758461477, 0.02801544105524521322 ),
 .UNSPECIFIED. ) ;
#373 = ADVANCED_FACE ( 'NONE', ( #948 ), #257, .T. ) ;
#374 = CARTESIAN_POINT ( 'NONE',  ( -8.250000000000003553, -0.001000000000001000089, 14.28941916244324162 ) ) ;
#375 = DIRECTION ( 'NONE',  ( 1.000000000000000000, 0.000000000000000000, 0.000000000000000000 ) ) ;
#376 = ORIENTED_EDGE ( 'NONE', *, *, #699, .T. ) ;
#377 = EDGE_LOOP ( 'NONE', ( #249, #780, #381 ) ) ;
#378 = DIRECTION ( 'NONE',  ( 7.019334649247328678E-33, -1.000000000000000000, -0.000000000000000000 ) ) ;
#379 = CARTESIAN_POINT ( 'NONE',  ( 10.17878072992739114, 33.39453425983771240, -10.94867294154921922 ) ) ;
#380 = ADVANCED_FACE ( 'NONE', ( #856 ), #1018, .T. ) ;
#381 = ORIENTED_EDGE ( 'NONE', *, *, #1125, .T. ) ;
#382 = CARTESIAN_POINT ( 'NONE',  ( 6.326940112890306445, 22.75961751411129086, -14.28941916244324339 ) ) ;
#383 = EDGE_LOOP ( 'NONE', ( #376 ) ) ;
#384 = DIRECTION ( 'NONE',  ( 1.000000000000000000, 0.000000000000000000, 0.000000000000000000 ) ) ;
#385 = CARTESIAN_POINT ( 'NONE',  ( 16.50000000000000000, 33.00000000000000000, 0.000000000000000000 ) ) ;
#386 = CIRCLE ( 'NONE', #1037, 14.50000000000000000 ) ;
#387 = ORIENTED_EDGE ( 'NONE', *, *, #141, .F. ) ;
#388 = B_SPLINE_CURVE_WITH_KNOTS ( 'NONE', 3,
 ( #616, #527, #436, #1060 ),
 .UNSPECIFIED., .F., .F.,
 ( 4, 4 ),
 ( 0.01000765330561783663, 0.01581696960789818682 ),
 .UNSPECIFIED. ) ;
#389 = VECTOR ( 'NONE', #236, 1000.000000000000000 ) ;
#390 = AXIS2_PLACEMENT_3D ( 'NONE', #294, #836, #1094 ) ;
#391 = CARTESIAN_POINT ( 'NONE',  ( -8.250000000000003553, 33.00000000000000000, 14.28941916244324162 ) ) ;
#392 = ORIENTED_EDGE ( 'NONE', *, *, #891, .F. ) ;
#393 = LINE ( 'NONE', #768, #884 ) ;
#394 = CARTESIAN_POINT ( 'NONE',  ( 10.17534740857385245, 33.41776667598009709, 10.95461962857226013 ) ) ;
#395 = ORIENTED_EDGE ( 'NONE', *, *, #495, .F. ) ;
#396 = EDGE_CURVE ( 'NONE', #282, #857, #731, .T. ) ;
#397 = CARTESIAN_POINT ( 'NONE',  ( 1.575840628756025333E-30, 8.999999999999998224, 0.000000000000000000 ) ) ;
#398 = CARTESIAN_POINT ( 'NONE',  ( 5.196152422706636465, 6.420672116997031331, -8.999999999999996447 ) ) ;
#399 = ORIENTED_EDGE ( 'NONE', *, *, #89, .F. ) ;
#400 = ORIENTED_EDGE ( 'NONE', *, *, #819, .T. ) ;
#401 = B_SPLINE_CURVE_WITH_KNOTS ( 'NONE', 3,
 ( #963, #1072, #379, #746, #1089, #918 ),
 .UNSPECIFIED., .F., .F.,
 ( 4, 2, 4 ),
 ( 0.02228142973992403367, 0.02514843539758463212, 0.02801544105524523057 ),
 .UNSPECIFIED. ) ;
#402 = ORIENTED_EDGE ( 'NONE', *, *, #76, .T. ) ;
#403 = CARTESIAN_POINT ( 'NONE',  ( -4.388739265222611152, 22.58178477996696643, 14.28941916244324162 ) ) ;
#404 = CARTESIAN_POINT ( 'NONE',  ( -8.250000000000001776, 23.00000000000000000, 14.28941916244323806 ) ) ;
#405 = ORIENTED_EDGE ( 'NONE', *, *, #793, .F. ) ;
#406 = CARTESIAN_POINT ( 'NONE',  ( 8.250000000000001776, 33.00000000000000000, 14.28941916244324162 ) ) ;
#407 = CIRCLE ( 'NONE', #735, 14.50000000000000000 ) ;
#408 = VECTOR ( 'NONE', #558, 1000.000000000000000 ) ;
#409 = CARTESIAN_POINT ( 'NONE',  ( -12.37500000000000355, 22.50000000000000000, 7.144709581221623473 ) ) ;
#410 = CARTESIAN_POINT ( 'NONE',  ( -12.37500000000000711, 22.50000000000000000, -7.144709581221621697 ) ) ;
#411 = DIRECTION ( 'NONE',  ( 7.019334649247328678E-33, -1.000000000000000000, -0.000000000000000000 ) ) ;
#412 = VERTEX_POINT ( 'NONE', #338 ) ;
#413 = CARTESIAN_POINT ( 'NONE',  ( 11.14389277477548390, 22.50000000000000000, -9.277049844875621787 ) ) ;
#414 = FACE_OUTER_BOUND ( 'NONE', #1151, .T. ) ;
#415 = DIRECTION ( 'NONE',  ( 1.000000000000000000, 0.000000000000000000, 0.000000000000000000 ) ) ;
#416 = EDGE_CURVE ( 'NONE', #274, #106, #37, .T. ) ;
#417 = ORIENTED_EDGE ( 'NONE', *, *, #840, .F. ) ;
#418 = ADVANCED_FACE ( 'NONE', ( #585 ), #204, .T. ) ;
#419 = PLANE ( 'NONE',  #1040 ) ;
#420 = CARTESIAN_POINT ( 'NONE',  ( -8.250000000000001776, 23.00000000000000000, -14.28941916244323629 ) ) ;
#421 = CARTESIAN_POINT ( 'NONE',  ( 0.000000000000000000, 0.000000000000000000, 0.000000000000000000 ) ) ;
#422 = VERTEX_POINT ( 'NONE', #404 ) ;
#423 = AXIS2_PLACEMENT_3D ( 'NONE', #458, #817, #540 ) ;
#424 = DIRECTION ( 'NONE',  ( -0.000000000000000000, 1.000000000000000000, -0.000000000000000000 ) ) ;
#425 = CARTESIAN_POINT ( 'NONE',  ( 9.211216989430935698, 22.75969575264226563, -12.62454249965045960 ) ) ;
#426 = VECTOR ( 'NONE', #336, 1000.000000000000000 ) ;
#427 = VERTEX_POINT ( 'NONE', #163 ) ;
#428 = ORGANIZATION ( '未指定', '未指定', '' ) ;
#429 = ORIENTED_EDGE ( 'NONE', *, *, #727, .F. ) ;
#430 = FACE_BOUND ( 'NONE', #1075, .T. ) ;
#431 = EDGE_CURVE ( 'NONE', #651, #1031, #320, .T. ) ;
#432 = CARTESIAN_POINT ( 'NONE',  ( -16.50000000000000000, 23.00000000000000000, 0.000000000000000000 ) ) ;
#433 = ADVANCED_FACE ( 'NONE', ( #81 ), #808, .T. ) ;
#434 = ORIENTED_EDGE ( 'NONE', *, *, #36, .F. ) ;
#435 = LINE ( 'NONE', #290, #444 ) ;
#436 = CARTESIAN_POINT ( 'NONE',  ( 4.398517250774822251, 33.41780012525160259, -14.28941916244324339 ) ) ;
#437 = LINE ( 'NONE', #619, #110 ) ;
#438 = ORIENTED_EDGE ( 'NONE', *, *, #625, .F. ) ;
#439 = DIRECTION ( 'NONE',  ( -7.019334649247328678E-33, 1.000000000000000000, 0.000000000000000000 ) ) ;
#440 = CARTESIAN_POINT ( 'NONE',  ( -8.250000000000001776, 23.00000000000000000, -14.28941916244323629 ) ) ;
#441 = AXIS2_PLACEMENT_3D ( 'NONE', #1007, #22, #749 ) ;
#442 = CONICAL_SURFACE ( 'NONE', #14, 16.50000000000000000, 1.325817663668032331 ) ;
#443 = COORDINATED_UNIVERSAL_TIME_OFFSET ( 8, 0, .AHEAD. ) ;
#444 = VECTOR ( 'NONE', #803, 1000.000000000000000 ) ;
#445 = CARTESIAN_POINT ( 'NONE',  ( 15.53878301056906075, 33.24030424735773437, -1.664876662792785122 ) ) ;
#446 = VERTEX_POINT ( 'NONE', #532 ) ;
#447 = DIRECTION ( 'NONE',  ( 0.5000000000000001110, 3.509667324623665023E-33, 0.8660254037844385966 ) ) ;
#448 = CARTESIAN_POINT ( 'NONE',  ( 10.17534740857383646, 22.58223332401990291, -10.95461962857227789 ) ) ;
#449 = SECURITY_CLASSIFICATION_LEVEL ( 'unclassified' ) ;
#450 = CARTESIAN_POINT ( 'NONE',  ( -13.60610722522451255, 22.49999999999988987, 5.012369317567636706 ) ) ;
#451 = ADVANCED_FACE ( 'NONE', ( #78 ), #1153, .F. ) ;
#452 = ORIENTED_EDGE ( 'NONE', *, *, #682, .F. ) ;
#453 = EDGE_CURVE ( 'NONE', #888, #282, #788, .T. ) ;
#454 = CARTESIAN_POINT ( 'NONE',  ( -31.50000000000000000, -8.878689293818505317E-16, 0.000000000000000000 ) ) ;
#455 = FACE_OUTER_BOUND ( 'NONE', #303, .T. ) ;
#456 = VERTEX_POINT ( 'NONE', #1144 ) ;
#457 = APPROVAL_STATUS ( 'not_yet_approved' ) ;
#458 = CARTESIAN_POINT ( 'NONE',  ( 12.37499999999999822, -0.001000000000001000089, -7.144709581221619921 ) ) ;
#459 = EDGE_CURVE ( 'NONE', #581, #864, #388, .T. ) ;
#460 = ORIENTED_EDGE ( 'NONE', *, *, #225, .F. ) ;
#461 = CARTESIAN_POINT ( 'NONE',  ( -11.14389277477551587, 33.50000000000000000, 9.277049844875580931 ) ) ;
#462 = CYLINDRICAL_SURFACE ( 'NONE', #91, 9.999999999999998224 ) ;
#463 = ORIENTED_EDGE ( 'NONE', *, *, #718, .T. ) ;
#464 = CONICAL_SURFACE ( 'NONE', #635, 10.00000000000000178, 0.7853981633974447263 ) ;
#465 = VECTOR ( 'NONE', #615, 1000.000000000000000 ) ;
#466 = ORIENTED_EDGE ( 'NONE', *, *, #992, .T. ) ;
#467 = CARTESIAN_POINT ( 'NONE',  ( 4.388739265222599606, 22.58178477996696643, -14.28941916244324339 ) ) ;
#468 = FACE_OUTER_BOUND ( 'NONE', #493, .T. ) ;
#469 = ORIENTED_EDGE ( 'NONE', *, *, #135, .T. ) ;
#470 = EDGE_CURVE ( 'NONE', #888, #857, #407, .T. ) ;
#471 = EDGE_CURVE ( 'NONE', #684, #1026, #248, .T. ) ;
#472 = PERSON_AND_ORGANIZATION_ROLE ( 'creator' ) ;
#473 = ADVANCED_FACE ( 'NONE', ( #968, #277 ), #951, .T. ) ;
#474 = EDGE_LOOP ( 'NONE', ( #574, #365, #649 ) ) ;
#475 = DIRECTION ( 'NONE',  ( 7.019334649247328678E-33, -1.000000000000000000, -0.000000000000000000 ) ) ;
#476 = ORIENTED_EDGE ( 'NONE', *, *, #1136, .T. ) ;
#477 = CARTESIAN_POINT ( 'NONE',  ( -16.50000000000000711, 33.00000000000000000, 0.000000000000000000 ) ) ;
#478 = ORIENTED_EDGE ( 'NONE', *, *, #854, .F. ) ;
#479 = B_SPLINE_CURVE_WITH_KNOTS ( 'NONE', 3,
 ( #126, #584, #483, #939 ),
 .UNSPECIFIED., .F., .F.,
 ( 4, 4 ),
 ( 0.01000765330561784010, 0.01581696960789817641 ),
 .UNSPECIFIED. ) ;
#480 = ADVANCED_FACE ( 'NONE', ( #168 ), #53, .T. ) ;
#481 = CARTESIAN_POINT ( 'NONE',  ( 1.403866929849465659E-30, 33.50000000000000000, 0.000000000000000000 ) ) ;
#482 = ORIENTED_EDGE ( 'NONE', *, *, #562, .T. ) ;
#483 = CARTESIAN_POINT ( 'NONE',  ( 4.398517250774841791, 22.58219987474840096, 14.28941916244324162 ) ) ;
#484 = DIRECTION ( 'NONE',  ( 7.019334649247328678E-33, -1.000000000000000000, -0.000000000000000000 ) ) ;
#485 = CARTESIAN_POINT ( 'NONE',  ( 11.14389277477548923, 33.50000000000000000, -9.277049844875611129 ) ) ;
#486 = VECTOR ( 'NONE', #623, 1000.000000000000000 ) ;
#487 = EDGE_CURVE ( 'NONE', #1031, #1051, #174, .T. ) ;
#488 = CIRCLE ( 'NONE', #675, 14.50000000000000000 ) ;
#489 = CONICAL_SURFACE ( 'NONE', #676, 16.50000000000000000, 1.325817663668032331 ) ;
#490 = PRODUCT_DEFINITION_FORMATION_WITH_SPECIFIED_SOURCE ( '任何', '', #955, .NOT_KNOWN. ) ;
#491 = CARTESIAN_POINT ( 'NONE',  ( -13.60610722522449834, 33.50000000000000000, 5.012369317567666904 ) ) ;
#492 = CARTESIAN_POINT ( 'NONE',  ( 1.403866929849465659E-30, 33.50000000000000000, 0.000000000000000000 ) ) ;
#493 = EDGE_LOOP ( 'NONE', ( #852, #638, #42 ) ) ;
#494 = VERTEX_POINT ( 'NONE', #432 ) ;
#495 = EDGE_CURVE ( 'NONE', #582, #751, #1067, .T. ) ;
#496 = DIRECTION ( 'NONE',  ( -0.4999999999999997780, -3.509667324623662286E-33, 0.8660254037844387076 ) ) ;
#497 = DIRECTION ( 'NONE',  ( 7.019334649247328678E-33, -1.000000000000000000, -0.000000000000000000 ) ) ;
#498 = ORIENTED_EDGE ( 'NONE', *, *, #431, .T. ) ;
#499 = CARTESIAN_POINT ( 'NONE',  ( 1.403866929849465659E-30, 33.50000000000000000, 0.000000000000000000 ) ) ;
#500 = CARTESIAN_POINT ( 'NONE',  ( 1.403866929849465659E-30, 33.50000000000000000, 0.000000000000000000 ) ) ;
#501 = DIRECTION ( 'NONE',  ( -0.5000000000000003331, 0.000000000000000000, 0.8660254037844383745 ) ) ;
#502 = DESIGN_CONTEXT ( 'detailed design', #596, 'design' ) ;
#503 = CC_DESIGN_DATE_AND_TIME_ASSIGNMENT ( #897, #555, ( #1142 ) ) ;
#504 = DIRECTION ( 'NONE',  ( 7.019334649247328678E-33, -1.000000000000000000, -0.000000000000000000 ) ) ;
#505 = ORIENTED_EDGE ( 'NONE', *, *, #116, .T. ) ;
#506 = CARTESIAN_POINT ( 'NONE',  ( -5.196152422706632024, 6.420672116997031331, 9.000000000000001776 ) ) ;
#507 = DIRECTION ( 'NONE',  ( 1.000000000000000000, 0.000000000000000000, 0.000000000000000000 ) ) ;
#508 = ADVANCED_FACE ( 'NONE', ( #1049 ), #283, .T. ) ;
#509 = APPROVAL_PERSON_ORGANIZATION ( #332, #720, #693 ) ;
#510 = ADVANCED_FACE ( 'NONE', ( #722 ), #983, .T. ) ;
#511 = FACE_OUTER_BOUND ( 'NONE', #631, .T. ) ;
#512 = CARTESIAN_POINT ( 'NONE',  ( 10.00000000000000178, 33.50000000000000000, 0.000000000000000000 ) ) ;
#513 = ORIENTED_EDGE ( 'NONE', *, *, #736, .T. ) ;
#514 = CARTESIAN_POINT ( 'NONE',  ( -4.398517250774830245, 33.41780012525160259, 14.28941916244324162 ) ) ;
#515 = CARTESIAN_POINT ( 'NONE',  ( 1.481079610991186465E-30, 22.50000000000000000, 0.000000000000000000 ) ) ;
#516 = ORIENTED_EDGE ( 'NONE', *, *, #453, .F. ) ;
#517 = VERTEX_POINT ( 'NONE', #61 ) ;
#518 = ORIENTED_EDGE ( 'NONE', *, *, #1086, .F. ) ;
#519 = DIRECTION ( 'NONE',  ( 1.000000000000000000, 7.019334649247328678E-33, 0.000000000000000000 ) ) ;
#520 = CARTESIAN_POINT ( 'NONE',  ( -15.53776811299909788, 22.77516735565487949, 1.666634516948447997 ) ) ;
#521 = CARTESIAN_POINT ( 'NONE',  ( 14.00000000000000000, 13.99999999999999822, 0.000000000000000000 ) ) ;
#522 = ORIENTED_EDGE ( 'NONE', *, *, #86, .F. ) ;
#523 = ADVANCED_FACE ( 'NONE', ( #363 ), #442, .T. ) ;
#524 = AXIS2_PLACEMENT_3D ( 'NONE', #729, #987, #661 ) ;
#525 = AXIS2_PLACEMENT_3D ( 'NONE', #1066, #1054, #816 ) ;
#526 = DIRECTION ( 'NONE',  ( 1.000000000000000000, 0.000000000000000000, 0.000000000000000000 ) ) ;
#527 = CARTESIAN_POINT ( 'NONE',  ( 6.326883514896840310, 33.24038956063789385, -14.28941916244324339 ) ) ;
#528 = AXIS2_PLACEMENT_3D ( 'NONE', #895, #650, #111 ) ;
#529 =( NAMED_UNIT ( * ) PLANE_ANGLE_UNIT ( ) SI_UNIT ( $, .RADIAN. ) );
#530 = ORIENTED_EDGE ( 'NONE', *, *, #116, .F. ) ;
#531 = LINE ( 'NONE', #255, #465 ) ;
#532 = CARTESIAN_POINT ( 'NONE',  ( 11.14389277477549278, 22.49999999999988987, 9.277049844875614681 ) ) ;
#533 = EDGE_CURVE ( 'NONE', #1112, #26, #1146, .T. ) ;
#534 = VERTEX_POINT ( 'NONE', #1154 ) ;
#535 = ORIENTED_EDGE ( 'NONE', *, *, #36, .T. ) ;
#536 = PLANE ( 'NONE',  #528 ) ;
#537 = CARTESIAN_POINT ( 'NONE',  ( 1.477569943666562712E-30, 23.00000000000000000, 0.000000000000000000 ) ) ;
#538 = APPLICATION_CONTEXT ( 'configuration controlled 3d designs of mechanical parts and assemblies' ) ;
#539 = CC_DESIGN_PERSON_AND_ORGANIZATION_ASSIGNMENT ( #546, #115, ( #490 ) ) ;
#540 = DIRECTION ( 'NONE',  ( -0.5000000000000001110, 0.000000000000000000, -0.8660254037844385966 ) ) ;
#541 = ORIENTED_EDGE ( 'NONE', *, *, #470, .F. ) ;
#542 = CARTESIAN_POINT ( 'NONE',  ( -10.39230484541326582, 13.99999999999999822, 1.730035651636503780E-15 ) ) ;
#543 = CARTESIAN_POINT ( 'NONE',  ( -9.212231887000912778, 22.77516735565487949, -12.62278464549479473 ) ) ;
#544 = EDGE_CURVE ( 'NONE', #38, #581, #401, .T. ) ;
#545 = AXIS2_PLACEMENT_3D ( 'NONE', #367, #733, #291 ) ;
#546 = PERSON_AND_ORGANIZATION ( #758, #428 ) ;
#547 = VECTOR ( 'NONE', #447, 1000.000000000000000 ) ;
#548 = DIRECTION ( 'NONE',  ( 1.000000000000000000, 0.000000000000000000, 0.000000000000000000 ) ) ;
#549 = CC_DESIGN_DATE_AND_TIME_ASSIGNMENT ( #728, #100, ( #628 ) ) ;
#550 = VERTEX_POINT ( 'NONE', #196 ) ;
#551 = LINE ( 'NONE', #98, #1100 ) ;
#552 = DIRECTION ( 'NONE',  ( -7.019334649247328678E-33, 1.000000000000000000, 0.000000000000000000 ) ) ;
#553 = ORIENTED_EDGE ( 'NONE', *, *, #906, .F. ) ;
#554 = ADVANCED_FACE ( 'NONE', ( #105, #455 ), #462, .T. ) ;
#555 = DATE_TIME_ROLE ( 'classification_date' ) ;
#556 = DIRECTION ( 'NONE',  ( -0.000000000000000000, 1.000000000000000000, -0.000000000000000000 ) ) ;
#557 = ORIENTED_EDGE ( 'NONE', *, *, #471, .F. ) ;
#558 = DIRECTION ( 'NONE',  ( -0.000000000000000000, 1.000000000000000000, -0.000000000000000000 ) ) ;
#559 = FACE_OUTER_BOUND ( 'NONE', #1021, .T. ) ;
#560 = ORIENTED_EDGE ( 'NONE', *, *, #343, .T. ) ;
#561 = ORIENTED_EDGE ( 'NONE', *, *, #1070, .F. ) ;
#562 = EDGE_CURVE ( 'NONE', #1117, #274, #488, .T. ) ;
#563 = LINE ( 'NONE', #914, #865 ) ;
#564 = DIRECTION ( 'NONE',  ( -0.5000000000000003331, 0.000000000000000000, 0.8660254037844383745 ) ) ;
#565 = ORIENTED_EDGE ( 'NONE', *, *, #938, .F. ) ;
#566 = VECTOR ( 'NONE', #665, 1000.000000000000000 ) ;
#567 = APPROVAL_DATE_TIME ( #822, #713 ) ;
#568 = EDGE_LOOP ( 'NONE', ( #387 ) ) ;
#569 = AXIS2_PLACEMENT_3D ( 'NONE', #725, #901, #188 ) ;
#570 = LOCAL_TIME ( 23, 54, 17.00000000000000000, #198 ) ;
#571 = CARTESIAN_POINT ( 'NONE',  ( 8.249999999999992895, 23.00000000000000000, -14.28941916244323984 ) ) ;
#572 = PLANE ( 'NONE',  #239 ) ;
#573 = ADVANCED_FACE ( 'NONE', ( #821 ), #11, .F. ) ;
#574 = ORIENTED_EDGE ( 'NONE', *, *, #938, .T. ) ;
#575 = CARTESIAN_POINT ( 'NONE',  ( -9.999999999999998224, 22.00000000000000000, 0.000000000000000000 ) ) ;
#576 = DIRECTION ( 'NONE',  ( 1.000000000000000000, 0.000000000000000000, 0.000000000000000000 ) ) ;
#577 = DIRECTION ( 'NONE',  ( 7.019334649247328678E-33, -1.000000000000000000, -0.000000000000000000 ) ) ;
#578 = CARTESIAN_POINT ( 'NONE',  ( -5.196152422706632024, 6.420672116997031331, 9.000000000000001776 ) ) ;
#579 = LINE ( 'NONE', #1091, #75 ) ;
#580 = FACE_BOUND ( 'NONE', #834, .T. ) ;
#581 = VERTEX_POINT ( 'NONE', #640 ) ;
#582 = VERTEX_POINT ( 'NONE', #1083 ) ;
#583 = CIRCLE ( 'NONE', #569, 14.50000000000000000 ) ;
#584 = CARTESIAN_POINT ( 'NONE',  ( 6.326883514896854521, 22.75961043936210615, 14.28941916244324162 ) ) ;
#585 = FACE_OUTER_BOUND ( 'NONE', #474, .T. ) ;
#586 = EDGE_LOOP ( 'NONE', ( #1041, #482, #643 ) ) ;
#587 = B_SPLINE_CURVE_WITH_KNOTS ( 'NONE', 3,
 ( #450, #8, #364, #520, #1028, #769 ),
 .UNSPECIFIED., .F., .F.,
 ( 4, 2, 4 ),
 ( 0.02228142973992403367, 0.02514843539758462518, 0.02801544105524521669 ),
 .UNSPECIFIED. ) ;
#588 = FACE_OUTER_BOUND ( 'NONE', #591, .T. ) ;
#589 = DIRECTION ( 'NONE',  ( 7.019334649247328678E-33, -1.000000000000000000, -0.000000000000000000 ) ) ;
#590 = CARTESIAN_POINT ( 'NONE',  ( 8.250000000000000000, 23.00000000000000000, 14.28941916244323806 ) ) ;
#591 = EDGE_LOOP ( 'NONE', ( #1036, #724, #641 ) ) ;
#592 = EDGE_CURVE ( 'NONE', #791, #730, #1097, .T. ) ;
#593 = CARTESIAN_POINT ( 'NONE',  ( 1.403866929849465659E-30, 33.50000000000000000, 0.000000000000000000 ) ) ;
#594 = CARTESIAN_POINT ( 'NONE',  ( 1.484589278315810042E-30, 22.00000000000000000, 0.000000000000000000 ) ) ;
#595 = CARTESIAN_POINT ( 'NONE',  ( 14.57121927007261064, 33.39453425983771240, 3.340746220894030838 ) ) ;
#596 = APPLICATION_CONTEXT ( 'configuration controlled 3d designs of mechanical parts and assemblies' ) ;
#597 = ORIENTED_EDGE ( 'NONE', *, *, #889, .T. ) ;
#598 = VECTOR ( 'NONE', #556, 1000.000000000000000 ) ;
#599 = CARTESIAN_POINT ( 'NONE',  ( -2.462214450449003778, 22.50000000000000000, 14.28941916244324162 ) ) ;
#600 = DIRECTION ( 'NONE',  ( 7.019334649247328678E-33, -1.000000000000000000, -0.000000000000000000 ) ) ;
#601 =( GEOMETRIC_REPRESENTATION_CONTEXT ( 3 ) GLOBAL_UNCERTAINTY_ASSIGNED_CONTEXT ( ( #43 ) ) GLOBAL_UNIT_ASSIGNED_CONTEXT ( ( #870, #529, #876 ) ) REPRESENTATION_CONTEXT ( 'NONE', 'WORKASPACE' ) );
#602 = ADVANCED_FACE ( 'NONE', ( #468 ), #696, .T. ) ;
#603 = ORIENTED_EDGE ( 'NONE', *, *, #459, .F. ) ;
#604 = FACE_OUTER_BOUND ( 'NONE', #59, .T. ) ;
#605 = DIRECTION ( 'NONE',  ( -1.000000000000000000, 0.000000000000000000, 0.000000000000000000 ) ) ;
#606 = DIRECTION ( 'NONE',  ( 1.000000000000000000, 0.000000000000000000, 0.000000000000000000 ) ) ;
#607 = ADVANCED_FACE ( 'NONE', ( #559 ), #646, .F. ) ;
#608 = ORIENTED_EDGE ( 'NONE', *, *, #300, .T. ) ;
#609 = PLANE ( 'NONE',  #340 ) ;
#610 = CARTESIAN_POINT ( 'NONE',  ( -8.250000000000005329, 33.00000000000000000, -14.28941916244324339 ) ) ;
#611 = B_SPLINE_CURVE_WITH_KNOTS ( 'NONE', 3,
 ( #848, #1108, #667, #136, #44, #590 ),
 .UNSPECIFIED., .F., .F.,
 ( 4, 2, 4 ),
 ( 0.02228142973992404061, 0.02514843539758462865, 0.02801544105524522016 ),
 .UNSPECIFIED. ) ;
#612 = VERTEX_POINT ( 'NONE', #346 ) ;
#613 = ORIENTED_EDGE ( 'NONE', *, *, #666, .T. ) ;
#614 = VECTOR ( 'NONE', #1129, 999.9999999999998863 ) ;
#615 = DIRECTION ( 'NONE',  ( -0.5000000000000001110, 0.000000000000000000, -0.8660254037844385966 ) ) ;
#616 = CARTESIAN_POINT ( 'NONE',  ( 8.249999999999994671, 33.00000000000000000, -14.28941916244324339 ) ) ;
#617 = AXIS2_PLACEMENT_3D ( 'NONE', #678, #1132, #65 ) ;
#618 = LOCAL_TIME ( 23, 54, 17.00000000000000000, #790 ) ;
#619 = CARTESIAN_POINT ( 'NONE',  ( 5.196152422706636465, 13.99999999999999822, -8.999999999999996447 ) ) ;
#620 = ORIENTED_EDGE ( 'NONE', *, *, #685, .T. ) ;
#621 = PLANE ( 'NONE',  #205 ) ;
#622 = CARTESIAN_POINT ( 'NONE',  ( -16.50000000000000711, 33.00000000000000000, 0.000000000000000000 ) ) ;
#623 = DIRECTION ( 'NONE',  ( 0.5000000000000001110, 0.000000000000000000, 0.8660254037844385966 ) ) ;
#624 = ORIENTED_EDGE ( 'NONE', *, *, #685, .F. ) ;
#625 = EDGE_CURVE ( 'NONE', #1051, #550, #833, .T. ) ;
#626 = CARTESIAN_POINT ( 'NONE',  ( 13.60610722522451077, 33.50000000000000000, -5.012369317567629601 ) ) ;
#627 = DIRECTION ( 'NONE',  ( 1.000000000000000000, 0.000000000000000000, 0.000000000000000000 ) ) ;
#628 = PRODUCT_DEFINITION ( '未知', '', #490, #502 ) ;
#629 = PERSON_AND_ORGANIZATION_ROLE ( 'creator' ) ;
#630 = DIRECTION ( 'NONE',  ( 7.019334649247328678E-33, -1.000000000000000000, -0.000000000000000000 ) ) ;
#631 = EDGE_LOOP ( 'NONE', ( #242 ) ) ;
#632 = EDGE_CURVE ( 'NONE', #988, #202, #117, .T. ) ;
#633 = LINE ( 'NONE', #179, #133 ) ;
#634 = CARTESIAN_POINT ( 'NONE',  ( -2.462214450448980685, 33.50000000000000000, -14.28941916244324339 ) ) ;
#635 = AXIS2_PLACEMENT_3D ( 'NONE', #679, #777, #507 ) ;
#636 = PERSON_AND_ORGANIZATION ( #758, #428 ) ;
#637 = LINE ( 'NONE', #88, #598 ) ;
#638 = ORIENTED_EDGE ( 'NONE', *, *, #471, .T. ) ;
#639 = DIRECTION ( 'NONE',  ( -1.000000000000000000, 0.000000000000000000, 0.000000000000000000 ) ) ;
#640 = CARTESIAN_POINT ( 'NONE',  ( 8.249999999999994671, 33.00000000000000000, -14.28941916244324339 ) ) ;
#641 = ORIENTED_EDGE ( 'NONE', *, *, #262, .F. ) ;
#642 = ADVANCED_FACE ( 'NONE', ( #430, #959 ), #419, .F. ) ;
#643 = ORIENTED_EDGE ( 'NONE', *, *, #416, .T. ) ;
#644 = EDGE_CURVE ( 'NONE', #941, #550, #962, .T. ) ;
#645 = LINE ( 'NONE', #374, #408 ) ;
#646 = PLANE ( 'NONE',  #1058 ) ;
#647 = ORIENTED_EDGE ( 'NONE', *, *, #225, .T. ) ;
#648 = COORDINATED_UNIVERSAL_TIME_OFFSET ( 8, 0, .AHEAD. ) ;
#649 = ORIENTED_EDGE ( 'NONE', *, *, #718, .F. ) ;
#650 = DIRECTION ( 'NONE',  ( 7.019334649247328678E-33, -1.000000000000000000, -0.000000000000000000 ) ) ;
#651 = VERTEX_POINT ( 'NONE', #1053 ) ;
#652 = MANIFOLD_SOLID_BREP ( '凸台-拉伸1', #278 ) ;
#653 = DIRECTION ( 'NONE',  ( 0.5000000000000001110, 0.000000000000000000, 0.8660254037844385966 ) ) ;
#654 = AXIS2_PLACEMENT_3D ( 'NONE', #892, #353, #1150 ) ;
#655 = ORIENTED_EDGE ( 'NONE', *, *, #632, .T. ) ;
#656 = AXIS2_PLACEMENT_3D ( 'NONE', #982, #715, #740 ) ;
#657 = CC_DESIGN_APPROVAL ( #337, ( #490 ) ) ;
#658 = CARTESIAN_POINT ( 'NONE',  ( 5.196152422706625806, 13.99999999999999822, 9.000000000000001776 ) ) ;
#659 = VERTEX_POINT ( 'NONE', #599 ) ;
#660 = FACE_OUTER_BOUND ( 'NONE', #824, .T. ) ;
#661 = DIRECTION ( 'NONE',  ( 1.000000000000000000, 0.000000000000000000, 0.000000000000000000 ) ) ;
#662 = CARTESIAN_POINT ( 'NONE',  ( -9.211216989430955238, 33.24030424735773437, -12.62454249965044539 ) ) ;
#663 = ORIENTED_EDGE ( 'NONE', *, *, #176, .T. ) ;
#664 = CARTESIAN_POINT ( 'NONE',  ( 13.60610722522450722, 22.50000000000000000, 5.012369317567641147 ) ) ;
#665 = DIRECTION ( 'NONE',  ( 1.000000000000000000, 7.019334649247328678E-33, 0.000000000000000000 ) ) ;
#666 = EDGE_CURVE ( 'NONE', #282, #26, #230, .T. ) ;
#667 = CARTESIAN_POINT ( 'NONE',  ( 10.17878072992739114, 22.60546574016230181, 10.94867294154922455 ) ) ;
#668 = EDGE_CURVE ( 'NONE', #211, #719, #872, .T. ) ;
#669 = CARTESIAN_POINT ( 'NONE',  ( -8.250000000000001776, 23.00000000000000000, 14.28941916244323806 ) ) ;
#670 = DIRECTION ( 'NONE',  ( -8.283569653278434630E-33, 1.000000000000000000, -0.000000000000000000 ) ) ;
#671 = ORIENTED_EDGE ( 'NONE', *, *, #1015, .F. ) ;
#672 = VECTOR ( 'NONE', #129, 1000.000000000000000 ) ;
#673 = CIRCLE ( 'NONE', #524, 14.50000000000000000 ) ;
#674 = EDGE_LOOP ( 'NONE', ( #356 ) ) ;
#675 = AXIS2_PLACEMENT_3D ( 'NONE', #741, #99, #375 ) ;
#676 = AXIS2_PLACEMENT_3D ( 'NONE', #208, #761, #308 ) ;
#677 = APPROVAL_PERSON_ORGANIZATION ( #910, #713, #812 ) ;
#678 = CARTESIAN_POINT ( 'NONE',  ( 1.403866929849465659E-30, 33.50000000000000000, 0.000000000000000000 ) ) ;
#679 = CARTESIAN_POINT ( 'NONE',  ( 7.019334649247835007E-33, 232.4999999999999432, 0.000000000000000000 ) ) ;
#680 = EDGE_LOOP ( 'NONE', ( #926 ) ) ;
#681 = CYLINDRICAL_SURFACE ( 'NONE', #1001, 10.00000000000000178 ) ;
#682 = EDGE_CURVE ( 'NONE', #651, #412, #1134, .T. ) ;
#683 = ADVANCED_FACE ( 'NONE', ( #800 ), #1149, .T. ) ;
#684 = VERTEX_POINT ( 'NONE', #1033 ) ;
#685 = EDGE_CURVE ( 'NONE', #550, #190, #531, .T. ) ;
#686 = DIRECTION ( 'NONE',  ( -8.283569653278434630E-33, 1.000000000000000000, -0.000000000000000000 ) ) ;
#687 = DIRECTION ( 'NONE',  ( 1.000000000000000000, 0.000000000000000000, 0.000000000000000000 ) ) ;
#688 = ORIENTED_EDGE ( 'NONE', *, *, #533, .F. ) ;
#689 = DIRECTION ( 'NONE',  ( 7.019334649247328678E-33, -1.000000000000000000, -0.000000000000000000 ) ) ;
#690 = ORIENTED_EDGE ( 'NONE', *, *, #1050, .F. ) ;
#691 = DIRECTION ( 'NONE',  ( -1.000000000000000000, 0.000000000000000000, 0.000000000000000000 ) ) ;
#692 = DIRECTION ( 'NONE',  ( 1.000000000000000000, 0.000000000000000000, 0.000000000000000000 ) ) ;
#693 = APPROVAL_ROLE ( '' ) ;
#694 = ORIENTED_EDGE ( 'NONE', *, *, #135, .F. ) ;
#695 = CIRCLE ( 'NONE', #792, 16.50000000000000000 ) ;
#696 = CONICAL_SURFACE ( 'NONE', #981, 14.50000000000000000, 1.325817663668032331 ) ;
#697 = FACE_OUTER_BOUND ( 'NONE', #586, .T. ) ;
#698 = LINE ( 'NONE', #943, #29 ) ;
#699 = EDGE_CURVE ( 'NONE', #701, #701, #1116, .T. ) ;
#700 = CC_DESIGN_APPROVAL ( #720, ( #628 ) ) ;
#701 = VERTEX_POINT ( 'NONE', #341 ) ;
#702 = ORIENTED_EDGE ( 'NONE', *, *, #1050, .T. ) ;
#703 = B_SPLINE_CURVE_WITH_KNOTS ( 'NONE', 3,
 ( #947, #146, #250, #243 ),
 .UNSPECIFIED., .F., .F.,
 ( 4, 4 ),
 ( 0.01156880623885717628, 0.01737803417017350083 ),
 .UNSPECIFIED. ) ;
#704 = CARTESIAN_POINT ( 'NONE',  ( -1.502314598737159031E-15, -0.001000000000001000089, 14.28941916244324162 ) ) ;
#705 = DIRECTION ( 'NONE',  ( -1.000000000000000000, 0.000000000000000000, 0.000000000000000000 ) ) ;
#706 = DIRECTION ( 'NONE',  ( 7.019334649247439523E-33, -1.000000000000000000, -0.000000000000000000 ) ) ;
#707 = ORIENTED_EDGE ( 'NONE', *, *, #279, .T. ) ;
#708 = DIRECTION ( 'NONE',  ( 1.000000000000000000, 0.000000000000000000, 1.051347561198064342E-16 ) ) ;
#709 = DIRECTION ( 'NONE',  ( -7.019334649247328678E-33, 1.000000000000000000, 0.000000000000000000 ) ) ;
#710 = PRODUCT_DEFINITION_SHAPE ( 'NONE', 'NONE',  #628 ) ;
#711 = PERSON_AND_ORGANIZATION_ROLE ( 'design_owner' ) ;
#712 = VERTEX_POINT ( 'NONE', #167 ) ;
#713 = APPROVAL ( #457, '未指定' ) ;
#714 = AXIS2_PLACEMENT_3D ( 'NONE', #515, #497, #783 ) ;
#715 = DIRECTION ( 'NONE',  ( 7.019334649247328678E-33, -1.000000000000000000, -0.000000000000000000 ) ) ;
#716 = CARTESIAN_POINT ( 'NONE',  ( -10.17878072992739824, 22.60546574016230181, -10.94867294154922277 ) ) ;
#717 = CC_DESIGN_SECURITY_CLASSIFICATION ( #1142, ( #490 ) ) ;
#718 = EDGE_CURVE ( 'NONE', #456, #751, #354, .T. ) ;
#719 = VERTEX_POINT ( 'NONE', #1048 ) ;
#720 = APPROVAL ( #1055, '未指定' ) ;
#721 = FACE_BOUND ( 'NONE', #874, .T. ) ;
#722 = FACE_OUTER_BOUND ( 'NONE', #979, .T. ) ;
#723 = LINE ( 'NONE', #33, #71 ) ;
#724 = ORIENTED_EDGE ( 'NONE', *, *, #875, .T. ) ;
#725 = CARTESIAN_POINT ( 'NONE',  ( 1.481079610991186465E-30, 22.50000000000000000, 0.000000000000000000 ) ) ;
#726 = DIRECTION ( 'NONE',  ( -1.000000000000000000, 0.000000000000000000, 0.000000000000000000 ) ) ;
#727 = EDGE_CURVE ( 'NONE', #952, #190, #324, .T. ) ;
#728 = DATE_AND_TIME ( #986, #166 ) ;
#729 = CARTESIAN_POINT ( 'NONE',  ( 1.481079610991186465E-30, 22.50000000000000000, 0.000000000000000000 ) ) ;
#730 = VERTEX_POINT ( 'NONE', #160 ) ;
#731 = B_SPLINE_CURVE_WITH_KNOTS ( 'NONE', 3,
 ( #420, #960, #237, #70 ),
 .UNSPECIFIED., .F., .F.,
 ( 4, 4 ),
 ( 0.01000765330561784010, 0.01581696960789818682 ),
 .UNSPECIFIED. ) ;
#732 = CARTESIAN_POINT ( 'NONE',  ( -9.211216989430949909, 22.75969575264226563, 12.62454249965044539 ) ) ;
#733 = DIRECTION ( 'NONE',  ( 0.8660254037844383745, 7.173781753756976930E-33, 0.5000000000000004441 ) ) ;
#734 = AXIS2_PLACEMENT_3D ( 'NONE', #1074, #577, #12 ) ;
#735 = AXIS2_PLACEMENT_3D ( 'NONE', #804, #358, #85 ) ;
#736 = EDGE_CURVE ( 'NONE', #712, #1064, #703, .T. ) ;
#737 = AXIS2_PLACEMENT_3D ( 'NONE', #500, #850, #576 ) ;
#738 = VECTOR ( 'NONE', #212, 1000.000000000000000 ) ;
#739 = EDGE_LOOP ( 'NONE', ( #476, #452, #323, #113 ) ) ;
#740 = DIRECTION ( 'NONE',  ( 1.000000000000000000, 0.000000000000000000, 0.000000000000000000 ) ) ;
#741 = CARTESIAN_POINT ( 'NONE',  ( 1.403866929849465659E-30, 33.50000000000000000, 0.000000000000000000 ) ) ;
#742 = VERTEX_POINT ( 'NONE', #885 ) ;
#743 = ORIENTED_EDGE ( 'NONE', *, *, #260, .F. ) ;
#744 = ADVANCED_FACE ( 'NONE', ( #697 ), #1141, .T. ) ;
#745 = CARTESIAN_POINT ( 'NONE',  ( 15.53776811299909788, 22.77516735565487949, -1.666634516948434674 ) ) ;
#746 = CARTESIAN_POINT ( 'NONE',  ( 9.212231887000902120, 33.22483264434511341, -12.62278464549478940 ) ) ;
#747 = ORIENTED_EDGE ( 'NONE', *, *, #699, .F. ) ;
#748 = PERSON_AND_ORGANIZATION ( #758, #428 ) ;
#749 = DIRECTION ( 'NONE',  ( 0.5000000000000001110, 0.000000000000000000, 0.8660254037844385966 ) ) ;
#750 = PLANE ( 'NONE',  #390 ) ;
#751 = VERTEX_POINT ( 'NONE', #413 ) ;
#752 = AXIS2_PLACEMENT_3D ( 'NONE', #944, #784, #331 ) ;
#753 = CARTESIAN_POINT ( 'NONE',  ( -14.57121927007260354, 33.39453425983771240, -3.340746220894058816 ) ) ;
#754 = CARTESIAN_POINT ( 'NONE',  ( 13.60610722522451077, 33.50000000000000000, -5.012369317567629601 ) ) ;
#755 = ORIENTED_EDGE ( 'NONE', *, *, #23, .F. ) ;
#756 = CIRCLE ( 'NONE', #371, 8.999999999999952038 ) ;
#757 = EDGE_CURVE ( 'NONE', #742, #211, #329, .T. ) ;
#758 = PERSON ( '未指定', '未指定', '未指定', ('未指定'), ('未指定'), ('未指定') ) ;
#759 = FACE_BOUND ( 'NONE', #383, .T. ) ;
#760 = ADVANCED_FACE ( 'NONE', ( #1043, #604 ), #609, .F. ) ;
#761 = DIRECTION ( 'NONE',  ( -7.019334649247328678E-33, 1.000000000000000000, 0.000000000000000000 ) ) ;
#762 = CARTESIAN_POINT ( 'NONE',  ( -5.196152422706629359, 13.99999999999999822, -8.999999999999996447 ) ) ;
#763 = CARTESIAN_POINT ( 'NONE',  ( -11.14389277477552831, 33.50000000000000000, -9.277049844875568496 ) ) ;
#764 = CARTESIAN_POINT ( 'NONE',  ( -14.08788760506627291, 33.45909494437278653, -4.177901221591872272 ) ) ;
#765 = CARTESIAN_POINT ( 'NONE',  ( -9.212231887000916331, 33.22483264434511341, 12.62278464549477519 ) ) ;
#766 = ORIENTED_EDGE ( 'NONE', *, *, #300, .F. ) ;
#767 = CARTESIAN_POINT ( 'NONE',  ( -8.250000000000005329, 33.00000000000000000, -14.28941916244324339 ) ) ;
#768 = CARTESIAN_POINT ( 'NONE',  ( 12.37500000000000533, 22.50000000000000000, 7.144709581221616368 ) ) ;
#769 = CARTESIAN_POINT ( 'NONE',  ( -16.50000000000000000, 23.00000000000000000, 0.000000000000000000 ) ) ;
#770 = ORIENTED_EDGE ( 'NONE', *, *, #906, .T. ) ;
#771 = CONICAL_SURFACE ( 'NONE', #932, 14.50000000000000000, 1.325817663668032331 ) ;
#772 = VECTOR ( 'NONE', #501, 1000.000000000000227 ) ;
#773 = CARTESIAN_POINT ( 'NONE',  ( 16.01948791010084250, 33.12012802247479470, 0.8322713533564440880 ) ) ;
#774 = AXIS2_PLACEMENT_3D ( 'NONE', #1088, #475, #1000 ) ;
#775 = EDGE_LOOP ( 'NONE', ( #613, #688, #1093, #603, #405, #565, #798, #74 ) ) ;
#776 = DIRECTION ( 'NONE',  ( -1.051347561198064342E-16, 0.000000000000000000, 1.000000000000000000 ) ) ;
#777 = DIRECTION ( 'NONE',  ( 7.019334649247439523E-33, -1.000000000000000000, -0.000000000000000000 ) ) ;
#778 = VERTEX_POINT ( 'NONE', #461 ) ;
#779 = CARTESIAN_POINT ( 'NONE',  ( -12.37500000000000711, 33.50000000000000000, -7.144709581221621697 ) ) ;
#780 = ORIENTED_EDGE ( 'NONE', *, *, #23, .T. ) ;
#781 = EDGE_CURVE ( 'NONE', #190, #211, #1065, .T. ) ;
#782 = CARTESIAN_POINT ( 'NONE',  ( -8.250000000000003553, 33.00000000000000000, 14.28941916244324162 ) ) ;
#783 = DIRECTION ( 'NONE',  ( 1.000000000000000000, 0.000000000000000000, 0.000000000000000000 ) ) ;
#784 = DIRECTION ( 'NONE',  ( 0.8660254037844385966, 7.173781753756976930E-33, -0.5000000000000001110 ) ) ;
#785 = ORIENTED_EDGE ( 'NONE', *, *, #52, .F. ) ;
#786 = CARTESIAN_POINT ( 'NONE',  ( -14.50000000000000000, 33.50000000000000000, 0.000000000000000000 ) ) ;
#787 = LINE ( 'NONE', #873, #1038 ) ;
#788 = B_SPLINE_CURVE_WITH_KNOTS ( 'NONE', 3,
 ( #977, #256, #716, #543, #161, #440 ),
 .UNSPECIFIED., .F., .F.,
 ( 4, 2, 4 ),
 ( 0.02228142973992403367, 0.02514843539758462865, 0.02801544105524522016 ),
 .UNSPECIFIED. ) ;
#789 = ORIENTED_EDGE ( 'NONE', *, *, #1061, .T. ) ;
#790 = COORDINATED_UNIVERSAL_TIME_OFFSET ( 8, 0, .AHEAD. ) ;
#791 = VERTEX_POINT ( 'NONE', #626 ) ;
#792 = AXIS2_PLACEMENT_3D ( 'NONE', #594, #600, #692 ) ;
#793 = EDGE_CURVE ( 'NONE', #582, #581, #633, .T. ) ;
#794 = AXIS2_PLACEMENT_3D ( 'NONE', #265, #552, #902 ) ;
#795 = CARTESIAN_POINT ( 'NONE',  ( -5.196152422706629359, 13.99999999999999822, -8.999999999999996447 ) ) ;
#796 = DIRECTION ( 'NONE',  ( 7.019334649247328678E-33, -1.000000000000000000, -0.000000000000000000 ) ) ;
#797 = VERTEX_POINT ( 'NONE', #170 ) ;
#798 = ORIENTED_EDGE ( 'NONE', *, *, #220, .F. ) ;
#799 = EDGE_CURVE ( 'NONE', #422, #988, #645, .T. ) ;
#800 = FACE_OUTER_BOUND ( 'NONE', #193, .T. ) ;
#801 = CARTESIAN_POINT ( 'NONE',  ( 1.477569943666562712E-30, 23.00000000000000000, 0.000000000000000000 ) ) ;
#802 = ORIENTED_EDGE ( 'NONE', *, *, #666, .F. ) ;
#803 = DIRECTION ( 'NONE',  ( 1.000000000000000000, 0.000000000000000000, 1.051347561198064342E-16 ) ) ;
#804 = CARTESIAN_POINT ( 'NONE',  ( 1.481079610991186465E-30, 22.50000000000000000, 0.000000000000000000 ) ) ;
#805 = ADVANCED_FACE ( 'NONE', ( #815, #195 ), #621, .F. ) ;
#806 = APPLICATION_PROTOCOL_DEFINITION ( 'international standard', 'config_control_design', 1994, #596 ) ;
#807 = ORIENTED_EDGE ( 'NONE', *, *, #140, .F. ) ;
#808 = CONICAL_SURFACE ( 'NONE', #299, 16.50000000000000000, 1.325817663668032331 ) ;
#809 = CARTESIAN_POINT ( 'NONE',  ( 12.37500000000000533, 33.50000000000000000, 7.144709581221616368 ) ) ;
#810 = CARTESIAN_POINT ( 'NONE',  ( 5.196152422706625806, 6.420672116997031331, 9.000000000000001776 ) ) ;
#811 = AXIS2_PLACEMENT_3D ( 'NONE', #575, #927, #124 ) ;
#812 = APPROVAL_ROLE ( '' ) ;
#813 = CARTESIAN_POINT ( 'NONE',  ( 8.250000000000000000, 23.00000000000000000, 14.28941916244323806 ) ) ;
#814 = ORIENTED_EDGE ( 'NONE', *, *, #889, .F. ) ;
#815 = FACE_BOUND ( 'NONE', #568, .T. ) ;
#816 = DIRECTION ( 'NONE',  ( 0.4999999999999997780, 0.000000000000000000, -0.8660254037844387076 ) ) ;
#817 = DIRECTION ( 'NONE',  ( 0.8660254037844385966, 0.000000000000000000, -0.5000000000000001110 ) ) ;
#818 = ORIENTED_EDGE ( 'NONE', *, *, #89, .T. ) ;
#819 = EDGE_CURVE ( 'NONE', #1117, #730, #285, .T. ) ;
#820 = CARTESIAN_POINT ( 'NONE',  ( 5.196152422706625806, 6.420672116997031331, 9.000000000000001776 ) ) ;
#821 = FACE_OUTER_BOUND ( 'NONE', #159, .T. ) ;
#822 = DATE_AND_TIME ( #288, #1080 ) ;
#823 = CARTESIAN_POINT ( 'NONE',  ( -2.462214450448992675, 33.50000000000000000, 14.28941916244324339 ) ) ;
#824 = EDGE_LOOP ( 'NONE', ( #842, #958, #62, #125 ) ) ;
#825 = LINE ( 'NONE', #10, #547 ) ;
#826 = DIRECTION ( 'NONE',  ( 7.019334649247328678E-33, -1.000000000000000000, -0.000000000000000000 ) ) ;
#827 = AXIS2_PLACEMENT_3D ( 'NONE', #49, #689, #950 ) ;
#828 = ORIENTED_EDGE ( 'NONE', *, *, #644, .F. ) ;
#829 = VECTOR ( 'NONE', #526, 1000.000000000000000 ) ;
#830 = AXIS2_PLACEMENT_3D ( 'NONE', #1004, #142, #384 ) ;
#831 = VERTEX_POINT ( 'NONE', #200 ) ;
#832 = CARTESIAN_POINT ( 'NONE',  ( 14.08788760506630844, 22.54090505562721347, -4.177901221591795888 ) ) ;
#833 = LINE ( 'NONE', #506, #389 ) ;
#834 = EDGE_LOOP ( 'NONE', ( #478 ) ) ;
#835 = PLANE ( 'NONE',  #441 ) ;
#836 = DIRECTION ( 'NONE',  ( -0.000000000000000000, 0.000000000000000000, -1.000000000000000000 ) ) ;
#837 = CARTESIAN_POINT ( 'NONE',  ( -5.196152422706632024, 6.420672116997031331, 9.000000000000001776 ) ) ;
#838 = EDGE_CURVE ( 'NONE', #1031, #941, #1071, .T. ) ;
#839 = ORIENTED_EDGE ( 'NONE', *, *, #562, .F. ) ;
#840 = EDGE_CURVE ( 'NONE', #751, #831, #825, .T. ) ;
#841 = FACE_OUTER_BOUND ( 'NONE', #155, .T. ) ;
#842 = ORIENTED_EDGE ( 'NONE', *, *, #668, .T. ) ;
#843 = CARTESIAN_POINT ( 'NONE',  ( 8.250000000000001776, -0.001000000000001000089, 14.28941916244324162 ) ) ;
#844 = DIRECTION ( 'NONE',  ( 0.000000000000000000, -0.000000000000000000, -1.000000000000000000 ) ) ;
#845 = VECTOR ( 'NONE', #934, 1000.000000000000114 ) ;
#846 = EDGE_CURVE ( 'NONE', #742, #171, #563, .T. ) ;
#847 = AXIS2_PLACEMENT_3D ( 'NONE', #80, #63, #953 ) ;
#848 = CARTESIAN_POINT ( 'NONE',  ( 11.14389277477549278, 22.49999999999988987, 9.277049844875614681 ) ) ;
#849 = AXIS2_PLACEMENT_3D ( 'NONE', #397, #304, #217 ) ;
#850 = DIRECTION ( 'NONE',  ( 7.019334649247328678E-33, -1.000000000000000000, -0.000000000000000000 ) ) ;
#851 = FACE_OUTER_BOUND ( 'NONE', #1012, .T. ) ;
#852 = ORIENTED_EDGE ( 'NONE', *, *, #1085, .T. ) ;
#853 = FACE_OUTER_BOUND ( 'NONE', #90, .T. ) ;
#854 = EDGE_CURVE ( 'NONE', #252, #252, #1157, .T. ) ;
#855 = LINE ( 'NONE', #409, #966 ) ;
#856 = FACE_OUTER_BOUND ( 'NONE', #775, .T. ) ;
#857 = VERTEX_POINT ( 'NONE', #362 ) ;
#858 = CARTESIAN_POINT ( 'NONE',  ( 15.53776811299908900, 33.22483264434511341, 1.666634516948453548 ) ) ;
#859 = CARTESIAN_POINT ( 'NONE',  ( -2.462214450448980685, 33.50000000000000000, -14.28941916244324339 ) ) ;
#860 = CARTESIAN_POINT ( 'NONE',  ( -11.14389277477551587, 33.50000000000000000, 9.277049844875580931 ) ) ;
#861 = CIRCLE ( 'NONE', #714, 14.50000000000000000 ) ;
#862 = LINE ( 'NONE', #779, #107 ) ;
#863 = AXIS2_PLACEMENT_3D ( 'NONE', #1078, #826, #286 ) ;
#864 = VERTEX_POINT ( 'NONE', #366 ) ;
#865 = VECTOR ( 'NONE', #93, 1000.000000000000000 ) ;
#866 = DIRECTION ( 'NONE',  ( 7.019334649247328678E-33, -1.000000000000000000, -0.000000000000000000 ) ) ;
#867 = CARTESIAN_POINT ( 'NONE',  ( 8.250000000000001776, 33.00000000000000000, 14.28941916244324162 ) ) ;
#868 = ORIENTED_EDGE ( 'NONE', *, *, #431, .F. ) ;
#869 = CARTESIAN_POINT ( 'NONE',  ( 1.540743955509788682E-30, 14.00000000000000000, 0.000000000000000000 ) ) ;
#870 =( LENGTH_UNIT ( ) NAMED_UNIT ( * ) SI_UNIT ( .MILLI., .METRE. ) );
#871 = ORIENTED_EDGE ( 'NONE', *, *, #359, .T. ) ;
#872 = LINE ( 'NONE', #795, #829 ) ;
#873 = CARTESIAN_POINT ( 'NONE',  ( 5.196152422706636465, 6.420672116997031331, -8.999999999999996447 ) ) ;
#874 = EDGE_LOOP ( 'NONE', ( #134, #66, #165, #624, #828, #694 ) ) ;
#875 = EDGE_CURVE ( 'NONE', #422, #1126, #39, .T. ) ;
#876 =( NAMED_UNIT ( * ) SI_UNIT ( $, .STERADIAN. ) SOLID_ANGLE_UNIT ( ) );
#877 = ORIENTED_EDGE ( 'NONE', *, *, #1061, .F. ) ;
#878 = ADVANCED_FACE ( 'NONE', ( #275, #721 ), #1082, .F. ) ;
#879 = DIRECTION ( 'NONE',  ( 7.019334649247328678E-33, -1.000000000000000000, -0.000000000000000000 ) ) ;
#880 = FACE_OUTER_BOUND ( 'NONE', #347, .T. ) ;
#881 = CARTESIAN_POINT ( 'NONE',  ( 10.00000000000000000, 22.50000000000000000, 0.000000000000000000 ) ) ;
#882 = EDGE_LOOP ( 'NONE', ( #560 ) ) ;
#883 = AXIS2_PLACEMENT_3D ( 'NONE', #6, #886, #627 ) ;
#884 = VECTOR ( 'NONE', #496, 1000.000000000000114 ) ;
#885 = CARTESIAN_POINT ( 'NONE',  ( -5.196152422706629359, 6.420672116997031331, -8.999999999999996447 ) ) ;
#886 = DIRECTION ( 'NONE',  ( 7.019334649247328678E-33, -1.000000000000000000, -0.000000000000000000 ) ) ;
#887 = APPROVAL_PERSON_ORGANIZATION ( #181, #337, #993 ) ;
#888 = VERTEX_POINT ( 'NONE', #84 ) ;
#889 = EDGE_CURVE ( 'NONE', #831, #1064, #583, .T. ) ;
#890 = CARTESIAN_POINT ( 'NONE',  ( -6.326883514896850080, 33.24038956063789385, 14.28941916244324162 ) ) ;
#891 = EDGE_CURVE ( 'NONE', #202, #274, #435, .T. ) ;
#892 = CARTESIAN_POINT ( 'NONE',  ( 5.196152422706636465, 6.420672116997031331, -8.999999999999996447 ) ) ;
#893 = ORIENTED_EDGE ( 'NONE', *, *, #793, .T. ) ;
#894 = ADVANCED_BREP_SHAPE_REPRESENTATION ( '00091_index_4', ( #652, #187 ), #601 ) ;
#895 = CARTESIAN_POINT ( 'NONE',  ( -10.00000000000000000, 233.5000000000000000, 0.000000000000000000 ) ) ;
#896 = DIRECTION ( 'NONE',  ( -7.019334649247328678E-33, 1.000000000000000000, 0.000000000000000000 ) ) ;
#897 = DATE_AND_TIME ( #7, #570 ) ;
#898 = DIRECTION ( 'NONE',  ( -0.8660254037844387076, 0.000000000000000000, -0.4999999999999999445 ) ) ;
#899 = ORIENTED_EDGE ( 'NONE', *, *, #1105, .F. ) ;
#900 = EDGE_CURVE ( 'NONE', #864, #1112, #551, .T. ) ;
#901 = DIRECTION ( 'NONE',  ( 7.019334649247328678E-33, -1.000000000000000000, -0.000000000000000000 ) ) ;
#902 = DIRECTION ( 'NONE',  ( -1.000000000000000000, 0.000000000000000000, 0.000000000000000000 ) ) ;
#903 = AXIS2_PLACEMENT_3D ( 'NONE', #5, #976, #917 ) ;
#904 = CARTESIAN_POINT ( 'NONE',  ( -10.39230484541326760, 13.99999999999999822, 8.673617379884035472E-16 ) ) ;
#905 = ORIENTED_EDGE ( 'NONE', *, *, #544, .F. ) ;
#906 = EDGE_CURVE ( 'NONE', #494, #1096, #1156, .T. ) ;
#907 = DIRECTION ( 'NONE',  ( -0.000000000000000000, 1.000000000000000000, -0.000000000000000000 ) ) ;
#908 = CARTESIAN_POINT ( 'NONE',  ( 1.484589278315810042E-30, 22.00000000000000000, 0.000000000000000000 ) ) ;
#909 = ORIENTED_EDGE ( 'NONE', *, *, #891, .T. ) ;
#910 = PERSON_AND_ORGANIZATION ( #758, #428 ) ;
#911 = CARTESIAN_POINT ( 'NONE',  ( 11.14389277477550699, 33.50000000000000000, 9.277049844875595142 ) ) ;
#912 = ADVANCED_FACE ( 'NONE', ( #1152 ), #536, .F. ) ;
#913 = ORIENTED_EDGE ( 'NONE', *, *, #1085, .F. ) ;
#914 = CARTESIAN_POINT ( 'NONE',  ( -5.196152422706629359, 6.420672116997031331, -8.999999999999996447 ) ) ;
#915 = DIRECTION ( 'NONE',  ( 1.000000000000000000, 0.000000000000000000, 0.000000000000000000 ) ) ;
#916 = ORIENTED_EDGE ( 'NONE', *, *, #459, .T. ) ;
#917 = DIRECTION ( 'NONE',  ( -1.000000000000000000, -7.019334649247328678E-33, 0.000000000000000000 ) ) ;
#918 = CARTESIAN_POINT ( 'NONE',  ( 8.249999999999994671, 33.00000000000000000, -14.28941916244324339 ) ) ;
#919 = AXIS2_PLACEMENT_3D ( 'NONE', #143, #245, #605 ) ;
#920 = ORIENTED_EDGE ( 'NONE', *, *, #130, .F. ) ;
#921 = DIRECTION ( 'NONE',  ( 1.000000000000000000, 0.000000000000000000, 0.000000000000000000 ) ) ;
#922 = EDGE_CURVE ( 'NONE', #1139, #1139, #984, .T. ) ;
#923 = CARTESIAN_POINT ( 'NONE',  ( -13.60610722522449301, 33.50000000000000000, -5.012369317567679339 ) ) ;
#924 = ADVANCED_FACE ( 'NONE', ( #841 ), #750, .F. ) ;
#925 = ADVANCED_FACE ( 'NONE', ( #206 ), #937, .T. ) ;
#926 = ORIENTED_EDGE ( 'NONE', *, *, #343, .F. ) ;
#927 = DIRECTION ( 'NONE',  ( 7.019334649247328678E-33, -1.000000000000000000, -0.000000000000000000 ) ) ;
#928 = EDGE_LOOP ( 'NONE', ( #620, #429, #434, #342 ) ) ;
#929 = CARTESIAN_POINT ( 'NONE',  ( 2.462214450449001557, 22.50000000000000000, 14.28941916244324162 ) ) ;
#930 = FACE_OUTER_BOUND ( 'NONE', #102, .T. ) ;
#931 = ORIENTED_EDGE ( 'NONE', *, *, #644, .T. ) ;
#932 = AXIS2_PLACEMENT_3D ( 'NONE', #144, #504, #1124 ) ;
#933 = CARTESIAN_POINT ( 'NONE',  ( -13.60610722522449301, 33.50000000000000000, -5.012369317567679339 ) ) ;
#934 = DIRECTION ( 'NONE',  ( 0.5000000000000004441, 0.000000000000000000, -0.8660254037844383745 ) ) ;
#935 = AXIS2_PLACEMENT_3D ( 'NONE', #152, #589, #687 ) ;
#936 = LINE ( 'NONE', #578, #672 ) ;
#937 = CONICAL_SURFACE ( 'NONE', #774, 14.50000000000000000, 1.325817663668032331 ) ;
#938 = EDGE_CURVE ( 'NONE', #456, #582, #247, .T. ) ;
#939 = CARTESIAN_POINT ( 'NONE',  ( 2.462214450449001557, 22.50000000000000000, 14.28941916244324162 ) ) ;
#940 = FACE_BOUND ( 'NONE', #945, .T. ) ;
#941 = VERTEX_POINT ( 'NONE', #658 ) ;
#942 = DIRECTION ( 'NONE',  ( -0.000000000000000000, 0.000000000000000000, 1.000000000000000000 ) ) ;
#943 = CARTESIAN_POINT ( 'NONE',  ( 12.37499999999999822, 33.50000000000000000, -7.144709581221619921 ) ) ;
#944 = CARTESIAN_POINT ( 'NONE',  ( -5.196152422706632024, 6.420672116997031331, 9.000000000000001776 ) ) ;
#945 = EDGE_LOOP ( 'NONE', ( #123 ) ) ;
#946 = ORIENTED_EDGE ( 'NONE', *, *, #52, .T. ) ;
#947 = CARTESIAN_POINT ( 'NONE',  ( 16.50000000000000000, 23.00000000000000000, 0.000000000000000000 ) ) ;
#948 = FACE_OUTER_BOUND ( 'NONE', #326, .T. ) ;
#949 = ORIENTED_EDGE ( 'NONE', *, *, #875, .F. ) ;
#950 = DIRECTION ( 'NONE',  ( 1.000000000000000000, 0.000000000000000000, 0.000000000000000000 ) ) ;
#951 = CONICAL_SURFACE ( 'NONE', #238, 16.50000000000000000, 1.065506138695502036 ) ;
#952 = VERTEX_POINT ( 'NONE', #24 ) ;
#953 = DIRECTION ( 'NONE',  ( 1.000000000000000000, 0.000000000000000000, 0.000000000000000000 ) ) ;
#954 = CYLINDRICAL_SURFACE ( 'NONE', #935, 40.00000000000000000 ) ;
#955 = PRODUCT ( '00091_index_4', '00091_index_4', '', ( #973 ) ) ;
#956 = ADVANCED_FACE ( 'NONE', ( #1008, #759 ), #210, .F. ) ;
#957 = PERSON_AND_ORGANIZATION ( #758, #428 ) ;
#958 = ORIENTED_EDGE ( 'NONE', *, *, #302, .F. ) ;
#959 = FACE_OUTER_BOUND ( 'NONE', #199, .T. ) ;
#960 = CARTESIAN_POINT ( 'NONE',  ( -6.326883514896850969, 22.75961043936210615, -14.28941916244324339 ) ) ;
#961 = ORIENTED_EDGE ( 'NONE', *, *, #632, .F. ) ;
#962 = LINE ( 'NONE', #69, #31 ) ;
#963 = CARTESIAN_POINT ( 'NONE',  ( 11.14389277477548923, 33.50000000000000000, -9.277049844875611129 ) ) ;
#964 = ORIENTED_EDGE ( 'NONE', *, *, #682, .T. ) ;
#965 = AXIS2_PLACEMENT_3D ( 'NONE', #704, #776, #708 ) ;
#966 = VECTOR ( 'NONE', #46, 1000.000000000000000 ) ;
#967 = DIRECTION ( 'NONE',  ( 7.019334649247328678E-33, -1.000000000000000000, -0.000000000000000000 ) ) ;
#968 = FACE_OUTER_BOUND ( 'NONE', #333, .T. ) ;
#969 = VERTEX_POINT ( 'NONE', #72 ) ;
#970 = ORIENTED_EDGE ( 'NONE', *, *, #799, .F. ) ;
#971 = CARTESIAN_POINT ( 'NONE',  ( -13.60610722522449834, 22.50000000000000000, -5.012369317567670457 ) ) ;
#972 = CARTESIAN_POINT ( 'NONE',  ( -15.53878301056906075, 33.24030424735773437, 1.664876662792799777 ) ) ;
#973 = MECHANICAL_CONTEXT ( 'NONE', #538, 'mechanical' ) ;
#974 = PLANE ( 'NONE',  #87 ) ;
#975 = ORIENTED_EDGE ( 'NONE', *, *, #260, .T. ) ;
#976 = DIRECTION ( 'NONE',  ( -7.019334649247328678E-33, 1.000000000000000000, 0.000000000000000000 ) ) ;
#977 = CARTESIAN_POINT ( 'NONE',  ( -11.14389277477550699, 22.49999999999988987, -9.277049844875600471 ) ) ;
#978 = LINE ( 'NONE', #183, #1138 ) ;
#979 = EDGE_LOOP ( 'NONE', ( #145, #1069, #19, #108, #877, #785, #899, #310 ) ) ;
#980 = AXIS2_PLACEMENT_3D ( 'NONE', #1063, #1107, #844 ) ;
#981 = AXIS2_PLACEMENT_3D ( 'NONE', #990, #16, #915 ) ;
#982 = CARTESIAN_POINT ( 'NONE',  ( 1.540743955509788682E-30, 13.99999999999999822, 0.000000000000000000 ) ) ;
#983 = PLANE ( 'NONE',  #525 ) ;
#984 = CIRCLE ( 'NONE', #355, 10.00000000000000000 ) ;
#985 = EDGE_CURVE ( 'NONE', #82, #82, #284, .T. ) ;
#986 = CALENDAR_DATE ( 2022, 7, 11 ) ;
#987 = DIRECTION ( 'NONE',  ( 7.019334649247328678E-33, -1.000000000000000000, -0.000000000000000000 ) ) ;
#988 = VERTEX_POINT ( 'NONE', #391 ) ;
#989 = DIRECTION ( 'NONE',  ( -7.019334649247328678E-33, 1.000000000000000000, 0.000000000000000000 ) ) ;
#990 = CARTESIAN_POINT ( 'NONE',  ( 1.403866929849465659E-30, 33.50000000000000000, 0.000000000000000000 ) ) ;
#991 = ORIENTED_EDGE ( 'NONE', *, *, #487, .T. ) ;
#992 = EDGE_CURVE ( 'NONE', #831, #712, #121, .T. ) ;
#993 = APPROVAL_ROLE ( '' ) ;
#994 = ORIENTED_EDGE ( 'NONE', *, *, #1145, .F. ) ;
#995 = DIRECTION ( 'NONE',  ( -1.000000000000000000, -7.019334649247328678E-33, 0.000000000000000000 ) ) ;
#996 = CARTESIAN_POINT ( 'NONE',  ( 10.39230484541326582, 6.420672116997031331, -3.511573307202413051E-15 ) ) ;
#997 = EDGE_LOOP ( 'NONE', ( #13 ) ) ;
#998 = VERTEX_POINT ( 'NONE', #1098 ) ;
#999 = EDGE_CURVE ( 'NONE', #797, #797, #1079, .T. ) ;
#1000 = DIRECTION ( 'NONE',  ( 1.000000000000000000, 0.000000000000000000, 0.000000000000000000 ) ) ;
#1001 = AXIS2_PLACEMENT_3D ( 'NONE', #869, #60, #415 ) ;
#1002 = EDGE_LOOP ( 'NONE', ( #97, #541, #253 ) ) ;
#1003 = EDGE_CURVE ( 'NONE', #171, #651, #579, .T. ) ;
#1004 = CARTESIAN_POINT ( 'NONE',  ( 1.403866929849465659E-30, 33.50000000000000000, 0.000000000000000000 ) ) ;
#1005 = VECTOR ( 'NONE', #15, 1000.000000000000114 ) ;
#1006 = LOCAL_TIME ( 23, 54, 17.00000000000000000, #648 ) ;
#1007 = CARTESIAN_POINT ( 'NONE',  ( -12.37500000000000355, -0.001000000000001000089, 7.144709581221623473 ) ) ;
#1008 = FACE_OUTER_BOUND ( 'NONE', #680, .T. ) ;
#1009 = ORIENTED_EDGE ( 'NONE', *, *, #838, .F. ) ;
#1010 = DIRECTION ( 'NONE',  ( -7.019334649247328678E-33, 1.000000000000000000, 0.000000000000000000 ) ) ;
#1011 = CARTESIAN_POINT ( 'NONE',  ( 8.250000000000001776, 33.00000000000000000, 14.28941916244324162 ) ) ;
#1012 = EDGE_LOOP ( 'NONE', ( #1120, #498, #991, #535, #1029, #178 ) ) ;
#1013 = CARTESIAN_POINT ( 'NONE',  ( 16.50000000000000000, 23.00000000000000000, 0.000000000000000000 ) ) ;
#1014 = LINE ( 'NONE', #309, #566 ) ;
#1015 = EDGE_CURVE ( 'NONE', #659, #422, #271, .T. ) ;
#1016 = ORIENTED_EDGE ( 'NONE', *, *, #1032, .T. ) ;
#1017 = CARTESIAN_POINT ( 'NONE',  ( 5.196152422706625806, 6.420672116997031331, 9.000000000000001776 ) ) ;
#1018 = PLANE ( 'NONE',  #235 ) ;
#1019 = VECTOR ( 'NONE', #705, 1000.000000000000000 ) ;
#1020 = ORIENTED_EDGE ( 'NONE', *, *, #592, .T. ) ;
#1021 = EDGE_LOOP ( 'NONE', ( #469, #1009, #868, #964 ) ) ;
#1022 = CARTESIAN_POINT ( 'NONE',  ( -6.326940112890318879, 22.75961751411128731, 14.28941916244324162 ) ) ;
#1023 = CARTESIAN_POINT ( 'NONE',  ( 10.39230484541326582, 6.420672116997031331, -3.511573307202413051E-15 ) ) ;
#1024 = VERTEX_POINT ( 'NONE', #933 ) ;
#1025 = CARTESIAN_POINT ( 'NONE',  ( -12.37500000000000355, 33.50000000000000000, 7.144709581221623473 ) ) ;
#1026 = VERTEX_POINT ( 'NONE', #491 ) ;
#1027 = CARTESIAN_POINT ( 'NONE',  ( -8.250000000000005329, -0.001000000000001000089, -14.28941916244324339 ) ) ;
#1028 = CARTESIAN_POINT ( 'NONE',  ( -16.01948791010085671, 22.87987197752521240, 0.8322713533564402022 ) ) ;
#1029 = ORIENTED_EDGE ( 'NONE', *, *, #214, .T. ) ;
#1030 = FACE_OUTER_BOUND ( 'NONE', #229, .T. ) ;
#1031 = VERTEX_POINT ( 'NONE', #1017 ) ;
#1032 = EDGE_CURVE ( 'NONE', #427, #427, #756, .T. ) ;
#1033 = CARTESIAN_POINT ( 'NONE',  ( -16.50000000000000711, 33.00000000000000000, 0.000000000000000000 ) ) ;
#1034 = ADVANCED_FACE ( 'NONE', ( #588 ), #489, .T. ) ;
#1035 = CARTESIAN_POINT ( 'NONE',  ( -11.14389277477552831, 33.50000000000000000, -9.277049844875568496 ) ) ;
#1036 = ORIENTED_EDGE ( 'NONE', *, *, #1015, .T. ) ;
#1037 = AXIS2_PLACEMENT_3D ( 'NONE', #499, #411, #327 ) ;
#1038 = VECTOR ( 'NONE', #670, 1000.000000000000000 ) ;
#1039 = CALENDAR_DATE ( 2022, 7, 11 ) ;
#1040 = AXIS2_PLACEMENT_3D ( 'NONE', #786, #879, #519 ) ;
#1041 = ORIENTED_EDGE ( 'NONE', *, *, #172, .T. ) ;
#1042 = VECTOR ( 'NONE', #686, 1000.000000000000000 ) ;
#1043 = FACE_BOUND ( 'NONE', #674, .T. ) ;
#1044 = DIRECTION ( 'NONE',  ( -1.000000000000000000, 0.000000000000000000, 0.000000000000000000 ) ) ;
#1045 = EDGE_LOOP ( 'NONE', ( #655, #45, #871 ) ) ;
#1046 = ADVANCED_FACE ( 'NONE', ( #660 ), #572, .F. ) ;
#1047 = EDGE_LOOP ( 'NONE', ( #647, #1020, #328 ) ) ;
#1048 = CARTESIAN_POINT ( 'NONE',  ( 5.196152422706636465, 13.99999999999999822, -8.999999999999996447 ) ) ;
#1049 = FACE_OUTER_BOUND ( 'NONE', #377, .T. ) ;
#1050 = EDGE_CURVE ( 'NONE', #1084, #659, #131, .T. ) ;
#1051 = VERTEX_POINT ( 'NONE', #837 ) ;
#1052 = B_SPLINE_CURVE_WITH_KNOTS ( 'NONE', 3,
 ( #860, #1115, #325, #765, #1135, #64 ),
 .UNSPECIFIED., .F., .F.,
 ( 4, 2, 4 ),
 ( 0.02228142973992398856, 0.02514843539758460089, 0.02801544105524521322 ),
 .UNSPECIFIED. ) ;
#1053 = CARTESIAN_POINT ( 'NONE',  ( 10.39230484541326582, 6.420672116997031331, -3.511573307202413051E-15 ) ) ;
#1054 = DIRECTION ( 'NONE',  ( 0.8660254037844388186, 0.000000000000000000, 0.4999999999999998335 ) ) ;
#1055 = APPROVAL_STATUS ( 'not_yet_approved' ) ;
#1056 = AXIS2_PLACEMENT_3D ( 'NONE', #1099, #484, #132 ) ;
#1057 = ORIENTED_EDGE ( 'NONE', *, *, #244, .F. ) ;
#1058 = AXIS2_PLACEMENT_3D ( 'NONE', #996, #201, #564 ) ;
#1059 = CARTESIAN_POINT ( 'NONE',  ( -15.53878301056905720, 22.75969575264226563, -1.664876662792801776 ) ) ;
#1060 = CARTESIAN_POINT ( 'NONE',  ( 2.462214450448981129, 33.50000000000000000, -14.28941916244324695 ) ) ;
#1061 = EDGE_CURVE ( 'NONE', #118, #106, #40, .T. ) ;
#1062 = DIRECTION ( 'NONE',  ( 0.000000000000000000, 0.000000000000000000, 1.000000000000000000 ) ) ;
#1063 = CARTESIAN_POINT ( 'NONE',  ( 10.39230484541326405, 6.420672116997031331, -1.629050626169184751E-15 ) ) ;
#1064 = VERTEX_POINT ( 'NONE', #664 ) ;
#1065 = LINE ( 'NONE', #542, #259 ) ;
#1066 = CARTESIAN_POINT ( 'NONE',  ( 12.37500000000000533, -0.001000000000001000089, 7.144709581221616368 ) ) ;
#1067 = B_SPLINE_CURVE_WITH_KNOTS ( 'NONE', 3,
 ( #1159, #425, #448, #94 ),
 .UNSPECIFIED., .F., .F.,
 ( 4, 4 ),
 ( 0.01156880623885718495, 0.01737803417017348348 ),
 .UNSPECIFIED. ) ;
#1068 = FACE_OUTER_BOUND ( 'NONE', #224, .T. ) ;
#1069 = ORIENTED_EDGE ( 'NONE', *, *, #95, .F. ) ;
#1070 = EDGE_CURVE ( 'NONE', #864, #38, #223, .T. ) ;
#1071 = LINE ( 'NONE', #820, #318 ) ;
#1072 = CARTESIAN_POINT ( 'NONE',  ( 10.66211239493370933, 33.45909494437278653, -10.11151794085140843 ) ) ;
#1073 = ADVANCED_FACE ( 'NONE', ( #122 ), #164, .T. ) ;
#1074 = CARTESIAN_POINT ( 'NONE',  ( 1.639014640599251303E-30, -1.734723475976807094E-15, 0.000000000000000000 ) ) ;
#1075 = EDGE_LOOP ( 'NONE', ( #1087 ) ) ;
#1076 = CONICAL_SURFACE ( 'NONE', #335, 31.50000000000000000, 0.8960553845713440380 ) ;
#1077 = CARTESIAN_POINT ( 'NONE',  ( -10.17534740857385422, 22.58223332401990291, 10.95461962857225657 ) ) ;
#1078 = CARTESIAN_POINT ( 'NONE',  ( 1.403866929849465659E-30, 33.50000000000000000, 0.000000000000000000 ) ) ;
#1079 = CIRCLE ( 'NONE', #849, 40.00000000000000000 ) ;
#1080 = LOCAL_TIME ( 23, 54, 17.00000000000000000, #443 ) ;
#1081 = EDGE_LOOP ( 'NONE', ( #770, #399, #975 ) ) ;
#1082 = PLANE ( 'NONE',  #903 ) ;
#1083 = CARTESIAN_POINT ( 'NONE',  ( 8.249999999999992895, 23.00000000000000000, -14.28941916244323984 ) ) ;
#1084 = VERTEX_POINT ( 'NONE', #929 ) ;
#1085 = EDGE_CURVE ( 'NONE', #1024, #684, #73, .T. ) ;
#1086 = EDGE_CURVE ( 'NONE', #118, #1084, #479, .T. ) ;
#1087 = ORIENTED_EDGE ( 'NONE', *, *, #985, .T. ) ;
#1088 = CARTESIAN_POINT ( 'NONE',  ( 1.403866929849465659E-30, 33.50000000000000000, 0.000000000000000000 ) ) ;
#1089 = CARTESIAN_POINT ( 'NONE',  ( 8.730512089899152173, 33.12012802247479470, -13.45714780908680730 ) ) ;
#1090 = ORIENTED_EDGE ( 'NONE', *, *, #416, .F. ) ;
#1091 = CARTESIAN_POINT ( 'NONE',  ( 5.196152422706636465, 6.420672116997031331, -8.999999999999996447 ) ) ;
#1092 = PERSON_AND_ORGANIZATION_ROLE ( 'classification_officer' ) ;
#1093 = ORIENTED_EDGE ( 'NONE', *, *, #900, .F. ) ;
#1094 = DIRECTION ( 'NONE',  ( -1.000000000000000000, 0.000000000000000000, 0.000000000000000000 ) ) ;
#1095 = AXIS2_PLACEMENT_3D ( 'NONE', #492, #192, #548 ) ;
#1096 = VERTEX_POINT ( 'NONE', #137 ) ;
#1097 = CIRCLE ( 'NONE', #863, 14.50000000000000000 ) ;
#1098 = CARTESIAN_POINT ( 'NONE',  ( 16.50000000000000000, 33.00000000000000000, 0.000000000000000000 ) ) ;
#1099 = CARTESIAN_POINT ( 'NONE',  ( 1.639014640599251303E-30, 0.000000000000000000, 0.000000000000000000 ) ) ;
#1100 = VECTOR ( 'NONE', #639, 1000.000000000000000 ) ;
#1101 = CIRCLE ( 'NONE', #241, 10.00000000000000178 ) ;
#1102 = ORIENTED_EDGE ( 'NONE', *, *, #76, .F. ) ;
#1103 = CARTESIAN_POINT ( 'NONE',  ( 13.60610722522452498, 22.49999999999988987, -5.012369317567599403 ) ) ;
#1104 = EDGE_LOOP ( 'NONE', ( #994 ) ) ;
#1105 = EDGE_CURVE ( 'NONE', #1064, #446, #393, .T. ) ;
#1106 = DIRECTION ( 'NONE',  ( 1.000000000000000000, 0.000000000000000000, 0.000000000000000000 ) ) ;
#1107 = DIRECTION ( 'NONE',  ( 0.000000000000000000, -1.000000000000000000, 0.000000000000000000 ) ) ;
#1108 = CARTESIAN_POINT ( 'NONE',  ( 10.66211239493370755, 22.54090505562721347, 10.11151794085141731 ) ) ;
#1109 = EDGE_CURVE ( 'NONE', #1126, #17, #855, .T. ) ;
#1110 = CARTESIAN_POINT ( 'NONE',  ( -15.53776811299908367, 33.22483264434511341, -1.666634516948466871 ) ) ;
#1111 = DIRECTION ( 'NONE',  ( -0.000000000000000000, 0.000000000000000000, -1.000000000000000000 ) ) ;
#1112 = VERTEX_POINT ( 'NONE', #859 ) ;
#1113 = CIRCLE ( 'NONE', #1095, 14.50000000000000000 ) ;
#1114 = CARTESIAN_POINT ( 'NONE',  ( -5.196152422706629359, 6.420672116997031331, -8.999999999999996447 ) ) ;
#1115 = CARTESIAN_POINT ( 'NONE',  ( -10.66211239493372886, 33.45909494437278653, 10.11151794085138356 ) ) ;
#1116 = CIRCLE ( 'NONE', #185, 9.999999999999998224 ) ;
#1117 = VERTEX_POINT ( 'NONE', #319 ) ;
#1118 = CIRCLE ( 'NONE', #617, 14.50000000000000000 ) ;
#1119 = LINE ( 'NONE', #1025, #486 ) ;
#1120 = ORIENTED_EDGE ( 'NONE', *, *, #1003, .T. ) ;
#1121 = CARTESIAN_POINT ( 'NONE',  ( 1.484589278315810042E-30, 22.00000000000000000, 0.000000000000000000 ) ) ;
#1122 = DIRECTION ( 'NONE',  ( -0.5000000000000001110, 0.000000000000000000, -0.8660254037844385966 ) ) ;
#1123 = ORIENTED_EDGE ( 'NONE', *, *, #840, .T. ) ;
#1124 = DIRECTION ( 'NONE',  ( 1.000000000000000000, 0.000000000000000000, 0.000000000000000000 ) ) ;
#1125 = EDGE_CURVE ( 'NONE', #361, #1112, #1118, .T. ) ;
#1126 = VERTEX_POINT ( 'NONE', #158 ) ;
#1127 = CC_DESIGN_PERSON_AND_ORGANIZATION_ASSIGNMENT ( #957, #629, ( #628 ) ) ;
#1128 = DIRECTION ( 'NONE',  ( 1.000000000000000000, 0.000000000000000000, 0.000000000000000000 ) ) ;
#1129 = DIRECTION ( 'NONE',  ( 0.4999999999999999445, 3.509667324623664339E-33, -0.8660254037844387076 ) ) ;
#1130 = EDGE_LOOP ( 'NONE', ( #663 ) ) ;
#1131 = PLANE ( 'NONE',  #752 ) ;
#1132 = DIRECTION ( 'NONE',  ( 7.019334649247328678E-33, -1.000000000000000000, -0.000000000000000000 ) ) ;
#1133 = ORIENTED_EDGE ( 'NONE', *, *, #592, .F. ) ;
#1134 = LINE ( 'NONE', #1143, #317 ) ;
#1135 = CARTESIAN_POINT ( 'NONE',  ( -8.730512089899164607, 33.12012802247479470, 13.45714780908679664 ) ) ;
#1136 = EDGE_CURVE ( 'NONE', #719, #412, #437, .T. ) ;
#1137 = ORIENTED_EDGE ( 'NONE', *, *, #176, .F. ) ;
#1138 = VECTOR ( 'NONE', #96, 1000.000000000000000 ) ;
#1139 = VERTEX_POINT ( 'NONE', #881 ) ;
#1140 = ORIENTED_EDGE ( 'NONE', *, *, #1086, .T. ) ;
#1141 = CONICAL_SURFACE ( 'NONE', #92, 14.50000000000000000, 1.325817663668032331 ) ;
#1142 = SECURITY_CLASSIFICATION ( '', '', #449 ) ;
#1143 = CARTESIAN_POINT ( 'NONE',  ( 10.39230484541326582, 6.420672116997031331, -3.511573307202413051E-15 ) ) ;
#1144 = CARTESIAN_POINT ( 'NONE',  ( 2.462214450448991343, 22.50000000000000000, -14.28941916244324339 ) ) ;
#1145 = EDGE_CURVE ( 'NONE', #612, #612, #1101, .T. ) ;
#1146 = B_SPLINE_CURVE_WITH_KNOTS ( 'NONE', 3,
 ( #634, #189, #251, #610 ),
 .UNSPECIFIED., .F., .F.,
 ( 4, 4 ),
 ( 0.02072437847717392354, 0.02646359583215669373 ),
 .UNSPECIFIED. ) ;
#1147 = CARTESIAN_POINT ( 'NONE',  ( 7.019334649247835007E-33, 232.4999999999999432, 0.000000000000000000 ) ) ;
#1148 = ORIENTED_EDGE ( 'NONE', *, *, #999, .T. ) ;
#1149 = PLANE ( 'NONE',  #965 ) ;
#1150 = DIRECTION ( 'NONE',  ( 0.5000000000000001110, 0.000000000000000000, 0.8660254037844385966 ) ) ;
#1151 = EDGE_LOOP ( 'NONE', ( #1137 ) ) ;
#1152 = FACE_OUTER_BOUND ( 'NONE', #9, .T. ) ;
#1153 = PLANE ( 'NONE',  #654 ) ;
#1154 = CARTESIAN_POINT ( 'NONE',  ( 40.00000000000000000, -1.734723475976806897E-15, 0.000000000000000000 ) ) ;
#1155 = ORIENTED_EDGE ( 'NONE', *, *, #487, .F. ) ;
#1156 = B_SPLINE_CURVE_WITH_KNOTS ( 'NONE', 3,
 ( #352, #1059, #264, #971 ),
 .UNSPECIFIED., .F., .F.,
 ( 4, 4 ),
 ( 0.01156880623885718322, 0.01737803417017353205 ),
 .UNSPECIFIED. ) ;
#1157 = CIRCLE ( 'NONE', #656, 14.00000000000000000 ) ;
#1158 = DIRECTION ( 'NONE',  ( -1.000000000000000000, -7.019334649247328678E-33, 0.000000000000000000 ) ) ;
#1159 = CARTESIAN_POINT ( 'NONE',  ( 8.249999999999992895, 23.00000000000000000, -14.28941916244323984 ) ) ;
ENDSEC;
END-ISO-10303-21;
