ISO-10303-21;
HEADER;
FILE_DESCRIPTION (( 'STEP AP203' ),
    '1' );
FILE_NAME ('00093_index_3.step',
    '2022-11-07T15:55:02',
    ( '' ),
    ( '' ),
    'SwSTEP 2.0',
    'SolidWorks 2020',
    '' );
FILE_SCHEMA (( 'CONFIG_CONTROL_DESIGN' ));
ENDSEC;

DATA;
#1 = AXIS2_PLACEMENT_3D ( 'NONE', #165, #421, #63 ) ;
#2 = ORIENTED_EDGE ( 'NONE', *, *, #336, .T. ) ;
#3 = CARTESIAN_POINT ( 'NONE',  ( -0.4148835743011147770, -0.06978779115974383107, -0.1188616963977537772 ) ) ;
#4 = VERTEX_POINT ( 'NONE', #139 ) ;
#5 = ADVANCED_FACE ( 'NONE', ( #43, #253 ), #231, .T. ) ;
#6 = VERTEX_POINT ( 'NONE', #51 ) ;
#7 = AXIS2_PLACEMENT_3D ( 'NONE', #197, #342, #376 ) ;
#8 = FACE_BOUND ( 'NONE', #443, .T. ) ;
#9 = CARTESIAN_POINT ( 'NONE',  ( -0.4547403465907901565, -0.005223760059916806794, -0.1378046101747017194 ) ) ;
#10 = FACE_OUTER_BOUND ( 'NONE', #247, .T. ) ;
#11 = CARTESIAN_POINT ( 'NONE',  ( 0.3376863384197755780, -0.07226113263440345214, -0.1173532866918413353 ) ) ;
#12 = DIRECTION ( 'NONE',  ( -1.000000000000000000, 0.000000000000000000, 0.000000000000000000 ) ) ;
#13 = CARTESIAN_POINT ( 'NONE',  ( 0.2959355970888212228, -0.02112465633843085139, -0.1362696518085262098 ) ) ;
#14 = CIRCLE ( 'NONE', #1, 0.1181102362204724116 ) ;
#15 = LOCAL_TIME ( 23, 55, 2.000000000000000000, #146 ) ;
#16 = CARTESIAN_POINT ( 'NONE',  ( 0.3376863384197755225, 0.07226113263440367418, 0.1173532866918412104 ) ) ;
#17 = CARTESIAN_POINT ( 'NONE',  ( 0.4233316170358444874, -0.06409881384300840368, -0.1220238017736112041 ) ) ;
#18 = PERSON_AND_ORGANIZATION ( #201, #168 ) ;
#19 = CARTESIAN_POINT ( 'NONE',  ( 0.3043131006806522598, 0.04101468938471659886, -0.1316278727767104806 ) ) ;
#20 = DIRECTION ( 'NONE',  ( -0.000000000000000000, -0.000000000000000000, 1.000000000000000000 ) ) ;
#21 = CARTESIAN_POINT ( 'NONE',  ( -0.3332289579998813922, 0.06983576790740204931, -0.1188335302694279866 ) ) ;
#22 = CALENDAR_DATE ( 2022, 7, 11 ) ;
#23 = CARTESIAN_POINT ( 'NONE',  ( 0.3333641087942757486, 0.06991580952286585715, -0.1187865597680710233 ) ) ;
#24 = AXIS2_PLACEMENT_3D ( 'NONE', #392, #390, #354 ) ;
#25 = CARTESIAN_POINT ( 'NONE',  ( 0.3207829372065679752, 0.06088299760392562598, -0.1236800803589792885 ) ) ;
#26 = PERSON_AND_ORGANIZATION ( #201, #168 ) ;
#27 = CARTESIAN_POINT ( 'NONE',  ( 0.4504315466632228260, 0.02650316622911131487, -0.1353148307961224706 ) ) ;
#28 = EDGE_CURVE ( 'NONE', #181, #181, #445, .T. ) ;
#29 = CARTESIAN_POINT ( 'NONE',  ( 0.2938242966379230880, 0.01058736039057631313, 0.1374902793269175971 ) ) ;
#30 = EDGE_LOOP ( 'NONE', ( #213 ) ) ;
#31 = AXIS2_PLACEMENT_3D ( 'NONE', #195, #183, #109 ) ;
#32 = CARTESIAN_POINT ( 'NONE',  ( -0.3246998790271478641, 0.06409881384300847307, 0.1220238017736111208 ) ) ;
#33 = ORIENTED_EDGE ( 'NONE', *, *, #403, .F. ) ;
#34 = CARTESIAN_POINT ( 'NONE',  ( -0.4437183953823398697, -0.04101468938471641845, 0.1316278727767105639 ) ) ;
#35 =( GEOMETRIC_REPRESENTATION_CONTEXT ( 3 ) GLOBAL_UNCERTAINTY_ASSIGNED_CONTEXT ( ( #356 ) ) GLOBAL_UNIT_ASSIGNED_CONTEXT ( ( #49, #238, #446 ) ) REPRESENTATION_CONTEXT ( 'NONE', 'WORKASPACE' ) );
#36 = CARTESIAN_POINT ( 'NONE',  ( -0.3332974017262466671, 0.06987652786093821733, 0.1188096670707637081 ) ) ;
#37 = CARTESIAN_POINT ( 'NONE',  ( -0.4541380920649579211, -0.01107978220069587121, 0.1374498671274051453 ) ) ;
#38 = FACE_OUTER_BOUND ( 'NONE', #350, .T. ) ;
#39 = CARTESIAN_POINT ( 'NONE',  ( 0.2938934039980342638, -0.01107978220069584865, 0.1374498671274052009 ) ) ;
#40 = CARTESIAN_POINT ( 'NONE',  ( -0.4146673872687166584, -0.06991580952286573225, 0.1187865597680710650 ) ) ;
#41 = CARTESIAN_POINT ( 'NONE',  ( -0.3206332819136483714, -0.06075012401752497015, 0.1237451273879885544 ) ) ;
#42 = MANIFOLD_SOLID_BREP ( 'Cut-Extrude1', #320 ) ;
#43 = FACE_BOUND ( 'NONE', #455, .T. ) ;
#44 = CARTESIAN_POINT ( 'NONE',  ( -0.4146673872687166584, 0.06991580952286573225, -0.1187865597680711205 ) ) ;
#45 = CARTESIAN_POINT ( 'NONE',  ( -0.3038333242959176950, -0.04126688941613389228, -0.1318605166831404163 ) ) ;
#46 = ADVANCED_FACE ( 'NONE', ( #186 ), #157, .F. ) ;
#47 = APPROVAL_DATE_TIME ( #221, #127 ) ;
#48 = CARTESIAN_POINT ( 'NONE',  ( -0.4103451576432164960, -0.07226113263440359091, -0.1173532866918412243 ) ) ;
#49 =( CONVERSION_BASED_UNIT ( 'INCH', #360 ) LENGTH_UNIT ( ) NAMED_UNIT ( #413 ) );
#50 = PRODUCT_DEFINITION_FORMATION_WITH_SPECIFIED_SOURCE ( '任何', '', #152, .NOT_KNOWN. ) ;
#51 = CARTESIAN_POINT ( 'NONE',  ( -0.5314960629921260393, 0.000000000000000000, -0.1377952755905511584 ) ) ;
#52 = CARTESIAN_POINT ( 'NONE',  ( -0.3377631249956228321, 0.07229754548352319843, -0.1173304993699532256 ) ) ;
#53 = CARTESIAN_POINT ( 'NONE',  ( 0.3954865470836418373, 0.07798413191477215900, -0.1136122308914477713 ) ) ;
#54 = CARTESIAN_POINT ( 'NONE',  ( 0.2938242966379231436, -0.01058736039057609109, -0.1374902793269176526 ) ) ;
#55 = CARTESIAN_POINT ( 'NONE',  ( 0.4273982141493437581, 0.06075012401752507424, -0.1237451273879884989 ) ) ;
#56 = CARTESIAN_POINT ( 'NONE',  ( 0.4100829489620478885, -0.07239266680531677989, -0.1172718259007551750 ) ) ;
#57 = COORDINATED_UNIVERSAL_TIME_OFFSET ( 8, 0, .AHEAD. ) ;
#58 = CARTESIAN_POINT ( 'NONE',  ( 0.3036737411998712832, 0.04096121346071214531, 0.1319471945539506252 ) ) ;
#59 = APPROVAL_STATUS ( 'not_yet_approved' ) ;
#60 = CARTESIAN_POINT ( 'NONE',  ( 0.4383030177523871695, 0.04986525740810457408, -0.1287034524014499526 ) ) ;
#61 = CARTESIAN_POINT ( 'NONE',  ( 0.4547244094488190336, 0.005467208614692094411, 0.1377952755905511306 ) ) ;
#62 = CARTESIAN_POINT ( 'NONE',  ( 0.3134684886183856656, -0.05361437235596134415, 0.1270000029595255986 ) ) ;
#63 = DIRECTION ( 'NONE',  ( 0.000000000000000000, 0.000000000000000000, -1.000000000000000000 ) ) ;
#64 = CARTESIAN_POINT ( 'NONE',  ( 0.4547244094488189781, 5.869204673888065123E-18, 0.1377952755905511306 ) ) ;
#65 = CARTESIAN_POINT ( 'NONE',  ( -0.4379100299083297787, -0.04958008205403251906, 0.1286464811044673584 ) ) ;
#66 = CARTESIAN_POINT ( 'NONE',  ( -0.3377631249956224435, -0.07229754548352317067, 0.1173304993699531701 ) ) ;
#67 = CARTESIAN_POINT ( 'NONE',  ( 0.3043131006806524264, -0.04101468938471638376, 0.1316278727767105916 ) ) ;
#68 = ORIENTED_EDGE ( 'NONE', *, *, #454, .F. ) ;
#69 = CARTESIAN_POINT ( 'NONE',  ( -0.4443577548631208463, 0.04096121346071212449, 0.1319471945539505975 ) ) ;
#70 = DIRECTION ( 'NONE',  ( 0.000000000000000000, 0.000000000000000000, 1.000000000000000000 ) ) ;
#71 = CARTESIAN_POINT ( 'NONE',  ( -0.3958312725478179694, 0.07841178467629567050, 0.1134144560741168206 ) ) ;
#72 = CARTESIAN_POINT ( 'NONE',  ( -0.4272485588564242098, 0.06088299760392549415, -0.1236800803589793579 ) ) ;
#73 = CARTESIAN_POINT ( 'NONE',  ( -0.3207243699380029067, -0.06083414332079338516, -0.1237049618424041070 ) ) ;
#74 = ADVANCED_FACE ( 'NONE', ( #269, #406 ), #84, .F. ) ;
#75 = VERTEX_POINT ( 'NONE', #220 ) ;
#76 = APPROVAL_STATUS ( 'not_yet_approved' ) ;
#77 = CARTESIAN_POINT ( 'NONE',  ( -0.3633497112354732161, -0.08018204250603816474, -0.1120717154506533642 ) ) ;
#78 = AXIS2_PLACEMENT_3D ( 'NONE', #440, #297, #158 ) ;
#79 = CARTESIAN_POINT ( 'NONE',  ( -0.2959885636611677695, 0.02131467229718852704, -0.1362392554494636088 ) ) ;
#80 = CARTESIAN_POINT ( 'NONE',  ( 0.3101214661546624618, 0.04958008205403267865, -0.1286464811044672474 ) ) ;
#81 = CARTESIAN_POINT ( 'NONE',  ( 0.3205576587866997840, -0.06068492570809256442, -0.1237776555209559176 ) ) ;
#82 = PERSON_AND_ORGANIZATION_ROLE ( 'design_supplier' ) ;
#83 = CARTESIAN_POINT ( 'NONE',  ( 0.4006440448205219607, 0.07636832831769212182, -0.1147225330757033757 ) ) ;
#84 = CYLINDRICAL_SURFACE ( 'NONE', #224, 0.08070866141732283006 ) ;
#85 = CARTESIAN_POINT ( 'NONE',  ( 0.4441981717670745455, -0.04126688941613376738, -0.1318605166831404440 ) ) ;
#86 = ADVANCED_FACE ( 'NONE', ( #10 ), #112, .T. ) ;
#87 = APPLICATION_PROTOCOL_DEFINITION ( 'international standard', 'config_control_design', 1994, #257 ) ;
#88 = CARTESIAN_POINT ( 'NONE',  ( 0.4102683710673695194, 0.07229754548352324006, -0.1173304993699531146 ) ) ;
#89 = CARTESIAN_POINT ( 'NONE',  ( -0.3793315054890171178, 0.08071842774499501938, -0.1116784381454697939 ) ) ;
#90 = APPROVAL ( #59, '未指定' ) ;
#91 = APPROVAL_ROLE ( '' ) ;
#92 = CARTESIAN_POINT ( 'NONE',  ( 0.4547244094488189781, 5.869204673888065123E-18, 0.1377952755905511306 ) ) ;
#93 = CARTESIAN_POINT ( 'NONE',  ( 0.4147340943367454624, 0.06987652786093832835, 0.1188096670707637359 ) ) ;
#94 = CARTESIAN_POINT ( 'NONE',  ( -0.2938709348861587856, 0.01091988420454512512, 0.1374630103065802578 ) ) ;
#95 = EDGE_LOOP ( 'NONE', ( #68 ) ) ;
#96 = CARTESIAN_POINT ( 'NONE',  ( 0.4383030177523868365, -0.04986525740810439367, 0.1287034524014500358 ) ) ;
#97 = CARTESIAN_POINT ( 'NONE',  ( 0.3476779396554125490, -0.07647069241513888838, 0.1146541735702364395 ) ) ;
#98 = CARTESIAN_POINT ( 'NONE',  ( -0.3525449489793502367, -0.07798413191477204798, 0.1136122308914478130 ) ) ;
#99 = FACE_BOUND ( 'NONE', #312, .T. ) ;
#100 = CARTESIAN_POINT ( 'NONE',  ( -0.3527851533936894879, 0.07805245756988925254, 0.1135651496357618223 ) ) ;
#101 = CARTESIAN_POINT ( 'NONE',  ( -0.4462195596554200394, -0.03645031307896606787, 0.1329814144755562255 ) ) ;
#102 = EDGE_LOOP ( 'NONE', ( #281 ) ) ;
#103 = CARTESIAN_POINT ( 'NONE',  ( -0.4443577548631210128, -0.04096121346071214531, -0.1319471945539506252 ) ) ;
#104 = ADVANCED_FACE ( 'NONE', ( #328, #262 ), #178, .T. ) ;
#105 = CARTESIAN_POINT ( 'NONE',  ( -0.2960098232932974471, -0.02138949861217452272, -0.1362270620057095816 ) ) ;
#106 = CARTESIAN_POINT ( 'NONE',  ( -0.4519824697981504880, 0.02153002285164542715, -0.1362045728416041157 ) ) ;
#107 = PERSON_AND_ORGANIZATION_ROLE ( 'classification_officer' ) ;
#108 = CARTESIAN_POINT ( 'NONE',  ( -0.4462195596554199284, 0.03645031307896608175, -0.1329814144755562255 ) ) ;
#109 = DIRECTION ( 'NONE',  ( 0.000000000000000000, 0.000000000000000000, -1.000000000000000000 ) ) ;
#110 = CARTESIAN_POINT ( 'NONE',  ( -0.2933070866141734845, 0.000000000000000000, 0.1377952755905511584 ) ) ;
#111 = B_SPLINE_CURVE_WITH_KNOTS ( 'NONE', 3,
 ( #203, #404, #344, #123, #27, #412, #60, #55, #340, #409, #88, #83, #53, #164, #310, #237, #301, #369, #276, #452, #23, #438, #25, #235, #80, #19, #194, #337, #160, #304, #228, #334, #54, #13, #270, #402, #147, #81, #113, #273, #11, #300, #371, #366, #122, #407, #436, #56, #193, #17, #116, #267, #85, #145, #264, #153, #302, #400 ),
 .UNSPECIFIED., .T., .F.,
 ( 4, 2, 2, 2, 2, 2, 2, 2, 2, 2, 2, 2, 2, 2, 2, 2, 2, 2, 2, 2, 2, 2, 2, 2, 2, 2, 2, 2, 4 ),
 ( 0.000000000000000000, 0.0004101012266117106341, 0.0008202024532234212682, 0.001640404906446844054, 0.002050506133058556911, 0.002460607359670269768, 0.002870708586281982624, 0.003280809812893695047, 0.003690911039505407904, 0.004101012266117120761, 0.004511113492728833184, 0.004921214719340546474, 0.005331315945952258897, 0.005741417172563973922, 0.006151518399175688080, 0.006561619625787403973, 0.006971720852399118130, 0.007381822079010833156, 0.008202024532234264073, 0.008612125758845979098, 0.009022226985457692389, 0.009842429438681125908, 0.01025253066529283746, 0.01066263189190454902, 0.01107273311851626231, 0.01148283434512797387, 0.01230303679835139698, 0.01271313802496311027, 0.01312323925157482182 ),
 .UNSPECIFIED. ) ;
#112 = PLANE ( 'NONE',  #294 ) ;
#113 = CARTESIAN_POINT ( 'NONE',  ( 0.3245931933786980750, -0.06401504597007588726, -0.1220676556461903206 ) ) ;
#114 = AXIS2_PLACEMENT_3D ( 'NONE', #179, #439, #365 ) ;
#115 = LOCAL_TIME ( 23, 55, 2.000000000000000000, #125 ) ;
#116 = CARTESIAN_POINT ( 'NONE',  ( 0.4273071261249893893, -0.06083414332079328107, -0.1237049618424041486 ) ) ;
#117 = FACE_OUTER_BOUND ( 'NONE', #382, .T. ) ;
#118 = ADVANCED_BREP_SHAPE_REPRESENTATION ( '00093_index_3', ( #42, #241 ), #35 ) ;
#119 = CARTESIAN_POINT ( 'NONE',  ( -0.2933070866141731514, 1.013771716398847640E-17, -0.1377952755905511306 ) ) ;
#120 = PERSON_AND_ORGANIZATION ( #201, #168 ) ;
#121 = CARTESIAN_POINT ( 'NONE',  ( 0.4541605611768335660, 0.01091988420454515635, 0.1374630103065802300 ) ) ;
#122 = CARTESIAN_POINT ( 'NONE',  ( 0.3846817848275188578, -0.08018204250603810923, -0.1120717154506534197 ) ) ;
#123 = CARTESIAN_POINT ( 'NONE',  ( 0.4520429324018245265, 0.02131467229718860337, -0.1362392554494635810 ) ) ;
#124 = ORIENTED_EDGE ( 'NONE', *, *, #206, .F. ) ;
#125 = COORDINATED_UNIVERSAL_TIME_OFFSET ( 8, 0, .AHEAD. ) ;
#126 = CARTESIAN_POINT ( 'NONE',  ( 0.4003843064563571419, 0.07646071093538905905, 0.1146609743571784107 ) ) ;
#127 = APPROVAL ( #76, '未指定' ) ;
#128 = CARTESIAN_POINT ( 'NONE',  ( -0.2960098232932974471, 0.02138949861217455395, 0.1362270620057095816 ) ) ;
#129 = AXIS2_PLACEMENT_3D ( 'NONE', #136, #172, #70 ) ;
#130 = CARTESIAN_POINT ( 'NONE',  ( -0.3097066866002703422, 0.04985716022017862292, 0.1287108851712763236 ) ) ;
#131 = CARTESIAN_POINT ( 'NONE',  ( -0.2933070866141734845, 0.005467208614692024155, 0.1377952755905511584 ) ) ;
#132 = CARTESIAN_POINT ( 'NONE',  ( 0.3333641087942755821, -0.06991580952286566286, 0.1187865597680711205 ) ) ;
#133 = EDGE_LOOP ( 'NONE', ( #33 ) ) ;
#134 = CARTESIAN_POINT ( 'NONE',  ( -0.3846856979627166218, -0.08017965157240254659, 0.1120733268560961116 ) ) ;
#135 = CARTESIAN_POINT ( 'NONE',  ( -0.4520958989741709066, 0.02112465633843103180, 0.1362696518085262098 ) ) ;
#136 = CARTESIAN_POINT ( 'NONE',  ( 0.5511811023622047445, 0.000000000000000000, 0.000000000000000000 ) ) ;
#137 = CARTESIAN_POINT ( 'NONE',  ( -0.3687064591154941562, -0.08071706250790743054, -0.1116794247171081084 ) ) ;
#138 = PRODUCT_RELATED_PRODUCT_CATEGORY ( 'detail', '', ( #152 ) ) ;
#139 = CARTESIAN_POINT ( 'NONE',  ( 0.5511811023622047445, 0.000000000000000000, -0.1181102362204724116 ) ) ;
#140 = CIRCLE ( 'NONE', #78, 0.1377952755905511584 ) ;
#141 = VERTEX_POINT ( 'NONE', #329 ) ;
#142 = FACE_BOUND ( 'NONE', #30, .T. ) ;
#143 = CARTESIAN_POINT ( 'NONE',  ( -0.3958312725478179139, -0.07841178467629565663, -0.1134144560741167790 ) ) ;
#144 = DIRECTION ( 'NONE',  ( 1.000000000000000000, 0.000000000000000000, 0.000000000000000000 ) ) ;
#145 = CARTESIAN_POINT ( 'NONE',  ( 0.4504473092186537797, -0.02647195999915193804, -0.1353234156405213329 ) ) ;
#146 = COORDINATED_UNIVERSAL_TIME_OFFSET ( 8, 0, .AHEAD. ) ;
#147 = CARTESIAN_POINT ( 'NONE',  ( 0.3096349823716812999, -0.04975100989259625961, -0.1287497415425893632 ) ) ;
#148 = B_SPLINE_CURVE_WITH_KNOTS ( 'NONE', 3,
 ( #64, #245, #209, #278, #417, #349, #96, #380, #207, #311, #456, #173, #347, #243, #379, #280, #316, #418, #97, #458, #132, #283, #251, #62, #386, #67, #212, #205, #351, #39, #416, #345, #29, #308, #162, #58, #401, #307, #450, #265, #16, #448, #332, #373, #378, #277, #126, #192, #93, #442, #239, #364, #151, #229, #200, #121, #61, #92 ),
 .UNSPECIFIED., .T., .F.,
 ( 4, 2, 2, 2, 2, 2, 2, 2, 2, 2, 2, 2, 2, 2, 2, 2, 2, 2, 2, 2, 2, 2, 2, 2, 2, 2, 2, 2, 4 ),
 ( 0.000000000000000000, 0.0004101012266117088994, 0.0008202024532234177987, 0.001640404906446837983, 0.002050506133058549105, 0.002460607359670260660, 0.002870708586281972216, 0.003280809812893683772, 0.003690911039505394894, 0.004101012266117106016, 0.004511113492728818439, 0.004921214719340529994, 0.005331315945952242417, 0.005741417172563954840, 0.006151518399175667264, 0.006561619625787380554, 0.006971720852399092977, 0.007381822079010808002, 0.008202024532234232848, 0.008612125758845949608, 0.009022226985457662898, 0.009842429438681094683, 0.01025253066529280971, 0.01066263189190452647, 0.01107273311851624149, 0.01148283434512795478, 0.01230303679835138310, 0.01271313802496309465, 0.01312323925157480795 ),
 .UNSPECIFIED. ) ;
#149 = DATE_AND_TIME ( #437, #250 ) ;
#150 = ADVANCED_FACE ( 'NONE', ( #8, #142, #99, #353, #315, #38 ), #249, .T. ) ;
#151 = CARTESIAN_POINT ( 'NONE',  ( 0.4441981717670748786, 0.04126688941613401024, 0.1318605166831403608 ) ) ;
#152 = PRODUCT ( '00093_index_3', '00093_index_3', '', ( #408 ) ) ;
#153 = CARTESIAN_POINT ( 'NONE',  ( 0.4541605611768336770, -0.01091988420454507655, -0.1374630103065802300 ) ) ;
#154 = PERSON_AND_ORGANIZATION ( #201, #168 ) ;
#155 = APPROVAL ( #411, '未指定' ) ;
#156 = CYLINDRICAL_SURFACE ( 'NONE', #263, 0.08070866141732283006 ) ;
#157 = PLANE ( 'NONE',  #31 ) ;
#158 = DIRECTION ( 'NONE',  ( 0.000000000000000000, 0.000000000000000000, -1.000000000000000000 ) ) ;
#159 = PERSON_AND_ORGANIZATION_ROLE ( 'creator' ) ;
#160 = CARTESIAN_POINT ( 'NONE',  ( 0.2960490262648417525, 0.02153002285164561797, -0.1362045728416040324 ) ) ;
#161 = APPROVAL_ROLE ( '' ) ;
#162 = CARTESIAN_POINT ( 'NONE',  ( 0.2975381116134581672, 0.02632568863412769120, 0.1353498518246472049 ) ) ;
#163 = DATE_TIME_ROLE ( 'creation_date' ) ;
#164 = CARTESIAN_POINT ( 'NONE',  ( 0.3850033629269552504, 0.08013608651130463278, -0.1121047344106614468 ) ) ;
#165 = CARTESIAN_POINT ( 'NONE',  ( 0.5511811023622047445, 0.000000000000000000, 0.000000000000000000 ) ) ;
#166 = EDGE_LOOP ( 'NONE', ( #346 ) ) ;
#167 = CARTESIAN_POINT ( 'NONE',  ( -0.4234383026842941100, 0.06401504597007597053, 0.1220676556461901818 ) ) ;
#168 = ORGANIZATION ( '未指定', '未指定', '' ) ;
#169 = CARTESIAN_POINT ( 'NONE',  ( -0.3207243699380027402, 0.06083414332079337822, 0.1237049618424040653 ) ) ;
#170 = CARTESIAN_POINT ( 'NONE',  ( -0.3630281331360368235, -0.08013608651130448013, 0.1121047344106614468 ) ) ;
#171 = EDGE_CURVE ( 'NONE', #391, #391, #266, .T. ) ;
#172 = DIRECTION ( 'NONE',  ( -1.000000000000000000, -0.000000000000000000, -0.000000000000000000 ) ) ;
#173 = CARTESIAN_POINT ( 'NONE',  ( 0.4006440448205220162, -0.07636832831769195529, 0.1147225330757035422 ) ) ;
#174 = EDGE_LOOP ( 'NONE', ( #422 ) ) ;
#175 = CARTESIAN_POINT ( 'NONE',  ( -0.4519824697981504324, -0.02153002285164544796, 0.1362045728416040880 ) ) ;
#176 = CC_DESIGN_DATE_AND_TIME_ASSIGNMENT ( #335, #163, ( #385 ) ) ;
#177 = CARTESIAN_POINT ( 'NONE',  ( -0.2933070866141734845, -0.005467208614692023287, 0.1377952755905511306 ) ) ;
#178 = CONICAL_SURFACE ( 'NONE', #240, 0.1181102362204724116, 0.7853981633974447263 ) ;
#179 = CARTESIAN_POINT ( 'NONE',  ( -0.5511811023622047445, 0.000000000000000000, 0.000000000000000000 ) ) ;
#180 = CARTESIAN_POINT ( 'NONE',  ( -0.4234383026842942210, -0.06401504597007601216, -0.1220676556461901680 ) ) ;
#181 = VERTEX_POINT ( 'NONE', #430 ) ;
#182 = CARTESIAN_POINT ( 'NONE',  ( -0.4437183953823399252, 0.04101468938471641845, -0.1316278727767105639 ) ) ;
#183 = DIRECTION ( 'NONE',  ( 1.000000000000000000, 0.000000000000000000, 0.000000000000000000 ) ) ;
#184 = SECURITY_CLASSIFICATION ( '', '', #303 ) ;
#185 = APPROVAL_ROLE ( '' ) ;
#186 = FACE_OUTER_BOUND ( 'NONE', #459, .T. ) ;
#187 = VERTEX_POINT ( 'NONE', #259 ) ;
#188 = COORDINATED_UNIVERSAL_TIME_OFFSET ( 8, 0, .AHEAD. ) ;
#189 = DIRECTION ( 'NONE',  ( 1.000000000000000000, 0.000000000000000000, 0.000000000000000000 ) ) ;
#190 = CARTESIAN_POINT ( 'NONE',  ( -0.3630281331360369901, 0.08013608651130450788, -0.1121047344106614607 ) ) ;
#191 = EDGE_CURVE ( 'NONE', #4, #4, #14, .T. ) ;
#192 = CARTESIAN_POINT ( 'NONE',  ( 0.4100829489620476664, 0.07239266680531696030, 0.1172718259007551334 ) ) ;
#193 = CARTESIAN_POINT ( 'NONE',  ( 0.4147340943367453514, -0.06987652786093820345, -0.1188096670707637914 ) ) ;
#194 = CARTESIAN_POINT ( 'NONE',  ( 0.3018119364075721456, 0.03645031307896624828, -0.1329814144755561978 ) ) ;
#195 = CARTESIAN_POINT ( 'NONE',  ( -0.5511811023622047445, 0.000000000000000000, 0.000000000000000000 ) ) ;
#196 = CARTESIAN_POINT ( 'NONE',  ( -0.2938566815007180866, 0.01082038857029022846, -0.1374713394557158519 ) ) ;
#197 = CARTESIAN_POINT ( 'NONE',  ( 0.5314960629921258173, 0.000000000000000000, 0.000000000000000000 ) ) ;
#198 = CARTESIAN_POINT ( 'NONE',  ( -0.3687064591154942117, 0.08071706250790741666, 0.1116794247171080945 ) ) ;
#199 = APPROVAL_DATE_TIME ( #343, #155 ) ;
#200 = CARTESIAN_POINT ( 'NONE',  ( 0.4520216727696947934, 0.02138949861217455395, 0.1362270620057095816 ) ) ;
#201 = PERSON ( '未指定', '未指定', '未指定', ('未指定'), ('未指定'), ('未指定') ) ;
#202 = DIRECTION ( 'NONE',  ( 0.000000000000000000, 0.000000000000000000, 1.000000000000000000 ) ) ;
#203 = CARTESIAN_POINT ( 'NONE',  ( 0.4547244094488190336, 9.817578727230945633E-17, -0.1377952755905511861 ) ) ;
#204 = APPLICATION_CONTEXT ( 'configuration controlled 3d designs of mechanical parts and assemblies' ) ;
#205 = CARTESIAN_POINT ( 'NONE',  ( 0.2976629488829536374, -0.02668830827834637806, 0.1352790306023600730 ) ) ;
#206 = EDGE_CURVE ( 'NONE', #261, #261, #148, .T. ) ;
#207 = CARTESIAN_POINT ( 'NONE',  ( 0.4233765439577764078, -0.06406331669390581685, 0.1220423444943922325 ) ) ;
#208 = CC_DESIGN_PERSON_AND_ORGANIZATION_ASSIGNMENT ( #18, #375, ( #385 ) ) ;
#209 = CARTESIAN_POINT ( 'NONE',  ( 0.4541748145622741539, -0.01082038857029019203, 0.1374713394557159074 ) ) ;
#210 = CARTESIAN_POINT ( 'NONE',  ( -0.4503685471800386586, -0.02668830827834643357, 0.1352790306023600453 ) ) ;
#211 = CARTESIAN_POINT ( 'NONE',  ( -0.3473874512424702243, -0.07636832831769205243, 0.1147225330757034589 ) ) ;
#212 = CARTESIAN_POINT ( 'NONE',  ( 0.3018119364075721456, -0.03645031307896601236, 0.1329814144755561978 ) ) ;
#213 = ORIENTED_EDGE ( 'NONE', *, *, #171, .T. ) ;
#214 = CARTESIAN_POINT ( 'NONE',  ( -0.3684074532724718187, -0.08069863000613498871, 0.1116927447928845185 ) ) ;
#215 = CARTESIAN_POINT ( 'NONE',  ( -0.4383965136913105520, 0.04975100989259633594, 0.1287497415425892799 ) ) ;
#216 = CARTESIAN_POINT ( 'NONE',  ( -0.2959885636611676585, -0.02131467229718850623, 0.1362392554494635810 ) ) ;
#217 = CARTESIAN_POINT ( 'NONE',  ( -0.3379485471009442410, -0.07239266680531679377, -0.1172718259007551611 ) ) ;
#218 = CC_DESIGN_SECURITY_CLASSIFICATION ( #184, ( #50 ) ) ;
#219 = CARTESIAN_POINT ( 'NONE',  ( -0.4547077545318833902, 0.005705135288862225873, -0.1377855205959642171 ) ) ;
#220 = CARTESIAN_POINT ( 'NONE',  ( 0.4547244094488189781, 9.477817926515488209E-17, -0.1377952755905511584 ) ) ;
#221 = DATE_AND_TIME ( #359, #15 ) ;
#222 = CARTESIAN_POINT ( 'NONE',  ( -0.4542071994250688749, -0.01058736039057622293, -0.1374902793269176804 ) ) ;
#223 = CC_DESIGN_PERSON_AND_ORGANIZATION_ASSIGNMENT ( #154, #159, ( #50 ) ) ;
#224 = AXIS2_PLACEMENT_3D ( 'NONE', #230, #20, #144 ) ;
#225 = CARTESIAN_POINT ( 'NONE',  ( -0.2933070866141731514, -0.005467208614692029359, -0.1377952755905511306 ) ) ;
#226 = CARTESIAN_POINT ( 'NONE',  ( -0.3206332819136483714, 0.06075012401752499097, -0.1237451273879885544 ) ) ;
#227 = FACE_OUTER_BOUND ( 'NONE', #290, .T. ) ;
#228 = CARTESIAN_POINT ( 'NONE',  ( 0.2933237415311087948, 0.005705135288862413223, -0.1377855205959641338 ) ) ;
#229 = CARTESIAN_POINT ( 'NONE',  ( 0.4504473092186538907, 0.02647195999915209763, 0.1353234156405213329 ) ) ;
#230 = CARTESIAN_POINT ( 'NONE',  ( -0.3740157480314960092, 3.173766971355005630E-18, -0.1377952755905511584 ) ) ;
#231 = CONICAL_SURFACE ( 'NONE', #24, 0.1377952755905511584, 0.7853981633974496113 ) ;
#232 = CARTESIAN_POINT ( 'NONE',  ( -0.2933070866141731514, 0.005467208614692049308, -0.1377952755905511306 ) ) ;
#233 = CC_DESIGN_APPROVAL ( #90, ( #50 ) ) ;
#234 = COORDINATED_UNIVERSAL_TIME_OFFSET ( 8, 0, .AHEAD. ) ;
#235 = CARTESIAN_POINT ( 'NONE',  ( 0.3134684886183854990, 0.05361437235596150375, -0.1270000029595255431 ) ) ;
#236 = CARTESIAN_POINT ( 'NONE',  ( -0.2975999493997692480, 0.02650316622911123507, -0.1353148307961225261 ) ) ;
#237 = CARTESIAN_POINT ( 'NONE',  ( 0.3686999905739749561, 0.08071842774499508877, -0.1116784381454696273 ) ) ;
#238 =( NAMED_UNIT ( * ) PLANE_ANGLE_UNIT ( ) SI_UNIT ( $, .RADIAN. ) );
#239 = CARTESIAN_POINT ( 'NONE',  ( 0.4273071261249895003, 0.06083414332079346148, 0.1237049618424040515 ) ) ;
#240 = AXIS2_PLACEMENT_3D ( 'NONE', #338, #12, #326 ) ;
#241 = AXIS2_PLACEMENT_3D ( 'NONE', #414, #202, #306 ) ;
#242 = CARTESIAN_POINT ( 'NONE',  ( -0.3850129504024605853, 0.08069156319888687312, 0.1116978515616608575 ) ) ;
#243 = CARTESIAN_POINT ( 'NONE',  ( 0.3850033629269550839, -0.08013608651130441074, 0.1121047344106615717 ) ) ;
#244 = ORIENTED_EDGE ( 'NONE', *, *, #454, .T. ) ;
#245 = CARTESIAN_POINT ( 'NONE',  ( 0.4547244094488189781, -0.005467208614692044104, 0.1377952755905511584 ) ) ;
#246 = CARTESIAN_POINT ( 'NONE',  ( -0.2975841868443381277, 0.02647195999915202477, 0.1353234156405213606 ) ) ;
#247 = EDGE_LOOP ( 'NONE', ( #462 ) ) ;
#248 = CARTESIAN_POINT ( 'NONE',  ( -0.4003535564075796915, -0.07647069241513895776, 0.1146541735702363562 ) ) ;
#249 = CYLINDRICAL_SURFACE ( 'NONE', #129, 0.1377952755905511584 ) ;
#250 = LOCAL_TIME ( 23, 55, 2.000000000000000000, #188 ) ;
#251 = CARTESIAN_POINT ( 'NONE',  ( 0.3207829372065679752, -0.06088299760392543170, 0.1236800803589793857 ) ) ;
#252 = CARTESIAN_POINT ( 'NONE',  ( -0.3793315054890171178, -0.08071842774499499162, 0.1116784381454697661 ) ) ;
#253 = FACE_OUTER_BOUND ( 'NONE', #133, .T. ) ;
#254 = CARTESIAN_POINT ( 'NONE',  ( -0.2975841868443380722, -0.02647195999915196926, -0.1353234156405213884 ) ) ;
#255 = CARTESIAN_POINT ( 'NONE',  ( -0.4274738372762922900, 0.06068492570809263381, 0.1237776555209559592 ) ) ;
#256 = B_SPLINE_CURVE_WITH_KNOTS ( 'NONE', 3,
 ( #119, #232, #196, #79, #236, #434, #339, #226, #362, #21, #52, #305, #444, #190, #410, #89, #374, #331, #355, #396, #44, #293, #72, #289, #258, #182, #108, #399, #106, #327, #219, #9, #222, #260, #321, #103, #427, #325, #180, #3, #48, #143, #323, #137, #77, #291, #429, #217, #296, #433, #73, #358, #45, #254, #105, #394, #225, #357 ),
 .UNSPECIFIED., .T., .F.,
 ( 4, 2, 2, 2, 2, 2, 2, 2, 2, 2, 2, 2, 2, 2, 2, 2, 2, 2, 2, 2, 2, 2, 2, 2, 2, 2, 2, 2, 4 ),
 ( 0.000000000000000000, 0.0004101012266117115557, 0.0008202024532234231113, 0.001640404906446846223, 0.002050506133058559513, 0.002460607359670272803, 0.002870708586281986528, 0.003280809812893699818, 0.003690911039505413976, 0.004101012266117126832, 0.004511113492728840990, 0.004921214719340554281, 0.005331315945952268438, 0.005741417172563982596, 0.006151518399175695886, 0.006561619625787410044, 0.006971720852399123335, 0.007381822079010836625, 0.008202024532234264073, 0.008612125758845980833, 0.009022226985457697593, 0.009842429438681127643, 0.01025253066529284093, 0.01066263189190455422, 0.01107273311851626751, 0.01148283434512798080, 0.01230303679835140392, 0.01271313802496311547, 0.01312323925157482529 ),
 .UNSPECIFIED. ) ;
#257 = APPLICATION_CONTEXT ( 'configuration controlled 3d designs of mechanical parts and assemblies' ) ;
#258 = CARTESIAN_POINT ( 'NONE',  ( -0.4379100299083297232, 0.04958008205403251906, -0.1286464811044674139 ) ) ;
#259 = CARTESIAN_POINT ( 'NONE',  ( 0.5314960629921258173, 0.000000000000000000, -0.1377952755905511584 ) ) ;
#260 = CARTESIAN_POINT ( 'NONE',  ( -0.4520958989741709066, -0.02112465633843103180, -0.1362696518085261821 ) ) ;
#261 = VERTEX_POINT ( 'NONE', #361 ) ;
#262 = FACE_BOUND ( 'NONE', #166, .T. ) ;
#263 = AXIS2_PLACEMENT_3D ( 'NONE', #268, #415, #272 ) ;
#264 = CARTESIAN_POINT ( 'NONE',  ( 0.4520216727696947934, -0.02138949861217453313, -0.1362270620057097203 ) ) ;
#265 = CARTESIAN_POINT ( 'NONE',  ( 0.3331479217618772415, 0.06978779115974388658, 0.1188616963977536939 ) ) ;
#266 = B_SPLINE_CURVE_WITH_KNOTS ( 'NONE', 3,
 ( #318, #177, #384, #216, #286, #457, #389, #41, #425, #419, #66, #211, #98, #170, #214, #252, #134, #282, #248, #460, #40, #285, #383, #423, #65, #34, #101, #210, #175, #37, #317, #461, #388, #135, #424, #69, #215, #255, #167, #287, #420, #71, #242, #198, #313, #100, #381, #453, #36, #32, #169, #130, #279, #246, #128, #94, #131, #314 ),
 .UNSPECIFIED., .T., .F.,
 ( 4, 2, 2, 2, 2, 2, 2, 2, 2, 2, 2, 2, 2, 2, 2, 2, 2, 2, 2, 2, 2, 2, 2, 2, 2, 2, 2, 2, 4 ),
 ( 0.000000000000000000, 0.0004101012266117112304, 0.0008202024532234224608, 0.001640404906446844922, 0.002050506133058557778, 0.002460607359670270201, 0.002870708586281983058, 0.003280809812893695915, 0.003690911039505408338, 0.004101012266117121628, 0.004511113492728834051, 0.004921214719340546474, 0.005331315945952258897, 0.005741417172563971320, 0.006151518399175684611, 0.006561619625787397034, 0.006971720852399109457, 0.007381822079010821880, 0.008202024532234250195, 0.008612125758845961751, 0.009022226985457676776, 0.009842429438681101622, 0.01025253066529281491, 0.01066263189190452820, 0.01107273311851623976, 0.01148283434512795305, 0.01230303679835137616, 0.01271313802496308598, 0.01312323925157479754 ),
 .UNSPECIFIED. ) ;
#267 = CARTESIAN_POINT ( 'NONE',  ( 0.4383248094627218427, -0.04985716022017856047, -0.1287108851712764346 ) ) ;
#268 = CARTESIAN_POINT ( 'NONE',  ( 0.3740157480314961203, 9.477817926515488209E-17, -0.1377952755905511584 ) ) ;
#269 = FACE_OUTER_BOUND ( 'NONE', #95, .T. ) ;
#270 = CARTESIAN_POINT ( 'NONE',  ( 0.2975381116134581672, -0.02632568863412748997, -0.1353498518246472604 ) ) ;
#271 = PERSON_AND_ORGANIZATION ( #201, #168 ) ;
#272 = DIRECTION ( 'NONE',  ( 1.000000000000000000, 0.000000000000000000, 0.000000000000000000 ) ) ;
#273 = CARTESIAN_POINT ( 'NONE',  ( 0.3331479217618771305, -0.06978779115974363678, -0.1188616963977538743 ) ) ;
#274 = LOCAL_TIME ( 23, 55, 2.000000000000000000, #234 ) ;
#275 = APPLICATION_PROTOCOL_DEFINITION ( 'international standard', 'config_control_design', 1994, #204 ) ;
#276 = CARTESIAN_POINT ( 'NONE',  ( 0.3476779396554124379, 0.07647069241513908266, -0.1146541735702362591 ) ) ;
#277 = CARTESIAN_POINT ( 'NONE',  ( 0.3952463426693028636, 0.07805245756988933581, 0.1135651496357617390 ) ) ;
#278 = CARTESIAN_POINT ( 'NONE',  ( 0.4520429324018245265, -0.02131467229718848541, 0.1362392554494635533 ) ) ;
#279 = CARTESIAN_POINT ( 'NONE',  ( -0.3038333242959176950, 0.04126688941613394085, 0.1318605166831403330 ) ) ;
#280 = CARTESIAN_POINT ( 'NONE',  ( 0.3686999905739751782, -0.08071842774499492223, 0.1116784381454698216 ) ) ;
#281 = ORIENTED_EDGE ( 'NONE', *, *, #171, .F. ) ;
#282 = CARTESIAN_POINT ( 'NONE',  ( -0.3951961709183758886, -0.07806416619768360987, 0.1135570036357320123 ) ) ;
#283 = CARTESIAN_POINT ( 'NONE',  ( 0.3247513470310200989, -0.06413887267465069597, 0.1220027549475671685 ) ) ;
#284 = EDGE_LOOP ( 'NONE', ( #428 ) ) ;
#285 = CARTESIAN_POINT ( 'NONE',  ( -0.4232801490319721971, -0.06413887267465076536, 0.1220027549475670714 ) ) ;
#286 = CARTESIAN_POINT ( 'NONE',  ( -0.2975999493997691925, -0.02650316622911120384, 0.1353148307961225538 ) ) ;
#287 = CARTESIAN_POINT ( 'NONE',  ( -0.4148835743011149435, 0.06978779115974374780, 0.1188616963977538049 ) ) ;
#288 = ORIENTED_EDGE ( 'NONE', *, *, #336, .F. ) ;
#289 = CARTESIAN_POINT ( 'NONE',  ( -0.4345630074446065194, 0.05361437235596141354, -0.1270000029595255986 ) ) ;
#290 = EDGE_LOOP ( 'NONE', ( #288 ) ) ;
#291 = CARTESIAN_POINT ( 'NONE',  ( -0.3527851533936892658, -0.07805245756988919703, -0.1135651496357617807 ) ) ;
#292 = ADVANCED_FACE ( 'NONE', ( #227, #117 ), #156, .F. ) ;
#293 = CARTESIAN_POINT ( 'NONE',  ( -0.4232801490319721416, 0.06413887267465077924, -0.1220027549475670853 ) ) ;
#294 = AXIS2_PLACEMENT_3D ( 'NONE', #370, #189, #330 ) ;
#295 = DESIGN_CONTEXT ( 'detailed design', #257, 'design' ) ;
#296 = CARTESIAN_POINT ( 'NONE',  ( -0.3332974017262467226, -0.06987652786093821733, -0.1188096670707637914 ) ) ;
#297 = DIRECTION ( 'NONE',  ( 1.000000000000000000, -0.000000000000000000, -0.000000000000000000 ) ) ;
#298 = CC_DESIGN_PERSON_AND_ORGANIZATION_ASSIGNMENT ( #271, #107, ( #184 ) ) ;
#299 = APPROVAL_PERSON_ORGANIZATION ( #309, #90, #161 ) ;
#300 = CARTESIAN_POINT ( 'NONE',  ( 0.3522002235151742155, -0.07841178467629555948, -0.1134144560741168761 ) ) ;
#301 = CARTESIAN_POINT ( 'NONE',  ( 0.3633457981002754522, 0.08017965157240267149, -0.1120733268560960144 ) ) ;
#302 = CARTESIAN_POINT ( 'NONE',  ( 0.4547244094488190891, -0.005467208614691967776, -0.1377952755905511584 ) ) ;
#303 = SECURITY_CLASSIFICATION_LEVEL ( 'unclassified' ) ;
#304 = CARTESIAN_POINT ( 'NONE',  ( 0.2938934039980342638, 0.01107978220069605856, -0.1374498671274052009 ) ) ;
#305 = CARTESIAN_POINT ( 'NONE',  ( -0.3473874512424702798, 0.07636832831769203855, -0.1147225330757034312 ) ) ;
#306 = DIRECTION ( 'NONE',  ( 1.000000000000000000, 0.000000000000000000, 0.000000000000000000 ) ) ;
#307 = CARTESIAN_POINT ( 'NONE',  ( 0.3205576587866997285, 0.06068492570809280728, 0.1237776555209558482 ) ) ;
#308 = CARTESIAN_POINT ( 'NONE',  ( 0.2959355970888212228, 0.02112465633843105609, 0.1362696518085261821 ) ) ;
#309 = PERSON_AND_ORGANIZATION ( #201, #168 ) ;
#310 = CARTESIAN_POINT ( 'NONE',  ( 0.3796240427905202552, 0.08069863000613509973, -0.1116927447928843936 ) ) ;
#311 = CARTESIAN_POINT ( 'NONE',  ( 0.4148025380631107373, -0.06983576790740196605, 0.1188335302694280560 ) ) ;
#312 = EDGE_LOOP ( 'NONE', ( #2 ) ) ;
#313 = CARTESIAN_POINT ( 'NONE',  ( -0.3633497112354732717, 0.08018204250603817862, 0.1120717154506532948 ) ) ;
#314 = CARTESIAN_POINT ( 'NONE',  ( -0.2933070866141734845, 1.013771716398847640E-17, 0.1377952755905511306 ) ) ;
#315 = FACE_OUTER_BOUND ( 'NONE', #348, .T. ) ;
#316 = CARTESIAN_POINT ( 'NONE',  ( 0.3633457981002755632, -0.08017965157240246332, 0.1120733268560961809 ) ) ;
#317 = CARTESIAN_POINT ( 'NONE',  ( -0.4547077545318835012, -0.005705135288862197250, 0.1377855205959642448 ) ) ;
#318 = CARTESIAN_POINT ( 'NONE',  ( -0.2933070866141734845, 1.013771716398847640E-17, 0.1377952755905511306 ) ) ;
#319 = ORIENTED_EDGE ( 'NONE', *, *, #322, .T. ) ;
#320 = CLOSED_SHELL ( 'NONE', ( #150, #86, #46, #5, #104, #292, #74 ) ) ;
#321 = CARTESIAN_POINT ( 'NONE',  ( -0.4504933844495340178, -0.02632568863412769467, -0.1353498518246471771 ) ) ;
#322 = EDGE_CURVE ( 'NONE', #187, #187, #333, .T. ) ;
#323 = CARTESIAN_POINT ( 'NONE',  ( -0.3850129504024605853, -0.08069156319888692863, -0.1116978515616608436 ) ) ;
#324 = CC_DESIGN_PERSON_AND_ORGANIZATION_ASSIGNMENT ( #120, #82, ( #50 ) ) ;
#325 = CARTESIAN_POINT ( 'NONE',  ( -0.4274738372762922900, -0.06068492570809275177, -0.1237776555209559315 ) ) ;
#326 = DIRECTION ( 'NONE',  ( 0.000000000000000000, 0.000000000000000000, 1.000000000000000000 ) ) ;
#327 = CARTESIAN_POINT ( 'NONE',  ( -0.4541380920649580322, 0.01107978220069588855, -0.1374498671274052286 ) ) ;
#328 = FACE_OUTER_BOUND ( 'NONE', #174, .T. ) ;
#329 = CARTESIAN_POINT ( 'NONE',  ( -0.2933070866141731514, 3.173766971355005630E-18, -0.1377952755905511584 ) ) ;
#330 = DIRECTION ( 'NONE',  ( 0.000000000000000000, 0.000000000000000000, -1.000000000000000000 ) ) ;
#331 = CARTESIAN_POINT ( 'NONE',  ( -0.3951961709183756666, 0.07806416619768355436, -0.1135570036357320123 ) ) ;
#332 = CARTESIAN_POINT ( 'NONE',  ( 0.3630185456605316552, 0.08069156319888701190, 0.1116978515616607881 ) ) ;
#333 = CIRCLE ( 'NONE', #7, 0.1377952755905511584 ) ;
#334 = CARTESIAN_POINT ( 'NONE',  ( 0.2932911494722018619, -0.005223760059916635924, -0.1378046101747016916 ) ) ;
#335 = DATE_AND_TIME ( #341, #395 ) ;
#336 = EDGE_CURVE ( 'NONE', #75, #75, #111, .T. ) ;
#337 = CARTESIAN_POINT ( 'NONE',  ( 0.2976629488829534709, 0.02668830827834660011, -0.1352790306023599343 ) ) ;
#338 = CARTESIAN_POINT ( 'NONE',  ( 0.5511811023622047445, 0.000000000000000000, 0.000000000000000000 ) ) ;
#339 = CARTESIAN_POINT ( 'NONE',  ( -0.3097284783106052930, 0.04986525740810447693, -0.1287034524014501469 ) ) ;
#340 = CARTESIAN_POINT ( 'NONE',  ( 0.4233765439577763523, 0.06406331669390595562, -0.1220423444943921493 ) ) ;
#341 = CALENDAR_DATE ( 2022, 7, 11 ) ;
#342 = DIRECTION ( 'NONE',  ( -1.000000000000000000, 0.000000000000000000, 0.000000000000000000 ) ) ;
#343 = DATE_AND_TIME ( #372, #274 ) ;
#344 = CARTESIAN_POINT ( 'NONE',  ( 0.4541748145622740984, 0.01082038857029030132, -0.1374713394557158519 ) ) ;
#345 = CARTESIAN_POINT ( 'NONE',  ( 0.2932911494722019730, 0.005223760059916849295, 0.1378046101747016638 ) ) ;
#346 = ORIENTED_EDGE ( 'NONE', *, *, #191, .F. ) ;
#347 = CARTESIAN_POINT ( 'NONE',  ( 0.3954865470836421149, -0.07798413191477197859, 0.1136122308914479517 ) ) ;
#348 = EDGE_LOOP ( 'NONE', ( #426 ) ) ;
#349 = CARTESIAN_POINT ( 'NONE',  ( 0.4442719426475466027, -0.04110439681486108970, 0.1319010979918790460 ) ) ;
#350 = EDGE_LOOP ( 'NONE', ( #319 ) ) ;
#351 = CARTESIAN_POINT ( 'NONE',  ( 0.2960490262648416415, -0.02153002285164538898, 0.1362045728416040602 ) ) ;
#352 = ORIENTED_EDGE ( 'NONE', *, *, #28, .F. ) ;
#353 = FACE_BOUND ( 'NONE', #284, .T. ) ;
#354 = DIRECTION ( 'NONE',  ( 0.000000000000000000, 0.000000000000000000, -1.000000000000000000 ) ) ;
#355 = CARTESIAN_POINT ( 'NONE',  ( -0.4003535564075798581, 0.07647069241513895776, -0.1146541735702364118 ) ) ;
#356 = UNCERTAINTY_MEASURE_WITH_UNIT (LENGTH_MEASURE( 1.000000000000000082E-05 ), #49, 'distance_accuracy_value', 'NONE');
#357 = CARTESIAN_POINT ( 'NONE',  ( -0.2933070866141731514, 1.013771716398847640E-17, -0.1377952755905511306 ) ) ;
#358 = CARTESIAN_POINT ( 'NONE',  ( -0.3097066866002701757, -0.04985716022017858823, -0.1287108851712763513 ) ) ;
#359 = CALENDAR_DATE ( 2022, 7, 11 ) ;
#360 = LENGTH_MEASURE_WITH_UNIT ( LENGTH_MEASURE( 0.02539999999999999897 ), #432 );
#361 = CARTESIAN_POINT ( 'NONE',  ( 0.4547244094488189781, 0.000000000000000000, 0.1377952755905511584 ) ) ;
#362 = CARTESIAN_POINT ( 'NONE',  ( -0.3246549521052159992, 0.06406331669390590011, -0.1220423444943921215 ) ) ;
#363 = PERSON_AND_ORGANIZATION ( #201, #168 ) ;
#364 = CARTESIAN_POINT ( 'NONE',  ( 0.4383248094627220093, 0.04985716022017870619, 0.1287108851712762680 ) ) ;
#365 = DIRECTION ( 'NONE',  ( 0.000000000000000000, 0.000000000000000000, -1.000000000000000000 ) ) ;
#366 = CARTESIAN_POINT ( 'NONE',  ( 0.3793250369474979733, -0.08071706250790736115, -0.1116794247171081639 ) ) ;
#367 = CC_DESIGN_PERSON_AND_ORGANIZATION_ASSIGNMENT ( #26, #449, ( #152 ) ) ;
#368 = CC_DESIGN_APPROVAL ( #155, ( #385 ) ) ;
#369 = CARTESIAN_POINT ( 'NONE',  ( 0.3528353251446160743, 0.07806416619768370702, -0.1135570036357319013 ) ) ;
#370 = CARTESIAN_POINT ( 'NONE',  ( 0.5511811023622047445, 0.000000000000000000, 0.000000000000000000 ) ) ;
#371 = CARTESIAN_POINT ( 'NONE',  ( 0.3630185456605315442, -0.08069156319888680373, -0.1116978515616609269 ) ) ;
#372 = CALENDAR_DATE ( 2022, 7, 11 ) ;
#373 = CARTESIAN_POINT ( 'NONE',  ( 0.3793250369474979178, 0.08071706250790761095, 0.1116794247171080529 ) ) ;
#374 = CARTESIAN_POINT ( 'NONE',  ( -0.3846856979627167328, 0.08017965157240256047, -0.1120733268560960699 ) ) ;
#375 = PERSON_AND_ORGANIZATION_ROLE ( 'creator' ) ;
#376 = DIRECTION ( 'NONE',  ( 0.000000000000000000, 0.000000000000000000, -1.000000000000000000 ) ) ;
#377 = PERSON_AND_ORGANIZATION ( #201, #168 ) ;
#378 = CARTESIAN_POINT ( 'NONE',  ( 0.3846817848275188023, 0.08018204250603830352, 0.1120717154506533364 ) ) ;
#379 = CARTESIAN_POINT ( 'NONE',  ( 0.3796240427905204773, -0.08069863000613493320, 0.1116927447928845463 ) ) ;
#380 = CARTESIAN_POINT ( 'NONE',  ( 0.4273982141493437581, -0.06075012401752488689, 0.1237451273879885683 ) ) ;
#381 = CARTESIAN_POINT ( 'NONE',  ( -0.3476471896066350986, 0.07646071093538894803, 0.1146609743571785078 ) ) ;
#382 = EDGE_LOOP ( 'NONE', ( #124 ) ) ;
#383 = CARTESIAN_POINT ( 'NONE',  ( -0.4272485588564242653, -0.06088299760392550108, 0.1236800803589793579 ) ) ;
#384 = CARTESIAN_POINT ( 'NONE',  ( -0.2938566815007181976, -0.01082038857029023020, 0.1374713394557159074 ) ) ;
#385 = PRODUCT_DEFINITION ( '未知', '', #50, #295 ) ;
#386 = CARTESIAN_POINT ( 'NONE',  ( 0.3101214661546625173, -0.04958008205403251212, 0.1286464811044674139 ) ) ;
#387 = ORIENTED_EDGE ( 'NONE', *, *, #28, .T. ) ;
#388 = CARTESIAN_POINT ( 'NONE',  ( -0.4542071994250689304, 0.01058736039057624027, 0.1374902793269176804 ) ) ;
#389 = CARTESIAN_POINT ( 'NONE',  ( -0.3097284783106049599, -0.04986525740810449081, 0.1287034524014499526 ) ) ;
#390 = DIRECTION ( 'NONE',  ( 1.000000000000000000, -0.000000000000000000, -0.000000000000000000 ) ) ;
#391 = VERTEX_POINT ( 'NONE', #110 ) ;
#392 = CARTESIAN_POINT ( 'NONE',  ( -0.5314960629921260393, 0.000000000000000000, 0.000000000000000000 ) ) ;
#393 = CC_DESIGN_DATE_AND_TIME_ASSIGNMENT ( #149, #397, ( #184 ) ) ;
#394 = CARTESIAN_POINT ( 'NONE',  ( -0.2938709348861586190, -0.01091988420454515635, -0.1374630103065802023 ) ) ;
#395 = LOCAL_TIME ( 23, 55, 2.000000000000000000, #57 ) ;
#396 = CARTESIAN_POINT ( 'NONE',  ( -0.4100377295420344903, 0.07241452752425109329, -0.1172581874282737219 ) ) ;
#397 = DATE_TIME_ROLE ( 'classification_date' ) ;
#398 = SHAPE_DEFINITION_REPRESENTATION ( #405, #118 ) ;
#399 = CARTESIAN_POINT ( 'NONE',  ( -0.4503685471800386031, 0.02668830827834643357, -0.1352790306023600453 ) ) ;
#400 = CARTESIAN_POINT ( 'NONE',  ( 0.4547244094488190336, 9.817578727230945633E-17, -0.1377952755905511861 ) ) ;
#401 = CARTESIAN_POINT ( 'NONE',  ( 0.3096349823716814664, 0.04975100989259658574, 0.1287497415425893355 ) ) ;
#402 = CARTESIAN_POINT ( 'NONE',  ( 0.3036737411998713387, -0.04096121346071194408, -0.1319471945539507085 ) ) ;
#403 = EDGE_CURVE ( 'NONE', #6, #6, #140, .T. ) ;
#404 = CARTESIAN_POINT ( 'NONE',  ( 0.4547244094488189781, 0.005467208614692144718, -0.1377952755905512139 ) ) ;
#405 = PRODUCT_DEFINITION_SHAPE ( 'NONE', 'NONE',  #385 ) ;
#406 = FACE_OUTER_BOUND ( 'NONE', #102, .T. ) ;
#407 = CARTESIAN_POINT ( 'NONE',  ( 0.3952463426693026971, -0.07805245756988915540, -0.1135651496357618917 ) ) ;
#408 = MECHANICAL_CONTEXT ( 'NONE', #204, 'mechanical' ) ;
#409 = CARTESIAN_POINT ( 'NONE',  ( 0.4148025380631109593, 0.06983576790740209095, -0.1188335302694279311 ) ) ;
#410 = CARTESIAN_POINT ( 'NONE',  ( -0.3684074532724718742, 0.08069863000613503035, -0.1116927447928845185 ) ) ;
#411 = APPROVAL_STATUS ( 'not_yet_approved' ) ;
#412 = CARTESIAN_POINT ( 'NONE',  ( 0.4442719426475463806, 0.04110439681486120767, -0.1319010979918790183 ) ) ;
#413 = DIMENSIONAL_EXPONENTS ( 1.000000000000000000, 0.000000000000000000, 0.000000000000000000, 0.000000000000000000, 0.000000000000000000, 0.000000000000000000, 0.000000000000000000 ) ;
#414 = CARTESIAN_POINT ( 'NONE',  ( 0.000000000000000000, 0.000000000000000000, 0.000000000000000000 ) ) ;
#415 = DIRECTION ( 'NONE',  ( -0.000000000000000000, -0.000000000000000000, 1.000000000000000000 ) ) ;
#416 = CARTESIAN_POINT ( 'NONE',  ( 0.2933237415311087393, -0.005705135288862188576, 0.1377855205959641893 ) ) ;
#417 = CARTESIAN_POINT ( 'NONE',  ( 0.4504315466632229370, -0.02650316622911118997, 0.1353148307961225538 ) ) ;
#418 = CARTESIAN_POINT ( 'NONE',  ( 0.3528353251446163519, -0.07806416619768351273, 0.1135570036357321233 ) ) ;
#419 = CARTESIAN_POINT ( 'NONE',  ( -0.3332289579998814477, -0.06983576790740206319, 0.1188335302694280421 ) ) ;
#420 = CARTESIAN_POINT ( 'NONE',  ( -0.4103451576432166625, 0.07226113263440357704, 0.1173532866918412521 ) ) ;
#421 = DIRECTION ( 'NONE',  ( 1.000000000000000000, 0.000000000000000000, 0.000000000000000000 ) ) ;
#422 = ORIENTED_EDGE ( 'NONE', *, *, #322, .F. ) ;
#423 = CARTESIAN_POINT ( 'NONE',  ( -0.4345630074446066859, -0.05361437235596139966, 0.1270000029595255708 ) ) ;
#424 = CARTESIAN_POINT ( 'NONE',  ( -0.4504933844495338513, 0.02632568863412765303, 0.1353498518246472049 ) ) ;
#425 = CARTESIAN_POINT ( 'NONE',  ( -0.3246549521052161102, -0.06406331669390588623, 0.1220423444943921631 ) ) ;
#426 = ORIENTED_EDGE ( 'NONE', *, *, #403, .T. ) ;
#427 = CARTESIAN_POINT ( 'NONE',  ( -0.4383965136913106631, -0.04975100989259649553, -0.1287497415425893355 ) ) ;
#428 = ORIENTED_EDGE ( 'NONE', *, *, #206, .T. ) ;
#429 = CARTESIAN_POINT ( 'NONE',  ( -0.3476471896066350431, -0.07646071093538893415, -0.1146609743571785217 ) ) ;
#430 = CARTESIAN_POINT ( 'NONE',  ( -0.5511811023622047445, 0.000000000000000000, -0.1181102362204723560 ) ) ;
#431 = APPROVAL_PERSON_ORGANIZATION ( #377, #155, #91 ) ;
#432 =( LENGTH_UNIT ( ) NAMED_UNIT ( * ) SI_UNIT ( $, .METRE. ) );
#433 = CARTESIAN_POINT ( 'NONE',  ( -0.3246998790271476976, -0.06409881384300843143, -0.1220238017736111763 ) ) ;
#434 = CARTESIAN_POINT ( 'NONE',  ( -0.3037595534154458043, 0.04110439681486115909, -0.1319010979918790738 ) ) ;
#435 = CC_DESIGN_APPROVAL ( #127, ( #184 ) ) ;
#436 = CARTESIAN_POINT ( 'NONE',  ( 0.4003843064563570864, -0.07646071093538883701, -0.1146609743571785911 ) ) ;
#437 = CALENDAR_DATE ( 2022, 7, 11 ) ;
#438 = CARTESIAN_POINT ( 'NONE',  ( 0.3247513470310200989, 0.06413887267465090414, -0.1220027549475670575 ) ) ;
#439 = DIRECTION ( 'NONE',  ( -1.000000000000000000, -0.000000000000000000, -0.000000000000000000 ) ) ;
#440 = CARTESIAN_POINT ( 'NONE',  ( -0.5314960629921260393, 0.000000000000000000, 0.000000000000000000 ) ) ;
#441 = APPROVAL_DATE_TIME ( #451, #90 ) ;
#442 = CARTESIAN_POINT ( 'NONE',  ( 0.4233316170358442654, 0.06409881384300852858, 0.1220238017736111347 ) ) ;
#443 = EDGE_LOOP ( 'NONE', ( #244 ) ) ;
#444 = CARTESIAN_POINT ( 'NONE',  ( -0.3525449489793501257, 0.07798413191477207573, -0.1136122308914478546 ) ) ;
#445 = CIRCLE ( 'NONE', #114, 0.1181102362204723560 ) ;
#446 =( NAMED_UNIT ( * ) SI_UNIT ( $, .STERADIAN. ) SOLID_ANGLE_UNIT ( ) );
#447 = APPROVAL_PERSON_ORGANIZATION ( #363, #127, #185 ) ;
#448 = CARTESIAN_POINT ( 'NONE',  ( 0.3522002235151743266, 0.07841178467629575377, 0.1134144560741168067 ) ) ;
#449 = PERSON_AND_ORGANIZATION_ROLE ( 'design_owner' ) ;
#450 = CARTESIAN_POINT ( 'NONE',  ( 0.3245931933786979640, 0.06401504597007610931, 0.1220676556461901124 ) ) ;
#451 = DATE_AND_TIME ( #22, #115 ) ;
#452 = CARTESIAN_POINT ( 'NONE',  ( 0.3379937665209574171, 0.07241452752425114880, -0.1172581874282735692 ) ) ;
#453 = CARTESIAN_POINT ( 'NONE',  ( -0.3379485471009443520, 0.07239266680531684928, 0.1172718259007551472 ) ) ;
#454 = EDGE_CURVE ( 'NONE', #141, #141, #256, .T. ) ;
#455 = EDGE_LOOP ( 'NONE', ( #352 ) ) ;
#456 = CARTESIAN_POINT ( 'NONE',  ( 0.4102683710673695194, -0.07229754548352310128, 0.1173304993699532256 ) ) ;
#457 = CARTESIAN_POINT ( 'NONE',  ( -0.3037595534154456933, -0.04110439681486111746, 0.1319010979918790460 ) ) ;
#458 = CARTESIAN_POINT ( 'NONE',  ( 0.3379937665209574171, -0.07241452752425099615, 0.1172581874282737219 ) ) ;
#459 = EDGE_LOOP ( 'NONE', ( #387 ) ) ;
#460 = CARTESIAN_POINT ( 'NONE',  ( -0.4100377295420347679, -0.07241452752425103778, 0.1172581874282737080 ) ) ;
#461 = CARTESIAN_POINT ( 'NONE',  ( -0.4547403465907901565, 0.005223760059916810264, 0.1378046101747017194 ) ) ;
#462 = ORIENTED_EDGE ( 'NONE', *, *, #191, .T. ) ;
ENDSEC;
END-ISO-10303-21;
