ISO-10303-21;
HEADER;
FILE_DESCRIPTION (( 'STEP AP203' ),
    '1' );
FILE_NAME ('00093_index_4.step',
    '2022-11-07T15:55:04',
    ( '' ),
    ( '' ),
    'SwSTEP 2.0',
    'SolidWorks 2020',
    '' );
FILE_SCHEMA (( 'CONFIG_CONTROL_DESIGN' ));
ENDSEC;

DATA;
#1 = CARTESIAN_POINT ( 'NONE',  ( -0.2933070866141731514, 1.013771716398847640E-17, -0.1377952755905511306 ) ) ;
#2 = CARTESIAN_POINT ( 'NONE',  ( -0.6755938829226036946, -0.09643660404658178920, 0.09842519685039370636 ) ) ;
#3 = CARTESIAN_POINT ( 'NONE',  ( -0.3633497112354732161, -0.08018204250603816474, -0.1120717154506533642 ) ) ;
#4 = CARTESIAN_POINT ( 'NONE',  ( -1.028445934783713600, 0.000000000000000000, 0.000000000000000000 ) ) ;
#5 = CARTESIAN_POINT ( 'NONE',  ( 0.1771653543307086243, 0.2070677343047203356, 0.1377952755905512139 ) ) ;
#6 = LINE ( 'NONE', #46, #297 ) ;
#7 = DIRECTION ( 'NONE',  ( 0.000000000000000000, -1.000000000000000000, -1.184436579803117080E-16 ) ) ;
#8 = DIRECTION ( 'NONE',  ( 1.000000000000000000, -6.316995092283290436E-16, -7.735832327074893935E-32 ) ) ;
#9 = PRODUCT_RELATED_PRODUCT_CATEGORY ( 'detail', '', ( #313 ) ) ;
#10 = ADVANCED_FACE ( 'NONE', ( #219 ), #332, .F. ) ;
#11 = PERSON_AND_ORGANIZATION ( #221, #62 ) ;
#12 = FACE_OUTER_BOUND ( 'NONE', #457, .T. ) ;
#13 = EDGE_CURVE ( 'NONE', #145, #145, #186, .T. ) ;
#14 = ORIENTED_EDGE ( 'NONE', *, *, #430, .F. ) ;
#15 = CIRCLE ( 'NONE', #76, 0.1377952755905511584 ) ;
#16 = CARTESIAN_POINT ( 'NONE',  ( -0.3740157480314960092, -0.08070866141732284393, 0.09842519685039370636 ) ) ;
#17 = CARTESIAN_POINT ( 'NONE',  ( -0.1771653543307086798, 0.09643660404658178920, 0.09842519685039372024 ) ) ;
#18 = ORIENTED_EDGE ( 'NONE', *, *, #153, .F. ) ;
#19 = CALENDAR_DATE ( 2022, 7, 11 ) ;
#20 = CARTESIAN_POINT ( 'NONE',  ( 0.4273071261249893893, -0.06083414332079328107, -0.1237049618424041486 ) ) ;
#21 = ORIENTED_EDGE ( 'NONE', *, *, #304, .T. ) ;
#22 = CARTESIAN_POINT ( 'NONE',  ( 1.028445934783713600, 0.000000000000000000, 0.000000000000000000 ) ) ;
#23 = PERSON_AND_ORGANIZATION ( #221, #62 ) ;
#24 = APPLICATION_PROTOCOL_DEFINITION ( 'international standard', 'config_control_design', 1994, #510 ) ;
#25 = APPROVAL_DATE_TIME ( #216, #192 ) ;
#26 = VECTOR ( 'NONE', #40, 39.37007874015748143 ) ;
#27 = SECURITY_CLASSIFICATION ( '', '', #339 ) ;
#28 = CARTESIAN_POINT ( 'NONE',  ( 0.4504315466632228260, 0.02650316622911131487, -0.1353148307961224706 ) ) ;
#29 = DIRECTION ( 'NONE',  ( -1.000000000000000000, -0.000000000000000000, -0.000000000000000000 ) ) ;
#30 = ADVANCED_FACE ( 'NONE', ( #286, #443 ), #373, .F. ) ;
#31 = CARTESIAN_POINT ( 'NONE',  ( 0.3522002235151742155, -0.07841178467629555948, -0.1134144560741168761 ) ) ;
#32 = B_SPLINE_CURVE_WITH_KNOTS ( 'NONE', 3,
 ( #1, #385, #275, #312, #202, #193, #321, #428, #232, #198, #474, #152, #438, #43, #229, #351, #466, #469, #48, #77, #200, #129, #356, #279, #158, #358, #236, #79, #506, #281, #317, #126, #37, #435, #118, #122, #387, #432, #89, #204, #272, #472, #353, #393, #3, #45, #240, #465, #361, #151, #310, #117, #270, #427, #508, #155, #315, #411 ),
 .UNSPECIFIED., .T., .F.,
 ( 4, 2, 2, 2, 2, 2, 2, 2, 2, 2, 2, 2, 2, 2, 2, 2, 2, 2, 2, 2, 2, 2, 2, 2, 2, 2, 2, 2, 4 ),
 ( 0.000000000000000000, 0.0004101012266117115557, 0.0008202024532234231113, 0.001640404906446846223, 0.002050506133058559513, 0.002460607359670272803, 0.002870708586281986528, 0.003280809812893699818, 0.003690911039505413976, 0.004101012266117126832, 0.004511113492728840990, 0.004921214719340554281, 0.005331315945952268438, 0.005741417172563982596, 0.006151518399175695886, 0.006561619625787410044, 0.006971720852399123335, 0.007381822079010836625, 0.008202024532234264073, 0.008612125758845980833, 0.009022226985457697593, 0.009842429438681127643, 0.01025253066529284093, 0.01066263189190455422, 0.01107273311851626751, 0.01148283434512798080, 0.01230303679835140392, 0.01271313802496311547, 0.01312323925157482529 ),
 .UNSPECIFIED. ) ;
#33 = CIRCLE ( 'NONE', #455, 0.08070866141732284393 ) ;
#34 = PRODUCT_DEFINITION_SHAPE ( 'NONE', 'NONE',  #212 ) ;
#35 = CARTESIAN_POINT ( 'NONE',  ( 0.3633457981002754522, 0.08017965157240267149, -0.1120733268560960144 ) ) ;
#36 = ORIENTED_EDGE ( 'NONE', *, *, #109, .F. ) ;
#37 = CARTESIAN_POINT ( 'NONE',  ( -0.4542071994250688749, -0.01058736039057622293, -0.1374902793269176804 ) ) ;
#38 = VERTEX_POINT ( 'NONE', #2 ) ;
#39 = EDGE_LOOP ( 'NONE', ( #235 ) ) ;
#40 = DIRECTION ( 'NONE',  ( 1.000000000000000000, 0.000000000000000000, 0.000000000000000000 ) ) ;
#41 = CARTESIAN_POINT ( 'NONE',  ( 0.6755938829226035836, 0.09643660404658178920, 0.09842519685039372024 ) ) ;
#42 = EDGE_LOOP ( 'NONE', ( #278 ) ) ;
#43 = CARTESIAN_POINT ( 'NONE',  ( -0.3630281331360369901, 0.08013608651130450788, -0.1121047344106614607 ) ) ;
#44 = DIRECTION ( 'NONE',  ( -6.316995092283290436E-16, -1.000000000000000000, -1.184436579803117080E-16 ) ) ;
#45 = CARTESIAN_POINT ( 'NONE',  ( -0.3527851533936892658, -0.07805245756988919703, -0.1135651496357617807 ) ) ;
#46 = CARTESIAN_POINT ( 'NONE',  ( 0.1771653543307086243, 0.2070677343047203356, 0.09842519685039373412 ) ) ;
#47 = AXIS2_PLACEMENT_3D ( 'NONE', #285, #404, #59 ) ;
#48 = CARTESIAN_POINT ( 'NONE',  ( -0.4003535564075798581, 0.07647069241513895776, -0.1146541735702364118 ) ) ;
#49 = AXIS2_PLACEMENT_3D ( 'NONE', #494, #397, #51 ) ;
#50 = CARTESIAN_POINT ( 'NONE',  ( 0.1771653543307086243, 0.09643660404658178920, 0.09842519685039372024 ) ) ;
#51 = DIRECTION ( 'NONE',  ( 1.000000000000000000, 0.000000000000000000, 0.000000000000000000 ) ) ;
#52 = CARTESIAN_POINT ( 'NONE',  ( -0.6755938829226036946, 0.09643660404658178920, 0.09842519685039372024 ) ) ;
#53 = DIRECTION ( 'NONE',  ( 1.000000000000000000, 0.000000000000000000, 0.000000000000000000 ) ) ;
#54 = EDGE_CURVE ( 'NONE', #66, #191, #328, .T. ) ;
#55 = CARTESIAN_POINT ( 'NONE',  ( -0.1771653543307086798, 0.2070677343047203633, 0.09842519685039373412 ) ) ;
#56 = VERTEX_POINT ( 'NONE', #473 ) ;
#57 = COORDINATED_UNIVERSAL_TIME_OFFSET ( 8, 0, .AHEAD. ) ;
#58 = VERTEX_POINT ( 'NONE', #451 ) ;
#59 = DIRECTION ( 'NONE',  ( 0.000000000000000000, 0.000000000000000000, -1.000000000000000000 ) ) ;
#60 = ORIENTED_EDGE ( 'NONE', *, *, #153, .T. ) ;
#61 = CIRCLE ( 'NONE', #419, 0.1377952755905511584 ) ;
#62 = ORGANIZATION ( '未指定', '未指定', '' ) ;
#63 = VERTEX_POINT ( 'NONE', #377 ) ;
#64 = EDGE_LOOP ( 'NONE', ( #447 ) ) ;
#65 = CARTESIAN_POINT ( 'NONE',  ( -1.028445934783713600, 0.000000000000000000, -0.1181102362204724254 ) ) ;
#66 = VERTEX_POINT ( 'NONE', #41 ) ;
#67 = COORDINATED_UNIVERSAL_TIME_OFFSET ( 8, 0, .AHEAD. ) ;
#68 = CARTESIAN_POINT ( 'NONE',  ( 0.3952463426693026971, -0.07805245756988915540, -0.1135651496357618917 ) ) ;
#69 = AXIS2_PLACEMENT_3D ( 'NONE', #90, #509, #396 ) ;
#70 = CARTESIAN_POINT ( 'NONE',  ( 0.2975381116134581672, -0.02632568863412748997, -0.1353498518246472604 ) ) ;
#71 = CC_DESIGN_PERSON_AND_ORGANIZATION_ASSIGNMENT ( #367, #213, ( #313 ) ) ;
#72 = CARTESIAN_POINT ( 'NONE',  ( 0.4547244094488189781, 0.005467208614692144718, -0.1377952755905512139 ) ) ;
#73 = EDGE_CURVE ( 'NONE', #134, #134, #113, .T. ) ;
#74 = CARTESIAN_POINT ( 'NONE',  ( 0.3205576587866997840, -0.06068492570809256442, -0.1237776555209559176 ) ) ;
#75 = AXIS2_PLACEMENT_3D ( 'NONE', #280, #470, #362 ) ;
#76 = AXIS2_PLACEMENT_3D ( 'NONE', #233, #159, #318 ) ;
#77 = CARTESIAN_POINT ( 'NONE',  ( -0.4100377295420344903, 0.07241452752425109329, -0.1172581874282737219 ) ) ;
#78 = ORIENTED_EDGE ( 'NONE', *, *, #183, .F. ) ;
#79 = CARTESIAN_POINT ( 'NONE',  ( -0.4503685471800386031, 0.02668830827834643357, -0.1352790306023600453 ) ) ;
#80 = DIRECTION ( 'NONE',  ( -1.000000000000000000, 7.896243865354113045E-17, 9.669790408843617419E-33 ) ) ;
#81 = LOCAL_TIME ( 23, 55, 4.000000000000000000, #98 ) ;
#82 = ORIENTED_EDGE ( 'NONE', *, *, #288, .T. ) ;
#83 = VECTOR ( 'NONE', #436, 39.37007874015748143 ) ;
#84 = CARTESIAN_POINT ( 'NONE',  ( -0.6755938829226036946, 0.000000000000000000, 0.000000000000000000 ) ) ;
#85 = ADVANCED_FACE ( 'NONE', ( #359 ), #324, .F. ) ;
#86 = DIRECTION ( 'NONE',  ( 1.000000000000000000, -0.000000000000000000, -0.000000000000000000 ) ) ;
#87 = DIRECTION ( 'NONE',  ( -1.000000000000000000, -0.000000000000000000, 0.000000000000000000 ) ) ;
#88 = CARTESIAN_POINT ( 'NONE',  ( 0.6755938829226036946, 0.2070677343047202523, 0.09842519685039373412 ) ) ;
#89 = CARTESIAN_POINT ( 'NONE',  ( -0.4234383026842942210, -0.06401504597007601216, -0.1220676556461901680 ) ) ;
#90 = CARTESIAN_POINT ( 'NONE',  ( -0.3740157480314960092, 3.173766971355005630E-18, 0.09842519685039372024 ) ) ;
#91 = AXIS2_PLACEMENT_3D ( 'NONE', #290, #448, #137 ) ;
#92 = CARTESIAN_POINT ( 'NONE',  ( -0.1771653543307086798, 0.2070677343047203633, 0.1377952755905512139 ) ) ;
#93 = CYLINDRICAL_SURFACE ( 'NONE', #124, 0.08070866141732283006 ) ;
#94 = CARTESIAN_POINT ( 'NONE',  ( 0.4003843064563570864, -0.07646071093538883701, -0.1146609743571785911 ) ) ;
#95 = FACE_OUTER_BOUND ( 'NONE', #121, .T. ) ;
#96 = ORIENTED_EDGE ( 'NONE', *, *, #54, .F. ) ;
#97 = SHAPE_DEFINITION_REPRESENTATION ( #34, #426 ) ;
#98 = COORDINATED_UNIVERSAL_TIME_OFFSET ( 8, 0, .AHEAD. ) ;
#99 = EDGE_LOOP ( 'NONE', ( #36 ) ) ;
#100 = DIRECTION ( 'NONE',  ( 1.000000000000000000, -7.896243865354113045E-17, -9.669790408843617419E-33 ) ) ;
#101 = CARTESIAN_POINT ( 'NONE',  ( -0.3740157480314960092, 3.173766971355005630E-18, -0.1377952755905511584 ) ) ;
#102 = DIRECTION ( 'NONE',  ( 0.000000000000000000, -1.000000000000000000, -2.115516434118057216E-16 ) ) ;
#103 = EDGE_LOOP ( 'NONE', ( #128 ) ) ;
#104 = PERSON_AND_ORGANIZATION ( #221, #62 ) ;
#105 = VERTEX_POINT ( 'NONE', #65 ) ;
#106 = EDGE_LOOP ( 'NONE', ( #480, #496 ) ) ;
#107 = CALENDAR_DATE ( 2022, 7, 11 ) ;
#108 = CARTESIAN_POINT ( 'NONE',  ( 0.3630185456605315442, -0.08069156319888680373, -0.1116978515616609269 ) ) ;
#109 = EDGE_CURVE ( 'NONE', #105, #105, #471, .T. ) ;
#110 = CARTESIAN_POINT ( 'NONE',  ( 0.4006440448205219607, 0.07636832831769212182, -0.1147225330757033757 ) ) ;
#111 = CC_DESIGN_SECURITY_CLASSIFICATION ( #27, ( #320 ) ) ;
#112 = ADVANCED_FACE ( 'NONE', ( #167, #162 ), #390, .T. ) ;
#113 = CIRCLE ( 'NONE', #296, 0.1377952755905511584 ) ;
#114 = CARTESIAN_POINT ( 'NONE',  ( 0.3245931933786980750, -0.06401504597007588726, -0.1220676556461903206 ) ) ;
#115 = CARTESIAN_POINT ( 'NONE',  ( 0.2932911494722018619, -0.005223760059916635924, -0.1378046101747016916 ) ) ;
#116 = CC_DESIGN_APPROVAL ( #247, ( #212 ) ) ;
#117 = CARTESIAN_POINT ( 'NONE',  ( -0.3097066866002701757, -0.04985716022017858823, -0.1287108851712763513 ) ) ;
#118 = CARTESIAN_POINT ( 'NONE',  ( -0.4504933844495340178, -0.02632568863412769467, -0.1353498518246471771 ) ) ;
#119 = DIRECTION ( 'NONE',  ( -1.000000000000000000, -0.000000000000000000, -0.000000000000000000 ) ) ;
#120 = ADVANCED_FACE ( 'NONE', ( #322 ), #354, .F. ) ;
#121 = EDGE_LOOP ( 'NONE', ( #82, #14, #380, #507 ) ) ;
#122 = CARTESIAN_POINT ( 'NONE',  ( -0.4443577548631210128, -0.04096121346071214531, -0.1319471945539506252 ) ) ;
#123 = DIRECTION ( 'NONE',  ( -1.000000000000000000, -0.000000000000000000, -0.000000000000000000 ) ) ;
#124 = AXIS2_PLACEMENT_3D ( 'NONE', #244, #399, #53 ) ;
#125 = APPROVAL_PERSON_ORGANIZATION ( #301, #172, #343 ) ;
#126 = CARTESIAN_POINT ( 'NONE',  ( -0.4547403465907901565, -0.005223760059916806794, -0.1378046101747017194 ) ) ;
#127 = LINE ( 'NONE', #276, #83 ) ;
#128 = ORIENTED_EDGE ( 'NONE', *, *, #467, .T. ) ;
#129 = CARTESIAN_POINT ( 'NONE',  ( -0.4232801490319721416, 0.06413887267465077924, -0.1220027549475670853 ) ) ;
#130 = DIRECTION ( 'NONE',  ( -1.000000000000000000, 0.000000000000000000, 0.000000000000000000 ) ) ;
#131 = PLANE ( 'NONE',  #160 ) ;
#132 = DIRECTION ( 'NONE',  ( 9.912705577010328508E-16, 1.000000000000000000, 0.000000000000000000 ) ) ;
#133 = AXIS2_PLACEMENT_3D ( 'NONE', #205, #86, #164 ) ;
#134 = VERTEX_POINT ( 'NONE', #456 ) ;
#135 = DIRECTION ( 'NONE',  ( -1.622951189862089984E-32, -1.184436579803117080E-16, 1.000000000000000000 ) ) ;
#136 = DIRECTION ( 'NONE',  ( 0.000000000000000000, 0.000000000000000000, 1.000000000000000000 ) ) ;
#137 = DIRECTION ( 'NONE',  ( 0.000000000000000000, 0.000000000000000000, -1.000000000000000000 ) ) ;
#138 = DIRECTION ( 'NONE',  ( 1.000000000000000000, 0.000000000000000000, 0.000000000000000000 ) ) ;
#139 = PERSON_AND_ORGANIZATION_ROLE ( 'creator' ) ;
#140 = FACE_BOUND ( 'NONE', #302, .T. ) ;
#141 = ORIENTED_EDGE ( 'NONE', *, *, #251, .F. ) ;
#142 =( LENGTH_UNIT ( ) NAMED_UNIT ( * ) SI_UNIT ( $, .METRE. ) );
#143 = EDGE_LOOP ( 'NONE', ( #217 ) ) ;
#144 = VECTOR ( 'NONE', #252, 39.37007874015748143 ) ;
#145 = VERTEX_POINT ( 'NONE', #242 ) ;
#146 = CARTESIAN_POINT ( 'NONE',  ( 0.2960490262648417525, 0.02153002285164561797, -0.1362045728416040324 ) ) ;
#147 = EDGE_CURVE ( 'NONE', #38, #56, #127, .T. ) ;
#148 = CARTESIAN_POINT ( 'NONE',  ( 0.3686999905739749561, 0.08071842774499508877, -0.1116784381454696273 ) ) ;
#149 = CARTESIAN_POINT ( 'NONE',  ( 0.3018119364075721456, 0.03645031307896624828, -0.1329814144755561978 ) ) ;
#150 = EDGE_LOOP ( 'NONE', ( #258 ) ) ;
#151 = CARTESIAN_POINT ( 'NONE',  ( -0.3246998790271476976, -0.06409881384300843143, -0.1220238017736111763 ) ) ;
#152 = CARTESIAN_POINT ( 'NONE',  ( -0.3473874512424702798, 0.07636832831769203855, -0.1147225330757034312 ) ) ;
#153 = EDGE_CURVE ( 'NONE', #66, #171, #441, .T. ) ;
#154 = ORIENTED_EDGE ( 'NONE', *, *, #467, .F. ) ;
#155 = CARTESIAN_POINT ( 'NONE',  ( -0.2938709348861586190, -0.01091988420454515635, -0.1374630103065802023 ) ) ;
#156 = CARTESIAN_POINT ( 'NONE',  ( 0.6755938829226035836, 0.000000000000000000, 0.000000000000000000 ) ) ;
#157 = EDGE_CURVE ( 'NONE', #337, #191, #6, .T. ) ;
#158 = CARTESIAN_POINT ( 'NONE',  ( -0.4379100299083297232, 0.04958008205403251906, -0.1286464811044674139 ) ) ;
#159 = DIRECTION ( 'NONE',  ( 1.000000000000000000, -7.896243865354113045E-17, -9.669790408843617419E-33 ) ) ;
#160 = AXIS2_PLACEMENT_3D ( 'NONE', #5, #209, #163 ) ;
#161 = CARTESIAN_POINT ( 'NONE',  ( 1.028445934783713600, -0.09643660404658178920, 0.09842519685039370636 ) ) ;
#162 = FACE_BOUND ( 'NONE', #64, .T. ) ;
#163 = DIRECTION ( 'NONE',  ( -7.896243865354113045E-17, -1.000000000000000000, 0.000000000000000000 ) ) ;
#164 = DIRECTION ( 'NONE',  ( 0.000000000000000000, 0.000000000000000000, -1.000000000000000000 ) ) ;
#165 = VERTEX_POINT ( 'NONE', #177 ) ;
#166 = DIRECTION ( 'NONE',  ( 7.896243865354113045E-17, 1.000000000000000000, 0.000000000000000000 ) ) ;
#167 = FACE_OUTER_BOUND ( 'NONE', #261, .T. ) ;
#168 = APPLICATION_CONTEXT ( 'configuration controlled 3d designs of mechanical parts and assemblies' ) ;
#169 = CARTESIAN_POINT ( 'NONE',  ( 0.4520216727696947934, -0.02138949861217453313, -0.1362270620057097203 ) ) ;
#170 = DIRECTION ( 'NONE',  ( -1.622951189862089984E-32, -1.184436579803117080E-16, 1.000000000000000000 ) ) ;
#171 = VERTEX_POINT ( 'NONE', #239 ) ;
#172 = APPROVAL ( #374, '未指定' ) ;
#173 = CARTESIAN_POINT ( 'NONE',  ( 0.4504473092186537797, -0.02647195999915193804, -0.1353234156405213329 ) ) ;
#174 = FACE_OUTER_BOUND ( 'NONE', #274, .T. ) ;
#175 = ORIENTED_EDGE ( 'NONE', *, *, #157, .F. ) ;
#176 = PERSON_AND_ORGANIZATION_ROLE ( 'classification_officer' ) ;
#177 = CARTESIAN_POINT ( 'NONE',  ( -0.2933070866141731514, 3.173766971355005630E-18, -0.1377952755905511584 ) ) ;
#178 = CARTESIAN_POINT ( 'NONE',  ( -0.6755938829226036946, 0.2070677343047204189, 0.1377952755905512139 ) ) ;
#179 = DATE_TIME_ROLE ( 'creation_date' ) ;
#180 = CONICAL_SURFACE ( 'NONE', #133, 0.1377952755905511584, 0.7853981633974479459 ) ;
#181 = PERSON_AND_ORGANIZATION ( #221, #62 ) ;
#182 = CARTESIAN_POINT ( 'NONE',  ( 0.4383030177523871695, 0.04986525740810457408, -0.1287034524014499526 ) ) ;
#183 = EDGE_CURVE ( 'NONE', #337, #191, #370, .T. ) ;
#184 = CARTESIAN_POINT ( 'NONE',  ( 0.3333641087942757486, 0.06991580952286585715, -0.1187865597680710233 ) ) ;
#185 = CARTESIAN_POINT ( 'NONE',  ( 0.3850033629269552504, 0.08013608651130463278, -0.1121047344106614468 ) ) ;
#186 = CIRCLE ( 'NONE', #305, 0.1181102362204724116 ) ;
#187 = AXIS2_PLACEMENT_3D ( 'NONE', #214, #170, #7 ) ;
#188 = LOCAL_TIME ( 23, 55, 4.000000000000000000, #67 ) ;
#189 = CARTESIAN_POINT ( 'NONE',  ( 0.3528353251446160743, 0.07806416619768370702, -0.1135570036357319013 ) ) ;
#190 = ORIENTED_EDGE ( 'NONE', *, *, #327, .T. ) ;
#191 = VERTEX_POINT ( 'NONE', #50 ) ;
#192 = APPROVAL ( #487, '未指定' ) ;
#193 = CARTESIAN_POINT ( 'NONE',  ( -0.3037595534154458043, 0.04110439681486115909, -0.1319010979918790738 ) ) ;
#194 = EDGE_CURVE ( 'NONE', #410, #410, #329, .T. ) ;
#195 = AXIS2_PLACEMENT_3D ( 'NONE', #226, #29, #220 ) ;
#196 = EDGE_LOOP ( 'NONE', ( #437 ) ) ;
#197 = EDGE_CURVE ( 'NONE', #486, #56, #15, .T. ) ;
#198 = CARTESIAN_POINT ( 'NONE',  ( -0.3332289579998813922, 0.06983576790740204931, -0.1188335302694279866 ) ) ;
#199 = DIRECTION ( 'NONE',  ( 0.000000000000000000, 0.000000000000000000, 1.000000000000000000 ) ) ;
#200 = CARTESIAN_POINT ( 'NONE',  ( -0.4146673872687166584, 0.06991580952286573225, -0.1187865597680711205 ) ) ;
#201 = DIRECTION ( 'NONE',  ( 0.000000000000000000, -1.000000000000000000, 0.000000000000000000 ) ) ;
#202 = CARTESIAN_POINT ( 'NONE',  ( -0.2975999493997692480, 0.02650316622911123507, -0.1353148307961225261 ) ) ;
#203 = DIRECTION ( 'NONE',  ( 0.000000000000000000, 0.000000000000000000, -1.000000000000000000 ) ) ;
#204 = CARTESIAN_POINT ( 'NONE',  ( -0.4148835743011147770, -0.06978779115974383107, -0.1188616963977537772 ) ) ;
#205 = CARTESIAN_POINT ( 'NONE',  ( -1.008760895413634895, 0.000000000000000000, 0.000000000000000000 ) ) ;
#206 = PLANE ( 'NONE',  #91 ) ;
#207 = CARTESIAN_POINT ( 'NONE',  ( 1.008760895413634895, 0.000000000000000000, 0.000000000000000000 ) ) ;
#208 =( NAMED_UNIT ( * ) SI_UNIT ( $, .STERADIAN. ) SOLID_ANGLE_UNIT ( ) );
#209 = DIRECTION ( 'NONE',  ( -1.000000000000000000, 7.896243865354113045E-17, 9.669790408843617419E-33 ) ) ;
#210 = ORIENTED_EDGE ( 'NONE', *, *, #197, .T. ) ;
#211 = PERSON_AND_ORGANIZATION ( #221, #62 ) ;
#212 = PRODUCT_DEFINITION ( '未知', '', #320, #503 ) ;
#213 = PERSON_AND_ORGANIZATION_ROLE ( 'design_owner' ) ;
#214 = CARTESIAN_POINT ( 'NONE',  ( -0.6755938829226036946, -0.2253923125617765810, 0.09842519685039369248 ) ) ;
#215 = ORIENTED_EDGE ( 'NONE', *, *, #288, .F. ) ;
#216 = DATE_AND_TIME ( #250, #188 ) ;
#217 = ORIENTED_EDGE ( 'NONE', *, *, #73, .T. ) ;
#218 = VERTEX_POINT ( 'NONE', #403 ) ;
#219 = FACE_OUTER_BOUND ( 'NONE', #106, .T. ) ;
#220 = DIRECTION ( 'NONE',  ( 0.000000000000000000, 0.000000000000000000, 1.000000000000000000 ) ) ;
#221 = PERSON ( '未指定', '未指定', '未指定', ('未指定'), ('未指定'), ('未指定') ) ;
#222 =( GEOMETRIC_REPRESENTATION_CONTEXT ( 3 ) GLOBAL_UNCERTAINTY_ASSIGNED_CONTEXT ( ( #421 ) ) GLOBAL_UNIT_ASSIGNED_CONTEXT ( ( #325, #478, #208 ) ) REPRESENTATION_CONTEXT ( 'NONE', 'WORKASPACE' ) );
#223 = CARTESIAN_POINT ( 'NONE',  ( 0.3036737411998713387, -0.04096121346071194408, -0.1319471945539507085 ) ) ;
#224 = MANIFOLD_SOLID_BREP ( 'Cut-Extrude2', #307 ) ;
#225 = CARTESIAN_POINT ( 'NONE',  ( 0.2976629488829534709, 0.02668830827834660011, -0.1352790306023599343 ) ) ;
#226 = CARTESIAN_POINT ( 'NONE',  ( 1.028445934783713600, 0.000000000000000000, 0.000000000000000000 ) ) ;
#227 = CC_DESIGN_APPROVAL ( #192, ( #27 ) ) ;
#228 = CC_DESIGN_DATE_AND_TIME_ASSIGNMENT ( #245, #444, ( #27 ) ) ;
#229 = CARTESIAN_POINT ( 'NONE',  ( -0.3684074532724718742, 0.08069863000613503035, -0.1116927447928845185 ) ) ;
#230 = ADVANCED_FACE ( 'NONE', ( #389, #241 ), #180, .T. ) ;
#231 = ORIENTED_EDGE ( 'NONE', *, *, #197, .F. ) ;
#232 = CARTESIAN_POINT ( 'NONE',  ( -0.3246549521052159992, 0.06406331669390590011, -0.1220423444943921215 ) ) ;
#233 = CARTESIAN_POINT ( 'NONE',  ( -0.1771653543307086798, 0.000000000000000000, 0.000000000000000000 ) ) ;
#234 = AXIS2_PLACEMENT_3D ( 'NONE', #433, #130, #199 ) ;
#235 = ORIENTED_EDGE ( 'NONE', *, *, #194, .T. ) ;
#236 = CARTESIAN_POINT ( 'NONE',  ( -0.4462195596554199284, 0.03645031307896608175, -0.1329814144755562255 ) ) ;
#237 = FACE_OUTER_BOUND ( 'NONE', #453, .T. ) ;
#238 = DIRECTION ( 'NONE',  ( 0.000000000000000000, 0.000000000000000000, 1.000000000000000000 ) ) ;
#239 = CARTESIAN_POINT ( 'NONE',  ( 0.6755938829226035836, -0.09643660404658173368, 0.09842519685039370636 ) ) ;
#240 = CARTESIAN_POINT ( 'NONE',  ( -0.3476471896066350431, -0.07646071093538893415, -0.1146609743571785217 ) ) ;
#241 = FACE_OUTER_BOUND ( 'NONE', #352, .T. ) ;
#242 = CARTESIAN_POINT ( 'NONE',  ( 1.028445934783713600, 0.000000000000000000, -0.1181102362204724116 ) ) ;
#243 = LINE ( 'NONE', #55, #464 ) ;
#244 = CARTESIAN_POINT ( 'NONE',  ( 0.3740157480314961203, 9.477817926515488209E-17, -0.1377952755905511584 ) ) ;
#245 = DATE_AND_TIME ( #107, #330 ) ;
#246 = CARTESIAN_POINT ( 'NONE',  ( 0.4541605611768336770, -0.01091988420454507655, -0.1374630103065802300 ) ) ;
#247 = APPROVAL ( #483, '未指定' ) ;
#248 = FACE_OUTER_BOUND ( 'NONE', #431, .T. ) ;
#249 = EDGE_LOOP ( 'NONE', ( #314 ) ) ;
#250 = CALENDAR_DATE ( 2022, 7, 11 ) ;
#251 = EDGE_CURVE ( 'NONE', #66, #171, #61, .T. ) ;
#252 = DIRECTION ( 'NONE',  ( -0.000000000000000000, 1.000000000000000000, 1.184436579803117080E-16 ) ) ;
#253 = ORIENTED_EDGE ( 'NONE', *, *, #194, .F. ) ;
#254 = PERSON_AND_ORGANIZATION_ROLE ( 'creator' ) ;
#255 = AXIS2_PLACEMENT_3D ( 'NONE', #92, #100, #166 ) ;
#256 = CARTESIAN_POINT ( 'NONE',  ( 0.4383248094627218427, -0.04985716022017856047, -0.1287108851712764346 ) ) ;
#257 = FACE_BOUND ( 'NONE', #42, .T. ) ;
#258 = ORIENTED_EDGE ( 'NONE', *, *, #13, .T. ) ;
#259 = DATE_AND_TIME ( #458, #481 ) ;
#260 = CARTESIAN_POINT ( 'NONE',  ( 0.4147340943367453514, -0.06987652786093820345, -0.1188096670707637914 ) ) ;
#261 = EDGE_LOOP ( 'NONE', ( #335 ) ) ;
#262 = DIMENSIONAL_EXPONENTS ( 1.000000000000000000, 0.000000000000000000, 0.000000000000000000, 0.000000000000000000, 0.000000000000000000, 0.000000000000000000, 0.000000000000000000 ) ;
#263 = CARTESIAN_POINT ( 'NONE',  ( 0.3793250369474979733, -0.08071706250790736115, -0.1116794247171081639 ) ) ;
#264 = CARTESIAN_POINT ( 'NONE',  ( 0.2933237415311087948, 0.005705135288862413223, -0.1377855205959641338 ) ) ;
#265 = CARTESIAN_POINT ( 'NONE',  ( 0.3376863384197755780, -0.07226113263440345214, -0.1173532866918413353 ) ) ;
#266 = CC_DESIGN_DATE_AND_TIME_ASSIGNMENT ( #259, #179, ( #212 ) ) ;
#267 = CARTESIAN_POINT ( 'NONE',  ( 0.2959355970888212228, -0.02112465633843085139, -0.1362696518085262098 ) ) ;
#268 = CIRCLE ( 'NONE', #47, 0.1377952755905511584 ) ;
#269 = LOCAL_TIME ( 23, 55, 4.000000000000000000, #495 ) ;
#270 = CARTESIAN_POINT ( 'NONE',  ( -0.3038333242959176950, -0.04126688941613389228, -0.1318605166831404163 ) ) ;
#271 = ADVANCED_FACE ( 'NONE', ( #237, #284 ), #93, .F. ) ;
#272 = CARTESIAN_POINT ( 'NONE',  ( -0.4103451576432164960, -0.07226113263440359091, -0.1173532866918412243 ) ) ;
#273 = CARTESIAN_POINT ( 'NONE',  ( 0.6755938829226036946, 0.2070677343047202523, 0.1377952755905512139 ) ) ;
#274 = EDGE_LOOP ( 'NONE', ( #484, #175, #190, #18 ) ) ;
#275 = CARTESIAN_POINT ( 'NONE',  ( -0.2938566815007180866, 0.01082038857029022846, -0.1374713394557158519 ) ) ;
#276 = CARTESIAN_POINT ( 'NONE',  ( 1.028445934783713600, -0.09643660404658178920, 0.09842519685039370636 ) ) ;
#277 = AXIS2_PLACEMENT_3D ( 'NONE', #101, #405, #491 ) ;
#278 = ORIENTED_EDGE ( 'NONE', *, *, #505, .T. ) ;
#279 = CARTESIAN_POINT ( 'NONE',  ( -0.4345630074446065194, 0.05361437235596141354, -0.1270000029595255986 ) ) ;
#280 = CARTESIAN_POINT ( 'NONE',  ( -1.028445934783713600, 0.000000000000000000, 0.000000000000000000 ) ) ;
#281 = CARTESIAN_POINT ( 'NONE',  ( -0.4541380920649580322, 0.01107978220069588855, -0.1374498671274052286 ) ) ;
#282 = DIRECTION ( 'NONE',  ( 0.000000000000000000, 0.000000000000000000, -1.000000000000000000 ) ) ;
#283 = FACE_BOUND ( 'NONE', #412, .T. ) ;
#284 = FACE_OUTER_BOUND ( 'NONE', #468, .T. ) ;
#285 = CARTESIAN_POINT ( 'NONE',  ( -1.008760895413634895, 0.000000000000000000, 0.000000000000000000 ) ) ;
#286 = FACE_OUTER_BOUND ( 'NONE', #300, .T. ) ;
#287 = APPROVAL_DATE_TIME ( #333, #172 ) ;
#288 = EDGE_CURVE ( 'NONE', #486, #459, #316, .T. ) ;
#289 = APPROVAL_ROLE ( '' ) ;
#290 = CARTESIAN_POINT ( 'NONE',  ( 1.028445934783713600, 0.000000000000000000, 0.000000000000000000 ) ) ;
#291 = ORIENTED_EDGE ( 'NONE', *, *, #251, .T. ) ;
#292 = APPROVAL_ROLE ( '' ) ;
#293 = LENGTH_MEASURE_WITH_UNIT ( LENGTH_MEASURE( 0.02539999999999999897 ), #142 );
#294 = FACE_BOUND ( 'NONE', #295, .T. ) ;
#295 = EDGE_LOOP ( 'NONE', ( #449, #96, #291, #401 ) ) ;
#296 = AXIS2_PLACEMENT_3D ( 'NONE', #207, #365, #282 ) ;
#297 = VECTOR ( 'NONE', #477, 39.37007874015748143 ) ;
#298 = CARTESIAN_POINT ( 'NONE',  ( 0.4441981717670745455, -0.04126688941613376738, -0.1318605166831404440 ) ) ;
#299 = APPROVAL_PERSON_ORGANIZATION ( #450, #192, #292 ) ;
#300 = EDGE_LOOP ( 'NONE', ( #425 ) ) ;
#301 = PERSON_AND_ORGANIZATION ( #221, #62 ) ;
#302 = EDGE_LOOP ( 'NONE', ( #415 ) ) ;
#303 = CARTESIAN_POINT ( 'NONE',  ( 0.4233765439577763523, 0.06406331669390595562, -0.1220423444943921493 ) ) ;
#304 = EDGE_CURVE ( 'NONE', #38, #459, #341, .T. ) ;
#305 = AXIS2_PLACEMENT_3D ( 'NONE', #22, #138, #338 ) ;
#306 = CARTESIAN_POINT ( 'NONE',  ( 0.3476779396554124379, 0.07647069241513908266, -0.1146541735702362591 ) ) ;
#307 = CLOSED_SHELL ( 'NONE', ( #271, #488, #30, #347, #85, #230, #112, #10, #388, #363, #382, #120, #418 ) ) ;
#308 = CARTESIAN_POINT ( 'NONE',  ( 0.4520429324018245265, 0.02131467229718860337, -0.1362392554494635810 ) ) ;
#309 = B_SPLINE_CURVE_WITH_KNOTS ( 'NONE', 3,
 ( #381, #72, #423, #308, #28, #460, #182, #344, #303, #463, #348, #110, #349, #185, #383, #148, #35, #189, #306, #497, #184, #500, #422, #384, #379, #346, #149, #225, #146, #498, #264, #115, #420, #267, #70, #223, #462, #74, #114, #501, #265, #31, #108, #263, #417, #68, #94, #375, #260, #489, #20, #256, #298, #173, #169, #246, #414, #334 ),
 .UNSPECIFIED., .T., .F.,
 ( 4, 2, 2, 2, 2, 2, 2, 2, 2, 2, 2, 2, 2, 2, 2, 2, 2, 2, 2, 2, 2, 2, 2, 2, 2, 2, 2, 2, 4 ),
 ( 0.000000000000000000, 0.0004101012266117106341, 0.0008202024532234212682, 0.001640404906446844054, 0.002050506133058556911, 0.002460607359670269768, 0.002870708586281982624, 0.003280809812893695047, 0.003690911039505407904, 0.004101012266117120761, 0.004511113492728833184, 0.004921214719340546474, 0.005331315945952258897, 0.005741417172563973922, 0.006151518399175688080, 0.006561619625787403973, 0.006971720852399118130, 0.007381822079010833156, 0.008202024532234264073, 0.008612125758845979098, 0.009022226985457692389, 0.009842429438681125908, 0.01025253066529283746, 0.01066263189190454902, 0.01107273311851626231, 0.01148283434512797387, 0.01230303679835139698, 0.01271313802496311027, 0.01312323925157482182 ),
 .UNSPECIFIED. ) ;
#310 = CARTESIAN_POINT ( 'NONE',  ( -0.3207243699380029067, -0.06083414332079338516, -0.1237049618424041070 ) ) ;
#311 = ORIENTED_EDGE ( 'NONE', *, *, #446, .T. ) ;
#312 = CARTESIAN_POINT ( 'NONE',  ( -0.2959885636611677695, 0.02131467229718852704, -0.1362392554494636088 ) ) ;
#313 = PRODUCT ( '00093_index_4', '00093_index_4', '', ( #445 ) ) ;
#314 = ORIENTED_EDGE ( 'NONE', *, *, #345, .T. ) ;
#315 = CARTESIAN_POINT ( 'NONE',  ( -0.2933070866141731514, -0.005467208614692029359, -0.1377952755905511306 ) ) ;
#316 = LINE ( 'NONE', #392, #424 ) ;
#317 = CARTESIAN_POINT ( 'NONE',  ( -0.4547077545318833902, 0.005705135288862225873, -0.1377855205959642171 ) ) ;
#318 = DIRECTION ( 'NONE',  ( 0.000000000000000000, 1.000000000000000000, 0.000000000000000000 ) ) ;
#319 = AXIS2_PLACEMENT_3D ( 'NONE', #4, #123, #203 ) ;
#320 = PRODUCT_DEFINITION_FORMATION_WITH_SPECIFIED_SOURCE ( '任何', '', #313, .NOT_KNOWN. ) ;
#321 = CARTESIAN_POINT ( 'NONE',  ( -0.3097284783106052930, 0.04986525740810447693, -0.1287034524014501469 ) ) ;
#322 = FACE_OUTER_BOUND ( 'NONE', #350, .T. ) ;
#323 = PLANE ( 'NONE',  #255 ) ;
#324 = PLANE ( 'NONE',  #75 ) ;
#325 =( CONVERSION_BASED_UNIT ( 'INCH', #293 ) LENGTH_UNIT ( ) NAMED_UNIT ( #262 ) );
#326 = PLANE ( 'NONE',  #187 ) ;
#327 = EDGE_CURVE ( 'NONE', #337, #171, #391, .T. ) ;
#328 = LINE ( 'NONE', #475, #407 ) ;
#329 = CIRCLE ( 'NONE', #69, 0.08070866141732284393 ) ;
#330 = LOCAL_TIME ( 23, 55, 4.000000000000000000, #402 ) ;
#331 = CARTESIAN_POINT ( 'NONE',  ( 0.1771653543307086243, 0.2070677343047203356, 0.09842519685039373412 ) ) ;
#332 = PLANE ( 'NONE',  #499 ) ;
#333 = DATE_AND_TIME ( #19, #269 ) ;
#334 = CARTESIAN_POINT ( 'NONE',  ( 0.4547244094488190336, 9.817578727230945633E-17, -0.1377952755905511861 ) ) ;
#335 = ORIENTED_EDGE ( 'NONE', *, *, #73, .F. ) ;
#336 = FACE_OUTER_BOUND ( 'NONE', #143, .T. ) ;
#337 = VERTEX_POINT ( 'NONE', #395 ) ;
#338 = DIRECTION ( 'NONE',  ( 0.000000000000000000, 0.000000000000000000, -1.000000000000000000 ) ) ;
#339 = SECURITY_CLASSIFICATION_LEVEL ( 'unclassified' ) ;
#340 = AXIS2_PLACEMENT_3D ( 'NONE', #273, #394, #429 ) ;
#341 = CIRCLE ( 'NONE', #408, 0.1377952755905511584 ) ;
#342 = ORIENTED_EDGE ( 'NONE', *, *, #406, .F. ) ;
#343 = APPROVAL_ROLE ( '' ) ;
#344 = CARTESIAN_POINT ( 'NONE',  ( 0.4273982141493437581, 0.06075012401752507424, -0.1237451273879884989 ) ) ;
#345 = EDGE_CURVE ( 'NONE', #165, #165, #32, .T. ) ;
#346 = CARTESIAN_POINT ( 'NONE',  ( 0.3043131006806522598, 0.04101468938471659886, -0.1316278727767104806 ) ) ;
#347 = ADVANCED_FACE ( 'NONE', ( #442 ), #206, .T. ) ;
#348 = CARTESIAN_POINT ( 'NONE',  ( 0.4102683710673695194, 0.07229754548352324006, -0.1173304993699531146 ) ) ;
#349 = CARTESIAN_POINT ( 'NONE',  ( 0.3954865470836418373, 0.07798413191477215900, -0.1136122308914477713 ) ) ;
#350 = EDGE_LOOP ( 'NONE', ( #60, #141 ) ) ;
#351 = CARTESIAN_POINT ( 'NONE',  ( -0.3793315054890171178, 0.08071842774499501938, -0.1116784381454697939 ) ) ;
#352 = EDGE_LOOP ( 'NONE', ( #154 ) ) ;
#353 = CARTESIAN_POINT ( 'NONE',  ( -0.3850129504024605853, -0.08069156319888692863, -0.1116978515616608436 ) ) ;
#354 = PLANE ( 'NONE',  #340 ) ;
#355 = CC_DESIGN_PERSON_AND_ORGANIZATION_ASSIGNMENT ( #211, #254, ( #212 ) ) ;
#356 = CARTESIAN_POINT ( 'NONE',  ( -0.4272485588564242098, 0.06088299760392549415, -0.1236800803589793579 ) ) ;
#357 = DIRECTION ( 'NONE',  ( -1.000000000000000000, -0.000000000000000000, -0.000000000000000000 ) ) ;
#358 = CARTESIAN_POINT ( 'NONE',  ( -0.4437183953823399252, 0.04101468938471641845, -0.1316278727767105639 ) ) ;
#359 = FACE_OUTER_BOUND ( 'NONE', #196, .T. ) ;
#360 = AXIS2_PLACEMENT_3D ( 'NONE', #331, #135, #485 ) ;
#361 = CARTESIAN_POINT ( 'NONE',  ( -0.3332974017262467226, -0.06987652786093821733, -0.1188096670707637914 ) ) ;
#362 = DIRECTION ( 'NONE',  ( 0.000000000000000000, 0.000000000000000000, -1.000000000000000000 ) ) ;
#363 = ADVANCED_FACE ( 'NONE', ( #452, #95 ), #326, .T. ) ;
#364 = LINE ( 'NONE', #479, #144 ) ;
#365 = DIRECTION ( 'NONE',  ( -1.000000000000000000, 0.000000000000000000, 0.000000000000000000 ) ) ;
#366 = APPROVAL_DATE_TIME ( #413, #247 ) ;
#367 = PERSON_AND_ORGANIZATION ( #221, #62 ) ;
#368 = DIRECTION ( 'NONE',  ( 1.622951189862089984E-32, 1.184436579803117080E-16, -1.000000000000000000 ) ) ;
#369 = ORIENTED_EDGE ( 'NONE', *, *, #157, .T. ) ;
#370 = CIRCLE ( 'NONE', #504, 0.1377952755905511584 ) ;
#371 = CALENDAR_DATE ( 2022, 7, 11 ) ;
#372 = PLANE ( 'NONE',  #360 ) ;
#373 = CYLINDRICAL_SURFACE ( 'NONE', #277, 0.08070866141732283006 ) ;
#374 = APPROVAL_STATUS ( 'not_yet_approved' ) ;
#375 = CARTESIAN_POINT ( 'NONE',  ( 0.4100829489620478885, -0.07239266680531677989, -0.1172718259007551750 ) ) ;
#376 = DIRECTION ( 'NONE',  ( -1.000000000000000000, -0.000000000000000000, 0.000000000000000000 ) ) ;
#377 = CARTESIAN_POINT ( 'NONE',  ( 0.4547244094488189781, 9.477817926515488209E-17, -0.1377952755905511584 ) ) ;
#378 = ORIENTED_EDGE ( 'NONE', *, *, #505, .F. ) ;
#379 = CARTESIAN_POINT ( 'NONE',  ( 0.3101214661546624618, 0.04958008205403267865, -0.1286464811044672474 ) ) ;
#380 = ORIENTED_EDGE ( 'NONE', *, *, #147, .T. ) ;
#381 = CARTESIAN_POINT ( 'NONE',  ( 0.4547244094488190336, 9.817578727230945633E-17, -0.1377952755905511861 ) ) ;
#382 = ADVANCED_FACE ( 'NONE', ( #12 ), #131, .F. ) ;
#383 = CARTESIAN_POINT ( 'NONE',  ( 0.3796240427905202552, 0.08069863000613509973, -0.1116927447928843936 ) ) ;
#384 = CARTESIAN_POINT ( 'NONE',  ( 0.3134684886183854990, 0.05361437235596150375, -0.1270000029595255431 ) ) ;
#385 = CARTESIAN_POINT ( 'NONE',  ( -0.2933070866141731514, 0.005467208614692049308, -0.1377952755905511306 ) ) ;
#386 = VECTOR ( 'NONE', #44, 39.37007874015748143 ) ;
#387 = CARTESIAN_POINT ( 'NONE',  ( -0.4383965136913106631, -0.04975100989259649553, -0.1287497415425893355 ) ) ;
#388 = ADVANCED_FACE ( 'NONE', ( #248 ), #323, .F. ) ;
#389 = FACE_BOUND ( 'NONE', #99, .T. ) ;
#390 = CONICAL_SURFACE ( 'NONE', #234, 0.1181102362204724116, 0.7853981633974482790 ) ;
#391 = LINE ( 'NONE', #161, #26 ) ;
#392 = CARTESIAN_POINT ( 'NONE',  ( 1.028445934783713600, 0.09643660404658176144, 0.09842519685039373412 ) ) ;
#393 = CARTESIAN_POINT ( 'NONE',  ( -0.3687064591154941562, -0.08071706250790743054, -0.1116794247171081084 ) ) ;
#394 = DIRECTION ( 'NONE',  ( 1.000000000000000000, -6.316995092283290436E-16, -7.735832327074893935E-32 ) ) ;
#395 = CARTESIAN_POINT ( 'NONE',  ( 0.1771653543307086798, -0.09643660404658178920, 0.09842519685039370636 ) ) ;
#396 = DIRECTION ( 'NONE',  ( 0.000000000000000000, -1.000000000000000000, -2.115516434118057216E-16 ) ) ;
#397 = DIRECTION ( 'NONE',  ( 0.000000000000000000, 0.000000000000000000, 1.000000000000000000 ) ) ;
#398 = DIRECTION ( 'NONE',  ( -7.896243865354113045E-17, -1.000000000000000000, -1.184436579803117080E-16 ) ) ;
#399 = DIRECTION ( 'NONE',  ( -0.000000000000000000, -0.000000000000000000, 1.000000000000000000 ) ) ;
#400 = CARTESIAN_POINT ( 'NONE',  ( 0.3740157480314961203, 9.477817926515488209E-17, 0.09842519685039369248 ) ) ;
#401 = ORIENTED_EDGE ( 'NONE', *, *, #327, .F. ) ;
#402 = COORDINATED_UNIVERSAL_TIME_OFFSET ( 8, 0, .AHEAD. ) ;
#403 = CARTESIAN_POINT ( 'NONE',  ( -1.008760895413634895, 0.000000000000000000, -0.1377952755905511584 ) ) ;
#404 = DIRECTION ( 'NONE',  ( 1.000000000000000000, -0.000000000000000000, -0.000000000000000000 ) ) ;
#405 = DIRECTION ( 'NONE',  ( -0.000000000000000000, -0.000000000000000000, 1.000000000000000000 ) ) ;
#406 = EDGE_CURVE ( 'NONE', #58, #58, #33, .T. ) ;
#407 = VECTOR ( 'NONE', #119, 39.37007874015748143 ) ;
#408 = AXIS2_PLACEMENT_3D ( 'NONE', #84, #87, #238 ) ;
#409 = CC_DESIGN_APPROVAL ( #172, ( #320 ) ) ;
#410 = VERTEX_POINT ( 'NONE', #16 ) ;
#411 = CARTESIAN_POINT ( 'NONE',  ( -0.2933070866141731514, 1.013771716398847640E-17, -0.1377952755905511306 ) ) ;
#412 = EDGE_LOOP ( 'NONE', ( #215, #210, #434, #21 ) ) ;
#413 = DATE_AND_TIME ( #371, #81 ) ;
#414 = CARTESIAN_POINT ( 'NONE',  ( 0.4547244094488190891, -0.005467208614691967776, -0.1377952755905511584 ) ) ;
#415 = ORIENTED_EDGE ( 'NONE', *, *, #406, .T. ) ;
#416 = CC_DESIGN_PERSON_AND_ORGANIZATION_ASSIGNMENT ( #104, #176, ( #27 ) ) ;
#417 = CARTESIAN_POINT ( 'NONE',  ( 0.3846817848275188578, -0.08018204250603810923, -0.1120717154506534197 ) ) ;
#418 = ADVANCED_FACE ( 'NONE', ( #140, #174 ), #372, .T. ) ;
#419 = AXIS2_PLACEMENT_3D ( 'NONE', #156, #8, #132 ) ;
#420 = CARTESIAN_POINT ( 'NONE',  ( 0.2938242966379231436, -0.01058736039057609109, -0.1374902793269176526 ) ) ;
#421 = UNCERTAINTY_MEASURE_WITH_UNIT (LENGTH_MEASURE( 1.000000000000000082E-05 ), #325, 'distance_accuracy_value', 'NONE');
#422 = CARTESIAN_POINT ( 'NONE',  ( 0.3207829372065679752, 0.06088299760392562598, -0.1236800803589792885 ) ) ;
#423 = CARTESIAN_POINT ( 'NONE',  ( 0.4541748145622740984, 0.01082038857029030132, -0.1374713394557158519 ) ) ;
#424 = VECTOR ( 'NONE', #357, 39.37007874015748143 ) ;
#425 = ORIENTED_EDGE ( 'NONE', *, *, #345, .F. ) ;
#426 = ADVANCED_BREP_SHAPE_REPRESENTATION ( '00093_index_4', ( #224, #49 ), #222 ) ;
#427 = CARTESIAN_POINT ( 'NONE',  ( -0.2975841868443380722, -0.02647195999915196926, -0.1353234156405213884 ) ) ;
#428 = CARTESIAN_POINT ( 'NONE',  ( -0.3206332819136483714, 0.06075012401752499097, -0.1237451273879885544 ) ) ;
#429 = DIRECTION ( 'NONE',  ( 6.316995092283290436E-16, 1.000000000000000000, 0.000000000000000000 ) ) ;
#430 = EDGE_CURVE ( 'NONE', #38, #459, #364, .T. ) ;
#431 = EDGE_LOOP ( 'NONE', ( #311, #231 ) ) ;
#432 = CARTESIAN_POINT ( 'NONE',  ( -0.4274738372762922900, -0.06068492570809275177, -0.1237776555209559315 ) ) ;
#433 = CARTESIAN_POINT ( 'NONE',  ( 1.028445934783713600, 0.000000000000000000, 0.000000000000000000 ) ) ;
#434 = ORIENTED_EDGE ( 'NONE', *, *, #147, .F. ) ;
#435 = CARTESIAN_POINT ( 'NONE',  ( -0.4520958989741709066, -0.02112465633843103180, -0.1362696518085261821 ) ) ;
#436 = DIRECTION ( 'NONE',  ( 1.000000000000000000, 0.000000000000000000, 0.000000000000000000 ) ) ;
#437 = ORIENTED_EDGE ( 'NONE', *, *, #109, .T. ) ;
#438 = CARTESIAN_POINT ( 'NONE',  ( -0.3525449489793501257, 0.07798413191477207573, -0.1136122308914478546 ) ) ;
#439 = CARTESIAN_POINT ( 'NONE',  ( 0.1771653543307085410, 0.000000000000000000, 0.000000000000000000 ) ) ;
#440 = CYLINDRICAL_SURFACE ( 'NONE', #195, 0.1377952755905511584 ) ;
#441 = LINE ( 'NONE', #88, #386 ) ;
#442 = FACE_OUTER_BOUND ( 'NONE', #150, .T. ) ;
#443 = FACE_OUTER_BOUND ( 'NONE', #493, .T. ) ;
#444 = DATE_TIME_ROLE ( 'classification_date' ) ;
#445 = MECHANICAL_CONTEXT ( 'NONE', #510, 'mechanical' ) ;
#446 = EDGE_CURVE ( 'NONE', #486, #56, #243, .T. ) ;
#447 = ORIENTED_EDGE ( 'NONE', *, *, #13, .F. ) ;
#448 = DIRECTION ( 'NONE',  ( 1.000000000000000000, 0.000000000000000000, 0.000000000000000000 ) ) ;
#449 = ORIENTED_EDGE ( 'NONE', *, *, #183, .T. ) ;
#450 = PERSON_AND_ORGANIZATION ( #221, #62 ) ;
#451 = CARTESIAN_POINT ( 'NONE',  ( 0.3740157480314961203, -0.08070866141732274679, 0.09842519685039366473 ) ) ;
#452 = FACE_BOUND ( 'NONE', #39, .T. ) ;
#453 = EDGE_LOOP ( 'NONE', ( #378 ) ) ;
#454 = PERSON_AND_ORGANIZATION_ROLE ( 'design_supplier' ) ;
#455 = AXIS2_PLACEMENT_3D ( 'NONE', #400, #368, #102 ) ;
#456 = CARTESIAN_POINT ( 'NONE',  ( 1.008760895413634895, 0.000000000000000000, -0.1377952755905511584 ) ) ;
#457 = EDGE_LOOP ( 'NONE', ( #369, #78 ) ) ;
#458 = CALENDAR_DATE ( 2022, 7, 11 ) ;
#459 = VERTEX_POINT ( 'NONE', #52 ) ;
#460 = CARTESIAN_POINT ( 'NONE',  ( 0.4442719426475463806, 0.04110439681486120767, -0.1319010979918790183 ) ) ;
#461 = APPROVAL_PERSON_ORGANIZATION ( #11, #247, #289 ) ;
#462 = CARTESIAN_POINT ( 'NONE',  ( 0.3096349823716812999, -0.04975100989259625961, -0.1287497415425893632 ) ) ;
#463 = CARTESIAN_POINT ( 'NONE',  ( 0.4148025380631109593, 0.06983576790740209095, -0.1188335302694279311 ) ) ;
#464 = VECTOR ( 'NONE', #398, 39.37007874015748143 ) ;
#465 = CARTESIAN_POINT ( 'NONE',  ( -0.3379485471009442410, -0.07239266680531679377, -0.1172718259007551611 ) ) ;
#466 = CARTESIAN_POINT ( 'NONE',  ( -0.3846856979627167328, 0.08017965157240256047, -0.1120733268560960699 ) ) ;
#467 = EDGE_CURVE ( 'NONE', #218, #218, #268, .T. ) ;
#468 = EDGE_LOOP ( 'NONE', ( #342 ) ) ;
#469 = CARTESIAN_POINT ( 'NONE',  ( -0.3951961709183756666, 0.07806416619768355436, -0.1135570036357320123 ) ) ;
#470 = DIRECTION ( 'NONE',  ( 1.000000000000000000, 0.000000000000000000, 0.000000000000000000 ) ) ;
#471 = CIRCLE ( 'NONE', #319, 0.1181102362204724254 ) ;
#472 = CARTESIAN_POINT ( 'NONE',  ( -0.3958312725478179139, -0.07841178467629565663, -0.1134144560741167790 ) ) ;
#473 = CARTESIAN_POINT ( 'NONE',  ( -0.1771653543307087075, -0.09643660404658170593, 0.09842519685039370636 ) ) ;
#474 = CARTESIAN_POINT ( 'NONE',  ( -0.3377631249956228321, 0.07229754548352319843, -0.1173304993699532256 ) ) ;
#475 = CARTESIAN_POINT ( 'NONE',  ( 1.028445934783713600, 0.09643660404658176144, 0.09842519685039373412 ) ) ;
#476 = FACE_BOUND ( 'NONE', #249, .T. ) ;
#477 = DIRECTION ( 'NONE',  ( 7.896243865354113045E-17, 1.000000000000000000, 1.184436579803117080E-16 ) ) ;
#478 =( NAMED_UNIT ( * ) PLANE_ANGLE_UNIT ( ) SI_UNIT ( $, .RADIAN. ) );
#479 = CARTESIAN_POINT ( 'NONE',  ( -0.6755938829226036946, 0.2070677343047204189, 0.09842519685039373412 ) ) ;
#480 = ORIENTED_EDGE ( 'NONE', *, *, #304, .F. ) ;
#481 = LOCAL_TIME ( 23, 55, 4.000000000000000000, #57 ) ;
#482 = CC_DESIGN_PERSON_AND_ORGANIZATION_ASSIGNMENT ( #23, #139, ( #320 ) ) ;
#483 = APPROVAL_STATUS ( 'not_yet_approved' ) ;
#484 = ORIENTED_EDGE ( 'NONE', *, *, #54, .T. ) ;
#485 = DIRECTION ( 'NONE',  ( 0.000000000000000000, -1.000000000000000000, -1.184436579803117080E-16 ) ) ;
#486 = VERTEX_POINT ( 'NONE', #17 ) ;
#487 = APPROVAL_STATUS ( 'not_yet_approved' ) ;
#488 = ADVANCED_FACE ( 'NONE', ( #336, #490, #294, #257, #476, #283 ), #440, .T. ) ;
#489 = CARTESIAN_POINT ( 'NONE',  ( 0.4233316170358444874, -0.06409881384300840368, -0.1220238017736112041 ) ) ;
#490 = FACE_OUTER_BOUND ( 'NONE', #103, .T. ) ;
#491 = DIRECTION ( 'NONE',  ( 1.000000000000000000, 0.000000000000000000, 0.000000000000000000 ) ) ;
#492 = APPLICATION_PROTOCOL_DEFINITION ( 'international standard', 'config_control_design', 1994, #168 ) ;
#493 = EDGE_LOOP ( 'NONE', ( #253 ) ) ;
#494 = CARTESIAN_POINT ( 'NONE',  ( 0.000000000000000000, 0.000000000000000000, 0.000000000000000000 ) ) ;
#495 = COORDINATED_UNIVERSAL_TIME_OFFSET ( 8, 0, .AHEAD. ) ;
#496 = ORIENTED_EDGE ( 'NONE', *, *, #430, .T. ) ;
#497 = CARTESIAN_POINT ( 'NONE',  ( 0.3379937665209574171, 0.07241452752425114880, -0.1172581874282735692 ) ) ;
#498 = CARTESIAN_POINT ( 'NONE',  ( 0.2938934039980342638, 0.01107978220069605856, -0.1374498671274052009 ) ) ;
#499 = AXIS2_PLACEMENT_3D ( 'NONE', #178, #376, #136 ) ;
#500 = CARTESIAN_POINT ( 'NONE',  ( 0.3247513470310200989, 0.06413887267465090414, -0.1220027549475670575 ) ) ;
#501 = CARTESIAN_POINT ( 'NONE',  ( 0.3331479217618771305, -0.06978779115974363678, -0.1188616963977538743 ) ) ;
#502 = CC_DESIGN_PERSON_AND_ORGANIZATION_ASSIGNMENT ( #181, #454, ( #320 ) ) ;
#503 = DESIGN_CONTEXT ( 'detailed design', #168, 'design' ) ;
#504 = AXIS2_PLACEMENT_3D ( 'NONE', #439, #80, #201 ) ;
#505 = EDGE_CURVE ( 'NONE', #63, #63, #309, .T. ) ;
#506 = CARTESIAN_POINT ( 'NONE',  ( -0.4519824697981504880, 0.02153002285164542715, -0.1362045728416041157 ) ) ;
#507 = ORIENTED_EDGE ( 'NONE', *, *, #446, .F. ) ;
#508 = CARTESIAN_POINT ( 'NONE',  ( -0.2960098232932974471, -0.02138949861217452272, -0.1362270620057095816 ) ) ;
#509 = DIRECTION ( 'NONE',  ( 1.622951189862089984E-32, 1.184436579803117080E-16, -1.000000000000000000 ) ) ;
#510 = APPLICATION_CONTEXT ( 'configuration controlled 3d designs of mechanical parts and assemblies' ) ;
ENDSEC;
END-ISO-10303-21;
