ISO-10303-21;
HEADER;
FILE_DESCRIPTION (( 'STEP AP203' ),
    '1' );
FILE_NAME ('00108_index_1.step',
    '2022-11-07T15:57:58',
    ( '' ),
    ( '' ),
    'SwSTEP 2.0',
    'SolidWorks 2020',
    '' );
FILE_SCHEMA (( 'CONFIG_CONTROL_DESIGN' ));
ENDSEC;

DATA;
#1 = APPROVAL ( #121, '未指定' ) ;
#2 = CARTESIAN_POINT ( 'NONE',  ( 0.000000000000000000, -2.499999999999999556, 0.000000000000000000 ) ) ;
#3 = CONICAL_SURFACE ( 'NONE', #72, 0.4687500000000007216, 0.06291243042976459032 ) ;
#4 = ORIENTED_EDGE ( 'NONE', *, *, #23, .F. ) ;
#5 = LENGTH_MEASURE_WITH_UNIT ( LENGTH_MEASURE( 0.02539999999999999897 ), #21 );
#6 = CIRCLE ( 'NONE', #119, 0.4687500000000007216 ) ;
#7 = PRODUCT_DEFINITION ( '未知', '', #128, #65 ) ;
#8 = LOCAL_TIME ( 23, 57, 58.00000000000000000, #76 ) ;
#9 = APPROVAL_DATE_TIME ( #109, #108 ) ;
#10 = COORDINATED_UNIVERSAL_TIME_OFFSET ( 8, 0, .AHEAD. ) ;
#11 = DATE_AND_TIME ( #104, #102 ) ;
#12 = PRODUCT_RELATED_PRODUCT_CATEGORY ( 'detail', '', ( #99 ) ) ;
#13 = SPHERICAL_SURFACE ( 'NONE', #113, 0.6250000000000000000 ) ;
#14 = CC_DESIGN_APPROVAL ( #108, ( #128 ) ) ;
#15 = ADVANCED_FACE ( 'NONE', ( #105 ), #13, .T. ) ;
#16 = LOCAL_TIME ( 23, 57, 58.00000000000000000, #10 ) ;
#17 = MANIFOLD_SOLID_BREP ( 'Base-Revolve', #63 ) ;
#18 = EDGE_LOOP ( 'NONE', ( #90 ) ) ;
#19 = APPROVAL_STATUS ( 'not_yet_approved' ) ;
#20 = APPLICATION_PROTOCOL_DEFINITION ( 'international standard', 'config_control_design', 1994, #29 ) ;
#21 =( LENGTH_UNIT ( ) NAMED_UNIT ( * ) SI_UNIT ( $, .METRE. ) );
#22 = LOCAL_TIME ( 23, 57, 58.00000000000000000, #26 ) ;
#23 = EDGE_CURVE ( 'NONE', #35, #35, #6, .T. ) ;
#24 = PERSON_AND_ORGANIZATION ( #68, #62 ) ;
#25 = FACE_BOUND ( 'NONE', #115, .T. ) ;
#26 = COORDINATED_UNIVERSAL_TIME_OFFSET ( 8, 0, .AHEAD. ) ;
#27 = CARTESIAN_POINT ( 'NONE',  ( 0.000000000000000000, 0.000000000000000000, 0.000000000000000000 ) ) ;
#28 = DIMENSIONAL_EXPONENTS ( 1.000000000000000000, 0.000000000000000000, 0.000000000000000000, 0.000000000000000000, 0.000000000000000000, 0.000000000000000000, 0.000000000000000000 ) ;
#29 = APPLICATION_CONTEXT ( 'configuration controlled 3d designs of mechanical parts and assemblies' ) ;
#30 = PERSON_AND_ORGANIZATION ( #68, #62 ) ;
#31 = DIRECTION ( 'NONE',  ( 1.000000000000000000, 0.000000000000000000, 0.000000000000000000 ) ) ;
#32 = PERSON_AND_ORGANIZATION_ROLE ( 'creator' ) ;
#33 = DIRECTION ( 'NONE',  ( 0.000000000000000000, 0.000000000000000000, 1.000000000000000000 ) ) ;
#34 = APPROVAL_DATE_TIME ( #59, #1 ) ;
#35 = VERTEX_POINT ( 'NONE', #42 ) ;
#36 = CC_DESIGN_PERSON_AND_ORGANIZATION_ASSIGNMENT ( #73, #93, ( #128 ) ) ;
#37 = EDGE_LOOP ( 'NONE', ( #4 ) ) ;
#38 = APPROVAL ( #19, '未指定' ) ;
#39 = COORDINATED_UNIVERSAL_TIME_OFFSET ( 8, 0, .AHEAD. ) ;
#40 = PERSON_AND_ORGANIZATION ( #68, #62 ) ;
#41 = DIRECTION ( 'NONE',  ( 0.000000000000000000, 0.000000000000000000, 1.000000000000000000 ) ) ;
#42 = CARTESIAN_POINT ( 'NONE',  ( 0.000000000000000000, -2.499999999999999556, 0.4687500000000007216 ) ) ;
#43 = CALENDAR_DATE ( 2022, 7, 11 ) ;
#44 = PLANE ( 'NONE',  #64 ) ;
#45 = ADVANCED_FACE ( 'NONE', ( #50 ), #44, .F. ) ;
#46 = APPROVAL_PERSON_ORGANIZATION ( #40, #1, #111 ) ;
#47 = CC_DESIGN_APPROVAL ( #38, ( #7 ) ) ;
#48 = ADVANCED_BREP_SHAPE_REPRESENTATION ( '00108_index_1', ( #17, #114 ), #91 ) ;
#49 =( NAMED_UNIT ( * ) SI_UNIT ( $, .STERADIAN. ) SOLID_ANGLE_UNIT ( ) );
#50 = FACE_OUTER_BOUND ( 'NONE', #37, .T. ) ;
#51 = CC_DESIGN_PERSON_AND_ORGANIZATION_ASSIGNMENT ( #24, #69, ( #128 ) ) ;
#52 = DIRECTION ( 'NONE',  ( 0.000000000000000000, 0.000000000000000000, 1.000000000000000000 ) ) ;
#53 = UNCERTAINTY_MEASURE_WITH_UNIT (LENGTH_MEASURE( 1.000000000000000082E-05 ), #98, 'distance_accuracy_value', 'NONE');
#54 = CC_DESIGN_DATE_AND_TIME_ASSIGNMENT ( #132, #89, ( #133 ) ) ;
#55 = CC_DESIGN_APPROVAL ( #1, ( #133 ) ) ;
#56 = ORIENTED_EDGE ( 'NONE', *, *, #23, .T. ) ;
#57 = PERSON_AND_ORGANIZATION ( #68, #62 ) ;
#58 = APPROVAL_STATUS ( 'not_yet_approved' ) ;
#59 = DATE_AND_TIME ( #43, #127 ) ;
#60 = DIRECTION ( 'NONE',  ( -0.000000000000000000, 1.000000000000000000, -0.000000000000000000 ) ) ;
#61 = DIRECTION ( 'NONE',  ( 0.000000000000000000, 0.000000000000000000, 1.000000000000000000 ) ) ;
#62 = ORGANIZATION ( '未指定', '未指定', '' ) ;
#63 = CLOSED_SHELL ( 'NONE', ( #15, #45, #74 ) ) ;
#64 = AXIS2_PLACEMENT_3D ( 'NONE', #87, #138, #41 ) ;
#65 = DESIGN_CONTEXT ( 'detailed design', #129, 'design' ) ;
#66 = CARTESIAN_POINT ( 'NONE',  ( 0.000000000000000000, 0.000000000000000000, 0.000000000000000000 ) ) ;
#67 = ORIENTED_EDGE ( 'NONE', *, *, #85, .F. ) ;
#68 = PERSON ( '未指定', '未指定', '未指定', ('未指定'), ('未指定'), ('未指定') ) ;
#69 = PERSON_AND_ORGANIZATION_ROLE ( 'creator' ) ;
#70 = DATE_AND_TIME ( #134, #8 ) ;
#71 = VERTEX_POINT ( 'NONE', #124 ) ;
#72 = AXIS2_PLACEMENT_3D ( 'NONE', #125, #136, #33 ) ;
#73 = PERSON_AND_ORGANIZATION ( #68, #62 ) ;
#74 = ADVANCED_FACE ( 'NONE', ( #122, #25 ), #3, .T. ) ;
#75 = CARTESIAN_POINT ( 'NONE',  ( 0.000000000000000000, -0.03929433605146550462, 0.000000000000000000 ) ) ;
#76 = COORDINATED_UNIVERSAL_TIME_OFFSET ( 8, 0, .AHEAD. ) ;
#77 = MECHANICAL_CONTEXT ( 'NONE', #29, 'mechanical' ) ;
#78 = CC_DESIGN_DATE_AND_TIME_ASSIGNMENT ( #11, #131, ( #7 ) ) ;
#79 = CC_DESIGN_SECURITY_CLASSIFICATION ( #133, ( #128 ) ) ;
#80 = DIRECTION ( 'NONE',  ( -1.000000000000000000, 0.000000000000000000, -0.000000000000000000 ) ) ;
#81 = APPROVAL_PERSON_ORGANIZATION ( #96, #108, #103 ) ;
#82 = EDGE_LOOP ( 'NONE', ( #67 ) ) ;
#83 = CALENDAR_DATE ( 2022, 7, 11 ) ;
#84 = APPLICATION_PROTOCOL_DEFINITION ( 'international standard', 'config_control_design', 1994, #129 ) ;
#85 = EDGE_CURVE ( 'NONE', #71, #71, #100, .T. ) ;
#86 = COORDINATED_UNIVERSAL_TIME_OFFSET ( 8, 0, .AHEAD. ) ;
#87 = CARTESIAN_POINT ( 'NONE',  ( 0.000000000000000000, -2.500000000000000000, -0.4687500000000007216 ) ) ;
#88 = CC_DESIGN_PERSON_AND_ORGANIZATION_ASSIGNMENT ( #57, #126, ( #133 ) ) ;
#89 = DATE_TIME_ROLE ( 'classification_date' ) ;
#90 = ORIENTED_EDGE ( 'NONE', *, *, #85, .T. ) ;
#91 =( GEOMETRIC_REPRESENTATION_CONTEXT ( 3 ) GLOBAL_UNCERTAINTY_ASSIGNED_CONTEXT ( ( #53 ) ) GLOBAL_UNIT_ASSIGNED_CONTEXT ( ( #98, #107, #49 ) ) REPRESENTATION_CONTEXT ( 'NONE', 'WORKASPACE' ) );
#92 = PERSON_AND_ORGANIZATION ( #68, #62 ) ;
#93 = PERSON_AND_ORGANIZATION_ROLE ( 'design_supplier' ) ;
#94 = APPROVAL_ROLE ( '' ) ;
#95 = AXIS2_PLACEMENT_3D ( 'NONE', #75, #60, #135 ) ;
#96 = PERSON_AND_ORGANIZATION ( #68, #62 ) ;
#97 = CC_DESIGN_PERSON_AND_ORGANIZATION_ASSIGNMENT ( #117, #118, ( #99 ) ) ;
#98 =( CONVERSION_BASED_UNIT ( 'INCH', #5 ) LENGTH_UNIT ( ) NAMED_UNIT ( #28 ) );
#99 = PRODUCT ( '00108_index_1', '00108_index_1', '', ( #77 ) ) ;
#100 = CIRCLE ( 'NONE', #95, 0.6237635410588489027 ) ;
#101 = APPROVAL_DATE_TIME ( #70, #38 ) ;
#102 = LOCAL_TIME ( 23, 57, 58.00000000000000000, #86 ) ;
#103 = APPROVAL_ROLE ( '' ) ;
#104 = CALENDAR_DATE ( 2022, 7, 11 ) ;
#105 = FACE_OUTER_BOUND ( 'NONE', #18, .T. ) ;
#106 = DIRECTION ( 'NONE',  ( -0.000000000000000000, 1.000000000000000000, -0.000000000000000000 ) ) ;
#107 =( NAMED_UNIT ( * ) PLANE_ANGLE_UNIT ( ) SI_UNIT ( $, .RADIAN. ) );
#108 = APPROVAL ( #58, '未指定' ) ;
#109 = DATE_AND_TIME ( #83, #22 ) ;
#110 = SECURITY_CLASSIFICATION_LEVEL ( 'unclassified' ) ;
#111 = APPROVAL_ROLE ( '' ) ;
#112 = DIRECTION ( 'NONE',  ( 0.000000000000000000, 0.000000000000000000, -1.000000000000000000 ) ) ;
#113 = AXIS2_PLACEMENT_3D ( 'NONE', #27, #80, #112 ) ;
#114 = AXIS2_PLACEMENT_3D ( 'NONE', #66, #61, #31 ) ;
#115 = EDGE_LOOP ( 'NONE', ( #56 ) ) ;
#116 = CC_DESIGN_PERSON_AND_ORGANIZATION_ASSIGNMENT ( #30, #32, ( #7 ) ) ;
#117 = PERSON_AND_ORGANIZATION ( #68, #62 ) ;
#118 = PERSON_AND_ORGANIZATION_ROLE ( 'design_owner' ) ;
#119 = AXIS2_PLACEMENT_3D ( 'NONE', #2, #106, #52 ) ;
#120 = APPROVAL_PERSON_ORGANIZATION ( #92, #38, #94 ) ;
#121 = APPROVAL_STATUS ( 'not_yet_approved' ) ;
#122 = FACE_OUTER_BOUND ( 'NONE', #82, .T. ) ;
#123 = SHAPE_DEFINITION_REPRESENTATION ( #130, #48 ) ;
#124 = CARTESIAN_POINT ( 'NONE',  ( 0.000000000000000000, -0.03929433605146550462, 0.6237635410588489027 ) ) ;
#125 = CARTESIAN_POINT ( 'NONE',  ( 0.000000000000000000, -2.499999999999999556, 0.000000000000000000 ) ) ;
#126 = PERSON_AND_ORGANIZATION_ROLE ( 'classification_officer' ) ;
#127 = LOCAL_TIME ( 23, 57, 58.00000000000000000, #39 ) ;
#128 = PRODUCT_DEFINITION_FORMATION_WITH_SPECIFIED_SOURCE ( '任何', '', #99, .NOT_KNOWN. ) ;
#129 = APPLICATION_CONTEXT ( 'configuration controlled 3d designs of mechanical parts and assemblies' ) ;
#130 = PRODUCT_DEFINITION_SHAPE ( 'NONE', 'NONE',  #7 ) ;
#131 = DATE_TIME_ROLE ( 'creation_date' ) ;
#132 = DATE_AND_TIME ( #137, #16 ) ;
#133 = SECURITY_CLASSIFICATION ( '', '', #110 ) ;
#134 = CALENDAR_DATE ( 2022, 7, 11 ) ;
#135 = DIRECTION ( 'NONE',  ( 0.000000000000000000, 0.000000000000000000, 1.000000000000000000 ) ) ;
#136 = DIRECTION ( 'NONE',  ( -0.000000000000000000, 1.000000000000000000, -0.000000000000000000 ) ) ;
#137 = CALENDAR_DATE ( 2022, 7, 11 ) ;
#138 = DIRECTION ( 'NONE',  ( -0.000000000000000000, 1.000000000000000000, 0.000000000000000000 ) ) ;
ENDSEC;
END-ISO-10303-21;
