ISO-10303-21;
HEADER;
FILE_DESCRIPTION (( 'STEP AP203' ),
    '1' );
FILE_NAME ('00119_index_3.step',
    '2022-11-07T15:59:52',
    ( '' ),
    ( '' ),
    'SwSTEP 2.0',
    'SolidWorks 2020',
    '' );
FILE_SCHEMA (( 'CONFIG_CONTROL_DESIGN' ));
ENDSEC;

DATA;
#1 = CARTESIAN_POINT ( 'NONE',  ( -0.1549999999999999989, 0.5111685482960047766, -0.08948929172439190616 ) ) ;
#2 = APPLICATION_PROTOCOL_DEFINITION ( 'international standard', 'config_control_design', 1994, #265 ) ;
#3 = EDGE_LOOP ( 'NONE', ( #607, #514, #99, #328 ) ) ;
#4 = DIRECTION ( 'NONE',  ( 0.8660254037844385966, 0.000000000000000000, -0.5000000000000001110 ) ) ;
#5 = LINE ( 'NONE', #168, #590 ) ;
#6 = VECTOR ( 'NONE', #441, 39.37007874015748854 ) ;
#7 = EDGE_CURVE ( 'NONE', #330, #330, #107, .T. ) ;
#8 = DIRECTION ( 'NONE',  ( 0.000000000000000000, 0.000000000000000000, -1.000000000000000000 ) ) ;
#9 = ORIENTED_EDGE ( 'NONE', *, *, #705, .F. ) ;
#10 = CARTESIAN_POINT ( 'NONE',  ( 0.000000000000000000, 1.299999999999999822, 0.000000000000000000 ) ) ;
#11 = CARTESIAN_POINT ( 'NONE',  ( 0.1549999999999998601, 1.108699999999999797, -0.08948929172439201718 ) ) ;
#12 = VERTEX_POINT ( 'NONE', #230 ) ;
#13 = ORIENTED_EDGE ( 'NONE', *, *, #222, .T. ) ;
#14 = CARTESIAN_POINT ( 'NONE',  ( -0.1549999999999999989, 0.5111685482960047766, 0.08948929172439197555 ) ) ;
#15 = VERTEX_POINT ( 'NONE', #337 ) ;
#16 = PERSON_AND_ORGANIZATION ( #78, #646 ) ;
#17 = ORIENTED_EDGE ( 'NONE', *, *, #248, .T. ) ;
#18 = DIRECTION ( 'NONE',  ( 0.000000000000000000, 0.000000000000000000, 1.000000000000000000 ) ) ;
#19 = AXIS2_PLACEMENT_3D ( 'NONE', #648, #372, #491 ) ;
#20 = APPROVAL_ROLE ( '' ) ;
#21 = ORIENTED_EDGE ( 'NONE', *, *, #694, .F. ) ;
#22 = APPROVAL_PERSON_ORGANIZATION ( #574, #204, #566 ) ;
#23 = CARTESIAN_POINT ( 'NONE',  ( -2.561107494060246767E-17, 0.5312000000000000055, 0.1789785834487839511 ) ) ;
#24 = CALENDAR_DATE ( 2022, 7, 11 ) ;
#25 = ORIENTED_EDGE ( 'NONE', *, *, #505, .T. ) ;
#26 = CARTESIAN_POINT ( 'NONE',  ( -0.1549999999999999989, 0.5312000000000000055, 0.08948929172439197555 ) ) ;
#27 = ORIENTED_EDGE ( 'NONE', *, *, #353, .T. ) ;
#28 = DIRECTION ( 'NONE',  ( 0.8660254037844385966, 0.000000000000000000, 0.5000000000000000000 ) ) ;
#29 = CC_DESIGN_PERSON_AND_ORGANIZATION_ASSIGNMENT ( #618, #675, ( #333 ) ) ;
#30 = CARTESIAN_POINT ( 'NONE',  ( -0.1549999999999999989, 0.5111685482960047766, -0.2684678751731757185 ) ) ;
#31 = VECTOR ( 'NONE', #18, 39.37007874015748143 ) ;
#32 = LOCAL_TIME ( 23, 59, 52.00000000000000000, #349 ) ;
#33 = CARTESIAN_POINT ( 'NONE',  ( 0.1549999999999999156, 1.108699999999999797, 0.08948929172439192004 ) ) ;
#34 = CARTESIAN_POINT ( 'NONE',  ( 0.1549999999999999156, 1.108699999999999797, 0.08948929172439192004 ) ) ;
#35 = EDGE_CURVE ( 'NONE', #665, #402, #601, .T. ) ;
#36 = EDGE_LOOP ( 'NONE', ( #285 ) ) ;
#37 = FACE_OUTER_BOUND ( 'NONE', #459, .T. ) ;
#38 = VECTOR ( 'NONE', #664, 39.37007874015748143 ) ;
#39 = VERTEX_POINT ( 'NONE', #115 ) ;
#40 = EDGE_LOOP ( 'NONE', ( #201, #495, #641, #13 ) ) ;
#41 = DIRECTION ( 'NONE',  ( -0.000000000000000000, -1.000000000000000000, -0.000000000000000000 ) ) ;
#42 =( CONVERSION_BASED_UNIT ( 'INCH', #538 ) LENGTH_UNIT ( ) NAMED_UNIT ( #97 ) );
#43 = ORIENTED_EDGE ( 'NONE', *, *, #478, .T. ) ;
#44 = LINE ( 'NONE', #703, #572 ) ;
#45 = ADVANCED_FACE ( 'NONE', ( #233 ), #332, .T. ) ;
#46 = ORIENTED_EDGE ( 'NONE', *, *, #94, .F. ) ;
#47 = DIRECTION ( 'NONE',  ( -0.000000000000000000, -1.000000000000000000, -0.000000000000000000 ) ) ;
#48 = ORIENTED_EDGE ( 'NONE', *, *, #464, .T. ) ;
#49 = DIRECTION ( 'NONE',  ( 0.000000000000000000, 1.000000000000000000, 0.000000000000000000 ) ) ;
#50 = ADVANCED_FACE ( 'NONE', ( #506 ), #343, .T. ) ;
#51 = AXIS2_PLACEMENT_3D ( 'NONE', #171, #504, #69 ) ;
#52 = AXIS2_PLACEMENT_3D ( 'NONE', #30, #82, #686 ) ;
#53 = EDGE_LOOP ( 'NONE', ( #221, #621, #488, #262 ) ) ;
#54 = FACE_BOUND ( 'NONE', #651, .T. ) ;
#55 = DIRECTION ( 'NONE',  ( 0.000000000000000000, 1.000000000000000000, 0.000000000000000000 ) ) ;
#56 = CARTESIAN_POINT ( 'NONE',  ( 0.1549999999999998601, 0.9636999999999998900, -0.08948929172439201718 ) ) ;
#57 = CARTESIAN_POINT ( 'NONE',  ( -2.561107494060246767E-17, 0.5111685482960047766, 0.1789785834487839511 ) ) ;
#58 = VERTEX_POINT ( 'NONE', #1 ) ;
#59 = APPLICATION_CONTEXT ( 'configuration controlled 3d designs of mechanical parts and assemblies' ) ;
#60 = LINE ( 'NONE', #276, #625 ) ;
#61 = DIRECTION ( 'NONE',  ( 0.000000000000000000, 1.000000000000000000, 0.000000000000000000 ) ) ;
#62 = CARTESIAN_POINT ( 'NONE',  ( -3.414809992080329639E-17, 0.9636999999999998900, -0.1789785834487838678 ) ) ;
#63 = EDGE_LOOP ( 'NONE', ( #253, #476, #231, #139 ) ) ;
#64 = LINE ( 'NONE', #215, #210 ) ;
#65 = DIRECTION ( 'NONE',  ( -0.000000000000000000, -1.000000000000000000, -0.000000000000000000 ) ) ;
#66 = VECTOR ( 'NONE', #271, 39.37007874015748143 ) ;
#67 = VERTEX_POINT ( 'NONE', #502 ) ;
#68 = ORIENTED_EDGE ( 'NONE', *, *, #371, .T. ) ;
#69 = DIRECTION ( 'NONE',  ( 0.000000000000000000, 0.000000000000000000, -1.000000000000000000 ) ) ;
#70 = CARTESIAN_POINT ( 'NONE',  ( 0.000000000000000000, 0.000000000000000000, 0.000000000000000000 ) ) ;
#71 = CALENDAR_DATE ( 2022, 7, 11 ) ;
#72 = ORIENTED_EDGE ( 'NONE', *, *, #187, .F. ) ;
#73 = DIRECTION ( 'NONE',  ( -0.8660254037844388186, 0.000000000000000000, -0.4999999999999997224 ) ) ;
#74 = ADVANCED_FACE ( 'NONE', ( #448 ), #549, .F. ) ;
#75 = COORDINATED_UNIVERSAL_TIME_OFFSET ( 8, 0, .AHEAD. ) ;
#76 = ORIENTED_EDGE ( 'NONE', *, *, #564, .T. ) ;
#77 = FACE_OUTER_BOUND ( 'NONE', #216, .T. ) ;
#78 = PERSON ( '未指定', '未指定', '未指定', ('未指定'), ('未指定'), ('未指定') ) ;
#79 = CIRCLE ( 'NONE', #581, 0.2812500000000000555 ) ;
#80 = PERSON_AND_ORGANIZATION_ROLE ( 'creator' ) ;
#81 = ORIENTED_EDGE ( 'NONE', *, *, #591, .T. ) ;
#82 = DIRECTION ( 'NONE',  ( 0.000000000000000000, 1.000000000000000000, -0.000000000000000000 ) ) ;
#83 = PERSON_AND_ORGANIZATION ( #78, #646 ) ;
#84 = VERTEX_POINT ( 'NONE', #613 ) ;
#85 = PLANE ( 'NONE',  #546 ) ;
#86 = CC_DESIGN_PERSON_AND_ORGANIZATION_ASSIGNMENT ( #16, #80, ( #397 ) ) ;
#87 = ADVANCED_FACE ( 'NONE', ( #561, #114 ), #426, .T. ) ;
#88 = DIRECTION ( 'NONE',  ( 0.000000000000000000, 1.000000000000000000, 0.000000000000000000 ) ) ;
#89 = DIRECTION ( 'NONE',  ( -0.000000000000000000, -1.000000000000000000, -0.000000000000000000 ) ) ;
#90 = AXIS2_PLACEMENT_3D ( 'NONE', #603, #213, #103 ) ;
#91 = CARTESIAN_POINT ( 'NONE',  ( 0.1549999999999999434, 0.5111685482960047766, 0.08948929172439193391 ) ) ;
#92 = VERTEX_POINT ( 'NONE', #56 ) ;
#93 = FACE_OUTER_BOUND ( 'NONE', #3, .T. ) ;
#94 = EDGE_CURVE ( 'NONE', #289, #367, #379, .T. ) ;
#95 = ORIENTED_EDGE ( 'NONE', *, *, #438, .T. ) ;
#96 = DIRECTION ( 'NONE',  ( 3.815886712565811182E-16, 0.000000000000000000, 1.000000000000000000 ) ) ;
#97 = DIMENSIONAL_EXPONENTS ( 1.000000000000000000, 0.000000000000000000, 0.000000000000000000, 0.000000000000000000, 0.000000000000000000, 0.000000000000000000, 0.000000000000000000 ) ;
#98 = AXIS2_PLACEMENT_3D ( 'NONE', #616, #177, #366 ) ;
#99 = ORIENTED_EDGE ( 'NONE', *, *, #365, .F. ) ;
#100 = CARTESIAN_POINT ( 'NONE',  ( -4.695363739110452099E-17, 1.108699999999999797, 0.1789785834487838678 ) ) ;
#101 = ORIENTED_EDGE ( 'NONE', *, *, #7, .T. ) ;
#102 = EDGE_CURVE ( 'NONE', #301, #15, #219, .T. ) ;
#103 = DIRECTION ( 'NONE',  ( 0.000000000000000000, 0.000000000000000000, -1.000000000000000000 ) ) ;
#104 = ORIENTED_EDGE ( 'NONE', *, *, #322, .T. ) ;
#105 = CARTESIAN_POINT ( 'NONE',  ( 0.1549999999999999434, 0.5111685482960047766, 0.08948929172439193391 ) ) ;
#106 = FACE_OUTER_BOUND ( 'NONE', #259, .T. ) ;
#107 = CIRCLE ( 'NONE', #645, 0.09844999999999999585 ) ;
#108 = AXIS2_PLACEMENT_3D ( 'NONE', #477, #206, #362 ) ;
#109 = CARTESIAN_POINT ( 'NONE',  ( -0.1549999999999999434, 1.108699999999999797, -0.08948929172439193391 ) ) ;
#110 = DIRECTION ( 'NONE',  ( 0.000000000000000000, 1.000000000000000000, -0.000000000000000000 ) ) ;
#111 = LINE ( 'NONE', #62, #315 ) ;
#112 = EDGE_CURVE ( 'NONE', #490, #411, #5, .T. ) ;
#113 = CARTESIAN_POINT ( 'NONE',  ( 0.1549999999999999156, 0.5111685482960047766, -0.08948929172439200330 ) ) ;
#114 = FACE_BOUND ( 'NONE', #660, .T. ) ;
#115 = CARTESIAN_POINT ( 'NONE',  ( 0.000000000000000000, 0.5111685482960047766, 0.09845000000000000973 ) ) ;
#116 = ORIENTED_EDGE ( 'NONE', *, *, #478, .F. ) ;
#117 = CARTESIAN_POINT ( 'NONE',  ( 0.1549999999999999156, 0.5312000000000000055, -0.08948929172439200330 ) ) ;
#118 = ADVANCED_FACE ( 'NONE', ( #553, #277 ), #408, .T. ) ;
#119 = DIRECTION ( 'NONE',  ( 0.000000000000000000, 0.000000000000000000, -1.000000000000000000 ) ) ;
#120 = VERTEX_POINT ( 'NONE', #559 ) ;
#121 = DIRECTION ( 'NONE',  ( -0.8660254037844388186, 0.000000000000000000, -0.4999999999999995559 ) ) ;
#122 = AXIS2_PLACEMENT_3D ( 'NONE', #497, #226, #444 ) ;
#123 = CARTESIAN_POINT ( 'NONE',  ( 0.000000000000000000, 0.2999999999999999334, 0.000000000000000000 ) ) ;
#124 = AXIS2_PLACEMENT_3D ( 'NONE', #568, #403, #677 ) ;
#125 = DATE_AND_TIME ( #569, #673 ) ;
#126 = ORIENTED_EDGE ( 'NONE', *, *, #102, .F. ) ;
#127 = ADVANCED_FACE ( 'NONE', ( #172, #269 ), #175, .T. ) ;
#128 = LINE ( 'NONE', #238, #516 ) ;
#129 = EDGE_CURVE ( 'NONE', #289, #208, #392, .T. ) ;
#130 = APPROVAL_STATUS ( 'not_yet_approved' ) ;
#131 = EDGE_LOOP ( 'NONE', ( #104, #126, #695, #355 ) ) ;
#132 = DIRECTION ( 'NONE',  ( 0.000000000000000000, -0.000000000000000000, 1.000000000000000000 ) ) ;
#133 = CALENDAR_DATE ( 2022, 7, 11 ) ;
#134 = ORIENTED_EDGE ( 'NONE', *, *, #631, .F. ) ;
#135 = LINE ( 'NONE', #299, #691 ) ;
#136 = VECTOR ( 'NONE', #552, 39.37007874015748143 ) ;
#137 = AXIS2_PLACEMENT_3D ( 'NONE', #284, #220, #8 ) ;
#138 = DATE_AND_TIME ( #671, #200 ) ;
#139 = ORIENTED_EDGE ( 'NONE', *, *, #187, .T. ) ;
#140 = CARTESIAN_POINT ( 'NONE',  ( 0.1549999999999999156, 0.9636999999999998900, 0.08948929172439192004 ) ) ;
#141 = EDGE_CURVE ( 'NONE', #120, #120, #254, .T. ) ;
#142 = DIRECTION ( 'NONE',  ( 0.000000000000000000, 1.000000000000000000, 0.000000000000000000 ) ) ;
#143 = DIRECTION ( 'NONE',  ( -3.815886712565811182E-16, 0.000000000000000000, -1.000000000000000000 ) ) ;
#144 = AXIS2_PLACEMENT_3D ( 'NONE', #70, #61, #389 ) ;
#145 = DIRECTION ( 'NONE',  ( -1.907943356282905838E-16, 0.000000000000000000, 1.000000000000000000 ) ) ;
#146 = VECTOR ( 'NONE', #145, 39.37007874015748143 ) ;
#147 = CARTESIAN_POINT ( 'NONE',  ( 0.1549999999999999156, 0.9636999999999998900, 0.08948929172439192004 ) ) ;
#148 = ADVANCED_FACE ( 'NONE', ( #489 ), #339, .T. ) ;
#149 = ORIENTED_EDGE ( 'NONE', *, *, #260, .T. ) ;
#150 = CARTESIAN_POINT ( 'NONE',  ( -2.561107494060246767E-17, 0.5111685482960047766, 0.1789785834487839511 ) ) ;
#151 = EDGE_LOOP ( 'NONE', ( #17 ) ) ;
#152 = CC_DESIGN_PERSON_AND_ORGANIZATION_ASSIGNMENT ( #682, #188, ( #449 ) ) ;
#153 = LINE ( 'NONE', #34, #326 ) ;
#154 =( GEOMETRIC_REPRESENTATION_CONTEXT ( 3 ) GLOBAL_UNCERTAINTY_ASSIGNED_CONTEXT ( ( #527 ) ) GLOBAL_UNIT_ASSIGNED_CONTEXT ( ( #42, #482, #169 ) ) REPRESENTATION_CONTEXT ( 'NONE', 'WORKASPACE' ) );
#155 = EDGE_LOOP ( 'NONE', ( #609 ) ) ;
#156 = SHAPE_DEFINITION_REPRESENTATION ( #507, #698 ) ;
#157 = CARTESIAN_POINT ( 'NONE',  ( 0.000000000000000000, 1.108699999999999797, 0.000000000000000000 ) ) ;
#158 = ORIENTED_EDGE ( 'NONE', *, *, #207, .T. ) ;
#159 = DIRECTION ( 'NONE',  ( -0.8660254037844388186, 0.000000000000000000, -0.4999999999999995559 ) ) ;
#160 = VERTEX_POINT ( 'NONE', #666 ) ;
#161 = LINE ( 'NONE', #117, #304 ) ;
#162 = ORIENTED_EDGE ( 'NONE', *, *, #643, .T. ) ;
#163 = CARTESIAN_POINT ( 'NONE',  ( -0.1549999999999999989, 0.5111685482960047766, 0.08948929172439197555 ) ) ;
#164 = CARTESIAN_POINT ( 'NONE',  ( 0.000000000000000000, 1.108699999999999797, 0.09844999999999999585 ) ) ;
#165 = CARTESIAN_POINT ( 'NONE',  ( -3.414809992080329023E-17, 0.5111685482960047766, -0.1789785834487838678 ) ) ;
#166 = AXIS2_PLACEMENT_3D ( 'NONE', #395, #378, #600 ) ;
#167 = VECTOR ( 'NONE', #183, 39.37007874015748854 ) ;
#168 = CARTESIAN_POINT ( 'NONE',  ( -4.695363739110452099E-17, 0.9636999999999998900, 0.1789785834487838678 ) ) ;
#169 =( NAMED_UNIT ( * ) SI_UNIT ( $, .STERADIAN. ) SOLID_ANGLE_UNIT ( ) );
#170 = EDGE_LOOP ( 'NONE', ( #214, #323, #116, #422 ) ) ;
#171 = CARTESIAN_POINT ( 'NONE',  ( 0.000000000000000000, 0.000000000000000000, 0.000000000000000000 ) ) ;
#172 = FACE_OUTER_BOUND ( 'NONE', #711, .T. ) ;
#173 = DIRECTION ( 'NONE',  ( -1.907943356282905591E-16, 0.000000000000000000, -1.000000000000000000 ) ) ;
#174 = ORIENTED_EDGE ( 'NONE', *, *, #508, .T. ) ;
#175 = CYLINDRICAL_SURFACE ( 'NONE', #51, 0.09844999999999999585 ) ;
#176 = DIRECTION ( 'NONE',  ( 0.000000000000000000, 0.000000000000000000, -1.000000000000000000 ) ) ;
#177 = DIRECTION ( 'NONE',  ( -0.000000000000000000, -1.000000000000000000, -0.000000000000000000 ) ) ;
#178 = FACE_OUTER_BOUND ( 'NONE', #649, .T. ) ;
#179 = VECTOR ( 'NONE', #680, 39.37007874015748143 ) ;
#180 = ADVANCED_FACE ( 'NONE', ( #612 ), #433, .F. ) ;
#181 = PERSON_AND_ORGANIZATION_ROLE ( 'design_supplier' ) ;
#182 = ORIENTED_EDGE ( 'NONE', *, *, #112, .F. ) ;
#183 = DIRECTION ( 'NONE',  ( -0.8660254037844385966, 0.000000000000000000, 0.5000000000000000000 ) ) ;
#184 = APPROVAL_STATUS ( 'not_yet_approved' ) ;
#185 = ORIENTED_EDGE ( 'NONE', *, *, #512, .T. ) ;
#186 = FACE_BOUND ( 'NONE', #36, .T. ) ;
#187 = EDGE_CURVE ( 'NONE', #467, #377, #656, .T. ) ;
#188 = PERSON_AND_ORGANIZATION_ROLE ( 'design_owner' ) ;
#189 = ORIENTED_EDGE ( 'NONE', *, *, #365, .T. ) ;
#190 = LINE ( 'NONE', #303, #475 ) ;
#191 = AXIS2_PLACEMENT_3D ( 'NONE', #393, #287, #119 ) ;
#192 = ORIENTED_EDGE ( 'NONE', *, *, #129, .T. ) ;
#193 = PLANE ( 'NONE',  #360 ) ;
#194 = CARTESIAN_POINT ( 'NONE',  ( -0.1549999999999999156, 1.108699999999999797, -0.2684678751731757185 ) ) ;
#195 = EDGE_CURVE ( 'NONE', #676, #377, #161, .T. ) ;
#196 = DIRECTION ( 'NONE',  ( 0.5000000000000001110, -0.000000000000000000, 0.8660254037844385966 ) ) ;
#197 = ADVANCED_FACE ( 'NONE', ( #710 ), #560, .T. ) ;
#198 = CYLINDRICAL_SURFACE ( 'NONE', #415, 0.09844999999999999585 ) ;
#199 = AXIS2_PLACEMENT_3D ( 'NONE', #100, #364, #311 ) ;
#200 = LOCAL_TIME ( 23, 59, 52.00000000000000000, #405 ) ;
#201 = ORIENTED_EDGE ( 'NONE', *, *, #438, .F. ) ;
#202 = CARTESIAN_POINT ( 'NONE',  ( -4.695363739110452099E-17, 0.9636999999999998900, 0.1789785834487838678 ) ) ;
#203 = CARTESIAN_POINT ( 'NONE',  ( 0.000000000000000000, 0.2999999999999999334, -0.2030000000000000138 ) ) ;
#204 = APPROVAL ( #184, '未指定' ) ;
#205 = ORIENTED_EDGE ( 'NONE', *, *, #505, .F. ) ;
#206 = DIRECTION ( 'NONE',  ( -0.000000000000000000, -1.000000000000000000, 0.000000000000000000 ) ) ;
#207 = EDGE_CURVE ( 'NONE', #402, #160, #64, .T. ) ;
#208 = VERTEX_POINT ( 'NONE', #321 ) ;
#209 = PLANE ( 'NONE',  #268 ) ;
#210 = VECTOR ( 'NONE', #286, 39.37007874015748143 ) ;
#211 = AXIS2_PLACEMENT_3D ( 'NONE', #150, #196, #263 ) ;
#212 = EDGE_LOOP ( 'NONE', ( #539, #68, #95, #314, #158, #483 ) ) ;
#213 = DIRECTION ( 'NONE',  ( -0.000000000000000000, -1.000000000000000000, -0.000000000000000000 ) ) ;
#214 = ORIENTED_EDGE ( 'NONE', *, *, #694, .T. ) ;
#215 = CARTESIAN_POINT ( 'NONE',  ( -2.561107494060246767E-17, 0.5312000000000000055, 0.1789785834487839511 ) ) ;
#216 = EDGE_LOOP ( 'NONE', ( #134, #485, #454, #541, #432, #9 ) ) ;
#217 = DIRECTION ( 'NONE',  ( -0.000000000000000000, -1.000000000000000000, -0.000000000000000000 ) ) ;
#218 = PLANE ( 'NONE',  #166 ) ;
#219 = LINE ( 'NONE', #437, #470 ) ;
#220 = DIRECTION ( 'NONE',  ( -0.000000000000000000, -1.000000000000000000, -0.000000000000000000 ) ) ;
#221 = ORIENTED_EDGE ( 'NONE', *, *, #207, .F. ) ;
#222 = EDGE_CURVE ( 'NONE', #575, #334, #443, .T. ) ;
#223 = CARTESIAN_POINT ( 'NONE',  ( -4.695363739110452099E-17, 1.108699999999999797, 0.1789785834487838678 ) ) ;
#224 = VECTOR ( 'NONE', #159, 39.37007874015748854 ) ;
#225 = CC_DESIGN_SECURITY_CLASSIFICATION ( #528, ( #397 ) ) ;
#226 = DIRECTION ( 'NONE',  ( -0.000000000000000000, -1.000000000000000000, -0.000000000000000000 ) ) ;
#227 = EDGE_LOOP ( 'NONE', ( #551, #523, #317, #149 ) ) ;
#228 = DIRECTION ( 'NONE',  ( 0.000000000000000000, 0.000000000000000000, 1.000000000000000000 ) ) ;
#229 = DIRECTION ( 'NONE',  ( -0.4999999999999996114, 0.000000000000000000, 0.8660254037844388186 ) ) ;
#230 = CARTESIAN_POINT ( 'NONE',  ( 0.000000000000000000, 0.5312000000000000055, 0.09844999999999999585 ) ) ;
#231 = ORIENTED_EDGE ( 'NONE', *, *, #631, .T. ) ;
#232 = DIRECTION ( 'NONE',  ( 0.000000000000000000, 1.000000000000000000, 0.000000000000000000 ) ) ;
#233 = FACE_OUTER_BOUND ( 'NONE', #462, .T. ) ;
#234 = EDGE_LOOP ( 'NONE', ( #707 ) ) ;
#235 = CARTESIAN_POINT ( 'NONE',  ( -0.1549999999999999989, 0.5312000000000000055, -0.08948929172439190616 ) ) ;
#236 = AXIS2_PLACEMENT_3D ( 'NONE', #670, #617, #500 ) ;
#237 = ORIENTED_EDGE ( 'NONE', *, *, #222, .F. ) ;
#238 = CARTESIAN_POINT ( 'NONE',  ( -0.1549999999999999989, 0.5111685482960047766, 0.08948929172439197555 ) ) ;
#239 = APPROVAL_DATE_TIME ( #401, #712 ) ;
#240 = ORIENTED_EDGE ( 'NONE', *, *, #353, .F. ) ;
#241 = FACE_BOUND ( 'NONE', #151, .T. ) ;
#242 = APPROVAL_STATUS ( 'not_yet_approved' ) ;
#243 = ORIENTED_EDGE ( 'NONE', *, *, #141, .T. ) ;
#244 = LINE ( 'NONE', #511, #31 ) ;
#245 = AXIS2_PLACEMENT_3D ( 'NONE', #548, #543, #228 ) ;
#246 = AXIS2_PLACEMENT_3D ( 'NONE', #398, #513, #291 ) ;
#247 = CARTESIAN_POINT ( 'NONE',  ( 0.06845000000000001084, 1.299999999999999822, 0.000000000000000000 ) ) ;
#248 = EDGE_CURVE ( 'NONE', #39, #39, #294, .T. ) ;
#249 = ADVANCED_FACE ( 'NONE', ( #178 ), #218, .T. ) ;
#250 = DIRECTION ( 'NONE',  ( -0.000000000000000000, -1.000000000000000000, -0.000000000000000000 ) ) ;
#251 = ADVANCED_FACE ( 'NONE', ( #436, #106 ), #384, .T. ) ;
#252 = CARTESIAN_POINT ( 'NONE',  ( -3.414809992080329023E-17, 0.5111685482960047766, -0.1789785834487838678 ) ) ;
#253 = ORIENTED_EDGE ( 'NONE', *, *, #195, .F. ) ;
#254 = CIRCLE ( 'NONE', #295, 0.06845000000000001084 ) ;
#255 = VECTOR ( 'NONE', #329, 39.37007874015748143 ) ;
#256 = CARTESIAN_POINT ( 'NONE',  ( 0.000000000000000000, 0.000000000000000000, 0.000000000000000000 ) ) ;
#257 = LOCAL_TIME ( 23, 59, 52.00000000000000000, #297 ) ;
#258 = VERTEX_POINT ( 'NONE', #479 ) ;
#259 = EDGE_LOOP ( 'NONE', ( #480 ) ) ;
#260 = EDGE_CURVE ( 'NONE', #647, #676, #492, .T. ) ;
#261 = DIRECTION ( 'NONE',  ( 0.000000000000000000, 0.000000000000000000, -1.000000000000000000 ) ) ;
#262 = ORIENTED_EDGE ( 'NONE', *, *, #308, .T. ) ;
#263 = DIRECTION ( 'NONE',  ( 0.8660254037844385966, 0.000000000000000000, -0.5000000000000001110 ) ) ;
#264 = ORIENTED_EDGE ( 'NONE', *, *, #322, .F. ) ;
#265 = APPLICATION_CONTEXT ( 'configuration controlled 3d designs of mechanical parts and assemblies' ) ;
#266 = LINE ( 'NONE', #376, #352 ) ;
#267 = VECTOR ( 'NONE', #494, 39.37007874015748143 ) ;
#268 = AXIS2_PLACEMENT_3D ( 'NONE', #484, #688, #700 ) ;
#269 = FACE_OUTER_BOUND ( 'NONE', #155, .T. ) ;
#270 = ORIENTED_EDGE ( 'NONE', *, *, #464, .F. ) ;
#271 = DIRECTION ( 'NONE',  ( -1.907943356282905591E-16, 0.000000000000000000, -1.000000000000000000 ) ) ;
#272 = DIRECTION ( 'NONE',  ( 0.000000000000000000, -0.000000000000000000, 1.000000000000000000 ) ) ;
#273 = DIRECTION ( 'NONE',  ( -1.907943356282905838E-16, 0.000000000000000000, 1.000000000000000000 ) ) ;
#274 = EDGE_CURVE ( 'NONE', #665, #624, #60, .T. ) ;
#275 = VERTEX_POINT ( 'NONE', #223 ) ;
#276 = CARTESIAN_POINT ( 'NONE',  ( -2.561107494060246767E-17, 0.5111685482960047766, 0.1789785834487839511 ) ) ;
#277 = FACE_OUTER_BOUND ( 'NONE', #672, .T. ) ;
#278 = VERTEX_POINT ( 'NONE', #164 ) ;
#279 = DIRECTION ( 'NONE',  ( 1.000000000000000000, -0.000000000000000000, 1.907943356282905838E-16 ) ) ;
#280 = CIRCLE ( 'NONE', #124, 0.09845000000000000973 ) ;
#281 = CC_DESIGN_PERSON_AND_ORGANIZATION_ASSIGNMENT ( #83, #522, ( #528 ) ) ;
#282 = APPROVAL_PERSON_ORGANIZATION ( #509, #712, #346 ) ;
#283 = CARTESIAN_POINT ( 'NONE',  ( -2.561107494060246767E-17, 0.5111685482960047766, 0.1789785834487839511 ) ) ;
#284 = CARTESIAN_POINT ( 'NONE',  ( 0.000000000000000000, 1.269999999999999796, 0.000000000000000000 ) ) ;
#285 = ORIENTED_EDGE ( 'NONE', *, *, #589, .T. ) ;
#286 = DIRECTION ( 'NONE',  ( 0.8660254037844385966, 0.000000000000000000, -0.5000000000000001110 ) ) ;
#287 = DIRECTION ( 'NONE',  ( 0.000000000000000000, -1.000000000000000000, -0.000000000000000000 ) ) ;
#288 = DATE_AND_TIME ( #71, #32 ) ;
#289 = VERTEX_POINT ( 'NONE', #661 ) ;
#290 = CARTESIAN_POINT ( 'NONE',  ( 0.000000000000000000, 1.269999999999999796, 0.000000000000000000 ) ) ;
#291 = DIRECTION ( 'NONE',  ( 1.000000000000000000, 0.000000000000000000, 0.000000000000000000 ) ) ;
#292 = EDGE_LOOP ( 'NONE', ( #636, #237, #510, #563 ) ) ;
#293 = LINE ( 'NONE', #357, #179 ) ;
#294 = CIRCLE ( 'NONE', #633, 0.09845000000000000973 ) ;
#295 = AXIS2_PLACEMENT_3D ( 'NONE', #10, #714, #331 ) ;
#296 = CIRCLE ( 'NONE', #692, 0.09844999999999999585 ) ;
#297 = COORDINATED_UNIVERSAL_TIME_OFFSET ( 8, 0, .AHEAD. ) ;
#298 = ORIENTED_EDGE ( 'NONE', *, *, #687, .F. ) ;
#299 = CARTESIAN_POINT ( 'NONE',  ( 0.1549999999999998601, 0.9636999999999998900, -0.08948929172439201718 ) ) ;
#300 = APPLICATION_PROTOCOL_DEFINITION ( 'international standard', 'config_control_design', 1994, #59 ) ;
#301 = VERTEX_POINT ( 'NONE', #335 ) ;
#302 = CARTESIAN_POINT ( 'NONE',  ( -0.1549999999999999989, 1.108699999999999797, 0.08948929172439197555 ) ) ;
#303 = CARTESIAN_POINT ( 'NONE',  ( -4.695363739110452099E-17, 1.108699999999999797, 0.1789785834487838678 ) ) ;
#304 = VECTOR ( 'NONE', #121, 39.37007874015748854 ) ;
#305 = VECTOR ( 'NONE', #28, 39.37007874015748854 ) ;
#306 = CC_DESIGN_APPROVAL ( #410, ( #333 ) ) ;
#307 = CARTESIAN_POINT ( 'NONE',  ( -3.414809992080329639E-17, 1.108699999999999797, -0.1789785834487838678 ) ) ;
#308 = EDGE_CURVE ( 'NONE', #624, #160, #556, .T. ) ;
#309 = PLANE ( 'NONE',  #211 ) ;
#310 = EDGE_LOOP ( 'NONE', ( #654 ) ) ;
#311 = DIRECTION ( 'NONE',  ( -0.8660254037844385966, 0.000000000000000000, 0.4999999999999998890 ) ) ;
#312 = CARTESIAN_POINT ( 'NONE',  ( 0.000000000000000000, 0.2999999999999999334, -0.09844999999999999585 ) ) ;
#313 = EDGE_CURVE ( 'NONE', #67, #67, #280, .T. ) ;
#314 = ORIENTED_EDGE ( 'NONE', *, *, #324, .T. ) ;
#315 = VECTOR ( 'NONE', #382, 39.37007874015748854 ) ;
#316 = FACE_OUTER_BOUND ( 'NONE', #234, .T. ) ;
#317 = ORIENTED_EDGE ( 'NONE', *, *, #582, .T. ) ;
#318 = FACE_OUTER_BOUND ( 'NONE', #425, .T. ) ;
#319 = ORIENTED_EDGE ( 'NONE', *, *, #508, .F. ) ;
#320 = LINE ( 'NONE', #708, #659 ) ;
#321 = CARTESIAN_POINT ( 'NONE',  ( -0.1549999999999999434, 0.9636999999999998900, -0.08948929172439193391 ) ) ;
#322 = EDGE_CURVE ( 'NONE', #92, #15, #135, .T. ) ;
#323 = ORIENTED_EDGE ( 'NONE', *, *, #129, .F. ) ;
#324 = EDGE_CURVE ( 'NONE', #334, #402, #348, .T. ) ;
#325 = PLANE ( 'NONE',  #602 ) ;
#326 = VECTOR ( 'NONE', #143, 39.37007874015748143 ) ;
#327 = CARTESIAN_POINT ( 'NONE',  ( 0.2030000000000000138, 0.2999999999999999334, 0.000000000000000000 ) ) ;
#328 = ORIENTED_EDGE ( 'NONE', *, *, #638, .T. ) ;
#329 = DIRECTION ( 'NONE',  ( -0.8660254037844388186, 0.000000000000000000, -0.4999999999999996114 ) ) ;
#330 = VERTEX_POINT ( 'NONE', #312 ) ;
#331 = DIRECTION ( 'NONE',  ( 0.000000000000000000, 0.000000000000000000, -1.000000000000000000 ) ) ;
#332 = PLANE ( 'NONE',  #191 ) ;
#333 = PRODUCT_DEFINITION ( '未知', '', #397, #594 ) ;
#334 = VERTEX_POINT ( 'NONE', #26 ) ;
#335 = CARTESIAN_POINT ( 'NONE',  ( -3.414809992080329639E-17, 1.108699999999999797, -0.1789785834487838678 ) ) ;
#336 = EDGE_CURVE ( 'NONE', #535, #411, #293, .T. ) ;
#337 = CARTESIAN_POINT ( 'NONE',  ( -3.414809992080329639E-17, 0.9636999999999998900, -0.1789785834487838678 ) ) ;
#338 = LINE ( 'NONE', #420, #38 ) ;
#339 = PLANE ( 'NONE',  #245 ) ;
#340 = AXIS2_PLACEMENT_3D ( 'NONE', #11, #229, #667 ) ;
#341 = APPROVAL_PERSON_ORGANIZATION ( #623, #410, #20 ) ;
#342 = CC_DESIGN_APPROVAL ( #712, ( #528 ) ) ;
#343 = PLANE ( 'NONE',  #359 ) ;
#344 = MECHANICAL_CONTEXT ( 'NONE', #265, 'mechanical' ) ;
#345 = DIRECTION ( 'NONE',  ( 0.8660254037844385966, 0.000000000000000000, 0.5000000000000000000 ) ) ;
#346 = APPROVAL_ROLE ( '' ) ;
#347 = EDGE_LOOP ( 'NONE', ( #101 ) ) ;
#348 = LINE ( 'NONE', #578, #305 ) ;
#349 = COORDINATED_UNIVERSAL_TIME_OFFSET ( 8, 0, .AHEAD. ) ;
#350 = ORIENTED_EDGE ( 'NONE', *, *, #573, .F. ) ;
#351 = PLANE ( 'NONE',  #52 ) ;
#352 = VECTOR ( 'NONE', #598, 39.37007874015748143 ) ;
#353 = EDGE_CURVE ( 'NONE', #606, #606, #79, .T. ) ;
#354 = DATE_TIME_ROLE ( 'creation_date' ) ;
#355 = ORIENTED_EDGE ( 'NONE', *, *, #573, .T. ) ;
#356 = PLANE ( 'NONE',  #368 ) ;
#357 = CARTESIAN_POINT ( 'NONE',  ( 0.1549999999999999156, 1.108699999999999797, 0.08948929172439192004 ) ) ;
#358 = LINE ( 'NONE', #147, #615 ) ;
#359 = AXIS2_PLACEMENT_3D ( 'NONE', #662, #501, #385 ) ;
#360 = AXIS2_PLACEMENT_3D ( 'NONE', #247, #88, #620 ) ;
#361 = FACE_OUTER_BOUND ( 'NONE', #619, .T. ) ;
#362 = DIRECTION ( 'NONE',  ( 0.000000000000000000, 0.000000000000000000, 1.000000000000000000 ) ) ;
#363 = VERTEX_POINT ( 'NONE', #469 ) ;
#364 = DIRECTION ( 'NONE',  ( -0.4999999999999999445, 0.000000000000000000, -0.8660254037844387076 ) ) ;
#365 = EDGE_CURVE ( 'NONE', #275, #535, #190, .T. ) ;
#366 = DIRECTION ( 'NONE',  ( 0.000000000000000000, 0.000000000000000000, -1.000000000000000000 ) ) ;
#367 = VERTEX_POINT ( 'NONE', #684 ) ;
#368 = AXIS2_PLACEMENT_3D ( 'NONE', #302, #524, #73 ) ;
#369 = LINE ( 'NONE', #307, #486 ) ;
#370 = ORIENTED_EDGE ( 'NONE', *, *, #687, .T. ) ;
#371 = EDGE_CURVE ( 'NONE', #377, #442, #407, .T. ) ;
#372 = DIRECTION ( 'NONE',  ( 0.4999999999999999445, -0.000000000000000000, 0.8660254037844387076 ) ) ;
#373 = ADVANCED_FACE ( 'NONE', ( #400, #463 ), #498, .T. ) ;
#374 = ORIENTED_EDGE ( 'NONE', *, *, #705, .T. ) ;
#375 = ADVANCED_FACE ( 'NONE', ( #525 ), #193, .T. ) ;
#376 = CARTESIAN_POINT ( 'NONE',  ( -0.1549999999999999989, 0.5111685482960047766, -0.08948929172439190616 ) ) ;
#377 = VERTEX_POINT ( 'NONE', #515 ) ;
#378 = DIRECTION ( 'NONE',  ( -0.5000000000000001110, 0.000000000000000000, -0.8660254037844387076 ) ) ;
#379 = LINE ( 'NONE', #109, #690 ) ;
#380 = LINE ( 'NONE', #550, #66 ) ;
#381 = VECTOR ( 'NONE', #250, 39.37007874015748143 ) ;
#382 = DIRECTION ( 'NONE',  ( -0.8660254037844385966, 0.000000000000000000, 0.4999999999999998890 ) ) ;
#383 = CIRCLE ( 'NONE', #90, 0.2187499999999999445 ) ;
#384 = PLANE ( 'NONE',  #439 ) ;
#385 = DIRECTION ( 'NONE',  ( 0.8660254037844385966, 0.000000000000000000, 0.5000000000000000000 ) ) ;
#386 = ADVANCED_FACE ( 'NONE', ( #241, #77 ), #351, .F. ) ;
#387 = CARTESIAN_POINT ( 'NONE',  ( -0.1549999999999999434, 1.108699999999999797, -0.08948929172439193391 ) ) ;
#388 = ADVANCED_FACE ( 'NONE', ( #628, #186 ), #85, .T. ) ;
#389 = DIRECTION ( 'NONE',  ( 0.000000000000000000, 0.000000000000000000, 1.000000000000000000 ) ) ;
#390 = DIRECTION ( 'NONE',  ( 0.8660254037844388186, 0.000000000000000000, 0.4999999999999997224 ) ) ;
#391 = EDGE_LOOP ( 'NONE', ( #48, #446, #46, #192 ) ) ;
#392 = LINE ( 'NONE', #447, #526 ) ;
#393 = CARTESIAN_POINT ( 'NONE',  ( 0.000000000000000000, 0.000000000000000000, 0.000000000000000000 ) ) ;
#394 = LINE ( 'NONE', #424, #534 ) ;
#395 = CARTESIAN_POINT ( 'NONE',  ( -3.414809992080329023E-17, 0.5111685482960047766, -0.1789785834487838678 ) ) ;
#396 = VECTOR ( 'NONE', #635, 39.37007874015748143 ) ;
#397 = PRODUCT_DEFINITION_FORMATION_WITH_SPECIFIED_SOURCE ( '任何', '', #449, .NOT_KNOWN. ) ;
#398 = CARTESIAN_POINT ( 'NONE',  ( 0.000000000000000000, 0.000000000000000000, 0.000000000000000000 ) ) ;
#399 = ORIENTED_EDGE ( 'NONE', *, *, #371, .F. ) ;
#400 = FACE_BOUND ( 'NONE', #417, .T. ) ;
#401 = DATE_AND_TIME ( #24, #693 ) ;
#402 = VERTEX_POINT ( 'NONE', #23 ) ;
#403 = DIRECTION ( 'NONE',  ( 0.000000000000000000, 1.000000000000000000, 0.000000000000000000 ) ) ;
#404 = PRODUCT_RELATED_PRODUCT_CATEGORY ( 'detail', '', ( #449 ) ) ;
#405 = COORDINATED_UNIVERSAL_TIME_OFFSET ( 8, 0, .AHEAD. ) ;
#406 = ORIENTED_EDGE ( 'NONE', *, *, #629, .F. ) ;
#407 = LINE ( 'NONE', #519, #167 ) ;
#408 = CONICAL_SURFACE ( 'NONE', #122, 0.2812500000000000555, 0.6077368834691773136 ) ;
#409 = CIRCLE ( 'NONE', #98, 0.2030000000000000138 ) ;
#410 = APPROVAL ( #242, '未指定' ) ;
#411 = VERTEX_POINT ( 'NONE', #140 ) ;
#412 = DIRECTION ( 'NONE',  ( 0.8660254037844385966, 0.000000000000000000, -0.4999999999999998890 ) ) ;
#413 = DIRECTION ( 'NONE',  ( 0.000000000000000000, 1.000000000000000000, 0.000000000000000000 ) ) ;
#414 = FACE_OUTER_BOUND ( 'NONE', #669, .T. ) ;
#415 = AXIS2_PLACEMENT_3D ( 'NONE', #256, #41, #261 ) ;
#416 = DIRECTION ( 'NONE',  ( -3.815886712565811182E-16, 0.000000000000000000, -1.000000000000000000 ) ) ;
#417 = EDGE_LOOP ( 'NONE', ( #243 ) ) ;
#418 = MANIFOLD_SOLID_BREP ( 'Boss-Extrude2', #558 ) ;
#419 = PLANE ( 'NONE',  #199 ) ;
#420 = CARTESIAN_POINT ( 'NONE',  ( -0.1549999999999999989, 0.5111685482960047766, -0.08948929172439190616 ) ) ;
#421 = EDGE_CURVE ( 'NONE', #575, #665, #128, .T. ) ;
#422 = ORIENTED_EDGE ( 'NONE', *, *, #102, .T. ) ;
#423 = CARTESIAN_POINT ( 'NONE',  ( -0.1549999999999999989, 1.108699999999999797, 0.08948929172439197555 ) ) ;
#424 = CARTESIAN_POINT ( 'NONE',  ( 0.1549999999999999434, 0.5312000000000000055, 0.08948929172439193391 ) ) ;
#425 = EDGE_LOOP ( 'NONE', ( #25, #350, #595, #544 ) ) ;
#426 = CONICAL_SURFACE ( 'NONE', #144, 0.2187499999999999445, 0.3217505543966425741 ) ;
#427 = AXIS2_PLACEMENT_3D ( 'NONE', #33, #587, #96 ) ;
#428 = DIRECTION ( 'NONE',  ( 0.000000000000000000, 0.000000000000000000, 1.000000000000000000 ) ) ;
#429 = ADVANCED_FACE ( 'NONE', ( #571 ), #356, .F. ) ;
#430 = ORIENTED_EDGE ( 'NONE', *, *, #94, .T. ) ;
#431 = FACE_OUTER_BOUND ( 'NONE', #212, .T. ) ;
#432 = ORIENTED_EDGE ( 'NONE', *, *, #639, .F. ) ;
#433 = PLANE ( 'NONE',  #545 ) ;
#434 = ORIENTED_EDGE ( 'NONE', *, *, #248, .F. ) ;
#435 = LINE ( 'NONE', #596, #255 ) ;
#436 = FACE_BOUND ( 'NONE', #347, .T. ) ;
#437 = CARTESIAN_POINT ( 'NONE',  ( -3.414809992080329639E-17, 1.108699999999999797, -0.1789785834487838678 ) ) ;
#438 = EDGE_CURVE ( 'NONE', #442, #334, #244, .T. ) ;
#439 = AXIS2_PLACEMENT_3D ( 'NONE', #327, #55, #272 ) ;
#440 = CIRCLE ( 'NONE', #137, 0.09844999999999999585 ) ;
#441 = DIRECTION ( 'NONE',  ( -0.8660254037844385966, 0.000000000000000000, 0.5000000000000000000 ) ) ;
#442 = VERTEX_POINT ( 'NONE', #235 ) ;
#443 = LINE ( 'NONE', #14, #657 ) ;
#444 = DIRECTION ( 'NONE',  ( 0.000000000000000000, 0.000000000000000000, -1.000000000000000000 ) ) ;
#445 = CARTESIAN_POINT ( 'NONE',  ( 0.000000000000000000, 1.269999999999999796, -0.09844999999999999585 ) ) ;
#446 = ORIENTED_EDGE ( 'NONE', *, *, #564, .F. ) ;
#447 = CARTESIAN_POINT ( 'NONE',  ( -0.1549999999999999434, 1.108699999999999797, -0.08948929172439193391 ) ) ;
#448 = FACE_OUTER_BOUND ( 'NONE', #131, .T. ) ;
#449 = PRODUCT ( '00119_index_3', '00119_index_3', '', ( #344 ) ) ;
#450 = LINE ( 'NONE', #611, #6 ) ;
#451 = DIRECTION ( 'NONE',  ( -0.000000000000000000, -1.000000000000000000, -0.000000000000000000 ) ) ;
#452 = ADVANCED_FACE ( 'NONE', ( #455 ), #309, .T. ) ;
#453 = APPROVAL_DATE_TIME ( #288, #204 ) ;
#454 = ORIENTED_EDGE ( 'NONE', *, *, #274, .F. ) ;
#455 = FACE_OUTER_BOUND ( 'NONE', #53, .T. ) ;
#456 = ADVANCED_FACE ( 'NONE', ( #316, #37 ), #632, .T. ) ;
#457 = AXIS2_PLACEMENT_3D ( 'NONE', #481, #689, #532 ) ;
#458 = APPROVAL_DATE_TIME ( #517, #410 ) ;
#459 = EDGE_LOOP ( 'NONE', ( #434 ) ) ;
#460 = DIRECTION ( 'NONE',  ( -0.8660254037844388186, 0.000000000000000000, -0.4999999999999996114 ) ) ;
#461 = COORDINATED_UNIVERSAL_TIME_OFFSET ( 8, 0, .AHEAD. ) ;
#462 = EDGE_LOOP ( 'NONE', ( #586 ) ) ;
#463 = FACE_OUTER_BOUND ( 'NONE', #599, .T. ) ;
#464 = EDGE_CURVE ( 'NONE', #208, #363, #642, .T. ) ;
#465 = ADVANCED_FACE ( 'NONE', ( #361, #530 ), #209, .F. ) ;
#466 = SECURITY_CLASSIFICATION_LEVEL ( 'unclassified' ) ;
#467 = VERTEX_POINT ( 'NONE', #252 ) ;
#468 = EDGE_CURVE ( 'NONE', #535, #84, #153, .T. ) ;
#469 = CARTESIAN_POINT ( 'NONE',  ( -0.1549999999999999989, 0.9636999999999998900, 0.08948929172439197555 ) ) ;
#470 = VECTOR ( 'NONE', #658, 39.37007874015748143 ) ;
#471 = DIRECTION ( 'NONE',  ( 0.000000000000000000, 0.000000000000000000, -1.000000000000000000 ) ) ;
#472 = DIRECTION ( 'NONE',  ( 1.000000000000000000, 0.000000000000000000, -1.907943356282905591E-16 ) ) ;
#473 = DIRECTION ( 'NONE',  ( -0.8660254037844385966, 0.000000000000000000, 0.4999999999999998890 ) ) ;
#474 = VECTOR ( 'NONE', #49, 39.37007874015748143 ) ;
#475 = VECTOR ( 'NONE', #412, 39.37007874015748143 ) ;
#476 = ORIENTED_EDGE ( 'NONE', *, *, #260, .F. ) ;
#477 = CARTESIAN_POINT ( 'NONE',  ( 0.000000000000000000, 0.5312000000000000055, 0.000000000000000000 ) ) ;
#478 = EDGE_CURVE ( 'NONE', #301, #289, #369, .T. ) ;
#479 = CARTESIAN_POINT ( 'NONE',  ( 0.000000000000000000, 0.000000000000000000, -0.2187499999999999445 ) ) ;
#480 = ORIENTED_EDGE ( 'NONE', *, *, #709, .F. ) ;
#481 = CARTESIAN_POINT ( 'NONE',  ( 0.000000000000000000, 0.000000000000000000, 0.000000000000000000 ) ) ;
#482 =( NAMED_UNIT ( * ) PLANE_ANGLE_UNIT ( ) SI_UNIT ( $, .RADIAN. ) );
#483 = ORIENTED_EDGE ( 'NONE', *, *, #681, .T. ) ;
#484 = CARTESIAN_POINT ( 'NONE',  ( -0.1549999999999999156, 0.9636999999999998900, -0.2684678751731757185 ) ) ;
#485 = ORIENTED_EDGE ( 'NONE', *, *, #582, .F. ) ;
#486 = VECTOR ( 'NONE', #473, 39.37007874015748854 ) ;
#487 = LINE ( 'NONE', #650, #224 ) ;
#488 = ORIENTED_EDGE ( 'NONE', *, *, #274, .T. ) ;
#489 = FACE_OUTER_BOUND ( 'NONE', #40, .T. ) ;
#490 = VERTEX_POINT ( 'NONE', #202 ) ;
#491 = DIRECTION ( 'NONE',  ( 0.8660254037844385966, 0.000000000000000000, -0.4999999999999998890 ) ) ;
#492 = LINE ( 'NONE', #113, #136 ) ;
#493 = ADVANCED_FACE ( 'NONE', ( #414, #536 ), #198, .T. ) ;
#494 = DIRECTION ( 'NONE',  ( 0.000000000000000000, 1.000000000000000000, 0.000000000000000000 ) ) ;
#495 = ORIENTED_EDGE ( 'NONE', *, *, #643, .F. ) ;
#496 = DIRECTION ( 'NONE',  ( 0.000000000000000000, 0.000000000000000000, 1.000000000000000000 ) ) ;
#497 = CARTESIAN_POINT ( 'NONE',  ( 0.000000000000000000, 0.1875000000000000278, 0.000000000000000000 ) ) ;
#498 = CONICAL_SURFACE ( 'NONE', #685, 0.09844999999999999585, 0.7853981633974488341 ) ;
#499 = EDGE_LOOP ( 'NONE', ( #370, #570, #679, #76 ) ) ;
#500 = DIRECTION ( 'NONE',  ( -0.8660254037844389297, 0.000000000000000000, -0.4999999999999995559 ) ) ;
#501 = DIRECTION ( 'NONE',  ( -0.5000000000000001110, 0.000000000000000000, 0.8660254037844387076 ) ) ;
#502 = CARTESIAN_POINT ( 'NONE',  ( 0.000000000000000000, 0.9636999999999998900, 0.09845000000000000973 ) ) ;
#503 = EDGE_LOOP ( 'NONE', ( #699 ) ) ;
#504 = DIRECTION ( 'NONE',  ( -0.000000000000000000, -1.000000000000000000, -0.000000000000000000 ) ) ;
#505 = EDGE_CURVE ( 'NONE', #411, #92, #358, .T. ) ;
#506 = FACE_OUTER_BOUND ( 'NONE', #292, .T. ) ;
#507 = PRODUCT_DEFINITION_SHAPE ( 'NONE', 'NONE',  #333 ) ;
#508 = EDGE_CURVE ( 'NONE', #12, #12, #704, .T. ) ;
#509 = PERSON_AND_ORGANIZATION ( #78, #646 ) ;
#510 = ORIENTED_EDGE ( 'NONE', *, *, #421, .T. ) ;
#511 = CARTESIAN_POINT ( 'NONE',  ( -0.1549999999999999989, 0.5312000000000000055, -0.08948929172439190616 ) ) ;
#512 = EDGE_CURVE ( 'NONE', #367, #275, #583, .T. ) ;
#513 = DIRECTION ( 'NONE',  ( 0.000000000000000000, 0.000000000000000000, 1.000000000000000000 ) ) ;
#514 = ORIENTED_EDGE ( 'NONE', *, *, #336, .F. ) ;
#515 = CARTESIAN_POINT ( 'NONE',  ( -3.414809992080329023E-17, 0.5312000000000000055, -0.1789785834487838678 ) ) ;
#516 = VECTOR ( 'NONE', #345, 39.37007874015748854 ) ;
#517 = DATE_AND_TIME ( #133, #257 ) ;
#518 = EDGE_LOOP ( 'NONE', ( #702 ) ) ;
#519 = CARTESIAN_POINT ( 'NONE',  ( -3.414809992080329023E-17, 0.5312000000000000055, -0.1789785834487838678 ) ) ;
#520 = ADVANCED_FACE ( 'NONE', ( #593 ), #579, .T. ) ;
#521 = ADVANCED_FACE ( 'NONE', ( #93 ), #419, .F. ) ;
#522 = PERSON_AND_ORGANIZATION_ROLE ( 'classification_officer' ) ;
#523 = ORIENTED_EDGE ( 'NONE', *, *, #308, .F. ) ;
#524 = DIRECTION ( 'NONE',  ( 0.4999999999999997224, 0.000000000000000000, -0.8660254037844388186 ) ) ;
#525 = FACE_OUTER_BOUND ( 'NONE', #503, .T. ) ;
#526 = VECTOR ( 'NONE', #451, 39.37007874015748143 ) ;
#527 = UNCERTAINTY_MEASURE_WITH_UNIT (LENGTH_MEASURE( 1.000000000000000082E-05 ), #42, 'distance_accuracy_value', 'NONE');
#528 = SECURITY_CLASSIFICATION ( '', '', #466 ) ;
#529 = CARTESIAN_POINT ( 'NONE',  ( 0.1549999999999998601, 1.108699999999999797, -0.08948929172439201718 ) ) ;
#530 = FACE_BOUND ( 'NONE', #592, .T. ) ;
#531 = EDGE_LOOP ( 'NONE', ( #27 ) ) ;
#532 = DIRECTION ( 'NONE',  ( 0.000000000000000000, 0.000000000000000000, -1.000000000000000000 ) ) ;
#533 = LINE ( 'NONE', #668, #627 ) ;
#534 = VECTOR ( 'NONE', #173, 39.37007874015748143 ) ;
#535 = VERTEX_POINT ( 'NONE', #637 ) ;
#536 = FACE_OUTER_BOUND ( 'NONE', #518, .T. ) ;
#537 = CC_DESIGN_DATE_AND_TIME_ASSIGNMENT ( #125, #562, ( #528 ) ) ;
#538 = LENGTH_MEASURE_WITH_UNIT ( LENGTH_MEASURE( 0.02539999999999999897 ), #588 );
#539 = ORIENTED_EDGE ( 'NONE', *, *, #195, .T. ) ;
#540 = PLANE ( 'NONE',  #427 ) ;
#541 = ORIENTED_EDGE ( 'NONE', *, *, #421, .F. ) ;
#542 = FACE_OUTER_BOUND ( 'NONE', #170, .T. ) ;
#543 = DIRECTION ( 'NONE',  ( -1.000000000000000000, 0.000000000000000000, 0.000000000000000000 ) ) ;
#544 = ORIENTED_EDGE ( 'NONE', *, *, #336, .T. ) ;
#545 = AXIS2_PLACEMENT_3D ( 'NONE', #387, #279, #608 ) ;
#546 = AXIS2_PLACEMENT_3D ( 'NONE', #194, #413, #132 ) ;
#547 = PLANE ( 'NONE',  #19 ) ;
#548 = CARTESIAN_POINT ( 'NONE',  ( -0.1549999999999999989, 0.5111685482960047766, -0.08948929172439190616 ) ) ;
#549 = PLANE ( 'NONE',  #340 ) ;
#550 = CARTESIAN_POINT ( 'NONE',  ( 0.1549999999999999434, 0.5111685482960047766, 0.08948929172439193391 ) ) ;
#551 = ORIENTED_EDGE ( 'NONE', *, *, #681, .F. ) ;
#552 = DIRECTION ( 'NONE',  ( 0.000000000000000000, 1.000000000000000000, 0.000000000000000000 ) ) ;
#553 = FACE_BOUND ( 'NONE', #310, .T. ) ;
#554 = ADVANCED_FACE ( 'NONE', ( #318 ), #540, .F. ) ;
#555 = VERTEX_POINT ( 'NONE', #445 ) ;
#556 = LINE ( 'NONE', #674, #614 ) ;
#557 = ORIENTED_EDGE ( 'NONE', *, *, #468, .T. ) ;
#558 = CLOSED_SHELL ( 'NONE', ( #493, #456, #45, #87, #118, #251, #197, #520, #452, #50, #148, #249, #386, #577, #388, #465, #74, #580, #180, #429, #521, #554, #375, #373, #127 ) ) ;
#559 = CARTESIAN_POINT ( 'NONE',  ( 0.000000000000000000, 1.299999999999999822, -0.06845000000000001084 ) ) ;
#560 = PLANE ( 'NONE',  #236 ) ;
#561 = FACE_OUTER_BOUND ( 'NONE', #531, .T. ) ;
#562 = DATE_TIME_ROLE ( 'classification_date' ) ;
#563 = ORIENTED_EDGE ( 'NONE', *, *, #35, .T. ) ;
#564 = EDGE_CURVE ( 'NONE', #367, #363, #44, .T. ) ;
#565 = DIRECTION ( 'NONE',  ( 0.000000000000000000, 0.000000000000000000, -1.000000000000000000 ) ) ;
#566 = APPROVAL_ROLE ( '' ) ;
#567 = EDGE_LOOP ( 'NONE', ( #81, #43, #430, #185, #189, #557 ) ) ;
#568 = CARTESIAN_POINT ( 'NONE',  ( 0.000000000000000000, 0.9636999999999998900, 0.000000000000000000 ) ) ;
#569 = CALENDAR_DATE ( 2022, 7, 11 ) ;
#570 = ORIENTED_EDGE ( 'NONE', *, *, #638, .F. ) ;
#571 = FACE_OUTER_BOUND ( 'NONE', #499, .T. ) ;
#572 = VECTOR ( 'NONE', #89, 39.37007874015748143 ) ;
#573 = EDGE_CURVE ( 'NONE', #84, #92, #630, .T. ) ;
#574 = PERSON_AND_ORGANIZATION ( #78, #646 ) ;
#575 = VERTEX_POINT ( 'NONE', #163 ) ;
#576 = DIRECTION ( 'NONE',  ( -0.000000000000000000, -1.000000000000000000, -0.000000000000000000 ) ) ;
#577 = ADVANCED_FACE ( 'NONE', ( #54, #431 ), #325, .T. ) ;
#578 = CARTESIAN_POINT ( 'NONE',  ( -0.1549999999999999989, 0.5312000000000000055, 0.08948929172439197555 ) ) ;
#579 = PLANE ( 'NONE',  #634 ) ;
#580 = ADVANCED_FACE ( 'NONE', ( #542 ), #547, .F. ) ;
#581 = AXIS2_PLACEMENT_3D ( 'NONE', #622, #576, #471 ) ;
#582 = EDGE_CURVE ( 'NONE', #624, #647, #380, .T. ) ;
#583 = LINE ( 'NONE', #423, #396 ) ;
#584 = ORIENTED_EDGE ( 'NONE', *, *, #313, .T. ) ;
#585 = DIRECTION ( 'NONE',  ( -1.907943356282905591E-16, 0.000000000000000000, -1.000000000000000000 ) ) ;
#586 = ORIENTED_EDGE ( 'NONE', *, *, #629, .T. ) ;
#587 = DIRECTION ( 'NONE',  ( -1.000000000000000000, 0.000000000000000000, 3.815886712565811182E-16 ) ) ;
#588 =( LENGTH_UNIT ( ) NAMED_UNIT ( * ) SI_UNIT ( $, .METRE. ) );
#589 = EDGE_CURVE ( 'NONE', #278, #278, #296, .T. ) ;
#590 = VECTOR ( 'NONE', #605, 39.37007874015748143 ) ;
#591 = EDGE_CURVE ( 'NONE', #84, #301, #435, .T. ) ;
#592 = EDGE_LOOP ( 'NONE', ( #584 ) ) ;
#593 = FACE_OUTER_BOUND ( 'NONE', #227, .T. ) ;
#594 = DESIGN_CONTEXT ( 'detailed design', #59, 'design' ) ;
#595 = ORIENTED_EDGE ( 'NONE', *, *, #468, .F. ) ;
#596 = CARTESIAN_POINT ( 'NONE',  ( 0.1549999999999998601, 1.108699999999999797, -0.08948929172439201718 ) ) ;
#597 = ORIENTED_EDGE ( 'NONE', *, *, #653, .F. ) ;
#598 = DIRECTION ( 'NONE',  ( 0.000000000000000000, 0.000000000000000000, 1.000000000000000000 ) ) ;
#599 = EDGE_LOOP ( 'NONE', ( #597 ) ) ;
#600 = DIRECTION ( 'NONE',  ( -0.8660254037844385966, 0.000000000000000000, 0.5000000000000000000 ) ) ;
#601 = LINE ( 'NONE', #283, #267 ) ;
#602 = AXIS2_PLACEMENT_3D ( 'NONE', #713, #110, #655 ) ;
#603 = CARTESIAN_POINT ( 'NONE',  ( 0.000000000000000000, 0.000000000000000000, 0.000000000000000000 ) ) ;
#604 = DIRECTION ( 'NONE',  ( 0.000000000000000000, 1.000000000000000000, 0.000000000000000000 ) ) ;
#605 = DIRECTION ( 'NONE',  ( 0.8660254037844385966, 0.000000000000000000, -0.4999999999999998890 ) ) ;
#606 = VERTEX_POINT ( 'NONE', #701 ) ;
#607 = ORIENTED_EDGE ( 'NONE', *, *, #112, .T. ) ;
#608 = DIRECTION ( 'NONE',  ( 1.907943356282905838E-16, 0.000000000000000000, -1.000000000000000000 ) ) ;
#609 = ORIENTED_EDGE ( 'NONE', *, *, #653, .T. ) ;
#610 = CC_DESIGN_DATE_AND_TIME_ASSIGNMENT ( #138, #354, ( #333 ) ) ;
#611 = CARTESIAN_POINT ( 'NONE',  ( -3.414809992080329023E-17, 0.5111685482960047766, -0.1789785834487838678 ) ) ;
#612 = FACE_OUTER_BOUND ( 'NONE', #391, .T. ) ;
#613 = CARTESIAN_POINT ( 'NONE',  ( 0.1549999999999998601, 1.108699999999999797, -0.08948929172439201718 ) ) ;
#614 = VECTOR ( 'NONE', #142, 39.37007874015748143 ) ;
#615 = VECTOR ( 'NONE', #416, 39.37007874015748143 ) ;
#616 = CARTESIAN_POINT ( 'NONE',  ( 0.000000000000000000, 0.2999999999999999334, 0.000000000000000000 ) ) ;
#617 = DIRECTION ( 'NONE',  ( 0.4999999999999995559, 0.000000000000000000, -0.8660254037844389297 ) ) ;
#618 = PERSON_AND_ORGANIZATION ( #78, #646 ) ;
#619 = EDGE_LOOP ( 'NONE', ( #264, #205, #182, #298, #270, #21 ) ) ;
#620 = DIRECTION ( 'NONE',  ( 0.000000000000000000, -0.000000000000000000, 1.000000000000000000 ) ) ;
#621 = ORIENTED_EDGE ( 'NONE', *, *, #35, .F. ) ;
#622 = CARTESIAN_POINT ( 'NONE',  ( 0.000000000000000000, 0.1875000000000000278, 0.000000000000000000 ) ) ;
#623 = PERSON_AND_ORGANIZATION ( #78, #646 ) ;
#624 = VERTEX_POINT ( 'NONE', #105 ) ;
#625 = VECTOR ( 'NONE', #4, 39.37007874015748143 ) ;
#626 = DIRECTION ( 'NONE',  ( -0.000000000000000000, -1.000000000000000000, -0.000000000000000000 ) ) ;
#627 = VECTOR ( 'NONE', #390, 39.37007874015748143 ) ;
#628 = FACE_OUTER_BOUND ( 'NONE', #567, .T. ) ;
#629 = EDGE_CURVE ( 'NONE', #258, #258, #383, .T. ) ;
#630 = LINE ( 'NONE', #529, #381 ) ;
#631 = EDGE_CURVE ( 'NONE', #647, #467, #487, .T. ) ;
#632 = CYLINDRICAL_SURFACE ( 'NONE', #457, 0.09844999999999999585 ) ;
#633 = AXIS2_PLACEMENT_3D ( 'NONE', #652, #232, #496 ) ;
#634 = AXIS2_PLACEMENT_3D ( 'NONE', #91, #472, #585 ) ;
#635 = DIRECTION ( 'NONE',  ( 0.8660254037844388186, 0.000000000000000000, 0.4999999999999997224 ) ) ;
#636 = ORIENTED_EDGE ( 'NONE', *, *, #324, .F. ) ;
#637 = CARTESIAN_POINT ( 'NONE',  ( 0.1549999999999999156, 1.108699999999999797, 0.08948929172439192004 ) ) ;
#638 = EDGE_CURVE ( 'NONE', #275, #490, #320, .T. ) ;
#639 = EDGE_CURVE ( 'NONE', #58, #575, #266, .T. ) ;
#640 = CARTESIAN_POINT ( 'NONE',  ( 0.1549999999999999156, 0.5312000000000000055, -0.08948929172439200330 ) ) ;
#641 = ORIENTED_EDGE ( 'NONE', *, *, #639, .T. ) ;
#642 = LINE ( 'NONE', #696, #146 ) ;
#643 = EDGE_CURVE ( 'NONE', #58, #442, #338, .T. ) ;
#644 = CARTESIAN_POINT ( 'NONE',  ( 0.1549999999999999156, 0.5111685482960047766, -0.08948929172439200330 ) ) ;
#645 = AXIS2_PLACEMENT_3D ( 'NONE', #123, #65, #176 ) ;
#646 = ORGANIZATION ( '未指定', '未指定', '' ) ;
#647 = VERTEX_POINT ( 'NONE', #644 ) ;
#648 = CARTESIAN_POINT ( 'NONE',  ( -3.414809992080329639E-17, 1.108699999999999797, -0.1789785834487838678 ) ) ;
#649 = EDGE_LOOP ( 'NONE', ( #399, #72, #374, #162 ) ) ;
#650 = CARTESIAN_POINT ( 'NONE',  ( 0.1549999999999999156, 0.5111685482960047766, -0.08948929172439200330 ) ) ;
#651 = EDGE_LOOP ( 'NONE', ( #174 ) ) ;
#652 = CARTESIAN_POINT ( 'NONE',  ( 0.000000000000000000, 0.5111685482960047766, 0.000000000000000000 ) ) ;
#653 = EDGE_CURVE ( 'NONE', #555, #555, #440, .T. ) ;
#654 = ORIENTED_EDGE ( 'NONE', *, *, #709, .T. ) ;
#655 = DIRECTION ( 'NONE',  ( 0.000000000000000000, 0.000000000000000000, 1.000000000000000000 ) ) ;
#656 = LINE ( 'NONE', #165, #474 ) ;
#657 = VECTOR ( 'NONE', #604, 39.37007874015748143 ) ;
#658 = DIRECTION ( 'NONE',  ( -0.000000000000000000, -1.000000000000000000, -0.000000000000000000 ) ) ;
#659 = VECTOR ( 'NONE', #47, 39.37007874015748143 ) ;
#660 = EDGE_LOOP ( 'NONE', ( #406 ) ) ;
#661 = CARTESIAN_POINT ( 'NONE',  ( -0.1549999999999999434, 1.108699999999999797, -0.08948929172439193391 ) ) ;
#662 = CARTESIAN_POINT ( 'NONE',  ( -0.1549999999999999989, 0.5111685482960047766, 0.08948929172439197555 ) ) ;
#663 = CC_DESIGN_PERSON_AND_ORGANIZATION_ASSIGNMENT ( #678, #181, ( #397 ) ) ;
#664 = DIRECTION ( 'NONE',  ( 0.000000000000000000, 1.000000000000000000, 0.000000000000000000 ) ) ;
#665 = VERTEX_POINT ( 'NONE', #57 ) ;
#666 = CARTESIAN_POINT ( 'NONE',  ( 0.1549999999999999434, 0.5312000000000000055, 0.08948929172439193391 ) ) ;
#667 = DIRECTION ( 'NONE',  ( 0.8660254037844388186, 0.000000000000000000, 0.4999999999999996114 ) ) ;
#668 = CARTESIAN_POINT ( 'NONE',  ( -0.1549999999999999989, 0.9636999999999998900, 0.08948929172439197555 ) ) ;
#669 = EDGE_LOOP ( 'NONE', ( #319 ) ) ;
#670 = CARTESIAN_POINT ( 'NONE',  ( 0.1549999999999999156, 0.5111685482960047766, -0.08948929172439200330 ) ) ;
#671 = CALENDAR_DATE ( 2022, 7, 11 ) ;
#672 = EDGE_LOOP ( 'NONE', ( #240 ) ) ;
#673 = LOCAL_TIME ( 23, 59, 52.00000000000000000, #461 ) ;
#674 = CARTESIAN_POINT ( 'NONE',  ( 0.1549999999999999434, 0.5111685482960047766, 0.08948929172439193391 ) ) ;
#675 = PERSON_AND_ORGANIZATION_ROLE ( 'creator' ) ;
#676 = VERTEX_POINT ( 'NONE', #640 ) ;
#677 = DIRECTION ( 'NONE',  ( 0.000000000000000000, 0.000000000000000000, 1.000000000000000000 ) ) ;
#678 = PERSON_AND_ORGANIZATION ( #78, #646 ) ;
#679 = ORIENTED_EDGE ( 'NONE', *, *, #512, .F. ) ;
#680 = DIRECTION ( 'NONE',  ( -0.000000000000000000, -1.000000000000000000, -0.000000000000000000 ) ) ;
#681 = EDGE_CURVE ( 'NONE', #160, #676, #394, .T. ) ;
#682 = PERSON_AND_ORGANIZATION ( #78, #646 ) ;
#683 = ORIENTED_EDGE ( 'NONE', *, *, #589, .F. ) ;
#684 = CARTESIAN_POINT ( 'NONE',  ( -0.1549999999999999989, 1.108699999999999797, 0.08948929172439197555 ) ) ;
#685 = AXIS2_PLACEMENT_3D ( 'NONE', #290, #626, #565 ) ;
#686 = DIRECTION ( 'NONE',  ( 0.000000000000000000, 0.000000000000000000, 1.000000000000000000 ) ) ;
#687 = EDGE_CURVE ( 'NONE', #363, #490, #533, .T. ) ;
#688 = DIRECTION ( 'NONE',  ( 0.000000000000000000, 1.000000000000000000, 0.000000000000000000 ) ) ;
#689 = DIRECTION ( 'NONE',  ( -0.000000000000000000, -1.000000000000000000, -0.000000000000000000 ) ) ;
#690 = VECTOR ( 'NONE', #273, 39.37007874015748143 ) ;
#691 = VECTOR ( 'NONE', #460, 39.37007874015748143 ) ;
#692 = AXIS2_PLACEMENT_3D ( 'NONE', #157, #217, #428 ) ;
#693 = LOCAL_TIME ( 23, 59, 52.00000000000000000, #75 ) ;
#694 = EDGE_CURVE ( 'NONE', #15, #208, #111, .T. ) ;
#695 = ORIENTED_EDGE ( 'NONE', *, *, #591, .F. ) ;
#696 = CARTESIAN_POINT ( 'NONE',  ( -0.1549999999999999434, 0.9636999999999998900, -0.08948929172439193391 ) ) ;
#697 = VERTEX_POINT ( 'NONE', #203 ) ;
#698 = ADVANCED_BREP_SHAPE_REPRESENTATION ( '00119_index_3', ( #418, #246 ), #154 ) ;
#699 = ORIENTED_EDGE ( 'NONE', *, *, #141, .F. ) ;
#700 = DIRECTION ( 'NONE',  ( 0.000000000000000000, -0.000000000000000000, 1.000000000000000000 ) ) ;
#701 = CARTESIAN_POINT ( 'NONE',  ( 0.000000000000000000, 0.1875000000000000278, -0.2812500000000000555 ) ) ;
#702 = ORIENTED_EDGE ( 'NONE', *, *, #313, .F. ) ;
#703 = CARTESIAN_POINT ( 'NONE',  ( -0.1549999999999999989, 1.108699999999999797, 0.08948929172439197555 ) ) ;
#704 = CIRCLE ( 'NONE', #108, 0.09844999999999999585 ) ;
#705 = EDGE_CURVE ( 'NONE', #467, #58, #450, .T. ) ;
#706 = CC_DESIGN_APPROVAL ( #204, ( #397 ) ) ;
#707 = ORIENTED_EDGE ( 'NONE', *, *, #7, .F. ) ;
#708 = CARTESIAN_POINT ( 'NONE',  ( -4.695363739110452099E-17, 1.108699999999999797, 0.1789785834487838678 ) ) ;
#709 = EDGE_CURVE ( 'NONE', #697, #697, #409, .T. ) ;
#710 = FACE_OUTER_BOUND ( 'NONE', #63, .T. ) ;
#711 = EDGE_LOOP ( 'NONE', ( #683 ) ) ;
#712 = APPROVAL ( #130, '未指定' ) ;
#713 = CARTESIAN_POINT ( 'NONE',  ( -0.1549999999999999989, 0.5312000000000000055, -0.2684678751731757185 ) ) ;
#714 = DIRECTION ( 'NONE',  ( -0.000000000000000000, -1.000000000000000000, -0.000000000000000000 ) ) ;
ENDSEC;
END-ISO-10303-21;
