ISO-10303-21;
HEADER;
FILE_DESCRIPTION (( 'STEP AP203' ),
    '1' );
FILE_NAME ('00112_index_4.step',
    '2022-11-07T15:58:42',
    ( '' ),
    ( '' ),
    'SwSTEP 2.0',
    'SolidWorks 2020',
    '' );
FILE_SCHEMA (( 'CONFIG_CONTROL_DESIGN' ));
ENDSEC;

DATA;
#1 = APPROVAL_PERSON_ORGANIZATION ( #200, #362, #196 ) ;
#2 = CARTESIAN_POINT ( 'NONE',  ( -0.4349999999999999978, 0.000000000000000000, 0.4350000000000001643 ) ) ;
#3 = DIRECTION ( 'NONE',  ( -0.000000000000000000, 1.000000000000000000, -0.000000000000000000 ) ) ;
#4 = FACE_OUTER_BOUND ( 'NONE', #22, .T. ) ;
#5 = CARTESIAN_POINT ( 'NONE',  ( -0.4350000000000002198, 0.000000000000000000, -0.4349999999999998868 ) ) ;
#6 = CARTESIAN_POINT ( 'NONE',  ( -0.4349999999999999978, 0.07066104471248622898, 0.4350000000000001643 ) ) ;
#7 = DIMENSIONAL_EXPONENTS ( 1.000000000000000000, 0.000000000000000000, 0.000000000000000000, 0.000000000000000000, 0.000000000000000000, 0.000000000000000000, 0.000000000000000000 ) ;
#8 = PLANE ( 'NONE',  #146 ) ;
#9 = DIRECTION ( 'NONE',  ( -0.000000000000000000, -1.000000000000000000, -0.000000000000000000 ) ) ;
#10 = LOCAL_TIME ( 23, 58, 42.00000000000000000, #185 ) ;
#11 = EDGE_LOOP ( 'NONE', ( #238 ) ) ;
#12 = EDGE_CURVE ( 'NONE', #16, #201, #313, .T. ) ;
#13 = DIRECTION ( 'NONE',  ( 1.000000000000000000, 0.000000000000000000, 0.000000000000000000 ) ) ;
#14 = CARTESIAN_POINT ( 'NONE',  ( -0.4350000000000002198, 0.07066104471248622898, -0.4349999999999998868 ) ) ;
#15 = DATE_AND_TIME ( #245, #226 ) ;
#16 = VERTEX_POINT ( 'NONE', #346 ) ;
#17 = PRODUCT_DEFINITION_SHAPE ( 'NONE', 'NONE',  #60 ) ;
#18 = DIRECTION ( 'NONE',  ( 0.000000000000000000, 0.000000000000000000, 1.000000000000000000 ) ) ;
#19 = APPROVAL_DATE_TIME ( #28, #362 ) ;
#20 = ORIENTED_EDGE ( 'NONE', *, *, #246, .T. ) ;
#21 = PERSON_AND_ORGANIZATION ( #347, #147 ) ;
#22 = EDGE_LOOP ( 'NONE', ( #110, #93, #56, #358 ) ) ;
#23 = PRODUCT_DEFINITION_FORMATION_WITH_SPECIFIED_SOURCE ( '任何', '', #157, .NOT_KNOWN. ) ;
#24 = PERSON_AND_ORGANIZATION_ROLE ( 'design_owner' ) ;
#25 = CALENDAR_DATE ( 2022, 7, 11 ) ;
#26 = ORIENTED_EDGE ( 'NONE', *, *, #109, .T. ) ;
#27 = CARTESIAN_POINT ( 'NONE',  ( 0.000000000000000000, -0.08999999999999999667, 0.3750000000000000555 ) ) ;
#28 = DATE_AND_TIME ( #368, #80 ) ;
#29 = LINE ( 'NONE', #345, #371 ) ;
#30 = ADVANCED_BREP_SHAPE_REPRESENTATION ( '00112_index_4', ( #61, #219 ), #195 ) ;
#31 = APPROVAL_PERSON_ORGANIZATION ( #21, #224, #250 ) ;
#32 = CC_DESIGN_DATE_AND_TIME_ASSIGNMENT ( #278, #79, ( #60 ) ) ;
#33 = FACE_BOUND ( 'NONE', #11, .T. ) ;
#34 = CC_DESIGN_APPROVAL ( #361, ( #60 ) ) ;
#35 = FACE_OUTER_BOUND ( 'NONE', #145, .T. ) ;
#36 = CARTESIAN_POINT ( 'NONE',  ( 0.000000000000000000, 0.000000000000000000, 0.3125000000000000000 ) ) ;
#37 = ORIENTED_EDGE ( 'NONE', *, *, #207, .T. ) ;
#38 = EDGE_CURVE ( 'NONE', #289, #289, #127, .T. ) ;
#39 = PLANE ( 'NONE',  #92 ) ;
#40 = CARTESIAN_POINT ( 'NONE',  ( 0.4349999999999999978, 0.07066104471248622898, 0.4350000000000001643 ) ) ;
#41 = DIRECTION ( 'NONE',  ( -0.000000000000000000, 1.000000000000000000, -0.000000000000000000 ) ) ;
#42 = CIRCLE ( 'NONE', #272, 0.3750000000000000555 ) ;
#43 = LINE ( 'NONE', #189, #334 ) ;
#44 = APPLICATION_CONTEXT ( 'configuration controlled 3d designs of mechanical parts and assemblies' ) ;
#45 = LINE ( 'NONE', #124, #312 ) ;
#46 = DIRECTION ( 'NONE',  ( 1.000000000000000000, 0.000000000000000000, 0.000000000000000000 ) ) ;
#47 = VERTEX_POINT ( 'NONE', #359 ) ;
#48 = DIRECTION ( 'NONE',  ( 0.000000000000000000, 0.000000000000000000, 1.000000000000000000 ) ) ;
#49 = VECTOR ( 'NONE', #286, 39.37007874015748143 ) ;
#50 = ORIENTED_EDGE ( 'NONE', *, *, #252, .T. ) ;
#51 = DIRECTION ( 'NONE',  ( -0.000000000000000000, 1.000000000000000000, 0.000000000000000000 ) ) ;
#52 = APPROVAL_STATUS ( 'not_yet_approved' ) ;
#53 = VERTEX_POINT ( 'NONE', #225 ) ;
#54 = VERTEX_POINT ( 'NONE', #27 ) ;
#55 = ORIENTED_EDGE ( 'NONE', *, *, #68, .T. ) ;
#56 = ORIENTED_EDGE ( 'NONE', *, *, #246, .F. ) ;
#57 = VERTEX_POINT ( 'NONE', #283 ) ;
#58 = APPROVAL_DATE_TIME ( #15, #224 ) ;
#59 = CARTESIAN_POINT ( 'NONE',  ( -0.4349999999999999978, 0.07066104471248622898, 0.4350000000000001643 ) ) ;
#60 = PRODUCT_DEFINITION ( '未知', '', #23, #155 ) ;
#61 = MANIFOLD_SOLID_BREP ( 'Cut-Extrude1', #218 ) ;
#62 = AXIS2_PLACEMENT_3D ( 'NONE', #360, #108, #159 ) ;
#63 = FACE_OUTER_BOUND ( 'NONE', #349, .T. ) ;
#64 = ORIENTED_EDGE ( 'NONE', *, *, #125, .F. ) ;
#65 = DIRECTION ( 'NONE',  ( -1.000000000000000000, 0.000000000000000000, 1.570027582565668712E-16 ) ) ;
#66 = ADVANCED_FACE ( 'NONE', ( #179, #260 ), #369, .T. ) ;
#67 = LINE ( 'NONE', #317, #49 ) ;
#68 = EDGE_CURVE ( 'NONE', #311, #173, #204, .T. ) ;
#69 = LINE ( 'NONE', #14, #303 ) ;
#70 = PERSON_AND_ORGANIZATION ( #347, #147 ) ;
#71 = DIRECTION ( 'NONE',  ( 2.355041373848502945E-16, 0.000000000000000000, 1.000000000000000000 ) ) ;
#72 = VECTOR ( 'NONE', #205, 39.37007874015748143 ) ;
#73 = CC_DESIGN_APPROVAL ( #224, ( #23 ) ) ;
#74 = FACE_OUTER_BOUND ( 'NONE', #326, .T. ) ;
#75 = EDGE_LOOP ( 'NONE', ( #37 ) ) ;
#76 = CARTESIAN_POINT ( 'NONE',  ( 0.4349999999999998868, 0.07066104471248622898, -0.4349999999999998868 ) ) ;
#77 = ORIENTED_EDGE ( 'NONE', *, *, #306, .T. ) ;
#78 = CARTESIAN_POINT ( 'NONE',  ( -0.4349999999999999978, 0.07066104471248622898, 0.4350000000000001643 ) ) ;
#79 = DATE_TIME_ROLE ( 'creation_date' ) ;
#80 = LOCAL_TIME ( 23, 58, 42.00000000000000000, #221 ) ;
#81 = EDGE_LOOP ( 'NONE', ( #113 ) ) ;
#82 = ADVANCED_FACE ( 'NONE', ( #4 ), #316, .F. ) ;
#83 = APPROVAL_ROLE ( '' ) ;
#84 = PERSON_AND_ORGANIZATION_ROLE ( 'design_supplier' ) ;
#85 = ORIENTED_EDGE ( 'NONE', *, *, #203, .F. ) ;
#86 = ADVANCED_FACE ( 'NONE', ( #256, #63 ), #208, .F. ) ;
#87 = ORIENTED_EDGE ( 'NONE', *, *, #38, .F. ) ;
#88 =( LENGTH_UNIT ( ) NAMED_UNIT ( * ) SI_UNIT ( $, .METRE. ) );
#89 = DIRECTION ( 'NONE',  ( 0.000000000000000000, 0.000000000000000000, 1.000000000000000000 ) ) ;
#90 = CIRCLE ( 'NONE', #288, 0.3125000000000000000 ) ;
#91 = EDGE_CURVE ( 'NONE', #261, #261, #162, .T. ) ;
#92 = AXIS2_PLACEMENT_3D ( 'NONE', #235, #266, #268 ) ;
#93 = ORIENTED_EDGE ( 'NONE', *, *, #68, .F. ) ;
#94 = ORIENTED_EDGE ( 'NONE', *, *, #125, .T. ) ;
#95 = CARTESIAN_POINT ( 'NONE',  ( 0.000000000000000000, -0.5850000000000000755, 0.000000000000000000 ) ) ;
#96 = AXIS2_PLACEMENT_3D ( 'NONE', #182, #65, #251 ) ;
#97 = VECTOR ( 'NONE', #163, 39.37007874015748143 ) ;
#98 = ORIENTED_EDGE ( 'NONE', *, *, #252, .F. ) ;
#99 = CC_DESIGN_PERSON_AND_ORGANIZATION_ASSIGNMENT ( #70, #336, ( #23 ) ) ;
#100 = LINE ( 'NONE', #5, #193 ) ;
#101 = DIRECTION ( 'NONE',  ( 0.000000000000000000, -1.000000000000000000, 0.000000000000000000 ) ) ;
#102 = DIRECTION ( 'NONE',  ( 1.000000000000000000, 0.000000000000000000, 0.000000000000000000 ) ) ;
#103 = CARTESIAN_POINT ( 'NONE',  ( 0.000000000000000000, -0.6249999999999997780, 0.000000000000000000 ) ) ;
#104 = ORIENTED_EDGE ( 'NONE', *, *, #109, .F. ) ;
#105 = CYLINDRICAL_SURFACE ( 'NONE', #153, 0.3125000000000000000 ) ;
#106 = EDGE_LOOP ( 'NONE', ( #87 ) ) ;
#107 =( NAMED_UNIT ( * ) SI_UNIT ( $, .STERADIAN. ) SOLID_ANGLE_UNIT ( ) );
#108 = DIRECTION ( 'NONE',  ( 1.000000000000000000, 0.000000000000000000, -2.355041373848503438E-16 ) ) ;
#109 = EDGE_CURVE ( 'NONE', #53, #168, #29, .T. ) ;
#110 = ORIENTED_EDGE ( 'NONE', *, *, #373, .T. ) ;
#111 = APPROVAL_STATUS ( 'not_yet_approved' ) ;
#112 = AXIS2_PLACEMENT_3D ( 'NONE', #95, #122, #126 ) ;
#113 = ORIENTED_EDGE ( 'NONE', *, *, #320, .T. ) ;
#114 = DATE_AND_TIME ( #366, #10 ) ;
#115 = ORIENTED_EDGE ( 'NONE', *, *, #178, .F. ) ;
#116 = SHAPE_DEFINITION_REPRESENTATION ( #17, #30 ) ;
#117 = DIRECTION ( 'NONE',  ( 0.000000000000000000, 0.000000000000000000, 1.000000000000000000 ) ) ;
#118 = AXIS2_PLACEMENT_3D ( 'NONE', #2, #321, #202 ) ;
#119 = CIRCLE ( 'NONE', #351, 0.2249999999999999778 ) ;
#120 = APPROVAL_DATE_TIME ( #365, #361 ) ;
#121 = CARTESIAN_POINT ( 'NONE',  ( 0.000000000000000000, 0.000000000000000000, 0.000000000000000000 ) ) ;
#122 = DIRECTION ( 'NONE',  ( -0.000000000000000000, 1.000000000000000000, -0.000000000000000000 ) ) ;
#123 = CARTESIAN_POINT ( 'NONE',  ( 0.4349999999999999978, 0.000000000000000000, 0.4350000000000001643 ) ) ;
#124 = CARTESIAN_POINT ( 'NONE',  ( -0.4349999999999999978, 0.07066104471248622898, 0.4350000000000001643 ) ) ;
#125 = EDGE_CURVE ( 'NONE', #173, #53, #67, .T. ) ;
#126 = DIRECTION ( 'NONE',  ( 0.000000000000000000, 0.000000000000000000, 1.000000000000000000 ) ) ;
#127 = CIRCLE ( 'NONE', #211, 0.3125000000000000000 ) ;
#128 = DIRECTION ( 'NONE',  ( 0.000000000000000000, 0.000000000000000000, 1.000000000000000000 ) ) ;
#129 = CARTESIAN_POINT ( 'NONE',  ( 0.000000000000000000, -0.08999999999999999667, 0.000000000000000000 ) ) ;
#130 = CARTESIAN_POINT ( 'NONE',  ( 0.000000000000000000, 0.07066104471248625674, 0.000000000000000000 ) ) ;
#131 = DIRECTION ( 'NONE',  ( -0.000000000000000000, 1.000000000000000000, -0.000000000000000000 ) ) ;
#132 = CIRCLE ( 'NONE', #314, 0.3350000000000001310 ) ;
#133 = EDGE_LOOP ( 'NONE', ( #50 ) ) ;
#134 = FACE_OUTER_BOUND ( 'NONE', #75, .T. ) ;
#135 = ORIENTED_EDGE ( 'NONE', *, *, #12, .T. ) ;
#136 = PERSON_AND_ORGANIZATION ( #347, #147 ) ;
#137 = DIRECTION ( 'NONE',  ( 0.000000000000000000, 0.000000000000000000, 1.000000000000000000 ) ) ;
#138 = ADVANCED_FACE ( 'NONE', ( #35 ), #150, .F. ) ;
#139 = COORDINATED_UNIVERSAL_TIME_OFFSET ( 8, 0, .AHEAD. ) ;
#140 = EDGE_LOOP ( 'NONE', ( #241 ) ) ;
#141 = COORDINATED_UNIVERSAL_TIME_OFFSET ( 8, 0, .AHEAD. ) ;
#142 = ORIENTED_EDGE ( 'NONE', *, *, #12, .F. ) ;
#143 =( CONVERSION_BASED_UNIT ( 'INCH', #192 ) LENGTH_UNIT ( ) NAMED_UNIT ( #7 ) );
#144 = ORIENTED_EDGE ( 'NONE', *, *, #190, .T. ) ;
#145 = EDGE_LOOP ( 'NONE', ( #94, #160, #171, #55 ) ) ;
#146 = AXIS2_PLACEMENT_3D ( 'NONE', #243, #101, #323 ) ;
#147 = ORGANIZATION ( '未指定', '未指定', '' ) ;
#148 = ORIENTED_EDGE ( 'NONE', *, *, #373, .F. ) ;
#149 = VECTOR ( 'NONE', #9, 39.37007874015748143 ) ;
#150 = PLANE ( 'NONE',  #96 ) ;
#151 = EDGE_LOOP ( 'NONE', ( #355 ) ) ;
#152 = FACE_BOUND ( 'NONE', #133, .T. ) ;
#153 = AXIS2_PLACEMENT_3D ( 'NONE', #267, #265, #214 ) ;
#154 = FACE_OUTER_BOUND ( 'NONE', #81, .T. ) ;
#155 = DESIGN_CONTEXT ( 'detailed design', #254, 'design' ) ;
#156 = CARTESIAN_POINT ( 'NONE',  ( -0.4349999999999999978, 0.000000000000000000, 0.4350000000000001643 ) ) ;
#157 = PRODUCT ( '00112_index_4', '00112_index_4', '', ( #276 ) ) ;
#158 = PLANE ( 'NONE',  #62 ) ;
#159 = DIRECTION ( 'NONE',  ( -2.355041373848503438E-16, 0.000000000000000000, -1.000000000000000000 ) ) ;
#160 = ORIENTED_EDGE ( 'NONE', *, *, #190, .F. ) ;
#161 = CARTESIAN_POINT ( 'NONE',  ( 0.000000000000000000, -0.6249999999999997780, 0.2249999999999999778 ) ) ;
#162 = CIRCLE ( 'NONE', #112, 0.3750000000000001110 ) ;
#163 = DIRECTION ( 'NONE',  ( -1.570027582565668465E-16, -0.000000000000000000, -1.000000000000000000 ) ) ;
#164 = APPROVAL_PERSON_ORGANIZATION ( #363, #361, #83 ) ;
#165 = ADVANCED_FACE ( 'NONE', ( #258, #181 ), #292, .T. ) ;
#166 = APPLICATION_PROTOCOL_DEFINITION ( 'international standard', 'config_control_design', 1994, #44 ) ;
#167 = CARTESIAN_POINT ( 'NONE',  ( 0.000000000000000000, -0.08999999999999999667, 0.000000000000000000 ) ) ;
#168 = VERTEX_POINT ( 'NONE', #344 ) ;
#169 = CARTESIAN_POINT ( 'NONE',  ( 0.000000000000000000, 0.000000000000000000, 0.000000000000000000 ) ) ;
#170 = PERSON_AND_ORGANIZATION ( #347, #147 ) ;
#171 = ORIENTED_EDGE ( 'NONE', *, *, #302, .F. ) ;
#172 = SECURITY_CLASSIFICATION_LEVEL ( 'unclassified' ) ;
#173 = VERTEX_POINT ( 'NONE', #123 ) ;
#174 = ADVANCED_FACE ( 'NONE', ( #33, #134 ), #8, .F. ) ;
#175 = CIRCLE ( 'NONE', #324, 0.2249999999999999778 ) ;
#176 = EDGE_CURVE ( 'NONE', #168, #227, #100, .T. ) ;
#177 = PRODUCT_RELATED_PRODUCT_CATEGORY ( 'detail', '', ( #157 ) ) ;
#178 = EDGE_CURVE ( 'NONE', #201, #168, #43, .T. ) ;
#179 = FACE_BOUND ( 'NONE', #328, .T. ) ;
#180 = DIRECTION ( 'NONE',  ( 0.000000000000000000, -0.000000000000000000, 1.000000000000000000 ) ) ;
#181 = FACE_OUTER_BOUND ( 'NONE', #199, .T. ) ;
#182 = CARTESIAN_POINT ( 'NONE',  ( 0.4349999999999998868, 0.07066104471248622898, -0.4349999999999998868 ) ) ;
#183 = ADVANCED_FACE ( 'NONE', ( #187, #154 ), #105, .T. ) ;
#184 = DIRECTION ( 'NONE',  ( 0.000000000000000000, 1.000000000000000000, 0.000000000000000000 ) ) ;
#185 = COORDINATED_UNIVERSAL_TIME_OFFSET ( 8, 0, .AHEAD. ) ;
#186 = LOCAL_TIME ( 23, 58, 42.00000000000000000, #141 ) ;
#187 = FACE_OUTER_BOUND ( 'NONE', #367, .T. ) ;
#188 = CYLINDRICAL_SURFACE ( 'NONE', #248, 0.2249999999999999778 ) ;
#189 = CARTESIAN_POINT ( 'NONE',  ( -0.4350000000000002198, 0.07066104471248622898, -0.4349999999999998868 ) ) ;
#190 = EDGE_CURVE ( 'NONE', #16, #53, #194, .T. ) ;
#191 = VERTEX_POINT ( 'NONE', #6 ) ;
#192 = LENGTH_MEASURE_WITH_UNIT ( LENGTH_MEASURE( 0.02539999999999999897 ), #88 );
#193 = VECTOR ( 'NONE', #71, 39.37007874015748143 ) ;
#194 = LINE ( 'NONE', #300, #149 ) ;
#195 =( GEOMETRIC_REPRESENTATION_CONTEXT ( 3 ) GLOBAL_UNCERTAINTY_ASSIGNED_CONTEXT ( ( #294 ) ) GLOBAL_UNIT_ASSIGNED_CONTEXT ( ( #143, #220, #107 ) ) REPRESENTATION_CONTEXT ( 'NONE', 'WORKASPACE' ) );
#196 = APPROVAL_ROLE ( '' ) ;
#197 = EDGE_LOOP ( 'NONE', ( #77, #20, #309, #135 ) ) ;
#198 = DATE_TIME_ROLE ( 'classification_date' ) ;
#199 = EDGE_LOOP ( 'NONE', ( #298 ) ) ;
#200 = PERSON_AND_ORGANIZATION ( #347, #147 ) ;
#201 = VERTEX_POINT ( 'NONE', #296 ) ;
#202 = DIRECTION ( 'NONE',  ( 0.000000000000000000, -0.000000000000000000, 1.000000000000000000 ) ) ;
#203 = EDGE_CURVE ( 'NONE', #307, #307, #119, .T. ) ;
#204 = LINE ( 'NONE', #285, #271 ) ;
#205 = DIRECTION ( 'NONE',  ( -1.000000000000000000, -0.000000000000000000, -0.000000000000000000 ) ) ;
#206 = DIRECTION ( 'NONE',  ( -0.000000000000000000, -1.000000000000000000, -0.000000000000000000 ) ) ;
#207 = EDGE_CURVE ( 'NONE', #54, #54, #42, .T. ) ;
#208 = PLANE ( 'NONE',  #118 ) ;
#209 = CARTESIAN_POINT ( 'NONE',  ( 0.000000000000000000, -0.6249999999999998890, 0.000000000000000000 ) ) ;
#210 = FACE_OUTER_BOUND ( 'NONE', #140, .T. ) ;
#211 = AXIS2_PLACEMENT_3D ( 'NONE', #255, #206, #89 ) ;
#212 = DIRECTION ( 'NONE',  ( -0.000000000000000000, -1.000000000000000000, -0.000000000000000000 ) ) ;
#213 = EDGE_LOOP ( 'NONE', ( #215, #333, #279, #275 ) ) ;
#214 = DIRECTION ( 'NONE',  ( 0.000000000000000000, 0.000000000000000000, 1.000000000000000000 ) ) ;
#215 = ORIENTED_EDGE ( 'NONE', *, *, #176, .T. ) ;
#216 = DIRECTION ( 'NONE',  ( 0.000000000000000000, 0.000000000000000000, 1.000000000000000000 ) ) ;
#217 = ORIENTED_EDGE ( 'NONE', *, *, #207, .F. ) ;
#218 = CLOSED_SHELL ( 'NONE', ( #230, #82, #138, #370, #66, #86, #315, #259, #165, #174, #183, #299 ) ) ;
#219 = AXIS2_PLACEMENT_3D ( 'NONE', #169, #340, #13 ) ;
#220 =( NAMED_UNIT ( * ) PLANE_ANGLE_UNIT ( ) SI_UNIT ( $, .RADIAN. ) );
#221 = COORDINATED_UNIVERSAL_TIME_OFFSET ( 8, 0, .AHEAD. ) ;
#222 = CARTESIAN_POINT ( 'NONE',  ( -0.4350000000000002198, 0.07066104471248622898, -0.4349999999999998868 ) ) ;
#223 = CC_DESIGN_APPROVAL ( #362, ( #232 ) ) ;
#224 = APPROVAL ( #52, '未指定' ) ;
#225 = CARTESIAN_POINT ( 'NONE',  ( 0.4349999999999998868, 0.000000000000000000, -0.4349999999999998868 ) ) ;
#226 = LOCAL_TIME ( 23, 58, 42.00000000000000000, #139 ) ;
#227 = VERTEX_POINT ( 'NONE', #322 ) ;
#228 = DIRECTION ( 'NONE',  ( -1.000000000000000000, 0.000000000000000000, -0.000000000000000000 ) ) ;
#229 = FACE_OUTER_BOUND ( 'NONE', #282, .T. ) ;
#230 = ADVANCED_FACE ( 'NONE', ( #236 ), #158, .F. ) ;
#231 = DIRECTION ( 'NONE',  ( 0.000000000000000000, 1.000000000000000000, 0.000000000000000000 ) ) ;
#232 = SECURITY_CLASSIFICATION ( '', '', #172 ) ;
#233 = DIRECTION ( 'NONE',  ( 0.000000000000000000, 0.000000000000000000, 1.000000000000000000 ) ) ;
#234 = EDGE_CURVE ( 'NONE', #47, #47, #132, .T. ) ;
#235 = CARTESIAN_POINT ( 'NONE',  ( -0.4350000000000002198, 0.07066104471248622898, -0.4349999999999998868 ) ) ;
#236 = FACE_OUTER_BOUND ( 'NONE', #213, .T. ) ;
#237 = DIRECTION ( 'NONE',  ( 0.000000000000000000, 0.000000000000000000, 1.000000000000000000 ) ) ;
#238 = ORIENTED_EDGE ( 'NONE', *, *, #320, .F. ) ;
#239 = AXIS2_PLACEMENT_3D ( 'NONE', #357, #325, #233 ) ;
#240 = DIRECTION ( 'NONE',  ( -0.000000000000000000, 1.000000000000000000, -0.000000000000000000 ) ) ;
#241 = ORIENTED_EDGE ( 'NONE', *, *, #203, .T. ) ;
#242 = APPLICATION_PROTOCOL_DEFINITION ( 'international standard', 'config_control_design', 1994, #254 ) ;
#243 = CARTESIAN_POINT ( 'NONE',  ( 0.3125000000000000000, -0.08999999999999999667, 0.000000000000000000 ) ) ;
#244 = EDGE_LOOP ( 'NONE', ( #281 ) ) ;
#245 = CALENDAR_DATE ( 2022, 7, 11 ) ;
#246 = EDGE_CURVE ( 'NONE', #191, #311, #354, .T. ) ;
#247 = CALENDAR_DATE ( 2022, 7, 11 ) ;
#248 = AXIS2_PLACEMENT_3D ( 'NONE', #327, #352, #128 ) ;
#249 = CARTESIAN_POINT ( 'NONE',  ( 0.000000000000000000, -0.5850000000000000755, 0.3750000000000001110 ) ) ;
#250 = APPROVAL_ROLE ( '' ) ;
#251 = DIRECTION ( 'NONE',  ( 1.570027582565668712E-16, 0.000000000000000000, 1.000000000000000000 ) ) ;
#252 = EDGE_CURVE ( 'NONE', #280, #280, #175, .T. ) ;
#253 = AXIS2_PLACEMENT_3D ( 'NONE', #318, #339, #228 ) ;
#254 = APPLICATION_CONTEXT ( 'configuration controlled 3d designs of mechanical parts and assemblies' ) ;
#255 = CARTESIAN_POINT ( 'NONE',  ( 0.000000000000000000, 0.000000000000000000, 0.000000000000000000 ) ) ;
#256 = FACE_BOUND ( 'NONE', #106, .T. ) ;
#257 = AXIS2_PLACEMENT_3D ( 'NONE', #59, #231, #180 ) ;
#258 = FACE_OUTER_BOUND ( 'NONE', #305, .T. ) ;
#259 = ADVANCED_FACE ( 'NONE', ( #273, #297 ), #341, .T. ) ;
#260 = FACE_OUTER_BOUND ( 'NONE', #197, .T. ) ;
#261 = VERTEX_POINT ( 'NONE', #249 ) ;
#262 = CC_DESIGN_PERSON_AND_ORGANIZATION_ASSIGNMENT ( #136, #24, ( #157 ) ) ;
#263 = CC_DESIGN_DATE_AND_TIME_ASSIGNMENT ( #114, #198, ( #232 ) ) ;
#264 = FACE_OUTER_BOUND ( 'NONE', #151, .T. ) ;
#265 = DIRECTION ( 'NONE',  ( -0.000000000000000000, 1.000000000000000000, -0.000000000000000000 ) ) ;
#266 = DIRECTION ( 'NONE',  ( 0.000000000000000000, 0.000000000000000000, 1.000000000000000000 ) ) ;
#267 = CARTESIAN_POINT ( 'NONE',  ( 0.000000000000000000, 0.000000000000000000, 0.000000000000000000 ) ) ;
#268 = DIRECTION ( 'NONE',  ( 1.000000000000000000, 0.000000000000000000, -0.000000000000000000 ) ) ;
#269 = LINE ( 'NONE', #76, #97 ) ;
#270 = ORIENTED_EDGE ( 'NONE', *, *, #91, .F. ) ;
#271 = VECTOR ( 'NONE', #287, 39.37007874015748143 ) ;
#272 = AXIS2_PLACEMENT_3D ( 'NONE', #129, #131, #237 ) ;
#273 = FACE_OUTER_BOUND ( 'NONE', #337, .T. ) ;
#274 = PERSON_AND_ORGANIZATION_ROLE ( 'creator' ) ;
#275 = ORIENTED_EDGE ( 'NONE', *, *, #178, .T. ) ;
#276 = MECHANICAL_CONTEXT ( 'NONE', #44, 'mechanical' ) ;
#277 = CARTESIAN_POINT ( 'NONE',  ( 0.3350000000000001310, -0.6249999999999997780, 0.000000000000000000 ) ) ;
#278 = DATE_AND_TIME ( #25, #372 ) ;
#279 = ORIENTED_EDGE ( 'NONE', *, *, #306, .F. ) ;
#280 = VERTEX_POINT ( 'NONE', #161 ) ;
#281 = ORIENTED_EDGE ( 'NONE', *, *, #234, .T. ) ;
#282 = EDGE_LOOP ( 'NONE', ( #26, #115, #142, #144 ) ) ;
#283 = CARTESIAN_POINT ( 'NONE',  ( 0.000000000000000000, -0.08999999999999999667, 0.3125000000000000000 ) ) ;
#284 = PERSON_AND_ORGANIZATION_ROLE ( 'classification_officer' ) ;
#285 = CARTESIAN_POINT ( 'NONE',  ( 0.4349999999999999978, 0.07066104471248622898, 0.4350000000000001643 ) ) ;
#286 = DIRECTION ( 'NONE',  ( -1.570027582565668465E-16, -0.000000000000000000, -1.000000000000000000 ) ) ;
#287 = DIRECTION ( 'NONE',  ( -0.000000000000000000, -1.000000000000000000, -0.000000000000000000 ) ) ;
#288 = AXIS2_PLACEMENT_3D ( 'NONE', #167, #304, #18 ) ;
#289 = VERTEX_POINT ( 'NONE', #36 ) ;
#290 = ORIENTED_EDGE ( 'NONE', *, *, #38, .T. ) ;
#291 = CC_DESIGN_PERSON_AND_ORGANIZATION_ASSIGNMENT ( #170, #274, ( #60 ) ) ;
#292 = CYLINDRICAL_SURFACE ( 'NONE', #350, 0.3750000000000001110 ) ;
#293 = PLANE ( 'NONE',  #319 ) ;
#294 = UNCERTAINTY_MEASURE_WITH_UNIT (LENGTH_MEASURE( 1.000000000000000082E-05 ), #143, 'distance_accuracy_value', 'NONE');
#295 = DIRECTION ( 'NONE',  ( -0.000000000000000000, -1.000000000000000000, -0.000000000000000000 ) ) ;
#296 = CARTESIAN_POINT ( 'NONE',  ( -0.4350000000000002198, 0.07066104471248622898, -0.4349999999999998868 ) ) ;
#297 = FACE_BOUND ( 'NONE', #244, .T. ) ;
#298 = ORIENTED_EDGE ( 'NONE', *, *, #91, .T. ) ;
#299 = ADVANCED_FACE ( 'NONE', ( #210, #74 ), #188, .F. ) ;
#300 = CARTESIAN_POINT ( 'NONE',  ( 0.4349999999999998868, 0.07066104471248622898, -0.4349999999999998868 ) ) ;
#301 = ORIENTED_EDGE ( 'NONE', *, *, #176, .F. ) ;
#302 = EDGE_CURVE ( 'NONE', #311, #16, #269, .T. ) ;
#303 = VECTOR ( 'NONE', #329, 39.37007874015748143 ) ;
#304 = DIRECTION ( 'NONE',  ( -0.000000000000000000, 1.000000000000000000, -0.000000000000000000 ) ) ;
#305 = EDGE_LOOP ( 'NONE', ( #217 ) ) ;
#306 = EDGE_CURVE ( 'NONE', #201, #191, #69, .T. ) ;
#307 = VERTEX_POINT ( 'NONE', #338 ) ;
#308 = COORDINATED_UNIVERSAL_TIME_OFFSET ( 8, 0, .AHEAD. ) ;
#309 = ORIENTED_EDGE ( 'NONE', *, *, #302, .T. ) ;
#310 = APPROVAL_STATUS ( 'not_yet_approved' ) ;
#311 = VERTEX_POINT ( 'NONE', #40 ) ;
#312 = VECTOR ( 'NONE', #295, 39.37007874015748143 ) ;
#313 = LINE ( 'NONE', #222, #72 ) ;
#314 = AXIS2_PLACEMENT_3D ( 'NONE', #209, #240, #216 ) ;
#315 = ADVANCED_FACE ( 'NONE', ( #152, #264 ), #293, .F. ) ;
#316 = PLANE ( 'NONE',  #253 ) ;
#317 = CARTESIAN_POINT ( 'NONE',  ( 0.4349999999999998868, 0.000000000000000000, -0.4349999999999998868 ) ) ;
#318 = CARTESIAN_POINT ( 'NONE',  ( -0.4349999999999999978, 0.07066104471248622898, 0.4350000000000001643 ) ) ;
#319 = AXIS2_PLACEMENT_3D ( 'NONE', #277, #51, #137 ) ;
#320 = EDGE_CURVE ( 'NONE', #57, #57, #90, .T. ) ;
#321 = DIRECTION ( 'NONE',  ( 0.000000000000000000, 1.000000000000000000, 0.000000000000000000 ) ) ;
#322 = CARTESIAN_POINT ( 'NONE',  ( -0.4349999999999999978, 0.000000000000000000, 0.4350000000000001643 ) ) ;
#323 = DIRECTION ( 'NONE',  ( 0.000000000000000000, -0.000000000000000000, -1.000000000000000000 ) ) ;
#324 = AXIS2_PLACEMENT_3D ( 'NONE', #103, #41, #353 ) ;
#325 = DIRECTION ( 'NONE',  ( -0.000000000000000000, 1.000000000000000000, -0.000000000000000000 ) ) ;
#326 = EDGE_LOOP ( 'NONE', ( #98 ) ) ;
#327 = CARTESIAN_POINT ( 'NONE',  ( 0.000000000000000000, -0.7397500000000005738, 0.000000000000000000 ) ) ;
#328 = EDGE_LOOP ( 'NONE', ( #85 ) ) ;
#329 = DIRECTION ( 'NONE',  ( 2.355041373848502945E-16, 0.000000000000000000, 1.000000000000000000 ) ) ;
#330 = PERSON_AND_ORGANIZATION ( #347, #147 ) ;
#331 = CC_DESIGN_PERSON_AND_ORGANIZATION_ASSIGNMENT ( #330, #84, ( #23 ) ) ;
#332 = CC_DESIGN_PERSON_AND_ORGANIZATION_ASSIGNMENT ( #364, #284, ( #232 ) ) ;
#333 = ORIENTED_EDGE ( 'NONE', *, *, #342, .F. ) ;
#334 = VECTOR ( 'NONE', #212, 39.37007874015748143 ) ;
#335 = VECTOR ( 'NONE', #46, 39.37007874015748143 ) ;
#336 = PERSON_AND_ORGANIZATION_ROLE ( 'creator' ) ;
#337 = EDGE_LOOP ( 'NONE', ( #270 ) ) ;
#338 = CARTESIAN_POINT ( 'NONE',  ( 0.000000000000000000, 0.07066104471248625674, 0.2249999999999999778 ) ) ;
#339 = DIRECTION ( 'NONE',  ( 0.000000000000000000, 0.000000000000000000, -1.000000000000000000 ) ) ;
#340 = DIRECTION ( 'NONE',  ( 0.000000000000000000, 0.000000000000000000, 1.000000000000000000 ) ) ;
#341 = CONICAL_SURFACE ( 'NONE', #239, 0.3350000000000001310, 0.7853981633974500554 ) ;
#342 = EDGE_CURVE ( 'NONE', #191, #227, #45, .T. ) ;
#343 = VECTOR ( 'NONE', #102, 39.37007874015748143 ) ;
#344 = CARTESIAN_POINT ( 'NONE',  ( -0.4350000000000002198, 0.000000000000000000, -0.4349999999999998868 ) ) ;
#345 = CARTESIAN_POINT ( 'NONE',  ( -0.4350000000000002198, 0.000000000000000000, -0.4349999999999998868 ) ) ;
#346 = CARTESIAN_POINT ( 'NONE',  ( 0.4349999999999998868, 0.07066104471248622898, -0.4349999999999998868 ) ) ;
#347 = PERSON ( '未指定', '未指定', '未指定', ('未指定'), ('未指定'), ('未指定') ) ;
#348 = LINE ( 'NONE', #156, #343 ) ;
#349 = EDGE_LOOP ( 'NONE', ( #301, #104, #64, #148 ) ) ;
#350 = AXIS2_PLACEMENT_3D ( 'NONE', #121, #3, #117 ) ;
#351 = AXIS2_PLACEMENT_3D ( 'NONE', #130, #184, #48 ) ;
#352 = DIRECTION ( 'NONE',  ( -0.000000000000000000, 1.000000000000000000, -0.000000000000000000 ) ) ;
#353 = DIRECTION ( 'NONE',  ( 0.000000000000000000, 0.000000000000000000, 1.000000000000000000 ) ) ;
#354 = LINE ( 'NONE', #78, #335 ) ;
#355 = ORIENTED_EDGE ( 'NONE', *, *, #234, .F. ) ;
#356 = CC_DESIGN_SECURITY_CLASSIFICATION ( #232, ( #23 ) ) ;
#357 = CARTESIAN_POINT ( 'NONE',  ( 0.000000000000000000, -0.6249999999999998890, 0.000000000000000000 ) ) ;
#358 = ORIENTED_EDGE ( 'NONE', *, *, #342, .T. ) ;
#359 = CARTESIAN_POINT ( 'NONE',  ( 0.000000000000000000, -0.6249999999999998890, 0.3350000000000001310 ) ) ;
#360 = CARTESIAN_POINT ( 'NONE',  ( -0.4350000000000002198, 0.07066104471248622898, -0.4349999999999998868 ) ) ;
#361 = APPROVAL ( #111, '未指定' ) ;
#362 = APPROVAL ( #310, '未指定' ) ;
#363 = PERSON_AND_ORGANIZATION ( #347, #147 ) ;
#364 = PERSON_AND_ORGANIZATION ( #347, #147 ) ;
#365 = DATE_AND_TIME ( #247, #186 ) ;
#366 = CALENDAR_DATE ( 2022, 7, 11 ) ;
#367 = EDGE_LOOP ( 'NONE', ( #290 ) ) ;
#368 = CALENDAR_DATE ( 2022, 7, 11 ) ;
#369 = PLANE ( 'NONE',  #257 ) ;
#370 = ADVANCED_FACE ( 'NONE', ( #229 ), #39, .F. ) ;
#371 = VECTOR ( 'NONE', #374, 39.37007874015748143 ) ;
#372 = LOCAL_TIME ( 23, 58, 42.00000000000000000, #308 ) ;
#373 = EDGE_CURVE ( 'NONE', #227, #173, #348, .T. ) ;
#374 = DIRECTION ( 'NONE',  ( -1.000000000000000000, -0.000000000000000000, -0.000000000000000000 ) ) ;
ENDSEC;
END-ISO-10303-21;
