ISO-10303-21;
HEADER;
FILE_DESCRIPTION (( 'STEP AP203' ),
    '1' );
FILE_NAME ('00113_index_4.step',
    '2022-11-07T15:58:52',
    ( '' ),
    ( '' ),
    'SwSTEP 2.0',
    'SolidWorks 2020',
    '' );
FILE_SCHEMA (( 'CONFIG_CONTROL_DESIGN' ));
ENDSEC;

DATA;
#1 = CARTESIAN_POINT ( 'NONE',  ( 0.3199980765988303388, 0.6480947884124302893, -0.007862471596615927885 ) ) ;
#2 = ORIENTED_EDGE ( 'NONE', *, *, #145, .F. ) ;
#3 = DIRECTION ( 'NONE',  ( 0.000000000000000000, 0.000000000000000000, -1.000000000000000000 ) ) ;
#4 = CARTESIAN_POINT ( 'NONE',  ( -0.2977180206570393950, 0.5455536899404382911, 0.1173315452153963212 ) ) ;
#5 = AXIS2_PLACEMENT_3D ( 'NONE', #330, #123, #249 ) ;
#6 = ORIENTED_EDGE ( 'NONE', *, *, #350, .F. ) ;
#7 = DIRECTION ( 'NONE',  ( 1.000000000000000000, 0.000000000000000000, -1.821231995776175479E-16 ) ) ;
#8 = ORIENTED_EDGE ( 'NONE', *, *, #533, .T. ) ;
#9 = EDGE_CURVE ( 'NONE', #133, #441, #483, .T. ) ;
#10 = DIRECTION ( 'NONE',  ( 0.000000000000000000, 0.000000000000000000, 1.000000000000000000 ) ) ;
#11 = CARTESIAN_POINT ( 'NONE',  ( -0.6249999999999997780, 0.000000000000000000, 0.7499999999999998890 ) ) ;
#12 = CARTESIAN_POINT ( 'NONE',  ( -0.3019341914735577115, 0.5825544986396858915, -0.1060462167026734875 ) ) ;
#13 = DIRECTION ( 'NONE',  ( -1.821231995776175479E-16, 0.000000000000000000, -1.000000000000000000 ) ) ;
#14 = CIRCLE ( 'NONE', #424, 0.4600000000000000755 ) ;
#15 = AXIS2_PLACEMENT_3D ( 'NONE', #427, #33, #210 ) ;
#16 = CARTESIAN_POINT ( 'NONE',  ( -0.3197101871215310420, 0.4126789351489297819, 0.01560612810617322856 ) ) ;
#17 = CARTESIAN_POINT ( 'NONE',  ( 0.000000000000000000, 1.172000000000000597, 0.000000000000000000 ) ) ;
#18 = CYLINDRICAL_SURFACE ( 'NONE', #374, 0.4214999999999999858 ) ;
#19 = ADVANCED_FACE ( 'NONE', ( #524, #446 ), #269, .T. ) ;
#20 = LOCAL_TIME ( 23, 58, 52.00000000000000000, #146 ) ;
#21 = CIRCLE ( 'NONE', #155, 0.5000000000000000000 ) ;
#22 = DIRECTION ( 'NONE',  ( 0.000000000000000000, -0.000000000000000000, -1.000000000000000000 ) ) ;
#23 = DIRECTION ( 'NONE',  ( 0.000000000000000000, 0.000000000000000000, 1.000000000000000000 ) ) ;
#24 = ORIENTED_EDGE ( 'NONE', *, *, #161, .T. ) ;
#25 = PLANE ( 'NONE',  #111 ) ;
#26 = VERTEX_POINT ( 'NONE', #122 ) ;
#27 = DIRECTION ( 'NONE',  ( 1.000000000000000000, -0.000000000000000000, -0.000000000000000000 ) ) ;
#28 = APPROVAL ( #191, '未指定' ) ;
#29 = PERSON_AND_ORGANIZATION_ROLE ( 'creator' ) ;
#30 = CARTESIAN_POINT ( 'NONE',  ( 0.3059430632711251929, 0.4579767605283346921, -0.09390860340279964802 ) ) ;
#31 = ORIENTED_EDGE ( 'NONE', *, *, #161, .F. ) ;
#32 = PERSON_AND_ORGANIZATION_ROLE ( 'design_owner' ) ;
#33 = DIRECTION ( 'NONE',  ( -0.000000000000000000, 1.000000000000000000, -0.000000000000000000 ) ) ;
#34 = CARTESIAN_POINT ( 'NONE',  ( 0.3019414669015583197, 0.5825923404277232320, -0.1060252713690710419 ) ) ;
#35 = CARTESIAN_POINT ( 'NONE',  ( 0.3200019040579760166, 0.6481051591758630881, 0.007705120753647628877 ) ) ;
#36 = APPROVAL_STATUS ( 'not_yet_approved' ) ;
#37 = CARTESIAN_POINT ( 'NONE',  ( 0.3197073159165476630, 0.4126867339723065964, 0.01566204550779987797 ) ) ;
#38 = PLANE ( 'NONE',  #561 ) ;
#39 = AXIS2_PLACEMENT_3D ( 'NONE', #486, #226, #10 ) ;
#40 = CARTESIAN_POINT ( 'NONE',  ( 0.000000000000000000, -0.8749999999999997780, 0.3200000000000000067 ) ) ;
#41 = CARTESIAN_POINT ( 'NONE',  ( 0.3145017507985716221, 0.4276510020658683686, 0.05942024092143553815 ) ) ;
#42 = EDGE_LOOP ( 'NONE', ( #140 ) ) ;
#43 = SHAPE_DEFINITION_REPRESENTATION ( #158, #565 ) ;
#44 = CARTESIAN_POINT ( 'NONE',  ( -0.3177925641614326446, 0.4179836921472550038, 0.03822006232468382753 ) ) ;
#45 = CARTESIAN_POINT ( 'NONE',  ( -0.6249999999999997780, 0.000000000000000000, 0.7499999999999998890 ) ) ;
#46 = CARTESIAN_POINT ( 'NONE',  ( -0.3177744191584671030, 0.6419640763854687071, -0.03835444964526023293 ) ) ;
#47 = APPROVAL_PERSON_ORGANIZATION ( #480, #28, #347 ) ;
#48 = CARTESIAN_POINT ( 'NONE',  ( -0.6250000000000000000, 0.000000000000000000, -0.7500000000000002220 ) ) ;
#49 = VECTOR ( 'NONE', #85, 39.37007874015748143 ) ;
#50 = FACE_BOUND ( 'NONE', #120, .T. ) ;
#51 = DATE_AND_TIME ( #96, #100 ) ;
#52 = FACE_OUTER_BOUND ( 'NONE', #504, .T. ) ;
#53 = CARTESIAN_POINT ( 'NONE',  ( -0.3032084561437621284, 0.4706542432131236575, -0.1023956514014996017 ) ) ;
#54 = EDGE_CURVE ( 'NONE', #328, #507, #168, .T. ) ;
#55 = CALENDAR_DATE ( 2022, 7, 11 ) ;
#56 = CARTESIAN_POINT ( 'NONE',  ( -0.2977229097303447647, 0.5456041941332004930, -0.1173188353568830750 ) ) ;
#57 = CARTESIAN_POINT ( 'NONE',  ( -0.3157281825570542599, 0.4239819607357160347, 0.05261750411812043254 ) ) ;
#58 = DIRECTION ( 'NONE',  ( -1.000000000000000000, 0.000000000000000000, 1.821231995776175479E-16 ) ) ;
#59 = DIRECTION ( 'NONE',  ( 0.000000000000000000, 0.000000000000000000, 1.000000000000000000 ) ) ;
#60 = FACE_OUTER_BOUND ( 'NONE', #75, .T. ) ;
#61 = ORIENTED_EDGE ( 'NONE', *, *, #478, .F. ) ;
#62 = DIRECTION ( 'NONE',  ( 0.000000000000000000, 1.000000000000000000, 0.000000000000000000 ) ) ;
#63 = VERTEX_POINT ( 'NONE', #391 ) ;
#64 = CARTESIAN_POINT ( 'NONE',  ( 0.000000000000000000, -0.8750000000000000000, 0.000000000000000000 ) ) ;
#65 = EDGE_CURVE ( 'NONE', #63, #133, #342, .T. ) ;
#66 = DIRECTION ( 'NONE',  ( -0.000000000000000000, -1.000000000000000000, -0.000000000000000000 ) ) ;
#67 = AXIS2_PLACEMENT_3D ( 'NONE', #545, #243, #323 ) ;
#68 = EDGE_LOOP ( 'NONE', ( #265 ) ) ;
#69 = AXIS2_PLACEMENT_3D ( 'NONE', #108, #58, #502 ) ;
#70 = PLANE ( 'NONE',  #222 ) ;
#71 = EDGE_LOOP ( 'NONE', ( #165 ) ) ;
#72 = CARTESIAN_POINT ( 'NONE',  ( -0.6249999999999997780, 1.511740593012301348, 0.7499999999999998890 ) ) ;
#73 = ORIENTED_EDGE ( 'NONE', *, *, #256, .F. ) ;
#74 = VERTEX_POINT ( 'NONE', #567 ) ;
#75 = EDGE_LOOP ( 'NONE', ( #388 ) ) ;
#76 = CARTESIAN_POINT ( 'NONE',  ( 0.000000000000000000, -0.1279999999999998916, 0.5000000000000000000 ) ) ;
#77 = AXIS2_PLACEMENT_3D ( 'NONE', #488, #348, #142 ) ;
#78 = CYLINDRICAL_SURFACE ( 'NONE', #15, 0.3200000000000000067 ) ;
#79 = CARTESIAN_POINT ( 'NONE',  ( 0.3144971790680122226, 0.4276635508536035801, -0.05944985029719808411 ) ) ;
#80 = PRODUCT ( '00113_index_4', '00113_index_4', '', ( #337 ) ) ;
#81 = VERTEX_POINT ( 'NONE', #207 ) ;
#82 = CC_DESIGN_PERSON_AND_ORGANIZATION_ASSIGNMENT ( #475, #32, ( #80 ) ) ;
#83 = CARTESIAN_POINT ( 'NONE',  ( 0.3200006912937043424, 0.4118981268925402950, 0.007755060871095971649 ) ) ;
#84 = CARTESIAN_POINT ( 'NONE',  ( 0.000000000000000000, -0.8349999999999998535, 0.5000000000000001110 ) ) ;
#85 = DIRECTION ( 'NONE',  ( 1.821231995776175725E-16, 0.000000000000000000, 1.000000000000000000 ) ) ;
#86 = VERTEX_POINT ( 'NONE', #335 ) ;
#87 = CARTESIAN_POINT ( 'NONE',  ( 0.2997733127655703989, 0.4917670509518015654, -0.1120090041527778135 ) ) ;
#88 = PRODUCT_DEFINITION_FORMATION_WITH_SPECIFIED_SOURCE ( '任何', '', #80, .NOT_KNOWN. ) ;
#89 = AXIS2_PLACEMENT_3D ( 'NONE', #452, #178, #3 ) ;
#90 = CARTESIAN_POINT ( 'NONE',  ( 0.000000000000000000, 0.000000000000000000, 0.000000000000000000 ) ) ;
#91 = APPROVAL ( #393, '未指定' ) ;
#92 = APPROVAL_DATE_TIME ( #141, #28 ) ;
#93 = CYLINDRICAL_SURFACE ( 'NONE', #77, 0.1180999999999999966 ) ;
#94 = CARTESIAN_POINT ( 'NONE',  ( -0.2997863548057037031, 0.4916703330996497479, -0.1119738767564062848 ) ) ;
#95 = FACE_OUTER_BOUND ( 'NONE', #363, .T. ) ;
#96 = CALENDAR_DATE ( 2022, 7, 11 ) ;
#97 = CARTESIAN_POINT ( 'NONE',  ( -0.3019290346185944940, 0.5825210438897063803, 0.1060605070741381384 ) ) ;
#98 = EDGE_LOOP ( 'NONE', ( #299 ) ) ;
#99 = CARTESIAN_POINT ( 'NONE',  ( -0.3059670395401293264, 0.4578724722697744554, -0.09383180707025767786 ) ) ;
#100 = LOCAL_TIME ( 23, 58, 52.00000000000000000, #487 ) ;
#101 = ORIENTED_EDGE ( 'NONE', *, *, #333, .F. ) ;
#102 = DIRECTION ( 'NONE',  ( 0.000000000000000000, 0.000000000000000000, 1.000000000000000000 ) ) ;
#103 = EDGE_CURVE ( 'NONE', #63, #26, #137, .T. ) ;
#104 = CARTESIAN_POINT ( 'NONE',  ( -0.2977225977088192588, 0.5143904667103956774, -0.1173197260829275251 ) ) ;
#105 = DIRECTION ( 'NONE',  ( -0.000000000000000000, 1.000000000000000000, -0.000000000000000000 ) ) ;
#106 = CALENDAR_DATE ( 2022, 7, 11 ) ;
#107 = CARTESIAN_POINT ( 'NONE',  ( -0.3145051473117205787, 0.4276402719731720592, 0.05940363160641148887 ) ) ;
#108 = CARTESIAN_POINT ( 'NONE',  ( 0.6250000000000003331, 0.5300000000000000266, 0.000000000000000000 ) ) ;
#109 = DIRECTION ( 'NONE',  ( 0.000000000000000000, 0.000000000000000000, 1.000000000000000000 ) ) ;
#110 = CARTESIAN_POINT ( 'NONE',  ( 0.000000000000000000, -0.1279999999999998916, 0.000000000000000000 ) ) ;
#111 = AXIS2_PLACEMENT_3D ( 'NONE', #197, #552, #415 ) ;
#112 = FACE_BOUND ( 'NONE', #242, .T. ) ;
#113 = CARTESIAN_POINT ( 'NONE',  ( 0.2974094652158872365, 0.5299999999999999156, -0.1180999999999999966 ) ) ;
#114 = ORIENTED_EDGE ( 'NONE', *, *, #145, .T. ) ;
#115 = ADVANCED_FACE ( 'NONE', ( #95 ), #221, .T. ) ;
#116 = LINE ( 'NONE', #421, #300 ) ;
#117 = VERTEX_POINT ( 'NONE', #419 ) ;
#118 = CARTESIAN_POINT ( 'NONE',  ( -0.6250000000000000000, 0.000000000000000000, -0.7500000000000002220 ) ) ;
#119 = EDGE_CURVE ( 'NONE', #117, #117, #149, .T. ) ;
#120 = EDGE_LOOP ( 'NONE', ( #8 ) ) ;
#121 =( NAMED_UNIT ( * ) PLANE_ANGLE_UNIT ( ) SI_UNIT ( $, .RADIAN. ) );
#122 = CARTESIAN_POINT ( 'NONE',  ( -0.6250000000000000000, 1.511740593012301348, -0.7500000000000002220 ) ) ;
#123 = DIRECTION ( 'NONE',  ( 0.000000000000000000, 0.000000000000000000, 1.000000000000000000 ) ) ;
#124 = CARTESIAN_POINT ( 'NONE',  ( 0.3103871850553906464, 0.4410310869636732134, 0.07805001617516088563 ) ) ;
#125 = CARTESIAN_POINT ( 'NONE',  ( 0.3186010553311039439, 0.6442640796590934915, -0.03085534902602263610 ) ) ;
#126 = VERTEX_POINT ( 'NONE', #76 ) ;
#127 = CC_DESIGN_APPROVAL ( #284, ( #543 ) ) ;
#128 = CIRCLE ( 'NONE', #334, 0.5000000000000001110 ) ;
#129 = CARTESIAN_POINT ( 'NONE',  ( 0.3186038545873222105, 0.6442718017115518503, 0.03081783291944920067 ) ) ;
#130 = LENGTH_MEASURE_WITH_UNIT ( LENGTH_MEASURE( 0.02539999999999999897 ), #472 );
#131 = CARTESIAN_POINT ( 'NONE',  ( 0.3059690344345866175, 0.4578665323161014156, 0.09382446249662279580 ) ) ;
#132 = CARTESIAN_POINT ( 'NONE',  ( 0.3103638083129496295, 0.6188851060422715378, 0.07813957112488024992 ) ) ;
#133 = VERTEX_POINT ( 'NONE', #276 ) ;
#134 = FACE_OUTER_BOUND ( 'NONE', #340, .T. ) ;
#135 = VECTOR ( 'NONE', #540, 39.37007874015748143 ) ;
#136 = CARTESIAN_POINT ( 'NONE',  ( 0.2997851971548979866, 0.5683143558538840123, 0.1119764308792730728 ) ) ;
#137 = LINE ( 'NONE', #302, #409 ) ;
#138 = PERSON_AND_ORGANIZATION ( #439, #289 ) ;
#139 = CARTESIAN_POINT ( 'NONE',  ( -0.3074536825733523160, 0.4518824271317648522, -0.08890146344573758574 ) ) ;
#140 = ORIENTED_EDGE ( 'NONE', *, *, #278, .F. ) ;
#141 = DATE_AND_TIME ( #55, #164 ) ;
#142 = DIRECTION ( 'NONE',  ( 0.000000000000000000, 0.000000000000000000, -1.000000000000000000 ) ) ;
#143 = CARTESIAN_POINT ( 'NONE',  ( -0.3145017507985717331, 0.6323489979341316847, 0.05942024092143562836 ) ) ;
#144 = ORIENTED_EDGE ( 'NONE', *, *, #9, .T. ) ;
#145 = EDGE_CURVE ( 'NONE', #507, #133, #359, .T. ) ;
#146 = COORDINATED_UNIVERSAL_TIME_OFFSET ( 8, 0, .AHEAD. ) ;
#147 = CARTESIAN_POINT ( 'NONE',  ( -0.3074334697798049021, 0.4519602222806927139, 0.08897273596584090449 ) ) ;
#148 = CC_DESIGN_SECURITY_CLASSIFICATION ( #447, ( #88 ) ) ;
#149 = CIRCLE ( 'NONE', #536, 0.4214999999999999858 ) ;
#150 = CARTESIAN_POINT ( 'NONE',  ( -0.3186010553311041660, 0.4157359203409069504, -0.03085534902602271590 ) ) ;
#151 = CARTESIAN_POINT ( 'NONE',  ( -0.3019414669015583197, 0.4774076595722769323, -0.1060252713690710280 ) ) ;
#152 = FACE_BOUND ( 'NONE', #162, .T. ) ;
#153 = ORIENTED_EDGE ( 'NONE', *, *, #307, .F. ) ;
#154 = FACE_OUTER_BOUND ( 'NONE', #98, .T. ) ;
#155 = AXIS2_PLACEMENT_3D ( 'NONE', #233, #306, #495 ) ;
#156 = EDGE_LOOP ( 'NONE', ( #351, #101, #61, #262 ) ) ;
#157 = DIRECTION ( 'NONE',  ( -0.000000000000000000, 1.000000000000000000, -0.000000000000000000 ) ) ;
#158 = PRODUCT_DEFINITION_SHAPE ( 'NONE', 'NONE',  #543 ) ;
#159 = EDGE_CURVE ( 'NONE', #204, #204, #512, .T. ) ;
#160 = DIRECTION ( 'NONE',  ( -0.000000000000000000, -1.000000000000000000, -0.000000000000000000 ) ) ;
#161 = EDGE_CURVE ( 'NONE', #81, #81, #282, .T. ) ;
#162 = EDGE_LOOP ( 'NONE', ( #490 ) ) ;
#163 = LINE ( 'NONE', #466, #135 ) ;
#164 = LOCAL_TIME ( 23, 58, 52.00000000000000000, #499 ) ;
#165 = ORIENTED_EDGE ( 'NONE', *, *, #272, .T. ) ;
#166 = CONICAL_SURFACE ( 'NONE', #39, 0.4600000000000000755, 0.7853981633974466137 ) ;
#167 = FACE_OUTER_BOUND ( 'NONE', #185, .T. ) ;
#168 = LINE ( 'NONE', #45, #241 ) ;
#169 = PERSON_AND_ORGANIZATION ( #439, #289 ) ;
#170 = CARTESIAN_POINT ( 'NONE',  ( 0.3074334697798050131, 0.6080397777193070619, 0.08897273596584096000 ) ) ;
#171 = DESIGN_CONTEXT ( 'detailed design', #434, 'design' ) ;
#172 =( NAMED_UNIT ( * ) SI_UNIT ( $, .STERADIAN. ) SOLID_ANGLE_UNIT ( ) );
#173 = CARTESIAN_POINT ( 'NONE',  ( 0.3177925641614326446, 0.6420163078527452161, 0.03822006232468383446 ) ) ;
#174 = EDGE_CURVE ( 'NONE', #378, #378, #560, .T. ) ;
#175 = CARTESIAN_POINT ( 'NONE',  ( 0.3032004274041673053, 0.4706983285366859726, -0.1024181848048205390 ) ) ;
#176 = CARTESIAN_POINT ( 'NONE',  ( 0.3019341914735579335, 0.4774455013603139397, -0.1060462167026734737 ) ) ;
#177 = EDGE_LOOP ( 'NONE', ( #369 ) ) ;
#178 = DIRECTION ( 'NONE',  ( 1.000000000000000000, 0.000000000000000000, -1.821231995776175479E-16 ) ) ;
#179 = PERSON_AND_ORGANIZATION_ROLE ( 'design_supplier' ) ;
#180 = CARTESIAN_POINT ( 'NONE',  ( 0.2974105723589581252, 0.5377993804882532647, 0.1180972118979417840 ) ) ;
#181 = ORIENTED_EDGE ( 'NONE', *, *, #268, .T. ) ;
#182 = DATE_AND_TIME ( #106, #20 ) ;
#183 = CARTESIAN_POINT ( 'NONE',  ( -0.3177892568544886109, 0.6420064969261156662, 0.03823990443944657452 ) ) ;
#184 = AXIS2_PLACEMENT_3D ( 'NONE', #509, #275, #109 ) ;
#185 = EDGE_LOOP ( 'NONE', ( #181 ) ) ;
#186 = FACE_OUTER_BOUND ( 'NONE', #514, .T. ) ;
#187 = CARTESIAN_POINT ( 'NONE',  ( -0.3074350622804452038, 0.6080457322986029256, -0.08896691863860718696 ) ) ;
#188 = ADVANCED_FACE ( 'NONE', ( #410, #152, #60, #297 ), #78, .F. ) ;
#189 = ORIENTED_EDGE ( 'NONE', *, *, #333, .T. ) ;
#190 = CARTESIAN_POINT ( 'NONE',  ( -0.2997733127655702878, 0.5682329490481984324, -0.1120090041527778274 ) ) ;
#191 = APPROVAL_STATUS ( 'not_yet_approved' ) ;
#192 = CARTESIAN_POINT ( 'NONE',  ( -0.3032218773298242520, 0.5894112280523958747, 0.1023551313036648452 ) ) ;
#193 = DIRECTION ( 'NONE',  ( 0.000000000000000000, -0.000000000000000000, 1.000000000000000000 ) ) ;
#194 = CARTESIAN_POINT ( 'NONE',  ( -0.3200006912937043979, 0.6481018731074598138, 0.007755060871096155529 ) ) ;
#195 = CC_DESIGN_PERSON_AND_ORGANIZATION_ASSIGNMENT ( #169, #29, ( #543 ) ) ;
#196 = CARTESIAN_POINT ( 'NONE',  ( 0.2997863548057033145, 0.5683296669003504720, -0.1119738767564062432 ) ) ;
#197 = CARTESIAN_POINT ( 'NONE',  ( -0.6250000000000000000, 1.511740593012301348, -0.7500000000000002220 ) ) ;
#198 = LINE ( 'NONE', #72, #344 ) ;
#199 = CARTESIAN_POINT ( 'NONE',  ( 0.2974094652158871810, 0.5378782916357843780, -0.1180999999999999966 ) ) ;
#200 = APPROVAL_PERSON_ORGANIZATION ( #343, #91, #537 ) ;
#201 = PLANE ( 'NONE',  #67 ) ;
#202 = CARTESIAN_POINT ( 'NONE',  ( 0.000000000000000000, 1.172000000000000597, 0.000000000000000000 ) ) ;
#203 = ORIENTED_EDGE ( 'NONE', *, *, #462, .T. ) ;
#204 = VERTEX_POINT ( 'NONE', #513 ) ;
#205 = DIRECTION ( 'NONE',  ( -1.000000000000000000, 0.000000000000000000, 1.821231995776175479E-16 ) ) ;
#206 = ORIENTED_EDGE ( 'NONE', *, *, #174, .F. ) ;
#207 = CARTESIAN_POINT ( 'NONE',  ( 0.000000000000000000, 0.000000000000000000, 0.4214999999999999858 ) ) ;
#208 = CARTESIAN_POINT ( 'NONE',  ( 0.2974094652158872365, 0.5299999999999999156, -0.1180999999999999966 ) ) ;
#209 = VERTEX_POINT ( 'NONE', #254 ) ;
#210 = DIRECTION ( 'NONE',  ( 0.000000000000000000, 0.000000000000000000, 1.000000000000000000 ) ) ;
#211 = CARTESIAN_POINT ( 'NONE',  ( 0.2989097193302654998, 0.4991306340052776847, 0.1142615027753431933 ) ) ;
#212 = ADVANCED_FACE ( 'NONE', ( #338, #186 ), #93, .F. ) ;
#213 = APPROVAL_ROLE ( '' ) ;
#214 = CARTESIAN_POINT ( 'NONE',  ( 0.2977229097303448202, 0.5143958058668000044, -0.1173188353568830611 ) ) ;
#215 = CARTESIAN_POINT ( 'NONE',  ( 0.3157372277436138464, 0.4239554783840555618, 0.05255763579579496303 ) ) ;
#216 = CARTESIAN_POINT ( 'NONE',  ( -0.6249999999999998890, 0.5300000000000000266, -0.1180999999999999966 ) ) ;
#217 = CARTESIAN_POINT ( 'NONE',  ( 0.2988989301738754767, 0.4992570275456179596, -0.1142894117961552464 ) ) ;
#218 = DIRECTION ( 'NONE',  ( 0.000000000000000000, 0.000000000000000000, 1.000000000000000000 ) ) ;
#219 = APPROVAL_DATE_TIME ( #182, #91 ) ;
#220 = CARTESIAN_POINT ( 'NONE',  ( -0.3103638083129495184, 0.4411148939577285155, 0.07813957112488015277 ) ) ;
#221 = PLANE ( 'NONE',  #258 ) ;
#222 = AXIS2_PLACEMENT_3D ( 'NONE', #17, #62, #236 ) ;
#223 = CARTESIAN_POINT ( 'NONE',  ( -0.3144971790680121670, 0.6323364491463968617, -0.05944985029719808411 ) ) ;
#224 = VECTOR ( 'NONE', #558, 39.37007874015748143 ) ;
#225 = EDGE_LOOP ( 'NONE', ( #412 ) ) ;
#226 = DIRECTION ( 'NONE',  ( -0.000000000000000000, 1.000000000000000000, -0.000000000000000000 ) ) ;
#227 = CARTESIAN_POINT ( 'NONE',  ( -0.3177717619898526302, 0.4180436476031310078, -0.03837292836106230565 ) ) ;
#228 = PERSON_AND_ORGANIZATION_ROLE ( 'creator' ) ;
#229 = CARTESIAN_POINT ( 'NONE',  ( -0.3118324392637595865, 0.4361730507085224695, 0.07213049948815632162 ) ) ;
#230 = CC_DESIGN_DATE_AND_TIME_ASSIGNMENT ( #522, #296, ( #543 ) ) ;
#231 = CARTESIAN_POINT ( 'NONE',  ( -0.2997851971548981531, 0.4916856441461162075, 0.1119764308792730451 ) ) ;
#232 = CARTESIAN_POINT ( 'NONE',  ( 0.2989037167384467342, 0.5607951980524462643, -0.1142769943365812696 ) ) ;
#233 = CARTESIAN_POINT ( 'NONE',  ( 0.000000000000000000, -0.1279999999999998916, 0.000000000000000000 ) ) ;
#234 = FACE_OUTER_BOUND ( 'NONE', #529, .T. ) ;
#235 = ORIENTED_EDGE ( 'NONE', *, *, #491, .F. ) ;
#236 = DIRECTION ( 'NONE',  ( 0.000000000000000000, -0.000000000000000000, 1.000000000000000000 ) ) ;
#237 = EDGE_LOOP ( 'NONE', ( #24 ) ) ;
#238 = DIRECTION ( 'NONE',  ( 0.000000000000000000, -1.000000000000000000, 0.000000000000000000 ) ) ;
#239 = ADVANCED_FACE ( 'NONE', ( #448, #52 ), #400, .F. ) ;
#240 = DIRECTION ( 'NONE',  ( 0.000000000000000000, 1.000000000000000000, 0.000000000000000000 ) ) ;
#241 = VECTOR ( 'NONE', #329, 39.37007874015748143 ) ;
#242 = EDGE_LOOP ( 'NONE', ( #418 ) ) ;
#243 = DIRECTION ( 'NONE',  ( 0.000000000000000000, 0.000000000000000000, -1.000000000000000000 ) ) ;
#244 = CARTESIAN_POINT ( 'NONE',  ( 0.2977225977088192588, 0.5456095332896042649, -0.1173197260829275390 ) ) ;
#245 = FACE_OUTER_BOUND ( 'NONE', #237, .T. ) ;
#246 = CARTESIAN_POINT ( 'NONE',  ( 0.2977212187252595843, 0.5456174913927734904, 0.1173235190355419594 ) ) ;
#247 = VECTOR ( 'NONE', #319, 39.37007874015748143 ) ;
#248 = ORIENTED_EDGE ( 'NONE', *, *, #9, .F. ) ;
#249 = DIRECTION ( 'NONE',  ( 1.000000000000000000, 0.000000000000000000, 0.000000000000000000 ) ) ;
#250 = CARTESIAN_POINT ( 'NONE',  ( 0.3074350622804449817, 0.4519542677013976273, -0.08896691863860715921 ) ) ;
#251 = EDGE_CURVE ( 'NONE', #346, #63, #311, .T. ) ;
#252 = CARTESIAN_POINT ( 'NONE',  ( 0.3177744191584669364, 0.4180359236145321233, -0.03835444964526030232 ) ) ;
#253 = COORDINATED_UNIVERSAL_TIME_OFFSET ( 8, 0, .AHEAD. ) ;
#254 = CARTESIAN_POINT ( 'NONE',  ( -0.6249999999999997780, 1.511740593012301348, 0.7499999999999998890 ) ) ;
#255 = FACE_BOUND ( 'NONE', #493, .T. ) ;
#256 = EDGE_CURVE ( 'NONE', #86, #86, #357, .T. ) ;
#257 = CARTESIAN_POINT ( 'NONE',  ( 0.000000000000000000, -0.8750000000000000000, 0.4600000000000000755 ) ) ;
#258 = AXIS2_PLACEMENT_3D ( 'NONE', #395, #498, #193 ) ;
#259 = CARTESIAN_POINT ( 'NONE',  ( 0.3157281825570542044, 0.6360180392642839076, 0.05261750411812046030 ) ) ;
#260 = DIRECTION ( 'NONE',  ( -1.000000000000000000, -0.000000000000000000, -0.000000000000000000 ) ) ;
#261 = CARTESIAN_POINT ( 'NONE',  ( -0.3118291560044214039, 0.4356975844102456419, -0.07271537656100374170 ) ) ;
#262 = ORIENTED_EDGE ( 'NONE', *, *, #491, .T. ) ;
#263 = PERSON_AND_ORGANIZATION ( #439, #289 ) ;
#264 = CARTESIAN_POINT ( 'NONE',  ( -0.3197149988036880885, 0.6473343023770754545, -0.01553646161019270680 ) ) ;
#265 = ORIENTED_EDGE ( 'NONE', *, *, #380, .F. ) ;
#266 = LOCAL_TIME ( 23, 58, 52.00000000000000000, #253 ) ;
#267 = CARTESIAN_POINT ( 'NONE',  ( -0.3157372277436138464, 0.6360445216159442694, 0.05255763579579507405 ) ) ;
#268 = EDGE_CURVE ( 'NONE', #126, #126, #21, .T. ) ;
#269 = CYLINDRICAL_SURFACE ( 'NONE', #384, 0.5000000000000000000 ) ;
#270 = DIRECTION ( 'NONE',  ( 0.000000000000000000, 1.000000000000000000, 0.000000000000000000 ) ) ;
#271 = CARTESIAN_POINT ( 'NONE',  ( -0.2974083640984469534, 0.5377147145658126570, 0.1181027729278019411 ) ) ;
#272 = EDGE_CURVE ( 'NONE', #432, #432, #128, .T. ) ;
#273 = CARTESIAN_POINT ( 'NONE',  ( -0.3059721994736266382, 0.4578519921161079975, 0.09381459325820913631 ) ) ;
#274 = CARTESIAN_POINT ( 'NONE',  ( 0.6250000000000000000, 1.511740593012301348, -0.7500000000000002220 ) ) ;
#275 = DIRECTION ( 'NONE',  ( -0.000000000000000000, 1.000000000000000000, 0.000000000000000000 ) ) ;
#276 = CARTESIAN_POINT ( 'NONE',  ( 0.6250000000000000000, 0.000000000000000000, -0.7500000000000002220 ) ) ;
#277 = DIRECTION ( 'NONE',  ( 0.000000000000000000, 0.000000000000000000, 1.000000000000000000 ) ) ;
#278 = EDGE_CURVE ( 'NONE', #291, #291, #474, .T. ) ;
#279 = DIRECTION ( 'NONE',  ( 1.000000000000000000, 0.000000000000000000, 0.000000000000000000 ) ) ;
#280 = ORIENTED_EDGE ( 'NONE', *, *, #54, .F. ) ;
#281 = FACE_OUTER_BOUND ( 'NONE', #156, .T. ) ;
#282 = CIRCLE ( 'NONE', #318, 0.4214999999999999858 ) ;
#283 = FACE_OUTER_BOUND ( 'NONE', #177, .T. ) ;
#284 = APPROVAL ( #36, '未指定' ) ;
#285 = EDGE_LOOP ( 'NONE', ( #544 ) ) ;
#286 = VERTEX_POINT ( 'NONE', #257 ) ;
#287 = EDGE_LOOP ( 'NONE', ( #206 ) ) ;
#288 = CARTESIAN_POINT ( 'NONE',  ( 0.3185994291455048755, 0.4157405111714446155, 0.03086213324140135023 ) ) ;
#289 = ORGANIZATION ( '未指定', '未指定', '' ) ;
#290 = VECTOR ( 'NONE', #559, 39.37007874015748143 ) ;
#291 = VERTEX_POINT ( 'NONE', #216 ) ;
#292 = CARTESIAN_POINT ( 'NONE',  ( 0.3032218773298242520, 0.4705887719476042896, 0.1023551313036646926 ) ) ;
#293 = ADVANCED_FACE ( 'NONE', ( #134, #50 ), #166, .T. ) ;
#294 = APPROVAL_DATE_TIME ( #470, #284 ) ;
#295 = CARTESIAN_POINT ( 'NONE',  ( 0.6250000000000003331, 1.511740593012301348, 0.7499999999999998890 ) ) ;
#296 = DATE_TIME_ROLE ( 'creation_date' ) ;
#297 = FACE_OUTER_BOUND ( 'NONE', #287, .T. ) ;
#298 = CARTESIAN_POINT ( 'NONE',  ( 0.3019275314547724687, 0.5825077106877597499, 0.1060643731669082823 ) ) ;
#299 = ORIENTED_EDGE ( 'NONE', *, *, #159, .F. ) ;
#300 = VECTOR ( 'NONE', #279, 39.37007874015748143 ) ;
#301 = CARTESIAN_POINT ( 'NONE',  ( 0.2974083640984469534, 0.5222852854341872852, 0.1181027729278019966 ) ) ;
#302 = CARTESIAN_POINT ( 'NONE',  ( -0.6250000000000000000, 1.511740593012301348, -0.7500000000000002220 ) ) ;
#303 = PERSON_AND_ORGANIZATION_ROLE ( 'classification_officer' ) ;
#304 = CARTESIAN_POINT ( 'NONE',  ( -0.2974105723589581252, 0.5222006195117466776, 0.1180972118979418117 ) ) ;
#305 = ORIENTED_EDGE ( 'NONE', *, *, #251, .T. ) ;
#306 = DIRECTION ( 'NONE',  ( -0.000000000000000000, 1.000000000000000000, -0.000000000000000000 ) ) ;
#307 = EDGE_CURVE ( 'NONE', #563, #563, #420, .T. ) ;
#308 = CARTESIAN_POINT ( 'NONE',  ( -0.3074341557721423368, 0.6080450060899862397, 0.08897330799864830442 ) ) ;
#309 = EDGE_LOOP ( 'NONE', ( #548 ) ) ;
#310 = AXIS2_PLACEMENT_3D ( 'NONE', #372, #205, #503 ) ;
#311 = LINE ( 'NONE', #274, #327 ) ;
#312 = CARTESIAN_POINT ( 'NONE',  ( -0.3147165006794621078, 0.4269224840451034675, -0.05965753595840678214 ) ) ;
#313 = AXIS2_PLACEMENT_3D ( 'NONE', #445, #358, #455 ) ;
#314 = CARTESIAN_POINT ( 'NONE',  ( -0.3103871850553908129, 0.6189689130363270619, 0.07805001617516094115 ) ) ;
#315 = CARTESIAN_POINT ( 'NONE',  ( -0.3199993061728493293, 0.6480981200279950505, -0.007812006557739480279 ) ) ;
#316 = EDGE_LOOP ( 'NONE', ( #31 ) ) ;
#317 = CARTESIAN_POINT ( 'NONE',  ( -0.2974094652158871255, 0.5299999999999998046, -0.1180999999999999966 ) ) ;
#318 = AXIS2_PLACEMENT_3D ( 'NONE', #464, #66, #417 ) ;
#319 = DIRECTION ( 'NONE',  ( -1.821231995776175725E-16, -0.000000000000000000, -1.000000000000000000 ) ) ;
#320 = ORIENTED_EDGE ( 'NONE', *, *, #462, .F. ) ;
#321 = FACE_BOUND ( 'NONE', #285, .T. ) ;
#322 = EDGE_CURVE ( 'NONE', #441, #328, #430, .T. ) ;
#323 = DIRECTION ( 'NONE',  ( -1.000000000000000000, 0.000000000000000000, -0.000000000000000000 ) ) ;
#324 = ORIENTED_EDGE ( 'NONE', *, *, #278, .T. ) ;
#325 = CARTESIAN_POINT ( 'NONE',  ( 0.6250000000000003331, 0.000000000000000000, 0.7499999999999998890 ) ) ;
#326 = PRODUCT_RELATED_PRODUCT_CATEGORY ( 'detail', '', ( #80 ) ) ;
#327 = VECTOR ( 'NONE', #456, 39.37007874015748143 ) ;
#328 = VERTEX_POINT ( 'NONE', #517 ) ;
#329 = DIRECTION ( 'NONE',  ( 1.000000000000000000, 0.000000000000000000, 0.000000000000000000 ) ) ;
#330 = CARTESIAN_POINT ( 'NONE',  ( 0.000000000000000000, 0.000000000000000000, 0.000000000000000000 ) ) ;
#331 = CARTESIAN_POINT ( 'NONE',  ( 0.3157322054022709823, 0.4239707660240265019, -0.05258155333298931283 ) ) ;
#332 = CARTESIAN_POINT ( 'NONE',  ( 0.3059721994736265827, 0.6021480078838920003, 0.09381459325820923345 ) ) ;
#333 = EDGE_CURVE ( 'NONE', #346, #507, #382, .T. ) ;
#334 = AXIS2_PLACEMENT_3D ( 'NONE', #392, #354, #102 ) ;
#335 = CARTESIAN_POINT ( 'NONE',  ( 0.6250000000000003331, 0.5300000000000000266, 0.1180999999999999966 ) ) ;
#336 = CARTESIAN_POINT ( 'NONE',  ( 0.6250000000000003331, 1.511740593012301348, 0.7499999999999998890 ) ) ;
#337 = MECHANICAL_CONTEXT ( 'NONE', #403, 'mechanical' ) ;
#338 = FACE_OUTER_BOUND ( 'NONE', #459, .T. ) ;
#339 = CARTESIAN_POINT ( 'NONE',  ( 0.3186005783898336885, 0.4157372037598881520, -0.03086638218305903444 ) ) ;
#340 = EDGE_LOOP ( 'NONE', ( #422 ) ) ;
#341 = CARTESIAN_POINT ( 'NONE',  ( 0.2977180206570393395, 0.5144463100595617622, 0.1173315452153962518 ) ) ;
#342 = LINE ( 'NONE', #471, #366 ) ;
#343 = PERSON_AND_ORGANIZATION ( #439, #289 ) ;
#344 = VECTOR ( 'NONE', #160, 39.37007874015748143 ) ;
#345 = CARTESIAN_POINT ( 'NONE',  ( -0.3197073159165476630, 0.6473132660276936790, 0.01566204550779992308 ) ) ;
#346 = VERTEX_POINT ( 'NONE', #336 ) ;
#347 = APPROVAL_ROLE ( '' ) ;
#348 = DIRECTION ( 'NONE',  ( 1.000000000000000000, -0.000000000000000000, -0.000000000000000000 ) ) ;
#349 = CARTESIAN_POINT ( 'NONE',  ( -0.3059430632711253595, 0.6020232394716658053, -0.09390860340279960639 ) ) ;
#350 = EDGE_CURVE ( 'NONE', #26, #209, #521, .T. ) ;
#351 = ORIENTED_EDGE ( 'NONE', *, *, #54, .T. ) ;
#352 = DIRECTION ( 'NONE',  ( 0.000000000000000000, -0.000000000000000000, 1.000000000000000000 ) ) ;
#353 = CARTESIAN_POINT ( 'NONE',  ( -0.2988989301738755322, 0.5607429724543825378, -0.1142894117961552464 ) ) ;
#354 = DIRECTION ( 'NONE',  ( -0.000000000000000000, 1.000000000000000000, -0.000000000000000000 ) ) ;
#355 = PERSON_AND_ORGANIZATION ( #439, #289 ) ;
#356 = CARTESIAN_POINT ( 'NONE',  ( -0.3185994291455049865, 0.6442594888285554378, 0.03086213324140145778 ) ) ;
#357 = CIRCLE ( 'NONE', #69, 0.1180999999999999966 ) ;
#358 = DIRECTION ( 'NONE',  ( -0.000000000000000000, 1.000000000000000000, -0.000000000000000000 ) ) ;
#359 = LINE ( 'NONE', #458, #247 ) ;
#360 = CARTESIAN_POINT ( 'NONE',  ( 0.3147165006794623299, 0.6330775159548974740, -0.05965753595840672663 ) ) ;
#361 = CARTESIAN_POINT ( 'NONE',  ( -0.2989173512758631635, 0.4990554552153805834, 0.1142416268457308176 ) ) ;
#362 = PLANE ( 'NONE',  #184 ) ;
#363 = EDGE_LOOP ( 'NONE', ( #399, #371, #305, #468 ) ) ;
#364 = FACE_BOUND ( 'NONE', #309, .T. ) ;
#365 = CC_DESIGN_APPROVAL ( #28, ( #88 ) ) ;
#366 = VECTOR ( 'NONE', #527, 39.37007874015748143 ) ;
#367 = ADVANCED_FACE ( 'NONE', ( #255, #433 ), #38, .F. ) ;
#368 = CARTESIAN_POINT ( 'NONE',  ( 0.4214999999999999858, -0.1279999999999998916, 0.000000000000000000 ) ) ;
#369 = ORIENTED_EDGE ( 'NONE', *, *, #533, .F. ) ;
#370 = FACE_OUTER_BOUND ( 'NONE', #42, .T. ) ;
#371 = ORIENTED_EDGE ( 'NONE', *, *, #478, .T. ) ;
#372 = CARTESIAN_POINT ( 'NONE',  ( 0.6250000000000000000, 1.511740593012301348, -0.7500000000000002220 ) ) ;
#373 = DIMENSIONAL_EXPONENTS ( 1.000000000000000000, 0.000000000000000000, 0.000000000000000000, 0.000000000000000000, 0.000000000000000000, 0.000000000000000000, 0.000000000000000000 ) ;
#374 = AXIS2_PLACEMENT_3D ( 'NONE', #511, #157, #59 ) ;
#375 = EDGE_LOOP ( 'NONE', ( #144, #320, #465, #425 ) ) ;
#376 = CARTESIAN_POINT ( 'NONE',  ( 0.2974094652158871810, 0.5300000000000000266, -0.1180999999999999966 ) ) ;
#377 = CARTESIAN_POINT ( 'NONE',  ( -0.6250000000000000000, 0.000000000000000000, -0.7500000000000002220 ) ) ;
#378 = VERTEX_POINT ( 'NONE', #40 ) ;
#379 = CARTESIAN_POINT ( 'NONE',  ( 0.3197149988036881441, 0.4126656976229245988, -0.01553646161019276231 ) ) ;
#380 = EDGE_CURVE ( 'NONE', #74, #74, #525, .T. ) ;
#381 = CALENDAR_DATE ( 2022, 7, 11 ) ;
#382 = LINE ( 'NONE', #295, #290 ) ;
#383 = LOCAL_TIME ( 23, 58, 52.00000000000000000, #519 ) ;
#384 = AXIS2_PLACEMENT_3D ( 'NONE', #90, #451, #218 ) ;
#385 = CALENDAR_DATE ( 2022, 7, 11 ) ;
#386 = CARTESIAN_POINT ( 'NONE',  ( 0.3032084561437619064, 0.5893457567868762847, -0.1023956514014995184 ) ) ;
#387 = CARTESIAN_POINT ( 'NONE',  ( -0.6250000000000000000, 1.511740593012301348, -0.7500000000000002220 ) ) ;
#388 = ORIENTED_EDGE ( 'NONE', *, *, #159, .T. ) ;
#389 = CARTESIAN_POINT ( 'NONE',  ( 0.2974094652158872365, 0.5221217083642154533, -0.1181000000000000105 ) ) ;
#390 = CC_DESIGN_PERSON_AND_ORGANIZATION_ASSIGNMENT ( #138, #303, ( #447 ) ) ;
#391 = CARTESIAN_POINT ( 'NONE',  ( 0.6250000000000000000, 1.511740593012301348, -0.7500000000000002220 ) ) ;
#392 = CARTESIAN_POINT ( 'NONE',  ( 0.000000000000000000, -0.8349999999999998535, 0.000000000000000000 ) ) ;
#393 = APPROVAL_STATUS ( 'not_yet_approved' ) ;
#394 = CARTESIAN_POINT ( 'NONE',  ( -0.2977212187252595843, 0.5143825086072262298, 0.1173235190355418900 ) ) ;
#395 = CARTESIAN_POINT ( 'NONE',  ( -0.6249999999999997780, 1.511740593012301348, 0.7499999999999998890 ) ) ;
#396 = AXIS2_PLACEMENT_3D ( 'NONE', #11, #270, #352 ) ;
#397 = CARTESIAN_POINT ( 'NONE',  ( -0.3103627605847447124, 0.6188811676815035856, -0.07814337447055966224 ) ) ;
#398 = ADVANCED_FACE ( 'NONE', ( #321, #234 ), #549, .F. ) ;
#399 = ORIENTED_EDGE ( 'NONE', *, *, #350, .T. ) ;
#400 = PLANE ( 'NONE',  #396 ) ;
#401 = CARTESIAN_POINT ( 'NONE',  ( -0.3118059536795032005, 0.6237402044596666029, -0.07224823591003531886 ) ) ;
#402 = CARTESIAN_POINT ( 'NONE',  ( -0.2974094652158871255, 0.5299999999999998046, -0.1180999999999999966 ) ) ;
#403 = APPLICATION_CONTEXT ( 'configuration controlled 3d designs of mechanical parts and assemblies' ) ;
#404 = DIRECTION ( 'NONE',  ( 0.000000000000000000, 0.000000000000000000, 1.000000000000000000 ) ) ;
#405 = CARTESIAN_POINT ( 'NONE',  ( 0.3074536825733523715, 0.6081175728682352011, -0.08890146344573755799 ) ) ;
#406 = DATE_TIME_ROLE ( 'classification_date' ) ;
#407 = APPROVAL_PERSON_ORGANIZATION ( #429, #284, #213 ) ;
#408 = CARTESIAN_POINT ( 'NONE',  ( -0.3118340195832088879, 0.6238318810009432225, 0.07212253820483011113 ) ) ;
#409 = VECTOR ( 'NONE', #485, 39.37007874015748143 ) ;
#410 = FACE_BOUND ( 'NONE', #225, .T. ) ;
#411 = FACE_OUTER_BOUND ( 'NONE', #68, .T. ) ;
#412 = ORIENTED_EDGE ( 'NONE', *, *, #380, .T. ) ;
#413 = CYLINDRICAL_SURFACE ( 'NONE', #553, 0.1180999999999999966 ) ;
#414 = EDGE_LOOP ( 'NONE', ( #551 ) ) ;
#415 = DIRECTION ( 'NONE',  ( 1.000000000000000000, 0.000000000000000000, -0.000000000000000000 ) ) ;
#416 = CC_DESIGN_APPROVAL ( #91, ( #447 ) ) ;
#417 = DIRECTION ( 'NONE',  ( 0.000000000000000000, 0.000000000000000000, 1.000000000000000000 ) ) ;
#418 = ORIENTED_EDGE ( 'NONE', *, *, #174, .T. ) ;
#419 = CARTESIAN_POINT ( 'NONE',  ( 0.000000000000000000, -0.1279999999999998916, 0.4214999999999999858 ) ) ;
#420 = B_SPLINE_CURVE_WITH_KNOTS ( 'NONE', 3,
 ( #113, #199, #244, #232, #196, #34, #386, #438, #405, #535, #360, #546, #125, #520, #1, #35, #556, #129, #173, #259, #477, #568, #132, #170, #332, #523, #298, #136, #526, #246, #180, #301, #341, #211, #440, #564, #292, #131, #484, #124, #428, #41, #215, #423, #288, #37, #83, #473, #379, #339, #252, #331, #79, #515, #481, #250, #30, #175, #176, #87, #217, #214, #389, #208 ),
 .UNSPECIFIED., .T., .F.,
 ( 4, 2, 2, 2, 2, 2, 2, 2, 2, 2, 2, 2, 2, 2, 2, 2, 2, 2, 2, 2, 2, 2, 2, 2, 2, 2, 2, 2, 2, 2, 2, 4 ),
 ( 0.000000000000000000, 0.0005913474661745013331, 0.001182694932349002666, 0.001774042398523503891, 0.002365389864698005332, 0.003548084797047001276, 0.004139432263221499465, 0.004730779729395997654, 0.005322127195570495843, 0.005913474661744994032, 0.006504822127919491354, 0.007096169594093989542, 0.007687517060268488599, 0.008278864526442986788, 0.008870211992617484109, 0.009461559458791983165, 0.01005290692496648222, 0.01064425439114098128, 0.01123560185731548033, 0.01182694932348997939, 0.01241829678966447845, 0.01300964425583897750, 0.01360099172201347656, 0.01419233918818797562, 0.01478368665436247641, 0.01537503412053697546, 0.01596638158671147278, 0.01655772905288597358, 0.01714907651906047437, 0.01774042398523497169, 0.01833177145140946901, 0.01892311891758396980 ),
 .UNSPECIFIED. ) ;
#421 = CARTESIAN_POINT ( 'NONE',  ( -0.6249999999999997780, 1.511740593012301348, 0.7499999999999998890 ) ) ;
#422 = ORIENTED_EDGE ( 'NONE', *, *, #272, .F. ) ;
#423 = CARTESIAN_POINT ( 'NONE',  ( 0.3177892568544886109, 0.4179935030738845536, 0.03823990443944645656 ) ) ;
#424 = AXIS2_PLACEMENT_3D ( 'NONE', #64, #508, #277 ) ;
#425 = ORIENTED_EDGE ( 'NONE', *, *, #65, .T. ) ;
#426 = APPLICATION_PROTOCOL_DEFINITION ( 'international standard', 'config_control_design', 1994, #403 ) ;
#427 = CARTESIAN_POINT ( 'NONE',  ( 0.000000000000000000, -1.172000000000000597, 0.000000000000000000 ) ) ;
#428 = CARTESIAN_POINT ( 'NONE',  ( 0.3118340195832089434, 0.4361681189990568863, 0.07212253820483000011 ) ) ;
#429 = PERSON_AND_ORGANIZATION ( #439, #289 ) ;
#430 = LINE ( 'NONE', #377, #224 ) ;
#431 = ADVANCED_FACE ( 'NONE', ( #112, #283 ), #362, .F. ) ;
#432 = VERTEX_POINT ( 'NONE', #84 ) ;
#433 = FACE_OUTER_BOUND ( 'NONE', #555, .T. ) ;
#434 = APPLICATION_CONTEXT ( 'configuration controlled 3d designs of mechanical parts and assemblies' ) ;
#435 = CLOSED_SHELL ( 'NONE', ( #367, #562, #398, #482, #115, #239, #476, #431, #293, #19, #557, #188, #550, #212, #449 ) ) ;
#436 = CC_DESIGN_DATE_AND_TIME_ASSIGNMENT ( #51, #406, ( #447 ) ) ;
#437 =( CONVERSION_BASED_UNIT ( 'INCH', #130 ) LENGTH_UNIT ( ) NAMED_UNIT ( #373 ) );
#438 = CARTESIAN_POINT ( 'NONE',  ( 0.3059670395401291598, 0.6021275277302254869, -0.09383180707025763623 ) ) ;
#439 = PERSON ( '未指定', '未指定', '未指定', ('未指定'), ('未指定'), ('未指定') ) ;
#440 = CARTESIAN_POINT ( 'NONE',  ( 0.2997770480677152682, 0.4917430182353437207, 0.1119986364128889161 ) ) ;
#441 = VERTEX_POINT ( 'NONE', #118 ) ;
#442 = CARTESIAN_POINT ( 'NONE',  ( -0.2989037167384466231, 0.4992048019475537335, -0.1142769943365812974 ) ) ;
#443 = ORIENTED_EDGE ( 'NONE', *, *, #119, .T. ) ;
#444 = CARTESIAN_POINT ( 'NONE',  ( -0.3186005783898337440, 0.6442627962401118458, -0.03086638218305893730 ) ) ;
#445 = CARTESIAN_POINT ( 'NONE',  ( 0.000000000000000000, -0.8749999999999997780, 0.000000000000000000 ) ) ;
#446 = FACE_OUTER_BOUND ( 'NONE', #71, .T. ) ;
#447 = SECURITY_CLASSIFICATION ( '', '', #530 ) ;
#448 = FACE_BOUND ( 'NONE', #316, .T. ) ;
#449 = ADVANCED_FACE ( 'NONE', ( #411, #370 ), #413, .F. ) ;
#450 = CARTESIAN_POINT ( 'NONE',  ( -0.3157322054022711488, 0.6360292339759741065, -0.05258155333298924344 ) ) ;
#451 = DIRECTION ( 'NONE',  ( -0.000000000000000000, 1.000000000000000000, -0.000000000000000000 ) ) ;
#452 = CARTESIAN_POINT ( 'NONE',  ( -0.6249999999999998890, 0.5300000000000000266, 0.000000000000000000 ) ) ;
#453 = CARTESIAN_POINT ( 'NONE',  ( -0.2997770480677152127, 0.5682569817646567767, 0.1119986364128890133 ) ) ;
#454 = CARTESIAN_POINT ( 'NONE',  ( -0.2989097193302655553, 0.5608693659947222576, 0.1142615027753431794 ) ) ;
#455 = DIRECTION ( 'NONE',  ( 0.000000000000000000, 0.000000000000000000, 1.000000000000000000 ) ) ;
#456 = DIRECTION ( 'NONE',  ( -1.821231995776175725E-16, -0.000000000000000000, -1.000000000000000000 ) ) ;
#457 = CARTESIAN_POINT ( 'NONE',  ( -0.6875000000000000000, 0.5300000000000000266, 0.000000000000000000 ) ) ;
#458 = CARTESIAN_POINT ( 'NONE',  ( 0.6250000000000000000, 0.000000000000000000, -0.7500000000000002220 ) ) ;
#459 = EDGE_LOOP ( 'NONE', ( #153 ) ) ;
#460 = CARTESIAN_POINT ( 'NONE',  ( -0.2974094652158871255, 0.5378782916357843780, -0.1180999999999999966 ) ) ;
#461 = ORIENTED_EDGE ( 'NONE', *, *, #322, .T. ) ;
#462 = EDGE_CURVE ( 'NONE', #26, #441, #163, .T. ) ;
#463 = FACE_OUTER_BOUND ( 'NONE', #566, .T. ) ;
#464 = CARTESIAN_POINT ( 'NONE',  ( 0.000000000000000000, 0.000000000000000000, 0.000000000000000000 ) ) ;
#465 = ORIENTED_EDGE ( 'NONE', *, *, #103, .F. ) ;
#466 = CARTESIAN_POINT ( 'NONE',  ( -0.6250000000000000000, 1.511740593012301348, -0.7500000000000002220 ) ) ;
#467 = UNCERTAINTY_MEASURE_WITH_UNIT (LENGTH_MEASURE( 1.000000000000000082E-05 ), #437, 'distance_accuracy_value', 'NONE');
#468 = ORIENTED_EDGE ( 'NONE', *, *, #103, .T. ) ;
#469 = DIRECTION ( 'NONE',  ( 0.000000000000000000, 0.000000000000000000, -1.000000000000000000 ) ) ;
#470 = DATE_AND_TIME ( #381, #383 ) ;
#471 = CARTESIAN_POINT ( 'NONE',  ( 0.6250000000000000000, 1.511740593012301348, -0.7500000000000002220 ) ) ;
#472 =( LENGTH_UNIT ( ) NAMED_UNIT ( * ) SI_UNIT ( $, .METRE. ) );
#473 = CARTESIAN_POINT ( 'NONE',  ( 0.3199993061728493293, 0.4119018799720048363, -0.007812006557739513239 ) ) ;
#474 = CIRCLE ( 'NONE', #89, 0.1180999999999999966 ) ;
#475 = PERSON_AND_ORGANIZATION ( #439, #289 ) ;
#476 = ADVANCED_FACE ( 'NONE', ( #245, #463 ), #18, .T. ) ;
#477 = CARTESIAN_POINT ( 'NONE',  ( 0.3145051473117205787, 0.6323597280268279386, 0.05940363160641159990 ) ) ;
#478 = EDGE_CURVE ( 'NONE', #209, #346, #116, .T. ) ;
#479 = CARTESIAN_POINT ( 'NONE',  ( -0.6250000000000000000, 1.511740593012301348, -0.7500000000000002220 ) ) ;
#480 = PERSON_AND_ORGANIZATION ( #439, #289 ) ;
#481 = CARTESIAN_POINT ( 'NONE',  ( 0.3103627605847448234, 0.4411188323184966897, -0.07814337447055981489 ) ) ;
#482 = ADVANCED_FACE ( 'NONE', ( #506 ), #25, .F. ) ;
#483 = LINE ( 'NONE', #48, #496 ) ;
#484 = CARTESIAN_POINT ( 'NONE',  ( 0.3074341557721423923, 0.4519549939100134806, 0.08897330799864827666 ) ) ;
#485 = DIRECTION ( 'NONE',  ( -1.000000000000000000, -0.000000000000000000, -0.000000000000000000 ) ) ;
#486 = CARTESIAN_POINT ( 'NONE',  ( 0.000000000000000000, -0.8750000000000000000, 0.000000000000000000 ) ) ;
#487 = COORDINATED_UNIVERSAL_TIME_OFFSET ( 8, 0, .AHEAD. ) ;
#488 = CARTESIAN_POINT ( 'NONE',  ( -0.6875000000000000000, 0.5300000000000000266, 0.000000000000000000 ) ) ;
#489 = CARTESIAN_POINT ( 'NONE',  ( -0.3059690344345866175, 0.6021334676838985267, 0.09382446249662290683 ) ) ;
#490 = ORIENTED_EDGE ( 'NONE', *, *, #307, .T. ) ;
#491 = EDGE_CURVE ( 'NONE', #209, #328, #198, .T. ) ;
#492 = CARTESIAN_POINT ( 'NONE',  ( -0.3199980765988302833, 0.4119052115875700970, -0.007862471596616012887 ) ) ;
#493 = EDGE_LOOP ( 'NONE', ( #324 ) ) ;
#494 =( GEOMETRIC_REPRESENTATION_CONTEXT ( 3 ) GLOBAL_UNCERTAINTY_ASSIGNED_CONTEXT ( ( #467 ) ) GLOBAL_UNIT_ASSIGNED_CONTEXT ( ( #437, #121, #172 ) ) REPRESENTATION_CONTEXT ( 'NONE', 'WORKASPACE' ) );
#495 = DIRECTION ( 'NONE',  ( 0.000000000000000000, 0.000000000000000000, 1.000000000000000000 ) ) ;
#496 = VECTOR ( 'NONE', #260, 39.37007874015748143 ) ;
#497 = CARTESIAN_POINT ( 'NONE',  ( -0.3032192603868309466, 0.4706007739072120000, 0.1023632985468679313 ) ) ;
#498 = DIRECTION ( 'NONE',  ( 0.000000000000000000, 1.000000000000000000, 0.000000000000000000 ) ) ;
#499 = COORDINATED_UNIVERSAL_TIME_OFFSET ( 8, 0, .AHEAD. ) ;
#500 = CARTESIAN_POINT ( 'NONE',  ( -0.3197125588345947067, 0.4126723914894255274, -0.01557449020182182821 ) ) ;
#501 = CC_DESIGN_PERSON_AND_ORGANIZATION_ASSIGNMENT ( #263, #228, ( #88 ) ) ;
#502 = DIRECTION ( 'NONE',  ( 0.000000000000000000, 0.000000000000000000, 1.000000000000000000 ) ) ;
#503 = DIRECTION ( 'NONE',  ( 1.821231995776175479E-16, 0.000000000000000000, 1.000000000000000000 ) ) ;
#504 = EDGE_LOOP ( 'NONE', ( #532, #248, #2, #280 ) ) ;
#505 = AXIS2_PLACEMENT_3D ( 'NONE', #202, #240, #23 ) ;
#506 = FACE_OUTER_BOUND ( 'NONE', #375, .T. ) ;
#507 = VERTEX_POINT ( 'NONE', #325 ) ;
#508 = DIRECTION ( 'NONE',  ( -0.000000000000000000, 1.000000000000000000, -0.000000000000000000 ) ) ;
#509 = CARTESIAN_POINT ( 'NONE',  ( 0.4600000000000000755, -0.8749999999999997780, 0.000000000000000000 ) ) ;
#510 = ORIENTED_EDGE ( 'NONE', *, *, #65, .F. ) ;
#511 = CARTESIAN_POINT ( 'NONE',  ( 0.000000000000000000, 0.000000000000000000, 0.000000000000000000 ) ) ;
#512 = CIRCLE ( 'NONE', #505, 0.3200000000000000067 ) ;
#513 = CARTESIAN_POINT ( 'NONE',  ( 0.000000000000000000, 1.172000000000000597, 0.3200000000000000067 ) ) ;
#514 = EDGE_LOOP ( 'NONE', ( #73 ) ) ;
#515 = CARTESIAN_POINT ( 'NONE',  ( 0.3118059536795033670, 0.4362597955403331174, -0.07224823591003527723 ) ) ;
#516 = APPLICATION_PROTOCOL_DEFINITION ( 'international standard', 'config_control_design', 1994, #434 ) ;
#517 = CARTESIAN_POINT ( 'NONE',  ( -0.6249999999999997780, 0.000000000000000000, 0.7499999999999998890 ) ) ;
#518 = AXIS2_PLACEMENT_3D ( 'NONE', #368, #238, #22 ) ;
#519 = COORDINATED_UNIVERSAL_TIME_OFFSET ( 8, 0, .AHEAD. ) ;
#520 = CARTESIAN_POINT ( 'NONE',  ( 0.3197125588345947067, 0.6473276085105741373, -0.01557449020182173280 ) ) ;
#521 = LINE ( 'NONE', #479, #49 ) ;
#522 = DATE_AND_TIME ( #385, #266 ) ;
#523 = CARTESIAN_POINT ( 'NONE',  ( 0.3032192603868308911, 0.5893992260927879423, 0.1023632985468680007 ) ) ;
#524 = FACE_OUTER_BOUND ( 'NONE', #414, .T. ) ;
#525 = B_SPLINE_CURVE_WITH_KNOTS ( 'NONE', 3,
 ( #402, #528, #104, #442, #94, #151, #53, #99, #139, #261, #312, #227, #150, #500, #492, #538, #16, #534, #44, #57, #107, #229, #220, #147, #273, #497, #539, #231, #361, #394, #304, #271, #4, #454, #453, #97, #192, #489, #308, #314, #408, #143, #267, #183, #356, #345, #194, #315, #264, #444, #46, #450, #223, #401, #397, #187, #349, #531, #12, #190, #353, #56, #460, #317 ),
 .UNSPECIFIED., .T., .F.,
 ( 4, 2, 2, 2, 2, 2, 2, 2, 2, 2, 2, 2, 2, 2, 2, 2, 2, 2, 2, 2, 2, 2, 2, 2, 2, 2, 2, 2, 2, 2, 2, 4 ),
 ( 0.000000000000000000, 0.0005913474661744980805, 0.001182694932348996161, 0.001774042398523494133, 0.002365389864697992322, 0.003548084797046988266, 0.004139432263221486455, 0.004730779729395984644, 0.005322127195570481965, 0.005913474661744980154, 0.006504822127919479210, 0.007096169594093976532, 0.007687517060268474721, 0.008278864526442972910, 0.008870211992617470231, 0.009461559458791969288, 0.01005290692496646834, 0.01064425439114096393, 0.01123560185731546299, 0.01182694932348996031, 0.01241829678966446283, 0.01300964425583896536, 0.01360099172201346615, 0.01419233918818797041, 0.01478368665436247294, 0.01537503412053697373, 0.01596638158671147625, 0.01655772905288597704, 0.01714907651906047437, 0.01774042398523497169, 0.01833177145140946554, 0.01892311891758396286 ),
 .UNSPECIFIED. ) ;
#526 = CARTESIAN_POINT ( 'NONE',  ( 0.2989173512758632745, 0.5609445447846196364, 0.1142416268457309286 ) ) ;
#527 = DIRECTION ( 'NONE',  ( -0.000000000000000000, -1.000000000000000000, -0.000000000000000000 ) ) ;
#528 = CARTESIAN_POINT ( 'NONE',  ( -0.2974094652158871255, 0.5221217083642153423, -0.1180999999999999966 ) ) ;
#529 = EDGE_LOOP ( 'NONE', ( #114, #510, #541, #189 ) ) ;
#530 = SECURITY_CLASSIFICATION_LEVEL ( 'unclassified' ) ;
#531 = CARTESIAN_POINT ( 'NONE',  ( -0.3032004274041674718, 0.5893016714633140252, -0.1024181848048205390 ) ) ;
#532 = ORIENTED_EDGE ( 'NONE', *, *, #322, .F. ) ;
#533 = EDGE_CURVE ( 'NONE', #286, #286, #14, .T. ) ;
#534 = CARTESIAN_POINT ( 'NONE',  ( -0.3186038545873222660, 0.4157281982884480365, 0.03081783291944916250 ) ) ;
#535 = CARTESIAN_POINT ( 'NONE',  ( 0.3118291560044214594, 0.6243024155897545224, -0.07271537656100368618 ) ) ;
#536 = AXIS2_PLACEMENT_3D ( 'NONE', #110, #105, #404 ) ;
#537 = APPROVAL_ROLE ( '' ) ;
#538 = CARTESIAN_POINT ( 'NONE',  ( -0.3200019040579760166, 0.4118948408241371872, 0.007705120753647551682 ) ) ;
#539 = CARTESIAN_POINT ( 'NONE',  ( -0.3019275314547723577, 0.4774922893122399148, 0.1060643731669081297 ) ) ;
#540 = DIRECTION ( 'NONE',  ( -0.000000000000000000, -1.000000000000000000, -0.000000000000000000 ) ) ;
#541 = ORIENTED_EDGE ( 'NONE', *, *, #251, .F. ) ;
#542 = PLANE ( 'NONE',  #518 ) ;
#543 = PRODUCT_DEFINITION ( '未知', '', #88, #171 ) ;
#544 = ORIENTED_EDGE ( 'NONE', *, *, #256, .T. ) ;
#545 = CARTESIAN_POINT ( 'NONE',  ( -0.6249999999999997780, 1.511740593012301348, 0.7499999999999998890 ) ) ;
#546 = CARTESIAN_POINT ( 'NONE',  ( 0.3177717619898525747, 0.6419563523968691010, -0.03837292836106224320 ) ) ;
#547 = MANIFOLD_SOLID_BREP ( 'Cut-Extrude2', #435 ) ;
#548 = ORIENTED_EDGE ( 'NONE', *, *, #119, .F. ) ;
#549 = PLANE ( 'NONE',  #310 ) ;
#550 = ADVANCED_FACE ( 'NONE', ( #154 ), #70, .F. ) ;
#551 = ORIENTED_EDGE ( 'NONE', *, *, #268, .F. ) ;
#552 = DIRECTION ( 'NONE',  ( 0.000000000000000000, 0.000000000000000000, 1.000000000000000000 ) ) ;
#553 = AXIS2_PLACEMENT_3D ( 'NONE', #457, #27, #469 ) ;
#554 = CC_DESIGN_PERSON_AND_ORGANIZATION_ASSIGNMENT ( #355, #179, ( #88 ) ) ;
#555 = EDGE_LOOP ( 'NONE', ( #461, #235, #6, #203 ) ) ;
#556 = CARTESIAN_POINT ( 'NONE',  ( 0.3197101871215311530, 0.6473210648510702159, 0.01560612810617330835 ) ) ;
#557 = ADVANCED_FACE ( 'NONE', ( #364, #167 ), #542, .F. ) ;
#558 = DIRECTION ( 'NONE',  ( 1.821231995776175725E-16, 0.000000000000000000, 1.000000000000000000 ) ) ;
#559 = DIRECTION ( 'NONE',  ( -0.000000000000000000, -1.000000000000000000, -0.000000000000000000 ) ) ;
#560 = CIRCLE ( 'NONE', #313, 0.3200000000000000067 ) ;
#561 = AXIS2_PLACEMENT_3D ( 'NONE', #387, #7, #13 ) ;
#562 = ADVANCED_FACE ( 'NONE', ( #281 ), #201, .F. ) ;
#563 = VERTEX_POINT ( 'NONE', #376 ) ;
#564 = CARTESIAN_POINT ( 'NONE',  ( 0.3019290346185944385, 0.4774789561102936175, 0.1060605070741380135 ) ) ;
#565 = ADVANCED_BREP_SHAPE_REPRESENTATION ( '00113_index_4', ( #547, #5 ), #494 ) ;
#566 = EDGE_LOOP ( 'NONE', ( #443 ) ) ;
#567 = CARTESIAN_POINT ( 'NONE',  ( -0.2974094652158871810, 0.5300000000000000266, -0.1180999999999999966 ) ) ;
#568 = CARTESIAN_POINT ( 'NONE',  ( 0.3118324392637595865, 0.6238269492914777503, 0.07213049948815636325 ) ) ;
ENDSEC;
END-ISO-10303-21;
