ISO-10303-21;
HEADER;
FILE_DESCRIPTION (( 'STEP AP203' ),
    '1' );
FILE_NAME ('00112_index_1.step',
    '2022-11-07T15:58:37',
    ( '' ),
    ( '' ),
    'SwSTEP 2.0',
    'SolidWorks 2020',
    '' );
FILE_SCHEMA (( 'CONFIG_CONTROL_DESIGN' ));
ENDSEC;

DATA;
#1 = EDGE_CURVE ( 'NONE', #411, #411, #388, .T. ) ;
#2 = CARTESIAN_POINT ( 'NONE',  ( 0.2182121945297657017, 0.2722793925661000092, 0.05507270363566361265 ) ) ;
#3 = CC_DESIGN_APPROVAL ( #72, ( #413 ) ) ;
#4 = DIRECTION ( 'NONE',  ( 2.355041373848502945E-16, 0.000000000000000000, 1.000000000000000000 ) ) ;
#5 = CARTESIAN_POINT ( 'NONE',  ( 0.2110614307401420531, 0.2984886426225001332, 0.07803765078512112097 ) ) ;
#6 = ORIENTED_EDGE ( 'NONE', *, *, #53, .T. ) ;
#7 = FACE_BOUND ( 'NONE', #74, .T. ) ;
#8 = LENGTH_MEASURE_WITH_UNIT ( LENGTH_MEASURE( 0.02539999999999999897 ), #230 );
#9 = DIRECTION ( 'NONE',  ( -2.355041373848502945E-16, 0.000000000000000000, -1.000000000000000000 ) ) ;
#10 = APPROVAL_PERSON_ORGANIZATION ( #84, #261, #439 ) ;
#11 = EDGE_LOOP ( 'NONE', ( #105 ) ) ;
#12 = CARTESIAN_POINT ( 'NONE',  ( 0.4349999999999998868, 0.6875000000000000000, -0.4349999999999998868 ) ) ;
#13 = VERTEX_POINT ( 'NONE', #371 ) ;
#14 = FACE_BOUND ( 'NONE', #307, .T. ) ;
#15 = DIRECTION ( 'NONE',  ( -1.000000000000000000, 0.000000000000000000, 1.570027582565668465E-16 ) ) ;
#16 = DIRECTION ( 'NONE',  ( 0.000000000000000000, 0.000000000000000000, -1.000000000000000000 ) ) ;
#17 = DIRECTION ( 'NONE',  ( -1.000000000000000000, -0.000000000000000000, -0.000000000000000000 ) ) ;
#18 = EDGE_CURVE ( 'NONE', #32, #243, #100, .T. ) ;
#19 = DIRECTION ( 'NONE',  ( -1.000000000000000000, 0.000000000000000000, 1.570027582565668465E-16 ) ) ;
#20 = CARTESIAN_POINT ( 'NONE',  ( -0.2062122278398783870, 0.3494894461857163126, 0.09000842835959486921 ) ) ;
#21 = CARTESIAN_POINT ( 'NONE',  ( -0.2204613064322384630, 0.4217229378424385833, -0.04524052024699291852 ) ) ;
#22 = CARTESIAN_POINT ( 'NONE',  ( -0.2082210567067941387, 0.3143854287245767543, 0.08529294601889793326 ) ) ;
#23 = LINE ( 'NONE', #63, #334 ) ;
#24 = CARTESIAN_POINT ( 'NONE',  ( 0.000000000000000000, 0.6874999999999998890, 0.000000000000000000 ) ) ;
#25 = DIRECTION ( 'NONE',  ( 0.000000000000000000, 1.000000000000000000, 0.000000000000000000 ) ) ;
#26 = VECTOR ( 'NONE', #121, 39.37007874015748143 ) ;
#27 = ORIENTED_EDGE ( 'NONE', *, *, #56, .T. ) ;
#28 = ORIENTED_EDGE ( 'NONE', *, *, #320, .T. ) ;
#29 = VERTEX_POINT ( 'NONE', #381 ) ;
#30 = EDGE_LOOP ( 'NONE', ( #354, #385, #293, #309 ) ) ;
#31 = SECURITY_CLASSIFICATION_LEVEL ( 'unclassified' ) ;
#32 = VERTEX_POINT ( 'NONE', #425 ) ;
#33 = CARTESIAN_POINT ( 'NONE',  ( 0.2081883428450289064, 0.3146105568663984386, 0.08537291446451446275 ) ) ;
#34 = DATE_AND_TIME ( #358, #137 ) ;
#35 = CARTESIAN_POINT ( 'NONE',  ( 0.2082210567067940554, 0.3730145712754232012, 0.08529294601889790550 ) ) ;
#36 = APPROVAL_STATUS ( 'not_yet_approved' ) ;
#37 = CARTESIAN_POINT ( 'NONE',  ( 0.2249971964059161444, 0.2537070089892284330, 0.006038386485371491016 ) ) ;
#38 = CARTESIAN_POINT ( 'NONE',  ( -0.4350000000000002198, 0.6875000000000000000, -0.4349999999999998868 ) ) ;
#39 = COORDINATED_UNIVERSAL_TIME_OFFSET ( 8, 0, .AHEAD. ) ;
#40 = CARTESIAN_POINT ( 'NONE',  ( 0.2214535518454533169, 0.2629464978404663089, 0.04016983119461674245 ) ) ;
#41 = CARTESIAN_POINT ( 'NONE',  ( 0.4349999999999998868, 0.6875000000000000000, -0.4349999999999998868 ) ) ;
#42 = DIRECTION ( 'NONE',  ( 0.000000000000000000, 0.000000000000000000, 1.000000000000000000 ) ) ;
#43 = CARTESIAN_POINT ( 'NONE',  ( 0.2100131525392194276, 0.3838105955132728453, 0.08077976762293348489 ) ) ;
#44 = ORIENTED_EDGE ( 'NONE', *, *, #237, .T. ) ;
#45 = CARTESIAN_POINT ( 'NONE',  ( -0.2064790050598174498, 0.3317892844470909375, -0.08940366330516504034 ) ) ;
#46 = CARTESIAN_POINT ( 'NONE',  ( -0.4350000000000002198, 0.000000000000000000, -0.4349999999999998868 ) ) ;
#47 = ADVANCED_FACE ( 'NONE', ( #290 ), #191, .F. ) ;
#48 = CC_DESIGN_PERSON_AND_ORGANIZATION_ASSIGNMENT ( #110, #218, ( #413 ) ) ;
#49 =( CONVERSION_BASED_UNIT ( 'INCH', #8 ) LENGTH_UNIT ( ) NAMED_UNIT ( #298 ) );
#50 = CARTESIAN_POINT ( 'NONE',  ( 0.2146095484704998724, 0.2841366567400431253, -0.06772215840722645153 ) ) ;
#51 = UNCERTAINTY_MEASURE_WITH_UNIT (LENGTH_MEASURE( 1.000000000000000082E-05 ), #49, 'distance_accuracy_value', 'NONE');
#52 = EDGE_LOOP ( 'NONE', ( #144, #275, #6, #402 ) ) ;
#53 = EDGE_CURVE ( 'NONE', #428, #161, #287, .T. ) ;
#54 = DIRECTION ( 'NONE',  ( -0.000000000000000000, 1.000000000000000000, -0.000000000000000000 ) ) ;
#55 = LINE ( 'NONE', #198, #91 ) ;
#56 = EDGE_CURVE ( 'NONE', #122, #122, #59, .T. ) ;
#57 = CARTESIAN_POINT ( 'NONE',  ( 0.000000000000000000, 0.000000000000000000, 0.000000000000000000 ) ) ;
#58 = CARTESIAN_POINT ( 'NONE',  ( -0.2064819873420923324, 0.3317076020053252305, 0.08939712389464965492 ) ) ;
#59 = CIRCLE ( 'NONE', #107, 0.08999999999999998279 ) ;
#60 = PLANE ( 'NONE',  #430 ) ;
#61 = CARTESIAN_POINT ( 'NONE',  ( -0.2110897861648324547, 0.3890421604717538284, -0.07796100220795837421 ) ) ;
#62 = ORIENTED_EDGE ( 'NONE', *, *, #279, .F. ) ;
#63 = CARTESIAN_POINT ( 'NONE',  ( -0.4349999999999999978, 0.6875000000000000000, 0.4350000000000001643 ) ) ;
#64 = EDGE_LOOP ( 'NONE', ( #451 ) ) ;
#65 = CARTESIAN_POINT ( 'NONE',  ( -0.2100094157963096619, 0.3036047607122726588, -0.08078979893440894899 ) ) ;
#66 = LOCAL_TIME ( 23, 58, 37.00000000000000000, #257 ) ;
#67 = EDGE_LOOP ( 'NONE', ( #28 ) ) ;
#68 = CARTESIAN_POINT ( 'NONE',  ( -0.2250029163295279022, 0.2536927091714600291, 0.005830466198528783985 ) ) ;
#69 = CARTESIAN_POINT ( 'NONE',  ( -0.2133849483914988798, 0.2886512621942406986, 0.07144096742461988891 ) ) ;
#70 = ORIENTED_EDGE ( 'NONE', *, *, #222, .F. ) ;
#71 = ORIENTED_EDGE ( 'NONE', *, *, #265, .F. ) ;
#72 = APPROVAL ( #357, '未指定' ) ;
#73 = AXIS2_PLACEMENT_3D ( 'NONE', #435, #217, #9 ) ;
#74 = EDGE_LOOP ( 'NONE', ( #27 ) ) ;
#75 = CALENDAR_DATE ( 2022, 7, 11 ) ;
#76 = CARTESIAN_POINT ( 'NONE',  ( 0.2100094157963096897, 0.3837952392877274632, -0.08078979893440887960 ) ) ;
#77 = APPROVAL_ROLE ( '' ) ;
#78 = CARTESIAN_POINT ( 'NONE',  ( 0.2247513124684042685, 0.2543169969959204191, 0.01207191755377009894 ) ) ;
#79 = CLOSED_SHELL ( 'NONE', ( #294, #397, #366, #47, #212, #145, #352, #382, #429 ) ) ;
#80 = COORDINATED_UNIVERSAL_TIME_OFFSET ( 8, 0, .AHEAD. ) ;
#81 = CARTESIAN_POINT ( 'NONE',  ( 0.2133849483914987966, 0.3987487378057593124, 0.07144096742461986116 ) ) ;
#82 = ORIENTED_EDGE ( 'NONE', *, *, #320, .F. ) ;
#83 = DIRECTION ( 'NONE',  ( 1.000000000000000000, 0.000000000000000000, -0.000000000000000000 ) ) ;
#84 = PERSON_AND_ORGANIZATION ( #423, #421 ) ;
#85 = CARTESIAN_POINT ( 'NONE',  ( 0.2204597822897366999, 0.4217181699575511256, 0.04524602082703828992 ) ) ;
#86 = ORIENTED_EDGE ( 'NONE', *, *, #348, .F. ) ;
#87 = CARTESIAN_POINT ( 'NONE',  ( -0.2062159062730129500, 0.3437000000000000055, -0.08999999999999998279 ) ) ;
#88 = CARTESIAN_POINT ( 'NONE',  ( 0.2145680944877683405, 0.2842842018361788625, 0.06785444849534061351 ) ) ;
#89 = CARTESIAN_POINT ( 'NONE',  ( 0.000000000000000000, 0.000000000000000000, 0.000000000000000000 ) ) ;
#90 = CARTESIAN_POINT ( 'NONE',  ( -0.7907500000000009521, 0.3437000000000000055, 0.000000000000000000 ) ) ;
#91 = VECTOR ( 'NONE', #17, 39.37007874015748143 ) ;
#92 =( NAMED_UNIT ( * ) PLANE_ANGLE_UNIT ( ) SI_UNIT ( $, .RADIAN. ) );
#93 = CYLINDRICAL_SURFACE ( 'NONE', #324, 0.08999999999999998279 ) ;
#94 = CARTESIAN_POINT ( 'NONE',  ( -0.4350000000000002198, 0.000000000000000000, -0.4349999999999998868 ) ) ;
#95 = DIRECTION ( 'NONE',  ( 2.355041373848502945E-16, 0.000000000000000000, 1.000000000000000000 ) ) ;
#96 = CARTESIAN_POINT ( 'NONE',  ( -0.2074642687217524706, 0.3671566783576629134, 0.08709294496419989207 ) ) ;
#97 = CARTESIAN_POINT ( 'NONE',  ( -0.2250055331466980502, 0.4337138328747288107, -0.01176061481584330867 ) ) ;
#98 = VECTOR ( 'NONE', #167, 39.37007874015748143 ) ;
#99 = CARTESIAN_POINT ( 'NONE',  ( 0.4349999999999998868, 0.6875000000000000000, -0.4349999999999998868 ) ) ;
#100 = LINE ( 'NONE', #276, #262 ) ;
#101 = CARTESIAN_POINT ( 'NONE',  ( -0.2204597822897365889, 0.2656818300424488855, 0.04524602082703827605 ) ) ;
#102 = CARTESIAN_POINT ( 'NONE',  ( 0.4349999999999998868, 0.6875000000000000000, -0.4349999999999998868 ) ) ;
#103 = EDGE_LOOP ( 'NONE', ( #406 ) ) ;
#104 = EDGE_CURVE ( 'NONE', #207, #428, #154, .T. ) ;
#105 = ORIENTED_EDGE ( 'NONE', *, *, #449, .T. ) ;
#106 = CARTESIAN_POINT ( 'NONE',  ( -0.2238369964963837777, 0.2566416159305890399, -0.02358222949859626119 ) ) ;
#107 = AXIS2_PLACEMENT_3D ( 'NONE', #126, #329, #438 ) ;
#108 = CARTESIAN_POINT ( 'NONE',  ( -0.2238491576483828405, 0.2566104808371492130, 0.02346091733108373809 ) ) ;
#109 = ORIENTED_EDGE ( 'NONE', *, *, #279, .T. ) ;
#110 = PERSON_AND_ORGANIZATION ( #423, #421 ) ;
#111 = CALENDAR_DATE ( 2022, 7, 11 ) ;
#112 = LOCAL_TIME ( 23, 58, 37.00000000000000000, #431 ) ;
#113 = APPLICATION_CONTEXT ( 'configuration controlled 3d designs of mechanical parts and assemblies' ) ;
#114 = DATE_TIME_ROLE ( 'creation_date' ) ;
#115 = CARTESIAN_POINT ( 'NONE',  ( 0.2064819873420922769, 0.3556923979946747250, 0.08939712389464971043 ) ) ;
#116 = PERSON_AND_ORGANIZATION ( #423, #421 ) ;
#117 = CARTESIAN_POINT ( 'NONE',  ( 0.2062196661218261562, 0.3497485925510688265, 0.08999138509353428461 ) ) ;
#118 = CARTESIAN_POINT ( 'NONE',  ( 0.2240164901294583177, 0.2560876897019325749, -0.02371144572612869303 ) ) ;
#119 = CIRCLE ( 'NONE', #319, 0.08999999999999998279 ) ;
#120 = CARTESIAN_POINT ( 'NONE',  ( 0.2231488152606277142, 0.4289923596054262545, -0.02931747511860088168 ) ) ;
#121 = DIRECTION ( 'NONE',  ( 1.000000000000000000, 0.000000000000000000, 0.000000000000000000 ) ) ;
#122 = VERTEX_POINT ( 'NONE', #297 ) ;
#123 = CARTESIAN_POINT ( 'NONE',  ( 0.2250029163295279022, 0.4337072908285399819, 0.005830466198528832557 ) ) ;
#124 = CC_DESIGN_PERSON_AND_ORGANIZATION_ASSIGNMENT ( #254, #404, ( #369 ) ) ;
#125 = CYLINDRICAL_SURFACE ( 'NONE', #244, 0.08999999999999998279 ) ;
#126 = CARTESIAN_POINT ( 'NONE',  ( -0.4350000000000001643, 0.3437000000000000055, 0.000000000000000000 ) ) ;
#127 = VERTEX_POINT ( 'NONE', #373 ) ;
#128 = FACE_OUTER_BOUND ( 'NONE', #333, .T. ) ;
#129 = VECTOR ( 'NONE', #4, 39.37007874015748143 ) ;
#130 = CARTESIAN_POINT ( 'NONE',  ( 0.4349999999999998868, 0.000000000000000000, -0.4349999999999998868 ) ) ;
#131 = CARTESIAN_POINT ( 'NONE',  ( 0.2100297510073490803, 0.3034930370307009073, -0.08073765065466820268 ) ) ;
#132 = CARTESIAN_POINT ( 'NONE',  ( -0.2110614307401421086, 0.3889113573774999888, 0.07803765078512110709 ) ) ;
#133 = DIRECTION ( 'NONE',  ( -1.000000000000000000, -0.000000000000000000, -0.000000000000000000 ) ) ;
#134 = FACE_OUTER_BOUND ( 'NONE', #321, .T. ) ;
#135 = CARTESIAN_POINT ( 'NONE',  ( -0.2170440106209281239, 0.4115132443701758347, -0.05945962064819912407 ) ) ;
#136 = ORIENTED_EDGE ( 'NONE', *, *, #56, .F. ) ;
#137 = LOCAL_TIME ( 23, 58, 37.00000000000000000, #80 ) ;
#138 = CARTESIAN_POINT ( 'NONE',  ( -0.2170281677559105504, 0.2759378607497586788, 0.05951647407878326440 ) ) ;
#139 = CARTESIAN_POINT ( 'NONE',  ( -0.4349999999999999978, 0.6875000000000000000, 0.4350000000000001643 ) ) ;
#140 = EDGE_CURVE ( 'NONE', #188, #188, #416, .T. ) ;
#141 = ORIENTED_EDGE ( 'NONE', *, *, #403, .F. ) ;
#142 = CARTESIAN_POINT ( 'NONE',  ( -0.2231488152606277142, 0.2584076403945737566, -0.02931747511860086780 ) ) ;
#143 = APPROVAL ( #36, '未指定' ) ;
#144 = ORIENTED_EDGE ( 'NONE', *, *, #316, .T. ) ;
#145 = ADVANCED_FACE ( 'NONE', ( #453, #378 ), #60, .F. ) ;
#146 = AXIS2_PLACEMENT_3D ( 'NONE', #448, #54, #343 ) ;
#147 = EDGE_LOOP ( 'NONE', ( #70 ) ) ;
#148 = DATE_AND_TIME ( #395, #112 ) ;
#149 = CARTESIAN_POINT ( 'NONE',  ( 0.2231527137744683809, 0.2583970917789271127, 0.02929432194574619827 ) ) ;
#150 = AXIS2_PLACEMENT_3D ( 'NONE', #12, #19, #160 ) ;
#151 = CARTESIAN_POINT ( 'NONE',  ( 0.2062159062730125614, 0.3497126679001282823, -0.08999999999999998279 ) ) ;
#152 = PERSON_AND_ORGANIZATION ( #423, #421 ) ;
#153 = CARTESIAN_POINT ( 'NONE',  ( 0.2204256205391801615, 0.2657782731530311526, 0.04541046506208985117 ) ) ;
#154 = LINE ( 'NONE', #335, #26 ) ;
#155 = CARTESIAN_POINT ( 'NONE',  ( 0.4349999999999999978, 0.6875000000000000000, 0.4350000000000001643 ) ) ;
#156 = EDGE_CURVE ( 'NONE', #161, #190, #274, .T. ) ;
#157 = ORIENTED_EDGE ( 'NONE', *, *, #140, .F. ) ;
#158 = CC_DESIGN_PERSON_AND_ORGANIZATION_ASSIGNMENT ( #116, #356, ( #342 ) ) ;
#159 = CARTESIAN_POINT ( 'NONE',  ( 0.2206170534602992783, 0.4222140477676636361, -0.04552744359945563868 ) ) ;
#160 = DIRECTION ( 'NONE',  ( 1.570027582565668465E-16, 0.000000000000000000, 1.000000000000000000 ) ) ;
#161 = VERTEX_POINT ( 'NONE', #99 ) ;
#162 = DIRECTION ( 'NONE',  ( 0.000000000000000000, 0.000000000000000000, 1.000000000000000000 ) ) ;
#163 = DIRECTION ( 'NONE',  ( -1.000000000000000000, 0.000000000000000000, -0.000000000000000000 ) ) ;
#164 = DIRECTION ( 'NONE',  ( 0.000000000000000000, 0.000000000000000000, 1.000000000000000000 ) ) ;
#165 = LINE ( 'NONE', #46, #253 ) ;
#166 = CARTESIAN_POINT ( 'NONE',  ( -0.4349999999999999978, 0.6875000000000000000, 0.4350000000000001643 ) ) ;
#167 = DIRECTION ( 'NONE',  ( 1.000000000000000000, 0.000000000000000000, 0.000000000000000000 ) ) ;
#168 = CARTESIAN_POINT ( 'NONE',  ( -0.2082122983435202024, 0.3729654189188644220, -0.08531531726456396958 ) ) ;
#169 = APPLICATION_CONTEXT ( 'configuration controlled 3d designs of mechanical parts and assemblies' ) ;
#170 = DIRECTION ( 'NONE',  ( -0.000000000000000000, -1.000000000000000000, -0.000000000000000000 ) ) ;
#171 = DIRECTION ( 'NONE',  ( 0.000000000000000000, 1.000000000000000000, 0.000000000000000000 ) ) ;
#172 = CC_DESIGN_PERSON_AND_ORGANIZATION_ASSIGNMENT ( #392, #184, ( #342 ) ) ;
#173 = AXIS2_PLACEMENT_3D ( 'NONE', #89, #42, #288 ) ;
#174 = CARTESIAN_POINT ( 'NONE',  ( -0.2145968425403918245, 0.2841837179423156723, -0.06776050951418009782 ) ) ;
#175 = CARTESIAN_POINT ( 'NONE',  ( 0.4349999999999998868, 0.3437000000000000055, 0.000000000000000000 ) ) ;
#176 = ORIENTED_EDGE ( 'NONE', *, *, #301, .F. ) ;
#177 = CARTESIAN_POINT ( 'NONE',  ( -0.2074694749889801626, 0.3202081148757018880, -0.08708048857621553118 ) ) ;
#178 = AXIS2_PLACEMENT_3D ( 'NONE', #24, #171, #310 ) ;
#179 = COORDINATED_UNIVERSAL_TIME_OFFSET ( 8, 0, .AHEAD. ) ;
#180 = SHAPE_DEFINITION_REPRESENTATION ( #362, #214 ) ;
#181 = CARTESIAN_POINT ( 'NONE',  ( 0.2170165019747994917, 0.2759731070496345695, 0.05956115532241230970 ) ) ;
#182 = CARTESIAN_POINT ( 'NONE',  ( 0.2182269448056037286, 0.4155298785036188880, -0.05545418354389427401 ) ) ;
#183 = APPROVAL_PERSON_ORGANIZATION ( #213, #72, #223 ) ;
#184 = PERSON_AND_ORGANIZATION_ROLE ( 'creator' ) ;
#185 = CARTESIAN_POINT ( 'NONE',  ( 0.2250055331466977726, 0.2536861671252715333, -0.01176061481584340755 ) ) ;
#186 = CALENDAR_DATE ( 2022, 7, 11 ) ;
#187 = CARTESIAN_POINT ( 'NONE',  ( 0.2204613064322385740, 0.2656770621575615388, -0.04524052024699296015 ) ) ;
#188 = VERTEX_POINT ( 'NONE', #87 ) ;
#189 = CARTESIAN_POINT ( 'NONE',  ( 0.2062122278398783870, 0.3379105538142838094, 0.09000842835959491084 ) ) ;
#190 = VERTEX_POINT ( 'NONE', #195 ) ;
#191 = PLANE ( 'NONE',  #355 ) ;
#192 = CARTESIAN_POINT ( 'NONE',  ( 0.000000000000000000, 0.6874999999999998890, 0.2249999999999999778 ) ) ;
#193 = CARTESIAN_POINT ( 'NONE',  ( 0.2110897861648325657, 0.2983578395282464601, -0.07796100220795837421 ) ) ;
#194 = CARTESIAN_POINT ( 'NONE',  ( 0.2062159062730126724, 0.3437000000000001720, -0.08999999999999999667 ) ) ;
#195 = CARTESIAN_POINT ( 'NONE',  ( 0.4349999999999998868, 0.000000000000000000, -0.4349999999999998868 ) ) ;
#196 = VERTEX_POINT ( 'NONE', #227 ) ;
#197 = CARTESIAN_POINT ( 'NONE',  ( -0.7907500000000009521, 0.3437000000000000055, 0.000000000000000000 ) ) ;
#198 = CARTESIAN_POINT ( 'NONE',  ( -0.4350000000000002198, 0.6875000000000000000, -0.4349999999999998868 ) ) ;
#199 = CARTESIAN_POINT ( 'NONE',  ( 0.2074814171354033010, 0.3201019123013844059, -0.08705215378097558299 ) ) ;
#200 = CARTESIAN_POINT ( 'NONE',  ( -0.2081883428450288509, 0.3727894431336017389, 0.08537291446451444887 ) ) ;
#201 = CARTESIAN_POINT ( 'NONE',  ( -0.4349999999999999978, 0.000000000000000000, 0.4350000000000001643 ) ) ;
#202 = EDGE_CURVE ( 'NONE', #207, #252, #23, .T. ) ;
#203 = CARTESIAN_POINT ( 'NONE',  ( -0.2247513124684043240, 0.4330830030040797030, 0.01207191755377018394 ) ) ;
#204 = CC_DESIGN_DATE_AND_TIME_ASSIGNMENT ( #393, #280, ( #413 ) ) ;
#205 = ORIENTED_EDGE ( 'NONE', *, *, #1, .T. ) ;
#206 = FACE_OUTER_BOUND ( 'NONE', #52, .T. ) ;
#207 = VERTEX_POINT ( 'NONE', #139 ) ;
#208 = LOCAL_TIME ( 23, 58, 37.00000000000000000, #39 ) ;
#209 = ORIENTED_EDGE ( 'NONE', *, *, #140, .T. ) ;
#210 = VECTOR ( 'NONE', #359, 39.37007874015748143 ) ;
#211 = EDGE_LOOP ( 'NONE', ( #109, #455, #71, #314 ) ) ;
#212 = ADVANCED_FACE ( 'NONE', ( #424, #206 ), #349, .T. ) ;
#213 = PERSON_AND_ORGANIZATION ( #423, #421 ) ;
#214 = ADVANCED_BREP_SHAPE_REPRESENTATION ( '00112_index_1', ( #363, #173 ), #311 ) ;
#215 = CC_DESIGN_PERSON_AND_ORGANIZATION_ASSIGNMENT ( #364, #399, ( #296 ) ) ;
#216 = DATE_AND_TIME ( #75, #66 ) ;
#217 = DIRECTION ( 'NONE',  ( 1.000000000000000000, 0.000000000000000000, -2.355041373848502945E-16 ) ) ;
#218 = PERSON_AND_ORGANIZATION_ROLE ( 'classification_officer' ) ;
#219 = CARTESIAN_POINT ( 'NONE',  ( -0.2145680944877683127, 0.4031157981638210375, 0.06785444849534062739 ) ) ;
#220 = CARTESIAN_POINT ( 'NONE',  ( 0.2249970284392140696, 0.4336925710932707512, -0.006053419398009372843 ) ) ;
#221 = AXIS2_PLACEMENT_3D ( 'NONE', #166, #25, #341 ) ;
#222 = EDGE_CURVE ( 'NONE', #196, #196, #119, .T. ) ;
#223 = APPROVAL_ROLE ( '' ) ;
#224 = CARTESIAN_POINT ( 'NONE',  ( 0.2247591150833389284, 0.4331025785383202376, -0.01193577545034392104 ) ) ;
#225 = EDGE_LOOP ( 'NONE', ( #205 ) ) ;
#226 = CARTESIAN_POINT ( 'NONE',  ( 0.2214691532294711107, 0.4244965526604276840, 0.04009090952893501481 ) ) ;
#227 = CARTESIAN_POINT ( 'NONE',  ( 0.4349999999999998868, 0.3437000000000000055, 0.08999999999999998279 ) ) ;
#228 = CARTESIAN_POINT ( 'NONE',  ( 0.2238491576483829515, 0.4307895191628506870, 0.02346091733108380747 ) ) ;
#229 = LOCAL_TIME ( 23, 58, 37.00000000000000000, #179 ) ;
#230 =( LENGTH_UNIT ( ) NAMED_UNIT ( * ) SI_UNIT ( $, .METRE. ) );
#231 = CARTESIAN_POINT ( 'NONE',  ( -0.4349999999999999978, 0.6875000000000000000, 0.4350000000000001643 ) ) ;
#232 = CARTESIAN_POINT ( 'NONE',  ( 0.2064845573919024679, 0.3316915143400086530, -0.08939095867643410964 ) ) ;
#233 = CARTESIAN_POINT ( 'NONE',  ( -0.2231527137744684086, 0.4290029082210731759, 0.02929432194574617745 ) ) ;
#234 = FACE_BOUND ( 'NONE', #456, .T. ) ;
#235 = CARTESIAN_POINT ( 'NONE',  ( -0.2133455652508865485, 0.3985950772115359753, 0.07155747531820857987 ) ) ;
#236 = CARTESIAN_POINT ( 'NONE',  ( -0.2214857876785947810, 0.4245414275608016541, -0.03999001104624275854 ) ) ;
#237 = EDGE_CURVE ( 'NONE', #29, #190, #444, .T. ) ;
#238 = VECTOR ( 'NONE', #133, 39.37007874015748143 ) ;
#239 = CARTESIAN_POINT ( 'NONE',  ( -0.2249971964059160334, 0.4336929910107715780, 0.006038386485371506629 ) ) ;
#240 = DIRECTION ( 'NONE',  ( -0.000000000000000000, -1.000000000000000000, -0.000000000000000000 ) ) ;
#241 = CARTESIAN_POINT ( 'NONE',  ( -0.2182460203892080675, 0.2721762651142023426, 0.05493989981964134822 ) ) ;
#242 = CARTESIAN_POINT ( 'NONE',  ( -0.2100297510073491636, 0.3839069629692991037, -0.08073765065466824431 ) ) ;
#243 = VERTEX_POINT ( 'NONE', #94 ) ;
#244 = AXIS2_PLACEMENT_3D ( 'NONE', #90, #445, #305 ) ;
#245 = CARTESIAN_POINT ( 'NONE',  ( -0.2247591150833388174, 0.2542974214616798290, -0.01193577545034394533 ) ) ;
#246 = ORIENTED_EDGE ( 'NONE', *, *, #222, .T. ) ;
#247 = DATE_AND_TIME ( #186, #208 ) ;
#248 = VECTOR ( 'NONE', #266, 39.37007874015748143 ) ;
#249 = CARTESIAN_POINT ( 'NONE',  ( 0.2082091209494864037, 0.3729354500049283372, -0.08532237859091638954 ) ) ;
#250 = CARTESIAN_POINT ( 'NONE',  ( 0.2099859451908309138, 0.3037261737764528902, 0.08085062425880201742 ) ) ;
#251 = CARTESIAN_POINT ( 'NONE',  ( 0.2133455652508866041, 0.2888049227884640913, 0.07155747531820849661 ) ) ;
#252 = VERTEX_POINT ( 'NONE', #375 ) ;
#253 = VECTOR ( 'NONE', #95, 39.37007874015748143 ) ;
#254 = PERSON_AND_ORGANIZATION ( #423, #421 ) ;
#255 = CARTESIAN_POINT ( 'NONE',  ( 0.2074694749889801071, 0.3671918851242980675, -0.08708048857621548955 ) ) ;
#256 = CARTESIAN_POINT ( 'NONE',  ( -0.2062159062730129500, 0.3436999999999999500, -0.08999999999999998279 ) ) ;
#257 = COORDINATED_UNIVERSAL_TIME_OFFSET ( 8, 0, .AHEAD. ) ;
#258 = CARTESIAN_POINT ( 'NONE',  ( 0.2182460203892081507, 0.4152237348857980570, 0.05493989981964138986 ) ) ;
#259 = APPLICATION_PROTOCOL_DEFINITION ( 'international standard', 'config_control_design', 1994, #169 ) ;
#260 = CARTESIAN_POINT ( 'NONE',  ( 0.2170440106209280684, 0.2758867556298241208, -0.05945962064819913795 ) ) ;
#261 = APPROVAL ( #291, '未指定' ) ;
#262 = VECTOR ( 'NONE', #240, 39.37007874015748143 ) ;
#263 = MECHANICAL_CONTEXT ( 'NONE', #169, 'mechanical' ) ;
#264 = FACE_OUTER_BOUND ( 'NONE', #64, .T. ) ;
#265 = EDGE_CURVE ( 'NONE', #161, #32, #55, .T. ) ;
#266 = DIRECTION ( 'NONE',  ( -1.570027582565668465E-16, -0.000000000000000000, -1.000000000000000000 ) ) ;
#267 = FACE_OUTER_BOUND ( 'NONE', #384, .T. ) ;
#268 = DIRECTION ( 'NONE',  ( 0.000000000000000000, 1.000000000000000000, 0.000000000000000000 ) ) ;
#269 = CARTESIAN_POINT ( 'NONE',  ( 0.2082122983435202856, 0.3144345810811355890, -0.08531531726456396958 ) ) ;
#270 = CARTESIAN_POINT ( 'NONE',  ( -0.2231779282691077060, 0.2583308910898019506, 0.02911149588298849594 ) ) ;
#271 = DIRECTION ( 'NONE',  ( 0.000000000000000000, -0.000000000000000000, 1.000000000000000000 ) ) ;
#272 = APPROVAL_PERSON_ORGANIZATION ( #152, #143, #77 ) ;
#273 = CARTESIAN_POINT ( 'NONE',  ( -0.2110897256466728045, 0.2983557654430882278, 0.07796201480862714750 ) ) ;
#274 = LINE ( 'NONE', #102, #427 ) ;
#275 = ORIENTED_EDGE ( 'NONE', *, *, #104, .T. ) ;
#276 = CARTESIAN_POINT ( 'NONE',  ( -0.4350000000000002198, 0.6875000000000000000, -0.4349999999999998868 ) ) ;
#277 = CARTESIAN_POINT ( 'NONE',  ( -0.2110661891356208075, 0.2984641182162697803, -0.07802570640940227620 ) ) ;
#278 = ORIENTED_EDGE ( 'NONE', *, *, #202, .T. ) ;
#279 = EDGE_CURVE ( 'NONE', #190, #243, #304, .T. ) ;
#280 = DATE_TIME_ROLE ( 'classification_date' ) ;
#281 = APPROVAL_DATE_TIME ( #34, #143 ) ;
#282 = CARTESIAN_POINT ( 'NONE',  ( 0.2110897256466728045, 0.3890442345569118388, 0.07796201480862720301 ) ) ;
#283 = CARTESIAN_POINT ( 'NONE',  ( -0.2170165019747995194, 0.4114268929503653305, 0.05956115532241233052 ) ) ;
#284 = CARTESIAN_POINT ( 'NONE',  ( 0.2110661891356208630, 0.3889358817837301197, -0.07802570640940231783 ) ) ;
#285 = APPROVAL_DATE_TIME ( #216, #261 ) ;
#286 = CARTESIAN_POINT ( 'NONE',  ( 0.2170281677559105782, 0.4114621392502412767, 0.05951647407878334073 ) ) ;
#287 = LINE ( 'NONE', #41, #457 ) ;
#288 = DIRECTION ( 'NONE',  ( 1.000000000000000000, 0.000000000000000000, 0.000000000000000000 ) ) ;
#289 = CARTESIAN_POINT ( 'NONE',  ( 0.2064790050598174498, 0.3556107155529093511, -0.08940366330516498483 ) ) ;
#290 = FACE_OUTER_BOUND ( 'NONE', #211, .T. ) ;
#291 = APPROVAL_STATUS ( 'not_yet_approved' ) ;
#292 = CARTESIAN_POINT ( 'NONE',  ( 0.2145968425403917690, 0.4032162820576843942, -0.06776050951418013946 ) ) ;
#293 = ORIENTED_EDGE ( 'NONE', *, *, #316, .F. ) ;
#294 = ADVANCED_FACE ( 'NONE', ( #7, #405 ), #440, .F. ) ;
#295 = FACE_BOUND ( 'NONE', #67, .T. ) ;
#296 = PRODUCT_DEFINITION ( '未知', '', #342, #328 ) ;
#297 = CARTESIAN_POINT ( 'NONE',  ( -0.4350000000000001643, 0.3437000000000000055, -0.08999999999999998279 ) ) ;
#298 = DIMENSIONAL_EXPONENTS ( 1.000000000000000000, 0.000000000000000000, 0.000000000000000000, 0.000000000000000000, 0.000000000000000000, 0.000000000000000000, 0.000000000000000000 ) ;
#299 = CARTESIAN_POINT ( 'NONE',  ( -0.4349999999999999978, 0.000000000000000000, 0.4350000000000001643 ) ) ;
#300 = CARTESIAN_POINT ( 'NONE',  ( -0.2062159062730128389, 0.3497126679001280602, -0.08999999999999996891 ) ) ;
#301 = EDGE_CURVE ( 'NONE', #428, #29, #432, .T. ) ;
#302 = CARTESIAN_POINT ( 'NONE',  ( 0.4349999999999999978, 0.6875000000000000000, 0.4350000000000001643 ) ) ;
#303 = CARTESIAN_POINT ( 'NONE',  ( -0.2062196661218261839, 0.3376514074489310180, 0.08999138509353428461 ) ) ;
#304 = LINE ( 'NONE', #447, #238 ) ;
#305 = DIRECTION ( 'NONE',  ( 0.000000000000000000, 0.000000000000000000, -1.000000000000000000 ) ) ;
#306 = CARTESIAN_POINT ( 'NONE',  ( -0.2062159062730129500, 0.3436999999999999500, -0.08999999999999998279 ) ) ;
#307 = EDGE_LOOP ( 'NONE', ( #209 ) ) ;
#308 = CARTESIAN_POINT ( 'NONE',  ( -0.2214535518454532892, 0.4244535021595339241, 0.04016983119461668000 ) ) ;
#309 = ORIENTED_EDGE ( 'NONE', *, *, #18, .T. ) ;
#310 = DIRECTION ( 'NONE',  ( 0.000000000000000000, 0.000000000000000000, 1.000000000000000000 ) ) ;
#311 =( GEOMETRIC_REPRESENTATION_CONTEXT ( 3 ) GLOBAL_UNCERTAINTY_ASSIGNED_CONTEXT ( ( #51 ) ) GLOBAL_UNIT_ASSIGNED_CONTEXT ( ( #49, #92, #367 ) ) REPRESENTATION_CONTEXT ( 'NONE', 'WORKASPACE' ) );
#312 = CARTESIAN_POINT ( 'NONE',  ( -0.2206170534602991951, 0.2651859522323363749, -0.04552744359945556929 ) ) ;
#313 = ORIENTED_EDGE ( 'NONE', *, *, #104, .F. ) ;
#314 = ORIENTED_EDGE ( 'NONE', *, *, #156, .T. ) ;
#315 = CARTESIAN_POINT ( 'NONE',  ( -0.2182269448056037009, 0.2718701214963811785, -0.05545418354389423932 ) ) ;
#316 = EDGE_CURVE ( 'NONE', #32, #207, #327, .T. ) ;
#317 = CARTESIAN_POINT ( 'NONE',  ( -0.2100131525392195109, 0.3035894044867272767, 0.08077976762293345714 ) ) ;
#318 = ORIENTED_EDGE ( 'NONE', *, *, #156, .F. ) ;
#319 = AXIS2_PLACEMENT_3D ( 'NONE', #175, #15, #164 ) ;
#320 = EDGE_CURVE ( 'NONE', #13, #13, #410, .T. ) ;
#321 = EDGE_LOOP ( 'NONE', ( #44, #318, #347, #350 ) ) ;
#322 = CARTESIAN_POINT ( 'NONE',  ( 0.2247625978604492480, 0.4331112093929168072, 0.01185894704130564803 ) ) ;
#323 = CARTESIAN_POINT ( 'NONE',  ( 0.2074912926612487996, 0.3673990093286348957, 0.08702884767213289741 ) ) ;
#324 = AXIS2_PLACEMENT_3D ( 'NONE', #197, #340, #16 ) ;
#325 = APPROVAL_DATE_TIME ( #247, #72 ) ;
#326 = CARTESIAN_POINT ( 'NONE',  ( -0.2182121945297657295, 0.4151206074339002794, 0.05507270363566365429 ) ) ;
#327 = LINE ( 'NONE', #394, #129 ) ;
#328 = DESIGN_CONTEXT ( 'detailed design', #113, 'design' ) ;
#329 = DIRECTION ( 'NONE',  ( 1.000000000000000000, 0.000000000000000000, -2.355041373848502945E-16 ) ) ;
#330 = CARTESIAN_POINT ( 'NONE',  ( 0.2182392430968284336, 0.2721964446811752647, -0.05496840072761220719 ) ) ;
#331 = ORIENTED_EDGE ( 'NONE', *, *, #237, .F. ) ;
#332 = CARTESIAN_POINT ( 'NONE',  ( 0.2064707317197172765, 0.3319120391840301720, 0.08942282036434076598 ) ) ;
#333 = EDGE_LOOP ( 'NONE', ( #82 ) ) ;
#334 = VECTOR ( 'NONE', #170, 39.37007874015748143 ) ;
#335 = CARTESIAN_POINT ( 'NONE',  ( -0.4349999999999999978, 0.6875000000000000000, 0.4350000000000001643 ) ) ;
#336 = DIRECTION ( 'NONE',  ( 0.000000000000000000, 0.000000000000000000, 1.000000000000000000 ) ) ;
#337 = CARTESIAN_POINT ( 'NONE',  ( 0.2133727875383333028, 0.2887003622283726978, -0.07147635431739177148 ) ) ;
#338 = CYLINDRICAL_SURFACE ( 'NONE', #146, 0.2249999999999999778 ) ;
#339 = CARTESIAN_POINT ( 'NONE',  ( -0.2182392430968285169, 0.4152035553188249128, -0.05496840072761217250 ) ) ;
#340 = DIRECTION ( 'NONE',  ( 1.000000000000000000, -0.000000000000000000, -0.000000000000000000 ) ) ;
#341 = DIRECTION ( 'NONE',  ( 0.000000000000000000, -0.000000000000000000, 1.000000000000000000 ) ) ;
#342 = PRODUCT_DEFINITION_FORMATION_WITH_SPECIFIED_SOURCE ( '任何', '', #369, .NOT_KNOWN. ) ;
#343 = DIRECTION ( 'NONE',  ( 0.000000000000000000, 0.000000000000000000, 1.000000000000000000 ) ) ;
#344 = CARTESIAN_POINT ( 'NONE',  ( -0.2204256205391802448, 0.4216217268469690249, 0.04541046506208991362 ) ) ;
#345 = CARTESIAN_POINT ( 'NONE',  ( -0.2214691532294711940, 0.2629034473395723270, 0.04009090952893497317 ) ) ;
#346 = CARTESIAN_POINT ( 'NONE',  ( -0.2133727875383333028, 0.3986996377716275908, -0.07147635431739179923 ) ) ;
#347 = ORIENTED_EDGE ( 'NONE', *, *, #53, .F. ) ;
#348 = EDGE_CURVE ( 'NONE', #243, #252, #165, .T. ) ;
#349 = PLANE ( 'NONE',  #221 ) ;
#350 = ORIENTED_EDGE ( 'NONE', *, *, #301, .T. ) ;
#351 = CC_DESIGN_APPROVAL ( #261, ( #296 ) ) ;
#352 = ADVANCED_FACE ( 'NONE', ( #14, #295, #443, #264 ), #338, .F. ) ;
#353 = CARTESIAN_POINT ( 'NONE',  ( -0.2133632903320122620, 0.2887341700160863667, -0.07150561793046301962 ) ) ;
#354 = ORIENTED_EDGE ( 'NONE', *, *, #348, .T. ) ;
#355 = AXIS2_PLACEMENT_3D ( 'NONE', #38, #162, #83 ) ;
#356 = PERSON_AND_ORGANIZATION_ROLE ( 'design_supplier' ) ;
#357 = APPROVAL_STATUS ( 'not_yet_approved' ) ;
#358 = CALENDAR_DATE ( 2022, 7, 11 ) ;
#359 = DIRECTION ( 'NONE',  ( -0.000000000000000000, -1.000000000000000000, -0.000000000000000000 ) ) ;
#360 = CARTESIAN_POINT ( 'NONE',  ( 0.2145994351424402313, 0.4032264603326611851, 0.06775336687430169591 ) ) ;
#361 = CC_DESIGN_APPROVAL ( #143, ( #342 ) ) ;
#362 = PRODUCT_DEFINITION_SHAPE ( 'NONE', 'NONE',  #296 ) ;
#363 = MANIFOLD_SOLID_BREP ( 'Cut-Extrude2', #79 ) ;
#364 = PERSON_AND_ORGANIZATION ( #423, #421 ) ;
#365 = CARTESIAN_POINT ( 'NONE',  ( 0.2214857876785948643, 0.2628585724391981349, -0.03999001104624275854 ) ) ;
#366 = ADVANCED_FACE ( 'NONE', ( #234, #134 ), #412, .F. ) ;
#367 =( NAMED_UNIT ( * ) SI_UNIT ( $, .STERADIAN. ) SOLID_ANGLE_UNIT ( ) );
#368 = CARTESIAN_POINT ( 'NONE',  ( 0.2133632903320122065, 0.3986658299839135333, -0.07150561793046308900 ) ) ;
#369 = PRODUCT ( '00112_index_1', '00112_index_1', '', ( #263 ) ) ;
#370 = CARTESIAN_POINT ( 'NONE',  ( 0.2062159062730127834, 0.3376873320998721173, -0.08999999999999999667 ) ) ;
#371 = CARTESIAN_POINT ( 'NONE',  ( 0.2062159062730126724, 0.3437000000000000055, -0.08999999999999998279 ) ) ;
#372 = DIRECTION ( 'NONE',  ( 0.000000000000000000, 0.000000000000000000, -1.000000000000000000 ) ) ;
#373 = CARTESIAN_POINT ( 'NONE',  ( 0.000000000000000000, 0.000000000000000000, 0.2249999999999999778 ) ) ;
#374 = PLANE ( 'NONE',  #401 ) ;
#375 = CARTESIAN_POINT ( 'NONE',  ( -0.4349999999999999978, 0.000000000000000000, 0.4350000000000001643 ) ) ;
#376 = LINE ( 'NONE', #299, #98 ) ;
#377 = CARTESIAN_POINT ( 'NONE',  ( -0.2064707317197173320, 0.3554879608159697835, 0.08942282036434083536 ) ) ;
#378 = FACE_OUTER_BOUND ( 'NONE', #387, .T. ) ;
#379 = CIRCLE ( 'NONE', #454, 0.2249999999999999778 ) ;
#380 = CARTESIAN_POINT ( 'NONE',  ( -0.2240164901294584565, 0.4313123102980679358, -0.02371144572612879711 ) ) ;
#381 = CARTESIAN_POINT ( 'NONE',  ( 0.4349999999999999978, 0.000000000000000000, 0.4350000000000001643 ) ) ;
#382 = ADVANCED_FACE ( 'NONE', ( #128, #441 ), #125, .F. ) ;
#383 = CARTESIAN_POINT ( 'NONE',  ( -0.2238264521487325909, 0.4307313130502227194, 0.02367705573348350204 ) ) ;
#384 = EDGE_LOOP ( 'NONE', ( #436, #176, #313, #278 ) ) ;
#385 = ORIENTED_EDGE ( 'NONE', *, *, #202, .F. ) ;
#386 = CARTESIAN_POINT ( 'NONE',  ( -0.2082091209494864592, 0.3144645499950714518, -0.08532237859091640342 ) ) ;
#387 = EDGE_LOOP ( 'NONE', ( #86, #62, #331, #141 ) ) ;
#388 = CIRCLE ( 'NONE', #178, 0.2249999999999999778 ) ;
#389 = CARTESIAN_POINT ( 'NONE',  ( -0.2249970284392141251, 0.2537074289067292043, -0.006053419398009374577 ) ) ;
#390 = CARTESIAN_POINT ( 'NONE',  ( -0.2145994351424402313, 0.2841735396673390479, 0.06775336687430166815 ) ) ;
#391 = CC_DESIGN_SECURITY_CLASSIFICATION ( #413, ( #342 ) ) ;
#392 = PERSON_AND_ORGANIZATION ( #423, #421 ) ;
#393 = DATE_AND_TIME ( #111, #229 ) ;
#394 = CARTESIAN_POINT ( 'NONE',  ( -0.4350000000000002198, 0.6875000000000000000, -0.4349999999999998868 ) ) ;
#395 = CALENDAR_DATE ( 2022, 7, 11 ) ;
#396 = CARTESIAN_POINT ( 'NONE',  ( 0.2238264521487324243, 0.2566686869497775136, 0.02367705573348338755 ) ) ;
#397 = ADVANCED_FACE ( 'NONE', ( #267 ), #374, .F. ) ;
#398 = DIRECTION ( 'NONE',  ( -1.570027582565668465E-16, -0.000000000000000000, -1.000000000000000000 ) ) ;
#399 = PERSON_AND_ORGANIZATION_ROLE ( 'creator' ) ;
#400 = CARTESIAN_POINT ( 'NONE',  ( 0.2238369964963838332, 0.4307583840694109156, -0.02358222949859625772 ) ) ;
#401 = AXIS2_PLACEMENT_3D ( 'NONE', #231, #372, #163 ) ;
#402 = ORIENTED_EDGE ( 'NONE', *, *, #265, .T. ) ;
#403 = EDGE_CURVE ( 'NONE', #252, #29, #376, .T. ) ;
#404 = PERSON_AND_ORGANIZATION_ROLE ( 'design_owner' ) ;
#405 = FACE_OUTER_BOUND ( 'NONE', #30, .T. ) ;
#406 = ORIENTED_EDGE ( 'NONE', *, *, #1, .F. ) ;
#407 = CARTESIAN_POINT ( 'NONE',  ( -0.2062159062730130055, 0.3376873320998718397, -0.08999999999999999667 ) ) ;
#408 = APPLICATION_PROTOCOL_DEFINITION ( 'international standard', 'config_control_design', 1994, #113 ) ;
#409 = CARTESIAN_POINT ( 'NONE',  ( 0.2074642687217524151, 0.3202433216423373197, 0.08709294496419989207 ) ) ;
#410 = B_SPLINE_CURVE_WITH_KNOTS ( 'NONE', 3,
 ( #434, #151, #289, #255, #249, #76, #284, #368, #292, #182, #159, #120, #400, #224, #220, #123, #322, #228, #437, #226, #85, #258, #286, #360, #81, #282, #43, #35, #323, #115, #117, #189, #332, #409, #33, #250, #5, #251, #88, #181, #2, #153, #40, #149, #396, #78, #37, #185, #118, #365, #187, #330, #260, #50, #337, #193, #131, #269, #199, #232, #370, #194 ),
 .UNSPECIFIED., .T., .F.,
 ( 4, 2, 2, 2, 2, 2, 2, 2, 2, 2, 2, 2, 2, 2, 2, 2, 2, 2, 2, 2, 2, 2, 2, 2, 2, 2, 2, 2, 2, 2, 4 ),
 ( 0.000000000000000000, 0.0004512397305465480407, 0.0009024794610930960814, 0.001353719191639644014, 0.001804958922186192163, 0.002707438383279284124, 0.003158678113825829237, 0.003609917844372374784, 0.004061157574918919030, 0.004512397305465464144, 0.004963637036012009257, 0.005414876766558554370, 0.005866116497105098616, 0.006317356227651642862, 0.006768595958198188843, 0.007219835688744733089, 0.007671075419291278202, 0.008122315149837822448, 0.008573554880384364960, 0.009024794610930909206, 0.009476034341477453452, 0.009927274072023995963, 0.01037851380257053847, 0.01082975353311708272, 0.01173223299421016774, 0.01218347272475671199, 0.01263471245530325450, 0.01308595218584979875, 0.01353719191639634126, 0.01398843164694288550, 0.01443967137748942801 ),
 .UNSPECIFIED. ) ;
#411 = VERTEX_POINT ( 'NONE', #192 ) ;
#412 = PLANE ( 'NONE',  #150 ) ;
#413 = SECURITY_CLASSIFICATION ( '', '', #31 ) ;
#414 = FACE_OUTER_BOUND ( 'NONE', #458, .T. ) ;
#415 = CARTESIAN_POINT ( 'NONE',  ( -0.2146095484704998724, 0.4032633432599568302, -0.06772215840722645153 ) ) ;
#416 = B_SPLINE_CURVE_WITH_KNOTS ( 'NONE', 3,
 ( #256, #407, #45, #177, #386, #65, #277, #353, #174, #315, #312, #142, #106, #245, #389, #68, #426, #108, #270, #345, #101, #241, #138, #390, #69, #273, #317, #22, #418, #58, #303, #20, #377, #96, #200, #446, #132, #235, #219, #283, #326, #344, #308, #233, #383, #203, #239, #97, #380, #236, #21, #339, #135, #415, #346, #61, #242, #168, #419, #450, #300, #306 ),
 .UNSPECIFIED., .T., .F.,
 ( 4, 2, 2, 2, 2, 2, 2, 2, 2, 2, 2, 2, 2, 2, 2, 2, 2, 2, 2, 2, 2, 2, 2, 2, 2, 2, 2, 2, 2, 2, 4 ),
 ( 0.000000000000000000, 0.0004512397305465453302, 0.0009024794610930906603, 0.001353719191639635991, 0.001804958922186181754, 0.002707438383279274149, 0.003158678113825820130, 0.003609917844372365677, 0.004061157574918912092, 0.004512397305465458940, 0.004963637036012004053, 0.005414876766558550034, 0.005866116497105096882, 0.006317356227651642862, 0.006768595958198186241, 0.007219835688744730487, 0.007671075419291272998, 0.008122315149837817244, 0.008573554880384361490, 0.009024794610930904001, 0.009476034341477448247, 0.009927274072023992493, 0.01037851380257053674, 0.01082975353311707925, 0.01173223299421016774, 0.01218347272475671199, 0.01263471245530325797, 0.01308595218584980222, 0.01353719191639634473, 0.01398843164694289071, 0.01443967137748943148 ),
 .UNSPECIFIED. ) ;
#417 = FACE_OUTER_BOUND ( 'NONE', #422, .T. ) ;
#418 = CARTESIAN_POINT ( 'NONE',  ( -0.2074912926612487996, 0.3200009906713652819, 0.08702884767213286965 ) ) ;
#419 = CARTESIAN_POINT ( 'NONE',  ( -0.2074814171354032177, 0.3672980876986158272, -0.08705215378097555523 ) ) ;
#420 = DIRECTION ( 'NONE',  ( -0.000000000000000000, -1.000000000000000000, -0.000000000000000000 ) ) ;
#421 = ORGANIZATION ( '未指定', '未指定', '' ) ;
#422 = EDGE_LOOP ( 'NONE', ( #157 ) ) ;
#423 = PERSON ( '未指定', '未指定', '未指定', ('未指定'), ('未指定'), ('未指定') ) ;
#424 = FACE_BOUND ( 'NONE', #103, .T. ) ;
#425 = CARTESIAN_POINT ( 'NONE',  ( -0.4350000000000002198, 0.6875000000000000000, -0.4349999999999998868 ) ) ;
#426 = CARTESIAN_POINT ( 'NONE',  ( -0.2247625978604492480, 0.2542887906070830928, 0.01185894704130557691 ) ) ;
#427 = VECTOR ( 'NONE', #420, 39.37007874015748143 ) ;
#428 = VERTEX_POINT ( 'NONE', #302 ) ;
#429 = ADVANCED_FACE ( 'NONE', ( #417, #414 ), #93, .F. ) ;
#430 = AXIS2_PLACEMENT_3D ( 'NONE', #201, #268, #271 ) ;
#431 = COORDINATED_UNIVERSAL_TIME_OFFSET ( 8, 0, .AHEAD. ) ;
#432 = LINE ( 'NONE', #155, #210 ) ;
#433 = CC_DESIGN_DATE_AND_TIME_ASSIGNMENT ( #148, #114, ( #296 ) ) ;
#434 = CARTESIAN_POINT ( 'NONE',  ( 0.2062159062730126724, 0.3437000000000001720, -0.08999999999999999667 ) ) ;
#435 = CARTESIAN_POINT ( 'NONE',  ( -0.4350000000000002198, 0.6875000000000000000, -0.4349999999999998868 ) ) ;
#436 = ORIENTED_EDGE ( 'NONE', *, *, #403, .T. ) ;
#437 = CARTESIAN_POINT ( 'NONE',  ( 0.2231779282691076505, 0.4290691089101983935, 0.02911149588298855145 ) ) ;
#438 = DIRECTION ( 'NONE',  ( 0.000000000000000000, 0.000000000000000000, -1.000000000000000000 ) ) ;
#439 = APPROVAL_ROLE ( '' ) ;
#440 = PLANE ( 'NONE',  #73 ) ;
#441 = FACE_OUTER_BOUND ( 'NONE', #147, .T. ) ;
#442 = DIRECTION ( 'NONE',  ( 0.000000000000000000, 1.000000000000000000, 0.000000000000000000 ) ) ;
#443 = FACE_OUTER_BOUND ( 'NONE', #225, .T. ) ;
#444 = LINE ( 'NONE', #130, #248 ) ;
#445 = DIRECTION ( 'NONE',  ( 1.000000000000000000, -0.000000000000000000, -0.000000000000000000 ) ) ;
#446 = CARTESIAN_POINT ( 'NONE',  ( -0.2099859451908309138, 0.3836738262235471764, 0.08085062425880201742 ) ) ;
#447 = CARTESIAN_POINT ( 'NONE',  ( -0.4350000000000002198, 0.000000000000000000, -0.4349999999999998868 ) ) ;
#448 = CARTESIAN_POINT ( 'NONE',  ( 0.000000000000000000, -0.7397500000000005738, 0.000000000000000000 ) ) ;
#449 = EDGE_CURVE ( 'NONE', #127, #127, #379, .T. ) ;
#450 = CARTESIAN_POINT ( 'NONE',  ( -0.2064845573919024124, 0.3557084856599915246, -0.08939095867643404025 ) ) ;
#451 = ORIENTED_EDGE ( 'NONE', *, *, #449, .F. ) ;
#452 = PRODUCT_RELATED_PRODUCT_CATEGORY ( 'detail', '', ( #369 ) ) ;
#453 = FACE_BOUND ( 'NONE', #11, .T. ) ;
#454 = AXIS2_PLACEMENT_3D ( 'NONE', #57, #442, #336 ) ;
#455 = ORIENTED_EDGE ( 'NONE', *, *, #18, .F. ) ;
#456 = EDGE_LOOP ( 'NONE', ( #246 ) ) ;
#457 = VECTOR ( 'NONE', #398, 39.37007874015748143 ) ;
#458 = EDGE_LOOP ( 'NONE', ( #136 ) ) ;
ENDSEC;
END-ISO-10303-21;
