ISO-10303-21;
HEADER;
FILE_DESCRIPTION (( 'STEP AP203' ),
    '1' );
FILE_NAME ('00155_index_1.step',
    '2022-11-07T16:07:22',
    ( '' ),
    ( '' ),
    'SwSTEP 2.0',
    'SolidWorks 2020',
    '' );
FILE_SCHEMA (( 'CONFIG_CONTROL_DESIGN' ));
ENDSEC;

DATA;
#1 = COORDINATED_UNIVERSAL_TIME_OFFSET ( 8, 0, .AHEAD. ) ;
#2 = DIRECTION ( 'NONE',  ( -1.000000000000000000, -0.000000000000000000, -0.000000000000000000 ) ) ;
#3 =( BOUNDED_CURVE ( )  B_SPLINE_CURVE ( 3, ( #142, #623, #522, #352 ),
 .UNSPECIFIED., .F., .T. ) 
 B_SPLINE_CURVE_WITH_KNOTS ( ( 4, 4 ),
 ( 1.588728329616376334, 1.738830216279861673 ),
 .UNSPECIFIED. ) 
 CURVE ( )  GEOMETRIC_REPRESENTATION_ITEM ( )  RATIONAL_B_SPLINE_CURVE ( ( 1.000000000000000000, 0.9981233330995401554, 0.9981233330995401554, 1.000000000000000000 ) ) 
 REPRESENTATION_ITEM ( '' )  );
#4 = APPLICATION_PROTOCOL_DEFINITION ( 'international standard', 'config_control_design', 1994, #314 ) ;
#5 = FACE_OUTER_BOUND ( 'NONE', #184, .T. ) ;
#6 = EDGE_CURVE ( 'NONE', #517, #171, #348, .T. ) ;
#7 = LINE ( 'NONE', #483, #202 ) ;
#8 = PERSON_AND_ORGANIZATION ( #424, #319 ) ;
#9 = ORIENTED_EDGE ( 'NONE', *, *, #234, .F. ) ;
#10 = ORIENTED_EDGE ( 'NONE', *, *, #6, .F. ) ;
#11 = PLANE ( 'NONE',  #504 ) ;
#12 = PERSON_AND_ORGANIZATION_ROLE ( 'creator' ) ;
#13 = ORIENTED_EDGE ( 'NONE', *, *, #639, .F. ) ;
#14 = CARTESIAN_POINT ( 'NONE',  ( 0.1709813689041861373, -0.3545646833612127735, -0.02026221476289005036 ) ) ;
#15 = LINE ( 'NONE', #69, #479 ) ;
#16 = CALENDAR_DATE ( 2022, 8, 11 ) ;
#17 = EDGE_LOOP ( 'NONE', ( #18, #289, #490, #180, #666, #663 ) ) ;
#18 = ORIENTED_EDGE ( 'NONE', *, *, #559, .F. ) ;
#19 = CARTESIAN_POINT ( 'NONE',  ( 0.2886751345948154190, -0.6249999999999998890, -1.178943952070743865E-16 ) ) ;
#20 = EDGE_CURVE ( 'NONE', #449, #430, #628, .T. ) ;
#21 = AXIS2_PLACEMENT_3D ( 'NONE', #494, #329, #110 ) ;
#22 = CARTESIAN_POINT ( 'NONE',  ( -0.1647821641033685447, -0.3516071204865907074, -0.04989763319901493327 ) ) ;
#23 = FACE_OUTER_BOUND ( 'NONE', #137, .T. ) ;
#24 = DIRECTION ( 'NONE',  ( -1.000000000000000000, -0.000000000000000000, -0.000000000000000000 ) ) ;
#25 = CARTESIAN_POINT ( 'NONE',  ( -0.4249999999999999889, 0.000000000000000000, 0.000000000000000000 ) ) ;
#26 = ADVANCED_BREP_SHAPE_REPRESENTATION ( '00155_index_1', ( #401, #125 ), #419 ) ;
#27 = VERTEX_POINT ( 'NONE', #351 ) ;
#28 = VECTOR ( 'NONE', #442, 39.37007874015748143 ) ;
#29 = APPROVAL_PERSON_ORGANIZATION ( #477, #448, #169 ) ;
#30 = VERTEX_POINT ( 'NONE', #144 ) ;
#31 = EDGE_LOOP ( 'NONE', ( #656 ) ) ;
#32 = ORIENTED_EDGE ( 'NONE', *, *, #454, .T. ) ;
#33 = EDGE_LOOP ( 'NONE', ( #190, #608, #378, #235 ) ) ;
#34 = CARTESIAN_POINT ( 'NONE',  ( 0.2886751345948154190, -0.3499999999999998668, -6.737771474224606143E-17 ) ) ;
#35 = FACE_BOUND ( 'NONE', #216, .T. ) ;
#36 = ORIENTED_EDGE ( 'NONE', *, *, #502, .T. ) ;
#37 = DIRECTION ( 'NONE',  ( 0.8660254037844387076, 9.184850993605149670E-17, -0.5000000000000001110 ) ) ;
#38 = EDGE_CURVE ( 'NONE', #111, #85, #301, .T. ) ;
#39 = VECTOR ( 'NONE', #96, 39.37007874015748143 ) ;
#40 = DIRECTION ( 'NONE',  ( -1.000000000000000000, -0.000000000000000000, -0.000000000000000000 ) ) ;
#41 = CARTESIAN_POINT ( 'NONE',  ( 0.2849999999999999756, -0.3549429252107018651, -0.006365519842874396185 ) ) ;
#42 = DIRECTION ( 'NONE',  ( -1.000000000000000000, -0.000000000000000000, -0.000000000000000000 ) ) ;
#43 = DIRECTION ( 'NONE',  ( 0.000000000000000000, 2.731847993664239553E-16, -1.000000000000000000 ) ) ;
#44 = FACE_OUTER_BOUND ( 'NONE', #74, .T. ) ;
#45 = CARTESIAN_POINT ( 'NONE',  ( -0.4249999999999999889, 0.000000000000000000, 0.1400000000000000133 ) ) ;
#46 = FACE_OUTER_BOUND ( 'NONE', #662, .T. ) ;
#47 = DIRECTION ( 'NONE',  ( -1.182924880895391157E-16, -1.836970198721029688E-16, 1.000000000000000000 ) ) ;
#48 = EDGE_CURVE ( 'NONE', #347, #568, #164, .T. ) ;
#49 = CARTESIAN_POINT ( 'NONE',  ( -0.1443375672974076818, -0.6250000000000000000, 0.2500000000000020539 ) ) ;
#50 = DIRECTION ( 'NONE',  ( -0.000000000000000000, 1.000000000000000000, 1.836970198721029688E-16 ) ) ;
#51 = AXIS2_PLACEMENT_3D ( 'NONE', #49, #37, #632 ) ;
#52 = CARTESIAN_POINT ( 'NONE',  ( 0.1443375672974077650, -0.6249999999999998890, -0.2500000000000022760 ) ) ;
#53 = DIRECTION ( 'NONE',  ( -0.5000000000000000000, 2.365849761790781328E-16, -0.8660254037844385966 ) ) ;
#54 =( BOUNDED_CURVE ( )  B_SPLINE_CURVE ( 3, ( #188, #196, #463, #356 ),
 .UNSPECIFIED., .F., .T. ) 
 B_SPLINE_CURVE_WITH_KNOTS ( ( 4, 4 ),
 ( 4.730320983206169672, 4.880422869869654789 ),
 .UNSPECIFIED. ) 
 CURVE ( )  GEOMETRIC_REPRESENTATION_ITEM ( )  RATIONAL_B_SPLINE_CURVE ( ( 1.000000000000000000, 0.9981233330995401554, 0.9981233330995401554, 1.000000000000000000 ) ) 
 REPRESENTATION_ITEM ( '' )  );
#55 = PERSON_AND_ORGANIZATION ( #424, #319 ) ;
#56 = DIRECTION ( 'NONE',  ( 0.000000000000000000, 0.000000000000000000, 1.000000000000000000 ) ) ;
#57 = DIRECTION ( 'NONE',  ( -1.000000000000000000, -0.000000000000000000, -0.000000000000000000 ) ) ;
#58 = APPROVAL_DATE_TIME ( #417, #60 ) ;
#59 = VECTOR ( 'NONE', #509, 39.37007874015748143 ) ;
#60 = APPROVAL ( #325, '未指定' ) ;
#61 = FACE_OUTER_BOUND ( 'NONE', #67, .T. ) ;
#62 = ORIENTED_EDGE ( 'NONE', *, *, #559, .T. ) ;
#63 = CARTESIAN_POINT ( 'NONE',  ( 0.2849999999999999756, -0.3549429252107018651, -0.006365519842874396185 ) ) ;
#64 = CARTESIAN_POINT ( 'NONE',  ( -0.1647484094251781828, -0.3515915649026077339, 0.04998933435355688154 ) ) ;
#65 = PERSON_AND_ORGANIZATION_ROLE ( 'creator' ) ;
#66 = EDGE_CURVE ( 'NONE', #138, #659, #54, .T. ) ;
#67 = EDGE_LOOP ( 'NONE', ( #501, #497, #83, #286, #321, #427, #333 ) ) ;
#68 = LINE ( 'NONE', #19, #592 ) ;
#69 = CARTESIAN_POINT ( 'NONE',  ( 0.1443375672974077650, -0.6249999999999998890, -0.2500000000000022760 ) ) ;
#70 = PLANE ( 'NONE',  #101 ) ;
#71 = VECTOR ( 'NONE', #291, 39.37007874015748143 ) ;
#72 = AXIS2_PLACEMENT_3D ( 'NONE', #441, #86, #97 ) ;
#73 = CARTESIAN_POINT ( 'NONE',  ( -0.1718793416510232264, -0.3550021020315966003, -0.01007283972483158374 ) ) ;
#74 = EDGE_LOOP ( 'NONE', ( #241, #563, #246, #565 ) ) ;
#75 = CARTESIAN_POINT ( 'NONE',  ( 0.1718722912450829921, -0.3549986885429896599, -0.01014221304424842672 ) ) ;
#76 = ORIENTED_EDGE ( 'NONE', *, *, #107, .T. ) ;
#77 = DIRECTION ( 'NONE',  ( -1.000000000000000000, 0.000000000000000000, 0.000000000000000000 ) ) ;
#78 = EDGE_CURVE ( 'NONE', #508, #568, #399, .T. ) ;
#79 = VERTEX_POINT ( 'NONE', #619 ) ;
#80 = VERTEX_POINT ( 'NONE', #34 ) ;
#81 = EDGE_CURVE ( 'NONE', #347, #557, #150, .T. ) ;
#82 = AXIS2_PLACEMENT_3D ( 'NONE', #368, #2, #409 ) ;
#83 = ORIENTED_EDGE ( 'NONE', *, *, #369, .T. ) ;
#84 = ORIENTED_EDGE ( 'NONE', *, *, #81, .F. ) ;
#85 = VERTEX_POINT ( 'NONE', #672 ) ;
#86 = DIRECTION ( 'NONE',  ( -0.000000000000000000, 1.000000000000000000, 1.836970198721029688E-16 ) ) ;
#87 = EDGE_LOOP ( 'NONE', ( #244 ) ) ;
#88 = ADVANCED_FACE ( 'NONE', ( #521, #46 ), #466, .T. ) ;
#89 = CARTESIAN_POINT ( 'NONE',  ( -0.4249999999999999889, -0.3499999999999998668, -0.05937171043518971875 ) ) ;
#90 = LINE ( 'NONE', #203, #134 ) ;
#91 = EDGE_LOOP ( 'NONE', ( #161 ) ) ;
#92 = AXIS2_PLACEMENT_3D ( 'NONE', #469, #676, #478 ) ;
#93 = PLANE ( 'NONE',  #627 ) ;
#94 = APPROVAL_PERSON_ORGANIZATION ( #371, #228, #529 ) ;
#95 = DIRECTION ( 'NONE',  ( 5.693113199781538547E-32, 1.000000000000000000, 2.731847993664239553E-16 ) ) ;
#96 = DIRECTION ( 'NONE',  ( -1.000000000000000000, -0.000000000000000000, -0.000000000000000000 ) ) ;
#97 = DIRECTION ( 'NONE',  ( 0.000000000000000000, 0.000000000000000000, 1.000000000000000000 ) ) ;
#98 =( CONVERSION_BASED_UNIT ( 'INCH', #199 ) LENGTH_UNIT ( ) NAMED_UNIT ( #534 ) );
#99 = CYLINDRICAL_SURFACE ( 'NONE', #82, 0.1400000000000000133 ) ;
#100 = LINE ( 'NONE', #213, #447 ) ;
#101 = AXIS2_PLACEMENT_3D ( 'NONE', #122, #498, #114 ) ;
#102 = CARTESIAN_POINT ( 'NONE',  ( -0.2849999999999999756, -0.3499999999999998113, -0.1400000000000000966 ) ) ;
#103 = CARTESIAN_POINT ( 'NONE',  ( 0.1612948096654072683, -0.3499999999999998668, -0.05937171043518971875 ) ) ;
#104 = APPLICATION_CONTEXT ( 'configuration controlled 3d designs of mechanical parts and assemblies' ) ;
#105 = APPROVAL_ROLE ( '' ) ;
#106 = DIRECTION ( 'NONE',  ( -0.4999999999999998890, 0.000000000000000000, 0.8660254037844385966 ) ) ;
#107 = EDGE_CURVE ( 'NONE', #511, #133, #155, .T. ) ;
#108 = EDGE_CURVE ( 'NONE', #153, #153, #445, .T. ) ;
#109 = COORDINATED_UNIVERSAL_TIME_OFFSET ( 8, 0, .AHEAD. ) ;
#110 = DIRECTION ( 'NONE',  ( 0.5000000000000001110, 0.000000000000000000, -0.8660254037844384856 ) ) ;
#111 = VERTEX_POINT ( 'NONE', #647 ) ;
#112 = ORIENTED_EDGE ( 'NONE', *, *, #520, .F. ) ;
#113 = VECTOR ( 'NONE', #159, 39.37007874015748854 ) ;
#114 = DIRECTION ( 'NONE',  ( 0.000000000000000000, -2.731847993664239553E-16, 1.000000000000000000 ) ) ;
#115 = AXIS2_PLACEMENT_3D ( 'NONE', #456, #569, #514 ) ;
#116 = DIRECTION ( 'NONE',  ( 0.000000000000000000, -2.731847993664239553E-16, 1.000000000000000000 ) ) ;
#117 = DATE_TIME_ROLE ( 'creation_date' ) ;
#118 = VERTEX_POINT ( 'NONE', #221 ) ;
#119 = EDGE_LOOP ( 'NONE', ( #446, #428, #9 ) ) ;
#120 = LINE ( 'NONE', #492, #528 ) ;
#121 = CARTESIAN_POINT ( 'NONE',  ( 1.024442997624098707E-16, -0.3499999999999997558, -0.5000000000000043299 ) ) ;
#122 = CARTESIAN_POINT ( 'NONE',  ( 1.024442997624098707E-16, -0.3499999999999997558, -0.5000000000000043299 ) ) ;
#123 = DIRECTION ( 'NONE',  ( 0.4999999999999998890, -2.365849761790781821E-16, 0.8660254037844385966 ) ) ;
#124 = DIRECTION ( 'NONE',  ( 1.000000000000000000, 0.000000000000000000, 0.000000000000000000 ) ) ;
#125 = AXIS2_PLACEMENT_3D ( 'NONE', #195, #671, #571 ) ;
#126 = EDGE_LOOP ( 'NONE', ( #273, #294, #135, #327, #457, #32 ) ) ;
#127 = PLANE ( 'NONE',  #398 ) ;
#128 = EDGE_CURVE ( 'NONE', #517, #138, #641, .T. ) ;
#129 = EDGE_CURVE ( 'NONE', #403, #508, #550, .T. ) ;
#130 = EDGE_LOOP ( 'NONE', ( #594, #643, #339, #341, #394, #175, #391 ) ) ;
#131 = ORIENTED_EDGE ( 'NONE', *, *, #20, .F. ) ;
#132 = ORIENTED_EDGE ( 'NONE', *, *, #317, .F. ) ;
#133 = VERTEX_POINT ( 'NONE', #318 ) ;
#134 = VECTOR ( 'NONE', #467, 39.37007874015748143 ) ;
#135 = ORIENTED_EDGE ( 'NONE', *, *, #252, .T. ) ;
#136 = FACE_OUTER_BOUND ( 'NONE', #33, .T. ) ;
#137 = EDGE_LOOP ( 'NONE', ( #660, #224, #554, #383, #84, #287 ) ) ;
#138 = VERTEX_POINT ( 'NONE', #163 ) ;
#139 = PLANE ( 'NONE',  #560 ) ;
#140 = ORIENTED_EDGE ( 'NONE', *, *, #107, .F. ) ;
#141 = CARTESIAN_POINT ( 'NONE',  ( 0.2849999999999999756, -0.3499999999999998113, -0.1400000000000000966 ) ) ;
#142 = CARTESIAN_POINT ( 'NONE',  ( -0.2849999999999999756, -0.3549429252107018651, -0.006365519842874399654 ) ) ;
#143 = CARTESIAN_POINT ( 'NONE',  ( 0.2886751345948154190, -0.6249999999999998890, -1.178943952070743865E-16 ) ) ;
#144 = CARTESIAN_POINT ( 'NONE',  ( -0.2543968615928102195, -0.3499999999999998668, 0.05937171043518951058 ) ) ;
#145 = VECTOR ( 'NONE', #310, 39.37007874015748143 ) ;
#146 = DIRECTION ( 'NONE',  ( 0.000000000000000000, -1.000000000000000000, -1.836970198721029688E-16 ) ) ;
#147 = DIRECTION ( 'NONE',  ( 0.000000000000000000, -2.731847993664239553E-16, 1.000000000000000000 ) ) ;
#148 = CARTESIAN_POINT ( 'NONE',  ( 0.2543968615928102195, -0.3499999999999998668, -0.05937171043518971181 ) ) ;
#149 = EDGE_CURVE ( 'NONE', #362, #362, #236, .T. ) ;
#150 = LINE ( 'NONE', #89, #39 ) ;
#151 = CARTESIAN_POINT ( 'NONE',  ( 1.024442997624098707E-16, -0.6249999999999997780, -0.5000000000000043299 ) ) ;
#152 = DIRECTION ( 'NONE',  ( 0.000000000000000000, 1.000000000000000000, 1.836970198721029441E-16 ) ) ;
#153 = VERTEX_POINT ( 'NONE', #519 ) ;
#154 = CARTESIAN_POINT ( 'NONE',  ( 0.2849999999999999756, 0.000000000000000000, 0.000000000000000000 ) ) ;
#155 = CIRCLE ( 'NONE', #527, 0.3549999999999999267 ) ;
#156 = AXIS2_PLACEMENT_3D ( 'NONE', #634, #530, #633 ) ;
#157 = CARTESIAN_POINT ( 'NONE',  ( -0.1443375672974076818, -0.3499999999999999778, 0.2500000000000021094 ) ) ;
#158 = FACE_BOUND ( 'NONE', #613, .T. ) ;
#159 = DIRECTION ( 'NONE',  ( -0.5000000000000000000, 2.365849761790781328E-16, -0.8660254037844385966 ) ) ;
#160 = APPROVAL_DATE_TIME ( #366, #448 ) ;
#161 = ORIENTED_EDGE ( 'NONE', *, *, #108, .F. ) ;
#162 = EDGE_CURVE ( 'NONE', #551, #27, #168, .T. ) ;
#163 = CARTESIAN_POINT ( 'NONE',  ( 0.2849999999999999756, -0.3549429252107018651, 0.006365519842874488125 ) ) ;
#164 = CIRCLE ( 'NONE', #342, 0.1718749999999998890 ) ;
#165 = EDGE_LOOP ( 'NONE', ( #132, #591, #243, #654, #604, #285 ) ) ;
#166 = CARTESIAN_POINT ( 'NONE',  ( -0.2543968615928102195, -0.3499999999999998668, 0.05937171043518951058 ) ) ;
#167 = CC_DESIGN_APPROVAL ( #448, ( #372 ) ) ;
#168 = LINE ( 'NONE', #540, #28 ) ;
#169 = APPROVAL_ROLE ( '' ) ;
#170 = ORIENTED_EDGE ( 'NONE', *, *, #317, .T. ) ;
#171 = VERTEX_POINT ( 'NONE', #597 ) ;
#172 = LINE ( 'NONE', #232, #611 ) ;
#173 = CARTESIAN_POINT ( 'NONE',  ( -0.1674117571703175045, -0.3528572630493411744, -0.04019945310301454439 ) ) ;
#174 = DIRECTION ( 'NONE',  ( 1.000000000000000000, 0.000000000000000000, 0.000000000000000000 ) ) ;
#175 = ORIENTED_EDGE ( 'NONE', *, *, #255, .F. ) ;
#176 = EDGE_CURVE ( 'NONE', #118, #449, #279, .T. ) ;
#177 = DIRECTION ( 'NONE',  ( 1.000000000000000000, 0.000000000000000000, 1.182924880895390910E-16 ) ) ;
#178 = AXIS2_PLACEMENT_3D ( 'NONE', #593, #124, #389 ) ;
#179 = CC_DESIGN_PERSON_AND_ORGANIZATION_ASSIGNMENT ( #8, #541, ( #233 ) ) ;
#180 = ORIENTED_EDGE ( 'NONE', *, *, #572, .F. ) ;
#181 = EDGE_LOOP ( 'NONE', ( #112, #507, #239, #505 ) ) ;
#182 = EDGE_LOOP ( 'NONE', ( #36, #491, #407, #219, #131, #558, #373 ) ) ;
#183 = EDGE_CURVE ( 'NONE', #561, #347, #439, .T. ) ;
#184 = EDGE_LOOP ( 'NONE', ( #170, #607, #223, #374, #556, #640, #542 ) ) ;
#185 = LINE ( 'NONE', #357, #355 ) ;
#186 = ORIENTED_EDGE ( 'NONE', *, *, #531, .T. ) ;
#187 = AXIS2_PLACEMENT_3D ( 'NONE', #302, #146, #461 ) ;
#188 = CARTESIAN_POINT ( 'NONE',  ( 0.2849999999999999756, -0.3549429252107018651, 0.006365519842874488125 ) ) ;
#189 = DIRECTION ( 'NONE',  ( 0.5000000000000001110, 2.365849761790780835E-16, -0.8660254037844385966 ) ) ;
#190 = ORIENTED_EDGE ( 'NONE', *, *, #162, .T. ) ;
#191 = CARTESIAN_POINT ( 'NONE',  ( 0.2543968615928102195, -0.3499999999999998668, 0.05937171043518953140 ) ) ;
#192 = PRODUCT_DEFINITION_SHAPE ( 'NONE', 'NONE',  #372 ) ;
#193 = CARTESIAN_POINT ( 'NONE',  ( -0.1443375672974076263, -0.6249999999999998890, -0.2500000000000022760 ) ) ;
#194 = DIRECTION ( 'NONE',  ( 1.000000000000000000, 0.000000000000000000, 1.182924880895390910E-16 ) ) ;
#195 = CARTESIAN_POINT ( 'NONE',  ( 0.000000000000000000, 0.000000000000000000, 0.000000000000000000 ) ) ;
#196 = CARTESIAN_POINT ( 'NONE',  ( 0.2747370832993749068, -0.3546241336738277239, 0.02414141300220420602 ) ) ;
#197 = CARTESIAN_POINT ( 'NONE',  ( 1.024442997624098707E-16, -0.3499999999999997558, -0.5000000000000043299 ) ) ;
#198 = ADVANCED_FACE ( 'NONE', ( #435 ), #11, .T. ) ;
#199 = LENGTH_MEASURE_WITH_UNIT ( LENGTH_MEASURE( 0.02539999999999999897 ), #580 );
#200 = VECTOR ( 'NONE', #123, 39.37007874015748854 ) ;
#201 = DIRECTION ( 'NONE',  ( -1.000000000000000000, -0.000000000000000000, -0.000000000000000000 ) ) ;
#202 = VECTOR ( 'NONE', #652, 39.37007874015748854 ) ;
#203 = CARTESIAN_POINT ( 'NONE',  ( -0.2849999999999999756, -2.454825575702165575E-17, -0.006365519842874334602 ) ) ;
#204 = CC_DESIGN_PERSON_AND_ORGANIZATION_ASSIGNMENT ( #55, #481, ( #390 ) ) ;
#205 = CARTESIAN_POINT ( 'NONE',  ( 0.000000000000000000, -0.6249999999999998890, -0.1718750000000000000 ) ) ;
#206 = DIRECTION ( 'NONE',  ( -0.000000000000000000, 0.000000000000000000, 1.000000000000000000 ) ) ;
#207 = DIRECTION ( 'NONE',  ( -1.000000000000000000, -0.000000000000000000, -0.000000000000000000 ) ) ;
#208 = CARTESIAN_POINT ( 'NONE',  ( -0.1612948096654072960, -0.3499999999999998668, 0.05937171043518953140 ) ) ;
#209 = EDGE_CURVE ( 'NONE', #171, #80, #637, .T. ) ;
#210 = LINE ( 'NONE', #578, #602 ) ;
#211 = AXIS2_PLACEMENT_3D ( 'NONE', #524, #418, #313 ) ;
#212 = PERSON_AND_ORGANIZATION ( #424, #319 ) ;
#213 = CARTESIAN_POINT ( 'NONE',  ( 0.2849999999999999756, -2.454825575702163110E-17, -0.006365519842874470778 ) ) ;
#214 = PLANE ( 'NONE',  #21 ) ;
#215 = EDGE_CURVE ( 'NONE', #644, #79, #15, .T. ) ;
#216 = EDGE_LOOP ( 'NONE', ( #649 ) ) ;
#217 = FACE_BOUND ( 'NONE', #283, .T. ) ;
#218 = CALENDAR_DATE ( 2022, 8, 11 ) ;
#219 = ORIENTED_EDGE ( 'NONE', *, *, #234, .T. ) ;
#220 = FACE_OUTER_BOUND ( 'NONE', #395, .T. ) ;
#221 = CARTESIAN_POINT ( 'NONE',  ( -0.1443375672974076818, -0.6250000000000000000, 0.2500000000000020539 ) ) ;
#222 = CALENDAR_DATE ( 2022, 8, 11 ) ;
#223 = ORIENTED_EDGE ( 'NONE', *, *, #209, .T. ) ;
#224 = ORIENTED_EDGE ( 'NONE', *, *, #129, .F. ) ;
#225 = VECTOR ( 'NONE', #518, 39.37007874015748854 ) ;
#226 = CARTESIAN_POINT ( 'NONE',  ( -0.4249999999999999889, -0.3499999999999998668, 0.05937171043518953140 ) ) ;
#227 = FACE_OUTER_BOUND ( 'NONE', #87, .T. ) ;
#228 = APPROVAL ( #532, '未指定' ) ;
#229 = ADVANCED_FACE ( 'NONE', ( #61 ), #214, .F. ) ;
#230 = EDGE_CURVE ( 'NONE', #277, #659, #548, .T. ) ;
#231 = DIRECTION ( 'NONE',  ( 0.000000000000000000, 0.000000000000000000, 1.000000000000000000 ) ) ;
#232 = CARTESIAN_POINT ( 'NONE',  ( -0.2886751345948154190, -0.6249999999999998890, -8.161203904122088289E-17 ) ) ;
#233 = PRODUCT ( '00155_index_1', '00155_index_1', '', ( #545 ) ) ;
#234 = EDGE_CURVE ( 'NONE', #595, #430, #7, .T. ) ;
#235 = ORIENTED_EDGE ( 'NONE', *, *, #252, .F. ) ;
#236 = CIRCLE ( 'NONE', #248, 0.1400000000000000133 ) ;
#237 = LOCAL_TIME ( 0, 7, 22.00000000000000000, #589 ) ;
#238 = ORIENTED_EDGE ( 'NONE', *, *, #108, .T. ) ;
#239 = ORIENTED_EDGE ( 'NONE', *, *, #128, .F. ) ;
#240 = ADVANCED_FACE ( 'NONE', ( #217, #429 ), #375, .F. ) ;
#241 = ORIENTED_EDGE ( 'NONE', *, *, #38, .T. ) ;
#242 = FACE_OUTER_BOUND ( 'NONE', #119, .T. ) ;
#243 = ORIENTED_EDGE ( 'NONE', *, *, #271, .T. ) ;
#244 = ORIENTED_EDGE ( 'NONE', *, *, #538, .T. ) ;
#245 = PLANE ( 'NONE',  #115 ) ;
#246 = ORIENTED_EDGE ( 'NONE', *, *, #320, .F. ) ;
#247 = FACE_OUTER_BOUND ( 'NONE', #453, .T. ) ;
#248 = AXIS2_PLACEMENT_3D ( 'NONE', #496, #24, #231 ) ;
#249 = AXIS2_PLACEMENT_3D ( 'NONE', #251, #293, #675 ) ;
#250 = DIRECTION ( 'NONE',  ( 0.000000000000000000, 0.000000000000000000, 1.000000000000000000 ) ) ;
#251 = CARTESIAN_POINT ( 'NONE',  ( 1.024442997624098707E-16, -0.3499999999999997558, -0.5000000000000043299 ) ) ;
#252 = EDGE_CURVE ( 'NONE', #551, #118, #555, .T. ) ;
#253 = DIRECTION ( 'NONE',  ( 0.000000000000000000, 0.000000000000000000, -1.000000000000000000 ) ) ;
#254 = FACE_OUTER_BOUND ( 'NONE', #181, .T. ) ;
#255 = EDGE_CURVE ( 'NONE', #79, #551, #68, .T. ) ;
#256 = CC_DESIGN_DATE_AND_TIME_ASSIGNMENT ( #584, #117, ( #372 ) ) ;
#257 = PLANE ( 'NONE',  #249 ) ;
#258 = DIRECTION ( 'NONE',  ( 0.000000000000000000, -2.731847993664239553E-16, 1.000000000000000000 ) ) ;
#259 = FACE_OUTER_BOUND ( 'NONE', #573, .T. ) ;
#260 = AXIS2_PLACEMENT_3D ( 'NONE', #513, #40, #250 ) ;
#261 = VECTOR ( 'NONE', #680, 39.37007874015748143 ) ;
#262 = PRODUCT_DEFINITION_FORMATION_WITH_SPECIFIED_SOURCE ( '任何', '', #233, .NOT_KNOWN. ) ;
#263 = LINE ( 'NONE', #143, #434 ) ;
#264 = LINE ( 'NONE', #472, #261 ) ;
#265 = CALENDAR_DATE ( 2022, 8, 11 ) ;
#266 = DIRECTION ( 'NONE',  ( -0.5000000000000000000, -2.365849761790781328E-16, 0.8660254037844385966 ) ) ;
#267 = SECURITY_CLASSIFICATION_LEVEL ( 'unclassified' ) ;
#268 = CARTESIAN_POINT ( 'NONE',  ( -0.2849999999999999756, -2.688690980716716983E-17, 0.006365519842874351082 ) ) ;
#269 = CIRCLE ( 'NONE', #537, 0.1399999999999999856 ) ;
#270 = DATE_AND_TIME ( #489, #237 ) ;
#271 = EDGE_CURVE ( 'NONE', #568, #277, #586, .T. ) ;
#272 = CARTESIAN_POINT ( 'NONE',  ( -0.1674372569421399004, -0.3528693904185554731, 0.04009124471877996421 ) ) ;
#273 = ORIENTED_EDGE ( 'NONE', *, *, #215, .T. ) ;
#274 = CARTESIAN_POINT ( 'NONE',  ( 0.1709847869283667166, -0.3545663591417063110, 0.02022317929731191552 ) ) ;
#275 = DIRECTION ( 'NONE',  ( 5.693113199781538547E-32, 1.000000000000000000, 2.731847993664239553E-16 ) ) ;
#276 = DATE_TIME_ROLE ( 'classification_date' ) ;
#277 = VERTEX_POINT ( 'NONE', #322 ) ;
#278 = CARTESIAN_POINT ( 'NONE',  ( 0.1673817564274473757, -0.3528429375223841036, -0.04035509230208196574 ) ) ;
#279 = LINE ( 'NONE', #544, #113 ) ;
#280 = AXIS2_PLACEMENT_3D ( 'NONE', #408, #661, #612 ) ;
#281 = CARTESIAN_POINT ( 'NONE',  ( 0.1647528855061734521, -0.3515936276701283059, 0.04997717420814602046 ) ) ;
#282 = CARTESIAN_POINT ( 'NONE',  ( -0.1709748472029703203, -0.3545616590356800435, 0.02025202556116812921 ) ) ;
#283 = EDGE_LOOP ( 'NONE', ( #485 ) ) ;
#284 = DIRECTION ( 'NONE',  ( -0.5000000000000000000, -2.365849761790781328E-16, 0.8660254037844385966 ) ) ;
#285 = ORIENTED_EDGE ( 'NONE', *, *, #579, .T. ) ;
#286 = ORIENTED_EDGE ( 'NONE', *, *, #38, .F. ) ;
#287 = ORIENTED_EDGE ( 'NONE', *, *, #48, .T. ) ;
#288 = CIRCLE ( 'NONE', #92, 0.1718749999999998890 ) ;
#289 = ORIENTED_EDGE ( 'NONE', *, *, #502, .F. ) ;
#290 = ORIENTED_EDGE ( 'NONE', *, *, #183, .T. ) ;
#291 = DIRECTION ( 'NONE',  ( -0.000000000000000000, 1.000000000000000000, 1.836970198721029688E-16 ) ) ;
#292 = UNCERTAINTY_MEASURE_WITH_UNIT (LENGTH_MEASURE( 1.000000000000000082E-05 ), #98, 'distance_accuracy_value', 'NONE');
#293 = DIRECTION ( 'NONE',  ( 5.693113199781538547E-32, 1.000000000000000000, 2.731847993664239553E-16 ) ) ;
#294 = ORIENTED_EDGE ( 'NONE', *, *, #255, .T. ) ;
#295 = DIRECTION ( 'NONE',  ( 0.000000000000000000, 0.000000000000000000, 1.000000000000000000 ) ) ;
#296 = CARTESIAN_POINT ( 'NONE',  ( -0.2849999999999999756, -0.3499999999999998668, -0.006365519842874417002 ) ) ;
#297 = PRODUCT_RELATED_PRODUCT_CATEGORY ( 'detail', '', ( #233 ) ) ;
#298 = EDGE_CURVE ( 'NONE', #85, #403, #328, .T. ) ;
#299 = AXIS2_PLACEMENT_3D ( 'NONE', #154, #57, #56 ) ;
#300 = LOCAL_TIME ( 0, 7, 22.00000000000000000, #109 ) ;
#301 = LINE ( 'NONE', #193, #59 ) ;
#302 = CARTESIAN_POINT ( 'NONE',  ( 0.000000000000000000, -0.3499999999999998668, -6.429180324168104630E-17 ) ) ;
#303 = CARTESIAN_POINT ( 'NONE',  ( 0.2849999999999999756, 0.000000000000000000, 0.000000000000000000 ) ) ;
#304 = DIRECTION ( 'NONE',  ( -1.000000000000000000, -0.000000000000000000, -0.000000000000000000 ) ) ;
#305 = CARTESIAN_POINT ( 'NONE',  ( 0.1443375672974077650, -0.3499999999999998113, -0.2500000000000022204 ) ) ;
#306 = PLANE ( 'NONE',  #51 ) ;
#307 = CARTESIAN_POINT ( 'NONE',  ( 0.2849999999999999756, -0.3499999999999998668, 0.006365519842874383175 ) ) ;
#308 = EDGE_CURVE ( 'NONE', #449, #111, #172, .T. ) ;
#309 = VERTEX_POINT ( 'NONE', #618 ) ;
#310 = DIRECTION ( 'NONE',  ( -0.000000000000000000, 1.000000000000000000, 1.836970198721029688E-16 ) ) ;
#311 = VECTOR ( 'NONE', #426, 39.37007874015748143 ) ;
#312 = VECTOR ( 'NONE', #284, 39.37007874015748854 ) ;
#313 = DIRECTION ( 'NONE',  ( 0.000000000000000000, 0.000000000000000000, 1.000000000000000000 ) ) ;
#314 = APPLICATION_CONTEXT ( 'configuration controlled 3d designs of mechanical parts and assemblies' ) ;
#315 = PERSON_AND_ORGANIZATION ( #424, #319 ) ;
#316 = FACE_OUTER_BOUND ( 'NONE', #130, .T. ) ;
#317 = EDGE_CURVE ( 'NONE', #508, #451, #617, .T. ) ;
#318 = CARTESIAN_POINT ( 'NONE',  ( -0.2849999999999999756, -0.3549429252107018651, -0.006365519842874399654 ) ) ;
#319 = ORGANIZATION ( '未指定', '未指定', '' ) ;
#320 = EDGE_CURVE ( 'NONE', #644, #403, #120, .T. ) ;
#321 = ORIENTED_EDGE ( 'NONE', *, *, #308, .F. ) ;
#322 = CARTESIAN_POINT ( 'NONE',  ( 0.1612948096654072960, -0.3499999999999998668, 0.05937171043518953140 ) ) ;
#323 = CC_DESIGN_PERSON_AND_ORGANIZATION_ASSIGNMENT ( #315, #65, ( #262 ) ) ;
#324 = DIRECTION ( 'NONE',  ( 0.4999999999999998890, -2.365849761790781821E-16, 0.8660254037844385966 ) ) ;
#325 = APPROVAL_STATUS ( 'not_yet_approved' ) ;
#326 = EDGE_LOOP ( 'NONE', ( #13 ) ) ;
#327 = ORIENTED_EDGE ( 'NONE', *, *, #176, .T. ) ;
#328 = LINE ( 'NONE', #549, #515 ) ;
#329 = DIRECTION ( 'NONE',  ( 0.8660254037844385966, -9.184850993605150903E-17, 0.5000000000000002220 ) ) ;
#330 = ADVANCED_FACE ( 'NONE', ( #220 ), #127, .F. ) ;
#331 = CARTESIAN_POINT ( 'NONE',  ( 0.1612948096654072683, -0.3499999999999998668, -0.05937171043518971875 ) ) ;
#332 = CARTESIAN_POINT ( 'NONE',  ( 0.2849999999999999756, -2.688690980716718524E-17, 0.006365519842874436951 ) ) ;
#333 = ORIENTED_EDGE ( 'NONE', *, *, #392, .T. ) ;
#334 = VECTOR ( 'NONE', #258, 39.37007874015748143 ) ;
#335 = CARTESIAN_POINT ( 'NONE',  ( -0.2849999999999999756, -0.3549429252107018651, 0.006365519842874286030 ) ) ;
#336 = CARTESIAN_POINT ( 'NONE',  ( 0.1718776964392199624, -0.3550013054943045865, 0.01005019651633176983 ) ) ;
#337 = EDGE_CURVE ( 'NONE', #30, #511, #385, .T. ) ;
#338 = EDGE_LOOP ( 'NONE', ( #10, #379, #486 ) ) ;
#339 = ORIENTED_EDGE ( 'NONE', *, *, #66, .T. ) ;
#340 = ORIENTED_EDGE ( 'NONE', *, *, #81, .T. ) ;
#341 = ORIENTED_EDGE ( 'NONE', *, *, #572, .T. ) ;
#342 = AXIS2_PLACEMENT_3D ( 'NONE', #566, #412, #253 ) ;
#343 = CIRCLE ( 'NONE', #211, 0.1399999999999999856 ) ;
#344 = LOCAL_TIME ( 0, 7, 22.00000000000000000, #436 ) ;
#345 = ORIENTED_EDGE ( 'NONE', *, *, #553, .F. ) ;
#346 = FACE_OUTER_BOUND ( 'NONE', #91, .T. ) ;
#347 = VERTEX_POINT ( 'NONE', #495 ) ;
#348 = LINE ( 'NONE', #141, #354 ) ;
#349 = CARTESIAN_POINT ( 'NONE',  ( 0.4249999999999999889, 0.000000000000000000, 0.000000000000000000 ) ) ;
#350 = EDGE_CURVE ( 'NONE', #80, #517, #598, .T. ) ;
#351 = CARTESIAN_POINT ( 'NONE',  ( 0.1443375672974077095, -0.3499999999999999778, 0.2500000000000021094 ) ) ;
#352 = CARTESIAN_POINT ( 'NONE',  ( -0.2543968615928101085, -0.3499999999999998668, -0.05937171043518971875 ) ) ;
#353 = LINE ( 'NONE', #102, #334 ) ;
#354 = VECTOR ( 'NONE', #43, 39.37007874015748143 ) ;
#355 = VECTOR ( 'NONE', #189, 39.37007874015748854 ) ;
#356 = CARTESIAN_POINT ( 'NONE',  ( 0.2543968615928102195, -0.3499999999999998668, 0.05937171043518953140 ) ) ;
#357 = CARTESIAN_POINT ( 'NONE',  ( -0.2886751345948154190, -0.3499999999999998668, -3.109535857639257018E-17 ) ) ;
#358 = CYLINDRICAL_SURFACE ( 'NONE', #635, 0.1400000000000000133 ) ;
#359 = DIRECTION ( 'NONE',  ( -1.000000000000000000, 0.000000000000000000, -0.000000000000000000 ) ) ;
#360 = ADVANCED_FACE ( 'NONE', ( #23 ), #70, .T. ) ;
#361 = CARTESIAN_POINT ( 'NONE',  ( 0.1443375672974077095, -0.6250000000000000000, 0.2500000000000020539 ) ) ;
#362 = VERTEX_POINT ( 'NONE', #45 ) ;
#363 = CARTESIAN_POINT ( 'NONE',  ( 0.2886751345948154190, -0.3499999999999998668, -6.737771474224606143E-17 ) ) ;
#364 = AXIS2_PLACEMENT_3D ( 'NONE', #197, #396, #402 ) ;
#365 = CARTESIAN_POINT ( 'NONE',  ( -0.2849999999999999201, -0.3499999999999998668, 0.006365519842874470778 ) ) ;
#366 = DATE_AND_TIME ( #222, #411 ) ;
#367 = ADVANCED_FACE ( 'NONE', ( #227, #645 ), #387, .F. ) ;
#368 = CARTESIAN_POINT ( 'NONE',  ( -0.4249999999999999889, 0.000000000000000000, 0.000000000000000000 ) ) ;
#369 = EDGE_CURVE ( 'NONE', #557, #85, #185, .T. ) ;
#370 = CARTESIAN_POINT ( 'NONE',  ( 0.1443375672974077650, -0.3499999999999998113, -0.2500000000000022204 ) ) ;
#371 = PERSON_AND_ORGANIZATION ( #424, #319 ) ;
#372 = PRODUCT_DEFINITION ( '未知', '', #262, #668 ) ;
#373 = ORIENTED_EDGE ( 'NONE', *, *, #484, .T. ) ;
#374 = ORIENTED_EDGE ( 'NONE', *, *, #606, .F. ) ;
#375 = PLANE ( 'NONE',  #178 ) ;
#376 = VECTOR ( 'NONE', #77, 39.37007874015748143 ) ;
#377 = APPROVAL_STATUS ( 'not_yet_approved' ) ;
#378 = ORIENTED_EDGE ( 'NONE', *, *, #484, .F. ) ;
#379 = ORIENTED_EDGE ( 'NONE', *, *, #350, .F. ) ;
#380 = CARTESIAN_POINT ( 'NONE',  ( -0.2747370832993747403, -0.3546241336738277794, 0.02414141300220433439 ) ) ;
#381 = CARTESIAN_POINT ( 'NONE',  ( -0.1709639170775021089, -0.3545563602451684559, -0.02034776464754265921 ) ) ;
#382 = SHAPE_DEFINITION_REPRESENTATION ( #192, #26 ) ;
#383 = ORIENTED_EDGE ( 'NONE', *, *, #369, .F. ) ;
#384 = CARTESIAN_POINT ( 'NONE',  ( -0.2645168572036156740, -0.3529733940485110244, 0.04184336386490032644 ) ) ;
#385 =( BOUNDED_CURVE ( )  B_SPLINE_CURVE ( 3, ( #166, #384, #380, #335 ),
 .UNSPECIFIED., .F., .T. ) 
 B_SPLINE_CURVE_WITH_KNOTS ( ( 4, 4 ),
 ( 4.544355090899724559, 4.694456977563209676 ),
 .UNSPECIFIED. ) 
 CURVE ( )  GEOMETRIC_REPRESENTATION_ITEM ( )  RATIONAL_B_SPLINE_CURVE ( ( 1.000000000000000000, 0.9981233330995401554, 0.9981233330995401554, 1.000000000000000000 ) ) 
 REPRESENTATION_ITEM ( '' )  );
#386 = CARTESIAN_POINT ( 'NONE',  ( 0.1443375672974077650, -0.3499999999999998113, -0.2500000000000022204 ) ) ;
#387 = CYLINDRICAL_SURFACE ( 'NONE', #72, 0.1718749999999998890 ) ;
#388 = AXIS2_PLACEMENT_3D ( 'NONE', #151, #95, #147 ) ;
#389 = DIRECTION ( 'NONE',  ( 0.000000000000000000, 0.000000000000000000, -1.000000000000000000 ) ) ;
#390 = SECURITY_CLASSIFICATION ( '', '', #267 ) ;
#391 = ORIENTED_EDGE ( 'NONE', *, *, #606, .T. ) ;
#392 = EDGE_CURVE ( 'NONE', #430, #437, #574, .T. ) ;
#393 = ORIENTED_EDGE ( 'NONE', *, *, #183, .F. ) ;
#394 = ORIENTED_EDGE ( 'NONE', *, *, #162, .F. ) ;
#395 = EDGE_LOOP ( 'NONE', ( #605 ) ) ;
#396 = DIRECTION ( 'NONE',  ( 5.693113199781538547E-32, 1.000000000000000000, 2.731847993664239553E-16 ) ) ;
#397 = ORIENTED_EDGE ( 'NONE', *, *, #538, .F. ) ;
#398 = AXIS2_PLACEMENT_3D ( 'NONE', #25, #174, #653 ) ;
#399 = LINE ( 'NONE', #614, #433 ) ;
#400 = ADVANCED_FACE ( 'NONE', ( #44 ), #93, .F. ) ;
#401 = MANIFOLD_SOLID_BREP ( 'Boss-Extrude3', #570 ) ;
#402 = DIRECTION ( 'NONE',  ( 0.000000000000000000, -2.731847993664239553E-16, 1.000000000000000000 ) ) ;
#403 = VERTEX_POINT ( 'NONE', #305 ) ;
#404 = CARTESIAN_POINT ( 'NONE',  ( -0.2849999999999999756, 0.000000000000000000, 0.1399999999999999856 ) ) ;
#405 = DIRECTION ( 'NONE',  ( 0.000000000000000000, 0.000000000000000000, 1.000000000000000000 ) ) ;
#406 = FACE_OUTER_BOUND ( 'NONE', #326, .T. ) ;
#407 = ORIENTED_EDGE ( 'NONE', *, *, #553, .T. ) ;
#408 = CARTESIAN_POINT ( 'NONE',  ( 0.1443375672974077095, -0.6250000000000000000, 0.2500000000000020539 ) ) ;
#409 = DIRECTION ( 'NONE',  ( 0.000000000000000000, 0.000000000000000000, 1.000000000000000000 ) ) ;
#410 = ADVANCED_FACE ( 'NONE', ( #564 ), #257, .T. ) ;
#411 = LOCAL_TIME ( 0, 7, 22.00000000000000000, #1 ) ;
#412 = DIRECTION ( 'NONE',  ( 0.000000000000000000, -1.000000000000000000, -1.836970198721029688E-16 ) ) ;
#413 = CARTESIAN_POINT ( 'NONE',  ( -0.4249999999999999889, 0.000000000000000000, 0.000000000000000000 ) ) ;
#414 = CARTESIAN_POINT ( 'NONE',  ( -0.1443375672974076818, -0.3499999999999999778, 0.2500000000000021094 ) ) ;
#415 = DIRECTION ( 'NONE',  ( 0.000000000000000000, 0.000000000000000000, 1.000000000000000000 ) ) ;
#416 = PLANE ( 'NONE',  #156 ) ;
#417 = DATE_AND_TIME ( #16, #300 ) ;
#418 = DIRECTION ( 'NONE',  ( -1.000000000000000000, -0.000000000000000000, -0.000000000000000000 ) ) ;
#419 =( GEOMETRIC_REPRESENTATION_CONTEXT ( 3 ) GLOBAL_UNCERTAINTY_ASSIGNED_CONTEXT ( ( #292 ) ) GLOBAL_UNIT_ASSIGNED_CONTEXT ( ( #98, #468, #525 ) ) REPRESENTATION_CONTEXT ( 'NONE', 'WORKASPACE' ) );
#420 = CC_DESIGN_APPROVAL ( #60, ( #262 ) ) ;
#421 = EDGE_CURVE ( 'NONE', #133, #557, #3, .T. ) ;
#422 = PERSON_AND_ORGANIZATION ( #424, #319 ) ;
#423 = DIRECTION ( 'NONE',  ( -0.8660254037844387076, 9.184850993605148438E-17, -0.4999999999999999445 ) ) ;
#424 = PERSON ( '未指定', '未指定', '未指定', ('未指定'), ('未指定'), ('未指定') ) ;
#425 = EDGE_CURVE ( 'NONE', #437, #133, #90, .T. ) ;
#426 = DIRECTION ( 'NONE',  ( 0.000000000000000000, -1.000000000000000000, -1.836970198721029688E-16 ) ) ;
#427 = ORIENTED_EDGE ( 'NONE', *, *, #20, .T. ) ;
#428 = ORIENTED_EDGE ( 'NONE', *, *, #392, .F. ) ;
#429 = FACE_OUTER_BOUND ( 'NONE', #503, .T. ) ;
#430 = VERTEX_POINT ( 'NONE', #510 ) ;
#431 = DIRECTION ( 'NONE',  ( -0.5000000000000000000, -2.365849761790781328E-16, 0.8660254037844385966 ) ) ;
#432 = EDGE_CURVE ( 'NONE', #277, #561, #493, .T. ) ;
#433 = VECTOR ( 'NONE', #304, 39.37007874015748143 ) ;
#434 = VECTOR ( 'NONE', #462, 39.37007874015748143 ) ;
#435 = FACE_OUTER_BOUND ( 'NONE', #17, .T. ) ;
#436 = COORDINATED_UNIVERSAL_TIME_OFFSET ( 8, 0, .AHEAD. ) ;
#437 = VERTEX_POINT ( 'NONE', #296 ) ;
#438 = CARTESIAN_POINT ( 'NONE',  ( 0.1647328245504371680, -0.3515843827328790638, -0.05003167369979773932 ) ) ;
#439 = B_SPLINE_CURVE_WITH_KNOTS ( 'NONE', 3,
 ( #488, #64, #272, #282, #599, #73, #381, #173, #22, #480 ),
 .UNSPECIFIED., .F., .F.,
 ( 4, 2, 2, 2, 4 ),
 ( 0.005397123792469710711, 0.006166228289914197844, 0.006935332787358685844, 0.007704437284803172976, 0.008473541782247660109 ),
 .UNSPECIFIED. ) ;
#440 = DIRECTION ( 'NONE',  ( 1.000000000000000000, 0.000000000000000000, 0.000000000000000000 ) ) ;
#441 = CARTESIAN_POINT ( 'NONE',  ( 0.000000000000000000, -0.6249999999999998890, -1.148084837065093713E-16 ) ) ;
#442 = DIRECTION ( 'NONE',  ( -0.000000000000000000, 1.000000000000000000, 1.836970198721029688E-16 ) ) ;
#443 = CARTESIAN_POINT ( 'NONE',  ( 0.2886751345948154190, -0.3499999999999998668, -6.737771474224606143E-17 ) ) ;
#444 = ADVANCED_FACE ( 'NONE', ( #35, #254 ), #245, .F. ) ;
#445 = CIRCLE ( 'NONE', #260, 0.1400000000000000133 ) ;
#446 = ORIENTED_EDGE ( 'NONE', *, *, #657, .F. ) ;
#447 = VECTOR ( 'NONE', #152, 39.37007874015748143 ) ;
#448 = APPROVAL ( #377, '未指定' ) ;
#449 = VERTEX_POINT ( 'NONE', #670 ) ;
#450 = ORIENTED_EDGE ( 'NONE', *, *, #48, .F. ) ;
#451 = VERTEX_POINT ( 'NONE', #41 ) ;
#452 = CARTESIAN_POINT ( 'NONE',  ( -0.1443375672974076263, -0.6249999999999998890, -0.2500000000000022760 ) ) ;
#453 = EDGE_LOOP ( 'NONE', ( #238 ) ) ;
#454 = EDGE_CURVE ( 'NONE', #111, #644, #665, .T. ) ;
#455 = CARTESIAN_POINT ( 'NONE',  ( -0.2849999999999999756, 0.000000000000000000, 0.000000000000000000 ) ) ;
#456 = CARTESIAN_POINT ( 'NONE',  ( 0.2849999999999999756, 0.000000000000000000, -0.1399999999999999856 ) ) ;
#457 = ORIENTED_EDGE ( 'NONE', *, *, #308, .T. ) ;
#458 = DIRECTION ( 'NONE',  ( 0.000000000000000000, 0.000000000000000000, 1.000000000000000000 ) ) ;
#459 = VECTOR ( 'NONE', #53, 39.37007874015748854 ) ;
#460 = DIRECTION ( 'NONE',  ( -1.000000000000000000, -0.000000000000000000, -0.000000000000000000 ) ) ;
#461 = DIRECTION ( 'NONE',  ( 0.000000000000000000, 0.000000000000000000, -1.000000000000000000 ) ) ;
#462 = DIRECTION ( 'NONE',  ( -0.000000000000000000, 1.000000000000000000, 1.836970198721029688E-16 ) ) ;
#463 = CARTESIAN_POINT ( 'NONE',  ( 0.2645168572036158405, -0.3529733940485109689, 0.04184336386490019460 ) ) ;
#464 = CARTESIAN_POINT ( 'NONE',  ( -0.1443375672974076263, -0.6249999999999998890, -0.2500000000000022760 ) ) ;
#465 = ADVANCED_FACE ( 'NONE', ( #242 ), #673, .T. ) ;
#466 = CYLINDRICAL_SURFACE ( 'NONE', #609, 0.3549999999999999267 ) ;
#467 = DIRECTION ( 'NONE',  ( 0.000000000000000000, -1.000000000000000000, -1.836970198721029441E-16 ) ) ;
#468 =( NAMED_UNIT ( * ) PLANE_ANGLE_UNIT ( ) SI_UNIT ( $, .RADIAN. ) );
#469 = CARTESIAN_POINT ( 'NONE',  ( 0.000000000000000000, -0.6249999999999998890, -1.148084837065093713E-16 ) ) ;
#470 = VECTOR ( 'NONE', #679, 39.37007874015748143 ) ;
#471 = PLANE ( 'NONE',  #388 ) ;
#472 = CARTESIAN_POINT ( 'NONE',  ( -0.4249999999999999889, -0.3499999999999998668, 0.05937171043518953140 ) ) ;
#473 = PERSON_AND_ORGANIZATION_ROLE ( 'design_supplier' ) ;
#474 = LINE ( 'NONE', #363, #664 ) ;
#475 = ADVANCED_FACE ( 'NONE', ( #136 ), #615, .F. ) ;
#476 = ADVANCED_FACE ( 'NONE', ( #346 ), #139, .F. ) ;
#477 = PERSON_AND_ORGANIZATION ( #424, #319 ) ;
#478 = DIRECTION ( 'NONE',  ( 0.000000000000000000, 0.000000000000000000, -1.000000000000000000 ) ) ;
#479 = VECTOR ( 'NONE', #588, 39.37007874015748854 ) ;
#480 = CARTESIAN_POINT ( 'NONE',  ( -0.1612948096654072683, -0.3499999999999998668, -0.05937171043518971875 ) ) ;
#481 = PERSON_AND_ORGANIZATION_ROLE ( 'classification_officer' ) ;
#482 = ORIENTED_EDGE ( 'NONE', *, *, #432, .F. ) ;
#483 = CARTESIAN_POINT ( 'NONE',  ( -0.1443375672974076818, -0.3499999999999999778, 0.2500000000000021094 ) ) ;
#484 = EDGE_CURVE ( 'NONE', #118, #546, #210, .T. ) ;
#485 = ORIENTED_EDGE ( 'NONE', *, *, #531, .F. ) ;
#486 = ORIENTED_EDGE ( 'NONE', *, *, #209, .F. ) ;
#487 = CARTESIAN_POINT ( 'NONE',  ( 0.1612948096654072960, -0.3499999999999998668, 0.05937171043518953140 ) ) ;
#488 = CARTESIAN_POINT ( 'NONE',  ( -0.1612948096654072960, -0.3499999999999998668, 0.05937171043518953140 ) ) ;
#489 = CALENDAR_DATE ( 2022, 8, 11 ) ;
#490 = ORIENTED_EDGE ( 'NONE', *, *, #678, .F. ) ;
#491 = ORIENTED_EDGE ( 'NONE', *, *, #337, .T. ) ;
#492 = CARTESIAN_POINT ( 'NONE',  ( 0.1443375672974077650, -0.6249999999999998890, -0.2500000000000022760 ) ) ;
#493 = CIRCLE ( 'NONE', #187, 0.1718749999999998890 ) ;
#494 = CARTESIAN_POINT ( 'NONE',  ( -0.2886751345948154190, -0.6249999999999998890, -8.161203904122088289E-17 ) ) ;
#495 = CARTESIAN_POINT ( 'NONE',  ( -0.1612948096654072683, -0.3499999999999998668, -0.05937171043518971875 ) ) ;
#496 = CARTESIAN_POINT ( 'NONE',  ( -0.4249999999999999889, 0.000000000000000000, 0.000000000000000000 ) ) ;
#497 = ORIENTED_EDGE ( 'NONE', *, *, #421, .T. ) ;
#498 = DIRECTION ( 'NONE',  ( 5.693113199781538547E-32, 1.000000000000000000, 2.731847993664239553E-16 ) ) ;
#499 = ADVANCED_FACE ( 'NONE', ( #576, #259 ), #99, .T. ) ;
#500 = CC_DESIGN_DATE_AND_TIME_ASSIGNMENT ( #638, #276, ( #390 ) ) ;
#501 = ORIENTED_EDGE ( 'NONE', *, *, #425, .T. ) ;
#502 = EDGE_CURVE ( 'NONE', #546, #30, #626, .T. ) ;
#503 = EDGE_LOOP ( 'NONE', ( #345, #76, #616, #610 ) ) ;
#504 = AXIS2_PLACEMENT_3D ( 'NONE', #121, #275, #116 ) ;
#505 = ORIENTED_EDGE ( 'NONE', *, *, #6, .T. ) ;
#506 = CIRCLE ( 'NONE', #299, 0.3549999999999999267 ) ;
#507 = ORIENTED_EDGE ( 'NONE', *, *, #579, .F. ) ;
#508 = VERTEX_POINT ( 'NONE', #148 ) ;
#509 = DIRECTION ( 'NONE',  ( -0.000000000000000000, 1.000000000000000000, 1.836970198721029688E-16 ) ) ;
#510 = CARTESIAN_POINT ( 'NONE',  ( -0.2886751345948154190, -0.3499999999999998668, -3.109535857639257018E-17 ) ) ;
#511 = VERTEX_POINT ( 'NONE', #581 ) ;
#512 = LINE ( 'NONE', #629, #470 ) ;
#513 = CARTESIAN_POINT ( 'NONE',  ( 0.4249999999999999889, 0.000000000000000000, 0.000000000000000000 ) ) ;
#514 = DIRECTION ( 'NONE',  ( -0.000000000000000000, 0.000000000000000000, 1.000000000000000000 ) ) ;
#515 = VECTOR ( 'NONE', #177, 39.37007874015748143 ) ;
#516 = CC_DESIGN_SECURITY_CLASSIFICATION ( #390, ( #262 ) ) ;
#517 = VERTEX_POINT ( 'NONE', #307 ) ;
#518 = DIRECTION ( 'NONE',  ( 0.5000000000000001110, 2.365849761790780835E-16, -0.8660254037844385966 ) ) ;
#519 = CARTESIAN_POINT ( 'NONE',  ( 0.4249999999999999889, 0.000000000000000000, 0.1400000000000000133 ) ) ;
#520 = EDGE_CURVE ( 'NONE', #451, #171, #100, .T. ) ;
#521 = FACE_OUTER_BOUND ( 'NONE', #165, .T. ) ;
#522 = CARTESIAN_POINT ( 'NONE',  ( -0.2645168572036156740, -0.3529733940485109689, -0.04184336386490034726 ) ) ;
#523 = VERTEX_POINT ( 'NONE', #404 ) ;
#524 = CARTESIAN_POINT ( 'NONE',  ( -0.2849999999999999756, 0.000000000000000000, 0.000000000000000000 ) ) ;
#525 =( NAMED_UNIT ( * ) SI_UNIT ( $, .STERADIAN. ) SOLID_ANGLE_UNIT ( ) );
#526 = CARTESIAN_POINT ( 'NONE',  ( -0.2543968615928101085, -0.3499999999999998668, -0.05937171043518971875 ) ) ;
#527 = AXIS2_PLACEMENT_3D ( 'NONE', #455, #460, #295 ) ;
#528 = VECTOR ( 'NONE', #651, 39.37007874015748143 ) ;
#529 = APPROVAL_ROLE ( '' ) ;
#530 = DIRECTION ( 'NONE',  ( -0.8660254037844387076, -9.184850993605148438E-17, 0.4999999999999999445 ) ) ;
#531 = EDGE_CURVE ( 'NONE', #523, #523, #343, .T. ) ;
#532 = APPROVAL_STATUS ( 'not_yet_approved' ) ;
#533 = CARTESIAN_POINT ( 'NONE',  ( 0.2886751345948154190, -0.6249999999999998890, -1.178943952070743865E-16 ) ) ;
#534 = DIMENSIONAL_EXPONENTS ( 1.000000000000000000, 0.000000000000000000, 0.000000000000000000, 0.000000000000000000, 0.000000000000000000, 0.000000000000000000, 0.000000000000000000 ) ;
#535 = PERSON_AND_ORGANIZATION ( #424, #319 ) ;
#536 = VECTOR ( 'NONE', #324, 39.37007874015748854 ) ;
#537 = AXIS2_PLACEMENT_3D ( 'NONE', #303, #42, #415 ) ;
#538 = EDGE_CURVE ( 'NONE', #621, #621, #288, .T. ) ;
#539 = APPROVAL_PERSON_ORGANIZATION ( #422, #60, #105 ) ;
#540 = CARTESIAN_POINT ( 'NONE',  ( 0.1443375672974077095, -0.6250000000000000000, 0.2500000000000020539 ) ) ;
#541 = PERSON_AND_ORGANIZATION_ROLE ( 'design_owner' ) ;
#542 = ORIENTED_EDGE ( 'NONE', *, *, #129, .T. ) ;
#543 = CARTESIAN_POINT ( 'NONE',  ( 0.2645168572036156740, -0.3529733940485109689, -0.04184336386490034032 ) ) ;
#544 = CARTESIAN_POINT ( 'NONE',  ( -0.1443375672974076818, -0.6250000000000000000, 0.2500000000000020539 ) ) ;
#545 = MECHANICAL_CONTEXT ( 'NONE', #104, 'mechanical' ) ;
#546 = VERTEX_POINT ( 'NONE', #414 ) ;
#547 = CARTESIAN_POINT ( 'NONE',  ( 0.2543968615928102195, -0.3499999999999998668, -0.05937171043518971181 ) ) ;
#548 = LINE ( 'NONE', #226, #646 ) ;
#549 = CARTESIAN_POINT ( 'NONE',  ( -0.1443375672974076263, -0.3499999999999998113, -0.2500000000000022760 ) ) ;
#550 = LINE ( 'NONE', #386, #536 ) ;
#551 = VERTEX_POINT ( 'NONE', #361 ) ;
#552 = DIRECTION ( 'NONE',  ( 0.5000000000000001110, 2.365849761790780835E-16, -0.8660254037844385966 ) ) ;
#553 = EDGE_CURVE ( 'NONE', #511, #595, #630, .T. ) ;
#554 = ORIENTED_EDGE ( 'NONE', *, *, #298, .F. ) ;
#555 = LINE ( 'NONE', #596, #376 ) ;
#556 = ORIENTED_EDGE ( 'NONE', *, *, #215, .F. ) ;
#557 = VERTEX_POINT ( 'NONE', #526 ) ;
#558 = ORIENTED_EDGE ( 'NONE', *, *, #176, .F. ) ;
#559 = EDGE_CURVE ( 'NONE', #30, #561, #264, .T. ) ;
#560 = AXIS2_PLACEMENT_3D ( 'NONE', #349, #359, #206 ) ;
#561 = VERTEX_POINT ( 'NONE', #208 ) ;
#562 = LOCAL_TIME ( 0, 7, 22.00000000000000000, #587 ) ;
#563 = ORIENTED_EDGE ( 'NONE', *, *, #298, .T. ) ;
#564 = FACE_OUTER_BOUND ( 'NONE', #338, .T. ) ;
#565 = ORIENTED_EDGE ( 'NONE', *, *, #454, .F. ) ;
#566 = CARTESIAN_POINT ( 'NONE',  ( 0.000000000000000000, -0.3499999999999998668, -6.429180324168104630E-17 ) ) ;
#567 = CARTESIAN_POINT ( 'NONE',  ( -0.2886751345948154190, -0.3499999999999998668, -3.109535857639257018E-17 ) ) ;
#568 = VERTEX_POINT ( 'NONE', #103 ) ;
#569 = DIRECTION ( 'NONE',  ( -1.000000000000000000, 0.000000000000000000, -0.000000000000000000 ) ) ;
#570 = CLOSED_SHELL ( 'NONE', ( #444, #88, #240, #476, #631, #499, #330, #577, #600, #367, #669, #229, #410, #360, #198, #465, #601, #475, #400 ) ) ;
#571 = DIRECTION ( 'NONE',  ( 1.000000000000000000, 0.000000000000000000, 0.000000000000000000 ) ) ;
#572 = EDGE_CURVE ( 'NONE', #659, #27, #474, .T. ) ;
#573 = EDGE_LOOP ( 'NONE', ( #186 ) ) ;
#574 = LINE ( 'NONE', #567, #225 ) ;
#575 = FACE_OUTER_BOUND ( 'NONE', #182, .T. ) ;
#576 = FACE_OUTER_BOUND ( 'NONE', #31, .T. ) ;
#577 = ADVANCED_FACE ( 'NONE', ( #5 ), #416, .F. ) ;
#578 = CARTESIAN_POINT ( 'NONE',  ( -0.1443375672974076818, -0.6250000000000000000, 0.2500000000000020539 ) ) ;
#579 = EDGE_CURVE ( 'NONE', #138, #451, #506, .T. ) ;
#580 =( LENGTH_UNIT ( ) NAMED_UNIT ( * ) SI_UNIT ( $, .METRE. ) );
#581 = CARTESIAN_POINT ( 'NONE',  ( -0.2849999999999999756, -0.3549429252107018651, 0.006365519842874286030 ) ) ;
#582 = VECTOR ( 'NONE', #194, 39.37007874015748143 ) ;
#583 = CC_DESIGN_APPROVAL ( #228, ( #390 ) ) ;
#584 = DATE_AND_TIME ( #218, #562 ) ;
#585 = PLANE ( 'NONE',  #677 ) ;
#586 = B_SPLINE_CURVE_WITH_KNOTS ( 'NONE', 3,
 ( #331, #438, #278, #14, #75, #336, #274, #603, #281, #487 ),
 .UNSPECIFIED., .F., .F.,
 ( 4, 2, 2, 2, 4 ),
 ( 0.01925680577543191149, 0.02002569098899164776, 0.02079457620255138750, 0.02156346141611112377, 0.02233234662967086004 ),
 .UNSPECIFIED. ) ;
#587 = COORDINATED_UNIVERSAL_TIME_OFFSET ( 8, 0, .AHEAD. ) ;
#588 = DIRECTION ( 'NONE',  ( 0.4999999999999998890, -2.365849761790781821E-16, 0.8660254037844385966 ) ) ;
#589 = COORDINATED_UNIVERSAL_TIME_OFFSET ( 8, 0, .AHEAD. ) ;
#590 = ORIENTED_EDGE ( 'NONE', *, *, #271, .F. ) ;
#591 = ORIENTED_EDGE ( 'NONE', *, *, #78, .T. ) ;
#592 = VECTOR ( 'NONE', #431, 39.37007874015748854 ) ;
#593 = CARTESIAN_POINT ( 'NONE',  ( -0.2849999999999999756, 0.000000000000000000, -0.1399999999999999856 ) ) ;
#594 = ORIENTED_EDGE ( 'NONE', *, *, #350, .T. ) ;
#595 = VERTEX_POINT ( 'NONE', #365 ) ;
#596 = CARTESIAN_POINT ( 'NONE',  ( 0.1443375672974077095, -0.6250000000000000000, 0.2500000000000020539 ) ) ;
#597 = CARTESIAN_POINT ( 'NONE',  ( 0.2849999999999999756, -0.3499999999999998668, -0.006365519842874539300 ) ) ;
#598 = LINE ( 'NONE', #443, #312 ) ;
#599 = CARTESIAN_POINT ( 'NONE',  ( -0.1718706266502369184, -0.3549978826213025518, 0.01022046385279174775 ) ) ;
#600 = ADVANCED_FACE ( 'NONE', ( #316 ), #585, .F. ) ;
#601 = ADVANCED_FACE ( 'NONE', ( #636, #158 ), #471, .F. ) ;
#602 = VECTOR ( 'NONE', #50, 39.37007874015748143 ) ;
#603 = CARTESIAN_POINT ( 'NONE',  ( 0.1673991995500691277, -0.3528512401622960204, 0.04027756611100449802 ) ) ;
#604 = ORIENTED_EDGE ( 'NONE', *, *, #66, .F. ) ;
#605 = ORIENTED_EDGE ( 'NONE', *, *, #149, .T. ) ;
#606 = EDGE_CURVE ( 'NONE', #79, #80, #263, .T. ) ;
#607 = ORIENTED_EDGE ( 'NONE', *, *, #520, .T. ) ;
#608 = ORIENTED_EDGE ( 'NONE', *, *, #678, .T. ) ;
#609 = AXIS2_PLACEMENT_3D ( 'NONE', #674, #201, #405 ) ;
#610 = ORIENTED_EDGE ( 'NONE', *, *, #657, .T. ) ;
#611 = VECTOR ( 'NONE', #552, 39.37007874015748854 ) ;
#612 = DIRECTION ( 'NONE',  ( 0.000000000000000000, 1.000000000000000000, 1.836970198721029441E-16 ) ) ;
#613 = EDGE_LOOP ( 'NONE', ( #397 ) ) ;
#614 = CARTESIAN_POINT ( 'NONE',  ( -0.4249999999999999889, -0.3499999999999998668, -0.05937171043518971875 ) ) ;
#615 = PLANE ( 'NONE',  #280 ) ;
#616 = ORIENTED_EDGE ( 'NONE', *, *, #425, .F. ) ;
#617 =( BOUNDED_CURVE ( )  B_SPLINE_CURVE ( 3, ( #547, #543, #655, #63 ),
 .UNSPECIFIED., .F., .T. ) 
 B_SPLINE_CURVE_WITH_KNOTS ( ( 4, 4 ),
 ( 1.402762437309931665, 1.552864323973416782 ),
 .UNSPECIFIED. ) 
 CURVE ( )  GEOMETRIC_REPRESENTATION_ITEM ( )  RATIONAL_B_SPLINE_CURVE ( ( 1.000000000000000000, 0.9981233330995401554, 0.9981233330995401554, 1.000000000000000000 ) ) 
 REPRESENTATION_ITEM ( '' )  );
#618 = CARTESIAN_POINT ( 'NONE',  ( 0.2849999999999999756, 0.000000000000000000, 0.1399999999999999856 ) ) ;
#619 = CARTESIAN_POINT ( 'NONE',  ( 0.2886751345948154190, -0.6249999999999998890, -1.178943952070743865E-16 ) ) ;
#620 = DIRECTION ( 'NONE',  ( 0.000000000000000000, -1.000000000000000000, -1.836970198721029688E-16 ) ) ;
#621 = VERTEX_POINT ( 'NONE', #205 ) ;
#622 = CARTESIAN_POINT ( 'NONE',  ( -0.2886751345948154190, -0.6249999999999998890, -8.161203904122088289E-17 ) ) ;
#623 = CARTESIAN_POINT ( 'NONE',  ( -0.2747370832993747403, -0.3546241336738277239, -0.02414141300220432051 ) ) ;
#624 = CC_DESIGN_PERSON_AND_ORGANIZATION_ASSIGNMENT ( #535, #473, ( #262 ) ) ;
#625 = APPLICATION_PROTOCOL_DEFINITION ( 'international standard', 'config_control_design', 1994, #104 ) ;
#626 = LINE ( 'NONE', #157, #459 ) ;
#627 = AXIS2_PLACEMENT_3D ( 'NONE', #452, #47, #620 ) ;
#628 = LINE ( 'NONE', #622, #71 ) ;
#629 = CARTESIAN_POINT ( 'NONE',  ( 0.1443375672974077095, -0.3499999999999999778, 0.2500000000000021094 ) ) ;
#630 = LINE ( 'NONE', #268, #145 ) ;
#631 = ADVANCED_FACE ( 'NONE', ( #406, #247 ), #358, .T. ) ;
#632 = DIRECTION ( 'NONE',  ( -0.5000000000000000000, 0.000000000000000000, -0.8660254037844385966 ) ) ;
#633 = DIRECTION ( 'NONE',  ( 0.4999999999999998890, 0.000000000000000000, 0.8660254037844385966 ) ) ;
#634 = CARTESIAN_POINT ( 'NONE',  ( 0.1443375672974077650, -0.6249999999999998890, -0.2500000000000022760 ) ) ;
#635 = AXIS2_PLACEMENT_3D ( 'NONE', #413, #207, #458 ) ;
#636 = FACE_OUTER_BOUND ( 'NONE', #126, .T. ) ;
#637 = LINE ( 'NONE', #370, #200 ) ;
#638 = DATE_AND_TIME ( #265, #344 ) ;
#639 = EDGE_CURVE ( 'NONE', #309, #309, #269, .T. ) ;
#640 = ORIENTED_EDGE ( 'NONE', *, *, #320, .T. ) ;
#641 = LINE ( 'NONE', #332, #311 ) ;
#642 = CC_DESIGN_PERSON_AND_ORGANIZATION_ASSIGNMENT ( #212, #12, ( #372 ) ) ;
#643 = ORIENTED_EDGE ( 'NONE', *, *, #128, .T. ) ;
#644 = VERTEX_POINT ( 'NONE', #52 ) ;
#645 = FACE_OUTER_BOUND ( 'NONE', #650, .T. ) ;
#646 = VECTOR ( 'NONE', #440, 39.37007874015748143 ) ;
#647 = CARTESIAN_POINT ( 'NONE',  ( -0.1443375672974076263, -0.6249999999999998890, -0.2500000000000022760 ) ) ;
#648 = APPROVAL_DATE_TIME ( #270, #228 ) ;
#649 = ORIENTED_EDGE ( 'NONE', *, *, #639, .T. ) ;
#650 = EDGE_LOOP ( 'NONE', ( #393, #482, #590, #450 ) ) ;
#651 = DIRECTION ( 'NONE',  ( -0.000000000000000000, 1.000000000000000000, 1.836970198721029688E-16 ) ) ;
#652 = DIRECTION ( 'NONE',  ( -0.5000000000000000000, 2.365849761790781328E-16, -0.8660254037844385966 ) ) ;
#653 = DIRECTION ( 'NONE',  ( 0.000000000000000000, 0.000000000000000000, -1.000000000000000000 ) ) ;
#654 = ORIENTED_EDGE ( 'NONE', *, *, #230, .T. ) ;
#655 = CARTESIAN_POINT ( 'NONE',  ( 0.2747370832993747403, -0.3546241336738277239, -0.02414141300220434133 ) ) ;
#656 = ORIENTED_EDGE ( 'NONE', *, *, #149, .F. ) ;
#657 = EDGE_CURVE ( 'NONE', #437, #595, #353, .T. ) ;
#658 = ORIENTED_EDGE ( 'NONE', *, *, #421, .F. ) ;
#659 = VERTEX_POINT ( 'NONE', #191 ) ;
#660 = ORIENTED_EDGE ( 'NONE', *, *, #78, .F. ) ;
#661 = DIRECTION ( 'NONE',  ( 0.000000000000000000, 1.836970198721029441E-16, -1.000000000000000000 ) ) ;
#662 = EDGE_LOOP ( 'NONE', ( #658, #140, #667, #62, #290, #340 ) ) ;
#663 = ORIENTED_EDGE ( 'NONE', *, *, #432, .T. ) ;
#664 = VECTOR ( 'NONE', #266, 39.37007874015748854 ) ;
#665 = LINE ( 'NONE', #464, #582 ) ;
#666 = ORIENTED_EDGE ( 'NONE', *, *, #230, .F. ) ;
#667 = ORIENTED_EDGE ( 'NONE', *, *, #337, .F. ) ;
#668 = DESIGN_CONTEXT ( 'detailed design', #314, 'design' ) ;
#669 = ADVANCED_FACE ( 'NONE', ( #575 ), #306, .F. ) ;
#670 = CARTESIAN_POINT ( 'NONE',  ( -0.2886751345948154190, -0.6249999999999998890, -8.161203904122088289E-17 ) ) ;
#671 = DIRECTION ( 'NONE',  ( 0.000000000000000000, 0.000000000000000000, 1.000000000000000000 ) ) ;
#672 = CARTESIAN_POINT ( 'NONE',  ( -0.1443375672974076263, -0.3499999999999998113, -0.2500000000000022760 ) ) ;
#673 = PLANE ( 'NONE',  #364 ) ;
#674 = CARTESIAN_POINT ( 'NONE',  ( -0.4249999999999999889, 0.000000000000000000, 0.000000000000000000 ) ) ;
#675 = DIRECTION ( 'NONE',  ( 0.000000000000000000, -2.731847993664239553E-16, 1.000000000000000000 ) ) ;
#676 = DIRECTION ( 'NONE',  ( 0.000000000000000000, -1.000000000000000000, -1.836970198721029688E-16 ) ) ;
#677 = AXIS2_PLACEMENT_3D ( 'NONE', #533, #423, #106 ) ;
#678 = EDGE_CURVE ( 'NONE', #27, #546, #512, .T. ) ;
#679 = DIRECTION ( 'NONE',  ( -1.000000000000000000, 0.000000000000000000, 0.000000000000000000 ) ) ;
#680 = DIRECTION ( 'NONE',  ( 1.000000000000000000, 0.000000000000000000, 0.000000000000000000 ) ) ;
ENDSEC;
END-ISO-10303-21;
