ISO-10303-21;
HEADER;
FILE_DESCRIPTION (( 'STEP AP203' ),
    '1' );
FILE_NAME ('00166_index_4.step',
    '2022-11-07T16:09:08',
    ( '' ),
    ( '' ),
    'SwSTEP 2.0',
    'SolidWorks 2020',
    '' );
FILE_SCHEMA (( 'CONFIG_CONTROL_DESIGN' ));
ENDSEC;

DATA;
#1 = CARTESIAN_POINT ( 'NONE',  ( -8.720000000000000639, 12.00000000000000000, -4.150000000000000355 ) ) ;
#2 = CARTESIAN_POINT ( 'NONE',  ( -4.980000000000001315, 10.00000000000000000, -0.3499999999999999778 ) ) ;
#3 = ORIENTED_EDGE ( 'NONE', *, *, #560, .T. ) ;
#4 = DIRECTION ( 'NONE',  ( 0.000000000000000000, 0.000000000000000000, 1.000000000000000000 ) ) ;
#5 = CIRCLE ( 'NONE', #383, 3.000000000000011102 ) ;
#6 = AXIS2_PLACEMENT_3D ( 'NONE', #454, #143, #403 ) ;
#7 = DIRECTION ( 'NONE',  ( 0.000000000000000000, -0.000000000000000000, 1.000000000000000000 ) ) ;
#8 = PRODUCT_DEFINITION_SHAPE ( 'NONE', 'NONE',  #137 ) ;
#9 = CARTESIAN_POINT ( 'NONE',  ( -3.321687604822301410, 12.00000000000000000, 2.149999999999999911 ) ) ;
#10 = LINE ( 'NONE', #512, #369 ) ;
#11 = VECTOR ( 'NONE', #412, 1000.000000000000000 ) ;
#12 = DIRECTION ( 'NONE',  ( -0.000000000000000000, -1.000000000000000000, -0.000000000000000000 ) ) ;
#13 = DIRECTION ( 'NONE',  ( -0.000000000000000000, -1.000000000000000000, 0.000000000000000000 ) ) ;
#14 = EDGE_LOOP ( 'NONE', ( #288, #206, #569, #198 ) ) ;
#15 = SECURITY_CLASSIFICATION ( '', '', #126 ) ;
#16 = CARTESIAN_POINT ( 'NONE',  ( 7.720000000000001528, 12.00000000000000000, -2.850000000000000533 ) ) ;
#17 = CARTESIAN_POINT ( 'NONE',  ( 8.720000000000000639, 0.000000000000000000, -4.150000000000000355 ) ) ;
#18 = EDGE_CURVE ( 'NONE', #505, #79, #616, .T. ) ;
#19 = PERSON_AND_ORGANIZATION_ROLE ( 'design_owner' ) ;
#20 = FACE_OUTER_BOUND ( 'NONE', #34, .T. ) ;
#21 = APPROVAL ( #25, '未指定' ) ;
#22 =( LENGTH_UNIT ( ) NAMED_UNIT ( * ) SI_UNIT ( .MILLI., .METRE. ) );
#23 = ADVANCED_FACE ( 'CYL_3', ( #192, #295 ), #501, .T. ) ;
#24 = DIRECTION ( 'NONE',  ( 0.000000000000000000, 1.000000000000000000, 0.000000000000000000 ) ) ;
#25 = APPROVAL_STATUS ( 'not_yet_approved' ) ;
#26 = ORIENTED_EDGE ( 'NONE', *, *, #583, .F. ) ;
#27 = DIRECTION ( 'NONE',  ( -0.000000000000000000, -1.000000000000000000, -0.000000000000000000 ) ) ;
#28 = EDGE_CURVE ( 'NONE', #364, #233, #600, .T. ) ;
#29 = COORDINATED_UNIVERSAL_TIME_OFFSET ( 8, 0, .AHEAD. ) ;
#30 = VECTOR ( 'NONE', #649, 1000.000000000000000 ) ;
#31 = ORIENTED_EDGE ( 'NONE', *, *, #37, .F. ) ;
#32 = VECTOR ( 'NONE', #255, 1000.000000000000000 ) ;
#33 = PLANE ( 'NONE',  #229 ) ;
#34 = EDGE_LOOP ( 'NONE', ( #539 ) ) ;
#35 = CARTESIAN_POINT ( 'NONE',  ( 0.01999999999999961878, 12.00000000000000000, -0.3500000000000121902 ) ) ;
#36 = VECTOR ( 'NONE', #117, 1000.000000000000000 ) ;
#37 = EDGE_CURVE ( 'NONE', #361, #136, #489, .T. ) ;
#38 = EDGE_LOOP ( 'NONE', ( #127, #201, #231, #548 ) ) ;
#39 = CLOSED_SHELL ( 'NONE', ( #134, #519, #67, #646, #422, #335, #280, #294, #448, #282, #571, #141, #462, #633, #607, #513, #332, #23, #112, #399, #328 ) ) ;
#40 = CARTESIAN_POINT ( 'NONE',  ( -4.980000000000001315, 10.00000000000000000, 0.05000000000000018319 ) ) ;
#41 = VERTEX_POINT ( 'NONE', #232 ) ;
#42 = AXIS2_PLACEMENT_3D ( 'NONE', #170, #73, #271 ) ;
#43 = ORIENTED_EDGE ( 'NONE', *, *, #428, .T. ) ;
#44 = LINE ( 'NONE', #657, #30 ) ;
#45 = EDGE_CURVE ( 'NONE', #80, #236, #237, .T. ) ;
#46 = APPROVAL_PERSON_ORGANIZATION ( #273, #21, #82 ) ;
#47 = FACE_OUTER_BOUND ( 'NONE', #301, .T. ) ;
#48 = ORIENTED_EDGE ( 'NONE', *, *, #37, .T. ) ;
#49 = ORIENTED_EDGE ( 'NONE', *, *, #223, .F. ) ;
#50 = LINE ( 'NONE', #310, #11 ) ;
#51 = CARTESIAN_POINT ( 'NONE',  ( -1.638312395177698999, 12.00000000000000000, 2.150000000000000355 ) ) ;
#52 = VERTEX_POINT ( 'NONE', #342 ) ;
#53 = ORIENTED_EDGE ( 'NONE', *, *, #650, .T. ) ;
#54 = DIRECTION ( 'NONE',  ( -1.000000000000000000, 0.000000000000000000, 0.000000000000000000 ) ) ;
#55 = ORIENTED_EDGE ( 'NONE', *, *, #96, .T. ) ;
#56 = CARTESIAN_POINT ( 'NONE',  ( 6.678312395177698590, 4.000000000000000000, 2.149999999999999911 ) ) ;
#57 = CYLINDRICAL_SURFACE ( 'NONE', #421, 0.4000000000000002442 ) ;
#58 = CYLINDRICAL_SURFACE ( 'NONE', #66, 3.000000000000011102 ) ;
#59 = VECTOR ( 'NONE', #570, 1000.000000000000000 ) ;
#60 = DIRECTION ( 'NONE',  ( 0.000000000000000000, 0.000000000000000000, -1.000000000000000000 ) ) ;
#61 = VECTOR ( 'NONE', #525, 1000.000000000000000 ) ;
#62 = EDGE_CURVE ( 'NONE', #644, #652, #132, .T. ) ;
#63 = CARTESIAN_POINT ( 'NONE',  ( -8.720000000000000639, 4.000000000000000000, -2.850000000000000533 ) ) ;
#64 = LINE ( 'NONE', #9, #32 ) ;
#65 = EDGE_LOOP ( 'NONE', ( #509, #452, #92, #386 ) ) ;
#66 = AXIS2_PLACEMENT_3D ( 'NONE', #530, #74, #623 ) ;
#67 = ADVANCED_FACE ( 'PLANAR_2', ( #445 ), #387, .F. ) ;
#68 = LINE ( 'NONE', #165, #36 ) ;
#69 = LINE ( 'NONE', #475, #603 ) ;
#70 = COORDINATED_UNIVERSAL_TIME_OFFSET ( 8, 0, .AHEAD. ) ;
#71 = LOCAL_TIME ( 0, 9, 8.000000000000000000, #173 ) ;
#72 = CC_DESIGN_PERSON_AND_ORGANIZATION_ASSIGNMENT ( #585, #270, ( #541 ) ) ;
#73 = DIRECTION ( 'NONE',  ( -1.000000000000000000, 0.000000000000000000, 0.000000000000000000 ) ) ;
#74 = DIRECTION ( 'NONE',  ( -0.000000000000000000, -1.000000000000000000, -0.000000000000000000 ) ) ;
#75 = PERSON_AND_ORGANIZATION ( #86, #151 ) ;
#76 = DIRECTION ( 'NONE',  ( 0.000000000000000000, 1.000000000000000000, 0.000000000000000000 ) ) ;
#77 = CALENDAR_DATE ( 2022, 8, 11 ) ;
#78 = CARTESIAN_POINT ( 'NONE',  ( 8.720000000000000639, 4.000000000000000000, 4.150000000000000355 ) ) ;
#79 = VERTEX_POINT ( 'NONE', #174 ) ;
#80 = VERTEX_POINT ( 'NONE', #327 ) ;
#81 = CARTESIAN_POINT ( 'NONE',  ( 5.019999999999999574, 4.000000000000000000, -0.3499999999999999778 ) ) ;
#82 = APPROVAL_ROLE ( '' ) ;
#83 = ORIENTED_EDGE ( 'NONE', *, *, #62, .T. ) ;
#84 = AXIS2_PLACEMENT_3D ( 'NONE', #608, #360, #365 ) ;
#85 = DIRECTION ( 'NONE',  ( 0.000000000000000000, 1.000000000000000000, -0.000000000000000000 ) ) ;
#86 = PERSON ( '未指定', '未指定', '未指定', ('未指定'), ('未指定'), ('未指定') ) ;
#87 = ORIENTED_EDGE ( 'NONE', *, *, #521, .F. ) ;
#88 = MANIFOLD_SOLID_BREP ( 'PLANAR_0', #39 ) ;
#89 = EDGE_CURVE ( 'NONE', #256, #505, #225, .T. ) ;
#90 = VERTEX_POINT ( 'NONE', #610 ) ;
#91 = AXIS2_PLACEMENT_3D ( 'NONE', #81, #382, #276 ) ;
#92 = ORIENTED_EDGE ( 'NONE', *, *, #184, .F. ) ;
#93 = EDGE_CURVE ( 'NONE', #663, #614, #645, .T. ) ;
#94 = DIRECTION ( 'NONE',  ( 0.000000000000000000, 0.000000000000000000, 1.000000000000000000 ) ) ;
#95 = LINE ( 'NONE', #190, #283 ) ;
#96 = EDGE_CURVE ( 'NONE', #364, #279, #336, .T. ) ;
#97 = AXIS2_PLACEMENT_3D ( 'NONE', #456, #656, #262 ) ;
#98 = CARTESIAN_POINT ( 'NONE',  ( 6.678312395177698590, 12.00000000000000000, 2.150000000000000355 ) ) ;
#99 = ORIENTED_EDGE ( 'NONE', *, *, #28, .F. ) ;
#100 = EDGE_LOOP ( 'NONE', ( #557, #83, #476, #658 ) ) ;
#101 = DIRECTION ( 'NONE',  ( 0.000000000000000000, 1.000000000000000000, 0.000000000000000000 ) ) ;
#102 = DIRECTION ( 'NONE',  ( -1.000000000000000000, 0.000000000000000000, -0.000000000000000000 ) ) ;
#103 = FACE_OUTER_BOUND ( 'NONE', #333, .T. ) ;
#104 = ORIENTED_EDGE ( 'NONE', *, *, #374, .F. ) ;
#105 = ORIENTED_EDGE ( 'NONE', *, *, #379, .F. ) ;
#106 = EDGE_CURVE ( 'NONE', #90, #90, #637, .T. ) ;
#107 = PLANE ( 'NONE',  #84 ) ;
#108 = DIRECTION ( 'NONE',  ( 0.000000000000000000, 1.000000000000000000, -0.000000000000000000 ) ) ;
#109 = DIRECTION ( 'NONE',  ( 0.000000000000000000, 0.000000000000000000, -1.000000000000000000 ) ) ;
#110 = ORIENTED_EDGE ( 'NONE', *, *, #413, .T. ) ;
#111 = CARTESIAN_POINT ( 'NONE',  ( -8.720000000000000639, 12.00000000000000000, -4.150000000000000355 ) ) ;
#112 = ADVANCED_FACE ( 'PLANAR_14', ( #393 ), #595, .T. ) ;
#113 = CARTESIAN_POINT ( 'NONE',  ( 6.678312395177698590, 12.00000000000000000, 2.149999999999999911 ) ) ;
#114 = LINE ( 'NONE', #416, #350 ) ;
#115 = AXIS2_PLACEMENT_3D ( 'NONE', #149, #516, #4 ) ;
#116 = CIRCLE ( 'NONE', #194, 3.000000000000011102 ) ;
#117 = DIRECTION ( 'NONE',  ( -0.000000000000000000, -1.000000000000000000, -0.000000000000000000 ) ) ;
#118 = DIRECTION ( 'NONE',  ( -0.000000000000000000, -1.000000000000000000, -0.000000000000000000 ) ) ;
#119 = ORIENTED_EDGE ( 'NONE', *, *, #453, .T. ) ;
#120 = PLANE ( 'NONE',  #524 ) ;
#121 = CARTESIAN_POINT ( 'NONE',  ( 5.019999999999999574, 4.000000000000000000, -0.3500000000000130784 ) ) ;
#122 = DIRECTION ( 'NONE',  ( 0.000000000000000000, -0.000000000000000000, -1.000000000000000000 ) ) ;
#123 = DATE_TIME_ROLE ( 'classification_date' ) ;
#124 = AXIS2_PLACEMENT_3D ( 'NONE', #390, #76, #638 ) ;
#125 = DIRECTION ( 'NONE',  ( 0.000000000000000000, 0.000000000000000000, 1.000000000000000000 ) ) ;
#126 = SECURITY_CLASSIFICATION_LEVEL ( 'unclassified' ) ;
#127 = ORIENTED_EDGE ( 'NONE', *, *, #402, .T. ) ;
#128 = ORIENTED_EDGE ( 'NONE', *, *, #639, .T. ) ;
#129 = VECTOR ( 'NONE', #204, 1000.000000000000000 ) ;
#130 = DIRECTION ( 'NONE',  ( -0.000000000000000000, -1.000000000000000000, -0.000000000000000000 ) ) ;
#131 = EDGE_LOOP ( 'NONE', ( #252, #340, #589, #647 ) ) ;
#132 = LINE ( 'NONE', #341, #207 ) ;
#133 = ORIENTED_EDGE ( 'NONE', *, *, #289, .T. ) ;
#134 = ADVANCED_FACE ( 'PLANAR_0', ( #546, #330, #634 ), #33, .T. ) ;
#135 = LINE ( 'NONE', #584, #316 ) ;
#136 = VERTEX_POINT ( 'NONE', #481 ) ;
#137 = PRODUCT_DEFINITION ( '未知', '', #541, #397 ) ;
#138 = EDGE_CURVE ( 'NONE', #226, #256, #145, .T. ) ;
#139 = DIRECTION ( 'NONE',  ( -1.000000000000000000, 0.000000000000000000, -0.000000000000000000 ) ) ;
#140 = ORIENTED_EDGE ( 'NONE', *, *, #298, .T. ) ;
#141 = ADVANCED_FACE ( 'CYL_1', ( #227 ), #493, .F. ) ;
#142 = VECTOR ( 'NONE', #502, 1000.000000000000000 ) ;
#143 = DIRECTION ( 'NONE',  ( -0.000000000000000000, -1.000000000000000000, -0.000000000000000000 ) ) ;
#144 = VERTEX_POINT ( 'NONE', #296 ) ;
#145 = CIRCLE ( 'NONE', #284, 3.000000000000011102 ) ;
#146 = CARTESIAN_POINT ( 'NONE',  ( 3.361687604822300113, 4.000000000000000000, 2.150000000000000355 ) ) ;
#147 = EDGE_LOOP ( 'NONE', ( #651, #409, #31, #265 ) ) ;
#148 = VECTOR ( 'NONE', #470, 1000.000000000000000 ) ;
#149 = CARTESIAN_POINT ( 'NONE',  ( 7.720000000000001528, 12.00000000000000000, 2.150000000000000355 ) ) ;
#150 = DIRECTION ( 'NONE',  ( -0.000000000000000000, -1.000000000000000000, -0.000000000000000000 ) ) ;
#151 = ORGANIZATION ( '未指定', '未指定', '' ) ;
#152 = EDGE_LOOP ( 'NONE', ( #133, #641, #87, #3 ) ) ;
#153 = PLANE ( 'NONE',  #438 ) ;
#154 = EDGE_CURVE ( 'NONE', #334, #606, #135, .T. ) ;
#155 = ORIENTED_EDGE ( 'NONE', *, *, #368, .F. ) ;
#156 = DIRECTION ( 'NONE',  ( -1.000000000000000000, 0.000000000000000000, 0.000000000000000000 ) ) ;
#157 = ORIENTED_EDGE ( 'NONE', *, *, #604, .T. ) ;
#158 = FACE_OUTER_BOUND ( 'NONE', #544, .T. ) ;
#159 = DIRECTION ( 'NONE',  ( 0.000000000000000000, 1.000000000000000000, -0.000000000000000000 ) ) ;
#160 = EDGE_LOOP ( 'NONE', ( #504, #579, #550, #128 ) ) ;
#161 = CARTESIAN_POINT ( 'NONE',  ( 8.720000000000000639, 0.000000000000000000, 4.150000000000000355 ) ) ;
#162 = DIRECTION ( 'NONE',  ( 1.000000000000000000, 0.000000000000000000, 0.000000000000000000 ) ) ;
#163 = CARTESIAN_POINT ( 'NONE',  ( -6.638312395177700331, 12.00000000000000000, 2.150000000000000355 ) ) ;
#164 = EDGE_CURVE ( 'NONE', #652, #167, #518, .T. ) ;
#165 = CARTESIAN_POINT ( 'NONE',  ( 1.678312395177698590, 12.00000000000000000, 2.150000000000000355 ) ) ;
#166 = DIRECTION ( 'NONE',  ( 0.000000000000000000, 0.000000000000000000, 1.000000000000000000 ) ) ;
#167 = VERTEX_POINT ( 'NONE', #312 ) ;
#168 = AXIS2_PLACEMENT_3D ( 'NONE', #300, #150, #653 ) ;
#169 = DATE_AND_TIME ( #627, #446 ) ;
#170 = CARTESIAN_POINT ( 'NONE',  ( 8.720000000000000639, 4.000000000000000000, 4.150000000000000355 ) ) ;
#171 = CARTESIAN_POINT ( 'NONE',  ( -8.720000000000000639, 12.00000000000000000, -4.150000000000000355 ) ) ;
#172 = PERSON_AND_ORGANIZATION_ROLE ( 'classification_officer' ) ;
#173 = COORDINATED_UNIVERSAL_TIME_OFFSET ( 8, 0, .AHEAD. ) ;
#174 = CARTESIAN_POINT ( 'NONE',  ( 1.678312395177698590, 12.00000000000000000, 2.150000000000000355 ) ) ;
#175 = APPROVAL_STATUS ( 'not_yet_approved' ) ;
#176 = AXIS2_PLACEMENT_3D ( 'NONE', #35, #235, #439 ) ;
#177 = ORIENTED_EDGE ( 'NONE', *, *, #538, .F. ) ;
#178 = ORIENTED_EDGE ( 'NONE', *, *, #413, .F. ) ;
#179 = CARTESIAN_POINT ( 'NONE',  ( 7.720000000000001528, 12.00000000000000000, -2.850000000000000533 ) ) ;
#180 =( NAMED_UNIT ( * ) SI_UNIT ( $, .STERADIAN. ) SOLID_ANGLE_UNIT ( ) );
#181 = EDGE_CURVE ( 'NONE', #236, #663, #69, .T. ) ;
#182 = AXIS2_PLACEMENT_3D ( 'NONE', #477, #219, #434 ) ;
#183 = DIRECTION ( 'NONE',  ( 0.000000000000000000, 0.000000000000000000, -1.000000000000000000 ) ) ;
#184 = EDGE_CURVE ( 'NONE', #256, #346, #64, .T. ) ;
#185 = ORIENTED_EDGE ( 'NONE', *, *, #538, .T. ) ;
#186 = CARTESIAN_POINT ( 'NONE',  ( 7.720000000000001528, 12.00000000000000000, 2.150000000000000355 ) ) ;
#187 = CC_DESIGN_DATE_AND_TIME_ASSIGNMENT ( #326, #123, ( #15 ) ) ;
#188 = ORIENTED_EDGE ( 'NONE', *, *, #604, .F. ) ;
#189 = LINE ( 'NONE', #458, #142 ) ;
#190 = CARTESIAN_POINT ( 'NONE',  ( -8.720000000000000639, 4.000000000000000000, -4.150000000000000355 ) ) ;
#191 = ORIENTED_EDGE ( 'NONE', *, *, #181, .F. ) ;
#192 = FACE_OUTER_BOUND ( 'NONE', #254, .T. ) ;
#193 = DIRECTION ( 'NONE',  ( -0.000000000000000000, -1.000000000000000000, -0.000000000000000000 ) ) ;
#194 = AXIS2_PLACEMENT_3D ( 'NONE', #121, #13, #166 ) ;
#195 = DIRECTION ( 'NONE',  ( 0.000000000000000000, 0.000000000000000000, 1.000000000000000000 ) ) ;
#196 = LINE ( 'NONE', #561, #654 ) ;
#197 = ORIENTED_EDGE ( 'NONE', *, *, #533, .F. ) ;
#198 = ORIENTED_EDGE ( 'NONE', *, *, #181, .T. ) ;
#199 = DIRECTION ( 'NONE',  ( 1.000000000000000000, 0.000000000000000000, 0.000000000000000000 ) ) ;
#200 = CARTESIAN_POINT ( 'NONE',  ( -8.720000000000000639, 4.000000000000000000, 2.149999999999999911 ) ) ;
#201 = ORIENTED_EDGE ( 'NONE', *, *, #164, .T. ) ;
#202 = ORIENTED_EDGE ( 'NONE', *, *, #253, .T. ) ;
#203 = EDGE_CURVE ( 'NONE', #499, #644, #116, .T. ) ;
#204 = DIRECTION ( 'NONE',  ( 0.000000000000000000, 0.000000000000000000, 1.000000000000000000 ) ) ;
#205 = DIRECTION ( 'NONE',  ( -0.000000000000000000, -1.000000000000000000, 0.000000000000000000 ) ) ;
#206 = ORIENTED_EDGE ( 'NONE', *, *, #213, .T. ) ;
#207 = VECTOR ( 'NONE', #587, 1000.000000000000000 ) ;
#208 = CARTESIAN_POINT ( 'NONE',  ( 5.019999999999999574, 10.00000000000000000, -0.3499999999999999778 ) ) ;
#209 = DIRECTION ( 'NONE',  ( 1.000000000000000000, 0.000000000000000000, 0.000000000000000000 ) ) ;
#210 = CARTESIAN_POINT ( 'NONE',  ( -4.980000000000001315, 4.000000000000000000, -0.3500000000000130784 ) ) ;
#211 = EDGE_CURVE ( 'NONE', #611, #606, #367, .T. ) ;
#212 = CARTESIAN_POINT ( 'NONE',  ( 1.678312395177698146, 12.00000000000000000, 2.150000000000000355 ) ) ;
#213 = EDGE_CURVE ( 'NONE', #614, #499, #568, .T. ) ;
#214 = AXIS2_PLACEMENT_3D ( 'NONE', #468, #60, #613 ) ;
#215 = PLANE ( 'NONE',  #234 ) ;
#216 = CARTESIAN_POINT ( 'NONE',  ( -7.720000000000001528, 12.00000000000000000, -2.850000000000000533 ) ) ;
#217 = EDGE_LOOP ( 'NONE', ( #417 ) ) ;
#218 = CC_DESIGN_APPROVAL ( #378, ( #137 ) ) ;
#219 = DIRECTION ( 'NONE',  ( -0.000000000000000000, -1.000000000000000000, 0.000000000000000000 ) ) ;
#220 = CARTESIAN_POINT ( 'NONE',  ( 8.720000000000000639, 0.000000000000000000, 4.150000000000000355 ) ) ;
#221 = COORDINATED_UNIVERSAL_TIME_OFFSET ( 8, 0, .AHEAD. ) ;
#222 = CARTESIAN_POINT ( 'NONE',  ( 5.019999999999999574, 10.00000000000000000, -0.3499999999999999778 ) ) ;
#223 = EDGE_CURVE ( 'NONE', #361, #611, #515, .T. ) ;
#224 = COORDINATED_UNIVERSAL_TIME_OFFSET ( 8, 0, .AHEAD. ) ;
#225 = LINE ( 'NONE', #535, #534 ) ;
#226 = VERTEX_POINT ( 'NONE', #466 ) ;
#227 = FACE_OUTER_BOUND ( 'NONE', #38, .T. ) ;
#228 = CALENDAR_DATE ( 2022, 8, 11 ) ;
#229 = AXIS2_PLACEMENT_3D ( 'NONE', #642, #85, #125 ) ;
#230 = SHAPE_DEFINITION_REPRESENTATION ( #8, #354 ) ;
#231 = ORIENTED_EDGE ( 'NONE', *, *, #487, .F. ) ;
#232 = CARTESIAN_POINT ( 'NONE',  ( -6.638312395177700331, 4.000000000000000000, 2.150000000000000355 ) ) ;
#233 = VERTEX_POINT ( 'NONE', #268 ) ;
#234 = AXIS2_PLACEMENT_3D ( 'NONE', #520, #267, #311 ) ;
#235 = DIRECTION ( 'NONE',  ( -0.000000000000000000, -1.000000000000000000, -0.000000000000000000 ) ) ;
#236 = VERTEX_POINT ( 'NONE', #371 ) ;
#237 = CIRCLE ( 'NONE', #124, 3.000000000000011102 ) ;
#238 = DIRECTION ( 'NONE',  ( -0.000000000000000000, -1.000000000000000000, -0.000000000000000000 ) ) ;
#239 = ORIENTED_EDGE ( 'NONE', *, *, #253, .F. ) ;
#240 = LOCAL_TIME ( 0, 9, 8.000000000000000000, #29 ) ;
#241 = DIRECTION ( 'NONE',  ( 0.000000000000000000, 1.000000000000000000, 0.000000000000000000 ) ) ;
#242 = DIRECTION ( 'NONE',  ( 0.000000000000000000, 0.000000000000000000, -1.000000000000000000 ) ) ;
#243 = EDGE_CURVE ( 'NONE', #226, #41, #578, .T. ) ;
#244 = VECTOR ( 'NONE', #193, 1000.000000000000000 ) ;
#245 = CARTESIAN_POINT ( 'NONE',  ( 7.720000000000001528, 12.00000000000000000, 2.150000000000000355 ) ) ;
#246 = EDGE_CURVE ( 'NONE', #292, #292, #655, .T. ) ;
#247 = ORIENTED_EDGE ( 'NONE', *, *, #96, .F. ) ;
#248 = ORIENTED_EDGE ( 'NONE', *, *, #572, .F. ) ;
#249 = CARTESIAN_POINT ( 'NONE',  ( -8.720000000000000639, 0.000000000000000000, 4.150000000000000355 ) ) ;
#250 = CC_DESIGN_DATE_AND_TIME_ASSIGNMENT ( #543, #592, ( #137 ) ) ;
#251 = FACE_OUTER_BOUND ( 'NONE', #65, .T. ) ;
#252 = ORIENTED_EDGE ( 'NONE', *, *, #344, .T. ) ;
#253 = EDGE_CURVE ( 'NONE', #346, #41, #5, .T. ) ;
#254 = EDGE_LOOP ( 'NONE', ( #178 ) ) ;
#255 = DIRECTION ( 'NONE',  ( -0.000000000000000000, -1.000000000000000000, -0.000000000000000000 ) ) ;
#256 = VERTEX_POINT ( 'NONE', #264 ) ;
#257 = PLANE ( 'NONE',  #115 ) ;
#258 = VECTOR ( 'NONE', #345, 1000.000000000000000 ) ;
#259 = VECTOR ( 'NONE', #118, 1000.000000000000000 ) ;
#260 = FACE_OUTER_BOUND ( 'NONE', #147, .T. ) ;
#261 = LINE ( 'NONE', #362, #148 ) ;
#262 = DIRECTION ( 'NONE',  ( -1.000000000000000000, 0.000000000000000000, -0.000000000000000000 ) ) ;
#263 = FACE_OUTER_BOUND ( 'NONE', #594, .T. ) ;
#264 = CARTESIAN_POINT ( 'NONE',  ( -3.321687604822301410, 12.00000000000000000, 2.149999999999999911 ) ) ;
#265 = ORIENTED_EDGE ( 'NONE', *, *, #223, .T. ) ;
#266 = AXIS2_PLACEMENT_3D ( 'NONE', #309, #510, #109 ) ;
#267 = DIRECTION ( 'NONE',  ( 0.000000000000000000, 1.000000000000000000, 0.000000000000000000 ) ) ;
#268 = CARTESIAN_POINT ( 'NONE',  ( 8.720000000000000639, 12.00000000000000000, -4.150000000000000355 ) ) ;
#269 = APPROVAL_PERSON_ORGANIZATION ( #337, #378, #275 ) ;
#270 = PERSON_AND_ORGANIZATION_ROLE ( 'design_supplier' ) ;
#271 = DIRECTION ( 'NONE',  ( 0.000000000000000000, 0.000000000000000000, 1.000000000000000000 ) ) ;
#272 = PLANE ( 'NONE',  #266 ) ;
#273 = PERSON_AND_ORGANIZATION ( #86, #151 ) ;
#274 = CARTESIAN_POINT ( 'NONE',  ( -8.720000000000000639, 4.000000000000000000, -4.150000000000000355 ) ) ;
#275 = APPROVAL_ROLE ( '' ) ;
#276 = DIRECTION ( 'NONE',  ( 0.000000000000000000, 0.000000000000000000, 1.000000000000000000 ) ) ;
#277 = PERSON_AND_ORGANIZATION ( #86, #151 ) ;
#278 = VERTEX_POINT ( 'NONE', #17 ) ;
#279 = VERTEX_POINT ( 'NONE', #220 ) ;
#280 = ADVANCED_FACE ( 'PLANAR_6', ( #431, #630 ), #325, .T. ) ;
#281 = DIRECTION ( 'NONE',  ( 0.000000000000000000, 1.000000000000000000, 0.000000000000000000 ) ) ;
#282 = ADVANCED_FACE ( 'CYL_0', ( #423 ), #58, .F. ) ;
#283 = VECTOR ( 'NONE', #238, 1000.000000000000000 ) ;
#284 = AXIS2_PLACEMENT_3D ( 'NONE', #536, #24, #287 ) ;
#285 = ORIENTED_EDGE ( 'NONE', *, *, #93, .F. ) ;
#286 = APPROVAL ( #537, '未指定' ) ;
#287 = DIRECTION ( 'NONE',  ( 0.000000000000000000, 0.000000000000000000, 1.000000000000000000 ) ) ;
#288 = ORIENTED_EDGE ( 'NONE', *, *, #93, .T. ) ;
#289 = EDGE_CURVE ( 'NONE', #278, #52, #114, .T. ) ;
#290 = AXIS2_PLACEMENT_3D ( 'NONE', #2, #581, #471 ) ;
#291 = VECTOR ( 'NONE', #183, 1000.000000000000000 ) ;
#292 = VERTEX_POINT ( 'NONE', #40 ) ;
#293 = ORIENTED_EDGE ( 'NONE', *, *, #564, .T. ) ;
#294 = ADVANCED_FACE ( 'PLANAR_7', ( #363 ), #272, .T. ) ;
#295 = FACE_OUTER_BOUND ( 'NONE', #217, .T. ) ;
#296 = CARTESIAN_POINT ( 'NONE',  ( 5.019999999999999574, 10.00000000000000000, 0.05000000000000018319 ) ) ;
#297 = VECTOR ( 'NONE', #156, 1000.000000000000000 ) ;
#298 = EDGE_CURVE ( 'NONE', #437, #556, #261, .T. ) ;
#299 = AXIS2_PLACEMENT_3D ( 'NONE', #381, #435, #635 ) ;
#300 = CARTESIAN_POINT ( 'NONE',  ( 5.019999999999999574, 12.00000000000000000, -0.3500000000000130784 ) ) ;
#301 = EDGE_LOOP ( 'NONE', ( #302, #247, #26, #140 ) ) ;
#302 = ORIENTED_EDGE ( 'NONE', *, *, #374, .T. ) ;
#303 = LINE ( 'NONE', #507, #602 ) ;
#304 = CC_DESIGN_PERSON_AND_ORGANIZATION_ASSIGNMENT ( #479, #172, ( #15 ) ) ;
#305 = DIRECTION ( 'NONE',  ( 0.000000000000000000, 0.000000000000000000, -1.000000000000000000 ) ) ;
#306 = CARTESIAN_POINT ( 'NONE',  ( -1.638312395177698999, 12.00000000000000000, 2.150000000000000355 ) ) ;
#307 = ORIENTED_EDGE ( 'NONE', *, *, #521, .T. ) ;
#308 = ORIENTED_EDGE ( 'NONE', *, *, #494, .F. ) ;
#309 = CARTESIAN_POINT ( 'NONE',  ( -7.720000000000001528, 12.00000000000000000, -2.850000000000000533 ) ) ;
#310 = CARTESIAN_POINT ( 'NONE',  ( 7.720000000000003304, 4.000000000000000000, -4.150000000000000355 ) ) ;
#311 = DIRECTION ( 'NONE',  ( 0.000000000000000000, -0.000000000000000000, 1.000000000000000000 ) ) ;
#312 = CARTESIAN_POINT ( 'NONE',  ( -1.638312395177698999, 4.000000000000000000, 2.150000000000000355 ) ) ;
#313 = EDGE_LOOP ( 'NONE', ( #385, #155, #49, #188, #191, #590, #459, #626, #662, #599 ) ) ;
#314 = LINE ( 'NONE', #200, #297 ) ;
#315 = VECTOR ( 'NONE', #418, 1000.000000000000000 ) ;
#316 = VECTOR ( 'NONE', #122, 1000.000000000000000 ) ;
#317 = CARTESIAN_POINT ( 'NONE',  ( 8.720000000000000639, 12.00000000000000000, 4.150000000000000355 ) ) ;
#318 = DIRECTION ( 'NONE',  ( -1.000000000000000000, 0.000000000000000000, 0.000000000000000000 ) ) ;
#319 = PLANE ( 'NONE',  #389 ) ;
#320 = DIRECTION ( 'NONE',  ( -0.000000000000000000, -1.000000000000000000, 0.000000000000000000 ) ) ;
#321 = ORIENTED_EDGE ( 'NONE', *, *, #138, .T. ) ;
#322 = MECHANICAL_CONTEXT ( 'NONE', #357, 'mechanical' ) ;
#323 = VECTOR ( 'NONE', #209, 1000.000000000000000 ) ;
#324 = CARTESIAN_POINT ( 'NONE',  ( -8.720000000000000639, 0.000000000000000000, 4.150000000000000355 ) ) ;
#325 = PLANE ( 'NONE',  #408 ) ;
#326 = DATE_AND_TIME ( #582, #338 ) ;
#327 = CARTESIAN_POINT ( 'NONE',  ( 3.361687604822300113, 12.00000000000000000, 2.150000000000000355 ) ) ;
#328 = ADVANCED_FACE ( 'PLANAR_15', ( #529 ), #215, .T. ) ;
#329 = VECTOR ( 'NONE', #130, 1000.000000000000000 ) ;
#330 = FACE_OUTER_BOUND ( 'NONE', #596, .T. ) ;
#331 = PERSON_AND_ORGANIZATION ( #86, #151 ) ;
#332 = ADVANCED_FACE ( 'PLANAR_13', ( #260 ), #319, .T. ) ;
#333 = EDGE_LOOP ( 'NONE', ( #48, #119, #285, #157 ) ) ;
#334 = VERTEX_POINT ( 'NONE', #415 ) ;
#335 = ADVANCED_FACE ( 'PLANAR_5', ( #580 ), #120, .F. ) ;
#336 = LINE ( 'NONE', #78, #576 ) ;
#337 = PERSON_AND_ORGANIZATION ( #86, #151 ) ;
#338 = LOCAL_TIME ( 0, 9, 8.000000000000000000, #221 ) ;
#339 = PRODUCT_RELATED_PRODUCT_CATEGORY ( 'detail', '', ( #419 ) ) ;
#340 = ORIENTED_EDGE ( 'NONE', *, *, #203, .T. ) ;
#341 = CARTESIAN_POINT ( 'NONE',  ( -8.720000000000000639, 4.000000000000000000, 2.149999999999999911 ) ) ;
#342 = CARTESIAN_POINT ( 'NONE',  ( -8.720000000000000639, 0.000000000000000000, -4.150000000000000355 ) ) ;
#343 = ORIENTED_EDGE ( 'NONE', *, *, #154, .F. ) ;
#344 = EDGE_CURVE ( 'NONE', #236, #499, #426, .T. ) ;
#345 = DIRECTION ( 'NONE',  ( 1.000000000000000000, 0.000000000000000000, 0.000000000000000000 ) ) ;
#346 = VERTEX_POINT ( 'NONE', #370 ) ;
#347 = CARTESIAN_POINT ( 'NONE',  ( 8.720000000000000639, 12.00000000000000000, 4.150000000000000355 ) ) ;
#348 = DIRECTION ( 'NONE',  ( 0.000000000000000000, 0.000000000000000000, -1.000000000000000000 ) ) ;
#349 = PLANE ( 'NONE',  #628 ) ;
#350 = VECTOR ( 'NONE', #318, 1000.000000000000000 ) ;
#351 = ORIENTED_EDGE ( 'NONE', *, *, #583, .T. ) ;
#352 = ORIENTED_EDGE ( 'NONE', *, *, #203, .F. ) ;
#353 = DIRECTION ( 'NONE',  ( -1.000000000000000000, 0.000000000000000000, 0.000000000000000000 ) ) ;
#354 = ADVANCED_BREP_SHAPE_REPRESENTATION ( '00166_index_4', ( #88, #299 ), #517 ) ;
#355 = APPROVAL_PERSON_ORGANIZATION ( #331, #286, #485 ) ;
#356 = DIRECTION ( 'NONE',  ( 0.000000000000000000, 0.000000000000000000, -1.000000000000000000 ) ) ;
#357 = APPLICATION_CONTEXT ( 'configuration controlled 3d designs of mechanical parts and assemblies' ) ;
#358 = LINE ( 'NONE', #506, #315 ) ;
#359 = ORIENTED_EDGE ( 'NONE', *, *, #62, .F. ) ;
#360 = DIRECTION ( 'NONE',  ( 0.000000000000000000, -0.000000000000000000, 1.000000000000000000 ) ) ;
#361 = VERTEX_POINT ( 'NONE', #622 ) ;
#362 = CARTESIAN_POINT ( 'NONE',  ( -8.720000000000000639, 4.000000000000000000, 4.150000000000000355 ) ) ;
#363 = FACE_OUTER_BOUND ( 'NONE', #405, .T. ) ;
#364 = VERTEX_POINT ( 'NONE', #317 ) ;
#365 = DIRECTION ( 'NONE',  ( 1.000000000000000000, 0.000000000000000000, -0.000000000000000000 ) ) ;
#366 = LINE ( 'NONE', #63, #323 ) ;
#367 = LINE ( 'NONE', #216, #61 ) ;
#368 = EDGE_CURVE ( 'NONE', #611, #486, #480, .T. ) ;
#369 = VECTOR ( 'NONE', #195, 1000.000000000000000 ) ;
#370 = CARTESIAN_POINT ( 'NONE',  ( -3.321687604822301854, 4.000000000000000000, 2.149999999999999911 ) ) ;
#371 = CARTESIAN_POINT ( 'NONE',  ( 6.678312395177698590, 12.00000000000000000, 2.149999999999999911 ) ) ;
#372 = ORIENTED_EDGE ( 'NONE', *, *, #211, .F. ) ;
#373 = PERSON_AND_ORGANIZATION_ROLE ( 'creator' ) ;
#374 = EDGE_CURVE ( 'NONE', #556, #279, #375, .T. ) ;
#375 = LINE ( 'NONE', #324, #474 ) ;
#376 = DIRECTION ( 'NONE',  ( 0.000000000000000000, 0.000000000000000000, 1.000000000000000000 ) ) ;
#377 = APPLICATION_PROTOCOL_DEFINITION ( 'international standard', 'config_control_design', 1994, #357 ) ;
#378 = APPROVAL ( #175, '未指定' ) ;
#379 = EDGE_CURVE ( 'NONE', #606, #136, #366, .T. ) ;
#380 = DIRECTION ( 'NONE',  ( 0.000000000000000000, 0.000000000000000000, -1.000000000000000000 ) ) ;
#381 = CARTESIAN_POINT ( 'NONE',  ( 0.000000000000000000, 0.000000000000000000, 0.000000000000000000 ) ) ;
#382 = DIRECTION ( 'NONE',  ( -0.000000000000000000, -1.000000000000000000, 0.000000000000000000 ) ) ;
#383 = AXIS2_PLACEMENT_3D ( 'NONE', #210, #205, #478 ) ;
#384 = DATE_AND_TIME ( #532, #71 ) ;
#385 = ORIENTED_EDGE ( 'NONE', *, *, #650, .F. ) ;
#386 = ORIENTED_EDGE ( 'NONE', *, *, #89, .T. ) ;
#387 = PLANE ( 'NONE',  #586 ) ;
#388 = APPROVAL_DATE_TIME ( #169, #378 ) ;
#389 = AXIS2_PLACEMENT_3D ( 'NONE', #16, #7, #420 ) ;
#390 = CARTESIAN_POINT ( 'NONE',  ( 5.019999999999999574, 12.00000000000000000, -0.3500000000000130784 ) ) ;
#391 = CC_DESIGN_APPROVAL ( #286, ( #15 ) ) ;
#392 = ORIENTED_EDGE ( 'NONE', *, *, #164, .F. ) ;
#393 = FACE_OUTER_BOUND ( 'NONE', #617, .T. ) ;
#394 = ORIENTED_EDGE ( 'NONE', *, *, #28, .T. ) ;
#395 = CYLINDRICAL_SURFACE ( 'NONE', #168, 3.000000000000011102 ) ;
#396 = EDGE_LOOP ( 'NONE', ( #465, #202, #442, #321 ) ) ;
#397 = DESIGN_CONTEXT ( 'detailed design', #531, 'design' ) ;
#398 = LINE ( 'NONE', #498, #258 ) ;
#399 = ADVANCED_FACE ( 'CYL_4', ( #20, #263 ), #57, .T. ) ;
#400 = VECTOR ( 'NONE', #199, 1000.000000000000000 ) ;
#401 = AXIS2_PLACEMENT_3D ( 'NONE', #436, #320, #376 ) ;
#402 = EDGE_CURVE ( 'NONE', #79, #652, #68, .T. ) ;
#403 = DIRECTION ( 'NONE',  ( 0.000000000000000000, 0.000000000000000000, -1.000000000000000000 ) ) ;
#404 = CARTESIAN_POINT ( 'NONE',  ( 3.361687604822300113, 12.00000000000000000, 2.150000000000000355 ) ) ;
#405 = EDGE_LOOP ( 'NONE', ( #540, #460, #372, #511 ) ) ;
#406 = FACE_OUTER_BOUND ( 'NONE', #152, .T. ) ;
#407 = CARTESIAN_POINT ( 'NONE',  ( 1.678312395177699035, 4.000000000000000000, 2.149999999999999911 ) ) ;
#408 = AXIS2_PLACEMENT_3D ( 'NONE', #171, #159, #574 ) ;
#409 = ORIENTED_EDGE ( 'NONE', *, *, #379, .T. ) ;
#410 = LINE ( 'NONE', #161, #545 ) ;
#411 = EDGE_LOOP ( 'NONE', ( #464 ) ) ;
#412 = DIRECTION ( 'NONE',  ( 0.000000000000000000, 0.000000000000000000, 1.000000000000000000 ) ) ;
#413 = EDGE_CURVE ( 'NONE', #601, #601, #500, .T. ) ;
#414 = EDGE_LOOP ( 'NONE', ( #307, #43, #351, #394 ) ) ;
#415 = CARTESIAN_POINT ( 'NONE',  ( -7.720000000000001528, 4.000000000000000000, 2.149999999999999911 ) ) ;
#416 = CARTESIAN_POINT ( 'NONE',  ( 8.720000000000000639, 0.000000000000000000, -4.150000000000000355 ) ) ;
#417 = ORIENTED_EDGE ( 'NONE', *, *, #246, .F. ) ;
#418 = DIRECTION ( 'NONE',  ( -1.000000000000000000, 0.000000000000000000, 0.000000000000000000 ) ) ;
#419 = PRODUCT ( '00166_index_4', '00166_index_4', '', ( #322 ) ) ;
#420 = DIRECTION ( 'NONE',  ( 1.000000000000000000, 0.000000000000000000, -0.000000000000000000 ) ) ;
#421 = AXIS2_PLACEMENT_3D ( 'NONE', #222, #12, #624 ) ;
#422 = ADVANCED_FACE ( 'PLANAR_4', ( #629 ), #631, .F. ) ;
#423 = FACE_OUTER_BOUND ( 'NONE', #396, .T. ) ;
#424 = PLANE ( 'NONE',  #97 ) ;
#425 = CC_DESIGN_APPROVAL ( #21, ( #541 ) ) ;
#426 = LINE ( 'NONE', #113, #643 ) ;
#427 = DIRECTION ( 'NONE',  ( -1.000000000000000000, 0.000000000000000000, 0.000000000000000000 ) ) ;
#428 = EDGE_CURVE ( 'NONE', #566, #437, #514, .T. ) ;
#429 = ORIENTED_EDGE ( 'NONE', *, *, #246, .T. ) ;
#430 = DIRECTION ( 'NONE',  ( -0.000000000000000000, -1.000000000000000000, -0.000000000000000000 ) ) ;
#431 = FACE_OUTER_BOUND ( 'NONE', #414, .T. ) ;
#432 = CC_DESIGN_PERSON_AND_ORGANIZATION_ASSIGNMENT ( #75, #433, ( #541 ) ) ;
#433 = PERSON_AND_ORGANIZATION_ROLE ( 'creator' ) ;
#434 = DIRECTION ( 'NONE',  ( 0.000000000000000000, 0.000000000000000000, 1.000000000000000000 ) ) ;
#435 = DIRECTION ( 'NONE',  ( 0.000000000000000000, 0.000000000000000000, 1.000000000000000000 ) ) ;
#436 = CARTESIAN_POINT ( 'NONE',  ( 0.01999999999999961878, 4.000000000000000000, -0.3500000000000121902 ) ) ;
#437 = VERTEX_POINT ( 'NONE', #618 ) ;
#438 = AXIS2_PLACEMENT_3D ( 'NONE', #463, #348, #102 ) ;
#439 = DIRECTION ( 'NONE',  ( 0.000000000000000000, 0.000000000000000000, -1.000000000000000000 ) ) ;
#440 = VECTOR ( 'NONE', #427, 1000.000000000000000 ) ;
#441 = DATE_AND_TIME ( #228, #240 ) ;
#442 = ORIENTED_EDGE ( 'NONE', *, *, #243, .F. ) ;
#443 = CARTESIAN_POINT ( 'NONE',  ( -4.980000000000001315, 10.00000000000000000, -0.3499999999999999778 ) ) ;
#444 = ORIENTED_EDGE ( 'NONE', *, *, #243, .T. ) ;
#445 = FACE_OUTER_BOUND ( 'NONE', #160, .T. ) ;
#446 = LOCAL_TIME ( 0, 9, 8.000000000000000000, #224 ) ;
#447 = EDGE_LOOP ( 'NONE', ( #526 ) ) ;
#448 = ADVANCED_FACE ( 'PLANAR_8', ( #158 ), #567, .T. ) ;
#449 = DIRECTION ( 'NONE',  ( -1.000000000000000000, 0.000000000000000000, -0.000000000000000000 ) ) ;
#450 = CARTESIAN_POINT ( 'NONE',  ( -4.980000000000001315, 4.000000000000000000, 0.05000000000000018319 ) ) ;
#451 = EDGE_CURVE ( 'NONE', #167, #346, #314, .T. ) ;
#452 = ORIENTED_EDGE ( 'NONE', *, *, #451, .T. ) ;
#453 = EDGE_CURVE ( 'NONE', #136, #614, #50, .T. ) ;
#454 = CARTESIAN_POINT ( 'NONE',  ( -4.980000000000001315, 10.00000000000000000, -0.3499999999999999778 ) ) ;
#455 = CARTESIAN_POINT ( 'NONE',  ( -7.720000000000001528, 4.000000000000000000, -2.850000000000000533 ) ) ;
#456 = CARTESIAN_POINT ( 'NONE',  ( 1.678312395177698146, 12.00000000000000000, 2.150000000000000355 ) ) ;
#457 = AXIS2_PLACEMENT_3D ( 'NONE', #208, #101, #661 ) ;
#458 = CARTESIAN_POINT ( 'NONE',  ( -7.720000000000001528, 12.00000000000000000, 2.150000000000000355 ) ) ;
#459 = ORIENTED_EDGE ( 'NONE', *, *, #492, .F. ) ;
#460 = ORIENTED_EDGE ( 'NONE', *, *, #154, .T. ) ;
#461 = LINE ( 'NONE', #660, #59 ) ;
#462 = ADVANCED_FACE ( 'PLANAR_10', ( #562 ), #424, .T. ) ;
#463 = CARTESIAN_POINT ( 'NONE',  ( -3.321687604822301854, 12.00000000000000000, 2.150000000000000355 ) ) ;
#464 = ORIENTED_EDGE ( 'NONE', *, *, #533, .T. ) ;
#465 = ORIENTED_EDGE ( 'NONE', *, *, #184, .T. ) ;
#466 = CARTESIAN_POINT ( 'NONE',  ( -6.638312395177700331, 12.00000000000000000, 2.150000000000000355 ) ) ;
#467 = EDGE_LOOP ( 'NONE', ( #110 ) ) ;
#468 = CARTESIAN_POINT ( 'NONE',  ( -7.720000000000001528, 12.00000000000000000, 2.150000000000000355 ) ) ;
#469 = VECTOR ( 'NONE', #484, 1000.000000000000000 ) ;
#470 = DIRECTION ( 'NONE',  ( -0.000000000000000000, -1.000000000000000000, -0.000000000000000000 ) ) ;
#471 = DIRECTION ( 'NONE',  ( 0.000000000000000000, 0.000000000000000000, 1.000000000000000000 ) ) ;
#472 = LINE ( 'NONE', #306, #554 ) ;
#473 = DIRECTION ( 'NONE',  ( 0.000000000000000000, 0.000000000000000000, 1.000000000000000000 ) ) ;
#474 = VECTOR ( 'NONE', #162, 1000.000000000000000 ) ;
#475 = CARTESIAN_POINT ( 'NONE',  ( 6.678312395177698590, 12.00000000000000000, 2.150000000000000355 ) ) ;
#476 = ORIENTED_EDGE ( 'NONE', *, *, #402, .F. ) ;
#477 = CARTESIAN_POINT ( 'NONE',  ( -4.980000000000001315, 4.000000000000000000, -0.3499999999999999778 ) ) ;
#478 = DIRECTION ( 'NONE',  ( 0.000000000000000000, 0.000000000000000000, 1.000000000000000000 ) ) ;
#479 = PERSON_AND_ORGANIZATION ( #86, #151 ) ;
#480 = LINE ( 'NONE', #577, #609 ) ;
#481 = CARTESIAN_POINT ( 'NONE',  ( 7.720000000000001528, 4.000000000000000000, -2.850000000000000533 ) ) ;
#482 =( NAMED_UNIT ( * ) PLANE_ANGLE_UNIT ( ) SI_UNIT ( $, .RADIAN. ) );
#483 = ORIENTED_EDGE ( 'NONE', *, *, #289, .F. ) ;
#484 = DIRECTION ( 'NONE',  ( -0.000000000000000000, -1.000000000000000000, -0.000000000000000000 ) ) ;
#485 = APPROVAL_ROLE ( '' ) ;
#486 = VERTEX_POINT ( 'NONE', #565 ) ;
#487 = EDGE_CURVE ( 'NONE', #505, #167, #472, .T. ) ;
#488 = AXIS2_PLACEMENT_3D ( 'NONE', #98, #305, #449 ) ;
#489 = LINE ( 'NONE', #179, #329 ) ;
#490 = AXIS2_PLACEMENT_3D ( 'NONE', #443, #281, #591 ) ;
#491 = ORIENTED_EDGE ( 'NONE', *, *, #564, .F. ) ;
#492 = EDGE_CURVE ( 'NONE', #79, #80, #559, .T. ) ;
#493 = CYLINDRICAL_SURFACE ( 'NONE', #176, 3.000000000000010214 ) ;
#494 = EDGE_CURVE ( 'NONE', #52, #556, #10, .T. ) ;
#495 = ORIENTED_EDGE ( 'NONE', *, *, #451, .F. ) ;
#496 = UNCERTAINTY_MEASURE_WITH_UNIT (LENGTH_MEASURE( 1.000000000000000082E-05 ), #22, 'distance_accuracy_value', 'NONE');
#497 = AXIS2_PLACEMENT_3D ( 'NONE', #552, #241, #94 ) ;
#498 = CARTESIAN_POINT ( 'NONE',  ( -7.720000000000001528, 12.00000000000000000, 2.150000000000000355 ) ) ;
#499 = VERTEX_POINT ( 'NONE', #56 ) ;
#500 = CIRCLE ( 'NONE', #182, 0.4000000000000001887 ) ;
#501 = CYLINDRICAL_SURFACE ( 'NONE', #6, 0.4000000000000002442 ) ;
#502 = DIRECTION ( 'NONE',  ( -0.000000000000000000, -1.000000000000000000, -0.000000000000000000 ) ) ;
#503 = LINE ( 'NONE', #404, #244 ) ;
#504 = ORIENTED_EDGE ( 'NONE', *, *, #494, .T. ) ;
#505 = VERTEX_POINT ( 'NONE', #51 ) ;
#506 = CARTESIAN_POINT ( 'NONE',  ( -8.720000000000000639, 4.000000000000000000, 2.149999999999999911 ) ) ;
#507 = CARTESIAN_POINT ( 'NONE',  ( 8.720000000000000639, 12.00000000000000000, -4.150000000000000355 ) ) ;
#508 = EDGE_LOOP ( 'NONE', ( #483, #491, #104, #308 ) ) ;
#509 = ORIENTED_EDGE ( 'NONE', *, *, #487, .T. ) ;
#510 = DIRECTION ( 'NONE',  ( 1.000000000000000000, 0.000000000000000000, 0.000000000000000000 ) ) ;
#511 = ORIENTED_EDGE ( 'NONE', *, *, #368, .T. ) ;
#512 = CARTESIAN_POINT ( 'NONE',  ( -8.720000000000000639, 0.000000000000000000, -4.150000000000000355 ) ) ;
#513 = ADVANCED_FACE ( 'PLANAR_12', ( #103 ), #257, .T. ) ;
#514 = LINE ( 'NONE', #1, #129 ) ;
#515 = LINE ( 'NONE', #625, #551 ) ;
#516 = DIRECTION ( 'NONE',  ( -1.000000000000000000, 0.000000000000000000, 0.000000000000000000 ) ) ;
#517 =( GEOMETRIC_REPRESENTATION_CONTEXT ( 3 ) GLOBAL_UNCERTAINTY_ASSIGNED_CONTEXT ( ( #496 ) ) GLOBAL_UNIT_ASSIGNED_CONTEXT ( ( #22, #482, #180 ) ) REPRESENTATION_CONTEXT ( 'NONE', 'WORKASPACE' ) );
#518 = CIRCLE ( 'NONE', #401, 3.000000000000010214 ) ;
#519 = ADVANCED_FACE ( 'PLANAR_1', ( #406 ), #107, .F. ) ;
#520 = CARTESIAN_POINT ( 'NONE',  ( 5.019999999999999574, 10.00000000000000000, -0.3499999999999999778 ) ) ;
#521 = EDGE_CURVE ( 'NONE', #233, #566, #303, .T. ) ;
#522 = DIRECTION ( 'NONE',  ( 1.000000000000000000, 0.000000000000000000, 0.000000000000000000 ) ) ;
#523 = CARTESIAN_POINT ( 'NONE',  ( -8.720000000000000639, 0.000000000000000000, -4.150000000000000355 ) ) ;
#524 = AXIS2_PLACEMENT_3D ( 'NONE', #523, #108, #573 ) ;
#525 = DIRECTION ( 'NONE',  ( -0.000000000000000000, -1.000000000000000000, -0.000000000000000000 ) ) ;
#526 = ORIENTED_EDGE ( 'NONE', *, *, #106, .T. ) ;
#527 = APPLICATION_PROTOCOL_DEFINITION ( 'international standard', 'config_control_design', 1994, #531 ) ;
#528 = CC_DESIGN_SECURITY_CLASSIFICATION ( #15, ( #541 ) ) ;
#529 = FACE_OUTER_BOUND ( 'NONE', #411, .T. ) ;
#530 = CARTESIAN_POINT ( 'NONE',  ( -4.980000000000001315, 12.00000000000000000, -0.3500000000000130784 ) ) ;
#531 = APPLICATION_CONTEXT ( 'configuration controlled 3d designs of mechanical parts and assemblies' ) ;
#532 = CALENDAR_DATE ( 2022, 8, 11 ) ;
#533 = EDGE_CURVE ( 'NONE', #144, #144, #575, .T. ) ;
#534 = VECTOR ( 'NONE', #542, 1000.000000000000000 ) ;
#535 = CARTESIAN_POINT ( 'NONE',  ( -3.321687604822301854, 12.00000000000000000, 2.150000000000000355 ) ) ;
#536 = CARTESIAN_POINT ( 'NONE',  ( -4.980000000000001315, 12.00000000000000000, -0.3500000000000130784 ) ) ;
#537 = APPROVAL_STATUS ( 'not_yet_approved' ) ;
#538 = EDGE_CURVE ( 'NONE', #41, #334, #358, .T. ) ;
#539 = ORIENTED_EDGE ( 'NONE', *, *, #106, .F. ) ;
#540 = ORIENTED_EDGE ( 'NONE', *, *, #572, .T. ) ;
#541 = PRODUCT_DEFINITION_FORMATION_WITH_SPECIFIED_SOURCE ( '任何', '', #419, .NOT_KNOWN. ) ;
#542 = DIRECTION ( 'NONE',  ( 1.000000000000000000, 0.000000000000000000, 0.000000000000000000 ) ) ;
#543 = DATE_AND_TIME ( #77, #558 ) ;
#544 = EDGE_LOOP ( 'NONE', ( #444, #185, #248, #53 ) ) ;
#545 = VECTOR ( 'NONE', #615, 1000.000000000000000 ) ;
#546 = FACE_BOUND ( 'NONE', #467, .T. ) ;
#547 = CC_DESIGN_PERSON_AND_ORGANIZATION_ASSIGNMENT ( #277, #19, ( #419 ) ) ;
#548 = ORIENTED_EDGE ( 'NONE', *, *, #18, .T. ) ;
#549 = FACE_OUTER_BOUND ( 'NONE', #14, .T. ) ;
#550 = ORIENTED_EDGE ( 'NONE', *, *, #428, .F. ) ;
#551 = VECTOR ( 'NONE', #54, 1000.000000000000000 ) ;
#552 = CARTESIAN_POINT ( 'NONE',  ( 0.01999999999999961878, 12.00000000000000000, -0.3500000000000121902 ) ) ;
#553 = PLANE ( 'NONE',  #488 ) ;
#554 = VECTOR ( 'NONE', #621, 1000.000000000000000 ) ;
#555 = CARTESIAN_POINT ( 'NONE',  ( -7.720000000000001528, 12.00000000000000000, -2.850000000000000533 ) ) ;
#556 = VERTEX_POINT ( 'NONE', #249 ) ;
#557 = ORIENTED_EDGE ( 'NONE', *, *, #640, .T. ) ;
#558 = LOCAL_TIME ( 0, 9, 8.000000000000000000, #70 ) ;
#559 = LINE ( 'NONE', #212, #400 ) ;
#560 = EDGE_CURVE ( 'NONE', #233, #278, #461, .T. ) ;
#561 = CARTESIAN_POINT ( 'NONE',  ( 7.720000000000001528, 12.00000000000000000, 2.150000000000000355 ) ) ;
#562 = FACE_OUTER_BOUND ( 'NONE', #100, .T. ) ;
#563 = EDGE_LOOP ( 'NONE', ( #293, #636, #99, #55 ) ) ;
#564 = EDGE_CURVE ( 'NONE', #279, #278, #410, .T. ) ;
#565 = CARTESIAN_POINT ( 'NONE',  ( -7.720000000000001528, 12.00000000000000000, 2.150000000000000355 ) ) ;
#566 = VERTEX_POINT ( 'NONE', #111 ) ;
#567 = PLANE ( 'NONE',  #214 ) ;
#568 = LINE ( 'NONE', #619, #440 ) ;
#569 = ORIENTED_EDGE ( 'NONE', *, *, #344, .F. ) ;
#570 = DIRECTION ( 'NONE',  ( -0.000000000000000000, -1.000000000000000000, -0.000000000000000000 ) ) ;
#571 = ADVANCED_FACE ( 'PLANAR_9', ( #251 ), #153, .T. ) ;
#572 = EDGE_CURVE ( 'NONE', #486, #334, #189, .T. ) ;
#573 = DIRECTION ( 'NONE',  ( 0.000000000000000000, 0.000000000000000000, 1.000000000000000000 ) ) ;
#574 = DIRECTION ( 'NONE',  ( 0.000000000000000000, 0.000000000000000000, 1.000000000000000000 ) ) ;
#575 = CIRCLE ( 'NONE', #457, 0.4000000000000001887 ) ;
#576 = VECTOR ( 'NONE', #27, 1000.000000000000000 ) ;
#577 = CARTESIAN_POINT ( 'NONE',  ( -7.720000000000001528, 12.00000000000000000, -2.850000000000000533 ) ) ;
#578 = LINE ( 'NONE', #163, #259 ) ;
#579 = ORIENTED_EDGE ( 'NONE', *, *, #298, .F. ) ;
#580 = FACE_OUTER_BOUND ( 'NONE', #508, .T. ) ;
#581 = DIRECTION ( 'NONE',  ( 0.000000000000000000, 1.000000000000000000, 0.000000000000000000 ) ) ;
#582 = CALENDAR_DATE ( 2022, 8, 11 ) ;
#583 = EDGE_CURVE ( 'NONE', #437, #364, #44, .T. ) ;
#584 = CARTESIAN_POINT ( 'NONE',  ( -7.720000000000001528, 4.000000000000000000, -4.150000000000000355 ) ) ;
#585 = PERSON_AND_ORGANIZATION ( #86, #151 ) ;
#586 = AXIS2_PLACEMENT_3D ( 'NONE', #274, #593, #380 ) ;
#587 = DIRECTION ( 'NONE',  ( -1.000000000000000000, 0.000000000000000000, 0.000000000000000000 ) ) ;
#588 = APPROVAL_DATE_TIME ( #384, #21 ) ;
#589 = ORIENTED_EDGE ( 'NONE', *, *, #640, .F. ) ;
#590 = ORIENTED_EDGE ( 'NONE', *, *, #45, .F. ) ;
#591 = DIRECTION ( 'NONE',  ( 0.000000000000000000, -0.000000000000000000, 1.000000000000000000 ) ) ;
#592 = DATE_TIME_ROLE ( 'creation_date' ) ;
#593 = DIRECTION ( 'NONE',  ( 1.000000000000000000, 0.000000000000000000, 0.000000000000000000 ) ) ;
#594 = EDGE_LOOP ( 'NONE', ( #197 ) ) ;
#595 = PLANE ( 'NONE',  #490 ) ;
#596 = EDGE_LOOP ( 'NONE', ( #343, #177, #239, #495, #392, #359, #352, #659, #620, #105 ) ) ;
#597 = APPROVAL_DATE_TIME ( #441, #286 ) ;
#598 = CARTESIAN_POINT ( 'NONE',  ( -8.720000000000000639, 4.000000000000000000, 4.150000000000000355 ) ) ;
#599 = ORIENTED_EDGE ( 'NONE', *, *, #138, .F. ) ;
#600 = LINE ( 'NONE', #347, #291 ) ;
#601 = VERTEX_POINT ( 'NONE', #450 ) ;
#602 = VECTOR ( 'NONE', #353, 1000.000000000000000 ) ;
#603 = VECTOR ( 'NONE', #522, 1000.000000000000000 ) ;
#604 = EDGE_CURVE ( 'NONE', #663, #361, #196, .T. ) ;
#605 = CARTESIAN_POINT ( 'NONE',  ( 7.720000000000003304, 4.000000000000000000, 2.150000000000000799 ) ) ;
#606 = VERTEX_POINT ( 'NONE', #455 ) ;
#607 = ADVANCED_FACE ( 'PLANAR_11', ( #549 ), #553, .T. ) ;
#608 = CARTESIAN_POINT ( 'NONE',  ( 8.720000000000000639, 4.000000000000000000, -4.150000000000000355 ) ) ;
#609 = VECTOR ( 'NONE', #473, 1000.000000000000000 ) ;
#610 = CARTESIAN_POINT ( 'NONE',  ( 5.019999999999999574, 4.000000000000000000, 0.05000000000000018319 ) ) ;
#611 = VERTEX_POINT ( 'NONE', #555 ) ;
#612 = CC_DESIGN_PERSON_AND_ORGANIZATION_ASSIGNMENT ( #632, #373, ( #137 ) ) ;
#613 = DIRECTION ( 'NONE',  ( -1.000000000000000000, 0.000000000000000000, -0.000000000000000000 ) ) ;
#614 = VERTEX_POINT ( 'NONE', #605 ) ;
#615 = DIRECTION ( 'NONE',  ( 0.000000000000000000, 0.000000000000000000, -1.000000000000000000 ) ) ;
#616 = CIRCLE ( 'NONE', #497, 3.000000000000010214 ) ;
#617 = EDGE_LOOP ( 'NONE', ( #429 ) ) ;
#618 = CARTESIAN_POINT ( 'NONE',  ( -8.720000000000000639, 12.00000000000000000, 4.150000000000000355 ) ) ;
#619 = CARTESIAN_POINT ( 'NONE',  ( -8.720000000000000639, 4.000000000000000000, 2.149999999999999911 ) ) ;
#620 = ORIENTED_EDGE ( 'NONE', *, *, #453, .F. ) ;
#621 = DIRECTION ( 'NONE',  ( -0.000000000000000000, -1.000000000000000000, -0.000000000000000000 ) ) ;
#622 = CARTESIAN_POINT ( 'NONE',  ( 7.719999999999999751, 12.00000000000000000, -2.850000000000000533 ) ) ;
#623 = DIRECTION ( 'NONE',  ( 0.000000000000000000, 0.000000000000000000, -1.000000000000000000 ) ) ;
#624 = DIRECTION ( 'NONE',  ( 0.000000000000000000, 0.000000000000000000, -1.000000000000000000 ) ) ;
#625 = CARTESIAN_POINT ( 'NONE',  ( 7.720000000000001528, 12.00000000000000000, -2.850000000000000533 ) ) ;
#626 = ORIENTED_EDGE ( 'NONE', *, *, #18, .F. ) ;
#627 = CALENDAR_DATE ( 2022, 8, 11 ) ;
#628 = AXIS2_PLACEMENT_3D ( 'NONE', #598, #356, #139 ) ;
#629 = FACE_OUTER_BOUND ( 'NONE', #563, .T. ) ;
#630 = FACE_BOUND ( 'NONE', #313, .T. ) ;
#631 = PLANE ( 'NONE',  #42 ) ;
#632 = PERSON_AND_ORGANIZATION ( #86, #151 ) ;
#633 = ADVANCED_FACE ( 'CYL_2', ( #648 ), #395, .F. ) ;
#634 = FACE_BOUND ( 'NONE', #447, .T. ) ;
#635 = DIRECTION ( 'NONE',  ( 1.000000000000000000, 0.000000000000000000, 0.000000000000000000 ) ) ;
#636 = ORIENTED_EDGE ( 'NONE', *, *, #560, .F. ) ;
#637 = CIRCLE ( 'NONE', #91, 0.4000000000000001887 ) ;
#638 = DIRECTION ( 'NONE',  ( 0.000000000000000000, 0.000000000000000000, 1.000000000000000000 ) ) ;
#639 = EDGE_CURVE ( 'NONE', #566, #52, #95, .T. ) ;
#640 = EDGE_CURVE ( 'NONE', #80, #644, #503, .T. ) ;
#641 = ORIENTED_EDGE ( 'NONE', *, *, #639, .F. ) ;
#642 = CARTESIAN_POINT ( 'NONE',  ( -8.720000000000000639, 4.000000000000000000, -4.150000000000000355 ) ) ;
#643 = VECTOR ( 'NONE', #430, 1000.000000000000000 ) ;
#644 = VERTEX_POINT ( 'NONE', #146 ) ;
#645 = LINE ( 'NONE', #186, #469 ) ;
#646 = ADVANCED_FACE ( 'PLANAR_3', ( #47 ), #349, .F. ) ;
#647 = ORIENTED_EDGE ( 'NONE', *, *, #45, .T. ) ;
#648 = FACE_OUTER_BOUND ( 'NONE', #131, .T. ) ;
#649 = DIRECTION ( 'NONE',  ( 1.000000000000000000, 0.000000000000000000, 0.000000000000000000 ) ) ;
#650 = EDGE_CURVE ( 'NONE', #486, #226, #398, .T. ) ;
#651 = ORIENTED_EDGE ( 'NONE', *, *, #211, .T. ) ;
#652 = VERTEX_POINT ( 'NONE', #407 ) ;
#653 = DIRECTION ( 'NONE',  ( 0.000000000000000000, 0.000000000000000000, -1.000000000000000000 ) ) ;
#654 = VECTOR ( 'NONE', #242, 1000.000000000000000 ) ;
#655 = CIRCLE ( 'NONE', #290, 0.4000000000000001887 ) ;
#656 = DIRECTION ( 'NONE',  ( 0.000000000000000000, 0.000000000000000000, -1.000000000000000000 ) ) ;
#657 = CARTESIAN_POINT ( 'NONE',  ( -8.720000000000000639, 12.00000000000000000, 4.150000000000000355 ) ) ;
#658 = ORIENTED_EDGE ( 'NONE', *, *, #492, .T. ) ;
#659 = ORIENTED_EDGE ( 'NONE', *, *, #213, .F. ) ;
#660 = CARTESIAN_POINT ( 'NONE',  ( 8.720000000000000639, 4.000000000000000000, -4.150000000000000355 ) ) ;
#661 = DIRECTION ( 'NONE',  ( 0.000000000000000000, 0.000000000000000000, 1.000000000000000000 ) ) ;
#662 = ORIENTED_EDGE ( 'NONE', *, *, #89, .F. ) ;
#663 = VERTEX_POINT ( 'NONE', #245 ) ;
ENDSEC;
END-ISO-10303-21;
