ISO-10303-21;
HEADER;
FILE_DESCRIPTION (( 'STEP AP203' ),
    '1' );
FILE_NAME ('00313_index_1.step',
    '2022-11-07T16:41:30',
    ( '' ),
    ( '' ),
    'SwSTEP 2.0',
    'SolidWorks 2020',
    '' );
FILE_SCHEMA (( 'CONFIG_CONTROL_DESIGN' ));
ENDSEC;

DATA;
#1 = VERTEX_POINT ( 'NONE', #482 ) ;
#2 = ADVANCED_FACE ( 'NONE', ( #427, #72 ), #231, .T. ) ;
#3 = UNCERTAINTY_MEASURE_WITH_UNIT (LENGTH_MEASURE( 1.000000000000000082E-05 ), #208, 'distance_accuracy_value', 'NONE');
#4 = FACE_OUTER_BOUND ( 'NONE', #21, .T. ) ;
#5 = ORIENTED_EDGE ( 'NONE', *, *, #216, .T. ) ;
#6 = DIRECTION ( 'NONE',  ( 0.000000000000000000, -1.000000000000000000, 0.000000000000000000 ) ) ;
#7 = FACE_OUTER_BOUND ( 'NONE', #241, .T. ) ;
#8 = LINE ( 'NONE', #350, #365 ) ;
#9 = ORIENTED_EDGE ( 'NONE', *, *, #35, .T. ) ;
#10 = MECHANICAL_CONTEXT ( 'NONE', #20, 'mechanical' ) ;
#11 = CIRCLE ( 'NONE', #155, 12.50000000000000355 ) ;
#12 = EDGE_LOOP ( 'NONE', ( #5, #373, #141, #264 ) ) ;
#13 = EDGE_CURVE ( 'NONE', #169, #481, #274, .T. ) ;
#14 = CALENDAR_DATE ( 2022, 8, 11 ) ;
#15 = CARTESIAN_POINT ( 'NONE',  ( -41.26278394209109734, 0.000000000000000000, 3.257550000000001500 ) ) ;
#16 = SECURITY_CLASSIFICATION_LEVEL ( 'unclassified' ) ;
#17 = PERSON_AND_ORGANIZATION_ROLE ( 'design_supplier' ) ;
#18 = VECTOR ( 'NONE', #185, 1000.000000000000000 ) ;
#19 = AXIS2_PLACEMENT_3D ( 'NONE', #192, #277, #121 ) ;
#20 = APPLICATION_CONTEXT ( 'configuration controlled 3d designs of mechanical parts and assemblies' ) ;
#21 = EDGE_LOOP ( 'NONE', ( #273, #62, #205, #101 ) ) ;
#22 = DIRECTION ( 'NONE',  ( -1.000000000000000000, 0.000000000000000000, 0.000000000000000000 ) ) ;
#23 = ORIENTED_EDGE ( 'NONE', *, *, #456, .F. ) ;
#24 = FACE_OUTER_BOUND ( 'NONE', #416, .T. ) ;
#25 = DIRECTION ( 'NONE',  ( 1.000000000000000000, 0.000000000000000000, -0.000000000000000000 ) ) ;
#26 = CARTESIAN_POINT ( 'NONE',  ( 0.000000000000000000, 31.73778394209109877, 28.42259999999999565 ) ) ;
#27 = DIRECTION ( 'NONE',  ( -0.000000000000000000, -0.000000000000000000, -1.000000000000000000 ) ) ;
#28 = VECTOR ( 'NONE', #75, 1000.000000000000000 ) ;
#29 = EDGE_CURVE ( 'NONE', #441, #441, #227, .T. ) ;
#30 = EDGE_LOOP ( 'NONE', ( #500, #266, #206, #44 ) ) ;
#31 = CARTESIAN_POINT ( 'NONE',  ( 0.000000000000000000, 0.000000000000000000, 6.400800000000000267 ) ) ;
#32 = VERTEX_POINT ( 'NONE', #188 ) ;
#33 = DIRECTION ( 'NONE',  ( -1.000000000000000000, 0.000000000000000000, 0.000000000000000000 ) ) ;
#34 = DIRECTION ( 'NONE',  ( -0.000000000000000000, -0.000000000000000000, -1.000000000000000000 ) ) ;
#35 = EDGE_CURVE ( 'NONE', #85, #85, #352, .T. ) ;
#36 = CARTESIAN_POINT ( 'NONE',  ( 0.000000000000000000, 0.000000000000000000, 15.93999999999999950 ) ) ;
#37 = FACE_OUTER_BOUND ( 'NONE', #346, .T. ) ;
#38 = AXIS2_PLACEMENT_3D ( 'NONE', #31, #387, #240 ) ;
#39 = DIRECTION ( 'NONE',  ( 1.000000000000000000, 0.000000000000000000, 0.000000000000000000 ) ) ;
#40 = DIRECTION ( 'NONE',  ( -0.000000000000000000, -0.000000000000000000, -1.000000000000000000 ) ) ;
#41 = ORIENTED_EDGE ( 'NONE', *, *, #374, .T. ) ;
#42 = DIRECTION ( 'NONE',  ( -1.000000000000000000, 0.000000000000000000, 0.000000000000000000 ) ) ;
#43 = DIRECTION ( 'NONE',  ( -0.000000000000000000, -0.000000000000000000, -1.000000000000000000 ) ) ;
#44 = ORIENTED_EDGE ( 'NONE', *, *, #125, .F. ) ;
#45 = EDGE_CURVE ( 'NONE', #404, #89, #272, .T. ) ;
#46 = VERTEX_POINT ( 'NONE', #332 ) ;
#47 = APPROVAL_DATE_TIME ( #214, #209 ) ;
#48 = CIRCLE ( 'NONE', #251, 41.26278394209109734 ) ;
#49 = AXIS2_PLACEMENT_3D ( 'NONE', #443, #252, #90 ) ;
#50 = ORIENTED_EDGE ( 'NONE', *, *, #143, .T. ) ;
#51 = PERSON_AND_ORGANIZATION_ROLE ( 'design_owner' ) ;
#52 = CALENDAR_DATE ( 2022, 8, 11 ) ;
#53 = ADVANCED_FACE ( 'NONE', ( #345, #109 ), #56, .F. ) ;
#54 = COORDINATED_UNIVERSAL_TIME_OFFSET ( 8, 0, .AHEAD. ) ;
#55 = PERSON_AND_ORGANIZATION ( #103, #134 ) ;
#56 = TOROIDAL_SURFACE ( 'NONE', #178, 26.76978394209110235, 0.7619999999999987894 ) ;
#57 =( GEOMETRIC_REPRESENTATION_CONTEXT ( 3 ) GLOBAL_UNCERTAINTY_ASSIGNED_CONTEXT ( ( #3 ) ) GLOBAL_UNIT_ASSIGNED_CONTEXT ( ( #208, #211, #445 ) ) REPRESENTATION_CONTEXT ( 'NONE', 'WORKASPACE' ) );
#58 = COORDINATED_UNIVERSAL_TIME_OFFSET ( 8, 0, .AHEAD. ) ;
#59 = ORIENTED_EDGE ( 'NONE', *, *, #430, .F. ) ;
#60 = FACE_BOUND ( 'NONE', #30, .T. ) ;
#61 = PRODUCT_RELATED_PRODUCT_CATEGORY ( 'detail', '', ( #96 ) ) ;
#62 = ORIENTED_EDGE ( 'NONE', *, *, #13, .F. ) ;
#63 = CC_DESIGN_PERSON_AND_ORGANIZATION_ASSIGNMENT ( #491, #328, ( #275 ) ) ;
#64 = FACE_BOUND ( 'NONE', #246, .T. ) ;
#65 = FACE_OUTER_BOUND ( 'NONE', #12, .T. ) ;
#66 = FACE_OUTER_BOUND ( 'NONE', #364, .T. ) ;
#67 = ADVANCED_FACE ( 'NONE', ( #304 ), #151, .F. ) ;
#68 = ORIENTED_EDGE ( 'NONE', *, *, #421, .T. ) ;
#69 = CARTESIAN_POINT ( 'NONE',  ( -4.000000000000000000, 15.80000000000000071, 28.42260000000000275 ) ) ;
#70 = AXIS2_PLACEMENT_3D ( 'NONE', #157, #348, #470 ) ;
#71 = AXIS2_PLACEMENT_3D ( 'NONE', #392, #40, #476 ) ;
#72 = FACE_OUTER_BOUND ( 'NONE', #150, .T. ) ;
#73 = DIRECTION ( 'NONE',  ( 1.000000000000000000, 0.000000000000000000, 0.000000000000000000 ) ) ;
#74 = FACE_OUTER_BOUND ( 'NONE', #271, .T. ) ;
#75 = DIRECTION ( 'NONE',  ( -0.000000000000000000, -0.000000000000000000, -1.000000000000000000 ) ) ;
#76 = CARTESIAN_POINT ( 'NONE',  ( 0.000000000000000000, 26.76978394209110945, 17.14499999999999957 ) ) ;
#77 = CARTESIAN_POINT ( 'NONE',  ( 4.000000000000000000, 15.80000000000000071, -21.57879999999999754 ) ) ;
#78 = CARTESIAN_POINT ( 'NONE',  ( -41.26278394209109734, 0.000000000000000000, -3.257550000000001500 ) ) ;
#79 = DIRECTION ( 'NONE',  ( -1.000000000000000000, 0.000000000000000000, 0.000000000000000000 ) ) ;
#80 = ORIENTED_EDGE ( 'NONE', *, *, #329, .F. ) ;
#81 = LOCAL_TIME ( 0, 41, 30.00000000000000000, #371 ) ;
#82 = CARTESIAN_POINT ( 'NONE',  ( 0.000000000000000000, 0.000000000000000000, -5.638799999999999812 ) ) ;
#83 = FACE_BOUND ( 'NONE', #474, .T. ) ;
#84 = ORIENTED_EDGE ( 'NONE', *, *, #323, .T. ) ;
#85 = VERTEX_POINT ( 'NONE', #511 ) ;
#86 = ADVANCED_FACE ( 'NONE', ( #306, #74 ), #233, .T. ) ;
#87 = EDGE_LOOP ( 'NONE', ( #385 ) ) ;
#88 = CARTESIAN_POINT ( 'NONE',  ( -31.73778394209109877, 0.000000000000000000, 17.14500000000000313 ) ) ;
#89 = VERTEX_POINT ( 'NONE', #183 ) ;
#90 = DIRECTION ( 'NONE',  ( 1.000000000000000000, 0.000000000000000000, 0.000000000000000000 ) ) ;
#91 = VECTOR ( 'NONE', #424, 1000.000000000000000 ) ;
#92 = PERSON_AND_ORGANIZATION_ROLE ( 'classification_officer' ) ;
#93 = VECTOR ( 'NONE', #6, 1000.000000000000000 ) ;
#94 = ADVANCED_FACE ( 'NONE', ( #220, #503 ), #333, .T. ) ;
#95 = PERSON_AND_ORGANIZATION ( #103, #134 ) ;
#96 = PRODUCT ( '00313_index_1', '00313_index_1', '', ( #10 ) ) ;
#97 = VERTEX_POINT ( 'NONE', #327 ) ;
#98 = AXIS2_PLACEMENT_3D ( 'NONE', #313, #307, #315 ) ;
#99 = DIRECTION ( 'NONE',  ( 0.000000000000000000, 0.000000000000000000, -1.000000000000000000 ) ) ;
#100 = EDGE_CURVE ( 'NONE', #89, #316, #11, .T. ) ;
#101 = ORIENTED_EDGE ( 'NONE', *, *, #259, .T. ) ;
#102 = CARTESIAN_POINT ( 'NONE',  ( 0.000000000000000000, 31.73778394209109877, 5.638799999999999812 ) ) ;
#103 = PERSON ( '未指定', '未指定', '未指定', ('未指定'), ('未指定'), ('未指定') ) ;
#104 = EDGE_LOOP ( 'NONE', ( #80 ) ) ;
#105 = DIRECTION ( 'NONE',  ( -1.000000000000000000, 0.000000000000000000, 0.000000000000000000 ) ) ;
#106 = DIRECTION ( 'NONE',  ( -1.000000000000000000, 0.000000000000000000, 0.000000000000000000 ) ) ;
#107 = ADVANCED_FACE ( 'NONE', ( #65 ), #177, .F. ) ;
#108 = ORIENTED_EDGE ( 'NONE', *, *, #311, .T. ) ;
#109 = FACE_OUTER_BOUND ( 'NONE', #87, .T. ) ;
#110 = ORIENTED_EDGE ( 'NONE', *, *, #29, .T. ) ;
#111 = DIRECTION ( 'NONE',  ( -1.000000000000000000, 0.000000000000000000, 0.000000000000000000 ) ) ;
#112 = CIRCLE ( 'NONE', #98, 31.73778394209109877 ) ;
#113 = CC_DESIGN_APPROVAL ( #209, ( #215 ) ) ;
#114 = LINE ( 'NONE', #351, #411 ) ;
#115 = VERTEX_POINT ( 'NONE', #235 ) ;
#116 = FACE_OUTER_BOUND ( 'NONE', #414, .T. ) ;
#117 = CARTESIAN_POINT ( 'NONE',  ( 0.000000000000000000, 0.000000000000000000, -22.55519999999999925 ) ) ;
#118 = DESIGN_CONTEXT ( 'detailed design', #286, 'design' ) ;
#119 = DIRECTION ( 'NONE',  ( -1.000000000000000000, 0.000000000000000000, 0.000000000000000000 ) ) ;
#120 = ORIENTED_EDGE ( 'NONE', *, *, #100, .T. ) ;
#121 = DIRECTION ( 'NONE',  ( 1.000000000000000000, 0.000000000000000000, 0.000000000000000000 ) ) ;
#122 = CARTESIAN_POINT ( 'NONE',  ( 4.000000000000000000, 15.80000000000000071, 28.42260000000000275 ) ) ;
#123 = AXIS2_PLACEMENT_3D ( 'NONE', #383, #184, #341 ) ;
#124 = ORIENTED_EDGE ( 'NONE', *, *, #406, .T. ) ;
#125 = EDGE_CURVE ( 'NONE', #164, #481, #144, .T. ) ;
#126 = CYLINDRICAL_SURFACE ( 'NONE', #497, 26.00778388977050781 ) ;
#127 = ORIENTED_EDGE ( 'NONE', *, *, #45, .F. ) ;
#128 = VERTEX_POINT ( 'NONE', #15 ) ;
#129 = ORIENTED_EDGE ( 'NONE', *, *, #399, .T. ) ;
#130 = CALENDAR_DATE ( 2022, 8, 11 ) ;
#131 = ADVANCED_FACE ( 'NONE', ( #64, #24 ), #297, .T. ) ;
#132 = AXIS2_PLACEMENT_3D ( 'NONE', #429, #508, #111 ) ;
#133 = SHAPE_DEFINITION_REPRESENTATION ( #293, #483 ) ;
#134 = ORGANIZATION ( '未指定', '未指定', '' ) ;
#135 = DIRECTION ( 'NONE',  ( 0.000000000000000000, -0.000000000000000000, 1.000000000000000000 ) ) ;
#136 = EDGE_CURVE ( 'NONE', #194, #194, #425, .T. ) ;
#137 = AXIS2_PLACEMENT_3D ( 'NONE', #204, #152, #79 ) ;
#138 = AXIS2_PLACEMENT_3D ( 'NONE', #117, #199, #357 ) ;
#139 = ORIENTED_EDGE ( 'NONE', *, *, #323, .F. ) ;
#140 = CARTESIAN_POINT ( 'NONE',  ( -4.000000000000000000, 15.80000000000000071, -21.57879999999999754 ) ) ;
#141 = ORIENTED_EDGE ( 'NONE', *, *, #399, .F. ) ;
#142 = FACE_OUTER_BOUND ( 'NONE', #289, .T. ) ;
#143 = EDGE_CURVE ( 'NONE', #115, #115, #295, .T. ) ;
#144 = LINE ( 'NONE', #140, #291 ) ;
#145 = AXIS2_PLACEMENT_3D ( 'NONE', #381, #458, #498 ) ;
#146 = APPROVAL_PERSON_ORGANIZATION ( #55, #413, #366 ) ;
#147 = FACE_OUTER_BOUND ( 'NONE', #176, .T. ) ;
#148 = EDGE_LOOP ( 'NONE', ( #110 ) ) ;
#149 = DIRECTION ( 'NONE',  ( -1.000000000000000000, 0.000000000000000000, 0.000000000000000000 ) ) ;
#150 = EDGE_LOOP ( 'NONE', ( #361 ) ) ;
#151 = CYLINDRICAL_SURFACE ( 'NONE', #132, 12.50000000000000355 ) ;
#152 = DIRECTION ( 'NONE',  ( 0.000000000000000000, 0.000000000000000000, -1.000000000000000000 ) ) ;
#153 = ADVANCED_FACE ( 'NONE', ( #60, #501 ), #375, .F. ) ;
#154 = CARTESIAN_POINT ( 'NONE',  ( -26.00778394209110189, 0.000000000000000000, 6.400800000000004708 ) ) ;
#155 = AXIS2_PLACEMENT_3D ( 'NONE', #378, #99, #22 ) ;
#156 = CIRCLE ( 'NONE', #19, 26.00778388977050781 ) ;
#157 = CARTESIAN_POINT ( 'NONE',  ( 0.000000000000000000, 0.000000000000000000, -22.55519999999999925 ) ) ;
#158 = DIRECTION ( 'NONE',  ( -0.000000000000000000, -0.000000000000000000, -1.000000000000000000 ) ) ;
#159 = CARTESIAN_POINT ( 'NONE',  ( 0.000000000000000000, 0.000000000000000000, 26.04135000000000133 ) ) ;
#160 = ORIENTED_EDGE ( 'NONE', *, *, #456, .T. ) ;
#161 = PLANE ( 'NONE',  #330 ) ;
#162 = CARTESIAN_POINT ( 'NONE',  ( 0.000000000000000000, 0.000000000000000000, 26.04135000000000133 ) ) ;
#163 = ADVANCED_FACE ( 'NONE', ( #263, #142 ), #268, .T. ) ;
#164 = VERTEX_POINT ( 'NONE', #267 ) ;
#165 = CARTESIAN_POINT ( 'NONE',  ( 0.000000000000000000, 0.000000000000000000, -5.638799999999999812 ) ) ;
#166 = ORIENTED_EDGE ( 'NONE', *, *, #421, .F. ) ;
#167 = CIRCLE ( 'NONE', #137, 12.50000000000000355 ) ;
#168 = VERTEX_POINT ( 'NONE', #325 ) ;
#169 = VERTEX_POINT ( 'NONE', #418 ) ;
#170 = PERSON_AND_ORGANIZATION ( #103, #134 ) ;
#171 = VERTEX_POINT ( 'NONE', #403 ) ;
#172 = DATE_AND_TIME ( #261, #196 ) ;
#173 = COORDINATED_UNIVERSAL_TIME_OFFSET ( 8, 0, .AHEAD. ) ;
#174 = EDGE_CURVE ( 'NONE', #1, #1, #488, .T. ) ;
#175 = DIRECTION ( 'NONE',  ( 1.000000000000000000, 0.000000000000000000, 0.000000000000000000 ) ) ;
#176 = EDGE_LOOP ( 'NONE', ( #198 ) ) ;
#177 = PLANE ( 'NONE',  #145 ) ;
#178 = AXIS2_PLACEMENT_3D ( 'NONE', #347, #390, #462 ) ;
#179 = CC_DESIGN_SECURITY_CLASSIFICATION ( #215, ( #275 ) ) ;
#180 = EDGE_LOOP ( 'NONE', ( #68 ) ) ;
#181 = DIRECTION ( 'NONE',  ( -0.000000000000000000, -0.000000000000000000, -1.000000000000000000 ) ) ;
#182 = ADVANCED_FACE ( 'NONE', ( #66, #225 ), #363, .T. ) ;
#183 = CARTESIAN_POINT ( 'NONE',  ( 4.000000000000000000, 11.84271928232701576, 28.42260000000000275 ) ) ;
#184 = DIRECTION ( 'NONE',  ( 0.000000000000000000, 0.000000000000000000, 1.000000000000000000 ) ) ;
#185 = DIRECTION ( 'NONE',  ( -0.000000000000000000, -0.000000000000000000, -1.000000000000000000 ) ) ;
#186 = CC_DESIGN_APPROVAL ( #413, ( #275 ) ) ;
#187 = ORIENTED_EDGE ( 'NONE', *, *, #437, .T. ) ;
#188 = CARTESIAN_POINT ( 'NONE',  ( 4.000000000000000000, 11.84271928232701576, -21.57879999999999754 ) ) ;
#189 = CC_DESIGN_PERSON_AND_ORGANIZATION_ASSIGNMENT ( #257, #410, ( #288 ) ) ;
#190 = FACE_BOUND ( 'NONE', #180, .T. ) ;
#191 = DIRECTION ( 'NONE',  ( -1.000000000000000000, 0.000000000000000000, 0.000000000000000000 ) ) ;
#192 = CARTESIAN_POINT ( 'NONE',  ( 0.000000000000000000, 0.000000000000000000, -21.57879999999999754 ) ) ;
#193 = LINE ( 'NONE', #509, #28 ) ;
#194 = VERTEX_POINT ( 'NONE', #154 ) ;
#195 = AXIS2_PLACEMENT_3D ( 'NONE', #301, #135, #175 ) ;
#196 = LOCAL_TIME ( 0, 41, 30.00000000000000000, #54 ) ;
#197 = DIRECTION ( 'NONE',  ( 1.000000000000000000, 0.000000000000000000, -0.000000000000000000 ) ) ;
#198 = ORIENTED_EDGE ( 'NONE', *, *, #136, .T. ) ;
#199 = DIRECTION ( 'NONE',  ( -0.000000000000000000, -0.000000000000000000, -1.000000000000000000 ) ) ;
#200 = ADVANCED_FACE ( 'NONE', ( #147, #453 ), #467, .F. ) ;
#201 = DIRECTION ( 'NONE',  ( 0.000000000000000000, 0.000000000000000000, 1.000000000000000000 ) ) ;
#202 = CARTESIAN_POINT ( 'NONE',  ( 4.000000000000000000, 15.80000000000000071, -21.57879999999999754 ) ) ;
#203 = EDGE_LOOP ( 'NONE', ( #442 ) ) ;
#204 = CARTESIAN_POINT ( 'NONE',  ( 0.000000000000000000, 0.000000000000000000, -21.57879999999999754 ) ) ;
#205 = ORIENTED_EDGE ( 'NONE', *, *, #237, .F. ) ;
#206 = ORIENTED_EDGE ( 'NONE', *, *, #216, .F. ) ;
#207 = CIRCLE ( 'NONE', #495, 41.26278394209109734 ) ;
#208 =( LENGTH_UNIT ( ) NAMED_UNIT ( * ) SI_UNIT ( .MILLI., .METRE. ) );
#209 = APPROVAL ( #493, '未指定' ) ;
#210 = EDGE_LOOP ( 'NONE', ( #108, #504, #334, #284 ) ) ;
#211 =( NAMED_UNIT ( * ) PLANE_ANGLE_UNIT ( ) SI_UNIT ( $, .RADIAN. ) );
#212 = DATE_AND_TIME ( #52, #380 ) ;
#213 = CARTESIAN_POINT ( 'NONE',  ( -31.73778394209109877, 0.000000000000000000, 28.42260000000000275 ) ) ;
#214 = DATE_AND_TIME ( #451, #438 ) ;
#215 = SECURITY_CLASSIFICATION ( '', '', #16 ) ;
#216 = EDGE_CURVE ( 'NONE', #481, #296, #114, .T. ) ;
#217 = EDGE_LOOP ( 'NONE', ( #477, #120, #303, #129 ) ) ;
#218 = DIRECTION ( 'NONE',  ( -0.000000000000000000, 0.000000000000000000, -1.000000000000000000 ) ) ;
#219 = ORIENTED_EDGE ( 'NONE', *, *, #278, .F. ) ;
#220 = FACE_OUTER_BOUND ( 'NONE', #356, .T. ) ;
#221 = ADVANCED_FACE ( 'NONE', ( #190, #276 ), #478, .T. ) ;
#222 = AXIS2_PLACEMENT_3D ( 'NONE', #265, #339, #340 ) ;
#223 = CIRCLE ( 'NONE', #344, 31.73778394209109877 ) ;
#224 = DIRECTION ( 'NONE',  ( -1.000000000000000000, 0.000000000000000000, 0.000000000000000000 ) ) ;
#225 = FACE_BOUND ( 'NONE', #262, .T. ) ;
#226 = ORIENTED_EDGE ( 'NONE', *, *, #472, .T. ) ;
#227 = CIRCLE ( 'NONE', #336, 41.26278394209109734 ) ;
#228 = CARTESIAN_POINT ( 'NONE',  ( 0.000000000000000000, 0.000000000000000000, -3.257550000000001500 ) ) ;
#229 = CIRCLE ( 'NONE', #353, 31.73778394209109877 ) ;
#230 = APPROVAL ( #255, '未指定' ) ;
#231 = CYLINDRICAL_SURFACE ( 'NONE', #309, 41.26278394209109734 ) ;
#232 = DIRECTION ( 'NONE',  ( -0.000000000000000000, -0.000000000000000000, 1.000000000000000000 ) ) ;
#233 = PLANE ( 'NONE',  #419 ) ;
#234 = DIRECTION ( 'NONE',  ( -1.000000000000000000, 0.000000000000000000, 0.000000000000000000 ) ) ;
#235 = CARTESIAN_POINT ( 'NONE',  ( -26.76978394209110945, 0.000000000000000000, 17.14500000000000313 ) ) ;
#236 = PLANE ( 'NONE',  #489 ) ;
#237 = EDGE_CURVE ( 'NONE', #316, #169, #435, .T. ) ;
#238 = FACE_OUTER_BOUND ( 'NONE', #321, .T. ) ;
#239 = CIRCLE ( 'NONE', #312, 31.73778394209109877 ) ;
#240 = DIRECTION ( 'NONE',  ( -1.000000000000000000, 0.000000000000000000, 0.000000000000000000 ) ) ;
#241 = EDGE_LOOP ( 'NONE', ( #9 ) ) ;
#242 = DIRECTION ( 'NONE',  ( 0.000000000000000000, 0.000000000000000000, 1.000000000000000000 ) ) ;
#243 = DIRECTION ( 'NONE',  ( -0.000000000000000000, 1.000000000000000000, -0.000000000000000000 ) ) ;
#244 = ORIENTED_EDGE ( 'NONE', *, *, #143, .F. ) ;
#245 = CARTESIAN_POINT ( 'NONE',  ( 4.000000000000000000, 15.80000000000000071, 28.42260000000000275 ) ) ;
#246 = EDGE_LOOP ( 'NONE', ( #454 ) ) ;
#247 = VERTEX_POINT ( 'NONE', #213 ) ;
#248 = APPROVAL_DATE_TIME ( #326, #413 ) ;
#249 = ORIENTED_EDGE ( 'NONE', *, *, #337, .T. ) ;
#250 = CC_DESIGN_DATE_AND_TIME_ASSIGNMENT ( #172, #256, ( #288 ) ) ;
#251 = AXIS2_PLACEMENT_3D ( 'NONE', #159, #34, #234 ) ;
#252 = DIRECTION ( 'NONE',  ( 0.000000000000000000, 0.000000000000000000, 1.000000000000000000 ) ) ;
#253 = VECTOR ( 'NONE', #401, 1000.000000000000000 ) ;
#254 = APPROVAL_ROLE ( '' ) ;
#255 = APPROVAL_STATUS ( 'not_yet_approved' ) ;
#256 = DATE_TIME_ROLE ( 'creation_date' ) ;
#257 = PERSON_AND_ORGANIZATION ( #103, #134 ) ;
#258 = APPROVAL_STATUS ( 'not_yet_approved' ) ;
#259 = EDGE_CURVE ( 'NONE', #316, #164, #193, .T. ) ;
#260 = AXIS2_PLACEMENT_3D ( 'NONE', #162, #400, #358 ) ;
#261 = CALENDAR_DATE ( 2022, 8, 11 ) ;
#262 = EDGE_LOOP ( 'NONE', ( #219 ) ) ;
#263 = FACE_BOUND ( 'NONE', #324, .T. ) ;
#264 = ORIENTED_EDGE ( 'NONE', *, *, #13, .T. ) ;
#265 = CARTESIAN_POINT ( 'NONE',  ( 0.000000000000000000, 0.000000000000000000, 17.14500000000000313 ) ) ;
#266 = ORIENTED_EDGE ( 'NONE', *, *, #472, .F. ) ;
#267 = CARTESIAN_POINT ( 'NONE',  ( -4.000000000000000000, 11.84271928232701399, -21.57879999999999754 ) ) ;
#268 = CONICAL_SURFACE ( 'NONE', #282, 41.26278394209109734, 1.325817663668032553 ) ;
#269 = AXIS2_PLACEMENT_3D ( 'NONE', #473, #119, #201 ) ;
#270 = DIRECTION ( 'NONE',  ( -0.000000000000000000, -0.000000000000000000, -1.000000000000000000 ) ) ;
#271 = EDGE_LOOP ( 'NONE', ( #166 ) ) ;
#272 = LINE ( 'NONE', #386, #91 ) ;
#273 = ORIENTED_EDGE ( 'NONE', *, *, #125, .T. ) ;
#274 = LINE ( 'NONE', #69, #18 ) ;
#275 = PRODUCT_DEFINITION_FORMATION_WITH_SPECIFIED_SOURCE ( '任何', '', #96, .NOT_KNOWN. ) ;
#276 = FACE_OUTER_BOUND ( 'NONE', #104, .T. ) ;
#277 = DIRECTION ( 'NONE',  ( -0.000000000000000000, -0.000000000000000000, 1.000000000000000000 ) ) ;
#278 = EDGE_CURVE ( 'NONE', #322, #322, #112, .T. ) ;
#279 = DIRECTION ( 'NONE',  ( 1.000000000000000000, 0.000000000000000000, 0.000000000000000000 ) ) ;
#280 = PLANE ( 'NONE',  #269 ) ;
#281 = FACE_OUTER_BOUND ( 'NONE', #496, .T. ) ;
#282 = AXIS2_PLACEMENT_3D ( 'NONE', #300, #270, #105 ) ;
#283 = DIRECTION ( 'NONE',  ( -0.000000000000000000, -0.000000000000000000, -1.000000000000000000 ) ) ;
#284 = ORIENTED_EDGE ( 'NONE', *, *, #430, .T. ) ;
#285 = DIRECTION ( 'NONE',  ( -0.000000000000000000, -0.000000000000000000, 1.000000000000000000 ) ) ;
#286 = APPLICATION_CONTEXT ( 'configuration controlled 3d designs of mechanical parts and assemblies' ) ;
#287 = ORIENTED_EDGE ( 'NONE', *, *, #437, .F. ) ;
#288 = PRODUCT_DEFINITION ( '未知', '', #275, #118 ) ;
#289 = EDGE_LOOP ( 'NONE', ( #305 ) ) ;
#290 = DATE_AND_TIME ( #130, #479 ) ;
#291 = VECTOR ( 'NONE', #502, 1000.000000000000000 ) ;
#292 = ADVANCED_FACE ( 'NONE', ( #7, #37 ), #512, .T. ) ;
#293 = PRODUCT_DEFINITION_SHAPE ( 'NONE', 'NONE',  #288 ) ;
#294 = CARTESIAN_POINT ( 'NONE',  ( 0.000000000000000000, 0.000000000000000000, 5.638799999999999812 ) ) ;
#295 = CIRCLE ( 'NONE', #222, 26.76978394209110945 ) ;
#296 = VERTEX_POINT ( 'NONE', #77 ) ;
#297 = PLANE ( 'NONE',  #448 ) ;
#298 = CC_DESIGN_PERSON_AND_ORGANIZATION_ASSIGNMENT ( #368, #92, ( #215 ) ) ;
#299 = ORIENTED_EDGE ( 'NONE', *, *, #174, .F. ) ;
#300 = CARTESIAN_POINT ( 'NONE',  ( 0.000000000000000000, 0.000000000000000000, 3.257550000000001500 ) ) ;
#301 = CARTESIAN_POINT ( 'NONE',  ( 0.000000000000000000, 26.00778388977050781, -21.57879999999999754 ) ) ;
#302 = CC_DESIGN_APPROVAL ( #230, ( #288 ) ) ;
#303 = ORIENTED_EDGE ( 'NONE', *, *, #237, .T. ) ;
#304 = FACE_OUTER_BOUND ( 'NONE', #210, .T. ) ;
#305 = ORIENTED_EDGE ( 'NONE', *, *, #337, .F. ) ;
#306 = FACE_BOUND ( 'NONE', #217, .T. ) ;
#307 = DIRECTION ( 'NONE',  ( -0.000000000000000000, -0.000000000000000000, -1.000000000000000000 ) ) ;
#308 = CLOSED_SHELL ( 'NONE', ( #94, #86, #221, #486, #182, #499, #53, #292, #200, #131, #163, #2, #382, #506, #153, #342, #107, #369, #67 ) ) ;
#309 = AXIS2_PLACEMENT_3D ( 'NONE', #461, #510, #191 ) ;
#310 = CARTESIAN_POINT ( 'NONE',  ( -4.000000000000000000, 15.80000000000000071, -21.57879999999999754 ) ) ;
#311 = EDGE_CURVE ( 'NONE', #32, #164, #167, .T. ) ;
#312 = AXIS2_PLACEMENT_3D ( 'NONE', #360, #158, #33 ) ;
#313 = CARTESIAN_POINT ( 'NONE',  ( 0.000000000000000000, 0.000000000000000000, 17.14500000000000313 ) ) ;
#314 = LINE ( 'NONE', #202, #93 ) ;
#315 = DIRECTION ( 'NONE',  ( -1.000000000000000000, 0.000000000000000000, 0.000000000000000000 ) ) ;
#316 = VERTEX_POINT ( 'NONE', #396 ) ;
#317 = DIRECTION ( 'NONE',  ( -1.000000000000000000, 0.000000000000000000, 0.000000000000000000 ) ) ;
#318 = LINE ( 'NONE', #122, #452 ) ;
#319 = DIRECTION ( 'NONE',  ( -0.000000000000000000, 0.000000000000000000, -1.000000000000000000 ) ) ;
#320 = VECTOR ( 'NONE', #243, 1000.000000000000000 ) ;
#321 = EDGE_LOOP ( 'NONE', ( #377 ) ) ;
#322 = VERTEX_POINT ( 'NONE', #88 ) ;
#323 = EDGE_CURVE ( 'NONE', #168, #168, #207, .T. ) ;
#324 = EDGE_LOOP ( 'NONE', ( #160 ) ) ;
#325 = CARTESIAN_POINT ( 'NONE',  ( -41.26278394209109734, 0.000000000000000000, 19.52625000000000455 ) ) ;
#326 = DATE_AND_TIME ( #14, #81 ) ;
#327 = CARTESIAN_POINT ( 'NONE',  ( -31.73778394209109877, 0.000000000000000000, -5.638799999999999812 ) ) ;
#328 = PERSON_AND_ORGANIZATION_ROLE ( 'creator' ) ;
#329 = EDGE_CURVE ( 'NONE', #171, #171, #48, .T. ) ;
#330 = AXIS2_PLACEMENT_3D ( 'NONE', #76, #319, #317 ) ;
#331 = VERTEX_POINT ( 'NONE', #367 ) ;
#332 = CARTESIAN_POINT ( 'NONE',  ( 26.00778388977050781, 0.000000000000000000, -5.638799999999999812 ) ) ;
#333 = PLANE ( 'NONE',  #513 ) ;
#334 = ORIENTED_EDGE ( 'NONE', *, *, #100, .F. ) ;
#335 = DIRECTION ( 'NONE',  ( 0.000000000000000000, 0.000000000000000000, 1.000000000000000000 ) ) ;
#336 = AXIS2_PLACEMENT_3D ( 'NONE', #228, #505, #149 ) ;
#337 = EDGE_CURVE ( 'NONE', #128, #128, #412, .T. ) ;
#338 = ORIENTED_EDGE ( 'NONE', *, *, #329, .T. ) ;
#339 = DIRECTION ( 'NONE',  ( -0.000000000000000000, -0.000000000000000000, -1.000000000000000000 ) ) ;
#340 = DIRECTION ( 'NONE',  ( -1.000000000000000000, 0.000000000000000000, 0.000000000000000000 ) ) ;
#341 = DIRECTION ( 'NONE',  ( 1.000000000000000000, 0.000000000000000000, 0.000000000000000000 ) ) ;
#342 = ADVANCED_FACE ( 'NONE', ( #116 ), #236, .F. ) ;
#343 = AXIS2_PLACEMENT_3D ( 'NONE', #294, #422, #224 ) ;
#344 = AXIS2_PLACEMENT_3D ( 'NONE', #389, #398, #354 ) ;
#345 = FACE_OUTER_BOUND ( 'NONE', #457, .T. ) ;
#346 = EDGE_LOOP ( 'NONE', ( #402 ) ) ;
#347 = CARTESIAN_POINT ( 'NONE',  ( 0.000000000000000000, 0.000000000000000000, 16.38300000000000267 ) ) ;
#348 = DIRECTION ( 'NONE',  ( -0.000000000000000000, -0.000000000000000000, -1.000000000000000000 ) ) ;
#349 = ORIENTED_EDGE ( 'NONE', *, *, #406, .F. ) ;
#350 = CARTESIAN_POINT ( 'NONE',  ( 4.000000000000000000, 11.84271928232701576, 28.42260000000000275 ) ) ;
#351 = CARTESIAN_POINT ( 'NONE',  ( 4.000000000000000000, 15.80000000000000071, -21.57879999999999754 ) ) ;
#352 = CIRCLE ( 'NONE', #379, 26.00778394209110189 ) ;
#353 = AXIS2_PLACEMENT_3D ( 'NONE', #439, #395, #42 ) ;
#354 = DIRECTION ( 'NONE',  ( -1.000000000000000000, 0.000000000000000000, 0.000000000000000000 ) ) ;
#355 = DIRECTION ( 'NONE',  ( -0.000000000000000000, 0.000000000000000000, -1.000000000000000000 ) ) ;
#356 = EDGE_LOOP ( 'NONE', ( #187 ) ) ;
#357 = DIRECTION ( 'NONE',  ( -1.000000000000000000, 0.000000000000000000, 0.000000000000000000 ) ) ;
#358 = DIRECTION ( 'NONE',  ( -1.000000000000000000, 0.000000000000000000, 0.000000000000000000 ) ) ;
#359 = EDGE_LOOP ( 'NONE', ( #338 ) ) ;
#360 = CARTESIAN_POINT ( 'NONE',  ( 0.000000000000000000, 0.000000000000000000, 5.638799999999999812 ) ) ;
#361 = ORIENTED_EDGE ( 'NONE', *, *, #29, .F. ) ;
#362 = CARTESIAN_POINT ( 'NONE',  ( 0.000000000000000000, 0.000000000000000000, 19.52625000000000455 ) ) ;
#363 = CONICAL_SURFACE ( 'NONE', #123, 31.73778394209109877, 1.325817663668032331 ) ;
#364 = EDGE_LOOP ( 'NONE', ( #84 ) ) ;
#365 = VECTOR ( 'NONE', #393, 1000.000000000000000 ) ;
#366 = APPROVAL_ROLE ( '' ) ;
#367 = CARTESIAN_POINT ( 'NONE',  ( 26.00778388977050781, 0.000000000000000000, -21.57879999999999754 ) ) ;
#368 = PERSON_AND_ORGANIZATION ( #103, #134 ) ;
#369 = ADVANCED_FACE ( 'NONE', ( #4 ), #280, .F. ) ;
#370 = CARTESIAN_POINT ( 'NONE',  ( -31.73778394209109877, 0.000000000000000000, 5.638799999999999812 ) ) ;
#371 = COORDINATED_UNIVERSAL_TIME_OFFSET ( 8, 0, .AHEAD. ) ;
#372 = APPROVAL_PERSON_ORGANIZATION ( #408, #209, #254 ) ;
#373 = ORIENTED_EDGE ( 'NONE', *, *, #374, .F. ) ;
#374 = EDGE_CURVE ( 'NONE', #404, #296, #318, .T. ) ;
#375 = PLANE ( 'NONE',  #195 ) ;
#376 = MANIFOLD_SOLID_BREP ( '切除-拉伸2', #308 ) ;
#377 = ORIENTED_EDGE ( 'NONE', *, *, #278, .T. ) ;
#378 = CARTESIAN_POINT ( 'NONE',  ( 0.000000000000000000, 0.000000000000000000, 28.42260000000000275 ) ) ;
#379 = AXIS2_PLACEMENT_3D ( 'NONE', #465, #27, #384 ) ;
#380 = LOCAL_TIME ( 0, 41, 30.00000000000000000, #173 ) ;
#381 = CARTESIAN_POINT ( 'NONE',  ( 4.000000000000000000, 15.80000000000000071, 28.42260000000000275 ) ) ;
#382 = ADVANCED_FACE ( 'NONE', ( #440, #83 ), #460, .T. ) ;
#383 = CARTESIAN_POINT ( 'NONE',  ( 0.000000000000000000, 0.000000000000000000, 17.14500000000000313 ) ) ;
#384 = DIRECTION ( 'NONE',  ( -1.000000000000000000, 0.000000000000000000, 0.000000000000000000 ) ) ;
#385 = ORIENTED_EDGE ( 'NONE', *, *, #35, .F. ) ;
#386 = CARTESIAN_POINT ( 'NONE',  ( 4.000000000000000000, 15.80000000000000071, 28.42260000000000275 ) ) ;
#387 = DIRECTION ( 'NONE',  ( -0.000000000000000000, -0.000000000000000000, -1.000000000000000000 ) ) ;
#388 = EDGE_LOOP ( 'NONE', ( #244 ) ) ;
#389 = CARTESIAN_POINT ( 'NONE',  ( 0.000000000000000000, 0.000000000000000000, -5.638799999999999812 ) ) ;
#390 = DIRECTION ( 'NONE',  ( -0.000000000000000000, -0.000000000000000000, -1.000000000000000000 ) ) ;
#391 = CC_DESIGN_PERSON_AND_ORGANIZATION_ASSIGNMENT ( #170, #17, ( #275 ) ) ;
#392 = CARTESIAN_POINT ( 'NONE',  ( 0.000000000000000000, 0.000000000000000000, 3.257550000000001500 ) ) ;
#393 = DIRECTION ( 'NONE',  ( -0.000000000000000000, -0.000000000000000000, -1.000000000000000000 ) ) ;
#394 = CARTESIAN_POINT ( 'NONE',  ( 4.000000000000000000, 15.80000000000000071, 28.42260000000000275 ) ) ;
#395 = DIRECTION ( 'NONE',  ( -0.000000000000000000, -0.000000000000000000, -1.000000000000000000 ) ) ;
#396 = CARTESIAN_POINT ( 'NONE',  ( -4.000000000000000000, 11.84271928232701399, 28.42259999999999565 ) ) ;
#397 = EDGE_LOOP ( 'NONE', ( #139 ) ) ;
#398 = DIRECTION ( 'NONE',  ( -0.000000000000000000, -0.000000000000000000, -1.000000000000000000 ) ) ;
#399 = EDGE_CURVE ( 'NONE', #169, #404, #469, .T. ) ;
#400 = DIRECTION ( 'NONE',  ( -0.000000000000000000, -0.000000000000000000, -1.000000000000000000 ) ) ;
#401 = DIRECTION ( 'NONE',  ( 1.000000000000000000, -0.000000000000000000, -0.000000000000000000 ) ) ;
#402 = ORIENTED_EDGE ( 'NONE', *, *, #136, .F. ) ;
#403 = CARTESIAN_POINT ( 'NONE',  ( -41.26278394209109734, 0.000000000000000000, 26.04135000000000133 ) ) ;
#404 = VERTEX_POINT ( 'NONE', #432 ) ;
#405 = CIRCLE ( 'NONE', #426, 26.00778388977050781 ) ;
#406 = EDGE_CURVE ( 'NONE', #331, #331, #156, .T. ) ;
#407 = APPLICATION_PROTOCOL_DEFINITION ( 'international standard', 'config_control_design', 1994, #20 ) ;
#408 = PERSON_AND_ORGANIZATION ( #103, #134 ) ;
#409 = APPROVAL_ROLE ( '' ) ;
#410 = PERSON_AND_ORGANIZATION_ROLE ( 'creator' ) ;
#411 = VECTOR ( 'NONE', #466, 1000.000000000000000 ) ;
#412 = CIRCLE ( 'NONE', #71, 41.26278394209109734 ) ;
#413 = APPROVAL ( #258, '未指定' ) ;
#414 = EDGE_LOOP ( 'NONE', ( #226, #59, #127, #41 ) ) ;
#415 = DIRECTION ( 'NONE',  ( -1.000000000000000000, 0.000000000000000000, 0.000000000000000000 ) ) ;
#416 = EDGE_LOOP ( 'NONE', ( #23 ) ) ;
#417 = CARTESIAN_POINT ( 'NONE',  ( 0.000000000000000000, 0.000000000000000000, -5.638799999999999812 ) ) ;
#418 = CARTESIAN_POINT ( 'NONE',  ( -4.000000000000000000, 15.80000000000000071, 28.42260000000000275 ) ) ;
#419 = AXIS2_PLACEMENT_3D ( 'NONE', #26, #335, #25 ) ;
#420 = APPROVAL_PERSON_ORGANIZATION ( #95, #230, #409 ) ;
#421 = EDGE_CURVE ( 'NONE', #247, #247, #229, .T. ) ;
#422 = DIRECTION ( 'NONE',  ( -0.000000000000000000, -0.000000000000000000, -1.000000000000000000 ) ) ;
#423 = EDGE_LOOP ( 'NONE', ( #349 ) ) ;
#424 = DIRECTION ( 'NONE',  ( 0.000000000000000000, -1.000000000000000000, 0.000000000000000000 ) ) ;
#425 = CIRCLE ( 'NONE', #436, 26.00778394209110189 ) ;
#426 = AXIS2_PLACEMENT_3D ( 'NONE', #165, #232, #279 ) ;
#427 = FACE_OUTER_BOUND ( 'NONE', #464, .T. ) ;
#428 = FACE_OUTER_BOUND ( 'NONE', #359, .T. ) ;
#429 = CARTESIAN_POINT ( 'NONE',  ( 0.000000000000000000, 0.000000000000000000, 28.42260000000000275 ) ) ;
#430 = EDGE_CURVE ( 'NONE', #89, #32, #8, .T. ) ;
#431 = CARTESIAN_POINT ( 'NONE',  ( -4.000000000000000000, 15.80000000000000071, 28.42260000000000275 ) ) ;
#432 = CARTESIAN_POINT ( 'NONE',  ( 4.000000000000000000, 15.80000000000000071, 28.42260000000000275 ) ) ;
#433 = DIRECTION ( 'NONE',  ( -1.000000000000000000, 0.000000000000000000, 0.000000000000000000 ) ) ;
#434 = FACE_BOUND ( 'NONE', #388, .T. ) ;
#435 = LINE ( 'NONE', #431, #320 ) ;
#436 = AXIS2_PLACEMENT_3D ( 'NONE', #455, #181, #106 ) ;
#437 = EDGE_CURVE ( 'NONE', #97, #97, #223, .T. ) ;
#438 = LOCAL_TIME ( 0, 41, 30.00000000000000000, #58 ) ;
#439 = CARTESIAN_POINT ( 'NONE',  ( 0.000000000000000000, 0.000000000000000000, 28.42260000000000275 ) ) ;
#440 = FACE_OUTER_BOUND ( 'NONE', #148, .T. ) ;
#441 = VERTEX_POINT ( 'NONE', #78 ) ;
#442 = ORIENTED_EDGE ( 'NONE', *, *, #492, .T. ) ;
#443 = CARTESIAN_POINT ( 'NONE',  ( 0.000000000000000000, 0.000000000000000000, 0.000000000000000000 ) ) ;
#444 = EDGE_LOOP ( 'NONE', ( #299 ) ) ;
#445 =( NAMED_UNIT ( * ) SI_UNIT ( $, .STERADIAN. ) SOLID_ANGLE_UNIT ( ) );
#446 = CC_DESIGN_DATE_AND_TIME_ASSIGNMENT ( #290, #447, ( #215 ) ) ;
#447 = DATE_TIME_ROLE ( 'classification_date' ) ;
#448 = AXIS2_PLACEMENT_3D ( 'NONE', #102, #494, #459 ) ;
#449 = APPLICATION_PROTOCOL_DEFINITION ( 'international standard', 'config_control_design', 1994, #286 ) ;
#450 = PERSON_AND_ORGANIZATION ( #103, #134 ) ;
#451 = CALENDAR_DATE ( 2022, 8, 11 ) ;
#452 = VECTOR ( 'NONE', #283, 1000.000000000000000 ) ;
#453 = FACE_OUTER_BOUND ( 'NONE', #444, .T. ) ;
#454 = ORIENTED_EDGE ( 'NONE', *, *, #174, .T. ) ;
#455 = CARTESIAN_POINT ( 'NONE',  ( 0.000000000000000000, 0.000000000000000000, 6.400800000000004708 ) ) ;
#456 = EDGE_CURVE ( 'NONE', #485, #485, #239, .T. ) ;
#457 = EDGE_LOOP ( 'NONE', ( #50 ) ) ;
#458 = DIRECTION ( 'NONE',  ( 0.000000000000000000, 1.000000000000000000, -0.000000000000000000 ) ) ;
#459 = DIRECTION ( 'NONE',  ( 1.000000000000000000, 0.000000000000000000, -0.000000000000000000 ) ) ;
#460 = CONICAL_SURFACE ( 'NONE', #468, 31.73778394209109877, 1.325817663668032553 ) ;
#461 = CARTESIAN_POINT ( 'NONE',  ( 0.000000000000000000, 0.000000000000000000, -22.55519999999999925 ) ) ;
#462 = DIRECTION ( 'NONE',  ( -1.000000000000000000, 0.000000000000000000, 0.000000000000000000 ) ) ;
#463 = CC_DESIGN_PERSON_AND_ORGANIZATION_ASSIGNMENT ( #450, #51, ( #96 ) ) ;
#464 = EDGE_LOOP ( 'NONE', ( #249 ) ) ;
#465 = CARTESIAN_POINT ( 'NONE',  ( 0.000000000000000000, 0.000000000000000000, 16.38299999999999201 ) ) ;
#466 = DIRECTION ( 'NONE',  ( 1.000000000000000000, -0.000000000000000000, -0.000000000000000000 ) ) ;
#467 = TOROIDAL_SURFACE ( 'NONE', #38, 26.76978394209110235, 0.7619999999999992335 ) ;
#468 = AXIS2_PLACEMENT_3D ( 'NONE', #82, #242, #39 ) ;
#469 = LINE ( 'NONE', #245, #253 ) ;
#470 = DIRECTION ( 'NONE',  ( -1.000000000000000000, 0.000000000000000000, 0.000000000000000000 ) ) ;
#471 = CYLINDRICAL_SURFACE ( 'NONE', #138, 41.26278394209109734 ) ;
#472 = EDGE_CURVE ( 'NONE', #296, #32, #314, .T. ) ;
#473 = CARTESIAN_POINT ( 'NONE',  ( -4.000000000000000000, 15.80000000000000071, 28.42260000000000275 ) ) ;
#474 = EDGE_LOOP ( 'NONE', ( #287 ) ) ;
#475 = FACE_OUTER_BOUND ( 'NONE', #397, .T. ) ;
#476 = DIRECTION ( 'NONE',  ( -1.000000000000000000, 0.000000000000000000, 0.000000000000000000 ) ) ;
#477 = ORIENTED_EDGE ( 'NONE', *, *, #45, .T. ) ;
#478 = CONICAL_SURFACE ( 'NONE', #260, 41.26278394209109734, 1.325817663668032331 ) ;
#479 = LOCAL_TIME ( 0, 41, 30.00000000000000000, #487 ) ;
#480 = FACE_OUTER_BOUND ( 'NONE', #484, .T. ) ;
#481 = VERTEX_POINT ( 'NONE', #310 ) ;
#482 = CARTESIAN_POINT ( 'NONE',  ( -26.76978394209110945, 0.000000000000000000, 5.638799999999999812 ) ) ;
#483 = ADVANCED_BREP_SHAPE_REPRESENTATION ( '00313_index_1', ( #376, #49 ), #57 ) ;
#484 = EDGE_LOOP ( 'NONE', ( #124 ) ) ;
#485 = VERTEX_POINT ( 'NONE', #370 ) ;
#486 = ADVANCED_FACE ( 'NONE', ( #428, #475 ), #471, .T. ) ;
#487 = COORDINATED_UNIVERSAL_TIME_OFFSET ( 8, 0, .AHEAD. ) ;
#488 = CIRCLE ( 'NONE', #343, 26.76978394209110945 ) ;
#489 = AXIS2_PLACEMENT_3D ( 'NONE', #394, #197, #355 ) ;
#490 = APPROVAL_DATE_TIME ( #212, #230 ) ;
#491 = PERSON_AND_ORGANIZATION ( #103, #134 ) ;
#492 = EDGE_CURVE ( 'NONE', #46, #46, #405, .T. ) ;
#493 = APPROVAL_STATUS ( 'not_yet_approved' ) ;
#494 = DIRECTION ( 'NONE',  ( 0.000000000000000000, 0.000000000000000000, 1.000000000000000000 ) ) ;
#495 = AXIS2_PLACEMENT_3D ( 'NONE', #362, #43, #433 ) ;
#496 = EDGE_LOOP ( 'NONE', ( #507 ) ) ;
#497 = AXIS2_PLACEMENT_3D ( 'NONE', #36, #285, #73 ) ;
#498 = DIRECTION ( 'NONE',  ( 0.000000000000000000, 0.000000000000000000, 1.000000000000000000 ) ) ;
#499 = ADVANCED_FACE ( 'NONE', ( #238, #434 ), #161, .T. ) ;
#500 = ORIENTED_EDGE ( 'NONE', *, *, #311, .F. ) ;
#501 = FACE_OUTER_BOUND ( 'NONE', #423, .T. ) ;
#502 = DIRECTION ( 'NONE',  ( -0.000000000000000000, 1.000000000000000000, -0.000000000000000000 ) ) ;
#503 = FACE_BOUND ( 'NONE', #203, .T. ) ;
#504 = ORIENTED_EDGE ( 'NONE', *, *, #259, .F. ) ;
#505 = DIRECTION ( 'NONE',  ( -0.000000000000000000, -0.000000000000000000, -1.000000000000000000 ) ) ;
#506 = ADVANCED_FACE ( 'NONE', ( #281, #480 ), #126, .T. ) ;
#507 = ORIENTED_EDGE ( 'NONE', *, *, #492, .F. ) ;
#508 = DIRECTION ( 'NONE',  ( -0.000000000000000000, -0.000000000000000000, -1.000000000000000000 ) ) ;
#509 = CARTESIAN_POINT ( 'NONE',  ( -4.000000000000000000, 11.84271928232701399, 28.42260000000000275 ) ) ;
#510 = DIRECTION ( 'NONE',  ( -0.000000000000000000, -0.000000000000000000, -1.000000000000000000 ) ) ;
#511 = CARTESIAN_POINT ( 'NONE',  ( -26.00778394209110189, 0.000000000000000000, 16.38299999999999201 ) ) ;
#512 = CYLINDRICAL_SURFACE ( 'NONE', #70, 26.00778394209110189 ) ;
#513 = AXIS2_PLACEMENT_3D ( 'NONE', #417, #218, #415 ) ;
ENDSEC;
END-ISO-10303-21;
