ISO-10303-21;
HEADER;
FILE_DESCRIPTION (( 'STEP AP203' ),
    '1' );
FILE_NAME ('00493_index_1.step',
    '2022-11-07T17:14:18',
    ( '' ),
    ( '' ),
    'SwSTEP 2.0',
    'SolidWorks 2020',
    '' );
FILE_SCHEMA (( 'CONFIG_CONTROL_DESIGN' ));
ENDSEC;

DATA;
#1 = DIRECTION ( 'NONE',  ( 0.000000000000000000, 0.000000000000000000, 1.000000000000000000 ) ) ;
#2 = PERSON_AND_ORGANIZATION_ROLE ( 'design_owner' ) ;
#3 = PERSON_AND_ORGANIZATION ( #94, #136 ) ;
#4 = ORIENTED_EDGE ( 'NONE', *, *, #55, .T. ) ;
#5 = LOCAL_TIME ( 1, 14, 18.00000000000000000, #81 ) ;
#6 = EDGE_LOOP ( 'NONE', ( #161 ) ) ;
#7 = PRODUCT ( '00493_index_1', '00493_index_1', '', ( #78 ) ) ;
#8 = FACE_BOUND ( 'NONE', #111, .T. ) ;
#9 = AXIS2_PLACEMENT_3D ( 'NONE', #160, #144, #73 ) ;
#10 = CC_DESIGN_APPROVAL ( #182, ( #165 ) ) ;
#11 = EDGE_CURVE ( 'NONE', #90, #90, #47, .T. ) ;
#12 = DIRECTION ( 'NONE',  ( 0.000000000000000000, -1.000000000000000000, 0.000000000000000000 ) ) ;
#13 = PRODUCT_DEFINITION_FORMATION_WITH_SPECIFIED_SOURCE ( '任何', '', #7, .NOT_KNOWN. ) ;
#14 = MANIFOLD_SOLID_BREP ( '圆角18', #34 ) ;
#15 = EDGE_CURVE ( 'NONE', #163, #163, #63, .T. ) ;
#16 = PERSON_AND_ORGANIZATION ( #94, #136 ) ;
#17 = CC_DESIGN_APPROVAL ( #167, ( #101 ) ) ;
#18 = ADVANCED_FACE ( 'NONE', ( #100, #97 ), #162, .T. ) ;
#19 = ORIENTED_EDGE ( 'NONE', *, *, #123, .F. ) ;
#20 = APPROVAL_STATUS ( 'not_yet_approved' ) ;
#21 = ADVANCED_FACE ( 'NONE', ( #8, #67 ), #158, .F. ) ;
#22 = PERSON_AND_ORGANIZATION ( #94, #136 ) ;
#23 = DIRECTION ( 'NONE',  ( 0.000000000000000000, -1.000000000000000000, 0.000000000000000000 ) ) ;
#24 = AXIS2_PLACEMENT_3D ( 'NONE', #126, #54, #1 ) ;
#25 = FACE_OUTER_BOUND ( 'NONE', #151, .T. ) ;
#26 = FACE_OUTER_BOUND ( 'NONE', #35, .T. ) ;
#27 = CARTESIAN_POINT ( 'NONE',  ( 0.000000000000000000, 0.000000000000000000, 0.000000000000000000 ) ) ;
#28 = FACE_OUTER_BOUND ( 'NONE', #37, .T. ) ;
#29 = VERTEX_POINT ( 'NONE', #180 ) ;
#30 = CC_DESIGN_PERSON_AND_ORGANIZATION_ASSIGNMENT ( #134, #2, ( #7 ) ) ;
#31 = CIRCLE ( 'NONE', #77, 4.330000000000000071 ) ;
#32 = CARTESIAN_POINT ( 'NONE',  ( 0.000000000000000000, 0.000000000000000000, -4.330000000000000071 ) ) ;
#33 = COORDINATED_UNIVERSAL_TIME_OFFSET ( 8, 0, .AHEAD. ) ;
#34 = CLOSED_SHELL ( 'NONE', ( #21, #18, #140, #117, #133 ) ) ;
#35 = EDGE_LOOP ( 'NONE', ( #172 ) ) ;
#36 = PERSON_AND_ORGANIZATION_ROLE ( 'design_supplier' ) ;
#37 = EDGE_LOOP ( 'NONE', ( #175 ) ) ;
#38 = APPROVAL_ROLE ( '' ) ;
#39 = CARTESIAN_POINT ( 'NONE',  ( 0.000000000000000000, 9.999999999999998224, 0.000000000000000000 ) ) ;
#40 = PRODUCT_RELATED_PRODUCT_CATEGORY ( 'detail', '', ( #7 ) ) ;
#41 = EDGE_LOOP ( 'NONE', ( #108 ) ) ;
#42 = ORIENTED_EDGE ( 'NONE', *, *, #15, .T. ) ;
#43 = DATE_AND_TIME ( #177, #174 ) ;
#44 = CARTESIAN_POINT ( 'NONE',  ( 0.000000000000000000, 9.999999999999998224, -7.069406289596085635 ) ) ;
#45 = VERTEX_POINT ( 'NONE', #44 ) ;
#46 = FACE_BOUND ( 'NONE', #96, .T. ) ;
#47 = CIRCLE ( 'NONE', #157, 9.000000000000001776 ) ;
#48 = LOCAL_TIME ( 1, 14, 18.00000000000000000, #33 ) ;
#49 =( NAMED_UNIT ( * ) SI_UNIT ( $, .STERADIAN. ) SOLID_ANGLE_UNIT ( ) );
#50 = PERSON_AND_ORGANIZATION ( #94, #136 ) ;
#51 = AXIS2_PLACEMENT_3D ( 'NONE', #27, #23, #173 ) ;
#52 = DATE_AND_TIME ( #121, #125 ) ;
#53 = PERSON_AND_ORGANIZATION_ROLE ( 'creator' ) ;
#54 = DIRECTION ( 'NONE',  ( -0.000000000000000000, 1.000000000000000000, 0.000000000000000000 ) ) ;
#55 = EDGE_CURVE ( 'NONE', #29, #29, #31, .T. ) ;
#56 = CYLINDRICAL_SURFACE ( 'NONE', #184, 4.330000000000000071 ) ;
#57 = APPROVAL_PERSON_ORGANIZATION ( #22, #182, #38 ) ;
#58 = DIRECTION ( 'NONE',  ( 0.000000000000000000, -1.000000000000000000, 0.000000000000000000 ) ) ;
#59 = CC_DESIGN_PERSON_AND_ORGANIZATION_ASSIGNMENT ( #3, #36, ( #13 ) ) ;
#60 = APPROVAL_ROLE ( '' ) ;
#61 = APPROVAL_PERSON_ORGANIZATION ( #16, #167, #60 ) ;
#62 = APPLICATION_PROTOCOL_DEFINITION ( 'international standard', 'config_control_design', 1994, #171 ) ;
#63 = CIRCLE ( 'NONE', #9, 7.563874466030234167 ) ;
#64 = SECURITY_CLASSIFICATION_LEVEL ( 'unclassified' ) ;
#65 = ORIENTED_EDGE ( 'NONE', *, *, #11, .F. ) ;
#66 = AXIS2_PLACEMENT_3D ( 'NONE', #164, #92, #181 ) ;
#67 = FACE_OUTER_BOUND ( 'NONE', #82, .T. ) ;
#68 = CARTESIAN_POINT ( 'NONE',  ( 0.000000000000000000, 10.00000000000000000, 0.000000000000000000 ) ) ;
#69 = DESIGN_CONTEXT ( 'detailed design', #171, 'design' ) ;
#70 = AXIS2_PLACEMENT_3D ( 'NONE', #103, #88, #142 ) ;
#71 = ORIENTED_EDGE ( 'NONE', *, *, #75, .F. ) ;
#72 = CC_DESIGN_DATE_AND_TIME_ASSIGNMENT ( #52, #152, ( #101 ) ) ;
#73 = DIRECTION ( 'NONE',  ( 0.000000000000000000, 0.000000000000000000, 1.000000000000000000 ) ) ;
#74 = CALENDAR_DATE ( 2022, 8, 11 ) ;
#75 = EDGE_CURVE ( 'NONE', #178, #178, #91, .T. ) ;
#76 = CARTESIAN_POINT ( 'NONE',  ( 0.000000000000000000, 9.499999999999998224, 0.000000000000000000 ) ) ;
#77 = AXIS2_PLACEMENT_3D ( 'NONE', #68, #58, #127 ) ;
#78 = MECHANICAL_CONTEXT ( 'NONE', #118, 'mechanical' ) ;
#79 = APPROVAL_DATE_TIME ( #137, #182 ) ;
#80 = APPROVAL_STATUS ( 'not_yet_approved' ) ;
#81 = COORDINATED_UNIVERSAL_TIME_OFFSET ( 8, 0, .AHEAD. ) ;
#82 = EDGE_LOOP ( 'NONE', ( #65 ) ) ;
#83 = APPROVAL_ROLE ( '' ) ;
#84 = LOCAL_TIME ( 1, 14, 18.00000000000000000, #86 ) ;
#85 = DATE_TIME_ROLE ( 'classification_date' ) ;
#86 = COORDINATED_UNIVERSAL_TIME_OFFSET ( 8, 0, .AHEAD. ) ;
#87 = DIRECTION ( 'NONE',  ( 0.000000000000000000, 0.000000000000000000, 1.000000000000000000 ) ) ;
#88 = DIRECTION ( 'NONE',  ( 0.000000000000000000, -1.000000000000000000, 0.000000000000000000 ) ) ;
#89 =( NAMED_UNIT ( * ) PLANE_ANGLE_UNIT ( ) SI_UNIT ( $, .RADIAN. ) );
#90 = VERTEX_POINT ( 'NONE', #105 ) ;
#91 = CIRCLE ( 'NONE', #70, 4.330000000000000071 ) ;
#92 = DIRECTION ( 'NONE',  ( 0.000000000000000000, -1.000000000000000000, 0.000000000000000000 ) ) ;
#93 = APPROVAL_PERSON_ORGANIZATION ( #170, #179, #83 ) ;
#94 = PERSON ( '未指定', '未指定', '未指定', ('未指定'), ('未指定'), ('未指定') ) ;
#95 = UNCERTAINTY_MEASURE_WITH_UNIT (LENGTH_MEASURE( 1.000000000000000082E-05 ), #131, 'distance_accuracy_value', 'NONE');
#96 = EDGE_LOOP ( 'NONE', ( #4 ) ) ;
#97 = FACE_OUTER_BOUND ( 'NONE', #41, .T. ) ;
#98 = DIRECTION ( 'NONE',  ( -0.000000000000000000, 1.000000000000000000, -0.000000000000000000 ) ) ;
#99 = CIRCLE ( 'NONE', #104, 7.069406289596085635 ) ;
#100 = FACE_BOUND ( 'NONE', #110, .T. ) ;
#101 = PRODUCT_DEFINITION ( '未知', '', #13, #69 ) ;
#102 = EDGE_LOOP ( 'NONE', ( #19 ) ) ;
#103 = CARTESIAN_POINT ( 'NONE',  ( 0.000000000000000000, 0.000000000000000000, 0.000000000000000000 ) ) ;
#104 = AXIS2_PLACEMENT_3D ( 'NONE', #39, #98, #156 ) ;
#105 = CARTESIAN_POINT ( 'NONE',  ( 0.000000000000000000, 0.000000000000000000, 9.000000000000001776 ) ) ;
#106 = CARTESIAN_POINT ( 'NONE',  ( 0.000000000000000000, 9.574170226465117395, 7.563874466030234167 ) ) ;
#107 = PERSON_AND_ORGANIZATION_ROLE ( 'classification_officer' ) ;
#108 = ORIENTED_EDGE ( 'NONE', *, *, #11, .T. ) ;
#109 = CC_DESIGN_DATE_AND_TIME_ASSIGNMENT ( #155, #85, ( #165 ) ) ;
#110 = EDGE_LOOP ( 'NONE', ( #42 ) ) ;
#111 = EDGE_LOOP ( 'NONE', ( #71 ) ) ;
#112 = CC_DESIGN_APPROVAL ( #179, ( #13 ) ) ;
#113 = DIRECTION ( 'NONE',  ( -0.000000000000000000, -1.000000000000000000, -0.000000000000000000 ) ) ;
#114 = FACE_OUTER_BOUND ( 'NONE', #102, .T. ) ;
#115 = COORDINATED_UNIVERSAL_TIME_OFFSET ( 8, 0, .AHEAD. ) ;
#116 = PLANE ( 'NONE',  #66 ) ;
#117 = ADVANCED_FACE ( 'NONE', ( #26, #189 ), #56, .F. ) ;
#118 = APPLICATION_CONTEXT ( 'configuration controlled 3d designs of mechanical parts and assemblies' ) ;
#119 = DIRECTION ( 'NONE',  ( 0.000000000000000000, 0.000000000000000000, -1.000000000000000000 ) ) ;
#120 =( GEOMETRIC_REPRESENTATION_CONTEXT ( 3 ) GLOBAL_UNCERTAINTY_ASSIGNED_CONTEXT ( ( #95 ) ) GLOBAL_UNIT_ASSIGNED_CONTEXT ( ( #131, #89, #49 ) ) REPRESENTATION_CONTEXT ( 'NONE', 'WORKASPACE' ) );
#121 = CALENDAR_DATE ( 2022, 8, 11 ) ;
#122 = CALENDAR_DATE ( 2022, 8, 11 ) ;
#123 = EDGE_CURVE ( 'NONE', #45, #45, #99, .T. ) ;
#124 = AXIS2_PLACEMENT_3D ( 'NONE', #76, #12, #119 ) ;
#125 = LOCAL_TIME ( 1, 14, 18.00000000000000000, #138 ) ;
#126 = CARTESIAN_POINT ( 'NONE',  ( 0.000000000000000000, 0.000000000000000000, 0.000000000000000000 ) ) ;
#127 = DIRECTION ( 'NONE',  ( 0.000000000000000000, 0.000000000000000000, -1.000000000000000000 ) ) ;
#128 = CC_DESIGN_SECURITY_CLASSIFICATION ( #165, ( #13 ) ) ;
#129 = CARTESIAN_POINT ( 'NONE',  ( 0.000000000000000000, 0.000000000000000000, 0.000000000000000000 ) ) ;
#130 = CARTESIAN_POINT ( 'NONE',  ( 0.000000000000000000, 10.00000000000000000, 0.000000000000000000 ) ) ;
#131 =( LENGTH_UNIT ( ) NAMED_UNIT ( * ) SI_UNIT ( .MILLI., .METRE. ) );
#132 = SHAPE_DEFINITION_REPRESENTATION ( #153, #168 ) ;
#133 = ADVANCED_FACE ( 'NONE', ( #25, #114 ), #139, .T. ) ;
#134 = PERSON_AND_ORGANIZATION ( #94, #136 ) ;
#135 = APPROVAL_DATE_TIME ( #183, #179 ) ;
#136 = ORGANIZATION ( '未指定', '未指定', '' ) ;
#137 = DATE_AND_TIME ( #74, #48 ) ;
#138 = COORDINATED_UNIVERSAL_TIME_OFFSET ( 8, 0, .AHEAD. ) ;
#139 = TOROIDAL_SURFACE ( 'NONE', #124, 7.069406289596085635, 0.5000000000000000000 ) ;
#140 = ADVANCED_FACE ( 'NONE', ( #28, #46 ), #116, .F. ) ;
#141 = DIRECTION ( 'NONE',  ( -0.000000000000000000, 1.000000000000000000, -0.000000000000000000 ) ) ;
#142 = DIRECTION ( 'NONE',  ( 0.000000000000000000, 0.000000000000000000, -1.000000000000000000 ) ) ;
#143 = DIRECTION ( 'NONE',  ( 0.000000000000000000, 0.000000000000000000, -1.000000000000000000 ) ) ;
#144 = DIRECTION ( 'NONE',  ( 0.000000000000000000, -1.000000000000000000, 0.000000000000000000 ) ) ;
#145 = CC_DESIGN_PERSON_AND_ORGANIZATION_ASSIGNMENT ( #50, #107, ( #165 ) ) ;
#146 = CARTESIAN_POINT ( 'NONE',  ( 0.000000000000000000, 0.000000000000000000, 0.000000000000000000 ) ) ;
#147 = AXIS2_PLACEMENT_3D ( 'NONE', #146, #166, #148 ) ;
#148 = DIRECTION ( 'NONE',  ( 1.000000000000000000, 0.000000000000000000, 0.000000000000000000 ) ) ;
#149 = APPLICATION_PROTOCOL_DEFINITION ( 'international standard', 'config_control_design', 1994, #118 ) ;
#150 = PERSON_AND_ORGANIZATION ( #94, #136 ) ;
#151 = EDGE_LOOP ( 'NONE', ( #169 ) ) ;
#152 = DATE_TIME_ROLE ( 'creation_date' ) ;
#153 = PRODUCT_DEFINITION_SHAPE ( 'NONE', 'NONE',  #101 ) ;
#154 = APPROVAL_DATE_TIME ( #43, #167 ) ;
#155 = DATE_AND_TIME ( #159, #84 ) ;
#156 = DIRECTION ( 'NONE',  ( 0.000000000000000000, 0.000000000000000000, -1.000000000000000000 ) ) ;
#157 = AXIS2_PLACEMENT_3D ( 'NONE', #129, #141, #87 ) ;
#158 = PLANE ( 'NONE',  #24 ) ;
#159 = CALENDAR_DATE ( 2022, 8, 11 ) ;
#160 = CARTESIAN_POINT ( 'NONE',  ( 0.000000000000000000, 9.574170226465117395, 0.000000000000000000 ) ) ;
#161 = ORIENTED_EDGE ( 'NONE', *, *, #75, .T. ) ;
#162 = CONICAL_SURFACE ( 'NONE', #51, 9.000000000000001776, 0.1488899476094972529 ) ;
#163 = VERTEX_POINT ( 'NONE', #106 ) ;
#164 = CARTESIAN_POINT ( 'NONE',  ( 7.500000000000001776, 9.999999999999998224, 0.000000000000000000 ) ) ;
#165 = SECURITY_CLASSIFICATION ( '', '', #64 ) ;
#166 = DIRECTION ( 'NONE',  ( 0.000000000000000000, 0.000000000000000000, 1.000000000000000000 ) ) ;
#167 = APPROVAL ( #80, '未指定' ) ;
#168 = ADVANCED_BREP_SHAPE_REPRESENTATION ( '00493_index_1', ( #14, #147 ), #120 ) ;
#169 = ORIENTED_EDGE ( 'NONE', *, *, #15, .F. ) ;
#170 = PERSON_AND_ORGANIZATION ( #94, #136 ) ;
#171 = APPLICATION_CONTEXT ( 'configuration controlled 3d designs of mechanical parts and assemblies' ) ;
#172 = ORIENTED_EDGE ( 'NONE', *, *, #55, .F. ) ;
#173 = DIRECTION ( 'NONE',  ( 0.000000000000000000, 0.000000000000000000, -1.000000000000000000 ) ) ;
#174 = LOCAL_TIME ( 1, 14, 18.00000000000000000, #115 ) ;
#175 = ORIENTED_EDGE ( 'NONE', *, *, #123, .T. ) ;
#176 = CC_DESIGN_PERSON_AND_ORGANIZATION_ASSIGNMENT ( #150, #186, ( #101 ) ) ;
#177 = CALENDAR_DATE ( 2022, 8, 11 ) ;
#178 = VERTEX_POINT ( 'NONE', #32 ) ;
#179 = APPROVAL ( #20, '未指定' ) ;
#180 = CARTESIAN_POINT ( 'NONE',  ( 0.000000000000000000, 10.00000000000000000, -4.330000000000000071 ) ) ;
#181 = DIRECTION ( 'NONE',  ( 0.000000000000000000, -0.000000000000000000, -1.000000000000000000 ) ) ;
#182 = APPROVAL ( #187, '未指定' ) ;
#183 = DATE_AND_TIME ( #122, #5 ) ;
#184 = AXIS2_PLACEMENT_3D ( 'NONE', #130, #113, #143 ) ;
#185 = PERSON_AND_ORGANIZATION ( #94, #136 ) ;
#186 = PERSON_AND_ORGANIZATION_ROLE ( 'creator' ) ;
#187 = APPROVAL_STATUS ( 'not_yet_approved' ) ;
#188 = CC_DESIGN_PERSON_AND_ORGANIZATION_ASSIGNMENT ( #185, #53, ( #13 ) ) ;
#189 = FACE_OUTER_BOUND ( 'NONE', #6, .T. ) ;
ENDSEC;
END-ISO-10303-21;
