ISO-10303-21;
HEADER;
FILE_DESCRIPTION (( 'STEP AP203' ),
    '1' );
FILE_NAME ('00724_index_2.step',
    '2022-11-07T17:39:56',
    ( '' ),
    ( '' ),
    'SwSTEP 2.0',
    'SolidWorks 2020',
    '' );
FILE_SCHEMA (( 'CONFIG_CONTROL_DESIGN' ));
ENDSEC;

DATA;
#1 = APPROVAL_ROLE ( '' ) ;
#2 = PERSON ( '未指定', '未指定', '未指定', ('未指定'), ('未指定'), ('未指定') ) ;
#3 = CC_DESIGN_PERSON_AND_ORGANIZATION_ASSIGNMENT ( #389, #100, ( #169 ) ) ;
#4 = ORIENTED_EDGE ( 'NONE', *, *, #95, .F. ) ;
#5 = APPROVAL_STATUS ( 'not_yet_approved' ) ;
#6 = VECTOR ( 'NONE', #245, 1000.000000000000000 ) ;
#7 = APPROVAL_PERSON_ORGANIZATION ( #327, #78, #171 ) ;
#8 = ADVANCED_FACE ( 'NONE', ( #197 ), #37, .F. ) ;
#9 = PERSON_AND_ORGANIZATION ( #2, #150 ) ;
#10 = CARTESIAN_POINT ( 'NONE',  ( 1.500000000000000000, 5.516041182845874267E-16, 1.149999999999999245 ) ) ;
#11 = ORIENTED_EDGE ( 'NONE', *, *, #112, .T. ) ;
#12 = VERTEX_POINT ( 'NONE', #366 ) ;
#13 = LINE ( 'NONE', #210, #120 ) ;
#14 = LINE ( 'NONE', #336, #56 ) ;
#15 = VECTOR ( 'NONE', #367, 1000.000000000000000 ) ;
#16 = CARTESIAN_POINT ( 'NONE',  ( 0.2679999999999981286, 0.000000000000000000, 0.000000000000000000 ) ) ;
#17 = ORIENTED_EDGE ( 'NONE', *, *, #280, .T. ) ;
#18 = CARTESIAN_POINT ( 'NONE',  ( 1.500000000000000000, 5.516041182845874267E-16, 1.149999999999999245 ) ) ;
#19 = DIRECTION ( 'NONE',  ( 1.000000000000000000, -0.000000000000000000, -0.000000000000000000 ) ) ;
#20 = CARTESIAN_POINT ( 'NONE',  ( 0.000000000000000000, 5.516041182845874267E-16, 1.149999999999999245 ) ) ;
#21 = FACE_OUTER_BOUND ( 'NONE', #161, .T. ) ;
#22 = VECTOR ( 'NONE', #254, 1000.000000000000000 ) ;
#23 = LINE ( 'NONE', #185, #417 ) ;
#24 = PLANE ( 'NONE',  #314 ) ;
#25 = CARTESIAN_POINT ( 'NONE',  ( 1.626303258728256651E-16, -0.9959292143521042417, -0.5750000000000000666 ) ) ;
#26 = APPROVAL ( #5, '未指定' ) ;
#27 = CARTESIAN_POINT ( 'NONE',  ( 12.00000000000000000, 0.000000000000000000, 0.000000000000000000 ) ) ;
#28 = ADVANCED_FACE ( 'NONE', ( #385, #287 ), #43, .T. ) ;
#29 = ORIENTED_EDGE ( 'NONE', *, *, #350, .F. ) ;
#30 = CARTESIAN_POINT ( 'NONE',  ( 0.6142087959790628604, 0.000000000000000000, 0.000000000000000000 ) ) ;
#31 = APPROVAL_DATE_TIME ( #193, #78 ) ;
#32 = AXIS2_PLACEMENT_3D ( 'NONE', #108, #274, #144 ) ;
#33 = ORIENTED_EDGE ( 'NONE', *, *, #145, .F. ) ;
#34 = PERSON_AND_ORGANIZATION ( #2, #150 ) ;
#35 = CC_DESIGN_PERSON_AND_ORGANIZATION_ASSIGNMENT ( #127, #38, ( #226 ) ) ;
#36 = ORIENTED_EDGE ( 'NONE', *, *, #235, .F. ) ;
#37 = PLANE ( 'NONE',  #225 ) ;
#38 = PERSON_AND_ORGANIZATION_ROLE ( 'classification_officer' ) ;
#39 = CC_DESIGN_PERSON_AND_ORGANIZATION_ASSIGNMENT ( #200, #63, ( #294 ) ) ;
#40 = EDGE_CURVE ( 'NONE', #228, #74, #91, .T. ) ;
#41 = ORIENTED_EDGE ( 'NONE', *, *, #312, .T. ) ;
#42 = APPROVAL_STATUS ( 'not_yet_approved' ) ;
#43 = CONICAL_SURFACE ( 'NONE', #298, 1.393799999999997041, 1.042507083840359394 ) ;
#44 = ORIENTED_EDGE ( 'NONE', *, *, #224, .F. ) ;
#45 = CARTESIAN_POINT ( 'NONE',  ( 11.24999999999999645, 0.000000000000000000, 1.999999999999996225 ) ) ;
#46 = DIRECTION ( 'NONE',  ( 0.000000000000000000, 0.000000000000000000, 1.000000000000000000 ) ) ;
#47 = DIRECTION ( 'NONE',  ( -1.000000000000000000, -0.000000000000000000, -0.000000000000000000 ) ) ;
#48 = LINE ( 'NONE', #270, #337 ) ;
#49 = DIRECTION ( 'NONE',  ( 0.000000000000000000, 0.000000000000000000, 1.000000000000000000 ) ) ;
#50 = VECTOR ( 'NONE', #313, 1000.000000000000000 ) ;
#51 = DIRECTION ( 'NONE',  ( -1.000000000000000000, -0.000000000000000000, -0.000000000000000000 ) ) ;
#52 = ORIENTED_EDGE ( 'NONE', *, *, #84, .F. ) ;
#53 =( LENGTH_UNIT ( ) NAMED_UNIT ( * ) SI_UNIT ( .MILLI., .METRE. ) );
#54 = LINE ( 'NONE', #266, #64 ) ;
#55 = DIRECTION ( 'NONE',  ( 1.000000000000000000, 0.000000000000000000, 0.000000000000000000 ) ) ;
#56 = VECTOR ( 'NONE', #214, 1000.000000000000000 ) ;
#57 = FACE_OUTER_BOUND ( 'NONE', #321, .T. ) ;
#58 = CARTESIAN_POINT ( 'NONE',  ( 1.500000000000000000, -0.9959292143521044638, 0.5749999999999996225 ) ) ;
#59 = EDGE_CURVE ( 'NONE', #177, #228, #142, .T. ) ;
#60 = LINE ( 'NONE', #379, #262 ) ;
#61 = DIRECTION ( 'NONE',  ( 0.000000000000000000, 0.000000000000000000, -1.000000000000000000 ) ) ;
#62 = ORIENTED_EDGE ( 'NONE', *, *, #159, .F. ) ;
#63 = PERSON_AND_ORGANIZATION_ROLE ( 'design_owner' ) ;
#64 = VECTOR ( 'NONE', #83, 1000.000000000000000 ) ;
#65 = LOCAL_TIME ( 1, 39, 56.00000000000000000, #300 ) ;
#66 = ORIENTED_EDGE ( 'NONE', *, *, #159, .T. ) ;
#67 = MECHANICAL_CONTEXT ( 'NONE', #141, 'mechanical' ) ;
#68 = ORIENTED_EDGE ( 'NONE', *, *, #180, .F. ) ;
#69 = EDGE_CURVE ( 'NONE', #302, #302, #378, .T. ) ;
#70 = EDGE_CURVE ( 'NONE', #267, #128, #173, .T. ) ;
#71 = VERTEX_POINT ( 'NONE', #400 ) ;
#72 = CONICAL_SURFACE ( 'NONE', #284, 1.999999999999994893, 0.7853981633974427279 ) ;
#73 = FACE_OUTER_BOUND ( 'NONE', #232, .T. ) ;
#74 = VERTEX_POINT ( 'NONE', #331 ) ;
#75 = DIRECTION ( 'NONE',  ( -1.000000000000000000, -0.000000000000000000, -0.000000000000000000 ) ) ;
#76 = DIRECTION ( 'NONE',  ( 0.000000000000000000, -0.8660254037844389297, -0.4999999999999995004 ) ) ;
#77 = VERTEX_POINT ( 'NONE', #370 ) ;
#78 = APPROVAL ( #42, '未指定' ) ;
#79 = CARTESIAN_POINT ( 'NONE',  ( 1.500000000000000000, -0.9959292143521044638, 0.5749999999999996225 ) ) ;
#80 = ORIENTED_EDGE ( 'NONE', *, *, #415, .F. ) ;
#81 = VERTEX_POINT ( 'NONE', #45 ) ;
#82 = CLOSED_SHELL ( 'NONE', ( #222, #114, #236, #311, #8, #265, #158, #414, #191, #342, #28, #323, #341, #147 ) ) ;
#83 = DIRECTION ( 'NONE',  ( -1.000000000000000000, -0.000000000000000000, -0.000000000000000000 ) ) ;
#84 = EDGE_CURVE ( 'NONE', #267, #74, #54, .T. ) ;
#85 = DIRECTION ( 'NONE',  ( 0.000000000000000000, 0.000000000000000000, -1.000000000000000000 ) ) ;
#86 = DIRECTION ( 'NONE',  ( 0.000000000000000000, 0.8660254037844389297, 0.4999999999999995004 ) ) ;
#87 = FACE_BOUND ( 'NONE', #205, .T. ) ;
#88 = PLANE ( 'NONE',  #188 ) ;
#89 = DIRECTION ( 'NONE',  ( 0.000000000000000000, 0.000000000000000000, -1.000000000000000000 ) ) ;
#90 = ORIENTED_EDGE ( 'NONE', *, *, #402, .T. ) ;
#91 = LINE ( 'NONE', #192, #318 ) ;
#92 = ORIENTED_EDGE ( 'NONE', *, *, #99, .T. ) ;
#93 = APPLICATION_PROTOCOL_DEFINITION ( 'international standard', 'config_control_design', 1994, #141 ) ;
#94 = VECTOR ( 'NONE', #209, 1000.000000000000000 ) ;
#95 = EDGE_CURVE ( 'NONE', #247, #247, #279, .T. ) ;
#96 = AXIS2_PLACEMENT_3D ( 'NONE', #174, #396, #363 ) ;
#97 = ORIENTED_EDGE ( 'NONE', *, *, #40, .F. ) ;
#98 = DATE_AND_TIME ( #360, #156 ) ;
#99 = EDGE_CURVE ( 'NONE', #386, #258, #304, .T. ) ;
#100 = PERSON_AND_ORGANIZATION_ROLE ( 'creator' ) ;
#101 = VERTEX_POINT ( 'NONE', #111 ) ;
#102 = PERSON_AND_ORGANIZATION ( #2, #150 ) ;
#103 = DIRECTION ( 'NONE',  ( 0.000000000000000000, -0.8660254037844385966, 0.5000000000000001110 ) ) ;
#104 = ORIENTED_EDGE ( 'NONE', *, *, #371, .T. ) ;
#105 = CARTESIAN_POINT ( 'NONE',  ( 3.252606517456513302E-16, 0.000000000000000000, 1.731999999999999984 ) ) ;
#106 = AXIS2_PLACEMENT_3D ( 'NONE', #27, #157, #286 ) ;
#107 = CYLINDRICAL_SURFACE ( 'NONE', #149, 1.999999999999995781 ) ;
#108 = CARTESIAN_POINT ( 'NONE',  ( 0.2679999999999939098, 0.000000000000000000, 0.000000000000000000 ) ) ;
#109 = CARTESIAN_POINT ( 'NONE',  ( 1.500000000000000000, 0.9959292143521044638, -0.5750000000000005107 ) ) ;
#110 = CARTESIAN_POINT ( 'NONE',  ( 11.24999999999999645, 0.000000000000000000, 0.000000000000000000 ) ) ;
#111 = CARTESIAN_POINT ( 'NONE',  ( 1.500000000000000000, 0.9959292143521044638, -0.5750000000000005107 ) ) ;
#112 = EDGE_CURVE ( 'NONE', #340, #267, #13, .T. ) ;
#113 = AXIS2_PLACEMENT_3D ( 'NONE', #408, #115, #76 ) ;
#114 = ADVANCED_FACE ( 'NONE', ( #398, #343 ), #72, .T. ) ;
#115 = DIRECTION ( 'NONE',  ( 0.000000000000000000, -0.4999999999999995004, 0.8660254037844389297 ) ) ;
#116 = EDGE_CURVE ( 'NONE', #101, #352, #364, .T. ) ;
#117 = DESIGN_CONTEXT ( 'detailed design', #212, 'design' ) ;
#118 = CARTESIAN_POINT ( 'NONE',  ( 1.500000000000000000, 0.9959292143521044638, -0.5750000000000005107 ) ) ;
#119 = DIRECTION ( 'NONE',  ( 0.000000000000000000, 0.000000000000000000, 1.000000000000000000 ) ) ;
#120 = VECTOR ( 'NONE', #215, 1000.000000000000000 ) ;
#121 = CARTESIAN_POINT ( 'NONE',  ( 1.500000000000000000, 5.516041182845874267E-16, 1.149999999999999245 ) ) ;
#122 = FACE_OUTER_BOUND ( 'NONE', #335, .T. ) ;
#123 = DIRECTION ( 'NONE',  ( 1.000000000000000000, -0.000000000000000000, -0.000000000000000000 ) ) ;
#124 = EDGE_LOOP ( 'NONE', ( #135, #421, #293, #288 ) ) ;
#125 = CALENDAR_DATE ( 2022, 8, 11 ) ;
#126 = ORIENTED_EDGE ( 'NONE', *, *, #145, .T. ) ;
#127 = PERSON_AND_ORGANIZATION ( #2, #150 ) ;
#128 = VERTEX_POINT ( 'NONE', #10 ) ;
#129 = APPROVAL_DATE_TIME ( #233, #26 ) ;
#130 = VECTOR ( 'NONE', #207, 1000.000000000000000 ) ;
#131 = APPROVAL_DATE_TIME ( #261, #309 ) ;
#132 = ORIENTED_EDGE ( 'NONE', *, *, #69, .F. ) ;
#133 = APPROVAL_ROLE ( '' ) ;
#134 = CARTESIAN_POINT ( 'NONE',  ( 3.252606517456513302E-16, 0.000000000000000000, 0.000000000000000000 ) ) ;
#135 = ORIENTED_EDGE ( 'NONE', *, *, #235, .T. ) ;
#136 = PLANE ( 'NONE',  #96 ) ;
#137 = DIRECTION ( 'NONE',  ( 0.000000000000000000, 0.000000000000000000, 1.000000000000000000 ) ) ;
#138 = EDGE_LOOP ( 'NONE', ( #97, #326, #62, #319, #160, #36 ) ) ;
#139 = CARTESIAN_POINT ( 'NONE',  ( 1.500000000000000000, -1.836425644552607486E-16, -1.150000000000000133 ) ) ;
#140 = AXIS2_PLACEMENT_3D ( 'NONE', #276, #55, #239 ) ;
#141 = APPLICATION_CONTEXT ( 'configuration controlled 3d designs of mechanical parts and assemblies' ) ;
#142 = LINE ( 'NONE', #248, #130 ) ;
#143 = ORIENTED_EDGE ( 'NONE', *, *, #381, .T. ) ;
#144 = DIRECTION ( 'NONE',  ( 0.000000000000000000, 0.000000000000000000, 1.000000000000000000 ) ) ;
#145 = EDGE_CURVE ( 'NONE', #71, #71, #238, .T. ) ;
#146 = FACE_OUTER_BOUND ( 'NONE', #201, .T. ) ;
#147 = ADVANCED_FACE ( 'NONE', ( #21, #213 ), #107, .T. ) ;
#148 = DIRECTION ( 'NONE',  ( 0.000000000000000000, 0.000000000000000000, -1.000000000000000000 ) ) ;
#149 = AXIS2_PLACEMENT_3D ( 'NONE', #339, #301, #46 ) ;
#150 = ORGANIZATION ( '未指定', '未指定', '' ) ;
#151 = LINE ( 'NONE', #409, #22 ) ;
#152 = UNCERTAINTY_MEASURE_WITH_UNIT (LENGTH_MEASURE( 1.000000000000000082E-05 ), #53, 'distance_accuracy_value', 'NONE');
#153 = CARTESIAN_POINT ( 'NONE',  ( 1.500000000000000000, 0.9959292143521044638, -0.5750000000000005107 ) ) ;
#154 = CARTESIAN_POINT ( 'NONE',  ( 1.626303258728256651E-16, 1.731999999999999984, 0.000000000000000000 ) ) ;
#155 = AXIS2_PLACEMENT_3D ( 'NONE', #154, #252, #89 ) ;
#156 = LOCAL_TIME ( 1, 39, 56.00000000000000000, #320 ) ;
#157 = DIRECTION ( 'NONE',  ( -1.000000000000000000, 0.000000000000000000, -0.000000000000000000 ) ) ;
#158 = ADVANCED_FACE ( 'NONE', ( #394 ), #277, .F. ) ;
#159 = EDGE_CURVE ( 'NONE', #352, #177, #48, .T. ) ;
#160 = ORIENTED_EDGE ( 'NONE', *, *, #402, .F. ) ;
#161 = EDGE_LOOP ( 'NONE', ( #259 ) ) ;
#162 = ORIENTED_EDGE ( 'NONE', *, *, #224, .T. ) ;
#163 = APPROVAL_STATUS ( 'not_yet_approved' ) ;
#164 = ORIENTED_EDGE ( 'NONE', *, *, #116, .F. ) ;
#165 = APPLICATION_PROTOCOL_DEFINITION ( 'international standard', 'config_control_design', 1994, #212 ) ;
#166 = PRODUCT_DEFINITION_SHAPE ( 'NONE', 'NONE',  #369 ) ;
#167 = DIRECTION ( 'NONE',  ( 0.000000000000000000, 1.000000000000000000, -3.771137991253929066E-16 ) ) ;
#168 = COORDINATED_UNIVERSAL_TIME_OFFSET ( 8, 0, .AHEAD. ) ;
#169 = PRODUCT_DEFINITION_FORMATION_WITH_SPECIFIED_SOURCE ( '任何', '', #294, .NOT_KNOWN. ) ;
#170 = ORIENTED_EDGE ( 'NONE', *, *, #295, .T. ) ;
#171 = APPROVAL_ROLE ( '' ) ;
#172 = LINE ( 'NONE', #18, #338 ) ;
#173 = LINE ( 'NONE', #79, #176 ) ;
#174 = CARTESIAN_POINT ( 'NONE',  ( 1.500000000000000000, -0.9959292143521044638, -0.5750000000000000666 ) ) ;
#175 = CARTESIAN_POINT ( 'NONE',  ( 0.9679999999999940874, 0.000000000000000000, 0.000000000000000000 ) ) ;
#176 = VECTOR ( 'NONE', #405, 1000.000000000000000 ) ;
#177 = VERTEX_POINT ( 'NONE', #184 ) ;
#178 = CARTESIAN_POINT ( 'NONE',  ( 1.500000000000000000, 0.9959292143521049079, 0.5749999999999991784 ) ) ;
#179 = EDGE_CURVE ( 'NONE', #368, #340, #242, .T. ) ;
#180 = EDGE_CURVE ( 'NONE', #12, #12, #203, .T. ) ;
#181 = DIRECTION ( 'NONE',  ( 1.000000000000000000, -0.000000000000000000, -0.000000000000000000 ) ) ;
#182 = DIRECTION ( 'NONE',  ( -1.000000000000000000, -0.000000000000000000, -0.000000000000000000 ) ) ;
#183 = CARTESIAN_POINT ( 'NONE',  ( 1.500000000000000000, 0.9959292143521049079, 0.5749999999999991784 ) ) ;
#184 = CARTESIAN_POINT ( 'NONE',  ( 0.000000000000000000, -1.836425644552607486E-16, -1.150000000000000133 ) ) ;
#185 = CARTESIAN_POINT ( 'NONE',  ( 0.000000000000000000, -0.9959292143521044638, 0.5749999999999996225 ) ) ;
#186 = FACE_OUTER_BOUND ( 'NONE', #332, .T. ) ;
#187 = DIRECTION ( 'NONE',  ( 0.000000000000000000, 0.8660254037844385966, -0.5000000000000001110 ) ) ;
#188 = AXIS2_PLACEMENT_3D ( 'NONE', #121, #281, #347 ) ;
#189 = CC_DESIGN_PERSON_AND_ORGANIZATION_ASSIGNMENT ( #9, #393, ( #369 ) ) ;
#190 = APPROVAL_PERSON_ORGANIZATION ( #391, #309, #133 ) ;
#191 = ADVANCED_FACE ( 'NONE', ( #146 ), #344, .F. ) ;
#192 = CARTESIAN_POINT ( 'NONE',  ( 0.000000000000000000, -0.9959292143521044638, -0.5750000000000000666 ) ) ;
#193 = DATE_AND_TIME ( #125, #412 ) ;
#194 = ORIENTED_EDGE ( 'NONE', *, *, #179, .F. ) ;
#195 = DIRECTION ( 'NONE',  ( 1.000000000000000000, 0.000000000000000000, 0.000000000000000000 ) ) ;
#196 = AXIS2_PLACEMENT_3D ( 'NONE', #134, #51, #137 ) ;
#197 = FACE_OUTER_BOUND ( 'NONE', #353, .T. ) ;
#198 = CC_DESIGN_DATE_AND_TIME_ASSIGNMENT ( #358, #202, ( #226 ) ) ;
#199 = EDGE_LOOP ( 'NONE', ( #132 ) ) ;
#200 = PERSON_AND_ORGANIZATION ( #2, #150 ) ;
#201 = EDGE_LOOP ( 'NONE', ( #296, #11, #365, #41, #383, #162 ) ) ;
#202 = DATE_TIME_ROLE ( 'classification_date' ) ;
#203 = CIRCLE ( 'NONE', #361, 1.999999999999997335 ) ;
#204 = CC_DESIGN_SECURITY_CLASSIFICATION ( #226, ( #169 ) ) ;
#205 = EDGE_LOOP ( 'NONE', ( #4 ) ) ;
#206 = CARTESIAN_POINT ( 'NONE',  ( 1.500000000000000000, -1.836425644552607486E-16, -1.150000000000000133 ) ) ;
#207 = DIRECTION ( 'NONE',  ( 0.000000000000000000, -0.8660254037844385966, 0.5000000000000001110 ) ) ;
#208 = EDGE_LOOP ( 'NONE', ( #395, #52, #392, #17 ) ) ;
#209 = DIRECTION ( 'NONE',  ( 0.000000000000000000, -3.771137991253929066E-16, -1.000000000000000000 ) ) ;
#210 = CARTESIAN_POINT ( 'NONE',  ( 1.500000000000000000, -0.9959292143521044638, -0.5750000000000000666 ) ) ;
#211 = LINE ( 'NONE', #139, #397 ) ;
#212 = APPLICATION_CONTEXT ( 'configuration controlled 3d designs of mechanical parts and assemblies' ) ;
#213 = FACE_OUTER_BOUND ( 'NONE', #291, .T. ) ;
#214 = DIRECTION ( 'NONE',  ( 0.000000000000000000, 0.8660254037844385966, -0.5000000000000001110 ) ) ;
#215 = DIRECTION ( 'NONE',  ( 0.000000000000000000, 0.000000000000000000, 1.000000000000000000 ) ) ;
#216 = ADVANCED_BREP_SHAPE_REPRESENTATION ( '00724_index_2', ( #278, #285 ), #419 ) ;
#217 = CARTESIAN_POINT ( 'NONE',  ( 0.6142087959790628604, 0.000000000000000000, 0.000000000000000000 ) ) ;
#218 = DIRECTION ( 'NONE',  ( 0.000000000000000000, -0.5000000000000001110, -0.8660254037844385966 ) ) ;
#219 = CONICAL_SURFACE ( 'NONE', #32, 1.999999999999990896, 1.051888018552836312 ) ;
#220 = LINE ( 'NONE', #118, #290 ) ;
#221 = FACE_OUTER_BOUND ( 'NONE', #416, .T. ) ;
#222 = ADVANCED_FACE ( 'NONE', ( #362, #73 ), #316, .F. ) ;
#223 = PLANE ( 'NONE',  #355 ) ;
#224 = EDGE_CURVE ( 'NONE', #101, #368, #220, .T. ) ;
#225 = AXIS2_PLACEMENT_3D ( 'NONE', #418, #167, #351 ) ;
#226 = SECURITY_CLASSIFICATION ( '', '', #357 ) ;
#227 = EDGE_LOOP ( 'NONE', ( #33 ) ) ;
#228 = VERTEX_POINT ( 'NONE', #25 ) ;
#229 = ORIENTED_EDGE ( 'NONE', *, *, #99, .F. ) ;
#230 =( NAMED_UNIT ( * ) SI_UNIT ( $, .STERADIAN. ) SOLID_ANGLE_UNIT ( ) );
#231 = AXIS2_PLACEMENT_3D ( 'NONE', #375, #181, #310 ) ;
#232 = EDGE_LOOP ( 'NONE', ( #273 ) ) ;
#233 = DATE_AND_TIME ( #292, #65 ) ;
#234 = PERSON_AND_ORGANIZATION_ROLE ( 'design_supplier' ) ;
#235 = EDGE_CURVE ( 'NONE', #74, #388, #23, .T. ) ;
#236 = ADVANCED_FACE ( 'NONE', ( #376 ), #223, .F. ) ;
#237 = COORDINATED_UNIVERSAL_TIME_OFFSET ( 8, 0, .AHEAD. ) ;
#238 = CIRCLE ( 'NONE', #231, 1.999999999999990896 ) ;
#239 = DIRECTION ( 'NONE',  ( 0.000000000000000000, 0.000000000000000000, -1.000000000000000000 ) ) ;
#240 = ORIENTED_EDGE ( 'NONE', *, *, #312, .F. ) ;
#241 = DIRECTION ( 'NONE',  ( 0.000000000000000000, 0.000000000000000000, 1.000000000000000000 ) ) ;
#242 = LINE ( 'NONE', #334, #372 ) ;
#243 = ORIENTED_EDGE ( 'NONE', *, *, #59, .T. ) ;
#244 = FACE_OUTER_BOUND ( 'NONE', #208, .T. ) ;
#245 = DIRECTION ( 'NONE',  ( -1.000000000000000000, -0.000000000000000000, -0.000000000000000000 ) ) ;
#246 = EDGE_LOOP ( 'NONE', ( #243, #305, #194, #104 ) ) ;
#247 = VERTEX_POINT ( 'NONE', #271 ) ;
#248 = CARTESIAN_POINT ( 'NONE',  ( 0.000000000000000000, -1.836425644552607486E-16, -1.150000000000000133 ) ) ;
#249 = CONICAL_SURFACE ( 'NONE', #346, 1.249999999999999778, 0.7853981633974430610 ) ;
#250 = CC_DESIGN_APPROVAL ( #78, ( #226 ) ) ;
#251 = DIRECTION ( 'NONE',  ( 0.000000000000000000, 0.000000000000000000, 1.000000000000000000 ) ) ;
#252 = DIRECTION ( 'NONE',  ( 1.000000000000000000, 0.000000000000000000, 0.000000000000000000 ) ) ;
#253 = DIRECTION ( 'NONE',  ( -1.000000000000000000, -0.000000000000000000, -0.000000000000000000 ) ) ;
#254 = DIRECTION ( 'NONE',  ( 0.000000000000000000, -3.771137991253929066E-16, -1.000000000000000000 ) ) ;
#255 = FACE_BOUND ( 'NONE', #260, .T. ) ;
#256 = ORIENTED_EDGE ( 'NONE', *, *, #371, .F. ) ;
#257 = APPROVAL_PERSON_ORGANIZATION ( #34, #26, #1 ) ;
#258 = VERTEX_POINT ( 'NONE', #283 ) ;
#259 = ORIENTED_EDGE ( 'NONE', *, *, #180, .T. ) ;
#260 = EDGE_LOOP ( 'NONE', ( #143 ) ) ;
#261 = DATE_AND_TIME ( #422, #390 ) ;
#262 = VECTOR ( 'NONE', #187, 1000.000000000000000 ) ;
#263 = CIRCLE ( 'NONE', #373, 1.999999999999996225 ) ;
#264 = CC_DESIGN_DATE_AND_TIME_ASSIGNMENT ( #98, #325, ( #369 ) ) ;
#265 = ADVANCED_FACE ( 'NONE', ( #57 ), #88, .F. ) ;
#266 = CARTESIAN_POINT ( 'NONE',  ( 1.500000000000000000, -0.9959292143521044638, 0.5749999999999996225 ) ) ;
#267 = VERTEX_POINT ( 'NONE', #58 ) ;
#268 = LINE ( 'NONE', #178, #94 ) ;
#269 = CIRCLE ( 'NONE', #407, 1.249999999999999778 ) ;
#270 = CARTESIAN_POINT ( 'NONE',  ( 0.000000000000000000, 0.9959292143521044638, -0.5750000000000005107 ) ) ;
#271 = CARTESIAN_POINT ( 'NONE',  ( 0.6142087959790628604, 0.000000000000000000, -1.393799999999997041 ) ) ;
#272 = DIRECTION ( 'NONE',  ( 1.000000000000000000, 0.000000000000000000, 0.000000000000000000 ) ) ;
#273 = ORIENTED_EDGE ( 'NONE', *, *, #69, .T. ) ;
#274 = DIRECTION ( 'NONE',  ( -1.000000000000000000, 0.000000000000000000, 0.000000000000000000 ) ) ;
#275 = PRODUCT_RELATED_PRODUCT_CATEGORY ( 'detail', '', ( #294 ) ) ;
#276 = CARTESIAN_POINT ( 'NONE',  ( 1.500000000000000000, 0.9959292143521040197, -1.724999999999999867 ) ) ;
#277 = PLANE ( 'NONE',  #113 ) ;
#278 = MANIFOLD_SOLID_BREP ( '切除-旋转3', #82 ) ;
#279 = CIRCLE ( 'NONE', #303, 1.393799999999997041 ) ;
#280 = EDGE_CURVE ( 'NONE', #340, #228, #413, .T. ) ;
#281 = DIRECTION ( 'NONE',  ( -0.000000000000000000, 0.5000000000000001110, 0.8660254037844385966 ) ) ;
#282 = DIRECTION ( 'NONE',  ( 0.000000000000000000, 0.8660254037844388186, 0.4999999999999997224 ) ) ;
#283 = CARTESIAN_POINT ( 'NONE',  ( 0.000000000000000000, 0.9959292143521049079, 0.5749999999999991784 ) ) ;
#284 = AXIS2_PLACEMENT_3D ( 'NONE', #16, #272, #148 ) ;
#285 = AXIS2_PLACEMENT_3D ( 'NONE', #387, #354, #195 ) ;
#286 = DIRECTION ( 'NONE',  ( -0.000000000000000000, 0.000000000000000000, 1.000000000000000000 ) ) ;
#287 = FACE_BOUND ( 'NONE', #423, .T. ) ;
#288 = ORIENTED_EDGE ( 'NONE', *, *, #84, .T. ) ;
#289 = COORDINATED_UNIVERSAL_TIME_OFFSET ( 8, 0, .AHEAD. ) ;
#290 = VECTOR ( 'NONE', #345, 1000.000000000000000 ) ;
#291 = EDGE_LOOP ( 'NONE', ( #322 ) ) ;
#292 = CALENDAR_DATE ( 2022, 8, 11 ) ;
#293 = ORIENTED_EDGE ( 'NONE', *, *, #70, .F. ) ;
#294 = PRODUCT ( '00724_index_2', '00724_index_2', '', ( #67 ) ) ;
#295 = EDGE_CURVE ( 'NONE', #258, #352, #151, .T. ) ;
#296 = ORIENTED_EDGE ( 'NONE', *, *, #179, .T. ) ;
#297 = CALENDAR_DATE ( 2022, 8, 11 ) ;
#298 = AXIS2_PLACEMENT_3D ( 'NONE', #30, #123, #61 ) ;
#299 = LOCAL_TIME ( 1, 39, 56.00000000000000000, #168 ) ;
#300 = COORDINATED_UNIVERSAL_TIME_OFFSET ( 8, 0, .AHEAD. ) ;
#301 = DIRECTION ( 'NONE',  ( -1.000000000000000000, -0.000000000000000000, -0.000000000000000000 ) ) ;
#302 = VERTEX_POINT ( 'NONE', #105 ) ;
#303 = AXIS2_PLACEMENT_3D ( 'NONE', #217, #401, #374 ) ;
#304 = LINE ( 'NONE', #183, #6 ) ;
#305 = ORIENTED_EDGE ( 'NONE', *, *, #280, .F. ) ;
#306 = FACE_OUTER_BOUND ( 'NONE', #356, .T. ) ;
#307 = DIRECTION ( 'NONE',  ( 0.000000000000000000, -0.8660254037844388186, -0.4999999999999997224 ) ) ;
#308 = CARTESIAN_POINT ( 'NONE',  ( 0.000000000000000000, 0.9959292143521044638, -0.5750000000000005107 ) ) ;
#309 = APPROVAL ( #163, '未指定' ) ;
#310 = DIRECTION ( 'NONE',  ( 0.000000000000000000, 0.000000000000000000, -1.000000000000000000 ) ) ;
#311 = ADVANCED_FACE ( 'NONE', ( #186 ), #24, .F. ) ;
#312 = EDGE_CURVE ( 'NONE', #128, #386, #60, .T. ) ;
#313 = DIRECTION ( 'NONE',  ( -1.000000000000000000, -0.000000000000000000, -0.000000000000000000 ) ) ;
#314 = AXIS2_PLACEMENT_3D ( 'NONE', #153, #377, #282 ) ;
#315 = CARTESIAN_POINT ( 'NONE',  ( 1.500000000000000000, -0.9959292143521044638, -0.5750000000000000666 ) ) ;
#316 = PLANE ( 'NONE',  #155 ) ;
#317 = PLANE ( 'NONE',  #106 ) ;
#318 = VECTOR ( 'NONE', #251, 1000.000000000000000 ) ;
#319 = ORIENTED_EDGE ( 'NONE', *, *, #295, .F. ) ;
#320 = COORDINATED_UNIVERSAL_TIME_OFFSET ( 8, 0, .AHEAD. ) ;
#321 = EDGE_LOOP ( 'NONE', ( #90, #229, #240, #399 ) ) ;
#322 = ORIENTED_EDGE ( 'NONE', *, *, #415, .T. ) ;
#323 = ADVANCED_FACE ( 'NONE', ( #221 ), #317, .F. ) ;
#324 = ORIENTED_EDGE ( 'NONE', *, *, #116, .T. ) ;
#325 = DATE_TIME_ROLE ( 'creation_date' ) ;
#326 = ORIENTED_EDGE ( 'NONE', *, *, #59, .F. ) ;
#327 = PERSON_AND_ORGANIZATION ( #2, #150 ) ;
#328 = CC_DESIGN_APPROVAL ( #309, ( #169 ) ) ;
#329 = ORIENTED_EDGE ( 'NONE', *, *, #95, .T. ) ;
#330 = DIRECTION ( 'NONE',  ( -1.000000000000000000, -0.000000000000000000, -0.000000000000000000 ) ) ;
#331 = CARTESIAN_POINT ( 'NONE',  ( 0.000000000000000000, -0.9959292143521044638, 0.5749999999999996225 ) ) ;
#332 = EDGE_LOOP ( 'NONE', ( #66, #256, #44, #324 ) ) ;
#333 = CARTESIAN_POINT ( 'NONE',  ( 12.00000000000000000, 0.000000000000000000, 0.000000000000000000 ) ) ;
#334 = CARTESIAN_POINT ( 'NONE',  ( 1.500000000000000000, -1.836425644552607486E-16, -1.150000000000000133 ) ) ;
#335 = EDGE_LOOP ( 'NONE', ( #80 ) ) ;
#336 = CARTESIAN_POINT ( 'NONE',  ( 0.000000000000000000, 5.516041182845874267E-16, 1.149999999999999245 ) ) ;
#337 = VECTOR ( 'NONE', #307, 1000.000000000000000 ) ;
#338 = VECTOR ( 'NONE', #47, 1000.000000000000000 ) ;
#339 = CARTESIAN_POINT ( 'NONE',  ( -0.2777777777777777901, 0.000000000000000000, 0.000000000000000000 ) ) ;
#340 = VERTEX_POINT ( 'NONE', #410 ) ;
#341 = ADVANCED_FACE ( 'NONE', ( #122, #255 ), #249, .T. ) ;
#342 = ADVANCED_FACE ( 'NONE', ( #87, #306 ), #219, .T. ) ;
#343 = FACE_OUTER_BOUND ( 'NONE', #227, .T. ) ;
#344 = PLANE ( 'NONE',  #140 ) ;
#345 = DIRECTION ( 'NONE',  ( 0.000000000000000000, -0.8660254037844388186, -0.4999999999999997224 ) ) ;
#346 = AXIS2_PLACEMENT_3D ( 'NONE', #380, #253, #119 ) ;
#347 = DIRECTION ( 'NONE',  ( 0.000000000000000000, -0.8660254037844385966, 0.5000000000000001110 ) ) ;
#348 = DIRECTION ( 'NONE',  ( 0.000000000000000000, 0.8660254037844385966, -0.5000000000000001110 ) ) ;
#349 = CC_DESIGN_PERSON_AND_ORGANIZATION_ASSIGNMENT ( #102, #234, ( #169 ) ) ;
#350 = EDGE_CURVE ( 'NONE', #386, #101, #268, .T. ) ;
#351 = DIRECTION ( 'NONE',  ( 0.000000000000000000, 3.771137991253929066E-16, 1.000000000000000000 ) ) ;
#352 = VERTEX_POINT ( 'NONE', #308 ) ;
#353 = EDGE_LOOP ( 'NONE', ( #170, #164, #29, #92 ) ) ;
#354 = DIRECTION ( 'NONE',  ( 0.000000000000000000, 0.000000000000000000, 1.000000000000000000 ) ) ;
#355 = AXIS2_PLACEMENT_3D ( 'NONE', #411, #218, #348 ) ;
#356 = EDGE_LOOP ( 'NONE', ( #126 ) ) ;
#357 = SECURITY_CLASSIFICATION_LEVEL ( 'unclassified' ) ;
#358 = DATE_AND_TIME ( #297, #299 ) ;
#359 = EDGE_LOOP ( 'NONE', ( #68 ) ) ;
#360 = CALENDAR_DATE ( 2022, 8, 11 ) ;
#361 = AXIS2_PLACEMENT_3D ( 'NONE', #175, #19, #85 ) ;
#362 = FACE_BOUND ( 'NONE', #138, .T. ) ;
#363 = DIRECTION ( 'NONE',  ( 0.000000000000000000, -0.000000000000000000, -1.000000000000000000 ) ) ;
#364 = LINE ( 'NONE', #109, #15 ) ;
#365 = ORIENTED_EDGE ( 'NONE', *, *, #70, .T. ) ;
#366 = CARTESIAN_POINT ( 'NONE',  ( 0.9679999999999940874, 0.000000000000000000, -1.999999999999997335 ) ) ;
#367 = DIRECTION ( 'NONE',  ( -1.000000000000000000, -0.000000000000000000, -0.000000000000000000 ) ) ;
#368 = VERTEX_POINT ( 'NONE', #206 ) ;
#369 = PRODUCT_DEFINITION ( '未知', '', #169, #117 ) ;
#370 = CARTESIAN_POINT ( 'NONE',  ( 12.00000000000000000, 0.000000000000000000, 1.249999999999999778 ) ) ;
#371 = EDGE_CURVE ( 'NONE', #368, #177, #211, .T. ) ;
#372 = VECTOR ( 'NONE', #103, 1000.000000000000000 ) ;
#373 = AXIS2_PLACEMENT_3D ( 'NONE', #110, #182, #49 ) ;
#374 = DIRECTION ( 'NONE',  ( 0.000000000000000000, 0.000000000000000000, -1.000000000000000000 ) ) ;
#375 = CARTESIAN_POINT ( 'NONE',  ( 0.2679999999999939098, 0.000000000000000000, 0.000000000000000000 ) ) ;
#376 = FACE_OUTER_BOUND ( 'NONE', #246, .T. ) ;
#377 = DIRECTION ( 'NONE',  ( 0.000000000000000000, 0.4999999999999997224, -0.8660254037844388186 ) ) ;
#378 = CIRCLE ( 'NONE', #196, 1.731999999999999984 ) ;
#379 = CARTESIAN_POINT ( 'NONE',  ( 1.500000000000000000, 5.516041182845874267E-16, 1.149999999999999245 ) ) ;
#380 = CARTESIAN_POINT ( 'NONE',  ( 12.00000000000000000, 0.000000000000000000, 0.000000000000000000 ) ) ;
#381 = EDGE_CURVE ( 'NONE', #77, #77, #269, .T. ) ;
#382 = EDGE_CURVE ( 'NONE', #128, #388, #172, .T. ) ;
#383 = ORIENTED_EDGE ( 'NONE', *, *, #350, .T. ) ;
#384 = CC_DESIGN_APPROVAL ( #26, ( #369 ) ) ;
#385 = FACE_OUTER_BOUND ( 'NONE', #359, .T. ) ;
#386 = VERTEX_POINT ( 'NONE', #404 ) ;
#387 = CARTESIAN_POINT ( 'NONE',  ( 0.000000000000000000, 0.000000000000000000, 0.000000000000000000 ) ) ;
#388 = VERTEX_POINT ( 'NONE', #20 ) ;
#389 = PERSON_AND_ORGANIZATION ( #2, #150 ) ;
#390 = LOCAL_TIME ( 1, 39, 56.00000000000000000, #289 ) ;
#391 = PERSON_AND_ORGANIZATION ( #2, #150 ) ;
#392 = ORIENTED_EDGE ( 'NONE', *, *, #112, .F. ) ;
#393 = PERSON_AND_ORGANIZATION_ROLE ( 'creator' ) ;
#394 = FACE_OUTER_BOUND ( 'NONE', #124, .T. ) ;
#395 = ORIENTED_EDGE ( 'NONE', *, *, #40, .T. ) ;
#396 = DIRECTION ( 'NONE',  ( 0.000000000000000000, -1.000000000000000000, 0.000000000000000000 ) ) ;
#397 = VECTOR ( 'NONE', #330, 1000.000000000000000 ) ;
#398 = FACE_BOUND ( 'NONE', #199, .T. ) ;
#399 = ORIENTED_EDGE ( 'NONE', *, *, #382, .T. ) ;
#400 = CARTESIAN_POINT ( 'NONE',  ( 0.2679999999999939098, 0.000000000000000000, -1.999999999999990896 ) ) ;
#401 = DIRECTION ( 'NONE',  ( 1.000000000000000000, -0.000000000000000000, -0.000000000000000000 ) ) ;
#402 = EDGE_CURVE ( 'NONE', #388, #258, #14, .T. ) ;
#403 = ORIENTED_EDGE ( 'NONE', *, *, #381, .F. ) ;
#404 = CARTESIAN_POINT ( 'NONE',  ( 1.500000000000000000, 0.9959292143521049079, 0.5749999999999991784 ) ) ;
#405 = DIRECTION ( 'NONE',  ( 0.000000000000000000, 0.8660254037844389297, 0.4999999999999995004 ) ) ;
#406 =( NAMED_UNIT ( * ) PLANE_ANGLE_UNIT ( ) SI_UNIT ( $, .RADIAN. ) );
#407 = AXIS2_PLACEMENT_3D ( 'NONE', #333, #75, #241 ) ;
#408 = CARTESIAN_POINT ( 'NONE',  ( 1.500000000000000000, -0.9959292143521044638, 0.5749999999999996225 ) ) ;
#409 = CARTESIAN_POINT ( 'NONE',  ( 0.000000000000000000, 0.9959292143521049079, 0.5749999999999991784 ) ) ;
#410 = CARTESIAN_POINT ( 'NONE',  ( 1.500000000000000000, -0.9959292143521044638, -0.5750000000000000666 ) ) ;
#411 = CARTESIAN_POINT ( 'NONE',  ( 1.500000000000000000, -1.836425644552607486E-16, -1.150000000000000133 ) ) ;
#412 = LOCAL_TIME ( 1, 39, 56.00000000000000000, #237 ) ;
#413 = LINE ( 'NONE', #315, #50 ) ;
#414 = ADVANCED_FACE ( 'NONE', ( #244 ), #136, .F. ) ;
#415 = EDGE_CURVE ( 'NONE', #81, #81, #263, .T. ) ;
#416 = EDGE_LOOP ( 'NONE', ( #403 ) ) ;
#417 = VECTOR ( 'NONE', #86, 1000.000000000000000 ) ;
#418 = CARTESIAN_POINT ( 'NONE',  ( 1.500000000000000000, 0.9959292143521049079, 0.5749999999999991784 ) ) ;
#419 =( GEOMETRIC_REPRESENTATION_CONTEXT ( 3 ) GLOBAL_UNCERTAINTY_ASSIGNED_CONTEXT ( ( #152 ) ) GLOBAL_UNIT_ASSIGNED_CONTEXT ( ( #53, #406, #230 ) ) REPRESENTATION_CONTEXT ( 'NONE', 'WORKASPACE' ) );
#420 = SHAPE_DEFINITION_REPRESENTATION ( #166, #216 ) ;
#421 = ORIENTED_EDGE ( 'NONE', *, *, #382, .F. ) ;
#422 = CALENDAR_DATE ( 2022, 8, 11 ) ;
#423 = EDGE_LOOP ( 'NONE', ( #329 ) ) ;
ENDSEC;
END-ISO-10303-21;
