ISO-10303-21;
HEADER;
FILE_DESCRIPTION (( 'STEP AP203' ),
    '1' );
FILE_NAME ('00779_index_3.step',
    '2022-11-07T17:49:06',
    ( '' ),
    ( '' ),
    'SwSTEP 2.0',
    'SolidWorks 2020',
    '' );
FILE_SCHEMA (( 'CONFIG_CONTROL_DESIGN' ));
ENDSEC;

DATA;
#1 = APPLICATION_CONTEXT ( 'configuration controlled 3d designs of mechanical parts and assemblies' ) ;
#2 = COORDINATED_UNIVERSAL_TIME_OFFSET ( 8, 0, .AHEAD. ) ;
#3 = APPROVAL_DATE_TIME ( #139, #142 ) ;
#4 = CIRCLE ( 'NONE', #114, 6.000000000000000000 ) ;
#5 = PRODUCT_DEFINITION_SHAPE ( 'NONE', 'NONE',  #17 ) ;
#6 = PERSON ( '未指定', '未指定', '未指定', ('未指定'), ('未指定'), ('未指定') ) ;
#7 = PERSON_AND_ORGANIZATION_ROLE ( 'creator' ) ;
#8 = DIRECTION ( 'NONE',  ( 0.000000000000000000, 0.000000000000000000, 1.000000000000000000 ) ) ;
#9 = LOCAL_TIME ( 1, 49, 6.000000000000000000, #2 ) ;
#10 = CARTESIAN_POINT ( 'NONE',  ( 0.000000000000000000, 17.98217129799638769, 0.000000000000000000 ) ) ;
#11 = DIRECTION ( 'NONE',  ( 0.000000000000000000, 1.000000000000000000, 0.000000000000000000 ) ) ;
#12 = CARTESIAN_POINT ( 'NONE',  ( 0.000000000000000000, 16.98217129799638059, 0.000000000000000000 ) ) ;
#13 = CARTESIAN_POINT ( 'NONE',  ( 0.000000000000000000, 0.000000000000000000, 5.000000000000000000 ) ) ;
#14 = DIRECTION ( 'NONE',  ( 1.000000000000000000, 0.000000000000000000, 0.000000000000000000 ) ) ;
#15 = ADVANCED_FACE ( 'NONE', ( #44 ), #120, .T. ) ;
#16 = AXIS2_PLACEMENT_3D ( 'NONE', #84, #146, #175 ) ;
#17 = PRODUCT_DEFINITION ( '未知', '', #176, #124 ) ;
#18 = PERSON_AND_ORGANIZATION_ROLE ( 'creator' ) ;
#19 = CC_DESIGN_PERSON_AND_ORGANIZATION_ASSIGNMENT ( #31, #75, ( #158 ) ) ;
#20 = PERSON_AND_ORGANIZATION ( #6, #128 ) ;
#21 = CC_DESIGN_APPROVAL ( #97, ( #17 ) ) ;
#22 = EDGE_LOOP ( 'NONE', ( #109 ) ) ;
#23 = CC_DESIGN_PERSON_AND_ORGANIZATION_ASSIGNMENT ( #96, #7, ( #17 ) ) ;
#24 = DIRECTION ( 'NONE',  ( 0.000000000000000000, 0.000000000000000000, 1.000000000000000000 ) ) ;
#25 = EDGE_LOOP ( 'NONE', ( #55 ) ) ;
#26 = CYLINDRICAL_SURFACE ( 'NONE', #39, 5.000000000000000000 ) ;
#27 = DIRECTION ( 'NONE',  ( 0.000000000000000000, 1.000000000000000000, 0.000000000000000000 ) ) ;
#28 = PLANE ( 'NONE',  #107 ) ;
#29 = CIRCLE ( 'NONE', #165, 5.000000000000000000 ) ;
#30 = CC_DESIGN_PERSON_AND_ORGANIZATION_ASSIGNMENT ( #20, #18, ( #176 ) ) ;
#31 = PERSON_AND_ORGANIZATION ( #6, #128 ) ;
#32 =( GEOMETRIC_REPRESENTATION_CONTEXT ( 3 ) GLOBAL_UNCERTAINTY_ASSIGNED_CONTEXT ( ( #154 ) ) GLOBAL_UNIT_ASSIGNED_CONTEXT ( ( #46, #162, #91 ) ) REPRESENTATION_CONTEXT ( 'NONE', 'WORKASPACE' ) );
#33 = APPROVAL_ROLE ( '' ) ;
#34 = CC_DESIGN_DATE_AND_TIME_ASSIGNMENT ( #94, #195, ( #145 ) ) ;
#35 = APPROVAL_ROLE ( '' ) ;
#36 = CC_DESIGN_APPROVAL ( #77, ( #176 ) ) ;
#37 = DATE_AND_TIME ( #194, #187 ) ;
#38 = PERSON_AND_ORGANIZATION ( #6, #128 ) ;
#39 = AXIS2_PLACEMENT_3D ( 'NONE', #10, #70, #133 ) ;
#40 = EDGE_CURVE ( 'NONE', #181, #181, #151, .T. ) ;
#41 = ORIENTED_EDGE ( 'NONE', *, *, #157, .T. ) ;
#42 = DIRECTION ( 'NONE',  ( -0.000000000000000000, 1.000000000000000000, -0.000000000000000000 ) ) ;
#43 = DIRECTION ( 'NONE',  ( 0.000000000000000000, -1.000000000000000000, 0.000000000000000000 ) ) ;
#44 = FACE_OUTER_BOUND ( 'NONE', #85, .T. ) ;
#45 = APPROVAL_PERSON_ORGANIZATION ( #76, #97, #33 ) ;
#46 =( LENGTH_UNIT ( ) NAMED_UNIT ( * ) SI_UNIT ( .MILLI., .METRE. ) );
#47 = MANIFOLD_SOLID_BREP ( '圆角3', #80 ) ;
#48 = CARTESIAN_POINT ( 'NONE',  ( 0.000000000000000000, 0.000000000000000000, 0.000000000000000000 ) ) ;
#49 = LOCAL_TIME ( 1, 49, 6.000000000000000000, #79 ) ;
#50 = VERTEX_POINT ( 'NONE', #134 ) ;
#51 = APPROVAL_DATE_TIME ( #37, #97 ) ;
#52 = SECURITY_CLASSIFICATION_LEVEL ( 'unclassified' ) ;
#53 = ADVANCED_FACE ( 'NONE', ( #99, #160 ), #26, .T. ) ;
#54 = FACE_OUTER_BOUND ( 'NONE', #95, .T. ) ;
#55 = ORIENTED_EDGE ( 'NONE', *, *, #101, .F. ) ;
#56 = ORIENTED_EDGE ( 'NONE', *, *, #157, .F. ) ;
#57 = APPLICATION_PROTOCOL_DEFINITION ( 'international standard', 'config_control_design', 1994, #66 ) ;
#58 = LOCAL_TIME ( 1, 49, 6.000000000000000000, #141 ) ;
#59 = CC_DESIGN_DATE_AND_TIME_ASSIGNMENT ( #65, #156, ( #17 ) ) ;
#60 = APPROVAL_STATUS ( 'not_yet_approved' ) ;
#61 = APPROVAL_DATE_TIME ( #167, #77 ) ;
#62 = APPROVAL_ROLE ( '' ) ;
#63 = AXIS2_PLACEMENT_3D ( 'NONE', #174, #102, #149 ) ;
#64 = EDGE_CURVE ( 'NONE', #50, #50, #4, .T. ) ;
#65 = DATE_AND_TIME ( #126, #67 ) ;
#66 = APPLICATION_CONTEXT ( 'configuration controlled 3d designs of mechanical parts and assemblies' ) ;
#67 = LOCAL_TIME ( 1, 49, 6.000000000000000000, #123 ) ;
#68 = FACE_OUTER_BOUND ( 'NONE', #89, .T. ) ;
#69 = CARTESIAN_POINT ( 'NONE',  ( 0.000000000000000000, 17.98217129799638414, 0.000000000000000000 ) ) ;
#70 = DIRECTION ( 'NONE',  ( -0.000000000000000000, -1.000000000000000000, -0.000000000000000000 ) ) ;
#71 = CC_DESIGN_SECURITY_CLASSIFICATION ( #145, ( #176 ) ) ;
#72 = FACE_OUTER_BOUND ( 'NONE', #185, .T. ) ;
#73 = DIRECTION ( 'NONE',  ( 0.000000000000000000, -1.000000000000000000, 0.000000000000000000 ) ) ;
#74 = AXIS2_PLACEMENT_3D ( 'NONE', #48, #178, #14 ) ;
#75 = PERSON_AND_ORGANIZATION_ROLE ( 'design_owner' ) ;
#76 = PERSON_AND_ORGANIZATION ( #6, #128 ) ;
#77 = APPROVAL ( #82, '未指定' ) ;
#78 = PERSON_AND_ORGANIZATION_ROLE ( 'design_supplier' ) ;
#79 = COORDINATED_UNIVERSAL_TIME_OFFSET ( 8, 0, .AHEAD. ) ;
#80 = CLOSED_SHELL ( 'NONE', ( #53, #121, #190, #88, #15, #182 ) ) ;
#81 = EDGE_LOOP ( 'NONE', ( #41 ) ) ;
#82 = APPROVAL_STATUS ( 'not_yet_approved' ) ;
#83 = APPROVAL_PERSON_ORGANIZATION ( #93, #142, #62 ) ;
#84 = CARTESIAN_POINT ( 'NONE',  ( 0.000000000000000000, 16.98217129799638059, 0.000000000000000000 ) ) ;
#85 = EDGE_LOOP ( 'NONE', ( #147 ) ) ;
#86 = CARTESIAN_POINT ( 'NONE',  ( 0.000000000000000000, 17.98217129799638414, 0.000000000000000000 ) ) ;
#87 = DIRECTION ( 'NONE',  ( 0.000000000000000000, 0.000000000000000000, 1.000000000000000000 ) ) ;
#88 = ADVANCED_FACE ( 'NONE', ( #173, #72 ), #105, .T. ) ;
#89 = EDGE_LOOP ( 'NONE', ( #111 ) ) ;
#90 = DIRECTION ( 'NONE',  ( -0.000000000000000000, 1.000000000000000000, 0.000000000000000000 ) ) ;
#91 =( NAMED_UNIT ( * ) SI_UNIT ( $, .STERADIAN. ) SOLID_ANGLE_UNIT ( ) );
#92 = COORDINATED_UNIVERSAL_TIME_OFFSET ( 8, 0, .AHEAD. ) ;
#93 = PERSON_AND_ORGANIZATION ( #6, #128 ) ;
#94 = DATE_AND_TIME ( #155, #58 ) ;
#95 = EDGE_LOOP ( 'NONE', ( #56 ) ) ;
#96 = PERSON_AND_ORGANIZATION ( #6, #128 ) ;
#97 = APPROVAL ( #119, '未指定' ) ;
#98 = EDGE_LOOP ( 'NONE', ( #127 ) ) ;
#99 = FACE_OUTER_BOUND ( 'NONE', #81, .T. ) ;
#100 = DIRECTION ( 'NONE',  ( 0.000000000000000000, -1.000000000000000000, 0.000000000000000000 ) ) ;
#101 = EDGE_CURVE ( 'NONE', #150, #150, #135, .T. ) ;
#102 = DIRECTION ( 'NONE',  ( -0.000000000000000000, 1.000000000000000000, -0.000000000000000000 ) ) ;
#103 = VERTEX_POINT ( 'NONE', #193 ) ;
#104 = FACE_BOUND ( 'NONE', #22, .T. ) ;
#105 = CONICAL_SURFACE ( 'NONE', #110, 12.55000000000000249, 0.2007128639793515912 ) ;
#106 = PERSON_AND_ORGANIZATION ( #6, #128 ) ;
#107 = AXIS2_PLACEMENT_3D ( 'NONE', #132, #11, #116 ) ;
#108 = PERSON_AND_ORGANIZATION ( #6, #128 ) ;
#109 = ORIENTED_EDGE ( 'NONE', *, *, #64, .T. ) ;
#110 = AXIS2_PLACEMENT_3D ( 'NONE', #69, #100, #129 ) ;
#111 = ORIENTED_EDGE ( 'NONE', *, *, #64, .F. ) ;
#112 = DIRECTION ( 'NONE',  ( 0.000000000000000000, 0.000000000000000000, -1.000000000000000000 ) ) ;
#113 = EDGE_LOOP ( 'NONE', ( #188 ) ) ;
#114 = AXIS2_PLACEMENT_3D ( 'NONE', #186, #115, #24 ) ;
#115 = DIRECTION ( 'NONE',  ( -0.000000000000000000, 1.000000000000000000, -0.000000000000000000 ) ) ;
#116 = DIRECTION ( 'NONE',  ( 0.000000000000000000, -0.000000000000000000, 1.000000000000000000 ) ) ;
#117 = PRODUCT_RELATED_PRODUCT_CATEGORY ( 'detail', '', ( #158 ) ) ;
#118 = AXIS2_PLACEMENT_3D ( 'NONE', #171, #43, #112 ) ;
#119 = APPROVAL_STATUS ( 'not_yet_approved' ) ;
#120 = CONICAL_SURFACE ( 'NONE', #118, 10.71892930518667342, 1.308996938995743431 ) ;
#121 = ADVANCED_FACE ( 'NONE', ( #148 ), #28, .F. ) ;
#122 = EDGE_CURVE ( 'NONE', #153, #153, #168, .T. ) ;
#123 = COORDINATED_UNIVERSAL_TIME_OFFSET ( 8, 0, .AHEAD. ) ;
#124 = DESIGN_CONTEXT ( 'detailed design', #66, 'design' ) ;
#125 = SHAPE_DEFINITION_REPRESENTATION ( #5, #140 ) ;
#126 = CALENDAR_DATE ( 2022, 8, 11 ) ;
#127 = ORIENTED_EDGE ( 'NONE', *, *, #122, .F. ) ;
#128 = ORGANIZATION ( '未指定', '未指定', '' ) ;
#129 = DIRECTION ( 'NONE',  ( 0.000000000000000000, 0.000000000000000000, -1.000000000000000000 ) ) ;
#130 = ORIENTED_EDGE ( 'NONE', *, *, #101, .T. ) ;
#131 = APPROVAL_PERSON_ORGANIZATION ( #108, #77, #35 ) ;
#132 = CARTESIAN_POINT ( 'NONE',  ( 0.000000000000000000, 0.000000000000000000, 0.000000000000000000 ) ) ;
#133 = DIRECTION ( 'NONE',  ( 0.000000000000000000, 0.000000000000000000, -1.000000000000000000 ) ) ;
#134 = CARTESIAN_POINT ( 'NONE',  ( 0.000000000000000000, 17.98217129799638414, 6.000000000000000000 ) ) ;
#135 = CIRCLE ( 'NONE', #159, 5.000000000000000000 ) ;
#136 = CARTESIAN_POINT ( 'NONE',  ( 0.000000000000000000, 17.98217129799638414, 12.55000000000000249 ) ) ;
#137 = TOROIDAL_SURFACE ( 'NONE', #16, 6.000000000000000000, 1.000000000000000000 ) ;
#138 = PERSON_AND_ORGANIZATION_ROLE ( 'classification_officer' ) ;
#139 = DATE_AND_TIME ( #184, #49 ) ;
#140 = ADVANCED_BREP_SHAPE_REPRESENTATION ( '00779_index_3', ( #47, #74 ), #32 ) ;
#141 = COORDINATED_UNIVERSAL_TIME_OFFSET ( 8, 0, .AHEAD. ) ;
#142 = APPROVAL ( #60, '未指定' ) ;
#143 = DIRECTION ( 'NONE',  ( 0.000000000000000000, 0.000000000000000000, 1.000000000000000000 ) ) ;
#144 = CC_DESIGN_PERSON_AND_ORGANIZATION_ASSIGNMENT ( #106, #138, ( #145 ) ) ;
#145 = SECURITY_CLASSIFICATION ( '', '', #52 ) ;
#146 = DIRECTION ( 'NONE',  ( -0.000000000000000000, 1.000000000000000000, -0.000000000000000000 ) ) ;
#147 = ORIENTED_EDGE ( 'NONE', *, *, #122, .T. ) ;
#148 = FACE_OUTER_BOUND ( 'NONE', #25, .T. ) ;
#149 = DIRECTION ( 'NONE',  ( 0.000000000000000000, 0.000000000000000000, 1.000000000000000000 ) ) ;
#150 = VERTEX_POINT ( 'NONE', #13 ) ;
#151 = CIRCLE ( 'NONE', #172, 12.55000000000000249 ) ;
#152 = APPLICATION_PROTOCOL_DEFINITION ( 'international standard', 'config_control_design', 1994, #1 ) ;
#153 = VERTEX_POINT ( 'NONE', #166 ) ;
#154 = UNCERTAINTY_MEASURE_WITH_UNIT (LENGTH_MEASURE( 1.000000000000000082E-05 ), #46, 'distance_accuracy_value', 'NONE');
#155 = CALENDAR_DATE ( 2022, 8, 11 ) ;
#156 = DATE_TIME_ROLE ( 'creation_date' ) ;
#157 = EDGE_CURVE ( 'NONE', #103, #103, #29, .T. ) ;
#158 = PRODUCT ( '00779_index_3', '00779_index_3', '', ( #189 ) ) ;
#159 = AXIS2_PLACEMENT_3D ( 'NONE', #161, #27, #87 ) ;
#160 = FACE_OUTER_BOUND ( 'NONE', #170, .T. ) ;
#161 = CARTESIAN_POINT ( 'NONE',  ( 0.000000000000000000, 0.000000000000000000, 0.000000000000000000 ) ) ;
#162 =( NAMED_UNIT ( * ) PLANE_ANGLE_UNIT ( ) SI_UNIT ( $, .RADIAN. ) );
#163 = CARTESIAN_POINT ( 'NONE',  ( 1.632751159640400068E-15, 17.98217129799638414, 0.000000000000000000 ) ) ;
#164 = FACE_OUTER_BOUND ( 'NONE', #113, .T. ) ;
#165 = AXIS2_PLACEMENT_3D ( 'NONE', #12, #73, #143 ) ;
#166 = CARTESIAN_POINT ( 'NONE',  ( 0.000000000000000000, 26.98217129799638414, 10.71892930518667342 ) ) ;
#167 = DATE_AND_TIME ( #183, #9 ) ;
#168 = CIRCLE ( 'NONE', #63, 10.71892930518667342 ) ;
#169 = ORIENTED_EDGE ( 'NONE', *, *, #40, .T. ) ;
#170 = EDGE_LOOP ( 'NONE', ( #130 ) ) ;
#171 = CARTESIAN_POINT ( 'NONE',  ( 0.000000000000000000, 26.98217129799638414, 0.000000000000000000 ) ) ;
#172 = AXIS2_PLACEMENT_3D ( 'NONE', #86, #42, #8 ) ;
#173 = FACE_BOUND ( 'NONE', #98, .T. ) ;
#174 = CARTESIAN_POINT ( 'NONE',  ( 0.000000000000000000, 26.98217129799638414, 0.000000000000000000 ) ) ;
#175 = DIRECTION ( 'NONE',  ( 0.000000000000000000, 0.000000000000000000, 1.000000000000000000 ) ) ;
#176 = PRODUCT_DEFINITION_FORMATION_WITH_SPECIFIED_SOURCE ( '任何', '', #158, .NOT_KNOWN. ) ;
#177 = CC_DESIGN_PERSON_AND_ORGANIZATION_ASSIGNMENT ( #38, #78, ( #176 ) ) ;
#178 = DIRECTION ( 'NONE',  ( 0.000000000000000000, 0.000000000000000000, 1.000000000000000000 ) ) ;
#179 = PLANE ( 'NONE',  #180 ) ;
#180 = AXIS2_PLACEMENT_3D ( 'NONE', #163, #90, #192 ) ;
#181 = VERTEX_POINT ( 'NONE', #136 ) ;
#182 = ADVANCED_FACE ( 'NONE', ( #54, #68 ), #137, .F. ) ;
#183 = CALENDAR_DATE ( 2022, 8, 11 ) ;
#184 = CALENDAR_DATE ( 2022, 8, 11 ) ;
#185 = EDGE_LOOP ( 'NONE', ( #169 ) ) ;
#186 = CARTESIAN_POINT ( 'NONE',  ( 0.000000000000000000, 17.98217129799638414, 0.000000000000000000 ) ) ;
#187 = LOCAL_TIME ( 1, 49, 6.000000000000000000, #92 ) ;
#188 = ORIENTED_EDGE ( 'NONE', *, *, #40, .F. ) ;
#189 = MECHANICAL_CONTEXT ( 'NONE', #1, 'mechanical' ) ;
#190 = ADVANCED_FACE ( 'NONE', ( #104, #164 ), #179, .F. ) ;
#191 = CC_DESIGN_APPROVAL ( #142, ( #145 ) ) ;
#192 = DIRECTION ( 'NONE',  ( 0.000000000000000000, 0.000000000000000000, 1.000000000000000000 ) ) ;
#193 = CARTESIAN_POINT ( 'NONE',  ( 0.000000000000000000, 16.98217129799638059, 5.000000000000000000 ) ) ;
#194 = CALENDAR_DATE ( 2022, 8, 11 ) ;
#195 = DATE_TIME_ROLE ( 'classification_date' ) ;
ENDSEC;
END-ISO-10303-21;
