ISO-10303-21;
HEADER;
FILE_DESCRIPTION (( 'STEP AP203' ),
    '1' );
FILE_NAME ('00790_index_2.step',
    '2022-11-07T17:50:53',
    ( '' ),
    ( '' ),
    'SwSTEP 2.0',
    'SolidWorks 2020',
    '' );
FILE_SCHEMA (( 'CONFIG_CONTROL_DESIGN' ));
ENDSEC;

DATA;
#1 = FACE_OUTER_BOUND ( 'NONE', #370, .T. ) ;
#2 = ORIENTED_EDGE ( 'NONE', *, *, #113, .F. ) ;
#3 = PLANE ( 'NONE',  #308 ) ;
#4 = ORIENTED_EDGE ( 'NONE', *, *, #359, .F. ) ;
#5 = CIRCLE ( 'NONE', #240, 10.59999999999999787 ) ;
#6 = AXIS2_PLACEMENT_3D ( 'NONE', #298, #106, #226 ) ;
#7 = FACE_BOUND ( 'NONE', #75, .T. ) ;
#8 = VERTEX_POINT ( 'NONE', #143 ) ;
#9 = COORDINATED_UNIVERSAL_TIME_OFFSET ( 8, 0, .AHEAD. ) ;
#10 = DIRECTION ( 'NONE',  ( 0.000000000000000000, 0.000000000000000000, 1.000000000000000000 ) ) ;
#11 = ORIENTED_EDGE ( 'NONE', *, *, #74, .T. ) ;
#12 = COORDINATED_UNIVERSAL_TIME_OFFSET ( 8, 0, .AHEAD. ) ;
#13 = DIRECTION ( 'NONE',  ( -1.000000000000000000, -0.000000000000000000, -0.000000000000000000 ) ) ;
#14 = PERSON ( '未指定', '未指定', '未指定', ('未指定'), ('未指定'), ('未指定') ) ;
#15 = ORIENTED_EDGE ( 'NONE', *, *, #299, .F. ) ;
#16 = CC_DESIGN_SECURITY_CLASSIFICATION ( #355, ( #211 ) ) ;
#17 = CYLINDRICAL_SURFACE ( 'NONE', #119, 14.45000000000000462 ) ;
#18 = CIRCLE ( 'NONE', #262, 13.24999999999999822 ) ;
#19 = EDGE_CURVE ( 'NONE', #316, #316, #383, .T. ) ;
#20 = ORIENTED_EDGE ( 'NONE', *, *, #124, .F. ) ;
#21 = APPROVAL_DATE_TIME ( #172, #98 ) ;
#22 = CARTESIAN_POINT ( 'NONE',  ( 14.00000000000001243, 0.000000000000000000, 14.45000000000000462 ) ) ;
#23 = CARTESIAN_POINT ( 'NONE',  ( 10.50000000000002309, 17.00000000000000000, 0.000000000000000000 ) ) ;
#24 = CALENDAR_DATE ( 2022, 8, 11 ) ;
#25 = DIRECTION ( 'NONE',  ( 0.000000000000000000, 0.000000000000000000, 1.000000000000000000 ) ) ;
#26 = DIRECTION ( 'NONE',  ( 0.000000000000000000, 0.000000000000000000, 1.000000000000000000 ) ) ;
#27 = CIRCLE ( 'NONE', #300, 3.750100000000005984 ) ;
#28 = ORIENTED_EDGE ( 'NONE', *, *, #267, .F. ) ;
#29 = AXIS2_PLACEMENT_3D ( 'NONE', #302, #33, #105 ) ;
#30 = EDGE_CURVE ( 'NONE', #261, #261, #5, .T. ) ;
#31 = DIRECTION ( 'NONE',  ( 0.000000000000000000, 0.000000000000000000, 1.000000000000000000 ) ) ;
#32 = VECTOR ( 'NONE', #66, 1000.000000000000000 ) ;
#33 = DIRECTION ( 'NONE',  ( -1.000000000000000000, -0.000000000000000000, -0.000000000000000000 ) ) ;
#34 = EDGE_LOOP ( 'NONE', ( #304 ) ) ;
#35 = PLANE ( 'NONE',  #244 ) ;
#36 = EDGE_LOOP ( 'NONE', ( #131, #28 ) ) ;
#37 = DIRECTION ( 'NONE',  ( 0.000000000000000000, 0.000000000000000000, 1.000000000000000000 ) ) ;
#38 = ADVANCED_FACE ( 'NONE', ( #263 ), #380, .F. ) ;
#39 = ORIENTED_EDGE ( 'NONE', *, *, #113, .T. ) ;
#40 = TOROIDAL_SURFACE ( 'NONE', #354, 10.59999999999999787, 0.6000000000000015321 ) ;
#41 = ORGANIZATION ( '未指定', '未指定', '' ) ;
#42 = PRODUCT ( '00790_index_2', '00790_index_2', '', ( #315 ) ) ;
#43 = FACE_OUTER_BOUND ( 'NONE', #278, .T. ) ;
#44 = EDGE_CURVE ( 'NONE', #306, #366, #180, .T. ) ;
#45 = EDGE_LOOP ( 'NONE', ( #334, #339, #223, #280 ) ) ;
#46 = DATE_TIME_ROLE ( 'creation_date' ) ;
#47 = CYLINDRICAL_SURFACE ( 'NONE', #234, 9.999999999999998224 ) ;
#48 = ORIENTED_EDGE ( 'NONE', *, *, #388, .T. ) ;
#49 = APPROVAL_STATUS ( 'not_yet_approved' ) ;
#50 = ADVANCED_FACE ( 'NONE', ( #178, #204 ), #128, .T. ) ;
#51 = DIRECTION ( 'NONE',  ( 0.000000000000000000, 0.000000000000000000, 1.000000000000000000 ) ) ;
#52 = VERTEX_POINT ( 'NONE', #348 ) ;
#53 = CARTESIAN_POINT ( 'NONE',  ( 3.500000000000013323, 17.00000000000000000, 0.000000000000000000 ) ) ;
#54 = EDGE_LOOP ( 'NONE', ( #134, #4, #377, #20, #164, #48, #86, #11 ) ) ;
#55 = SECURITY_CLASSIFICATION_LEVEL ( 'unclassified' ) ;
#56 = CARTESIAN_POINT ( 'NONE',  ( 1.387778780781445676E-14, 0.000000000000000000, 14.45000000000000462 ) ) ;
#57 = DIRECTION ( 'NONE',  ( -1.000000000000000000, -0.000000000000000000, -0.000000000000000000 ) ) ;
#58 = LINE ( 'NONE', #177, #347 ) ;
#59 = APPROVAL_PERSON_ORGANIZATION ( #250, #92, #312 ) ;
#60 = AXIS2_PLACEMENT_3D ( 'NONE', #53, #141, #283 ) ;
#61 = EDGE_CURVE ( 'NONE', #258, #258, #162, .T. ) ;
#62 = CC_DESIGN_APPROVAL ( #98, ( #211 ) ) ;
#63 = DIRECTION ( 'NONE',  ( 0.000000000000000000, 0.000000000000000000, 1.000000000000000000 ) ) ;
#64 = DIRECTION ( 'NONE',  ( 1.000000000000000000, 0.000000000000000000, 0.000000000000000000 ) ) ;
#65 = AXIS2_PLACEMENT_3D ( 'NONE', #173, #13, #372 ) ;
#66 = DIRECTION ( 'NONE',  ( -1.000000000000000000, -0.000000000000000000, -0.000000000000000000 ) ) ;
#67 = ORIENTED_EDGE ( 'NONE', *, *, #174, .T. ) ;
#68 = DIRECTION ( 'NONE',  ( -0.000000000000000000, 0.000000000000000000, 1.000000000000000000 ) ) ;
#69 = EDGE_CURVE ( 'NONE', #52, #95, #58, .T. ) ;
#70 = EDGE_LOOP ( 'NONE', ( #219 ) ) ;
#71 = CARTESIAN_POINT ( 'NONE',  ( 0.6000000000000137446, 0.000000000000000000, 0.000000000000000000 ) ) ;
#72 = ORIENTED_EDGE ( 'NONE', *, *, #30, .T. ) ;
#73 = FACE_OUTER_BOUND ( 'NONE', #108, .T. ) ;
#74 = EDGE_CURVE ( 'NONE', #306, #95, #153, .T. ) ;
#75 = EDGE_LOOP ( 'NONE', ( #274 ) ) ;
#76 = FACE_OUTER_BOUND ( 'NONE', #190, .T. ) ;
#77 = CYLINDRICAL_SURFACE ( 'NONE', #6, 13.25000000000000533 ) ;
#78 = APPROVAL_ROLE ( '' ) ;
#79 = CARTESIAN_POINT ( 'NONE',  ( -10.08009412718792497, 0.000000000000000000, 0.000000000000000000 ) ) ;
#80 = DIRECTION ( 'NONE',  ( -1.000000000000000000, 0.000000000000000000, -0.000000000000000000 ) ) ;
#81 = DIRECTION ( 'NONE',  ( 0.000000000000000000, 0.000000000000000000, 1.000000000000000000 ) ) ;
#82 = AXIS2_PLACEMENT_3D ( 'NONE', #392, #165, #133 ) ;
#83 = DIRECTION ( 'NONE',  ( 1.000000000000000000, 0.000000000000000000, 0.000000000000000000 ) ) ;
#84 = COORDINATED_UNIVERSAL_TIME_OFFSET ( 8, 0, .AHEAD. ) ;
#85 = EDGE_CURVE ( 'NONE', #332, #139, #137, .T. ) ;
#86 = ORIENTED_EDGE ( 'NONE', *, *, #267, .T. ) ;
#87 = AXIS2_PLACEMENT_3D ( 'NONE', #123, #218, #37 ) ;
#88 = ADVANCED_FACE ( 'NONE', ( #115 ), #77, .T. ) ;
#89 = AXIS2_PLACEMENT_3D ( 'NONE', #196, #57, #26 ) ;
#90 = AXIS2_PLACEMENT_3D ( 'NONE', #375, #201, #257 ) ;
#91 = DIRECTION ( 'NONE',  ( 1.000000000000000000, 0.000000000000000000, 0.000000000000000000 ) ) ;
#92 = APPROVAL ( #101, '未指定' ) ;
#93 = DIRECTION ( 'NONE',  ( -1.000000000000000000, -0.000000000000000000, -0.000000000000000000 ) ) ;
#94 = AXIS2_PLACEMENT_3D ( 'NONE', #365, #152, #335 ) ;
#95 = VERTEX_POINT ( 'NONE', #342 ) ;
#96 = DIRECTION ( 'NONE',  ( -1.000000000000000000, 0.000000000000000000, -0.000000000000000000 ) ) ;
#97 = ORIENTED_EDGE ( 'NONE', *, *, #345, .F. ) ;
#98 = APPROVAL ( #381, '未指定' ) ;
#99 = DIRECTION ( 'NONE',  ( 0.000000000000000000, 0.000000000000000000, 1.000000000000000000 ) ) ;
#100 = ORIENTED_EDGE ( 'NONE', *, *, #155, .F. ) ;
#101 = APPROVAL_STATUS ( 'not_yet_approved' ) ;
#102 = CARTESIAN_POINT ( 'NONE',  ( 0.6000000000000137446, 0.000000000000000000, 0.000000000000000000 ) ) ;
#103 = ORIENTED_EDGE ( 'NONE', *, *, #61, .F. ) ;
#104 = APPROVAL_DATE_TIME ( #371, #92 ) ;
#105 = DIRECTION ( 'NONE',  ( 0.000000000000000000, 0.000000000000000000, 1.000000000000000000 ) ) ;
#106 = DIRECTION ( 'NONE',  ( -1.000000000000000000, -0.000000000000000000, -0.000000000000000000 ) ) ;
#107 = DIRECTION ( 'NONE',  ( -1.000000000000000000, -0.000000000000000000, -0.000000000000000000 ) ) ;
#108 = EDGE_LOOP ( 'NONE', ( #156, #336 ) ) ;
#109 = PERSON_AND_ORGANIZATION ( #14, #41 ) ;
#110 = CARTESIAN_POINT ( 'NONE',  ( 10.50000000000002309, 17.00000000000000000, 0.000000000000000000 ) ) ;
#111 = CARTESIAN_POINT ( 'NONE',  ( 3.499999999999999556, 13.25000000000001243, 0.000000000000000000 ) ) ;
#112 = PERSON_AND_ORGANIZATION_ROLE ( 'creator' ) ;
#113 = EDGE_CURVE ( 'NONE', #228, #228, #171, .T. ) ;
#114 = AXIS2_PLACEMENT_3D ( 'NONE', #71, #157, #99 ) ;
#115 = FACE_OUTER_BOUND ( 'NONE', #256, .T. ) ;
#116 = DESIGN_CONTEXT ( 'detailed design', #245, 'design' ) ;
#117 = ORIENTED_EDGE ( 'NONE', *, *, #210, .F. ) ;
#118 = SHAPE_DEFINITION_REPRESENTATION ( #310, #390 ) ;
#119 = AXIS2_PLACEMENT_3D ( 'NONE', #79, #195, #323 ) ;
#120 = AXIS2_PLACEMENT_3D ( 'NONE', #186, #303, #63 ) ;
#121 = DIRECTION ( 'NONE',  ( -0.000000000000000000, 0.000000000000000000, 1.000000000000000000 ) ) ;
#122 = ADVANCED_FACE ( 'NONE', ( #188, #1 ), #40, .T. ) ;
#123 = CARTESIAN_POINT ( 'NONE',  ( 3.500000000000013323, 17.00000000000000000, 0.000000000000000000 ) ) ;
#124 = EDGE_CURVE ( 'NONE', #246, #332, #207, .T. ) ;
#125 = ORIENTED_EDGE ( 'NONE', *, *, #124, .T. ) ;
#126 = CARTESIAN_POINT ( 'NONE',  ( 1.274869831013533715E-14, 14.45000000000000462, 0.000000000000000000 ) ) ;
#127 = APPLICATION_CONTEXT ( 'configuration controlled 3d designs of mechanical parts and assemblies' ) ;
#128 = TOROIDAL_SURFACE ( 'NONE', #268, 10.59999999999999787, 0.5999999999999963141 ) ;
#129 = EDGE_LOOP ( 'NONE', ( #185 ) ) ;
#130 = CARTESIAN_POINT ( 'NONE',  ( 14.00000000000001243, 14.45000000000000462, 0.000000000000000000 ) ) ;
#131 = ORIENTED_EDGE ( 'NONE', *, *, #325, .T. ) ;
#132 = CALENDAR_DATE ( 2022, 8, 11 ) ;
#133 = DIRECTION ( 'NONE',  ( 0.000000000000000000, 0.000000000000000000, 1.000000000000000000 ) ) ;
#134 = ORIENTED_EDGE ( 'NONE', *, *, #69, .F. ) ;
#135 = CALENDAR_DATE ( 2022, 8, 11 ) ;
#136 = CARTESIAN_POINT ( 'NONE',  ( 10.50000000000002309, 14.22762499970588301, -2.525309261802252347 ) ) ;
#137 = CIRCLE ( 'NONE', #89, 3.750100000000005984 ) ;
#138 = CARTESIAN_POINT ( 'NONE',  ( 0.6000000000000137446, 0.000000000000000000, 9.999999999999994671 ) ) ;
#139 = VERTEX_POINT ( 'NONE', #212 ) ;
#140 = PERSON_AND_ORGANIZATION_ROLE ( 'design_supplier' ) ;
#141 = DIRECTION ( 'NONE',  ( -1.000000000000000000, -0.000000000000000000, -0.000000000000000000 ) ) ;
#142 = ADVANCED_FACE ( 'NONE', ( #270, #242 ), #360, .T. ) ;
#143 = CARTESIAN_POINT ( 'NONE',  ( 10.50000000000002309, 13.24997794088235636, 0.02417780244570440912 ) ) ;
#144 = PERSON_AND_ORGANIZATION_ROLE ( 'classification_officer' ) ;
#145 = CARTESIAN_POINT ( 'NONE',  ( 10.50000000000000888, 0.000000000000000000, 0.000000000000000000 ) ) ;
#146 = ORIENTED_EDGE ( 'NONE', *, *, #150, .T. ) ;
#147 = AXIS2_PLACEMENT_3D ( 'NONE', #23, #259, #324 ) ;
#148 = LOCAL_TIME ( 1, 50, 53.00000000000000000, #84 ) ;
#149 = CARTESIAN_POINT ( 'NONE',  ( 13.40000000000002345, 0.000000000000000000, 0.000000000000000000 ) ) ;
#150 = EDGE_CURVE ( 'NONE', #95, #8, #18, .T. ) ;
#151 = CIRCLE ( 'NONE', #362, 14.44999999999999041 ) ;
#152 = DIRECTION ( 'NONE',  ( -1.000000000000000000, -0.000000000000000000, -0.000000000000000000 ) ) ;
#153 = CIRCLE ( 'NONE', #147, 3.750100000000005984 ) ;
#154 = CARTESIAN_POINT ( 'NONE',  ( 3.500000000000013323, 13.24997794088236169, 0.02417780244668535361 ) ) ;
#155 = EDGE_CURVE ( 'NONE', #332, #139, #151, .T. ) ;
#156 = ORIENTED_EDGE ( 'NONE', *, *, #325, .F. ) ;
#157 = DIRECTION ( 'NONE',  ( -1.000000000000000000, -0.000000000000000000, -0.000000000000000000 ) ) ;
#158 = APPROVAL ( #49, '未指定' ) ;
#159 = EDGE_LOOP ( 'NONE', ( #103 ) ) ;
#160 = CARTESIAN_POINT ( 'NONE',  ( 10.50000000000000888, 0.000000000000000000, 0.000000000000000000 ) ) ;
#161 = CC_DESIGN_APPROVAL ( #92, ( #355 ) ) ;
#162 = CIRCLE ( 'NONE', #209, 10.00000000000000178 ) ;
#163 = APPROVAL_PERSON_ORGANIZATION ( #194, #158, #78 ) ;
#164 = ORIENTED_EDGE ( 'NONE', *, *, #174, .F. ) ;
#165 = DIRECTION ( 'NONE',  ( -1.000000000000000000, -0.000000000000000000, -0.000000000000000000 ) ) ;
#166 = EDGE_LOOP ( 'NONE', ( #271 ) ) ;
#167 = CARTESIAN_POINT ( 'NONE',  ( 3.499999999999999556, 0.000000000000000000, 0.000000000000000000 ) ) ;
#168 = DATE_AND_TIME ( #289, #309 ) ;
#169 = CARTESIAN_POINT ( 'NONE',  ( 13.40000000000002345, 0.000000000000000000, 10.00000000000000178 ) ) ;
#170 = DIRECTION ( 'NONE',  ( -1.000000000000000000, -0.000000000000000000, -0.000000000000000000 ) ) ;
#171 = CIRCLE ( 'NONE', #114, 9.999999999999994671 ) ;
#172 = DATE_AND_TIME ( #318, #148 ) ;
#173 = CARTESIAN_POINT ( 'NONE',  ( 14.00000000000001243, 0.000000000000000000, 0.000000000000000000 ) ) ;
#174 = EDGE_CURVE ( 'NONE', #8, #246, #213, .T. ) ;
#175 = PERSON_AND_ORGANIZATION ( #14, #41 ) ;
#176 = PRODUCT_DEFINITION ( '未知', '', #211, #116 ) ;
#177 = CARTESIAN_POINT ( 'NONE',  ( 7.000000000000011546, 13.24997794088235459, -0.02417780244556428856 ) ) ;
#178 = FACE_OUTER_BOUND ( 'NONE', #70, .T. ) ;
#179 = AXIS2_PLACEMENT_3D ( 'NONE', #145, #231, #81 ) ;
#180 = CIRCLE ( 'NONE', #389, 14.45000000000000462 ) ;
#181 = FACE_OUTER_BOUND ( 'NONE', #129, .T. ) ;
#182 = DIRECTION ( 'NONE',  ( 0.000000000000000000, 0.000000000000000000, -1.000000000000000000 ) ) ;
#183 = AXIS2_PLACEMENT_3D ( 'NONE', #363, #272, #369 ) ;
#184 = CARTESIAN_POINT ( 'NONE',  ( 3.500000000000013323, 17.00000000000000000, 0.000000000000000000 ) ) ;
#185 = ORIENTED_EDGE ( 'NONE', *, *, #19, .F. ) ;
#186 = CARTESIAN_POINT ( 'NONE',  ( 10.50000000000002309, 17.00000000000000000, 0.000000000000000000 ) ) ;
#187 = ORIENTED_EDGE ( 'NONE', *, *, #69, .T. ) ;
#188 = FACE_OUTER_BOUND ( 'NONE', #284, .T. ) ;
#189 = AXIS2_PLACEMENT_3D ( 'NONE', #338, #286, #198 ) ;
#190 = EDGE_LOOP ( 'NONE', ( #39 ) ) ;
#191 = PERSON_AND_ORGANIZATION ( #14, #41 ) ;
#192 = VERTEX_POINT ( 'NONE', #56 ) ;
#193 = ORIENTED_EDGE ( 'NONE', *, *, #361, .T. ) ;
#194 = PERSON_AND_ORGANIZATION ( #14, #41 ) ;
#195 = DIRECTION ( 'NONE',  ( -1.000000000000000000, -0.000000000000000000, -0.000000000000000000 ) ) ;
#196 = CARTESIAN_POINT ( 'NONE',  ( 3.500000000000013323, 17.00000000000000000, 0.000000000000000000 ) ) ;
#197 = PERSON_AND_ORGANIZATION_ROLE ( 'design_owner' ) ;
#198 = DIRECTION ( 'NONE',  ( 0.000000000000000000, 0.000000000000000000, -1.000000000000000000 ) ) ;
#199 = CARTESIAN_POINT ( 'NONE',  ( 10.50000000000000888, 0.000000000000000000, 0.000000000000000000 ) ) ;
#200 = CIRCLE ( 'NONE', #238, 14.44999999999999041 ) ;
#201 = DIRECTION ( 'NONE',  ( 0.000000000000000000, 0.000000000000000000, 1.000000000000000000 ) ) ;
#202 = CARTESIAN_POINT ( 'NONE',  ( -10.08009412718792497, 0.000000000000000000, 0.000000000000000000 ) ) ;
#203 = CC_DESIGN_DATE_AND_TIME_ASSIGNMENT ( #337, #46, ( #176 ) ) ;
#204 = FACE_OUTER_BOUND ( 'NONE', #166, .T. ) ;
#205 = APPROVAL_DATE_TIME ( #168, #158 ) ;
#206 = DIRECTION ( 'NONE',  ( -0.000000000000000000, 0.000000000000000000, 1.000000000000000000 ) ) ;
#207 = CIRCLE ( 'NONE', #87, 3.750100000000005984 ) ;
#208 = ADVANCED_FACE ( 'NONE', ( #43 ), #329, .T. ) ;
#209 = AXIS2_PLACEMENT_3D ( 'NONE', #149, #291, #374 ) ;
#210 = EDGE_CURVE ( 'NONE', #52, #246, #320, .T. ) ;
#211 = PRODUCT_DEFINITION_FORMATION_WITH_SPECIFIED_SOURCE ( '任何', '', #42, .NOT_KNOWN. ) ;
#212 = CARTESIAN_POINT ( 'NONE',  ( 3.499999999999999556, 14.22762499970587058, -2.525309261802250571 ) ) ;
#213 = LINE ( 'NONE', #331, #32 ) ;
#214 = AXIS2_PLACEMENT_3D ( 'NONE', #111, #80, #206 ) ;
#215 = ORIENTED_EDGE ( 'NONE', *, *, #155, .T. ) ;
#216 = DIRECTION ( 'NONE',  ( -1.000000000000000000, -0.000000000000000000, -0.000000000000000000 ) ) ;
#217 = EDGE_LOOP ( 'NONE', ( #97, #237, #364, #125 ) ) ;
#218 = DIRECTION ( 'NONE',  ( -1.000000000000000000, -0.000000000000000000, -0.000000000000000000 ) ) ;
#219 = ORIENTED_EDGE ( 'NONE', *, *, #361, .F. ) ;
#220 = APPLICATION_PROTOCOL_DEFINITION ( 'international standard', 'config_control_design', 1994, #127 ) ;
#221 = FACE_BOUND ( 'NONE', #295, .T. ) ;
#222 = CIRCLE ( 'NONE', #179, 14.45000000000000462 ) ;
#223 = ORIENTED_EDGE ( 'NONE', *, *, #150, .F. ) ;
#224 =( LENGTH_UNIT ( ) NAMED_UNIT ( * ) SI_UNIT ( .MILLI., .METRE. ) );
#225 = FACE_OUTER_BOUND ( 'NONE', #229, .T. ) ;
#226 = DIRECTION ( 'NONE',  ( 0.000000000000000000, 0.000000000000000000, 1.000000000000000000 ) ) ;
#227 =( NAMED_UNIT ( * ) SI_UNIT ( $, .STERADIAN. ) SOLID_ANGLE_UNIT ( ) );
#228 = VERTEX_POINT ( 'NONE', #138 ) ;
#229 = EDGE_LOOP ( 'NONE', ( #265 ) ) ;
#230 = PERSON_AND_ORGANIZATION_ROLE ( 'creator' ) ;
#231 = DIRECTION ( 'NONE',  ( -1.000000000000000000, -0.000000000000000000, -0.000000000000000000 ) ) ;
#232 = CIRCLE ( 'NONE', #65, 10.59999999999999787 ) ;
#233 = DIRECTION ( 'NONE',  ( 0.000000000000000000, 0.000000000000000000, 1.000000000000000000 ) ) ;
#234 = AXIS2_PLACEMENT_3D ( 'NONE', #202, #293, #25 ) ;
#235 = DATE_TIME_ROLE ( 'classification_date' ) ;
#236 = DIRECTION ( 'NONE',  ( -1.000000000000000000, -0.000000000000000000, -0.000000000000000000 ) ) ;
#237 = ORIENTED_EDGE ( 'NONE', *, *, #359, .T. ) ;
#238 = AXIS2_PLACEMENT_3D ( 'NONE', #167, #107, #51 ) ;
#239 = LOCAL_TIME ( 1, 50, 53.00000000000000000, #292 ) ;
#240 = AXIS2_PLACEMENT_3D ( 'NONE', #344, #170, #386 ) ;
#241 = FACE_OUTER_BOUND ( 'NONE', #34, .T. ) ;
#242 = FACE_OUTER_BOUND ( 'NONE', #314, .T. ) ;
#243 = PLANE ( 'NONE',  #254 ) ;
#244 = AXIS2_PLACEMENT_3D ( 'NONE', #130, #305, #121 ) ;
#245 = APPLICATION_CONTEXT ( 'configuration controlled 3d designs of mechanical parts and assemblies' ) ;
#246 = VERTEX_POINT ( 'NONE', #154 ) ;
#247 = ADVANCED_FACE ( 'NONE', ( #181, #221 ), #35, .F. ) ;
#248 = FACE_OUTER_BOUND ( 'NONE', #36, .T. ) ;
#249 = ORIENTED_EDGE ( 'NONE', *, *, #85, .T. ) ;
#250 = PERSON_AND_ORGANIZATION ( #14, #41 ) ;
#251 = CYLINDRICAL_SURFACE ( 'NONE', #183, 3.750100000000005984 ) ;
#252 = APPLICATION_PROTOCOL_DEFINITION ( 'international standard', 'config_control_design', 1994, #245 ) ;
#253 = DIRECTION ( 'NONE',  ( 0.000000000000000000, 0.000000000000000000, 1.000000000000000000 ) ) ;
#254 = AXIS2_PLACEMENT_3D ( 'NONE', #301, #91, #182 ) ;
#255 = CARTESIAN_POINT ( 'NONE',  ( 14.00000000000001243, 0.000000000000000000, 10.59999999999999787 ) ) ;
#256 = EDGE_LOOP ( 'NONE', ( #117, #187, #146, #67 ) ) ;
#257 = DIRECTION ( 'NONE',  ( 1.000000000000000000, 0.000000000000000000, 0.000000000000000000 ) ) ;
#258 = VERTEX_POINT ( 'NONE', #169 ) ;
#259 = DIRECTION ( 'NONE',  ( -1.000000000000000000, -0.000000000000000000, -0.000000000000000000 ) ) ;
#260 = DATE_AND_TIME ( #24, #239 ) ;
#261 = VERTEX_POINT ( 'NONE', #378 ) ;
#262 = AXIS2_PLACEMENT_3D ( 'NONE', #160, #333, #275 ) ;
#263 = FACE_OUTER_BOUND ( 'NONE', #217, .T. ) ;
#264 = LOCAL_TIME ( 1, 50, 53.00000000000000000, #9 ) ;
#265 = ORIENTED_EDGE ( 'NONE', *, *, #19, .T. ) ;
#266 = CC_DESIGN_PERSON_AND_ORGANIZATION_ASSIGNMENT ( #285, #230, ( #176 ) ) ;
#267 = EDGE_CURVE ( 'NONE', #366, #306, #373, .T. ) ;
#268 = AXIS2_PLACEMENT_3D ( 'NONE', #321, #352, #326 ) ;
#269 = CC_DESIGN_PERSON_AND_ORGANIZATION_ASSIGNMENT ( #109, #197, ( #42 ) ) ;
#270 = FACE_OUTER_BOUND ( 'NONE', #317, .T. ) ;
#271 = ORIENTED_EDGE ( 'NONE', *, *, #61, .T. ) ;
#272 = DIRECTION ( 'NONE',  ( -1.000000000000000000, -0.000000000000000000, -0.000000000000000000 ) ) ;
#273 = ADVANCED_FACE ( 'NONE', ( #279 ), #251, .T. ) ;
#274 = ORIENTED_EDGE ( 'NONE', *, *, #30, .F. ) ;
#275 = DIRECTION ( 'NONE',  ( 0.000000000000000000, 0.000000000000000000, 1.000000000000000000 ) ) ;
#276 = AXIS2_PLACEMENT_3D ( 'NONE', #184, #96, #68 ) ;
#277 =( GEOMETRIC_REPRESENTATION_CONTEXT ( 3 ) GLOBAL_UNCERTAINTY_ASSIGNED_CONTEXT ( ( #367 ) ) GLOBAL_UNIT_ASSIGNED_CONTEXT ( ( #224, #340, #227 ) ) REPRESENTATION_CONTEXT ( 'NONE', 'WORKASPACE' ) );
#278 = EDGE_LOOP ( 'NONE', ( #100, #249 ) ) ;
#279 = FACE_OUTER_BOUND ( 'NONE', #54, .T. ) ;
#280 = ORIENTED_EDGE ( 'NONE', *, *, #74, .F. ) ;
#281 = COORDINATED_UNIVERSAL_TIME_OFFSET ( 8, 0, .AHEAD. ) ;
#282 = ADVANCED_FACE ( 'NONE', ( #7, #241 ), #3, .F. ) ;
#283 = DIRECTION ( 'NONE',  ( 0.000000000000000000, 0.000000000000000000, 1.000000000000000000 ) ) ;
#284 = EDGE_LOOP ( 'NONE', ( #2 ) ) ;
#285 = PERSON_AND_ORGANIZATION ( #14, #41 ) ;
#286 = DIRECTION ( 'NONE',  ( 1.000000000000000000, 0.000000000000000000, 0.000000000000000000 ) ) ;
#287 = CIRCLE ( 'NONE', #60, 3.750100000000005984 ) ;
#288 = DIRECTION ( 'NONE',  ( -1.000000000000000000, -0.000000000000000000, -0.000000000000000000 ) ) ;
#289 = CALENDAR_DATE ( 2022, 8, 11 ) ;
#290 = CARTESIAN_POINT ( 'NONE',  ( 10.50000000000002309, 14.22762499970588301, 2.525309261802252347 ) ) ;
#291 = DIRECTION ( 'NONE',  ( -1.000000000000000000, -0.000000000000000000, -0.000000000000000000 ) ) ;
#292 = COORDINATED_UNIVERSAL_TIME_OFFSET ( 8, 0, .AHEAD. ) ;
#293 = DIRECTION ( 'NONE',  ( -1.000000000000000000, -0.000000000000000000, -0.000000000000000000 ) ) ;
#294 = ADVANCED_FACE ( 'NONE', ( #248 ), #243, .T. ) ;
#295 = EDGE_LOOP ( 'NONE', ( #193 ) ) ;
#296 = CLOSED_SHELL ( 'NONE', ( #282, #122, #351, #50, #247, #393, #330, #88, #38, #142, #294, #208, #273 ) ) ;
#297 = PRODUCT_RELATED_PRODUCT_CATEGORY ( 'detail', '', ( #42 ) ) ;
#298 = CARTESIAN_POINT ( 'NONE',  ( -10.08009412718792497, 0.000000000000000000, 0.000000000000000000 ) ) ;
#299 = EDGE_CURVE ( 'NONE', #192, #192, #356, .T. ) ;
#300 = AXIS2_PLACEMENT_3D ( 'NONE', #110, #346, #253 ) ;
#301 = CARTESIAN_POINT ( 'NONE',  ( 10.50000000000002309, 17.00000000000000000, 0.000000000000000000 ) ) ;
#302 = CARTESIAN_POINT ( 'NONE',  ( 1.387778780781445676E-14, 0.000000000000000000, 0.000000000000000000 ) ) ;
#303 = DIRECTION ( 'NONE',  ( -1.000000000000000000, -0.000000000000000000, -0.000000000000000000 ) ) ;
#304 = ORIENTED_EDGE ( 'NONE', *, *, #299, .T. ) ;
#305 = DIRECTION ( 'NONE',  ( -1.000000000000000000, 0.000000000000000000, -0.000000000000000000 ) ) ;
#306 = VERTEX_POINT ( 'NONE', #136 ) ;
#307 = CARTESIAN_POINT ( 'NONE',  ( 3.499999999999999556, 0.000000000000000000, 0.000000000000000000 ) ) ;
#308 = AXIS2_PLACEMENT_3D ( 'NONE', #126, #64, #358 ) ;
#309 = LOCAL_TIME ( 1, 50, 53.00000000000000000, #12 ) ;
#310 = PRODUCT_DEFINITION_SHAPE ( 'NONE', 'NONE',  #176 ) ;
#311 = ORIENTED_EDGE ( 'NONE', *, *, #345, .T. ) ;
#312 = APPROVAL_ROLE ( '' ) ;
#313 = VERTEX_POINT ( 'NONE', #255 ) ;
#314 = EDGE_LOOP ( 'NONE', ( #215, #311 ) ) ;
#315 = MECHANICAL_CONTEXT ( 'NONE', #127, 'mechanical' ) ;
#316 = VERTEX_POINT ( 'NONE', #22 ) ;
#317 = EDGE_LOOP ( 'NONE', ( #15 ) ) ;
#318 = CALENDAR_DATE ( 2022, 8, 11 ) ;
#319 = FACE_OUTER_BOUND ( 'NONE', #159, .T. ) ;
#320 = CIRCLE ( 'NONE', #82, 13.25000000000001243 ) ;
#321 = CARTESIAN_POINT ( 'NONE',  ( 13.40000000000002345, 0.000000000000000000, 0.000000000000000000 ) ) ;
#322 = APPROVAL_ROLE ( '' ) ;
#323 = DIRECTION ( 'NONE',  ( 0.000000000000000000, 0.000000000000000000, 1.000000000000000000 ) ) ;
#324 = DIRECTION ( 'NONE',  ( 0.000000000000000000, 0.000000000000000000, 1.000000000000000000 ) ) ;
#325 = EDGE_CURVE ( 'NONE', #366, #306, #222, .T. ) ;
#326 = DIRECTION ( 'NONE',  ( 0.000000000000000000, 0.000000000000000000, 1.000000000000000000 ) ) ;
#327 = AXIS2_PLACEMENT_3D ( 'NONE', #387, #236, #350 ) ;
#328 = APPROVAL_PERSON_ORGANIZATION ( #191, #98, #322 ) ;
#329 = PLANE ( 'NONE',  #276 ) ;
#330 = ADVANCED_FACE ( 'NONE', ( #343 ), #341, .F. ) ;
#331 = CARTESIAN_POINT ( 'NONE',  ( 7.000000000000011546, 13.24997794088235459, 0.02417780244556428856 ) ) ;
#332 = VERTEX_POINT ( 'NONE', #376 ) ;
#333 = DIRECTION ( 'NONE',  ( -1.000000000000000000, -0.000000000000000000, -0.000000000000000000 ) ) ;
#334 = ORIENTED_EDGE ( 'NONE', *, *, #44, .T. ) ;
#335 = DIRECTION ( 'NONE',  ( 0.000000000000000000, 0.000000000000000000, 1.000000000000000000 ) ) ;
#336 = ORIENTED_EDGE ( 'NONE', *, *, #44, .F. ) ;
#337 = DATE_AND_TIME ( #132, #264 ) ;
#338 = CARTESIAN_POINT ( 'NONE',  ( 10.50000000000000888, 13.24999999999999822, 0.000000000000000000 ) ) ;
#339 = ORIENTED_EDGE ( 'NONE', *, *, #388, .F. ) ;
#340 =( NAMED_UNIT ( * ) PLANE_ANGLE_UNIT ( ) SI_UNIT ( $, .RADIAN. ) );
#341 = PLANE ( 'NONE',  #189 ) ;
#342 = CARTESIAN_POINT ( 'NONE',  ( 10.50000000000002309, 13.24997794088235636, -0.02417780244570440912 ) ) ;
#343 = FACE_OUTER_BOUND ( 'NONE', #45, .T. ) ;
#344 = CARTESIAN_POINT ( 'NONE',  ( 1.214306433183764966E-14, 0.000000000000000000, 0.000000000000000000 ) ) ;
#345 = EDGE_CURVE ( 'NONE', #139, #332, #200, .T. ) ;
#346 = DIRECTION ( 'NONE',  ( -1.000000000000000000, -0.000000000000000000, -0.000000000000000000 ) ) ;
#347 = VECTOR ( 'NONE', #83, 1000.000000000000000 ) ;
#348 = CARTESIAN_POINT ( 'NONE',  ( 3.500000000000013323, 13.24997794088236169, -0.02417780244668535361 ) ) ;
#349 = PERSON_AND_ORGANIZATION ( #14, #41 ) ;
#350 = DIRECTION ( 'NONE',  ( 0.000000000000000000, 0.000000000000000000, 1.000000000000000000 ) ) ;
#351 = ADVANCED_FACE ( 'NONE', ( #319, #76 ), #47, .F. ) ;
#352 = DIRECTION ( 'NONE',  ( -1.000000000000000000, -0.000000000000000000, -0.000000000000000000 ) ) ;
#353 = CC_DESIGN_DATE_AND_TIME_ASSIGNMENT ( #260, #235, ( #355 ) ) ;
#354 = AXIS2_PLACEMENT_3D ( 'NONE', #102, #216, #10 ) ;
#355 = SECURITY_CLASSIFICATION ( '', '', #55 ) ;
#356 = CIRCLE ( 'NONE', #29, 14.45000000000000462 ) ;
#357 = CC_DESIGN_PERSON_AND_ORGANIZATION_ASSIGNMENT ( #175, #144, ( #355 ) ) ;
#358 = DIRECTION ( 'NONE',  ( 0.000000000000000000, 0.000000000000000000, -1.000000000000000000 ) ) ;
#359 = EDGE_CURVE ( 'NONE', #139, #52, #287, .T. ) ;
#360 = CYLINDRICAL_SURFACE ( 'NONE', #94, 14.44999999999999751 ) ;
#361 = EDGE_CURVE ( 'NONE', #313, #313, #232, .T. ) ;
#362 = AXIS2_PLACEMENT_3D ( 'NONE', #307, #93, #31 ) ;
#363 = CARTESIAN_POINT ( 'NONE',  ( -1.603948851267690934, 17.00000000000000000, 0.000000000000000000 ) ) ;
#364 = ORIENTED_EDGE ( 'NONE', *, *, #210, .T. ) ;
#365 = CARTESIAN_POINT ( 'NONE',  ( -10.08009412718792497, 0.000000000000000000, 0.000000000000000000 ) ) ;
#366 = VERTEX_POINT ( 'NONE', #290 ) ;
#367 = UNCERTAINTY_MEASURE_WITH_UNIT (LENGTH_MEASURE( 1.000000000000000082E-05 ), #224, 'distance_accuracy_value', 'NONE');
#368 = PERSON_AND_ORGANIZATION ( #14, #41 ) ;
#369 = DIRECTION ( 'NONE',  ( 0.000000000000000000, 0.000000000000000000, 1.000000000000000000 ) ) ;
#370 = EDGE_LOOP ( 'NONE', ( #72 ) ) ;
#371 = DATE_AND_TIME ( #135, #382 ) ;
#372 = DIRECTION ( 'NONE',  ( 0.000000000000000000, 0.000000000000000000, 1.000000000000000000 ) ) ;
#373 = CIRCLE ( 'NONE', #120, 3.750100000000005984 ) ;
#374 = DIRECTION ( 'NONE',  ( 0.000000000000000000, 0.000000000000000000, 1.000000000000000000 ) ) ;
#375 = CARTESIAN_POINT ( 'NONE',  ( 0.000000000000000000, 0.000000000000000000, 0.000000000000000000 ) ) ;
#376 = CARTESIAN_POINT ( 'NONE',  ( 3.500000000000013323, 14.22762499970587946, 2.525309261802249239 ) ) ;
#377 = ORIENTED_EDGE ( 'NONE', *, *, #85, .F. ) ;
#378 = CARTESIAN_POINT ( 'NONE',  ( 1.214306433183764966E-14, 0.000000000000000000, 10.59999999999999787 ) ) ;
#379 = CC_DESIGN_PERSON_AND_ORGANIZATION_ASSIGNMENT ( #349, #112, ( #211 ) ) ;
#380 = PLANE ( 'NONE',  #214 ) ;
#381 = APPROVAL_STATUS ( 'not_yet_approved' ) ;
#382 = LOCAL_TIME ( 1, 50, 53.00000000000000000, #281 ) ;
#383 = CIRCLE ( 'NONE', #327, 14.45000000000000462 ) ;
#384 = MANIFOLD_SOLID_BREP ( '凸台-旋转1', #296 ) ;
#385 = CC_DESIGN_APPROVAL ( #158, ( #176 ) ) ;
#386 = DIRECTION ( 'NONE',  ( 0.000000000000000000, 0.000000000000000000, 1.000000000000000000 ) ) ;
#387 = CARTESIAN_POINT ( 'NONE',  ( 14.00000000000001243, 0.000000000000000000, 0.000000000000000000 ) ) ;
#388 = EDGE_CURVE ( 'NONE', #8, #366, #27, .T. ) ;
#389 = AXIS2_PLACEMENT_3D ( 'NONE', #199, #288, #233 ) ;
#390 = ADVANCED_BREP_SHAPE_REPRESENTATION ( '00790_index_2', ( #384, #90 ), #277 ) ;
#391 = CC_DESIGN_PERSON_AND_ORGANIZATION_ASSIGNMENT ( #368, #140, ( #211 ) ) ;
#392 = CARTESIAN_POINT ( 'NONE',  ( 3.499999999999999556, 0.000000000000000000, 0.000000000000000000 ) ) ;
#393 = ADVANCED_FACE ( 'NONE', ( #73, #225 ), #17, .T. ) ;
ENDSEC;
END-ISO-10303-21;
