ISO-10303-21;
HEADER;
FILE_DESCRIPTION (( 'STEP AP203' ),
    '1' );
FILE_NAME ('01425_index_2.step',
    '2022-11-07T22:11:22',
    ( '' ),
    ( '' ),
    'SwSTEP 2.0',
    'SolidWorks 2020',
    '' );
FILE_SCHEMA (( 'CONFIG_CONTROL_DESIGN' ));
ENDSEC;

DATA;
#1 = VERTEX_POINT ( 'NONE', #505 ) ;
#2 = DIRECTION ( 'NONE',  ( 0.8660254037844385966, -0.5000000000000001110, 0.000000000000000000 ) ) ;
#3 = COORDINATED_UNIVERSAL_TIME_OFFSET ( 8, 0, .AHEAD. ) ;
#4 = DIRECTION ( 'NONE',  ( -0.8660254037844387076, -0.4999999999999999445, -0.000000000000000000 ) ) ;
#5 =( BOUNDED_CURVE ( )  B_SPLINE_CURVE ( 3, ( #397, #325, #490, #111, #68, #525, #359 ),
 .UNSPECIFIED., .F., .T. ) 
 B_SPLINE_CURVE_WITH_KNOTS ( ( 4, 3, 4 ),
 ( 0.5950387140509009187, 3.141592653589793116, 5.688146593128685424 ),
 .UNSPECIFIED. ) 
 CURVE ( )  GEOMETRIC_REPRESENTATION_ITEM ( )  RATIONAL_B_SPLINE_CURVE ( ( 1.000000000000000000, 0.5287663007248047942, 0.5287663007248047942, 1.000000000000000000, 0.5287663007248047942, 0.5287663007248047942, 1.000000000000000000 ) ) 
 REPRESENTATION_ITEM ( '' )  );
#6 = APPROVAL_ROLE ( '' ) ;
#7 = CC_DESIGN_PERSON_AND_ORGANIZATION_ASSIGNMENT ( #178, #128, ( #529 ) ) ;
#8 = FACE_OUTER_BOUND ( 'NONE', #404, .T. ) ;
#9 = TOROIDAL_SURFACE ( 'NONE', #465, 2.999999999999998224, 1.000000000000000000 ) ;
#10 = LOCAL_TIME ( 6, 11, 22.00000000000000000, #509 ) ;
#11 = PERSON_AND_ORGANIZATION ( #370, #488 ) ;
#12 = CARTESIAN_POINT ( 'NONE',  ( 0.000000000000000000, 0.000000000000000000, -44.00000000000002132 ) ) ;
#13 = EDGE_LOOP ( 'NONE', ( #358 ) ) ;
#14 = APPROVAL_STATUS ( 'not_yet_approved' ) ;
#15 = CARTESIAN_POINT ( 'NONE',  ( 0.000000000000000000, 0.000000000000000000, 0.000000000000000000 ) ) ;
#16 = DIRECTION ( 'NONE',  ( 0.8660254037844385966, -0.4999999999999999445, 0.000000000000000000 ) ) ;
#17 = EDGE_CURVE ( 'NONE', #345, #345, #502, .T. ) ;
#18 = ORIENTED_EDGE ( 'NONE', *, *, #91, .F. ) ;
#19 = APPROVAL ( #355, '未指定' ) ;
#20 = DIRECTION ( 'NONE',  ( 0.000000000000000000, -0.4226182617407002740, -0.9063077870366496036 ) ) ;
#21 = AXIS2_PLACEMENT_3D ( 'NONE', #15, #402, #137 ) ;
#22 = PRODUCT_DEFINITION_FORMATION_WITH_SPECIFIED_SOURCE ( '任何', '', #318, .NOT_KNOWN. ) ;
#23 = FACE_OUTER_BOUND ( 'NONE', #307, .T. ) ;
#24 = DIRECTION ( 'NONE',  ( 0.000000000000000000, 0.4226182617407002740, 0.9063077870366496036 ) ) ;
#25 = VERTEX_POINT ( 'NONE', #408 ) ;
#26 = VERTEX_POINT ( 'NONE', #329 ) ;
#27 = ORIENTED_EDGE ( 'NONE', *, *, #378, .T. ) ;
#28 = VERTEX_POINT ( 'NONE', #418 ) ;
#29 = LINE ( 'NONE', #150, #494 ) ;
#30 = ORIENTED_EDGE ( 'NONE', *, *, #469, .F. ) ;
#31 = FACE_BOUND ( 'NONE', #258, .T. ) ;
#32 = ADVANCED_FACE ( 'NONE', ( #75, #211 ), #496, .F. ) ;
#33 = ORIENTED_EDGE ( 'NONE', *, *, #476, .T. ) ;
#34 = DIRECTION ( 'NONE',  ( -0.000000000000000000, -0.000000000000000000, 1.000000000000000000 ) ) ;
#35 = CARTESIAN_POINT ( 'NONE',  ( 4.763139720814411504, -8.249999999999998224, -70.50000000000000000 ) ) ;
#36 = ORIENTED_EDGE ( 'NONE', *, *, #220, .T. ) ;
#37 = PLANE ( 'NONE',  #353 ) ;
#38 = CARTESIAN_POINT ( 'NONE',  ( 0.000000000000000000, 1.690473046962805537, 3.625231148146607740 ) ) ;
#39 = AXIS2_PLACEMENT_3D ( 'NONE', #84, #34, #383 ) ;
#40 = ORIENTED_EDGE ( 'NONE', *, *, #17, .F. ) ;
#41 = EDGE_CURVE ( 'NONE', #537, #537, #71, .T. ) ;
#42 = DIRECTION ( 'NONE',  ( 1.000000000000000000, 0.000000000000000000, 0.000000000000000000 ) ) ;
#43 = EDGE_LOOP ( 'NONE', ( #248 ) ) ;
#44 = CARTESIAN_POINT ( 'NONE',  ( 2.999999999999998224, 0.000000000000000000, -470.5000000000000568 ) ) ;
#45 = CARTESIAN_POINT ( 'NONE',  ( 9.526279441628819455, 5.500000000000003553, -51.90171849860682585 ) ) ;
#46 = PLANE ( 'NONE',  #410 ) ;
#47 = DIRECTION ( 'NONE',  ( 0.000000000000000000, -0.000000000000000000, 1.000000000000000000 ) ) ;
#48 = AXIS2_PLACEMENT_3D ( 'NONE', #367, #61, #321 ) ;
#49 = PERSON_AND_ORGANIZATION ( #370, #488 ) ;
#50 = LINE ( 'NONE', #437, #121 ) ;
#51 = CALENDAR_DATE ( 2022, 8, 11 ) ;
#52 = LINE ( 'NONE', #395, #188 ) ;
#53 = DATE_AND_TIME ( #512, #94 ) ;
#54 = CARTESIAN_POINT ( 'NONE',  ( -4.763139720814415057, -8.250000000000000000, -63.00000000000000000 ) ) ;
#55 = APPROVAL_PERSON_ORGANIZATION ( #352, #93, #98 ) ;
#56 = EDGE_CURVE ( 'NONE', #155, #290, #29, .T. ) ;
#57 = PERSON_AND_ORGANIZATION ( #370, #488 ) ;
#58 = LINE ( 'NONE', #407, #473 ) ;
#59 = CARTESIAN_POINT ( 'NONE',  ( -9.526279441628826561, 5.499999999999992006, -63.00000000000000000 ) ) ;
#60 = APPLICATION_CONTEXT ( 'configuration controlled 3d designs of mechanical parts and assemblies' ) ;
#61 = DIRECTION ( 'NONE',  ( 0.000000000000000000, 0.4226182617407002740, 0.9063077870366496036 ) ) ;
#62 = ORIENTED_EDGE ( 'NONE', *, *, #341, .F. ) ;
#63 = PLANE ( 'NONE',  #333 ) ;
#64 = ADVANCED_FACE ( 'NONE', ( #31, #147 ), #409, .T. ) ;
#65 = AXIS2_PLACEMENT_3D ( 'NONE', #458, #468, #464 ) ;
#66 = PLANE ( 'NONE',  #138 ) ;
#67 = ORIENTED_EDGE ( 'NONE', *, *, #239, .T. ) ;
#68 = CARTESIAN_POINT ( 'NONE',  ( 30.13513492995891596, 25.00000000000000711, -29.31173815727486343 ) ) ;
#69 = DIRECTION ( 'NONE',  ( 1.000000000000000000, 0.000000000000000000, 0.000000000000000000 ) ) ;
#70 = DIRECTION ( 'NONE',  ( -0.000000000000000000, -0.000000000000000000, 1.000000000000000000 ) ) ;
#71 = CIRCLE ( 'NONE', #130, 3.999999999999998224 ) ;
#72 = ADVANCED_FACE ( 'NONE', ( #361 ), #66, .T. ) ;
#73 = AXIS2_PLACEMENT_3D ( 'NONE', #12, #271, #312 ) ;
#74 = CC_DESIGN_PERSON_AND_ORGANIZATION_ASSIGNMENT ( #57, #234, ( #22 ) ) ;
#75 = FACE_OUTER_BOUND ( 'NONE', #254, .T. ) ;
#76 = LINE ( 'NONE', #544, #423 ) ;
#77 = DIRECTION ( 'NONE',  ( 0.000000000000000000, 0.9063077870366494926, -0.4226182617407002184 ) ) ;
#78 = ORIENTED_EDGE ( 'NONE', *, *, #323, .F. ) ;
#79 = EDGE_LOOP ( 'NONE', ( #198, #366, #18, #382 ) ) ;
#80 = ORIENTED_EDGE ( 'NONE', *, *, #276, .T. ) ;
#81 = VERTEX_POINT ( 'NONE', #457 ) ;
#82 = DIRECTION ( 'NONE',  ( 1.000000000000000000, -3.154042683594195121E-16, 0.000000000000000000 ) ) ;
#83 = ADVANCED_FACE ( 'NONE', ( #322 ), #190, .F. ) ;
#84 = CARTESIAN_POINT ( 'NONE',  ( 0.000000000000000000, 0.000000000000000000, 0.000000000000000000 ) ) ;
#85 = CARTESIAN_POINT ( 'NONE',  ( 0.000000000000000000, 0.000000000000000000, -49.00000000000000000 ) ) ;
#86 = ORIENTED_EDGE ( 'NONE', *, *, #450, .T. ) ;
#87 = CARTESIAN_POINT ( 'NONE',  ( -9.526279441628826561, 1.502314598737159623E-15, -70.50000000000000000 ) ) ;
#88 = LINE ( 'NONE', #45, #119 ) ;
#89 = CALENDAR_DATE ( 2022, 8, 11 ) ;
#90 = DIRECTION ( 'NONE',  ( 1.000000000000000000, 0.000000000000000000, 0.000000000000000000 ) ) ;
#91 = EDGE_CURVE ( 'NONE', #438, #452, #282, .T. ) ;
#92 = VECTOR ( 'NONE', #235, 1000.000000000000000 ) ;
#93 = APPROVAL ( #391, '未指定' ) ;
#94 = LOCAL_TIME ( 6, 11, 22.00000000000000000, #433 ) ;
#95 = DATE_AND_TIME ( #182, #334 ) ;
#96 = CARTESIAN_POINT ( 'NONE',  ( 7.806255641895631925E-15, -10.99999999999999822, -70.50000000000000000 ) ) ;
#97 = EDGE_LOOP ( 'NONE', ( #530 ) ) ;
#98 = APPROVAL_ROLE ( '' ) ;
#99 = CARTESIAN_POINT ( 'NONE',  ( 7.806255641895631925E-15, -10.99999999999999822, -51.90171849860682585 ) ) ;
#100 = EDGE_CURVE ( 'NONE', #290, #155, #5, .T. ) ;
#101 = PERSON_AND_ORGANIZATION_ROLE ( 'creator' ) ;
#102 = CARTESIAN_POINT ( 'NONE',  ( -9.526279441628826561, 5.499999999999992006, -70.50000000000000000 ) ) ;
#103 = VECTOR ( 'NONE', #135, 1000.000000000000000 ) ;
#104 = VECTOR ( 'NONE', #16, 1000.000000000000114 ) ;
#105 = FACE_OUTER_BOUND ( 'NONE', #412, .T. ) ;
#106 = CARTESIAN_POINT ( 'NONE',  ( 14.01352037654586979, -20.70316996636345408, -8.000000000000000000 ) ) ;
#107 = DIRECTION ( 'NONE',  ( -3.154042683594195121E-16, -1.000000000000000000, 0.000000000000000000 ) ) ;
#108 = AXIS2_PLACEMENT_3D ( 'NONE', #540, #387, #304 ) ;
#109 = CARTESIAN_POINT ( 'NONE',  ( 0.000000000000000000, 27.67780371954149388, -30.56041853873299985 ) ) ;
#110 = ORIENTED_EDGE ( 'NONE', *, *, #483, .T. ) ;
#111 = CARTESIAN_POINT ( 'NONE',  ( -3.061616997868383831E-15, 25.00000000000000355, -29.31173815727486343 ) ) ;
#112 = ADVANCED_FACE ( 'NONE', ( #105, #444 ), #441, .T. ) ;
#113 = CARTESIAN_POINT ( 'NONE',  ( 0.000000000000000000, 0.000000000000000000, -63.00000000000000000 ) ) ;
#114 = ORIENTED_EDGE ( 'NONE', *, *, #323, .T. ) ;
#115 = LOCAL_TIME ( 6, 11, 22.00000000000000000, #3 ) ;
#116 = ORIENTED_EDGE ( 'NONE', *, *, #476, .F. ) ;
#117 = DIRECTION ( 'NONE',  ( 0.000000000000000000, 0.000000000000000000, -1.000000000000000000 ) ) ;
#118 = DIRECTION ( 'NONE',  ( 1.000000000000000000, 0.000000000000000000, 0.000000000000000000 ) ) ;
#119 = VECTOR ( 'NONE', #471, 1000.000000000000000 ) ;
#120 = FACE_OUTER_BOUND ( 'NONE', #324, .T. ) ;
#121 = VECTOR ( 'NONE', #4, 1000.000000000000000 ) ;
#122 = CARTESIAN_POINT ( 'NONE',  ( 25.00000000000000000, 0.000000000000000000, -44.00000000000002132 ) ) ;
#123 = FACE_OUTER_BOUND ( 'NONE', #406, .T. ) ;
#124 = ADVANCED_FACE ( 'NONE', ( #195 ), #191, .T. ) ;
#125 = VERTEX_POINT ( 'NONE', #221 ) ;
#126 = CC_DESIGN_DATE_AND_TIME_ASSIGNMENT ( #95, #224, ( #529 ) ) ;
#127 = DIRECTION ( 'NONE',  ( 0.000000000000000000, 0.9063077870366496036, -0.4226182617407002740 ) ) ;
#128 = PERSON_AND_ORGANIZATION_ROLE ( 'classification_officer' ) ;
#129 = CARTESIAN_POINT ( 'NONE',  ( 9.526279441628821232, -5.499999999999999112, -51.90171849860682585 ) ) ;
#130 = AXIS2_PLACEMENT_3D ( 'NONE', #159, #286, #69 ) ;
#131 = SHAPE_DEFINITION_REPRESENTATION ( #538, #202 ) ;
#132 = CARTESIAN_POINT ( 'NONE',  ( 0.000000000000000000, -6.761892187851198166, -14.50092459258638122 ) ) ;
#133 = EDGE_CURVE ( 'NONE', #416, #514, #284, .T. ) ;
#134 = MECHANICAL_CONTEXT ( 'NONE', #338, 'mechanical' ) ;
#135 = DIRECTION ( 'NONE',  ( -0.000000000000000000, -0.000000000000000000, -1.000000000000000000 ) ) ;
#136 = CC_DESIGN_DATE_AND_TIME_ASSIGNMENT ( #477, #349, ( #240 ) ) ;
#137 = DIRECTION ( 'NONE',  ( 0.000000000000000000, 0.9063077870366494926, -0.4226182617407002740 ) ) ;
#138 = AXIS2_PLACEMENT_3D ( 'NONE', #400, #527, #486 ) ;
#139 = DIRECTION ( 'NONE',  ( -1.000000000000000000, 0.000000000000000000, -0.000000000000000000 ) ) ;
#140 = EDGE_LOOP ( 'NONE', ( #293 ) ) ;
#141 = ADVANCED_FACE ( 'NONE', ( #142, #184 ), #249, .T. ) ;
#142 = FACE_BOUND ( 'NONE', #448, .T. ) ;
#143 = ORIENTED_EDGE ( 'NONE', *, *, #372, .F. ) ;
#144 = PLANE ( 'NONE',  #481 ) ;
#145 = CONICAL_SURFACE ( 'NONE', #108, 20.00000000000000000, 0.7853981633974501664 ) ;
#146 = CIRCLE ( 'NONE', #73, 25.00000000000000000 ) ;
#147 = FACE_OUTER_BOUND ( 'NONE', #542, .T. ) ;
#148 = EDGE_LOOP ( 'NONE', ( #114, #67, #517, #193, #36, #208 ) ) ;
#149 = ADVANCED_FACE ( 'NONE', ( #23, #183 ), #144, .T. ) ;
#150 = CARTESIAN_POINT ( 'NONE',  ( -24.99999999999999645, -20.70316996636345763, -8.000000000000000000 ) ) ;
#151 = VERTEX_POINT ( 'NONE', #445 ) ;
#152 = ORIENTED_EDGE ( 'NONE', *, *, #239, .F. ) ;
#153 = ORIENTED_EDGE ( 'NONE', *, *, #256, .T. ) ;
#154 = VECTOR ( 'NONE', #298, 999.9999999999998863 ) ;
#155 = VERTEX_POINT ( 'NONE', #106 ) ;
#156 =( GEOMETRIC_REPRESENTATION_CONTEXT ( 3 ) GLOBAL_UNCERTAINTY_ASSIGNED_CONTEXT ( ( #260 ) ) GLOBAL_UNIT_ASSIGNED_CONTEXT ( ( #470, #342, #170 ) ) REPRESENTATION_CONTEXT ( 'NONE', 'WORKASPACE' ) );
#157 = DIRECTION ( 'NONE',  ( 1.577021341797097560E-16, 1.000000000000000000, 0.000000000000000000 ) ) ;
#158 = CARTESIAN_POINT ( 'NONE',  ( 9.526279441628823008, -3.004629197474318063E-15, -51.90171849860682585 ) ) ;
#159 = CARTESIAN_POINT ( 'NONE',  ( 0.000000000000000000, 0.000000000000000000, -70.50000000000000000 ) ) ;
#160 = DIRECTION ( 'NONE',  ( 0.5000000000000000000, 0.8660254037844387076, -0.000000000000000000 ) ) ;
#161 = CARTESIAN_POINT ( 'NONE',  ( 0.000000000000000000, 0.000000000000000000, -469.5000000000000000 ) ) ;
#162 = EDGE_CURVE ( 'NONE', #416, #371, #58, .T. ) ;
#163 = ORIENTED_EDGE ( 'NONE', *, *, #133, .T. ) ;
#164 = CARTESIAN_POINT ( 'NONE',  ( 0.000000000000000000, 0.000000000000000000, -470.5000000000000568 ) ) ;
#165 = ORIENTED_EDGE ( 'NONE', *, *, #483, .F. ) ;
#166 = CARTESIAN_POINT ( 'NONE',  ( 9.526279441628819455, 5.500000000000003553, -70.50000000000000000 ) ) ;
#167 = AXIS2_PLACEMENT_3D ( 'NONE', #236, #354, #275 ) ;
#168 = FACE_OUTER_BOUND ( 'NONE', #79, .T. ) ;
#169 = ADVANCED_FACE ( 'NONE', ( #283 ), #63, .T. ) ;
#170 =( NAMED_UNIT ( * ) SI_UNIT ( $, .STERADIAN. ) SOLID_ANGLE_UNIT ( ) );
#171 = DIRECTION ( 'NONE',  ( -0.000000000000000000, -0.000000000000000000, 1.000000000000000000 ) ) ;
#172 = LINE ( 'NONE', #129, #212 ) ;
#173 = EDGE_CURVE ( 'NONE', #492, #289, #524, .T. ) ;
#174 = COORDINATED_UNIVERSAL_TIME_OFFSET ( 8, 0, .AHEAD. ) ;
#175 = DIRECTION ( 'NONE',  ( 0.000000000000000000, 0.9063077870366494926, -0.4226182617407001629 ) ) ;
#176 = AXIS2_PLACEMENT_3D ( 'NONE', #507, #47, #377 ) ;
#177 = AXIS2_PLACEMENT_3D ( 'NONE', #460, #305, #270 ) ;
#178 = PERSON_AND_ORGANIZATION ( #370, #488 ) ;
#179 = DIRECTION ( 'NONE',  ( -0.8660254037844385966, 0.5000000000000001110, 0.000000000000000000 ) ) ;
#180 = CC_DESIGN_PERSON_AND_ORGANIZATION_ASSIGNMENT ( #279, #440, ( #22 ) ) ;
#181 = EDGE_LOOP ( 'NONE', ( #491, #447 ) ) ;
#182 = CALENDAR_DATE ( 2022, 8, 11 ) ;
#183 = FACE_BOUND ( 'NONE', #385, .T. ) ;
#184 = FACE_OUTER_BOUND ( 'NONE', #335, .T. ) ;
#185 = ORIENTED_EDGE ( 'NONE', *, *, #220, .F. ) ;
#186 = VECTOR ( 'NONE', #107, 1000.000000000000000 ) ;
#187 = EDGE_CURVE ( 'NONE', #336, #336, #539, .T. ) ;
#188 = VECTOR ( 'NONE', #314, 1000.000000000000000 ) ;
#189 = ORIENTED_EDGE ( 'NONE', *, *, #508, .T. ) ;
#190 = PLANE ( 'NONE',  #454 ) ;
#191 = PLANE ( 'NONE',  #48 ) ;
#192 = ORIENTED_EDGE ( 'NONE', *, *, #399, .F. ) ;
#193 = ORIENTED_EDGE ( 'NONE', *, *, #173, .T. ) ;
#194 = ORIENTED_EDGE ( 'NONE', *, *, #526, .T. ) ;
#195 = FACE_OUTER_BOUND ( 'NONE', #456, .T. ) ;
#196 = EDGE_CURVE ( 'NONE', #25, #492, #506, .T. ) ;
#197 = VECTOR ( 'NONE', #179, 1000.000000000000000 ) ;
#198 = ORIENTED_EDGE ( 'NONE', *, *, #341, .T. ) ;
#199 = EDGE_LOOP ( 'NONE', ( #86 ) ) ;
#200 = MANIFOLD_SOLID_BREP ( '圆角1', #331 ) ;
#201 = EDGE_LOOP ( 'NONE', ( #375 ) ) ;
#202 = ADVANCED_BREP_SHAPE_REPRESENTATION ( '01425_index_2', ( #200, #177 ), #156 ) ;
#203 = ORIENTED_EDGE ( 'NONE', *, *, #162, .F. ) ;
#204 = ORIENTED_EDGE ( 'NONE', *, *, #469, .T. ) ;
#205 = DIRECTION ( 'NONE',  ( -3.154042683594195121E-16, -1.000000000000000000, -0.000000000000000000 ) ) ;
#206 = PLANE ( 'NONE',  #65 ) ;
#207 = EDGE_LOOP ( 'NONE', ( #330, #413, #373, #62, #30, #443 ) ) ;
#208 = ORIENTED_EDGE ( 'NONE', *, *, #91, .T. ) ;
#209 = VECTOR ( 'NONE', #214, 1000.000000000000000 ) ;
#210 = ADVANCED_FACE ( 'NONE', ( #168 ), #415, .T. ) ;
#211 = FACE_BOUND ( 'NONE', #207, .T. ) ;
#212 = VECTOR ( 'NONE', #394, 1000.000000000000000 ) ;
#213 = FACE_OUTER_BOUND ( 'NONE', #288, .T. ) ;
#214 = DIRECTION ( 'NONE',  ( 0.8660254037844388186, 0.4999999999999996669, 0.000000000000000000 ) ) ;
#215 = FACE_OUTER_BOUND ( 'NONE', #548, .T. ) ;
#216 = DIRECTION ( 'NONE',  ( 1.000000000000000000, 0.000000000000000000, 0.000000000000000000 ) ) ;
#217 = ORIENTED_EDGE ( 'NONE', *, *, #17, .T. ) ;
#218 = CYLINDRICAL_SURFACE ( 'NONE', #39, 25.00000000000000000 ) ;
#219 = FACE_OUTER_BOUND ( 'NONE', #148, .T. ) ;
#220 = EDGE_CURVE ( 'NONE', #289, #438, #426, .T. ) ;
#221 = CARTESIAN_POINT ( 'NONE',  ( 20.00000000000000000, 0.000000000000000000, -49.00000000000000000 ) ) ;
#222 = AXIS2_PLACEMENT_3D ( 'NONE', #449, #246, #446 ) ;
#223 = DIRECTION ( 'NONE',  ( -0.000000000000000000, -0.4226182617407002740, -0.9063077870366496036 ) ) ;
#224 = DATE_TIME_ROLE ( 'classification_date' ) ;
#225 = FACE_OUTER_BOUND ( 'NONE', #315, .T. ) ;
#226 = ADVANCED_FACE ( 'NONE', ( #501 ), #206, .F. ) ;
#227 = PERSON_AND_ORGANIZATION_ROLE ( 'design_owner' ) ;
#228 = CARTESIAN_POINT ( 'NONE',  ( -9.526279441628819455, -5.500000000000004441, -70.50000000000000000 ) ) ;
#229 = APPROVAL_DATE_TIME ( #53, #93 ) ;
#230 = CC_DESIGN_PERSON_AND_ORGANIZATION_ASSIGNMENT ( #515, #227, ( #318 ) ) ;
#231 = FACE_OUTER_BOUND ( 'NONE', #523, .T. ) ;
#232 = CIRCLE ( 'NONE', #528, 24.99999999999999645 ) ;
#233 = CIRCLE ( 'NONE', #244, 38.00000000000001421 ) ;
#234 = PERSON_AND_ORGANIZATION_ROLE ( 'design_supplier' ) ;
#235 = DIRECTION ( 'NONE',  ( 0.8660254037844388186, 0.4999999999999996114, 0.000000000000000000 ) ) ;
#236 = CARTESIAN_POINT ( 'NONE',  ( 0.000000000000000000, 0.000000000000000000, 0.000000000000000000 ) ) ;
#237 = ORIENTED_EDGE ( 'NONE', *, *, #187, .F. ) ;
#238 = CARTESIAN_POINT ( 'NONE',  ( 0.000000000000000000, 31.90398633694847774, -21.49734066836649404 ) ) ;
#239 = EDGE_CURVE ( 'NONE', #371, #25, #550, .T. ) ;
#240 = PRODUCT_DEFINITION ( '未知', '', #22, #532 ) ;
#241 = ORIENTED_EDGE ( 'NONE', *, *, #450, .F. ) ;
#242 = DIRECTION ( 'NONE',  ( -0.4999999999999996114, 0.8660254037844388186, 0.000000000000000000 ) ) ;
#243 = VECTOR ( 'NONE', #428, 999.9999999999998863 ) ;
#244 = AXIS2_PLACEMENT_3D ( 'NONE', #132, #516, #127 ) ;
#245 = ORIENTED_EDGE ( 'NONE', *, *, #378, .F. ) ;
#246 = DIRECTION ( 'NONE',  ( -0.000000000000000000, -0.4226182617407002740, -0.9063077870366496036 ) ) ;
#247 = ADVANCED_FACE ( 'NONE', ( #123, #461 ), #145, .T. ) ;
#248 = ORIENTED_EDGE ( 'NONE', *, *, #265, .F. ) ;
#249 = PLANE ( 'NONE',  #429 ) ;
#250 = ORIENTED_EDGE ( 'NONE', *, *, #399, .T. ) ;
#251 = AXIS2_PLACEMENT_3D ( 'NONE', #432, #472, #90 ) ;
#252 = ORIENTED_EDGE ( 'NONE', *, *, #100, .T. ) ;
#253 = ORIENTED_EDGE ( 'NONE', *, *, #162, .T. ) ;
#254 = EDGE_LOOP ( 'NONE', ( #40 ) ) ;
#255 = DIRECTION ( 'NONE',  ( -0.000000000000000000, -0.000000000000000000, 1.000000000000000000 ) ) ;
#256 = EDGE_CURVE ( 'NONE', #151, #492, #88, .T. ) ;
#257 = ORIENTED_EDGE ( 'NONE', *, *, #299, .T. ) ;
#258 = EDGE_LOOP ( 'NONE', ( #80 ) ) ;
#259 = CARTESIAN_POINT ( 'NONE',  ( 4.763139720814411504, 8.249999999999996447, -51.90171849860682585 ) ) ;
#260 = UNCERTAINTY_MEASURE_WITH_UNIT (LENGTH_MEASURE( 1.000000000000000082E-05 ), #470, 'distance_accuracy_value', 'NONE');
#261 = AXIS2_PLACEMENT_3D ( 'NONE', #164, #117, #547 ) ;
#262 = APPROVAL_PERSON_ORGANIZATION ( #309, #19, #277 ) ;
#263 = CARTESIAN_POINT ( 'NONE',  ( 3.999999999999998224, 0.000000000000000000, -469.5000000000000000 ) ) ;
#264 = PLANE ( 'NONE',  #176 ) ;
#265 = EDGE_CURVE ( 'NONE', #125, #125, #326, .T. ) ;
#266 = DIRECTION ( 'NONE',  ( 1.577021341797097560E-16, 1.000000000000000000, 0.000000000000000000 ) ) ;
#267 = FACE_OUTER_BOUND ( 'NONE', #199, .T. ) ;
#268 = DIRECTION ( 'NONE',  ( 1.000000000000000000, 0.000000000000000000, 0.000000000000000000 ) ) ;
#269 = ADVANCED_FACE ( 'NONE', ( #348, #219 ), #264, .F. ) ;
#270 = DIRECTION ( 'NONE',  ( 1.000000000000000000, 0.000000000000000000, 0.000000000000000000 ) ) ;
#271 = DIRECTION ( 'NONE',  ( -0.000000000000000000, -0.000000000000000000, 1.000000000000000000 ) ) ;
#272 = CC_DESIGN_APPROVAL ( #19, ( #240 ) ) ;
#273 = EDGE_LOOP ( 'NONE', ( #257 ) ) ;
#274 = SECURITY_CLASSIFICATION_LEVEL ( 'unclassified' ) ;
#275 = DIRECTION ( 'NONE',  ( 1.000000000000000000, 0.000000000000000000, 0.000000000000000000 ) ) ;
#276 = EDGE_CURVE ( 'NONE', #388, #388, #487, .T. ) ;
#277 = APPROVAL_ROLE ( '' ) ;
#278 = DIRECTION ( 'NONE',  ( -0.000000000000000000, -0.4226182617407002740, -0.9063077870366496036 ) ) ;
#279 = PERSON_AND_ORGANIZATION ( #370, #488 ) ;
#280 = LINE ( 'NONE', #513, #103 ) ;
#281 = ADVANCED_FACE ( 'NONE', ( #120 ), #389, .T. ) ;
#282 = LINE ( 'NONE', #327, #520 ) ;
#283 = FACE_OUTER_BOUND ( 'NONE', #374, .T. ) ;
#284 = LINE ( 'NONE', #484, #92 ) ;
#285 = DIRECTION ( 'NONE',  ( 0.000000000000000000, 0.9063077870366494926, -0.4226182617407002184 ) ) ;
#286 = DIRECTION ( 'NONE',  ( -0.000000000000000000, -0.000000000000000000, 1.000000000000000000 ) ) ;
#287 = ORIENTED_EDGE ( 'NONE', *, *, #489, .T. ) ;
#288 = EDGE_LOOP ( 'NONE', ( #194, #253, #78, #143 ) ) ;
#289 = VERTEX_POINT ( 'NONE', #425 ) ;
#290 = VERTEX_POINT ( 'NONE', #498 ) ;
#291 = CARTESIAN_POINT ( 'NONE',  ( 0.000000000000000000, 0.000000000000000000, -469.5000000000000000 ) ) ;
#292 = CC_DESIGN_PERSON_AND_ORGANIZATION_ASSIGNMENT ( #49, #101, ( #240 ) ) ;
#293 = ORIENTED_EDGE ( 'NONE', *, *, #41, .T. ) ;
#294 = ORIENTED_EDGE ( 'NONE', *, *, #435, .T. ) ;
#295 = ORIENTED_EDGE ( 'NONE', *, *, #276, .F. ) ;
#296 = FACE_OUTER_BOUND ( 'NONE', #531, .T. ) ;
#297 = LINE ( 'NONE', #549, #521 ) ;
#298 = DIRECTION ( 'NONE',  ( 0.8660254037844387076, -0.5000000000000001110, 0.000000000000000000 ) ) ;
#299 = EDGE_CURVE ( 'NONE', #546, #546, #368, .T. ) ;
#300 = VECTOR ( 'NONE', #266, 1000.000000000000000 ) ;
#301 = APPLICATION_PROTOCOL_DEFINITION ( 'international standard', 'config_control_design', 1994, #338 ) ;
#302 = DIRECTION ( 'NONE',  ( -0.000000000000000000, -0.000000000000000000, 1.000000000000000000 ) ) ;
#303 = CARTESIAN_POINT ( 'NONE',  ( 0.000000000000000000, 28.83410223627477009, -9.032051012949148472 ) ) ;
#304 = DIRECTION ( 'NONE',  ( 1.000000000000000000, 0.000000000000000000, 0.000000000000000000 ) ) ;
#305 = DIRECTION ( 'NONE',  ( 0.000000000000000000, 0.000000000000000000, 1.000000000000000000 ) ) ;
#306 = CYLINDRICAL_SURFACE ( 'NONE', #251, 19.99999999999999645 ) ;
#307 = EDGE_LOOP ( 'NONE', ( #294 ) ) ;
#308 = AXIS2_PLACEMENT_3D ( 'NONE', #113, #70, #459 ) ;
#309 = PERSON_AND_ORGANIZATION ( #370, #488 ) ;
#310 = FACE_OUTER_BOUND ( 'NONE', #43, .T. ) ;
#311 = ADVANCED_FACE ( 'NONE', ( #381, #296 ), #9, .T. ) ;
#312 = DIRECTION ( 'NONE',  ( 1.000000000000000000, 0.000000000000000000, 0.000000000000000000 ) ) ;
#313 = DATE_AND_TIME ( #89, #362 ) ;
#314 = DIRECTION ( 'NONE',  ( -0.000000000000000000, -0.000000000000000000, -1.000000000000000000 ) ) ;
#315 = EDGE_LOOP ( 'NONE', ( #217 ) ) ;
#316 = ORIENTED_EDGE ( 'NONE', *, *, #196, .F. ) ;
#317 = EDGE_CURVE ( 'NONE', #290, #155, #232, .T. ) ;
#318 = PRODUCT ( '01425_index_2', '01425_index_2', '', ( #134 ) ) ;
#319 = CARTESIAN_POINT ( 'NONE',  ( -4.763139720814408840, 8.250000000000000000, -51.90171849860682585 ) ) ;
#320 = AXIS2_PLACEMENT_3D ( 'NONE', #356, #510, #442 ) ;
#321 = DIRECTION ( 'NONE',  ( 0.000000000000000000, -0.9063077870366494926, 0.4226182617407002184 ) ) ;
#322 = FACE_OUTER_BOUND ( 'NONE', #181, .T. ) ;
#323 = EDGE_CURVE ( 'NONE', #452, #371, #343, .T. ) ;
#324 = EDGE_LOOP ( 'NONE', ( #189, #33, #421, #493 ) ) ;
#325 = CARTESIAN_POINT ( 'NONE',  ( -38.96923319311530065, -3.811196870725918728, -15.87685641584400109 ) ) ;
#326 = CIRCLE ( 'NONE', #511, 20.00000000000000000 ) ;
#327 = CARTESIAN_POINT ( 'NONE',  ( -4.763139720814415057, -8.250000000000000000, -70.50000000000000000 ) ) ;
#328 = DIRECTION ( 'NONE',  ( -1.000000000000000000, 0.000000000000000000, 0.000000000000000000 ) ) ;
#329 = CARTESIAN_POINT ( 'NONE',  ( 7.806255641895631925E-15, -10.99999999999999645, -63.00000000000000000 ) ) ;
#330 = ORIENTED_EDGE ( 'NONE', *, *, #417, .F. ) ;
#331 = CLOSED_SHELL ( 'NONE', ( #269, #83, #226, #357, #32, #462, #247, #503, #149, #112, #141, #64, #124, #535, #169, #281, #72, #210, #519, #311 ) ) ;
#332 = ORIENTED_EDGE ( 'NONE', *, *, #100, .F. ) ;
#333 = AXIS2_PLACEMENT_3D ( 'NONE', #319, #242, #363 ) ;
#334 = LOCAL_TIME ( 6, 11, 22.00000000000000000, #174 ) ;
#335 = EDGE_LOOP ( 'NONE', ( #165 ) ) ;
#336 = VERTEX_POINT ( 'NONE', #263 ) ;
#337 = DIRECTION ( 'NONE',  ( 3.154042683594195121E-16, 1.000000000000000000, 0.000000000000000000 ) ) ;
#338 = APPLICATION_CONTEXT ( 'configuration controlled 3d designs of mechanical parts and assemblies' ) ;
#339 = CARTESIAN_POINT ( 'NONE',  ( 19.99999999999999645, 0.000000000000000000, -63.00000000000000000 ) ) ;
#340 = DIRECTION ( 'NONE',  ( -0.000000000000000000, -0.000000000000000000, 1.000000000000000000 ) ) ;
#341 = EDGE_CURVE ( 'NONE', #26, #401, #480, .T. ) ;
#342 =( NAMED_UNIT ( * ) PLANE_ANGLE_UNIT ( ) SI_UNIT ( $, .RADIAN. ) );
#343 = LINE ( 'NONE', #87, #300 ) ;
#344 = AXIS2_PLACEMENT_3D ( 'NONE', #158, #82, #337 ) ;
#345 = VERTEX_POINT ( 'NONE', #339 ) ;
#346 = CARTESIAN_POINT ( 'NONE',  ( -4.763139720814408840, 8.250000000000000000, -70.50000000000000000 ) ) ;
#347 = CARTESIAN_POINT ( 'NONE',  ( 3.999999999999998224, 0.000000000000000000, -70.50000000000000000 ) ) ;
#348 = FACE_BOUND ( 'NONE', #140, .T. ) ;
#349 = DATE_TIME_ROLE ( 'creation_date' ) ;
#350 = CARTESIAN_POINT ( 'NONE',  ( 4.763139720814411504, 8.249999999999996447, -63.00000000000000000 ) ) ;
#351 = AXIS2_PLACEMENT_3D ( 'NONE', #384, #500, #2 ) ;
#352 = PERSON_AND_ORGANIZATION ( #370, #488 ) ;
#353 = AXIS2_PLACEMENT_3D ( 'NONE', #463, #427, #376 ) ;
#354 = DIRECTION ( 'NONE',  ( -0.000000000000000000, -0.000000000000000000, 1.000000000000000000 ) ) ;
#355 = APPROVAL_STATUS ( 'not_yet_approved' ) ;
#356 = CARTESIAN_POINT ( 'NONE',  ( 0.000000000000000000, -2.535709570444197425, -5.437846722219888740 ) ) ;
#357 = ADVANCED_FACE ( 'NONE', ( #8, #231 ), #392, .T. ) ;
#358 = ORIENTED_EDGE ( 'NONE', *, *, #435, .F. ) ;
#359 = CARTESIAN_POINT ( 'NONE',  ( 14.01352037654586979, -20.70316996636345408, -8.000000000000000000 ) ) ;
#360 = ORIENTED_EDGE ( 'NONE', *, *, #317, .F. ) ;
#361 = FACE_OUTER_BOUND ( 'NONE', #536, .T. ) ;
#362 = LOCAL_TIME ( 6, 11, 22.00000000000000000, #479 ) ;
#363 = DIRECTION ( 'NONE',  ( -0.8660254037844388186, -0.4999999999999996114, 0.000000000000000000 ) ) ;
#364 = DIRECTION ( 'NONE',  ( 0.000000000000000000, -0.9063077870366494926, 0.4226182617407002184 ) ) ;
#365 = APPROVAL ( #14, '未指定' ) ;
#366 = ORIENTED_EDGE ( 'NONE', *, *, #372, .T. ) ;
#367 = CARTESIAN_POINT ( 'NONE',  ( 0.000000000000000000, 28.83410223627476299, -9.032051012949150248 ) ) ;
#368 = CIRCLE ( 'NONE', #261, 2.999999999999998224 ) ;
#369 = CC_DESIGN_APPROVAL ( #93, ( #529 ) ) ;
#370 = PERSON ( '未指定', '未指定', '未指定', ('未指定'), ('未指定'), ('未指定') ) ;
#371 = VERTEX_POINT ( 'NONE', #102 ) ;
#372 = EDGE_CURVE ( 'NONE', #401, #452, #280, .T. ) ;
#373 = ORIENTED_EDGE ( 'NONE', *, *, #526, .F. ) ;
#374 = EDGE_LOOP ( 'NONE', ( #163, #250, #152, #203 ) ) ;
#375 = ORIENTED_EDGE ( 'NONE', *, *, #299, .F. ) ;
#376 = DIRECTION ( 'NONE',  ( -1.577021341797097560E-16, -1.000000000000000000, 0.000000000000000000 ) ) ;
#377 = DIRECTION ( 'NONE',  ( 1.000000000000000000, 0.000000000000000000, 0.000000000000000000 ) ) ;
#378 = EDGE_CURVE ( 'NONE', #497, #497, #551, .T. ) ;
#379 = CARTESIAN_POINT ( 'NONE',  ( -10.99999999999999822, 0.000000000000000000, -63.00000000000000000 ) ) ;
#380 = FACE_OUTER_BOUND ( 'NONE', #534, .T. ) ;
#381 = FACE_OUTER_BOUND ( 'NONE', #201, .T. ) ;
#382 = ORIENTED_EDGE ( 'NONE', *, *, #489, .F. ) ;
#383 = DIRECTION ( 'NONE',  ( 1.000000000000000000, 0.000000000000000000, 0.000000000000000000 ) ) ;
#384 = CARTESIAN_POINT ( 'NONE',  ( -4.763139720814415057, -8.250000000000000000, -51.90171849860682585 ) ) ;
#385 = EDGE_LOOP ( 'NONE', ( #453, #332 ) ) ;
#386 = DIRECTION ( 'NONE',  ( -0.000000000000000000, -0.000000000000000000, -1.000000000000000000 ) ) ;
#387 = DIRECTION ( 'NONE',  ( -0.000000000000000000, -0.000000000000000000, 1.000000000000000000 ) ) ;
#388 = VERTEX_POINT ( 'NONE', #303 ) ;
#389 = PLANE ( 'NONE',  #344 ) ;
#390 = PRODUCT_RELATED_PRODUCT_CATEGORY ( 'detail', '', ( #318 ) ) ;
#391 = APPROVAL_STATUS ( 'not_yet_approved' ) ;
#392 = CYLINDRICAL_SURFACE ( 'NONE', #167, 3.999999999999998224 ) ;
#393 = CALENDAR_DATE ( 2022, 8, 11 ) ;
#394 = DIRECTION ( 'NONE',  ( -0.000000000000000000, -0.000000000000000000, -1.000000000000000000 ) ) ;
#395 = CARTESIAN_POINT ( 'NONE',  ( 6.071532165918824830E-15, 10.99999999999999822, -51.90171849860682585 ) ) ;
#396 = DATE_AND_TIME ( #51, #10 ) ;
#397 = CARTESIAN_POINT ( 'NONE',  ( -14.01352037654586979, -20.70316996636345408, -8.000000000000000000 ) ) ;
#398 = LINE ( 'NONE', #350, #104 ) ;
#399 = EDGE_CURVE ( 'NONE', #514, #25, #52, .T. ) ;
#400 = CARTESIAN_POINT ( 'NONE',  ( 4.763139720814411504, -8.249999999999998224, -51.90171849860682585 ) ) ;
#401 = VERTEX_POINT ( 'NONE', #434 ) ;
#402 = DIRECTION ( 'NONE',  ( -0.000000000000000000, -0.4226182617407002740, -0.9063077870366496036 ) ) ;
#403 = AXIS2_PLACEMENT_3D ( 'NONE', #291, #255, #118 ) ;
#404 = EDGE_LOOP ( 'NONE', ( #451 ) ) ;
#405 = DIRECTION ( 'NONE',  ( -0.8660254037844384856, 0.5000000000000002220, 0.000000000000000000 ) ) ;
#406 = EDGE_LOOP ( 'NONE', ( #241 ) ) ;
#407 = CARTESIAN_POINT ( 'NONE',  ( -9.526279441628826561, 5.499999999999992006, -51.90171849860682585 ) ) ;
#408 = CARTESIAN_POINT ( 'NONE',  ( 6.071532165918824830E-15, 10.99999999999999822, -70.50000000000000000 ) ) ;
#409 = CONICAL_SURFACE ( 'NONE', #222, 34.61275766954260291, 0.4363323129985839377 ) ;
#410 = AXIS2_PLACEMENT_3D ( 'NONE', #259, #160, #424 ) ;
#411 = DIRECTION ( 'NONE',  ( 0.000000000000000000, -0.000000000000000000, 1.000000000000000000 ) ) ;
#412 = EDGE_LOOP ( 'NONE', ( #110 ) ) ;
#413 = ORIENTED_EDGE ( 'NONE', *, *, #133, .F. ) ;
#414 = ORIENTED_EDGE ( 'NONE', *, *, #417, .T. ) ;
#415 = PLANE ( 'NONE',  #351 ) ;
#416 = VERTEX_POINT ( 'NONE', #59 ) ;
#417 = EDGE_CURVE ( 'NONE', #514, #151, #398, .T. ) ;
#418 = CARTESIAN_POINT ( 'NONE',  ( 9.526279441628821232, -5.499999999999999112, -63.00000000000000000 ) ) ;
#419 = VERTEX_POINT ( 'NONE', #122 ) ;
#420 = CARTESIAN_POINT ( 'NONE',  ( 4.763139720814411504, 8.249999999999996447, -70.50000000000000000 ) ) ;
#421 = ORIENTED_EDGE ( 'NONE', *, *, #173, .F. ) ;
#422 = AXIS2_PLACEMENT_3D ( 'NONE', #379, #411, #543 ) ;
#423 = VECTOR ( 'NONE', #157, 1000.000000000000000 ) ;
#424 = DIRECTION ( 'NONE',  ( -0.8660254037844385966, 0.4999999999999999445, 0.000000000000000000 ) ) ;
#425 = CARTESIAN_POINT ( 'NONE',  ( 9.526279441628821232, -5.499999999999999112, -70.50000000000000000 ) ) ;
#426 = LINE ( 'NONE', #35, #243 ) ;
#427 = DIRECTION ( 'NONE',  ( -1.000000000000000000, 1.577021341797097560E-16, 0.000000000000000000 ) ) ;
#428 = DIRECTION ( 'NONE',  ( -0.8660254037844387076, -0.4999999999999999445, 0.000000000000000000 ) ) ;
#429 = AXIS2_PLACEMENT_3D ( 'NONE', #238, #24, #364 ) ;
#430 = CC_DESIGN_APPROVAL ( #365, ( #22 ) ) ;
#431 = APPLICATION_PROTOCOL_DEFINITION ( 'international standard', 'config_control_design', 1994, #60 ) ;
#432 = CARTESIAN_POINT ( 'NONE',  ( 0.000000000000000000, 0.000000000000000000, 0.000000000000000000 ) ) ;
#433 = COORDINATED_UNIVERSAL_TIME_OFFSET ( 8, 0, .AHEAD. ) ;
#434 = CARTESIAN_POINT ( 'NONE',  ( -9.526279441628817679, -5.500000000000003553, -63.00000000000000000 ) ) ;
#435 = EDGE_CURVE ( 'NONE', #81, #81, #233, .T. ) ;
#436 = APPROVAL_DATE_TIME ( #396, #365 ) ;
#437 = CARTESIAN_POINT ( 'NONE',  ( 4.763139720814411504, -8.249999999999998224, -63.00000000000000000 ) ) ;
#438 = VERTEX_POINT ( 'NONE', #96 ) ;
#439 = AXIS2_PLACEMENT_3D ( 'NONE', #38, #223, #77 ) ;
#440 = PERSON_AND_ORGANIZATION_ROLE ( 'creator' ) ;
#441 = CYLINDRICAL_SURFACE ( 'NONE', #21, 38.00000000000000000 ) ;
#442 = DIRECTION ( 'NONE',  ( 0.000000000000000000, 0.9063077870366494926, -0.4226182617407001629 ) ) ;
#443 = ORIENTED_EDGE ( 'NONE', *, *, #508, .F. ) ;
#444 = FACE_OUTER_BOUND ( 'NONE', #13, .T. ) ;
#445 = CARTESIAN_POINT ( 'NONE',  ( 9.526279441628819455, 5.500000000000003553, -63.00000000000000000 ) ) ;
#446 = DIRECTION ( 'NONE',  ( 0.000000000000000000, 0.9063077870366494926, -0.4226182617407001629 ) ) ;
#447 = ORIENTED_EDGE ( 'NONE', *, *, #56, .T. ) ;
#448 = EDGE_LOOP ( 'NONE', ( #27 ) ) ;
#449 = CARTESIAN_POINT ( 'NONE',  ( 0.000000000000000000, -2.535709570444197425, -5.437846722219888740 ) ) ;
#450 = EDGE_CURVE ( 'NONE', #419, #419, #146, .T. ) ;
#451 = ORIENTED_EDGE ( 'NONE', *, *, #187, .T. ) ;
#452 = VERTEX_POINT ( 'NONE', #228 ) ;
#453 = ORIENTED_EDGE ( 'NONE', *, *, #56, .F. ) ;
#454 = AXIS2_PLACEMENT_3D ( 'NONE', #522, #482, #139 ) ;
#455 = VECTOR ( 'NONE', #386, 1000.000000000000000 ) ;
#456 = EDGE_LOOP ( 'NONE', ( #295 ) ) ;
#457 = CARTESIAN_POINT ( 'NONE',  ( 0.000000000000000000, 27.67780371954149743, -30.56041853873299985 ) ) ;
#458 = CARTESIAN_POINT ( 'NONE',  ( -3.999999999999998224, 0.000000000000000000, -470.5000000000000568 ) ) ;
#459 = DIRECTION ( 'NONE',  ( 1.000000000000000000, 0.000000000000000000, 0.000000000000000000 ) ) ;
#460 = CARTESIAN_POINT ( 'NONE',  ( 0.000000000000000000, 0.000000000000000000, 0.000000000000000000 ) ) ;
#461 = FACE_BOUND ( 'NONE', #97, .T. ) ;
#462 = ADVANCED_FACE ( 'NONE', ( #310, #225 ), #306, .T. ) ;
#463 = CARTESIAN_POINT ( 'NONE',  ( -9.526279441628826561, 1.502314598737159623E-15, -51.90171849860682585 ) ) ;
#464 = DIRECTION ( 'NONE',  ( 1.000000000000000000, 0.000000000000000000, 0.000000000000000000 ) ) ;
#465 = AXIS2_PLACEMENT_3D ( 'NONE', #161, #340, #42 ) ;
#466 = APPROVAL_PERSON_ORGANIZATION ( #11, #365, #6 ) ;
#467 = CARTESIAN_POINT ( 'NONE',  ( 5.204170427930421283E-15, 10.99999999999999822, -63.00000000000000000 ) ) ;
#468 = DIRECTION ( 'NONE',  ( 0.000000000000000000, -0.000000000000000000, 1.000000000000000000 ) ) ;
#469 = EDGE_CURVE ( 'NONE', #28, #26, #50, .T. ) ;
#470 =( LENGTH_UNIT ( ) NAMED_UNIT ( * ) SI_UNIT ( .MILLI., .METRE. ) );
#471 = DIRECTION ( 'NONE',  ( -0.000000000000000000, -0.000000000000000000, -1.000000000000000000 ) ) ;
#472 = DIRECTION ( 'NONE',  ( -0.000000000000000000, -0.000000000000000000, 1.000000000000000000 ) ) ;
#473 = VECTOR ( 'NONE', #518, 1000.000000000000000 ) ;
#474 = APPROVAL_DATE_TIME ( #313, #19 ) ;
#475 = CARTESIAN_POINT ( 'NONE',  ( 0.000000000000000000, -2.535709570444196093, -5.437846722219885187 ) ) ;
#476 = EDGE_CURVE ( 'NONE', #28, #289, #172, .T. ) ;
#477 = DATE_AND_TIME ( #393, #115 ) ;
#478 = LINE ( 'NONE', #99, #455 ) ;
#479 = COORDINATED_UNIVERSAL_TIME_OFFSET ( 8, 0, .AHEAD. ) ;
#480 = LINE ( 'NONE', #54, #197 ) ;
#481 = AXIS2_PLACEMENT_3D ( 'NONE', #109, #20, #285 ) ;
#482 = DIRECTION ( 'NONE',  ( 0.000000000000000000, 0.000000000000000000, -1.000000000000000000 ) ) ;
#483 = EDGE_CURVE ( 'NONE', #1, #1, #495, .T. ) ;
#484 = CARTESIAN_POINT ( 'NONE',  ( -4.763139720814408840, 8.250000000000000000, -63.00000000000000000 ) ) ;
#485 = CARTESIAN_POINT ( 'NONE',  ( 9.526279441628823008, -3.004629197474318063E-15, -70.50000000000000000 ) ) ;
#486 = DIRECTION ( 'NONE',  ( 0.8660254037844387076, 0.4999999999999999445, 0.000000000000000000 ) ) ;
#487 = CIRCLE ( 'NONE', #439, 29.94968108799259809 ) ;
#488 = ORGANIZATION ( '未指定', '未指定', '' ) ;
#489 = EDGE_CURVE ( 'NONE', #26, #438, #478, .T. ) ;
#490 = CARTESIAN_POINT ( 'NONE',  ( -30.13513492995891951, 25.00000000000000000, -29.31173815727486343 ) ) ;
#491 = ORIENTED_EDGE ( 'NONE', *, *, #317, .T. ) ;
#492 = VERTEX_POINT ( 'NONE', #166 ) ;
#493 = ORIENTED_EDGE ( 'NONE', *, *, #256, .F. ) ;
#494 = VECTOR ( 'NONE', #328, 1000.000000000000000 ) ;
#495 = CIRCLE ( 'NONE', #504, 38.00000000000000000 ) ;
#496 = PLANE ( 'NONE',  #422 ) ;
#497 = VERTEX_POINT ( 'NONE', #499 ) ;
#498 = CARTESIAN_POINT ( 'NONE',  ( -14.01352037654586979, -20.70316996636345408, -8.000000000000000000 ) ) ;
#499 = CARTESIAN_POINT ( 'NONE',  ( 0.000000000000000000, 28.83410223627477009, -20.06583020257406957 ) ) ;
#500 = DIRECTION ( 'NONE',  ( -0.5000000000000001110, -0.8660254037844385966, 0.000000000000000000 ) ) ;
#501 = FACE_OUTER_BOUND ( 'NONE', #273, .T. ) ;
#502 = CIRCLE ( 'NONE', #308, 19.99999999999999645 ) ;
#503 = ADVANCED_FACE ( 'NONE', ( #380, #267 ), #218, .T. ) ;
#504 = AXIS2_PLACEMENT_3D ( 'NONE', #475, #278, #175 ) ;
#505 = CARTESIAN_POINT ( 'NONE',  ( 0.000000000000000000, 31.90398633694848485, -21.49734066836649049 ) ) ;
#506 = LINE ( 'NONE', #420, #154 ) ;
#507 = CARTESIAN_POINT ( 'NONE',  ( -10.99999999999999645, 0.000000000000000000, -70.50000000000000000 ) ) ;
#508 = EDGE_CURVE ( 'NONE', #151, #28, #297, .T. ) ;
#509 = COORDINATED_UNIVERSAL_TIME_OFFSET ( 8, 0, .AHEAD. ) ;
#510 = DIRECTION ( 'NONE',  ( -0.000000000000000000, -0.4226182617407002740, -0.9063077870366496036 ) ) ;
#511 = AXIS2_PLACEMENT_3D ( 'NONE', #85, #171, #268 ) ;
#512 = CALENDAR_DATE ( 2022, 8, 11 ) ;
#513 = CARTESIAN_POINT ( 'NONE',  ( -9.526279441628819455, -5.500000000000004441, -51.90171849860682585 ) ) ;
#514 = VERTEX_POINT ( 'NONE', #467 ) ;
#515 = PERSON_AND_ORGANIZATION ( #370, #488 ) ;
#516 = DIRECTION ( 'NONE',  ( -0.000000000000000000, -0.4226182617407002740, -0.9063077870366496036 ) ) ;
#517 = ORIENTED_EDGE ( 'NONE', *, *, #196, .T. ) ;
#518 = DIRECTION ( 'NONE',  ( -0.000000000000000000, -0.000000000000000000, -1.000000000000000000 ) ) ;
#519 = ADVANCED_FACE ( 'NONE', ( #213 ), #37, .T. ) ;
#520 = VECTOR ( 'NONE', #405, 1000.000000000000114 ) ;
#521 = VECTOR ( 'NONE', #205, 1000.000000000000000 ) ;
#522 = CARTESIAN_POINT ( 'NONE',  ( -24.99999999999999645, 0.000000000000000000, -8.000000000000000000 ) ) ;
#523 = EDGE_LOOP ( 'NONE', ( #533 ) ) ;
#524 = LINE ( 'NONE', #485, #186 ) ;
#525 = CARTESIAN_POINT ( 'NONE',  ( 38.96923319311530065, -3.811196870725911179, -15.87685641584400464 ) ) ;
#526 = EDGE_CURVE ( 'NONE', #401, #416, #76, .T. ) ;
#527 = DIRECTION ( 'NONE',  ( 0.4999999999999999445, -0.8660254037844387076, 0.000000000000000000 ) ) ;
#528 = AXIS2_PLACEMENT_3D ( 'NONE', #545, #302, #216 ) ;
#529 = SECURITY_CLASSIFICATION ( '', '', #274 ) ;
#530 = ORIENTED_EDGE ( 'NONE', *, *, #265, .T. ) ;
#531 = EDGE_LOOP ( 'NONE', ( #237 ) ) ;
#532 = DESIGN_CONTEXT ( 'detailed design', #60, 'design' ) ;
#533 = ORIENTED_EDGE ( 'NONE', *, *, #41, .F. ) ;
#534 = EDGE_LOOP ( 'NONE', ( #360, #252 ) ) ;
#535 = ADVANCED_FACE ( 'NONE', ( #215 ), #46, .T. ) ;
#536 = EDGE_LOOP ( 'NONE', ( #204, #287, #185, #116 ) ) ;
#537 = VERTEX_POINT ( 'NONE', #347 ) ;
#538 = PRODUCT_DEFINITION_SHAPE ( 'NONE', 'NONE',  #240 ) ;
#539 = CIRCLE ( 'NONE', #403, 3.999999999999998224 ) ;
#540 = CARTESIAN_POINT ( 'NONE',  ( 0.000000000000000000, 0.000000000000000000, -49.00000000000000000 ) ) ;
#541 = CC_DESIGN_SECURITY_CLASSIFICATION ( #529, ( #22 ) ) ;
#542 = EDGE_LOOP ( 'NONE', ( #245 ) ) ;
#543 = DIRECTION ( 'NONE',  ( 1.000000000000000000, 0.000000000000000000, 0.000000000000000000 ) ) ;
#544 = CARTESIAN_POINT ( 'NONE',  ( -9.526279441628826561, 1.502314598737159623E-15, -63.00000000000000000 ) ) ;
#545 = CARTESIAN_POINT ( 'NONE',  ( 0.000000000000000000, 0.000000000000000000, -8.000000000000000000 ) ) ;
#546 = VERTEX_POINT ( 'NONE', #44 ) ;
#547 = DIRECTION ( 'NONE',  ( 1.000000000000000000, 0.000000000000000000, 0.000000000000000000 ) ) ;
#548 = EDGE_LOOP ( 'NONE', ( #414, #153, #316, #192 ) ) ;
#549 = CARTESIAN_POINT ( 'NONE',  ( 9.526279441628823008, -3.004629197474318063E-15, -63.00000000000000000 ) ) ;
#550 = LINE ( 'NONE', #346, #209 ) ;
#551 = CIRCLE ( 'NONE', #320, 34.61275766954259581 ) ;
ENDSEC;
END-ISO-10303-21;
