ISO-10303-21;
HEADER;
FILE_DESCRIPTION (( 'STEP AP203' ),
    '1' );
FILE_NAME ('02651_index_3.step',
    '2022-11-08T00:05:25',
    ( '' ),
    ( '' ),
    'SwSTEP 2.0',
    'SolidWorks 2020',
    '' );
FILE_SCHEMA (( 'CONFIG_CONTROL_DESIGN' ));
ENDSEC;

DATA;
#1 = AXIS2_PLACEMENT_3D ( 'NONE', #791, #13, #357 ) ;
#2 = CALENDAR_DATE ( 2022, 8, 11 ) ;
#3 = EDGE_CURVE ( 'NONE', #265, #265, #207, .T. ) ;
#4 = CARTESIAN_POINT ( 'NONE',  ( 88.99999999999998579, 73.00000000000000000, -52.00000000000000000 ) ) ;
#5 = DIRECTION ( 'NONE',  ( 2.569960705150840189E-16, 0.000000000000000000, 1.000000000000000000 ) ) ;
#6 = CIRCLE ( 'NONE', #212, 7.000000000000000000 ) ;
#7 = DIRECTION ( 'NONE',  ( 0.000000000000000000, 1.000000000000000000, 0.000000000000000000 ) ) ;
#8 = DIRECTION ( 'NONE',  ( 0.000000000000000000, 1.000000000000000000, 0.000000000000000000 ) ) ;
#9 = CC_DESIGN_PERSON_AND_ORGANIZATION_ASSIGNMENT ( #186, #534, ( #682 ) ) ;
#10 = AXIS2_PLACEMENT_3D ( 'NONE', #61, #758, #681 ) ;
#11 = EDGE_CURVE ( 'NONE', #149, #783, #342, .T. ) ;
#12 = ORIENTED_EDGE ( 'NONE', *, *, #46, .F. ) ;
#13 = DIRECTION ( 'NONE',  ( 0.000000000000000000, 1.000000000000000000, 0.000000000000000000 ) ) ;
#14 = LOCAL_TIME ( 8, 5, 25.00000000000000000, #467 ) ;
#15 = DIRECTION ( 'NONE',  ( 0.000000000000000000, 0.000000000000000000, 1.000000000000000000 ) ) ;
#16 = ORIENTED_EDGE ( 'NONE', *, *, #11, .F. ) ;
#17 = CYLINDRICAL_SURFACE ( 'NONE', #447, 7.000000000000000000 ) ;
#18 = LINE ( 'NONE', #429, #483 ) ;
#19 = CARTESIAN_POINT ( 'NONE',  ( -92.00000000000001421, 80.00000000000000000, -26.99999999999998224 ) ) ;
#20 = CARTESIAN_POINT ( 'NONE',  ( -89.00000000000000000, 0.000000000000000000, 52.00000000000000000 ) ) ;
#21 = PLANE ( 'NONE',  #642 ) ;
#22 = DIRECTION ( 'NONE',  ( 0.000000000000000000, 0.000000000000000000, -1.000000000000000000 ) ) ;
#23 = AXIS2_PLACEMENT_3D ( 'NONE', #410, #270, #414 ) ;
#24 = DIRECTION ( 'NONE',  ( 1.000000000000000000, 0.000000000000000000, 0.000000000000000000 ) ) ;
#25 = CARTESIAN_POINT ( 'NONE',  ( -89.00000000000001421, 73.00000000000000000, -52.00000000000000000 ) ) ;
#26 = ORIENTED_EDGE ( 'NONE', *, *, #72, .T. ) ;
#27 = DIRECTION ( 'NONE',  ( -0.000000000000000000, -0.000000000000000000, 1.000000000000000000 ) ) ;
#28 = ADVANCED_FACE ( 'NONE', ( #41, #596 ), #248, .T. ) ;
#29 = CARTESIAN_POINT ( 'NONE',  ( -89.00000000000001421, 11.00000000000000000, -52.00000000000000000 ) ) ;
#30 = DIRECTION ( 'NONE',  ( 1.000000000000000000, 0.000000000000000000, -0.000000000000000000 ) ) ;
#31 = VECTOR ( 'NONE', #88, 1000.000000000000000 ) ;
#32 = PLANE ( 'NONE',  #827 ) ;
#33 = LINE ( 'NONE', #234, #258 ) ;
#34 = LINE ( 'NONE', #251, #771 ) ;
#35 = CARTESIAN_POINT ( 'NONE',  ( 115.0000000000000000, 73.00000000000000000, -26.99999999999982947 ) ) ;
#36 = EDGE_CURVE ( 'NONE', #437, #219, #773, .T. ) ;
#37 = AXIS2_PLACEMENT_3D ( 'NONE', #476, #331, #399 ) ;
#38 = VERTEX_POINT ( 'NONE', #854 ) ;
#39 = LINE ( 'NONE', #651, #801 ) ;
#40 = DIRECTION ( 'NONE',  ( -0.000000000000000000, -1.000000000000000000, -0.000000000000000000 ) ) ;
#41 = FACE_OUTER_BOUND ( 'NONE', #538, .T. ) ;
#42 = DIRECTION ( 'NONE',  ( 1.000000000000000000, 0.000000000000000000, 0.000000000000000000 ) ) ;
#43 = EDGE_LOOP ( 'NONE', ( #129, #155 ) ) ;
#44 = EDGE_LOOP ( 'NONE', ( #546, #595, #172, #231 ) ) ;
#45 = DIRECTION ( 'NONE',  ( -1.334402673828313339E-16, 0.000000000000000000, -1.000000000000000000 ) ) ;
#46 = EDGE_CURVE ( 'NONE', #763, #430, #769, .T. ) ;
#47 = ORIENTED_EDGE ( 'NONE', *, *, #586, .F. ) ;
#48 = LINE ( 'NONE', #466, #585 ) ;
#49 = AXIS2_PLACEMENT_3D ( 'NONE', #246, #675, #522 ) ;
#50 = PERSON_AND_ORGANIZATION ( #762, #694 ) ;
#51 = LINE ( 'NONE', #610, #513 ) ;
#52 = DIRECTION ( 'NONE',  ( 0.000000000000000000, 0.000000000000000000, -1.000000000000000000 ) ) ;
#53 = CLOSED_SHELL ( 'NONE', ( #303, #582, #512, #692, #260, #137, #744, #813, #636, #703, #871, #136, #280, #315, #655, #125, #464, #840, #485, #354, #345, #253, #134, #515, #833, #28, #679, #86 ) ) ;
#54 = VERTEX_POINT ( 'NONE', #300 ) ;
#55 = PLANE ( 'NONE',  #10 ) ;
#56 = EDGE_CURVE ( 'NONE', #430, #131, #836, .T. ) ;
#57 = ORIENTED_EDGE ( 'NONE', *, *, #56, .F. ) ;
#58 = DIRECTION ( 'NONE',  ( -1.000000000000000000, 0.000000000000000000, 1.334402673828313339E-16 ) ) ;
#59 = CIRCLE ( 'NONE', #294, 22.99999999999999645 ) ;
#60 = EDGE_CURVE ( 'NONE', #481, #38, #146, .T. ) ;
#61 = CARTESIAN_POINT ( 'NONE',  ( 89.00000000000000000, 0.000000000000000000, 52.00000000000000000 ) ) ;
#62 = ORIENTED_EDGE ( 'NONE', *, *, #627, .F. ) ;
#63 = CARTESIAN_POINT ( 'NONE',  ( -115.0000000000000142, 80.00000000000000000, -26.99999999999981881 ) ) ;
#64 = AXIS2_PLACEMENT_3D ( 'NONE', #404, #52, #686 ) ;
#65 = PERSON_AND_ORGANIZATION_ROLE ( 'design_supplier' ) ;
#66 = EDGE_LOOP ( 'NONE', ( #741 ) ) ;
#67 = CARTESIAN_POINT ( 'NONE',  ( 91.99999999999982947, 73.00000000000000000, -49.99999999999997868 ) ) ;
#68 = EDGE_CURVE ( 'NONE', #252, #581, #295, .T. ) ;
#69 = CC_DESIGN_PERSON_AND_ORGANIZATION_ASSIGNMENT ( #543, #761, ( #229 ) ) ;
#70 = PLANE ( 'NONE',  #332 ) ;
#71 = CARTESIAN_POINT ( 'NONE',  ( -89.00000000000000000, 28.00000000000000000, -16.99999999999998934 ) ) ;
#72 = EDGE_CURVE ( 'NONE', #54, #807, #465, .T. ) ;
#73 = VECTOR ( 'NONE', #453, 1000.000000000000000 ) ;
#74 = CYLINDRICAL_SURFACE ( 'NONE', #1, 23.00000000000000355 ) ;
#75 = CARTESIAN_POINT ( 'NONE',  ( -115.0000000000000142, 73.00000000000000000, -26.99999999999981881 ) ) ;
#76 = AXIS2_PLACEMENT_3D ( 'NONE', #764, #890, #197 ) ;
#77 = DIRECTION ( 'NONE',  ( -1.000000000000000000, -0.000000000000000000, 1.334402673828313339E-16 ) ) ;
#78 = DIRECTION ( 'NONE',  ( -1.000000000000000000, -0.000000000000000000, -0.000000000000000000 ) ) ;
#79 = VECTOR ( 'NONE', #27, 1000.000000000000000 ) ;
#80 = CARTESIAN_POINT ( 'NONE',  ( -91.99999999999984368, 80.00000000000000000, 50.00000000000002132 ) ) ;
#81 = CARTESIAN_POINT ( 'NONE',  ( -89.00000000000001421, 11.00000000000000000, -52.00000000000000000 ) ) ;
#82 = DIRECTION ( 'NONE',  ( 0.000000000000000000, 1.000000000000000000, 0.000000000000000000 ) ) ;
#83 = CIRCLE ( 'NONE', #535, 23.00000000000000711 ) ;
#84 = CARTESIAN_POINT ( 'NONE',  ( -43.00000000000000711, 2.999999999999998668, -52.00002500000000083 ) ) ;
#85 = CARTESIAN_POINT ( 'NONE',  ( -91.00000000000000000, 28.00000000000000000, 1.214306433183765124E-14 ) ) ;
#86 = ADVANCED_FACE ( 'NONE', ( #205, #489 ), #17, .F. ) ;
#87 = LINE ( 'NONE', #520, #94 ) ;
#88 = DIRECTION ( 'NONE',  ( -0.000000000000000000, -1.000000000000000000, -0.000000000000000000 ) ) ;
#89 = DIRECTION ( 'NONE',  ( 1.000000000000000000, -0.000000000000000000, -1.334402673828313586E-16 ) ) ;
#90 = CC_DESIGN_APPROVAL ( #393, ( #229 ) ) ;
#91 = DIRECTION ( 'NONE',  ( 0.000000000000000000, 1.000000000000000000, 0.000000000000000000 ) ) ;
#92 = DIRECTION ( 'NONE',  ( -0.000000000000000000, -0.000000000000000000, 1.000000000000000000 ) ) ;
#93 = CARTESIAN_POINT ( 'NONE',  ( -92.00000000000001421, 80.00000000000000000, 27.00000000000002132 ) ) ;
#94 = VECTOR ( 'NONE', #848, 1000.000000000000000 ) ;
#95 = ORIENTED_EDGE ( 'NONE', *, *, #767, .T. ) ;
#96 = EDGE_CURVE ( 'NONE', #273, #252, #495, .T. ) ;
#97 = CARTESIAN_POINT ( 'NONE',  ( -115.0000000000000142, 73.00000000000000000, -26.99999999999981881 ) ) ;
#98 = VERTEX_POINT ( 'NONE', #227 ) ;
#99 = LINE ( 'NONE', #864, #31 ) ;
#100 = DIRECTION ( 'NONE',  ( 0.000000000000000000, 0.000000000000000000, 1.000000000000000000 ) ) ;
#101 = ORIENTED_EDGE ( 'NONE', *, *, #158, .F. ) ;
#102 = ORIENTED_EDGE ( 'NONE', *, *, #488, .F. ) ;
#103 = CARTESIAN_POINT ( 'NONE',  ( 88.99999999999998579, 11.00000000000000000, -52.00000000000000000 ) ) ;
#104 = ORIENTED_EDGE ( 'NONE', *, *, #96, .T. ) ;
#105 = ORIENTED_EDGE ( 'NONE', *, *, #96, .F. ) ;
#106 = DIRECTION ( 'NONE',  ( -2.569960705150840189E-16, 0.000000000000000000, -1.000000000000000000 ) ) ;
#107 = ORIENTED_EDGE ( 'NONE', *, *, #576, .F. ) ;
#108 = PRODUCT_DEFINITION_FORMATION_WITH_SPECIFIED_SOURCE ( '任何', '', #722, .NOT_KNOWN. ) ;
#109 = ORIENTED_EDGE ( 'NONE', *, *, #881, .F. ) ;
#110 = CARTESIAN_POINT ( 'NONE',  ( -89.00000000000002842, 73.00000000000000000, -26.00000000000000000 ) ) ;
#111 = CIRCLE ( 'NONE', #360, 17.00000000000000000 ) ;
#112 = FACE_BOUND ( 'NONE', #674, .T. ) ;
#113 = VERTEX_POINT ( 'NONE', #640 ) ;
#114 = AXIS2_PLACEMENT_3D ( 'NONE', #85, #89, #705 ) ;
#115 = EDGE_CURVE ( 'NONE', #526, #519, #221, .T. ) ;
#116 = DATE_TIME_ROLE ( 'creation_date' ) ;
#117 = DIRECTION ( 'NONE',  ( 1.000000000000000000, 0.000000000000000000, 0.000000000000000000 ) ) ;
#118 = AXIS2_PLACEMENT_3D ( 'NONE', #187, #262, #267 ) ;
#119 = EDGE_CURVE ( 'NONE', #581, #271, #566, .T. ) ;
#120 = VECTOR ( 'NONE', #887, 1000.000000000000000 ) ;
#121 = CALENDAR_DATE ( 2022, 8, 11 ) ;
#122 = DIRECTION ( 'NONE',  ( -1.334402673828313339E-16, -0.000000000000000000, -1.000000000000000000 ) ) ;
#123 = EDGE_LOOP ( 'NONE', ( #272, #440, #353, #677 ) ) ;
#124 = LINE ( 'NONE', #479, #268 ) ;
#125 = ADVANCED_FACE ( 'NONE', ( #632 ), #151, .T. ) ;
#126 =( NAMED_UNIT ( * ) PLANE_ANGLE_UNIT ( ) SI_UNIT ( $, .RADIAN. ) );
#127 = APPLICATION_CONTEXT ( 'configuration controlled 3d designs of mechanical parts and assemblies' ) ;
#128 = CARTESIAN_POINT ( 'NONE',  ( -89.00000000000002842, 11.00000000000000000, 26.00000000000000000 ) ) ;
#129 = ORIENTED_EDGE ( 'NONE', *, *, #861, .F. ) ;
#130 = CARTESIAN_POINT ( 'NONE',  ( -92.00000000000001421, 73.00000000000000000, -26.99999999999998224 ) ) ;
#131 = VERTEX_POINT ( 'NONE', #289 ) ;
#132 = DATE_AND_TIME ( #400, #14 ) ;
#133 = DIRECTION ( 'NONE',  ( 1.000000000000000000, 0.000000000000000000, -1.334402673828313339E-16 ) ) ;
#134 = ADVANCED_FACE ( 'NONE', ( #213 ), #70, .F. ) ;
#135 = VERTEX_POINT ( 'NONE', #71 ) ;
#136 = ADVANCED_FACE ( 'NONE', ( #346 ), #74, .T. ) ;
#137 = ADVANCED_FACE ( 'NONE', ( #283 ), #629, .T. ) ;
#138 = VERTEX_POINT ( 'NONE', #559 ) ;
#139 = AXIS2_PLACEMENT_3D ( 'NONE', #441, #645, #373 ) ;
#140 = DIRECTION ( 'NONE',  ( -1.334402673828313339E-16, -0.000000000000000000, -1.000000000000000000 ) ) ;
#141 = FACE_BOUND ( 'NONE', #607, .T. ) ;
#142 = VECTOR ( 'NONE', #312, 1000.000000000000000 ) ;
#143 = CARTESIAN_POINT ( 'NONE',  ( 91.99999999999987210, 73.00000000000000000, 50.00000000000002842 ) ) ;
#144 = CARTESIAN_POINT ( 'NONE',  ( 115.0000000000000142, 73.00000000000000000, 26.99999999999986144 ) ) ;
#145 = ORIENTED_EDGE ( 'NONE', *, *, #719, .T. ) ;
#146 = LINE ( 'NONE', #428, #287 ) ;
#147 = CARTESIAN_POINT ( 'NONE',  ( 88.99999999999998579, 11.00000000000000000, -52.00000000000000000 ) ) ;
#148 = CARTESIAN_POINT ( 'NONE',  ( 88.99999999999998579, 11.00000000000000000, -52.00000000000000000 ) ) ;
#149 = VERTEX_POINT ( 'NONE', #208 ) ;
#150 = AXIS2_PLACEMENT_3D ( 'NONE', #669, #133, #317 ) ;
#151 = CYLINDRICAL_SURFACE ( 'NONE', #579, 23.00000000000000711 ) ;
#152 = DIRECTION ( 'NONE',  ( 0.000000000000000000, 1.000000000000000000, 0.000000000000000000 ) ) ;
#153 = EDGE_CURVE ( 'NONE', #178, #219, #493, .T. ) ;
#154 = FACE_OUTER_BOUND ( 'NONE', #293, .T. ) ;
#155 = ORIENTED_EDGE ( 'NONE', *, *, #298, .F. ) ;
#156 = DIRECTION ( 'NONE',  ( 1.000000000000000000, 0.000000000000000000, 0.000000000000000000 ) ) ;
#157 = LINE ( 'NONE', #709, #392 ) ;
#158 = EDGE_CURVE ( 'NONE', #844, #821, #33, .T. ) ;
#159 = FACE_OUTER_BOUND ( 'NONE', #123, .T. ) ;
#160 = CIRCLE ( 'NONE', #49, 23.00000000000000355 ) ;
#161 = ORIENTED_EDGE ( 'NONE', *, *, #527, .F. ) ;
#162 = CC_DESIGN_PERSON_AND_ORGANIZATION_ASSIGNMENT ( #891, #405, ( #108 ) ) ;
#163 = PRODUCT_DEFINITION_SHAPE ( 'NONE', 'NONE',  #229 ) ;
#164 = EDGE_CURVE ( 'NONE', #436, #821, #39, .T. ) ;
#165 = CARTESIAN_POINT ( 'NONE',  ( -89.00000000000001421, 0.000000000000000000, -52.00000000000000000 ) ) ;
#166 = CARTESIAN_POINT ( 'NONE',  ( -91.00000000000000000, 28.00000000000000000, 1.214306433183765282E-14 ) ) ;
#167 = VERTEX_POINT ( 'NONE', #29 ) ;
#168 = DIRECTION ( 'NONE',  ( 0.000000000000000000, 0.000000000000000000, -1.000000000000000000 ) ) ;
#169 = AXIS2_PLACEMENT_3D ( 'NONE', #523, #505, #845 ) ;
#170 = CARTESIAN_POINT ( 'NONE',  ( -89.00000000000001421, 11.00000000000000000, -52.00000000000000000 ) ) ;
#171 = DIRECTION ( 'NONE',  ( 0.000000000000000000, 1.000000000000000000, 0.000000000000000000 ) ) ;
#172 = ORIENTED_EDGE ( 'NONE', *, *, #419, .T. ) ;
#173 = ORIENTED_EDGE ( 'NONE', *, *, #226, .T. ) ;
#174 = CARTESIAN_POINT ( 'NONE',  ( -89.00000000000000000, 11.00000000000000000, 52.00000000000000000 ) ) ;
#175 = ORIENTED_EDGE ( 'NONE', *, *, #115, .T. ) ;
#176 = VECTOR ( 'NONE', #647, 1000.000000000000000 ) ;
#177 = DIRECTION ( 'NONE',  ( -1.000000000000000000, -0.000000000000000000, -0.000000000000000000 ) ) ;
#178 = VERTEX_POINT ( 'NONE', #450 ) ;
#179 = ORIENTED_EDGE ( 'NONE', *, *, #416, .F. ) ;
#180 = ORIENTED_EDGE ( 'NONE', *, *, #211, .T. ) ;
#181 = VERTEX_POINT ( 'NONE', #371 ) ;
#182 = DIRECTION ( 'NONE',  ( -0.000000000000000000, -1.000000000000000000, -0.000000000000000000 ) ) ;
#183 = LINE ( 'NONE', #743, #699 ) ;
#184 = ORIENTED_EDGE ( 'NONE', *, *, #676, .F. ) ;
#185 = CARTESIAN_POINT ( 'NONE',  ( 88.99999999999998579, 0.000000000000000000, -52.00000000000000000 ) ) ;
#186 = PERSON_AND_ORGANIZATION ( #762, #694 ) ;
#187 = CARTESIAN_POINT ( 'NONE',  ( -92.00000000000001421, 73.00000000000000000, 27.00000000000002132 ) ) ;
#188 = EDGE_LOOP ( 'NONE', ( #62, #554, #286, #816 ) ) ;
#189 = DIRECTION ( 'NONE',  ( 1.334402673828313339E-16, 0.000000000000000000, 1.000000000000000000 ) ) ;
#190 =( NAMED_UNIT ( * ) SI_UNIT ( $, .STERADIAN. ) SOLID_ANGLE_UNIT ( ) );
#191 = CARTESIAN_POINT ( 'NONE',  ( -115.0000000000000142, 80.00000000000000000, 26.99999999999985434 ) ) ;
#192 = ORIENTED_EDGE ( 'NONE', *, *, #72, .F. ) ;
#193 = PLANE ( 'NONE',  #64 ) ;
#194 = VECTOR ( 'NONE', #700, 1000.000000000000000 ) ;
#195 = COORDINATED_UNIVERSAL_TIME_OFFSET ( 8, 0, .AHEAD. ) ;
#196 = ORIENTED_EDGE ( 'NONE', *, *, #395, .T. ) ;
#197 = DIRECTION ( 'NONE',  ( 0.000000000000000000, 0.000000000000000000, 1.000000000000000000 ) ) ;
#198 = EDGE_CURVE ( 'NONE', #659, #526, #725, .T. ) ;
#199 = AXIS2_PLACEMENT_3D ( 'NONE', #517, #324, #310 ) ;
#200 = COORDINATED_UNIVERSAL_TIME_OFFSET ( 8, 0, .AHEAD. ) ;
#201 = VERTEX_POINT ( 'NONE', #313 ) ;
#202 = CARTESIAN_POINT ( 'NONE',  ( 89.00000000000000000, 0.000000000000000000, 52.00000000000000000 ) ) ;
#203 = ORIENTED_EDGE ( 'NONE', *, *, #586, .T. ) ;
#204 = LOCAL_TIME ( 8, 5, 25.00000000000000000, #558 ) ;
#205 = FACE_OUTER_BOUND ( 'NONE', #302, .T. ) ;
#206 = CARTESIAN_POINT ( 'NONE',  ( -91.99999999999985789, 80.00000000000000000, -49.99999999999997868 ) ) ;
#207 = CIRCLE ( 'NONE', #150, 9.000000000000000000 ) ;
#208 = CARTESIAN_POINT ( 'NONE',  ( 89.00000000000002842, 73.00000000000000000, 26.00000000000000000 ) ) ;
#209 = AXIS2_PLACEMENT_3D ( 'NONE', #665, #671, #314 ) ;
#210 = FACE_OUTER_BOUND ( 'NONE', #811, .T. ) ;
#211 = EDGE_CURVE ( 'NONE', #581, #707, #306, .T. ) ;
#212 = AXIS2_PLACEMENT_3D ( 'NONE', #166, #352, #100 ) ;
#213 = FACE_OUTER_BOUND ( 'NONE', #809, .T. ) ;
#214 = DIRECTION ( 'NONE',  ( 0.000000000000000000, 1.000000000000000000, 0.000000000000000000 ) ) ;
#215 = EDGE_CURVE ( 'NONE', #135, #135, #111, .T. ) ;
#216 = ORIENTED_EDGE ( 'NONE', *, *, #11, .T. ) ;
#217 = AXIS2_PLACEMENT_3D ( 'NONE', #525, #739, #45 ) ;
#218 = PLANE ( 'NONE',  #139 ) ;
#219 = VERTEX_POINT ( 'NONE', #589 ) ;
#220 = ORIENTED_EDGE ( 'NONE', *, *, #395, .F. ) ;
#221 = LINE ( 'NONE', #20, #815 ) ;
#222 = DIRECTION ( 'NONE',  ( 0.000000000000000000, 0.000000000000000000, 1.000000000000000000 ) ) ;
#223 = FACE_OUTER_BOUND ( 'NONE', #469, .T. ) ;
#224 = CIRCLE ( 'NONE', #873, 23.00000000000000355 ) ;
#225 = ORIENTED_EDGE ( 'NONE', *, *, #706, .T. ) ;
#226 = EDGE_CURVE ( 'NONE', #113, #201, #99, .T. ) ;
#227 = CARTESIAN_POINT ( 'NONE',  ( -89.00000000000000000, 11.00000000000000000, 25.99999999999994671 ) ) ;
#228 = DIRECTION ( 'NONE',  ( 2.569960705150840189E-16, 0.000000000000000000, 1.000000000000000000 ) ) ;
#229 = PRODUCT_DEFINITION ( '未知', '', #108, #755 ) ;
#230 = DIRECTION ( 'NONE',  ( 1.000000000000000000, -0.000000000000000000, -1.334402673828313339E-16 ) ) ;
#231 = ORIENTED_EDGE ( 'NONE', *, *, #423, .T. ) ;
#232 = EDGE_CURVE ( 'NONE', #430, #167, #510, .T. ) ;
#233 = VECTOR ( 'NONE', #326, 1000.000000000000000 ) ;
#234 = CARTESIAN_POINT ( 'NONE',  ( 89.00000000000000000, 11.00000000000000000, 52.00000000000000000 ) ) ;
#235 = DIRECTION ( 'NONE',  ( 1.334402673828313339E-16, -0.000000000000000000, 1.000000000000000000 ) ) ;
#236 = ORIENTED_EDGE ( 'NONE', *, *, #638, .F. ) ;
#237 = DIRECTION ( 'NONE',  ( 0.000000000000000000, -0.000000000000000000, 1.000000000000000000 ) ) ;
#238 = AXIS2_PLACEMENT_3D ( 'NONE', #603, #678, #106 ) ;
#239 = EDGE_LOOP ( 'NONE', ( #388 ) ) ;
#240 = CARTESIAN_POINT ( 'NONE',  ( 41.99999999999999289, 2.999999999999998668, -52.00000000000000000 ) ) ;
#241 = CARTESIAN_POINT ( 'NONE',  ( 92.00000000000000000, 80.00000000000000000, -26.99999999999998224 ) ) ;
#242 = ORIENTED_EDGE ( 'NONE', *, *, #119, .T. ) ;
#243 =( GEOMETRIC_REPRESENTATION_CONTEXT ( 3 ) GLOBAL_UNCERTAINTY_ASSIGNED_CONTEXT ( ( #487 ) ) GLOBAL_UNIT_ASSIGNED_CONTEXT ( ( #418, #126, #190 ) ) REPRESENTATION_CONTEXT ( 'NONE', 'WORKASPACE' ) );
#244 = CARTESIAN_POINT ( 'NONE',  ( -89.00000000000001421, 0.000000000000000000, -52.00000000000000000 ) ) ;
#245 = VECTOR ( 'NONE', #421, 1000.000000000000000 ) ;
#246 = CARTESIAN_POINT ( 'NONE',  ( -92.00000000000001421, 73.00000000000000000, -26.99999999999998224 ) ) ;
#247 = ORIENTED_EDGE ( 'NONE', *, *, #545, .T. ) ;
#248 = CYLINDRICAL_SURFACE ( 'NONE', #169, 9.000000000000000000 ) ;
#249 = ORIENTED_EDGE ( 'NONE', *, *, #3, .F. ) ;
#250 = VECTOR ( 'NONE', #792, 1000.000000000000000 ) ;
#251 = CARTESIAN_POINT ( 'NONE',  ( -89.00000000000001421, 0.000000000000000000, -52.00000000000000000 ) ) ;
#252 = VERTEX_POINT ( 'NONE', #240 ) ;
#253 = ADVANCED_FACE ( 'NONE', ( #795 ), #657, .F. ) ;
#254 = CARTESIAN_POINT ( 'NONE',  ( -89.00000000000000000, 11.00000000000000000, 52.00000000000000000 ) ) ;
#255 = VERTEX_POINT ( 'NONE', #799 ) ;
#256 = ORIENTED_EDGE ( 'NONE', *, *, #164, .F. ) ;
#257 = CARTESIAN_POINT ( 'NONE',  ( -43.00000000000000711, 2.999999999999998668, -52.00000000000000000 ) ) ;
#258 = VECTOR ( 'NONE', #444, 1000.000000000000000 ) ;
#259 = CC_DESIGN_DATE_AND_TIME_ASSIGNMENT ( #614, #757, ( #682 ) ) ;
#260 = ADVANCED_FACE ( 'NONE', ( #592 ), #370, .F. ) ;
#261 = PERSON_AND_ORGANIZATION ( #762, #694 ) ;
#262 = DIRECTION ( 'NONE',  ( 0.000000000000000000, 1.000000000000000000, 0.000000000000000000 ) ) ;
#263 = VECTOR ( 'NONE', #363, 1000.000000000000000 ) ;
#264 = VERTEX_POINT ( 'NONE', #862 ) ;
#265 = VERTEX_POINT ( 'NONE', #277 ) ;
#266 = DATE_AND_TIME ( #121, #204 ) ;
#267 = DIRECTION ( 'NONE',  ( 0.000000000000000000, 0.000000000000000000, 1.000000000000000000 ) ) ;
#268 = VECTOR ( 'NONE', #189, 1000.000000000000000 ) ;
#269 = ORIENTED_EDGE ( 'NONE', *, *, #738, .F. ) ;
#270 = DIRECTION ( 'NONE',  ( 1.000000000000000000, -0.000000000000000000, -1.334402673828313339E-16 ) ) ;
#271 = VERTEX_POINT ( 'NONE', #292 ) ;
#272 = ORIENTED_EDGE ( 'NONE', *, *, #288, .T. ) ;
#273 = VERTEX_POINT ( 'NONE', #297 ) ;
#274 = VERTEX_POINT ( 'NONE', #626 ) ;
#275 = DATE_AND_TIME ( #2, #561 ) ;
#276 = DIRECTION ( 'NONE',  ( -1.334402673828313339E-16, 0.000000000000000000, -1.000000000000000000 ) ) ;
#277 = CARTESIAN_POINT ( 'NONE',  ( 91.00000000000000000, 12.00000000000000000, -9.000000000000010658 ) ) ;
#278 = VECTOR ( 'NONE', #78, 1000.000000000000000 ) ;
#279 = APPLICATION_PROTOCOL_DEFINITION ( 'international standard', 'config_control_design', 1994, #127 ) ;
#280 = ADVANCED_FACE ( 'NONE', ( #569 ), #656, .T. ) ;
#281 = DIRECTION ( 'NONE',  ( 0.000000000000000000, -0.000000000000000000, 1.000000000000000000 ) ) ;
#282 = PLANE ( 'NONE',  #529 ) ;
#283 = FACE_OUTER_BOUND ( 'NONE', #432, .T. ) ;
#284 = EDGE_CURVE ( 'NONE', #794, #264, #224, .T. ) ;
#285 = FACE_OUTER_BOUND ( 'NONE', #663, .T. ) ;
#286 = ORIENTED_EDGE ( 'NONE', *, *, #115, .F. ) ;
#287 = VECTOR ( 'NONE', #570, 1000.000000000000000 ) ;
#288 = EDGE_CURVE ( 'NONE', #252, #667, #649, .T. ) ;
#289 = CARTESIAN_POINT ( 'NONE',  ( 88.99999999999998579, 0.000000000000000000, -52.00000000000000000 ) ) ;
#290 = DIRECTION ( 'NONE',  ( -1.000000000000000000, -0.000000000000000000, -0.000000000000000000 ) ) ;
#291 = ORIENTED_EDGE ( 'NONE', *, *, #576, .T. ) ;
#292 = CARTESIAN_POINT ( 'NONE',  ( -43.00000000000000711, 0.000000000000000000, -52.00000000000000000 ) ) ;
#293 = EDGE_LOOP ( 'NONE', ( #16, #291, #340, #875, #880, #57, #12, #504 ) ) ;
#294 = AXIS2_PLACEMENT_3D ( 'NONE', #93, #726, #800 ) ;
#295 = LINE ( 'NONE', #417, #245 ) ;
#296 = FACE_OUTER_BOUND ( 'NONE', #776, .T. ) ;
#297 = CARTESIAN_POINT ( 'NONE',  ( 41.99999999999999289, 0.000000000000000000, -52.00000000000000000 ) ) ;
#298 = EDGE_CURVE ( 'NONE', #359, #359, #597, .T. ) ;
#299 = VERTEX_POINT ( 'NONE', #802 ) ;
#300 = CARTESIAN_POINT ( 'NONE',  ( 115.0000000000000000, 73.00000000000000000, -26.99999999999981881 ) ) ;
#301 = LINE ( 'NONE', #81, #263 ) ;
#302 = EDGE_LOOP ( 'NONE', ( #247 ) ) ;
#303 = ADVANCED_FACE ( 'NONE', ( #154, #304 ), #32, .F. ) ;
#304 = FACE_BOUND ( 'NONE', #43, .T. ) ;
#305 = VECTOR ( 'NONE', #509, 1000.000000000000000 ) ;
#306 = LINE ( 'NONE', #438, #477 ) ;
#307 = CARTESIAN_POINT ( 'NONE',  ( 92.00000000000001421, 80.00000000000000000, 27.00000000000002487 ) ) ;
#308 = DIRECTION ( 'NONE',  ( 0.000000000000000000, 1.000000000000000000, 0.000000000000000000 ) ) ;
#309 = CARTESIAN_POINT ( 'NONE',  ( 41.99999999999999289, 2.999999999999998668, -52.00002500000000083 ) ) ;
#310 = DIRECTION ( 'NONE',  ( -1.334402673828313339E-16, 0.000000000000000000, -1.000000000000000000 ) ) ;
#311 = ORIENTED_EDGE ( 'NONE', *, *, #706, .F. ) ;
#312 = DIRECTION ( 'NONE',  ( -2.569960705150840189E-16, -0.000000000000000000, -1.000000000000000000 ) ) ;
#313 = CARTESIAN_POINT ( 'NONE',  ( -89.00000000000002842, 11.00000000000000000, -26.00000000000000000 ) ) ;
#314 = DIRECTION ( 'NONE',  ( 0.000000000000000000, -0.000000000000000000, 1.000000000000000000 ) ) ;
#315 = ADVANCED_FACE ( 'NONE', ( #223 ), #580, .T. ) ;
#316 = APPROVAL_PERSON_ORGANIZATION ( #623, #420, #470 ) ;
#317 = DIRECTION ( 'NONE',  ( 0.000000000000000000, 0.000000000000000000, -1.000000000000000000 ) ) ;
#318 = AXIS2_PLACEMENT_3D ( 'NONE', #365, #230, #574 ) ;
#319 = PLANE ( 'NONE',  #238 ) ;
#320 = ORIENTED_EDGE ( 'NONE', *, *, #322, .T. ) ;
#321 = ORIENTED_EDGE ( 'NONE', *, *, #751, .F. ) ;
#322 = EDGE_CURVE ( 'NONE', #181, #98, #87, .T. ) ;
#323 = ORIENTED_EDGE ( 'NONE', *, *, #36, .T. ) ;
#324 = DIRECTION ( 'NONE',  ( 1.000000000000000000, 0.000000000000000000, -1.334402673828313339E-16 ) ) ;
#325 = ORIENTED_EDGE ( 'NONE', *, *, #419, .F. ) ;
#326 = DIRECTION ( 'NONE',  ( 0.000000000000000000, 1.000000000000000000, 0.000000000000000000 ) ) ;
#327 = ORIENTED_EDGE ( 'NONE', *, *, #329, .F. ) ;
#328 = APPROVAL ( #680, '未指定' ) ;
#329 = EDGE_CURVE ( 'NONE', #381, #138, #662, .T. ) ;
#330 = DIRECTION ( 'NONE',  ( 1.000000000000000000, 0.000000000000000000, 0.000000000000000000 ) ) ;
#331 = DIRECTION ( 'NONE',  ( 0.000000000000000000, 0.000000000000000000, 1.000000000000000000 ) ) ;
#332 = AXIS2_PLACEMENT_3D ( 'NONE', #84, #368, #646 ) ;
#333 = LINE ( 'NONE', #63, #740 ) ;
#334 = MECHANICAL_CONTEXT ( 'NONE', #643, 'mechanical' ) ;
#335 = CARTESIAN_POINT ( 'NONE',  ( -43.00000000000000711, 2.999999999999998668, 52.00000000000000000 ) ) ;
#336 = EDGE_LOOP ( 'NONE', ( #892, #403, #541, #670 ) ) ;
#337 = CARTESIAN_POINT ( 'NONE',  ( -91.99999999999985789, 80.00000000000000000, -49.99999999999997868 ) ) ;
#338 = CALENDAR_DATE ( 2022, 8, 11 ) ;
#339 = FACE_OUTER_BOUND ( 'NONE', #336, .T. ) ;
#340 = ORIENTED_EDGE ( 'NONE', *, *, #407, .F. ) ;
#341 = LINE ( 'NONE', #560, #120 ) ;
#342 = LINE ( 'NONE', #4, #841 ) ;
#343 = FACE_OUTER_BOUND ( 'NONE', #573, .T. ) ;
#344 = APPROVAL_ROLE ( '' ) ;
#345 = ADVANCED_FACE ( 'NONE', ( #159 ), #218, .F. ) ;
#346 = FACE_OUTER_BOUND ( 'NONE', #876, .T. ) ;
#347 = CARTESIAN_POINT ( 'NONE',  ( -91.00000000000000000, 28.00000000000000000, 1.214306433183765124E-14 ) ) ;
#348 = AXIS2_PLACEMENT_3D ( 'NONE', #241, #812, #606 ) ;
#349 = ORIENTED_EDGE ( 'NONE', *, *, #588, .F. ) ;
#350 = DIRECTION ( 'NONE',  ( 0.000000000000000000, 1.000000000000000000, -0.000000000000000000 ) ) ;
#351 = AXIS2_PLACEMENT_3D ( 'NONE', #537, #820, #752 ) ;
#352 = DIRECTION ( 'NONE',  ( -1.000000000000000000, 0.000000000000000000, 1.334402673828313339E-16 ) ) ;
#353 = ORIENTED_EDGE ( 'NONE', *, *, #211, .F. ) ;
#354 = ADVANCED_FACE ( 'NONE', ( #383 ), #497, .T. ) ;
#355 = CC_DESIGN_APPROVAL ( #328, ( #108 ) ) ;
#356 = EDGE_LOOP ( 'NONE', ( #216, #458, #766, #712 ) ) ;
#357 = DIRECTION ( 'NONE',  ( 0.000000000000000000, 0.000000000000000000, 1.000000000000000000 ) ) ;
#358 = CARTESIAN_POINT ( 'NONE',  ( -89.00000000000000000, 11.00000000000000000, 52.00000000000000000 ) ) ;
#359 = VERTEX_POINT ( 'NONE', #446 ) ;
#360 = AXIS2_PLACEMENT_3D ( 'NONE', #720, #583, #732 ) ;
#361 = DIRECTION ( 'NONE',  ( 0.000000000000000000, 1.000000000000000000, 0.000000000000000000 ) ) ;
#362 = VECTOR ( 'NONE', #42, 1000.000000000000000 ) ;
#363 = DIRECTION ( 'NONE',  ( 1.334402673828313339E-16, 0.000000000000000000, 1.000000000000000000 ) ) ;
#364 = VECTOR ( 'NONE', #781, 1000.000000000000000 ) ;
#365 = CARTESIAN_POINT ( 'NONE',  ( 89.00000000000000000, 28.00000000000000000, -1.187618379707198788E-14 ) ) ;
#366 = EDGE_LOOP ( 'NONE', ( #759, #532, #639, #710 ) ) ;
#367 = EDGE_CURVE ( 'NONE', #472, #526, #514, .T. ) ;
#368 = DIRECTION ( 'NONE',  ( -1.000000000000000000, 0.000000000000000000, -0.000000000000000000 ) ) ;
#369 = DIRECTION ( 'NONE',  ( 0.000000000000000000, 0.000000000000000000, 1.000000000000000000 ) ) ;
#370 = PLANE ( 'NONE',  #768 ) ;
#371 = CARTESIAN_POINT ( 'NONE',  ( -89.00000000000002842, 73.00000000000000000, 26.00000000000000000 ) ) ;
#372 = CYLINDRICAL_SURFACE ( 'NONE', #114, 17.00000000000000000 ) ;
#373 = DIRECTION ( 'NONE',  ( 0.000000000000000000, -0.000000000000000000, 1.000000000000000000 ) ) ;
#374 = DIRECTION ( 'NONE',  ( -1.000000000000000000, -0.000000000000000000, -0.000000000000000000 ) ) ;
#375 = LINE ( 'NONE', #531, #644 ) ;
#376 = ORIENTED_EDGE ( 'NONE', *, *, #533, .T. ) ;
#377 = LINE ( 'NONE', #35, #142 ) ;
#378 = ORIENTED_EDGE ( 'NONE', *, *, #215, .T. ) ;
#379 = DIRECTION ( 'NONE',  ( 1.000000000000000000, 0.000000000000000000, 0.000000000000000000 ) ) ;
#380 = PLANE ( 'NONE',  #209 ) ;
#381 = VERTEX_POINT ( 'NONE', #97 ) ;
#382 = EDGE_LOOP ( 'NONE', ( #825, #173, #455, #562, #673, #413, #499, #550 ) ) ;
#383 = FACE_OUTER_BOUND ( 'NONE', #867, .T. ) ;
#384 = CIRCLE ( 'NONE', #118, 22.99999999999999645 ) ;
#385 = EDGE_CURVE ( 'NONE', #299, #54, #377, .T. ) ;
#386 = LINE ( 'NONE', #389, #362 ) ;
#387 = APPROVAL_PERSON_ORGANIZATION ( #828, #393, #344 ) ;
#388 = ORIENTED_EDGE ( 'NONE', *, *, #474, .T. ) ;
#389 = CARTESIAN_POINT ( 'NONE',  ( -91.99999999999984368, 73.00000000000000000, 50.00000000000002132 ) ) ;
#390 = ORIENTED_EDGE ( 'NONE', *, *, #683, .F. ) ;
#391 = VECTOR ( 'NONE', #451, 1000.000000000000000 ) ;
#392 = VECTOR ( 'NONE', #843, 1000.000000000000000 ) ;
#393 = APPROVAL ( #885, '未指定' ) ;
#394 = FACE_OUTER_BOUND ( 'NONE', #648, .T. ) ;
#395 = EDGE_CURVE ( 'NONE', #131, #273, #869, .T. ) ;
#396 = ORIENTED_EDGE ( 'NONE', *, *, #461, .T. ) ;
#397 = VECTOR ( 'NONE', #528, 1000.000000000000000 ) ;
#398 = PERSON_AND_ORGANIZATION ( #762, #694 ) ;
#399 = DIRECTION ( 'NONE',  ( 1.000000000000000000, 0.000000000000000000, -0.000000000000000000 ) ) ;
#400 = CALENDAR_DATE ( 2022, 8, 11 ) ;
#401 = PLANE ( 'NONE',  #37 ) ;
#402 = AXIS2_PLACEMENT_3D ( 'NONE', #564, #7, #281 ) ;
#403 = ORIENTED_EDGE ( 'NONE', *, *, #715, .T. ) ;
#404 = CARTESIAN_POINT ( 'NONE',  ( -89.00000000000000000, 11.00000000000000000, 52.00000000000000000 ) ) ;
#405 = PERSON_AND_ORGANIZATION_ROLE ( 'creator' ) ;
#406 = DIRECTION ( 'NONE',  ( -0.000000000000000000, -1.000000000000000000, -0.000000000000000000 ) ) ;
#407 = EDGE_CURVE ( 'NONE', #844, #685, #736, .T. ) ;
#408 = CIRCLE ( 'NONE', #688, 17.00000000000000000 ) ;
#409 = ORIENTED_EDGE ( 'NONE', *, *, #68, .T. ) ;
#410 = CARTESIAN_POINT ( 'NONE',  ( 89.00000000000000000, 12.00000000000000000, -1.187618379707198788E-14 ) ) ;
#411 = CALENDAR_DATE ( 2022, 8, 11 ) ;
#412 = AXIS2_PLACEMENT_3D ( 'NONE', #347, #58, #617 ) ;
#413 = ORIENTED_EDGE ( 'NONE', *, *, #367, .F. ) ;
#414 = DIRECTION ( 'NONE',  ( 0.000000000000000000, 0.000000000000000000, 1.000000000000000000 ) ) ;
#415 = ORIENTED_EDGE ( 'NONE', *, *, #611, .T. ) ;
#416 = EDGE_CURVE ( 'NONE', #763, #201, #633, .T. ) ;
#417 = CARTESIAN_POINT ( 'NONE',  ( -89.00000000000001421, 2.999999999999999112, -52.00000000000000000 ) ) ;
#418 =( LENGTH_UNIT ( ) NAMED_UNIT ( * ) SI_UNIT ( .MILLI., .METRE. ) );
#419 = EDGE_CURVE ( 'NONE', #178, #299, #83, .T. ) ;
#420 = APPROVAL ( #608, '未指定' ) ;
#421 = DIRECTION ( 'NONE',  ( -1.000000000000000000, -0.000000000000000000, 0.000000000000000000 ) ) ;
#422 = PLANE ( 'NONE',  #412 ) ;
#423 = EDGE_CURVE ( 'NONE', #299, #481, #565, .T. ) ;
#424 = CIRCLE ( 'NONE', #536, 23.00000000000000711 ) ;
#425 = ORIENTED_EDGE ( 'NONE', *, *, #805, .T. ) ;
#426 = CARTESIAN_POINT ( 'NONE',  ( 88.99999999999998579, 11.00000000000000000, -52.00000000000000000 ) ) ;
#427 = CARTESIAN_POINT ( 'NONE',  ( -91.99999999999984368, 73.00000000000000000, 50.00000000000002132 ) ) ;
#428 = CARTESIAN_POINT ( 'NONE',  ( 115.0000000000000000, 80.00000000000000000, -26.99999999999982947 ) ) ;
#429 = CARTESIAN_POINT ( 'NONE',  ( -43.00000000000000711, 2.999999999999998668, 52.00000000000000000 ) ) ;
#430 = VERTEX_POINT ( 'NONE', #147 ) ;
#431 = CARTESIAN_POINT ( 'NONE',  ( -89.00000000000002842, 80.00000000000000000, 26.00000000000000000 ) ) ;
#432 = EDGE_LOOP ( 'NONE', ( #311, #425, #598, #889 ) ) ;
#433 = DIRECTION ( 'NONE',  ( 0.000000000000000000, 1.000000000000000000, 0.000000000000000000 ) ) ;
#434 = CARTESIAN_POINT ( 'NONE',  ( 92.00000000000001421, 73.00000000000000000, 27.00000000000002487 ) ) ;
#435 = CARTESIAN_POINT ( 'NONE',  ( -91.99999999999985789, 73.00000000000000000, -49.99999999999997868 ) ) ;
#436 = VERTEX_POINT ( 'NONE', #846 ) ;
#437 = VERTEX_POINT ( 'NONE', #637 ) ;
#438 = CARTESIAN_POINT ( 'NONE',  ( -43.00000000000000711, 2.999999999999998668, -52.00002500000000083 ) ) ;
#439 = DIRECTION ( 'NONE',  ( 0.000000000000000000, -0.000000000000000000, 1.000000000000000000 ) ) ;
#440 = ORIENTED_EDGE ( 'NONE', *, *, #527, .T. ) ;
#441 = CARTESIAN_POINT ( 'NONE',  ( -43.00000000000000711, 2.999999999999998668, -52.00002500000000083 ) ) ;
#442 = EDGE_LOOP ( 'NONE', ( #634, #320, #225, #107 ) ) ;
#443 = CC_DESIGN_SECURITY_CLASSIFICATION ( #682, ( #108 ) ) ;
#444 = DIRECTION ( 'NONE',  ( -0.000000000000000000, -1.000000000000000000, -0.000000000000000000 ) ) ;
#445 = PLANE ( 'NONE',  #199 ) ;
#446 = CARTESIAN_POINT ( 'NONE',  ( 89.00000000000000000, 20.99999999999999645, -1.187618379707198788E-14 ) ) ;
#447 = AXIS2_PLACEMENT_3D ( 'NONE', #698, #77, #577 ) ;
#448 = VECTOR ( 'NONE', #361, 1000.000000000000000 ) ;
#449 = EDGE_LOOP ( 'NONE', ( #456, #798, #661, #105 ) ) ;
#450 = CARTESIAN_POINT ( 'NONE',  ( 91.99999999999987210, 73.00000000000000000, 50.00000000000002842 ) ) ;
#451 = DIRECTION ( 'NONE',  ( -1.000000000000000000, 0.000000000000000000, 0.000000000000000000 ) ) ;
#452 = EDGE_CURVE ( 'NONE', #138, #753, #157, .T. ) ;
#453 = DIRECTION ( 'NONE',  ( -1.000000000000000000, -0.000000000000000000, -0.000000000000000000 ) ) ;
#454 = CARTESIAN_POINT ( 'NONE',  ( 41.99999999999999289, 2.999999999999998668, 52.00000000000000000 ) ) ;
#455 = ORIENTED_EDGE ( 'NONE', *, *, #461, .F. ) ;
#456 = ORIENTED_EDGE ( 'NONE', *, *, #507, .F. ) ;
#457 = VECTOR ( 'NONE', #547, 1000.000000000000000 ) ;
#458 = ORIENTED_EDGE ( 'NONE', *, *, #624, .T. ) ;
#459 = ORIENTED_EDGE ( 'NONE', *, *, #474, .F. ) ;
#460 = CARTESIAN_POINT ( 'NONE',  ( -91.99999999999984368, 73.00000000000000000, 50.00000000000002132 ) ) ;
#461 = EDGE_CURVE ( 'NONE', #167, #201, #301, .T. ) ;
#462 = LOCAL_TIME ( 8, 5, 25.00000000000000000, #195 ) ;
#463 = CC_DESIGN_PERSON_AND_ORGANIZATION_ASSIGNMENT ( #261, #65, ( #108 ) ) ;
#464 = ADVANCED_FACE ( 'NONE', ( #701 ), #501, .T. ) ;
#465 = CIRCLE ( 'NONE', #727, 23.00000000000000711 ) ;
#466 = CARTESIAN_POINT ( 'NONE',  ( -115.0000000000000142, 73.00000000000000000, -26.99999999999981881 ) ) ;
#467 = COORDINATED_UNIVERSAL_TIME_OFFSET ( 8, 0, .AHEAD. ) ;
#468 = CARTESIAN_POINT ( 'NONE',  ( 88.99999999999998579, 11.00000000000000000, -26.00000000000001421 ) ) ;
#469 = EDGE_LOOP ( 'NONE', ( #860, #109, #26, #789 ) ) ;
#470 = APPROVAL_ROLE ( '' ) ;
#471 = FACE_OUTER_BOUND ( 'NONE', #188, .T. ) ;
#472 = VERTEX_POINT ( 'NONE', #358 ) ;
#473 = DIRECTION ( 'NONE',  ( 0.000000000000000000, -0.000000000000000000, 1.000000000000000000 ) ) ;
#474 = EDGE_CURVE ( 'NONE', #274, #274, #408, .T. ) ;
#475 = APPLICATION_PROTOCOL_DEFINITION ( 'international standard', 'config_control_design', 1994, #643 ) ;
#476 = CARTESIAN_POINT ( 'NONE',  ( -89.00000000000002842, 80.00000000000000000, -26.00000000000000000 ) ) ;
#477 = VECTOR ( 'NONE', #92, 1000.000000000000000 ) ;
#478 = ORIENTED_EDGE ( 'NONE', *, *, #284, .T. ) ;
#479 = CARTESIAN_POINT ( 'NONE',  ( -89.00000000000001421, 11.00000000000000000, -52.00000000000000000 ) ) ;
#480 = DATE_AND_TIME ( #338, #620 ) ;
#481 = VERTEX_POINT ( 'NONE', #641 ) ;
#482 = FACE_BOUND ( 'NONE', #356, .T. ) ;
#483 = VECTOR ( 'NONE', #290, 1000.000000000000000 ) ;
#484 = EDGE_LOOP ( 'NONE', ( #593, #47, #693, #884 ) ) ;
#485 = ADVANCED_FACE ( 'NONE', ( #578 ), #21, .T. ) ;
#486 = LINE ( 'NONE', #621, #571 ) ;
#487 = UNCERTAINTY_MEASURE_WITH_UNIT (LENGTH_MEASURE( 1.000000000000000082E-05 ), #418, 'distance_accuracy_value', 'NONE');
#488 = EDGE_CURVE ( 'NONE', #436, #667, #506, .T. ) ;
#489 = FACE_OUTER_BOUND ( 'NONE', #66, .T. ) ;
#490 = CARTESIAN_POINT ( 'NONE',  ( -91.99999999999985789, 73.00000000000000000, -49.99999999999997868 ) ) ;
#491 = VECTOR ( 'NONE', #374, 1000.000000000000000 ) ;
#492 = ORIENTED_EDGE ( 'NONE', *, *, #215, .F. ) ;
#493 = LINE ( 'NONE', #143, #502 ) ;
#494 = LINE ( 'NONE', #511, #601 ) ;
#495 = LINE ( 'NONE', #851, #448 ) ;
#496 = CARTESIAN_POINT ( 'NONE',  ( -91.99999999999984368, 73.00000000000000000, 50.00000000000002132 ) ) ;
#497 = PLANE ( 'NONE',  #609 ) ;
#498 = ORIENTED_EDGE ( 'NONE', *, *, #719, .F. ) ;
#499 = ORIENTED_EDGE ( 'NONE', *, *, #805, .F. ) ;
#500 = CARTESIAN_POINT ( 'NONE',  ( -43.00000000000000711, 11.00000000000000000, -52.00000000000000000 ) ) ;
#501 = PLANE ( 'NONE',  #772 ) ;
#502 = VECTOR ( 'NONE', #858, 1000.000000000000000 ) ;
#503 = DIRECTION ( 'NONE',  ( -1.000000000000000000, 0.000000000000000000, -0.000000000000000000 ) ) ;
#504 = ORIENTED_EDGE ( 'NONE', *, *, #715, .F. ) ;
#505 = DIRECTION ( 'NONE',  ( -1.000000000000000000, -0.000000000000000000, 1.334402673828313586E-16 ) ) ;
#506 = LINE ( 'NONE', #584, #250 ) ;
#507 = EDGE_CURVE ( 'NONE', #436, #273, #494, .T. ) ;
#508 = ORIENTED_EDGE ( 'NONE', *, *, #881, .T. ) ;
#509 = DIRECTION ( 'NONE',  ( 2.569960705150840189E-16, 0.000000000000000000, 1.000000000000000000 ) ) ;
#510 = LINE ( 'NONE', #170, #491 ) ;
#511 = CARTESIAN_POINT ( 'NONE',  ( 41.99999999999999289, 0.000000000000000000, 52.00000000000000000 ) ) ;
#512 = ADVANCED_FACE ( 'NONE', ( #296 ), #567, .F. ) ;
#513 = VECTOR ( 'NONE', #406, 1000.000000000000000 ) ;
#514 = LINE ( 'NONE', #174, #568 ) ;
#515 = ADVANCED_FACE ( 'NONE', ( #285, #210 ), #372, .T. ) ;
#516 = DIRECTION ( 'NONE',  ( 0.000000000000000000, 0.000000000000000000, -1.000000000000000000 ) ) ;
#517 = CARTESIAN_POINT ( 'NONE',  ( -89.00000000000001421, 11.00000000000000000, -52.00000000000000000 ) ) ;
#518 = ORIENTED_EDGE ( 'NONE', *, *, #861, .T. ) ;
#519 = VERTEX_POINT ( 'NONE', #796 ) ;
#520 = CARTESIAN_POINT ( 'NONE',  ( -89.00000000000002842, 80.00000000000000000, 26.00000000000000000 ) ) ;
#521 = VECTOR ( 'NONE', #664, 1000.000000000000000 ) ;
#522 = DIRECTION ( 'NONE',  ( 0.000000000000000000, 0.000000000000000000, 1.000000000000000000 ) ) ;
#523 = CARTESIAN_POINT ( 'NONE',  ( 91.00000000000000000, 12.00000000000000000, -1.214306433183765124E-14 ) ) ;
#524 = VERTEX_POINT ( 'NONE', #496 ) ;
#525 = CARTESIAN_POINT ( 'NONE',  ( 91.00000000000000000, 12.00000000000000000, -1.214306433183765124E-14 ) ) ;
#526 = VERTEX_POINT ( 'NONE', #714 ) ;
#527 = EDGE_CURVE ( 'NONE', #667, #707, #18, .T. ) ;
#528 = DIRECTION ( 'NONE',  ( 1.000000000000000000, 0.000000000000000000, 0.000000000000000000 ) ) ;
#529 = AXIS2_PLACEMENT_3D ( 'NONE', #130, #691, #473 ) ;
#530 = AXIS2_PLACEMENT_3D ( 'NONE', #717, #308, #857 ) ;
#531 = CARTESIAN_POINT ( 'NONE',  ( 89.00000000000004263, 80.00000000000000000, 26.00000000000000000 ) ) ;
#532 = ORIENTED_EDGE ( 'NONE', *, *, #605, .F. ) ;
#533 = EDGE_CURVE ( 'NONE', #219, #481, #424, .T. ) ;
#534 = PERSON_AND_ORGANIZATION_ROLE ( 'classification_officer' ) ;
#535 = AXIS2_PLACEMENT_3D ( 'NONE', #434, #214, #855 ) ;
#536 = AXIS2_PLACEMENT_3D ( 'NONE', #307, #152, #369 ) ;
#537 = CARTESIAN_POINT ( 'NONE',  ( -89.00000000000001421, 11.00000000000000000, -52.00000000000000000 ) ) ;
#538 = EDGE_LOOP ( 'NONE', ( #249 ) ) ;
#539 = CARTESIAN_POINT ( 'NONE',  ( -91.00000000000000000, 28.00000000000000000, 7.000000000000012434 ) ) ;
#540 = EDGE_CURVE ( 'NONE', #113, #181, #859, .T. ) ;
#541 = ORIENTED_EDGE ( 'NONE', *, *, #416, .T. ) ;
#542 = VECTOR ( 'NONE', #551, 1000.000000000000000 ) ;
#543 = PERSON_AND_ORGANIZATION ( #762, #694 ) ;
#544 = FACE_OUTER_BOUND ( 'NONE', #782, .T. ) ;
#545 = EDGE_CURVE ( 'NONE', #555, #555, #6, .T. ) ;
#546 = ORIENTED_EDGE ( 'NONE', *, *, #533, .F. ) ;
#547 = DIRECTION ( 'NONE',  ( -1.000000000000000000, -0.000000000000000000, -0.000000000000000000 ) ) ;
#548 = SECURITY_CLASSIFICATION_LEVEL ( 'unclassified' ) ;
#549 = VECTOR ( 'NONE', #784, 1000.000000000000000 ) ;
#550 = ORIENTED_EDGE ( 'NONE', *, *, #322, .F. ) ;
#551 = DIRECTION ( 'NONE',  ( -1.000000000000000000, -0.000000000000000000, -0.000000000000000000 ) ) ;
#552 = APPROVAL_DATE_TIME ( #275, #420 ) ;
#553 = EDGE_CURVE ( 'NONE', #753, #437, #59, .T. ) ;
#554 = ORIENTED_EDGE ( 'NONE', *, *, #868, .T. ) ;
#555 = VERTEX_POINT ( 'NONE', #539 ) ;
#556 = CC_DESIGN_PERSON_AND_ORGANIZATION_ASSIGNMENT ( #50, #628, ( #722 ) ) ;
#557 = EDGE_CURVE ( 'NONE', #181, #149, #183, .T. ) ;
#558 = COORDINATED_UNIVERSAL_TIME_OFFSET ( 8, 0, .AHEAD. ) ;
#559 = CARTESIAN_POINT ( 'NONE',  ( -115.0000000000000142, 73.00000000000000000, 26.99999999999985434 ) ) ;
#560 = CARTESIAN_POINT ( 'NONE',  ( 115.0000000000000000, 73.00000000000000000, -26.99999999999981881 ) ) ;
#561 = LOCAL_TIME ( 8, 5, 25.00000000000000000, #819 ) ;
#562 = ORIENTED_EDGE ( 'NONE', *, *, #588, .T. ) ;
#563 = ORIENTED_EDGE ( 'NONE', *, *, #553, .T. ) ;
#564 = CARTESIAN_POINT ( 'NONE',  ( 89.00000000000000000, 11.00000000000000000, 52.00000000000000000 ) ) ;
#565 = LINE ( 'NONE', #144, #176 ) ;
#566 = LINE ( 'NONE', #500, #549 ) ;
#567 = PLANE ( 'NONE',  #818 ) ;
#568 = VECTOR ( 'NONE', #728, 1000.000000000000000 ) ;
#569 = FACE_OUTER_BOUND ( 'NONE', #666, .T. ) ;
#570 = DIRECTION ( 'NONE',  ( -2.569960705150840189E-16, -0.000000000000000000, -1.000000000000000000 ) ) ;
#571 = VECTOR ( 'NONE', #8, 1000.000000000000000 ) ;
#572 = DIRECTION ( 'NONE',  ( -1.000000000000000000, 0.000000000000000000, 1.334402673828313339E-16 ) ) ;
#573 = EDGE_LOOP ( 'NONE', ( #734, #746, #690, #874 ) ) ;
#574 = DIRECTION ( 'NONE',  ( 0.000000000000000000, 0.000000000000000000, 1.000000000000000000 ) ) ;
#575 = CC_DESIGN_APPROVAL ( #420, ( #682 ) ) ;
#576 = EDGE_CURVE ( 'NONE', #149, #685, #375, .T. ) ;
#577 = DIRECTION ( 'NONE',  ( 0.000000000000000000, 0.000000000000000000, 1.000000000000000000 ) ) ;
#578 = FACE_OUTER_BOUND ( 'NONE', #484, .T. ) ;
#579 = AXIS2_PLACEMENT_3D ( 'NONE', #842, #433, #713 ) ;
#580 = CYLINDRICAL_SURFACE ( 'NONE', #530, 23.00000000000000355 ) ;
#581 = VERTEX_POINT ( 'NONE', #257 ) ;
#582 = ADVANCED_FACE ( 'NONE', ( #877, #112 ), #445, .F. ) ;
#583 = DIRECTION ( 'NONE',  ( -1.000000000000000000, -0.000000000000000000, 1.334402673828313339E-16 ) ) ;
#584 = CARTESIAN_POINT ( 'NONE',  ( 41.99999999999999289, 2.999999999999998668, 52.00000000000000000 ) ) ;
#585 = VECTOR ( 'NONE', #817, 1000.000000000000000 ) ;
#586 = EDGE_CURVE ( 'NONE', #381, #264, #48, .T. ) ;
#587 = DIRECTION ( 'NONE',  ( -1.000000000000000000, 0.000000000000000000, -0.000000000000000000 ) ) ;
#588 = EDGE_CURVE ( 'NONE', #167, #659, #590, .T. ) ;
#589 = CARTESIAN_POINT ( 'NONE',  ( 91.99999999999987210, 80.00000000000000000, 50.00000000000002842 ) ) ;
#590 = LINE ( 'NONE', #594, #716 ) ;
#591 = CIRCLE ( 'NONE', #23, 9.000000000000000000 ) ;
#592 = FACE_OUTER_BOUND ( 'NONE', #442, .T. ) ;
#593 = ORIENTED_EDGE ( 'NONE', *, *, #775, .F. ) ;
#594 = CARTESIAN_POINT ( 'NONE',  ( -89.00000000000001421, 11.00000000000000000, -52.00000000000000000 ) ) ;
#595 = ORIENTED_EDGE ( 'NONE', *, *, #153, .F. ) ;
#596 = FACE_OUTER_BOUND ( 'NONE', #737, .T. ) ;
#597 = CIRCLE ( 'NONE', #318, 7.000000000000000000 ) ;
#598 = ORIENTED_EDGE ( 'NONE', *, *, #683, .T. ) ;
#599 = FACE_OUTER_BOUND ( 'NONE', #672, .T. ) ;
#600 = ORIENTED_EDGE ( 'NONE', *, *, #545, .F. ) ;
#601 = VECTOR ( 'NONE', #785, 1000.000000000000000 ) ;
#602 = VECTOR ( 'NONE', #235, 1000.000000000000000 ) ;
#603 = CARTESIAN_POINT ( 'NONE',  ( 115.0000000000000000, 73.00000000000000000, -26.99999999999982947 ) ) ;
#604 = ORIENTED_EDGE ( 'NONE', *, *, #385, .F. ) ;
#605 = EDGE_CURVE ( 'NONE', #524, #437, #658, .T. ) ;
#606 = DIRECTION ( 'NONE',  ( 0.000000000000000000, 0.000000000000000000, -1.000000000000000000 ) ) ;
#607 = EDGE_LOOP ( 'NONE', ( #600 ) ) ;
#608 = APPROVAL_STATUS ( 'not_yet_approved' ) ;
#609 = AXIS2_PLACEMENT_3D ( 'NONE', #723, #91, #237 ) ;
#610 = CARTESIAN_POINT ( 'NONE',  ( 89.00000000000004263, 80.00000000000000000, -26.00000000000000000 ) ) ;
#611 = EDGE_CURVE ( 'NONE', #834, #794, #808, .T. ) ;
#612 = CARTESIAN_POINT ( 'NONE',  ( 89.00000000000000000, 11.00000000000000000, 52.00000000000000000 ) ) ;
#613 = EDGE_CURVE ( 'NONE', #38, #255, #749, .T. ) ;
#614 = DATE_AND_TIME ( #411, #462 ) ;
#615 = LINE ( 'NONE', #886, #778 ) ;
#616 = ORIENTED_EDGE ( 'NONE', *, *, #611, .F. ) ;
#617 = DIRECTION ( 'NONE',  ( 1.334402673828313339E-16, 0.000000000000000000, 1.000000000000000000 ) ) ;
#618 = APPROVAL_DATE_TIME ( #480, #328 ) ;
#619 = EDGE_LOOP ( 'NONE', ( #184, #718, #192, #604, #325, #236, #269, #327 ) ) ;
#620 = LOCAL_TIME ( 8, 5, 25.00000000000000000, #200 ) ;
#621 = CARTESIAN_POINT ( 'NONE',  ( 91.99999999999982947, 73.00000000000000000, -49.99999999999997868 ) ) ;
#622 = ORIENTED_EDGE ( 'NONE', *, *, #46, .T. ) ;
#623 = PERSON_AND_ORGANIZATION ( #762, #694 ) ;
#624 = EDGE_CURVE ( 'NONE', #783, #113, #883, .T. ) ;
#625 = ORIENTED_EDGE ( 'NONE', *, *, #837, .F. ) ;
#626 = CARTESIAN_POINT ( 'NONE',  ( -91.00000000000000000, 28.00000000000000000, 17.00000000000001421 ) ) ;
#627 = EDGE_CURVE ( 'NONE', #271, #659, #34, .T. ) ;
#628 = PERSON_AND_ORGANIZATION_ROLE ( 'design_owner' ) ;
#629 = PLANE ( 'NONE',  #402 ) ;
#630 = CARTESIAN_POINT ( 'NONE',  ( 89.00000000000002842, 73.00000000000000000, -26.00000000000000000 ) ) ;
#631 = ORIENTED_EDGE ( 'NONE', *, *, #164, .T. ) ;
#632 = FACE_OUTER_BOUND ( 'NONE', #44, .T. ) ;
#633 = LINE ( 'NONE', #852, #278 ) ;
#634 = ORIENTED_EDGE ( 'NONE', *, *, #557, .F. ) ;
#635 = CARTESIAN_POINT ( 'NONE',  ( 88.99999999999998579, 11.00000000000000000, -52.00000000000000000 ) ) ;
#636 = ADVANCED_FACE ( 'NONE', ( #733 ), #380, .T. ) ;
#637 = CARTESIAN_POINT ( 'NONE',  ( -91.99999999999984368, 80.00000000000000000, 50.00000000000002132 ) ) ;
#638 = EDGE_CURVE ( 'NONE', #524, #178, #386, .T. ) ;
#639 = ORIENTED_EDGE ( 'NONE', *, *, #638, .T. ) ;
#640 = CARTESIAN_POINT ( 'NONE',  ( -89.00000000000002842, 73.00000000000000000, -26.00000000000000000 ) ) ;
#641 = CARTESIAN_POINT ( 'NONE',  ( 115.0000000000000142, 80.00000000000000000, 26.99999999999986144 ) ) ;
#642 = AXIS2_PLACEMENT_3D ( 'NONE', #75, #774, #228 ) ;
#643 = APPLICATION_CONTEXT ( 'configuration controlled 3d designs of mechanical parts and assemblies' ) ;
#644 = VECTOR ( 'NONE', #182, 1000.000000000000000 ) ;
#645 = DIRECTION ( 'NONE',  ( -0.000000000000000000, 1.000000000000000000, 0.000000000000000000 ) ) ;
#646 = DIRECTION ( 'NONE',  ( -0.000000000000000000, 0.000000000000000000, 1.000000000000000000 ) ) ;
#647 = DIRECTION ( 'NONE',  ( 0.000000000000000000, 1.000000000000000000, 0.000000000000000000 ) ) ;
#648 = EDGE_LOOP ( 'NONE', ( #787, #878, #660, #508 ) ) ;
#649 = LINE ( 'NONE', #793, #79 ) ;
#650 = PRODUCT_RELATED_PRODUCT_CATEGORY ( 'detail', '', ( #722 ) ) ;
#651 = CARTESIAN_POINT ( 'NONE',  ( -89.00000000000000000, 0.000000000000000000, 52.00000000000000000 ) ) ;
#652 = CARTESIAN_POINT ( 'NONE',  ( 89.00000000000000000, 0.000000000000000000, 52.00000000000000000 ) ) ;
#653 = CC_DESIGN_DATE_AND_TIME_ASSIGNMENT ( #132, #116, ( #229 ) ) ;
#654 = ORIENTED_EDGE ( 'NONE', *, *, #367, .T. ) ;
#655 = ADVANCED_FACE ( 'NONE', ( #394 ), #319, .T. ) ;
#656 = PLANE ( 'NONE',  #697 ) ;
#657 = PLANE ( 'NONE',  #745 ) ;
#658 = LINE ( 'NONE', #460, #832 ) ;
#659 = VERTEX_POINT ( 'NONE', #872 ) ;
#660 = ORIENTED_EDGE ( 'NONE', *, *, #385, .T. ) ;
#661 = ORIENTED_EDGE ( 'NONE', *, *, #288, .F. ) ;
#662 = LINE ( 'NONE', #711, #305 ) ;
#663 = EDGE_LOOP ( 'NONE', ( #459 ) ) ;
#664 = DIRECTION ( 'NONE',  ( 1.334402673828313339E-16, 0.000000000000000000, 1.000000000000000000 ) ) ;
#665 = CARTESIAN_POINT ( 'NONE',  ( 89.00000000000000000, 11.00000000000000000, 52.00000000000000000 ) ) ;
#666 = EDGE_LOOP ( 'NONE', ( #882, #625, #95, #415 ) ) ;
#667 = VERTEX_POINT ( 'NONE', #454 ) ;
#668 = VECTOR ( 'NONE', #122, 1000.000000000000000 ) ;
#669 = CARTESIAN_POINT ( 'NONE',  ( 91.00000000000000000, 12.00000000000000000, -1.214306433183765124E-14 ) ) ;
#670 = ORIENTED_EDGE ( 'NONE', *, *, #226, .F. ) ;
#671 = DIRECTION ( 'NONE',  ( 0.000000000000000000, 1.000000000000000000, 0.000000000000000000 ) ) ;
#672 = EDGE_LOOP ( 'NONE', ( #806 ) ) ;
#673 = ORIENTED_EDGE ( 'NONE', *, *, #198, .T. ) ;
#674 = EDGE_LOOP ( 'NONE', ( #492 ) ) ;
#675 = DIRECTION ( 'NONE',  ( 0.000000000000000000, 1.000000000000000000, 0.000000000000000000 ) ) ;
#676 = EDGE_CURVE ( 'NONE', #834, #381, #160, .T. ) ;
#677 = ORIENTED_EDGE ( 'NONE', *, *, #68, .F. ) ;
#678 = DIRECTION ( 'NONE',  ( 1.000000000000000000, 0.000000000000000000, -2.569960705150840189E-16 ) ) ;
#679 = ADVANCED_FACE ( 'NONE', ( #599 ), #804, .T. ) ;
#680 = APPROVAL_STATUS ( 'not_yet_approved' ) ;
#681 = DIRECTION ( 'NONE',  ( 0.000000000000000000, -0.000000000000000000, 1.000000000000000000 ) ) ;
#682 = SECURITY_CLASSIFICATION ( '', '', #548 ) ;
#683 = EDGE_CURVE ( 'NONE', #472, #844, #879, .T. ) ;
#684 = CARTESIAN_POINT ( 'NONE',  ( 89.00000000000000000, 11.00000000000000000, 25.99999999999994671 ) ) ;
#685 = VERTEX_POINT ( 'NONE', #684 ) ;
#686 = DIRECTION ( 'NONE',  ( -1.000000000000000000, 0.000000000000000000, -0.000000000000000000 ) ) ;
#687 = APPROVAL_ROLE ( '' ) ;
#688 = AXIS2_PLACEMENT_3D ( 'NONE', #780, #572, #15 ) ;
#689 = PLANE ( 'NONE',  #351 ) ;
#690 = ORIENTED_EDGE ( 'NONE', *, *, #738, .T. ) ;
#691 = DIRECTION ( 'NONE',  ( 0.000000000000000000, 1.000000000000000000, 0.000000000000000000 ) ) ;
#692 = ADVANCED_FACE ( 'NONE', ( #339 ), #401, .F. ) ;
#693 = ORIENTED_EDGE ( 'NONE', *, *, #329, .T. ) ;
#694 = ORGANIZATION ( '未指定', '未指定', '' ) ;
#695 = FACE_OUTER_BOUND ( 'NONE', #619, .T. ) ;
#696 = CARTESIAN_POINT ( 'NONE',  ( 0.000000000000000000, 0.000000000000000000, 0.000000000000000000 ) ) ;
#697 = AXIS2_PLACEMENT_3D ( 'NONE', #435, #168, #587 ) ;
#698 = CARTESIAN_POINT ( 'NONE',  ( 115.0010000000000190, 28.00000000000000000, -1.534576418929298769E-14 ) ) ;
#699 = VECTOR ( 'NONE', #747, 1000.000000000000000 ) ;
#700 = DIRECTION ( 'NONE',  ( -0.000000000000000000, -1.000000000000000000, -0.000000000000000000 ) ) ;
#701 = FACE_OUTER_BOUND ( 'NONE', #366, .T. ) ;
#702 = ORIENTED_EDGE ( 'NONE', *, *, #232, .F. ) ;
#703 = ADVANCED_FACE ( 'NONE', ( #471 ), #55, .F. ) ;
#704 = CARTESIAN_POINT ( 'NONE',  ( 92.00000000000000000, 73.00000000000000000, -26.99999999999998224 ) ) ;
#705 = DIRECTION ( 'NONE',  ( 0.000000000000000000, 0.000000000000000000, -1.000000000000000000 ) ) ;
#706 = EDGE_CURVE ( 'NONE', #98, #685, #750, .T. ) ;
#707 = VERTEX_POINT ( 'NONE', #335 ) ;
#708 = DIRECTION ( 'NONE',  ( 0.000000000000000000, 0.000000000000000000, -1.000000000000000000 ) ) ;
#709 = CARTESIAN_POINT ( 'NONE',  ( -115.0000000000000142, 73.00000000000000000, 26.99999999999985434 ) ) ;
#710 = ORIENTED_EDGE ( 'NONE', *, *, #153, .T. ) ;
#711 = CARTESIAN_POINT ( 'NONE',  ( -115.0000000000000142, 73.00000000000000000, -26.99999999999981881 ) ) ;
#712 = ORIENTED_EDGE ( 'NONE', *, *, #557, .T. ) ;
#713 = DIRECTION ( 'NONE',  ( 0.000000000000000000, 0.000000000000000000, 1.000000000000000000 ) ) ;
#714 = CARTESIAN_POINT ( 'NONE',  ( -89.00000000000000000, 0.000000000000000000, 52.00000000000000000 ) ) ;
#715 = EDGE_CURVE ( 'NONE', #783, #763, #51, .T. ) ;
#716 = VECTOR ( 'NONE', #40, 1000.000000000000000 ) ;
#717 = CARTESIAN_POINT ( 'NONE',  ( 92.00000000000000000, 73.00000000000000000, -26.99999999999998224 ) ) ;
#718 = ORIENTED_EDGE ( 'NONE', *, *, #767, .F. ) ;
#719 = EDGE_CURVE ( 'NONE', #707, #519, #615, .T. ) ;
#720 = CARTESIAN_POINT ( 'NONE',  ( -89.00000000000000000, 28.00000000000000000, 1.187618379707198946E-14 ) ) ;
#721 = DIRECTION ( 'NONE',  ( 0.000000000000000000, 1.000000000000000000, 0.000000000000000000 ) ) ;
#722 = PRODUCT ( '02651_index_3', '02651_index_3', '', ( #334 ) ) ;
#723 = CARTESIAN_POINT ( 'NONE',  ( 89.00000000000002842, 80.00000000000000000, 26.00000000000000000 ) ) ;
#724 = ORIENTED_EDGE ( 'NONE', *, *, #676, .T. ) ;
#725 = LINE ( 'NONE', #165, #521 ) ;
#726 = DIRECTION ( 'NONE',  ( 0.000000000000000000, 1.000000000000000000, 0.000000000000000000 ) ) ;
#727 = AXIS2_PLACEMENT_3D ( 'NONE', #704, #350, #708 ) ;
#728 = DIRECTION ( 'NONE',  ( -0.000000000000000000, -1.000000000000000000, -0.000000000000000000 ) ) ;
#729 = ORIENTED_EDGE ( 'NONE', *, *, #788, .T. ) ;
#730 = ORIENTED_EDGE ( 'NONE', *, *, #507, .T. ) ;
#731 = MANIFOLD_SOLID_BREP ( '拉伸21', #53 ) ;
#732 = DIRECTION ( 'NONE',  ( 0.000000000000000000, 0.000000000000000000, -1.000000000000000000 ) ) ;
#733 = FACE_OUTER_BOUND ( 'NONE', #866, .T. ) ;
#734 = ORIENTED_EDGE ( 'NONE', *, *, #553, .F. ) ;
#735 = ORIENTED_EDGE ( 'NONE', *, *, #627, .T. ) ;
#736 = LINE ( 'NONE', #103, #364 ) ;
#737 = EDGE_LOOP ( 'NONE', ( #518 ) ) ;
#738 = EDGE_CURVE ( 'NONE', #138, #524, #384, .T. ) ;
#739 = DIRECTION ( 'NONE',  ( 1.000000000000000000, 0.000000000000000000, -1.334402673828313339E-16 ) ) ;
#740 = VECTOR ( 'NONE', #5, 1000.000000000000000 ) ;
#741 = ORIENTED_EDGE ( 'NONE', *, *, #298, .T. ) ;
#742 = ADVANCED_BREP_SHAPE_REPRESENTATION ( '02651_index_3', ( #731, #810 ), #243 ) ;
#743 = CARTESIAN_POINT ( 'NONE',  ( -89.00000000000002842, 73.00000000000000000, 26.00000000000000000 ) ) ;
#744 = ADVANCED_FACE ( 'NONE', ( #544 ), #689, .F. ) ;
#745 = AXIS2_PLACEMENT_3D ( 'NONE', #309, #379, #516 ) ;
#746 = ORIENTED_EDGE ( 'NONE', *, *, #452, .F. ) ;
#747 = DIRECTION ( 'NONE',  ( 1.000000000000000000, -0.000000000000000000, 0.000000000000000000 ) ) ;
#748 = ORIENTED_EDGE ( 'NONE', *, *, #284, .F. ) ;
#749 = CIRCLE ( 'NONE', #348, 23.00000000000000711 ) ;
#750 = LINE ( 'NONE', #128, #850 ) ;
#751 = EDGE_CURVE ( 'NONE', #821, #131, #824, .T. ) ;
#752 = DIRECTION ( 'NONE',  ( 1.000000000000000000, 0.000000000000000000, -0.000000000000000000 ) ) ;
#753 = VERTEX_POINT ( 'NONE', #191 ) ;
#754 = LINE ( 'NONE', #490, #542 ) ;
#755 = DESIGN_CONTEXT ( 'detailed design', #127, 'design' ) ;
#756 = VECTOR ( 'NONE', #140, 1000.000000000000000 ) ;
#757 = DATE_TIME_ROLE ( 'classification_date' ) ;
#758 = DIRECTION ( 'NONE',  ( 0.000000000000000000, 1.000000000000000000, 0.000000000000000000 ) ) ;
#759 = ORIENTED_EDGE ( 'NONE', *, *, #36, .F. ) ;
#760 = DIRECTION ( 'NONE',  ( 0.000000000000000000, 0.000000000000000000, 1.000000000000000000 ) ) ;
#761 = PERSON_AND_ORGANIZATION_ROLE ( 'creator' ) ;
#762 = PERSON ( '未指定', '未指定', '未指定', ('未指定'), ('未指定'), ('未指定') ) ;
#763 = VERTEX_POINT ( 'NONE', #468 ) ;
#764 = CARTESIAN_POINT ( 'NONE',  ( -92.00000000000001421, 73.00000000000000000, 27.00000000000002132 ) ) ;
#765 = DIRECTION ( 'NONE',  ( 0.000000000000000000, 0.000000000000000000, 1.000000000000000000 ) ) ;
#766 = ORIENTED_EDGE ( 'NONE', *, *, #540, .T. ) ;
#767 = EDGE_CURVE ( 'NONE', #807, #834, #754, .T. ) ;
#768 = AXIS2_PLACEMENT_3D ( 'NONE', #431, #22, #503 ) ;
#769 = LINE ( 'NONE', #635, #756 ) ;
#770 = CYLINDRICAL_SURFACE ( 'NONE', #76, 22.99999999999999645 ) ;
#771 = VECTOR ( 'NONE', #177, 1000.000000000000000 ) ;
#772 = AXIS2_PLACEMENT_3D ( 'NONE', #427, #222, #30 ) ;
#773 = LINE ( 'NONE', #80, #856 ) ;
#774 = DIRECTION ( 'NONE',  ( -1.000000000000000000, 0.000000000000000000, 2.569960705150840189E-16 ) ) ;
#775 = EDGE_CURVE ( 'NONE', #264, #753, #333, .T. ) ;
#776 = EDGE_LOOP ( 'NONE', ( #256, #730, #220, #321 ) ) ;
#777 = ORIENTED_EDGE ( 'NONE', *, *, #868, .F. ) ;
#778 = VECTOR ( 'NONE', #888, 1000.000000000000000 ) ;
#779 = DIRECTION ( 'NONE',  ( 1.000000000000000000, 0.000000000000000000, 0.000000000000000000 ) ) ;
#780 = CARTESIAN_POINT ( 'NONE',  ( -91.00000000000000000, 28.00000000000000000, 1.214306433183765124E-14 ) ) ;
#781 = DIRECTION ( 'NONE',  ( -1.334402673828313339E-16, -0.000000000000000000, -1.000000000000000000 ) ) ;
#782 = EDGE_LOOP ( 'NONE', ( #196, #104, #409, #242, #735, #349, #702, #829 ) ) ;
#783 = VERTEX_POINT ( 'NONE', #630 ) ;
#784 = DIRECTION ( 'NONE',  ( 0.000000000000000000, -1.000000000000000000, 0.000000000000000000 ) ) ;
#785 = DIRECTION ( 'NONE',  ( 0.000000000000000000, 0.000000000000000000, -1.000000000000000000 ) ) ;
#786 = DIRECTION ( 'NONE',  ( 1.334402673828313339E-16, 0.000000000000000000, 1.000000000000000000 ) ) ;
#787 = ORIENTED_EDGE ( 'NONE', *, *, #60, .F. ) ;
#788 = EDGE_CURVE ( 'NONE', #255, #794, #839, .T. ) ;
#789 = ORIENTED_EDGE ( 'NONE', *, *, #837, .T. ) ;
#790 = ORIENTED_EDGE ( 'NONE', *, *, #775, .T. ) ;
#791 = CARTESIAN_POINT ( 'NONE',  ( -92.00000000000001421, 73.00000000000000000, -26.99999999999998224 ) ) ;
#792 = DIRECTION ( 'NONE',  ( -0.000000000000000000, 1.000000000000000000, -0.000000000000000000 ) ) ;
#793 = CARTESIAN_POINT ( 'NONE',  ( 41.99999999999999289, 2.999999999999998668, -52.00002500000000083 ) ) ;
#794 = VERTEX_POINT ( 'NONE', #206 ) ;
#795 = FACE_OUTER_BOUND ( 'NONE', #449, .T. ) ;
#796 = CARTESIAN_POINT ( 'NONE',  ( -43.00000000000000711, 0.000000000000000000, 52.00000000000000000 ) ) ;
#797 = DIRECTION ( 'NONE',  ( 0.000000000000000000, 0.000000000000000000, 1.000000000000000000 ) ) ;
#798 = ORIENTED_EDGE ( 'NONE', *, *, #488, .T. ) ;
#799 = CARTESIAN_POINT ( 'NONE',  ( 91.99999999999982947, 80.00000000000000000, -49.99999999999997868 ) ) ;
#800 = DIRECTION ( 'NONE',  ( 0.000000000000000000, 0.000000000000000000, 1.000000000000000000 ) ) ;
#801 = VECTOR ( 'NONE', #156, 1000.000000000000000 ) ;
#802 = CARTESIAN_POINT ( 'NONE',  ( 115.0000000000000142, 73.00000000000000000, 26.99999999999986144 ) ) ;
#803 = EDGE_LOOP ( 'NONE', ( #161, #102, #631, #101, #390, #654, #175, #498 ) ) ;
#804 = PLANE ( 'NONE',  #217 ) ;
#805 = EDGE_CURVE ( 'NONE', #98, #472, #124, .T. ) ;
#806 = ORIENTED_EDGE ( 'NONE', *, *, #3, .T. ) ;
#807 = VERTEX_POINT ( 'NONE', #67 ) ;
#808 = LINE ( 'NONE', #865, #233 ) ;
#809 = EDGE_LOOP ( 'NONE', ( #180, #145, #777, #870 ) ) ;
#810 = AXIS2_PLACEMENT_3D ( 'NONE', #696, #765, #330 ) ;
#811 = EDGE_LOOP ( 'NONE', ( #378 ) ) ;
#812 = DIRECTION ( 'NONE',  ( 0.000000000000000000, 1.000000000000000000, -0.000000000000000000 ) ) ;
#813 = ADVANCED_FACE ( 'NONE', ( #822 ), #193, .F. ) ;
#814 = ORIENTED_EDGE ( 'NONE', *, *, #60, .T. ) ;
#815 = VECTOR ( 'NONE', #24, 1000.000000000000000 ) ;
#816 = ORIENTED_EDGE ( 'NONE', *, *, #198, .F. ) ;
#817 = DIRECTION ( 'NONE',  ( 0.000000000000000000, 1.000000000000000000, 0.000000000000000000 ) ) ;
#818 = AXIS2_PLACEMENT_3D ( 'NONE', #652, #721, #439 ) ;
#819 = COORDINATED_UNIVERSAL_TIME_OFFSET ( 8, 0, .AHEAD. ) ;
#820 = DIRECTION ( 'NONE',  ( 0.000000000000000000, 0.000000000000000000, 1.000000000000000000 ) ) ;
#821 = VERTEX_POINT ( 'NONE', #202 ) ;
#822 = FACE_OUTER_BOUND ( 'NONE', #803, .T. ) ;
#823 = APPROVAL_DATE_TIME ( #266, #393 ) ;
#824 = LINE ( 'NONE', #185, #668 ) ;
#825 = ORIENTED_EDGE ( 'NONE', *, *, #540, .F. ) ;
#826 = LINE ( 'NONE', #835, #863 ) ;
#827 = AXIS2_PLACEMENT_3D ( 'NONE', #148, #853, #786 ) ;
#828 = PERSON_AND_ORGANIZATION ( #762, #694 ) ;
#829 = ORIENTED_EDGE ( 'NONE', *, *, #56, .T. ) ;
#830 = CARTESIAN_POINT ( 'NONE',  ( -91.99999999999985789, 73.00000000000000000, -49.99999999999997868 ) ) ;
#831 = SHAPE_DEFINITION_REPRESENTATION ( #163, #742 ) ;
#832 = VECTOR ( 'NONE', #171, 1000.000000000000000 ) ;
#833 = ADVANCED_FACE ( 'NONE', ( #141, #893 ), #422, .T. ) ;
#834 = VERTEX_POINT ( 'NONE', #830 ) ;
#835 = CARTESIAN_POINT ( 'NONE',  ( -43.00000000000000711, 0.000000000000000000, 52.00000000000000000 ) ) ;
#836 = LINE ( 'NONE', #426, #194 ) ;
#837 = EDGE_CURVE ( 'NONE', #807, #255, #486, .T. ) ;
#838 = APPROVAL_PERSON_ORGANIZATION ( #398, #328, #687 ) ;
#839 = LINE ( 'NONE', #337, #457 ) ;
#840 = ADVANCED_FACE ( 'NONE', ( #343 ), #770, .T. ) ;
#841 = VECTOR ( 'NONE', #276, 1000.000000000000000 ) ;
#842 = CARTESIAN_POINT ( 'NONE',  ( 92.00000000000001421, 73.00000000000000000, 27.00000000000002487 ) ) ;
#843 = DIRECTION ( 'NONE',  ( 0.000000000000000000, 1.000000000000000000, 0.000000000000000000 ) ) ;
#844 = VERTEX_POINT ( 'NONE', #612 ) ;
#845 = DIRECTION ( 'NONE',  ( 0.000000000000000000, 0.000000000000000000, 1.000000000000000000 ) ) ;
#846 = CARTESIAN_POINT ( 'NONE',  ( 41.99999999999999289, 0.000000000000000000, 52.00000000000000000 ) ) ;
#847 = ORIENTED_EDGE ( 'NONE', *, *, #232, .T. ) ;
#848 = DIRECTION ( 'NONE',  ( -0.000000000000000000, -1.000000000000000000, -0.000000000000000000 ) ) ;
#849 = ORIENTED_EDGE ( 'NONE', *, *, #613, .T. ) ;
#850 = VECTOR ( 'NONE', #117, 1000.000000000000000 ) ;
#851 = CARTESIAN_POINT ( 'NONE',  ( 41.99999999999999289, 11.00000000000000000, -52.00000000000000000 ) ) ;
#852 = CARTESIAN_POINT ( 'NONE',  ( -89.00000000000002842, 11.00000000000000000, -26.00000000000000000 ) ) ;
#853 = DIRECTION ( 'NONE',  ( -1.000000000000000000, 0.000000000000000000, 1.334402673828313339E-16 ) ) ;
#854 = CARTESIAN_POINT ( 'NONE',  ( 115.0000000000000000, 80.00000000000000000, -26.99999999999981881 ) ) ;
#855 = DIRECTION ( 'NONE',  ( 0.000000000000000000, 0.000000000000000000, 1.000000000000000000 ) ) ;
#856 = VECTOR ( 'NONE', #779, 1000.000000000000000 ) ;
#857 = DIRECTION ( 'NONE',  ( 0.000000000000000000, 0.000000000000000000, 1.000000000000000000 ) ) ;
#858 = DIRECTION ( 'NONE',  ( 0.000000000000000000, 1.000000000000000000, 0.000000000000000000 ) ) ;
#859 = LINE ( 'NONE', #25, #602 ) ;
#860 = ORIENTED_EDGE ( 'NONE', *, *, #613, .F. ) ;
#861 = EDGE_CURVE ( 'NONE', #359, #359, #591, .T. ) ;
#862 = CARTESIAN_POINT ( 'NONE',  ( -115.0000000000000142, 80.00000000000000000, -26.99999999999981881 ) ) ;
#863 = VECTOR ( 'NONE', #760, 1000.000000000000000 ) ;
#864 = CARTESIAN_POINT ( 'NONE',  ( -89.00000000000002842, 80.00000000000000000, -26.00000000000000000 ) ) ;
#865 = CARTESIAN_POINT ( 'NONE',  ( -91.99999999999985789, 73.00000000000000000, -49.99999999999997868 ) ) ;
#866 = EDGE_LOOP ( 'NONE', ( #179, #622, #847, #396 ) ) ;
#867 = EDGE_LOOP ( 'NONE', ( #478, #790, #563, #323, #376, #814, #849, #729 ) ) ;
#868 = EDGE_CURVE ( 'NONE', #271, #519, #826, .T. ) ;
#869 = LINE ( 'NONE', #244, #73 ) ;
#870 = ORIENTED_EDGE ( 'NONE', *, *, #119, .F. ) ;
#871 = ADVANCED_FACE ( 'NONE', ( #695, #482 ), #282, .F. ) ;
#872 = CARTESIAN_POINT ( 'NONE',  ( -89.00000000000001421, 0.000000000000000000, -52.00000000000000000 ) ) ;
#873 = AXIS2_PLACEMENT_3D ( 'NONE', #19, #82, #797 ) ;
#874 = ORIENTED_EDGE ( 'NONE', *, *, #605, .T. ) ;
#875 = ORIENTED_EDGE ( 'NONE', *, *, #158, .T. ) ;
#876 = EDGE_LOOP ( 'NONE', ( #748, #616, #724, #203 ) ) ;
#877 = FACE_OUTER_BOUND ( 'NONE', #382, .T. ) ;
#878 = ORIENTED_EDGE ( 'NONE', *, *, #423, .F. ) ;
#879 = LINE ( 'NONE', #254, #397 ) ;
#880 = ORIENTED_EDGE ( 'NONE', *, *, #751, .T. ) ;
#881 = EDGE_CURVE ( 'NONE', #54, #38, #341, .T. ) ;
#882 = ORIENTED_EDGE ( 'NONE', *, *, #788, .F. ) ;
#883 = LINE ( 'NONE', #110, #391 ) ;
#884 = ORIENTED_EDGE ( 'NONE', *, *, #452, .T. ) ;
#885 = APPROVAL_STATUS ( 'not_yet_approved' ) ;
#886 = CARTESIAN_POINT ( 'NONE',  ( -43.00000000000000711, 2.999999999999998668, 52.00000000000000000 ) ) ;
#887 = DIRECTION ( 'NONE',  ( 0.000000000000000000, 1.000000000000000000, 0.000000000000000000 ) ) ;
#888 = DIRECTION ( 'NONE',  ( 0.000000000000000000, -1.000000000000000000, 0.000000000000000000 ) ) ;
#889 = ORIENTED_EDGE ( 'NONE', *, *, #407, .T. ) ;
#890 = DIRECTION ( 'NONE',  ( 0.000000000000000000, 1.000000000000000000, 0.000000000000000000 ) ) ;
#891 = PERSON_AND_ORGANIZATION ( #762, #694 ) ;
#892 = ORIENTED_EDGE ( 'NONE', *, *, #624, .F. ) ;
#893 = FACE_OUTER_BOUND ( 'NONE', #239, .T. ) ;
ENDSEC;
END-ISO-10303-21;
